<svg width="196" height="196" viewBox="0 0 196 196" fill="none" xmlns="http://www.w3.org/2000/svg">
<path opacity="0.56" d="M13.9175 142.82C3.36082 136.649 3.36083 121.392 13.9175 115.221L81.9118 75.4736C91.8785 69.6475 104.212 69.6475 114.179 75.4737L182.173 115.221C192.73 121.392 192.73 136.649 182.173 142.82L114.179 182.567C104.212 188.393 91.8785 188.393 81.9118 182.567L13.9175 142.82Z" fill="url(#paint0_linear_2178_6940)" stroke="#292D3A" stroke-width="2"/>
<path opacity="0.85" d="M13.9175 123.239C3.36082 117.068 3.36083 101.811 13.9175 95.64L81.9118 55.8926C91.8785 50.0664 104.212 50.0664 114.179 55.8926L182.173 95.64C192.73 101.811 192.73 117.068 182.173 123.239L114.179 162.986C104.212 168.812 91.8785 168.812 81.9118 162.986L13.9175 123.239Z" fill="url(#paint1_linear_2178_6940)" stroke="#292D3A" stroke-width="2"/>
<mask id="path-3-outside-1_2178_6940" maskUnits="userSpaceOnUse" x="60.0287" y="42.978" width="81" height="43" fill="black">
<rect fill="white" x="60.0287" y="42.978" width="81" height="43"/>
<path d="M62.0931 45.2935C62.2309 46.8623 63.3891 48.2802 65.2015 49.3267L65.2129 49.3328C65.2137 49.3332 65.2142 49.3341 65.2142 49.335C65.2142 49.3359 65.2147 49.3367 65.2155 49.3371L92.6001 65.1475C92.6005 65.1477 92.601 65.1474 92.601 65.147C92.601 65.1465 92.6014 65.1463 92.6018 65.1465L92.639 65.1675C94.7243 66.3714 97.4597 66.9741 100.196 66.9741C102.932 66.9741 105.666 66.3713 107.751 65.1675L107.788 65.1469C107.788 65.1465 107.789 65.1471 107.789 65.1479C107.789 65.1488 107.79 65.1494 107.791 65.1489L135.178 49.3371C135.179 49.3367 135.179 49.3359 135.179 49.335C135.179 49.3341 135.18 49.3332 135.18 49.3328L135.192 49.3267C137.115 48.216 138.303 46.6869 138.315 45.003C138.315 44.9892 138.326 44.978 138.34 44.978C138.353 44.978 138.365 44.9892 138.365 45.0029V61.3657C138.364 63.0847 137.158 64.6369 135.217 65.7573L135.181 65.7776C135.18 65.7781 135.179 65.7775 135.179 65.7764C135.179 65.7753 135.178 65.7746 135.177 65.7752L107.791 81.5867C107.79 81.5871 107.789 81.588 107.789 81.5889C107.789 81.5898 107.789 81.5906 107.788 81.5911L107.777 81.5981C105.682 82.8074 102.938 83.4116 100.196 83.4116C97.4532 83.4116 94.7084 82.8075 92.6136 81.5981L92.603 81.5916C92.6017 81.5908 92.601 81.5894 92.601 81.5879C92.601 81.5864 92.6001 81.585 92.5988 81.5842L65.2163 65.7751C65.2154 65.7746 65.2142 65.7753 65.2142 65.7764C65.2142 65.7775 65.2131 65.7781 65.2121 65.7776L65.1771 65.7573C63.2365 64.6369 62.029 63.0848 62.0287 61.3657V45.004C62.0287 44.9896 62.0403 44.978 62.0546 44.978C62.0685 44.978 62.0799 44.989 62.0805 45.0028L62.0931 45.2935Z"/>
</mask>
<path d="M62.0931 45.2935C62.2309 46.8623 63.3891 48.2802 65.2015 49.3267L65.2129 49.3328C65.2137 49.3332 65.2142 49.3341 65.2142 49.335C65.2142 49.3359 65.2147 49.3367 65.2155 49.3371L92.6001 65.1475C92.6005 65.1477 92.601 65.1474 92.601 65.147C92.601 65.1465 92.6014 65.1463 92.6018 65.1465L92.639 65.1675C94.7243 66.3714 97.4597 66.9741 100.196 66.9741C102.932 66.9741 105.666 66.3713 107.751 65.1675L107.788 65.1469C107.788 65.1465 107.789 65.1471 107.789 65.1479C107.789 65.1488 107.79 65.1494 107.791 65.1489L135.178 49.3371C135.179 49.3367 135.179 49.3359 135.179 49.335C135.179 49.3341 135.18 49.3332 135.18 49.3328L135.192 49.3267C137.115 48.216 138.303 46.6869 138.315 45.003C138.315 44.9892 138.326 44.978 138.34 44.978C138.353 44.978 138.365 44.9892 138.365 45.0029V61.3657C138.364 63.0847 137.158 64.6369 135.217 65.7573L135.181 65.7776C135.18 65.7781 135.179 65.7775 135.179 65.7764C135.179 65.7753 135.178 65.7746 135.177 65.7752L107.791 81.5867C107.79 81.5871 107.789 81.588 107.789 81.5889C107.789 81.5898 107.789 81.5906 107.788 81.5911L107.777 81.5981C105.682 82.8074 102.938 83.4116 100.196 83.4116C97.4532 83.4116 94.7084 82.8075 92.6136 81.5981L92.603 81.5916C92.6017 81.5908 92.601 81.5894 92.601 81.5879C92.601 81.5864 92.6001 81.585 92.5988 81.5842L65.2163 65.7751C65.2154 65.7746 65.2142 65.7753 65.2142 65.7764C65.2142 65.7775 65.2131 65.7781 65.2121 65.7776L65.1771 65.7573C63.2365 64.6369 62.029 63.0848 62.0287 61.3657V45.004C62.0287 44.9896 62.0403 44.978 62.0546 44.978C62.0685 44.978 62.0799 44.989 62.0805 45.0028L62.0931 45.2935Z" fill="#00E0AF"/>
<path d="M62.0931 45.2935L60.095 45.3801L60.0969 45.4243L60.1008 45.4684L62.0931 45.2935ZM65.2015 49.3267L64.2015 51.0587L64.2272 51.0735L64.2533 51.0876L65.2015 49.3267ZM92.639 65.1675L93.639 63.4354L93.6304 63.4304L93.6217 63.4255L92.639 65.1675ZM100.196 66.9741L100.196 68.9741H100.196L100.196 66.9741ZM107.751 65.1675L106.769 63.4255L106.76 63.4304L106.751 63.4354L107.751 65.1675ZM135.192 49.3267L136.14 51.0876L136.166 51.0735L136.192 51.0587L135.192 49.3267ZM138.365 61.3657L140.365 61.3661V61.3657H138.365ZM135.217 65.7573L136.2 67.4993L136.209 67.4944L136.217 67.4894L135.217 65.7573ZM107.777 81.5981L108.777 83.3302L108.801 83.3162L108.825 83.3015L107.777 81.5981ZM100.196 83.4116L100.196 85.4116H100.196L100.196 83.4116ZM92.6136 81.5981L91.5655 83.3015L91.5893 83.3162L91.6136 83.3302L92.6136 81.5981ZM65.1771 65.7573L66.1792 64.0265L66.1771 64.0253L65.1771 65.7573ZM62.0287 61.3657H60.0287V61.3661L62.0287 61.3657ZM107.788 81.5911L106.74 79.8878L107.788 81.5911ZM107.791 81.5867L108.791 83.3187L107.791 81.5867ZM135.177 65.7752L136.177 67.5072L135.177 65.7752ZM135.181 65.7776L134.199 64.0357L135.181 65.7776ZM135.18 49.3328L136.129 51.0937L135.18 49.3328ZM135.178 49.3371L134.178 47.6051L135.178 49.3371ZM107.791 65.1489L106.791 63.4169L107.791 65.1489ZM65.2121 65.7776L64.21 67.5084L65.2121 65.7776ZM92.6018 65.1465L91.6192 66.8884L92.6018 65.1465ZM107.788 65.1469L108.77 66.8889L107.788 65.1469ZM65.2163 65.7751L66.2163 64.0431L65.2163 65.7751ZM92.6001 65.1475L91.6001 66.8795L92.6001 65.1475ZM138.315 45.003L140.315 45.0169L138.315 45.003ZM92.5988 81.5842L93.5988 79.8522L92.5988 81.5842ZM65.2155 49.3371L66.2155 47.6051L65.2155 49.3371ZM92.603 81.5916L93.6512 79.8883L92.603 81.5916ZM65.2129 49.3328L64.2647 51.0937L65.2129 49.3328ZM62.0931 45.2935L60.1008 45.4684C60.3186 47.9493 62.0989 49.8448 64.2015 51.0587L65.2015 49.3267L66.2015 47.5946C64.6792 46.7157 64.1431 45.7753 64.0855 45.1186L62.0931 45.2935ZM65.2015 49.3267L64.2533 51.0876L64.2647 51.0937L65.2129 49.3328L66.1611 47.5718L66.1497 47.5657L65.2015 49.3267ZM65.2155 49.3371L64.2155 51.0692L91.6001 66.8795L92.6001 65.1475L93.6001 63.4154L66.2155 47.6051L65.2155 49.3371ZM92.6018 65.1465L91.6192 66.8884L91.6564 66.9094L92.639 65.1675L93.6217 63.4255L93.5844 63.4045L92.6018 65.1465ZM92.639 65.1675L91.6391 66.8996C94.1 68.3203 97.2017 68.9741 100.196 68.9741L100.196 66.9741L100.196 64.9741C97.7177 64.9741 95.3487 64.4224 93.639 63.4354L92.639 65.1675ZM100.196 66.9741L100.196 68.9741C103.19 68.9741 106.291 68.3201 108.751 66.8996L107.751 65.1675L106.751 63.4354C105.042 64.4224 102.673 64.9741 100.196 64.9741L100.196 66.9741ZM107.751 65.1675L108.734 66.9094L108.77 66.8889L107.788 65.1469L106.805 63.405L106.769 63.4255L107.751 65.1675ZM107.791 65.1489L108.791 66.881L136.178 51.0692L135.178 49.3371L134.178 47.6051L106.791 63.4169L107.791 65.1489ZM135.18 49.3328L136.129 51.0937L136.14 51.0876L135.192 49.3267L134.244 47.5657L134.232 47.5718L135.18 49.3328ZM135.192 49.3267L136.192 51.0587C138.417 49.774 140.296 47.7096 140.315 45.0169L138.315 45.003L136.315 44.9891C136.31 45.6641 135.814 46.658 134.192 47.5946L135.192 49.3267ZM138.365 45.0029H136.365V61.3657H138.365H140.365V45.0029H138.365ZM138.365 61.3657L136.365 61.3654C136.365 62.0678 135.855 63.0796 134.217 64.0253L135.217 65.7573L136.217 67.4894C138.46 66.1942 140.364 64.1017 140.365 61.3661L138.365 61.3657ZM135.217 65.7573L134.235 64.0154L134.199 64.0357L135.181 65.7776L136.164 67.5196L136.2 67.4993L135.217 65.7573ZM135.177 65.7752L134.177 64.0431L106.791 79.8546L107.791 81.5867L108.791 83.3187L136.177 67.5072L135.177 65.7752ZM107.788 81.5911L106.74 79.8878L106.729 79.8948L107.777 81.5981L108.825 83.3015L108.836 83.2944L107.788 81.5911ZM107.777 81.5981L106.777 79.8661C105.058 80.8586 102.68 81.4116 100.196 81.4116L100.196 83.4116L100.196 85.4116C103.196 85.4116 106.307 84.7563 108.777 83.3302L107.777 81.5981ZM100.196 83.4116L100.196 81.4116C97.7111 81.4116 95.3327 80.8586 93.6136 79.8661L92.6136 81.5981L91.6136 83.3302C94.084 84.7565 97.1952 85.4116 100.196 85.4116L100.196 83.4116ZM92.6136 81.5981L93.6618 79.8948L93.6512 79.8883L92.603 81.5916L91.5548 83.2949L91.5655 83.3015L92.6136 81.5981ZM92.5988 81.5842L93.5988 79.8522L66.2163 64.0431L65.2163 65.7751L64.2164 67.5072L91.5988 83.3163L92.5988 81.5842ZM65.2121 65.7776L66.2142 64.0467L66.1792 64.0265L65.1771 65.7573L64.1751 67.4882L64.21 67.5084L65.2121 65.7776ZM65.1771 65.7573L66.1771 64.0253C64.5385 63.0792 64.0288 62.0673 64.0287 61.3654L62.0287 61.3657L60.0287 61.3661C60.0292 64.1022 61.9346 66.1946 64.1771 67.4894L65.1771 65.7573ZM62.0287 61.3657H64.0287V45.004H62.0287H60.0287V61.3657H62.0287ZM62.0805 45.0028L60.0824 45.0895L60.095 45.3801L62.0931 45.2935L64.0913 45.2069L64.0787 44.9162L62.0805 45.0028ZM62.0287 45.004H64.0287C64.0287 46.0943 63.1448 46.978 62.0546 46.978V44.978V42.978C60.9359 42.978 60.0287 43.885 60.0287 45.004H62.0287ZM107.789 81.5889H105.789C105.789 80.8953 106.149 80.2513 106.74 79.8878L107.788 81.5911L108.836 83.2944C109.429 82.9299 109.789 82.2843 109.789 81.5889H107.789ZM107.791 81.5867L106.791 79.8546C106.171 80.2121 105.789 80.873 105.789 81.5889H107.789H109.789C109.789 82.3029 109.408 82.9621 108.791 83.3187L107.791 81.5867ZM135.179 65.7764H137.179C137.179 64.2357 135.511 63.2728 134.177 64.0431L135.177 65.7752L136.177 67.5072C134.845 68.2765 133.179 67.3149 133.179 65.7764H135.179ZM135.181 65.7776L134.199 64.0357C135.531 63.2841 137.179 64.2467 137.179 65.7764H135.179H133.179C133.179 67.3082 134.83 68.2722 136.164 67.5196L135.181 65.7776ZM135.179 49.335H137.179C137.179 50.0698 136.776 50.7453 136.129 51.0937L135.18 49.3328L134.232 47.5718C133.584 47.9211 133.179 48.5983 133.179 49.335H135.179ZM135.178 49.3371L136.178 51.0692C136.797 50.7116 137.179 50.0506 137.179 49.335H135.179H133.179C133.179 48.6211 133.56 47.9618 134.178 47.6051L135.178 49.3371ZM107.789 65.1479H105.789C105.789 66.6884 107.457 67.6512 108.791 66.881L107.791 65.1489L106.791 63.4169C108.124 62.6475 109.789 63.6092 109.789 65.1479H107.789ZM65.2142 65.7764H63.2142C63.2142 64.2368 64.8818 63.2753 66.2142 64.0467L65.2121 65.7776L64.21 67.5084C65.5443 68.2809 67.2142 67.3181 67.2142 65.7764H65.2142ZM92.601 65.147H94.601C94.601 66.6773 92.952 67.6403 91.6192 66.8884L92.6018 65.1465L93.5844 63.4045C92.2508 62.6522 90.601 63.6158 90.601 65.147H92.601ZM62.0546 44.978V46.978C60.9976 46.978 60.1282 46.1455 60.0824 45.0895L62.0805 45.0028L64.0787 44.9162C64.0317 43.8325 63.1394 42.978 62.0546 42.978V44.978ZM107.788 65.1469L108.77 66.8889C107.438 67.6406 105.789 66.6778 105.789 65.1479H107.789H109.789C109.789 63.6163 108.139 62.6525 106.805 63.405L107.788 65.1469ZM138.34 44.978V46.978C137.249 46.978 136.365 46.0937 136.365 45.0029H138.365H140.365C140.365 43.8846 139.458 42.978 138.34 42.978V44.978ZM65.2163 65.7751L66.2163 64.0431C64.8807 63.272 63.2142 64.2373 63.2142 65.7764H65.2142H67.2142C67.2142 67.3133 65.5501 68.2772 64.2164 67.5072L65.2163 65.7751ZM92.6001 65.1475L91.6001 66.8795C92.9346 67.65 94.601 66.6861 94.601 65.147H92.601H90.601C90.601 63.6087 92.2664 62.6454 93.6001 63.4154L92.6001 65.1475ZM138.315 45.003L140.315 45.0169C140.307 46.0875 139.44 46.978 138.34 46.978V44.978V42.978C137.212 42.978 136.322 43.891 136.315 44.9891L138.315 45.003ZM92.601 81.5879H94.601C94.601 80.8719 94.2189 80.2102 93.5988 79.8522L92.5988 81.5842L91.5988 83.3163C90.9813 82.9598 90.601 82.3009 90.601 81.5879H92.601ZM65.2142 49.335H63.2142C63.2142 50.0504 63.5959 50.7115 64.2155 51.0692L65.2155 49.3371L66.2155 47.6051C66.8335 47.9619 67.2142 48.6213 67.2142 49.335H65.2142ZM92.603 81.5916L93.6512 79.8883C94.2414 80.2515 94.601 80.8949 94.601 81.5879H92.601H90.601C90.601 82.2839 90.962 82.9301 91.5548 83.2949L92.603 81.5916ZM65.2129 49.3328L64.2647 51.0937C63.6177 50.7453 63.2142 50.0698 63.2142 49.335H65.2142H67.2142C67.2142 48.5983 66.8098 47.9211 66.1611 47.5718L65.2129 49.3328Z" fill="#292D3A" mask="url(#path-3-outside-1_2178_6940)"/>
<rect width="31.682" height="16.3873" transform="matrix(0.866025 0.5 0 1 65.1143 49.3906)" fill="#01A982"/>
<rect width="31.682" height="16.3873" transform="matrix(0.866025 -0.5 0 1 107.691 65.2322)" fill="#00E0AF"/>
<path d="M61.9795 45.0205C61.9795 46.7271 63.1776 48.2721 65.1147 49.3904V65.7777C63.1776 64.6593 61.9795 63.1143 61.9795 61.4078V45.0205Z" fill="#01A982"/>
<path d="M92.5527 65.2322C96.733 67.6456 103.51 67.6456 107.691 65.2322V81.6194C103.51 84.0329 96.733 84.0329 92.5527 81.6194V65.2322Z" fill="#00E0AF"/>
<path d="M138.265 45.0205C138.265 46.7271 137.067 48.2721 135.13 49.3904V65.7777C137.067 64.6593 138.265 63.1143 138.265 61.4078V45.0205Z" fill="#00E0AF"/>
<path d="M100.121 22C102.99 22 105.913 22.6292 108.191 23.9443L135.628 39.7852C137.9 41.0971 139.263 42.9568 139.263 45.0215C139.263 47.086 137.9 48.945 135.628 50.2568L108.191 66.0977C105.913 67.4128 102.99 68.042 100.121 68.042C97.2528 68.042 94.3298 67.4128 92.0519 66.0977L64.6144 50.2568C62.3425 48.945 60.9798 47.086 60.9796 45.0215C60.9796 42.9568 62.3423 41.0971 64.6144 39.7852L92.0519 23.9443C94.3298 22.6292 97.2528 22 100.121 22Z" fill="url(#paint2_linear_2178_6940)" stroke="#292D3A" stroke-width="2"/>
<mask id="path-11-outside-2_2178_6940" maskUnits="userSpaceOnUse" x="111.773" y="73.9407" width="81" height="43" fill="black">
<rect fill="white" x="111.773" y="73.9407" width="81" height="43"/>
<path d="M113.837 76.2561C113.975 77.825 115.133 79.2428 116.946 80.2893L116.957 80.2954C116.958 80.2959 116.958 80.2967 116.958 80.2976C116.958 80.2985 116.959 80.2993 116.96 80.2998L144.345 96.1104C144.345 96.1105 144.345 96.1103 144.345 96.1101C144.345 96.1099 144.345 96.1098 144.346 96.1099L144.383 96.1311C146.469 97.335 149.204 97.9377 151.94 97.9377C154.676 97.9377 157.41 97.3349 159.496 96.1311L159.532 96.1103C159.533 96.11 159.534 96.1104 159.534 96.1111C159.534 96.1117 159.534 96.1121 159.535 96.1118L186.921 80.301C186.922 80.3004 186.922 80.2993 186.922 80.2981C186.922 80.2969 186.923 80.2958 186.924 80.2952L186.935 80.2893C188.859 79.1786 190.046 77.6496 190.058 75.9656C190.058 75.9519 190.069 75.9407 190.083 75.9407C190.097 75.9407 190.108 75.9518 190.108 75.9656V92.3284C190.108 94.0475 188.901 95.5995 186.96 96.72L186.924 96.7405C186.923 96.7409 186.922 96.7404 186.922 96.7395C186.922 96.7386 186.921 96.7381 186.921 96.7385L159.535 112.549C159.534 112.55 159.534 112.551 159.534 112.552C159.534 112.553 159.533 112.554 159.532 112.555L159.521 112.562C157.426 113.771 154.682 114.375 151.94 114.375C149.197 114.375 146.453 113.771 144.358 112.562L144.348 112.555C144.346 112.555 144.345 112.553 144.345 112.551C144.345 112.549 144.344 112.548 144.343 112.547L116.961 96.7378C116.96 96.7372 116.958 96.7379 116.958 96.739C116.958 96.7401 116.957 96.7408 116.956 96.7402L116.921 96.72C114.981 95.5995 113.773 94.0475 113.773 92.3284V75.9666C113.773 75.9523 113.785 75.9407 113.799 75.9407C113.813 75.9407 113.824 75.9516 113.825 75.9655L113.837 76.2561Z"/>
</mask>
<path d="M113.837 76.2561C113.975 77.825 115.133 79.2428 116.946 80.2893L116.957 80.2954C116.958 80.2959 116.958 80.2967 116.958 80.2976C116.958 80.2985 116.959 80.2993 116.96 80.2998L144.345 96.1104C144.345 96.1105 144.345 96.1103 144.345 96.1101C144.345 96.1099 144.345 96.1098 144.346 96.1099L144.383 96.1311C146.469 97.335 149.204 97.9377 151.94 97.9377C154.676 97.9377 157.41 97.3349 159.496 96.1311L159.532 96.1103C159.533 96.11 159.534 96.1104 159.534 96.1111C159.534 96.1117 159.534 96.1121 159.535 96.1118L186.921 80.301C186.922 80.3004 186.922 80.2993 186.922 80.2981C186.922 80.2969 186.923 80.2958 186.924 80.2952L186.935 80.2893C188.859 79.1786 190.046 77.6496 190.058 75.9656C190.058 75.9519 190.069 75.9407 190.083 75.9407C190.097 75.9407 190.108 75.9518 190.108 75.9656V92.3284C190.108 94.0475 188.901 95.5995 186.96 96.72L186.924 96.7405C186.923 96.7409 186.922 96.7404 186.922 96.7395C186.922 96.7386 186.921 96.7381 186.921 96.7385L159.535 112.549C159.534 112.55 159.534 112.551 159.534 112.552C159.534 112.553 159.533 112.554 159.532 112.555L159.521 112.562C157.426 113.771 154.682 114.375 151.94 114.375C149.197 114.375 146.453 113.771 144.358 112.562L144.348 112.555C144.346 112.555 144.345 112.553 144.345 112.551C144.345 112.549 144.344 112.548 144.343 112.547L116.961 96.7378C116.96 96.7372 116.958 96.7379 116.958 96.739C116.958 96.7401 116.957 96.7408 116.956 96.7402L116.921 96.72C114.981 95.5995 113.773 94.0475 113.773 92.3284V75.9666C113.773 75.9523 113.785 75.9407 113.799 75.9407C113.813 75.9407 113.824 75.9516 113.825 75.9655L113.837 76.2561Z" fill="#00E0AF"/>
<path d="M113.837 76.2561L111.839 76.3427L111.841 76.3869L111.845 76.4309L113.837 76.2561ZM116.946 80.2893L115.946 82.0214L115.971 82.0362L115.998 82.0502L116.946 80.2893ZM144.383 96.1311L145.383 94.399L145.375 94.394L145.366 94.3891L144.383 96.1311ZM151.94 97.9377V99.9377H151.94L151.94 97.9377ZM159.496 96.1311L158.513 94.3891L158.504 94.394L158.496 94.399L159.496 96.1311ZM186.935 80.2893L187.883 82.0502L187.909 82.0362L187.935 82.0214L186.935 80.2893ZM190.108 92.3284L192.108 92.3286V92.3284H190.108ZM186.96 96.72L187.943 98.4619L187.952 98.457L187.96 98.452L186.96 96.72ZM159.521 112.562L160.521 114.294L160.545 114.28L160.569 114.265L159.521 112.562ZM151.94 114.375V116.375H151.94L151.94 114.375ZM144.358 112.562L143.31 114.265L143.334 114.28L143.358 114.294L144.358 112.562ZM116.921 96.72L117.923 94.9891L117.921 94.9879L116.921 96.72ZM113.773 92.3284H111.773V92.3286L113.773 92.3284ZM159.532 112.555L158.484 110.852L159.532 112.555ZM159.535 112.549L160.535 114.281L159.535 112.549ZM186.921 96.7385L187.921 98.4706L186.921 96.7385ZM186.924 96.7405L187.907 98.4825L186.924 96.7405ZM186.924 80.2952L187.872 82.0561L186.924 80.2952ZM186.921 80.301L185.921 78.5689L186.921 80.301ZM159.535 96.1118L160.535 97.8439L159.535 96.1118ZM116.956 96.7402L115.954 98.4711L116.956 96.7402ZM144.346 96.1099L143.363 97.8518L144.346 96.1099ZM159.532 96.1103L158.55 94.3684L159.532 96.1103ZM116.961 96.7378L117.961 95.0057L116.961 96.7378ZM144.345 96.1104L143.345 97.8424L144.345 96.1104ZM190.058 75.9656L192.058 75.9794L190.058 75.9656ZM144.343 112.547L143.343 114.279L144.343 112.547ZM116.96 80.2998L117.96 78.5677L116.96 80.2998ZM144.348 112.555L145.396 110.852L144.348 112.555ZM116.957 80.2954L116.009 82.0564L116.957 80.2954ZM113.837 76.2561L111.845 76.4309C112.063 78.912 113.843 80.8074 115.946 82.0214L116.946 80.2893L117.946 78.5573C116.423 77.6782 115.887 76.7379 115.83 76.0813L113.837 76.2561ZM116.946 80.2893L115.998 82.0502L116.009 82.0564L116.957 80.2954L117.905 78.5345L117.894 78.5284L116.946 80.2893ZM116.96 80.2998L115.96 82.0318L143.345 97.8424L144.345 96.1104L145.345 94.3783L117.96 78.5677L116.96 80.2998ZM144.346 96.1099L143.363 97.8518L143.401 97.8731L144.383 96.1311L145.366 94.3891L145.328 94.3679L144.346 96.1099ZM144.383 96.1311L143.383 97.8632C145.844 99.2839 148.946 99.9377 151.94 99.9377V97.9377V95.9377C149.462 95.9377 147.093 95.3861 145.383 94.399L144.383 96.1311ZM151.94 97.9377L151.94 99.9377C154.934 99.9377 158.035 99.2838 160.496 97.8632L159.496 96.1311L158.496 94.399C156.786 95.3861 154.418 95.9377 151.94 95.9377L151.94 97.9377ZM159.496 96.1311L160.478 97.8731L160.515 97.8523L159.532 96.1103L158.55 94.3684L158.513 94.3891L159.496 96.1311ZM159.535 96.1118L160.535 97.8439L187.921 82.0331L186.921 80.301L185.921 78.5689L158.535 94.3798L159.535 96.1118ZM186.924 80.2952L187.872 82.0561L187.883 82.0502L186.935 80.2893L185.987 78.5284L185.976 78.5343L186.924 80.2952ZM186.935 80.2893L187.935 82.0214C190.16 80.7367 192.039 78.6724 192.058 75.9794L190.058 75.9656L188.058 75.9518C188.053 76.6269 187.557 77.6205 185.935 78.5573L186.935 80.2893ZM190.108 75.9656H188.108V92.3284H190.108H192.108V75.9656H190.108ZM190.108 92.3284L188.108 92.3281C188.108 93.0305 187.599 94.0421 185.96 94.9879L186.96 96.72L187.96 98.452C190.204 97.1569 192.108 95.0644 192.108 92.3286L190.108 92.3284ZM186.96 96.72L185.978 94.978L185.941 94.9985L186.924 96.7405L187.907 98.4825L187.943 98.4619L186.96 96.72ZM186.921 96.7385L185.921 95.0065L158.535 110.817L159.535 112.549L160.535 114.281L187.921 98.4706L186.921 96.7385ZM159.532 112.555L158.484 110.852L158.473 110.858L159.521 112.562L160.569 114.265L160.58 114.258L159.532 112.555ZM159.521 112.562L158.521 110.83C156.802 111.822 154.424 112.375 151.94 112.375L151.94 114.375L151.94 116.375C154.941 116.375 158.051 115.72 160.521 114.294L159.521 112.562ZM151.94 114.375V112.375C149.455 112.375 147.077 111.822 145.358 110.83L144.358 112.562L143.358 114.294C145.828 115.72 148.939 116.375 151.94 116.375V114.375ZM144.358 112.562L145.406 110.858L145.396 110.852L144.348 112.555L143.299 114.259L143.31 114.265L144.358 112.562ZM144.343 112.547L145.343 110.815L117.961 95.0057L116.961 96.7378L115.961 98.4698L143.343 114.279L144.343 112.547ZM116.956 96.7402L117.958 95.0094L117.923 94.9891L116.921 96.72L115.919 98.4508L115.954 98.4711L116.956 96.7402ZM116.921 96.72L117.921 94.9879C116.283 94.0417 115.773 93.03 115.773 92.3281L113.773 92.3284L111.773 92.3286C111.773 95.065 113.679 97.1573 115.921 98.452L116.921 96.72ZM113.773 92.3284H115.773V75.9666H113.773H111.773V92.3284H113.773ZM113.825 75.9655L111.827 76.0521L111.839 76.3427L113.837 76.2561L115.836 76.1695L115.823 75.8789L113.825 75.9655ZM113.773 75.9666H115.773C115.773 77.057 114.889 77.9407 113.799 77.9407V75.9407V73.9407C112.68 73.9407 111.773 74.8476 111.773 75.9666H113.773ZM159.534 112.552H157.534C157.534 111.859 157.893 111.215 158.484 110.852L159.532 112.555L160.58 114.258C161.173 113.894 161.534 113.248 161.534 112.552H159.534ZM159.535 112.549L158.535 110.817C157.915 111.175 157.534 111.836 157.534 112.552H159.534H161.534C161.534 113.265 161.153 113.924 160.535 114.281L159.535 112.549ZM186.922 96.7395H188.922C188.922 95.199 187.255 94.2362 185.921 95.0065L186.921 96.7385L187.921 98.4706C186.588 99.2399 184.922 98.2782 184.922 96.7395H186.922ZM186.924 96.7405L185.941 94.9985C187.274 94.2469 188.922 95.2097 188.922 96.7395H186.922H184.922C184.922 98.2711 186.573 99.235 187.907 98.4825L186.924 96.7405ZM186.922 80.2981H188.922C188.922 81.0327 188.519 81.7079 187.872 82.0561L186.924 80.2952L185.976 78.5343C185.327 78.8837 184.922 79.5611 184.922 80.2981H186.922ZM186.921 80.301L187.921 82.0331C188.54 81.6755 188.922 81.0144 188.922 80.2981H186.922H184.922C184.922 79.5842 185.303 78.9253 185.921 78.5689L186.921 80.301ZM159.534 96.1111H157.534C157.534 97.6513 159.201 98.614 160.535 97.8439L159.535 96.1118L158.535 94.3798C159.868 93.6103 161.534 94.5721 161.534 96.1111H159.534ZM116.958 96.739H114.958C114.958 95.1994 116.626 94.238 117.958 95.0094L116.956 96.7402L115.954 98.4711C117.289 99.2436 118.958 98.2808 118.958 96.739H116.958ZM144.345 96.1101H146.345C146.345 97.6406 144.696 98.6038 143.363 97.8518L144.346 96.1099L145.328 94.3679C143.995 93.6157 142.345 94.5792 142.345 96.1101H144.345ZM113.799 75.9407V77.9407C112.742 77.9407 111.872 77.1081 111.827 76.0521L113.825 75.9655L115.823 75.8789C115.776 74.7951 114.884 73.9407 113.799 73.9407V75.9407ZM159.532 96.1103L160.515 97.8523C159.182 98.6041 157.534 97.6412 157.534 96.1111H159.534H161.534C161.534 94.5797 159.884 93.616 158.55 94.3684L159.532 96.1103ZM190.083 75.9407V77.9407C188.992 77.9407 188.108 77.0564 188.108 75.9656H190.108H192.108C192.108 74.8473 191.201 73.9407 190.083 73.9407V75.9407ZM116.961 96.7378L117.961 95.0057C116.625 94.2346 114.958 95.1999 114.958 96.739H116.958H118.958C118.958 98.2759 117.294 99.2399 115.961 98.4698L116.961 96.7378ZM144.345 96.1104L143.345 97.8424C144.689 98.6184 146.345 97.6376 146.345 96.1101H144.345H142.345C142.345 94.583 144.001 93.6025 145.345 94.3783L144.345 96.1104ZM190.058 75.9656L192.058 75.9794C192.051 77.0501 191.183 77.9407 190.083 77.9407V75.9407V73.9407C188.955 73.9407 188.066 74.8537 188.058 75.9518L190.058 75.9656ZM144.345 112.551H146.345C146.345 111.835 145.963 111.173 145.343 110.815L144.343 112.547L143.343 114.279C142.725 113.922 142.345 113.264 142.345 112.551H144.345ZM116.958 80.2976H114.958C114.958 81.0131 115.34 81.6741 115.96 82.0318L116.96 80.2998L117.96 78.5677C118.578 78.9246 118.958 79.584 118.958 80.2976H116.958ZM144.348 112.555L145.396 110.852C145.986 111.215 146.345 111.858 146.345 112.551H144.345H142.345C142.345 113.247 142.706 113.894 143.299 114.259L144.348 112.555ZM116.957 80.2954L116.009 82.0564C115.362 81.708 114.958 81.0325 114.958 80.2976H116.958H118.958C118.958 79.561 118.554 78.8838 117.905 78.5345L116.957 80.2954Z" fill="#292D3A" mask="url(#path-11-outside-2_2178_6940)"/>
<rect width="31.682" height="16.3873" transform="matrix(0.866025 0.5 0 1 116.858 80.3547)" fill="#01A982"/>
<rect width="31.682" height="16.3873" transform="matrix(0.866025 -0.5 0 1 159.435 96.1963)" fill="#00E0AF"/>
<path d="M113.723 75.9846C113.723 77.6912 114.921 79.2362 116.859 80.3546V96.7418C114.921 95.6235 113.723 94.0785 113.723 92.3719V75.9846Z" fill="#01A982"/>
<path d="M144.296 96.1963C148.477 98.6097 155.254 98.6097 159.434 96.1963V112.584C155.254 114.997 148.477 114.997 144.296 112.584V96.1963Z" fill="#00E0AF"/>
<path d="M190.009 75.9846C190.009 77.6912 188.811 79.2362 186.874 80.3546V96.7418C188.811 95.6235 190.009 94.0785 190.009 92.3719V75.9846Z" fill="#00E0AF"/>
<path d="M151.865 52.9641C154.733 52.9641 157.656 53.5933 159.934 54.9084L187.372 70.7493C189.644 72.0612 191.007 73.9209 191.007 75.9856C191.006 78.0501 189.644 79.9091 187.372 81.2209L159.934 97.0618C157.656 98.3769 154.733 99.0061 151.865 99.0061C148.997 99.0061 146.074 98.3769 143.796 97.0618L116.358 81.2209C114.086 79.9091 112.724 78.0501 112.723 75.9856C112.723 73.9209 114.086 72.0612 116.358 70.7493L143.796 54.9084C146.074 53.5933 148.997 52.9641 151.865 52.9641Z" fill="url(#paint3_linear_2178_6940)" stroke="#292D3A" stroke-width="2"/>
<mask id="path-19-outside-3_2178_6940" maskUnits="userSpaceOnUse" x="5.86877" y="75.7512" width="81" height="43" fill="black">
<rect fill="white" x="5.86877" y="75.7512" width="81" height="43"/>
<path d="M7.93323 78.0667C8.07087 79.6355 9.22907 81.0534 11.0416 82.0999L11.053 82.106C11.0538 82.1064 11.0543 82.1073 11.0543 82.1082C11.0543 82.1091 11.0548 82.1099 11.0556 82.1103L38.4406 97.9209C38.4408 97.921 38.441 97.9209 38.441 97.9207C38.441 97.9204 38.4413 97.9203 38.4415 97.9204L38.4791 97.9417C40.5644 99.1455 43.2998 99.7482 46.0358 99.7483C48.7715 99.7482 51.5062 99.1453 53.5914 97.9417L53.6282 97.9209C53.6288 97.9206 53.6295 97.921 53.6295 97.9216C53.6295 97.9223 53.6302 97.9227 53.6308 97.9224L81.0165 82.1116C81.0176 82.111 81.0182 82.1099 81.0182 82.1087C81.0182 82.1075 81.0189 82.1063 81.0199 82.1057L81.0309 82.0999C82.9547 80.9892 84.1422 79.4602 84.1538 77.7762C84.1539 77.7624 84.1651 77.7512 84.1788 77.7512C84.1926 77.7512 84.2037 77.7624 84.2037 77.7761V94.1389C84.2035 95.858 82.997 97.4101 81.0563 98.5305L81.0199 98.551C81.0191 98.5515 81.0182 98.5509 81.0182 98.5501C81.0182 98.5492 81.0172 98.5486 81.0165 98.5491L53.6312 114.36C53.6302 114.36 53.6295 114.361 53.6295 114.363C53.6295 114.364 53.6289 114.365 53.6279 114.366L53.6168 114.372C51.5222 115.582 48.7781 116.186 46.0358 116.186C43.2933 116.186 40.5484 115.582 38.4537 114.372L38.4435 114.366C38.442 114.365 38.441 114.363 38.441 114.362C38.441 114.36 38.4401 114.358 38.4385 114.357L11.0564 98.5483C11.0555 98.5478 11.0543 98.5485 11.0543 98.5496C11.0543 98.5506 11.0531 98.5513 11.0522 98.5508L11.0172 98.5305C9.07653 97.4101 7.86897 95.858 7.86877 94.1389V77.7772C7.86877 77.7628 7.88039 77.7512 7.89472 77.7512C7.9086 77.7512 7.92003 77.7622 7.92063 77.776L7.93323 78.0667Z"/>
</mask>
<path d="M7.93323 78.0667C8.07087 79.6355 9.22907 81.0534 11.0416 82.0999L11.053 82.106C11.0538 82.1064 11.0543 82.1073 11.0543 82.1082C11.0543 82.1091 11.0548 82.1099 11.0556 82.1103L38.4406 97.9209C38.4408 97.921 38.441 97.9209 38.441 97.9207C38.441 97.9204 38.4413 97.9203 38.4415 97.9204L38.4791 97.9417C40.5644 99.1455 43.2998 99.7482 46.0358 99.7483C48.7715 99.7482 51.5062 99.1453 53.5914 97.9417L53.6282 97.9209C53.6288 97.9206 53.6295 97.921 53.6295 97.9216C53.6295 97.9223 53.6302 97.9227 53.6308 97.9224L81.0165 82.1116C81.0176 82.111 81.0182 82.1099 81.0182 82.1087C81.0182 82.1075 81.0189 82.1063 81.0199 82.1057L81.0309 82.0999C82.9547 80.9892 84.1422 79.4602 84.1538 77.7762C84.1539 77.7624 84.1651 77.7512 84.1788 77.7512C84.1926 77.7512 84.2037 77.7624 84.2037 77.7761V94.1389C84.2035 95.858 82.997 97.4101 81.0563 98.5305L81.0199 98.551C81.0191 98.5515 81.0182 98.5509 81.0182 98.5501C81.0182 98.5492 81.0172 98.5486 81.0165 98.5491L53.6312 114.36C53.6302 114.36 53.6295 114.361 53.6295 114.363C53.6295 114.364 53.6289 114.365 53.6279 114.366L53.6168 114.372C51.5222 115.582 48.7781 116.186 46.0358 116.186C43.2933 116.186 40.5484 115.582 38.4537 114.372L38.4435 114.366C38.442 114.365 38.441 114.363 38.441 114.362C38.441 114.36 38.4401 114.358 38.4385 114.357L11.0564 98.5483C11.0555 98.5478 11.0543 98.5485 11.0543 98.5496C11.0543 98.5506 11.0531 98.5513 11.0522 98.5508L11.0172 98.5305C9.07653 97.4101 7.86897 95.858 7.86877 94.1389V77.7772C7.86877 77.7628 7.88039 77.7512 7.89472 77.7512C7.9086 77.7512 7.92003 77.7622 7.92063 77.776L7.93323 78.0667Z" fill="#00E0AF"/>
<path d="M7.93323 78.0667L5.9351 78.1533L5.93702 78.1974L5.94088 78.2414L7.93323 78.0667ZM11.0416 82.0999L10.0416 83.8319L10.0673 83.8467L10.0934 83.8608L11.0416 82.0999ZM38.4791 97.9417L39.4791 96.2096L39.4705 96.2046L39.4618 96.1997L38.4791 97.9417ZM46.0358 99.7483L46.0357 101.748H46.0358L46.0358 99.7483ZM53.5914 97.9417L52.6088 96.1997L52.6002 96.2046L52.5916 96.2095L53.5914 97.9417ZM81.0309 82.0999L81.9791 83.8608L82.0052 83.8467L82.0309 83.8319L81.0309 82.0999ZM84.2037 94.1389L86.2037 94.1391V94.1389H84.2037ZM81.0563 98.5305L82.0389 100.272L82.0476 100.268L82.0563 100.263L81.0563 98.5305ZM53.6168 114.372L54.6167 116.104L54.6411 116.09L54.665 116.076L53.6168 114.372ZM46.0358 116.186L46.0357 118.186H46.0358L46.0358 116.186ZM38.4537 114.372L37.4055 116.076L37.4294 116.09L37.4537 116.104L38.4537 114.372ZM11.0172 98.5305L12.0193 96.7997L12.0172 96.7985L11.0172 98.5305ZM7.86877 94.1389H5.86877V94.1391L7.86877 94.1389ZM53.6279 114.366L52.5797 112.662L53.6279 114.366ZM53.6312 114.36L54.6312 116.092L53.6312 114.36ZM81.0165 98.5491L82.0165 100.281L81.0165 98.5491ZM81.0199 98.551L82.0025 100.293L81.0199 98.551ZM81.0199 82.1057L81.9681 83.8667L81.0199 82.1057ZM81.0165 82.1116L80.0165 80.3795L81.0165 82.1116ZM53.6308 97.9224L54.6308 99.6544L53.6308 97.9224ZM11.0522 98.5508L10.0501 100.282L11.0522 98.5508ZM38.4415 97.9204L37.4588 99.6624L38.4415 97.9204ZM53.6282 97.9209L52.6456 96.1789L53.6282 97.9209ZM11.0564 98.5483L12.0564 96.8163L11.0564 98.5483ZM38.4406 97.9209L37.4406 99.653L38.4406 97.9209ZM84.1538 77.7762L86.1538 77.79L84.1538 77.7762ZM38.4385 114.357L37.4385 116.089L38.4385 114.357ZM11.0556 82.1103L12.0556 80.3783L11.0556 82.1103ZM38.4435 114.366L39.4917 112.663L38.4435 114.366ZM11.053 82.106L10.1048 83.8669L11.053 82.106ZM7.93323 78.0667L5.94088 78.2414C6.15856 80.7226 7.93902 82.618 10.0416 83.8319L11.0416 82.0999L12.0416 80.3678C10.5191 79.4888 9.98318 78.5485 9.92557 77.8919L7.93323 78.0667ZM11.0416 82.0999L10.0934 83.8608L10.1048 83.8669L11.053 82.106L12.0012 80.345L11.9898 80.3389L11.0416 82.0999ZM11.0556 82.1103L10.0556 83.8424L37.4406 99.653L38.4406 97.9209L39.4406 96.1888L12.0556 80.3783L11.0556 82.1103ZM38.4415 97.9204L37.4588 99.6624L37.4965 99.6836L38.4791 97.9417L39.4618 96.1997L39.4241 96.1784L38.4415 97.9204ZM38.4791 97.9417L37.4792 99.6737C39.9401 101.094 43.0418 101.748 46.0357 101.748L46.0358 99.7483L46.0358 97.7483C43.5578 97.7482 41.1888 97.1966 39.4791 96.2096L38.4791 97.9417ZM46.0358 99.7483L46.0358 101.748C49.0297 101.748 52.1306 101.094 54.5913 99.6738L53.5914 97.9417L52.5916 96.2095C50.8818 97.1965 48.5134 97.7482 46.0357 97.7483L46.0358 99.7483ZM53.5914 97.9417L54.5741 99.6836L54.6109 99.6628L53.6282 97.9209L52.6456 96.1789L52.6088 96.1997L53.5914 97.9417ZM53.6308 97.9224L54.6308 99.6544L82.0165 83.8436L81.0165 82.1116L80.0165 80.3795L52.6308 96.1903L53.6308 97.9224ZM81.0199 82.1057L81.9681 83.8667L81.9791 83.8608L81.0309 82.0999L80.0827 80.3389L80.0717 80.3448L81.0199 82.1057ZM81.0309 82.0999L82.0309 83.8319C84.256 82.5472 86.1352 80.483 86.1538 77.79L84.1538 77.7762L82.1539 77.7624C82.1492 78.4374 81.6533 79.4311 80.0309 80.3678L81.0309 82.0999ZM84.2037 77.7761H82.2037V94.1389H84.2037H86.2037V77.7761H84.2037ZM84.2037 94.1389L82.2037 94.1387C82.2037 94.8411 81.6944 95.8527 80.0563 96.7985L81.0563 98.5305L82.0563 100.263C84.2995 98.9674 86.2034 96.875 86.2037 94.1391L84.2037 94.1389ZM81.0563 98.5305L80.0736 96.7886L80.0372 96.8091L81.0199 98.551L82.0025 100.293L82.0389 100.272L81.0563 98.5305ZM81.0165 98.5491L80.0165 96.817L52.6313 112.628L53.6312 114.36L54.6312 116.092L82.0165 100.281L81.0165 98.5491ZM53.6279 114.366L52.5797 112.662L52.5686 112.669L53.6168 114.372L54.665 116.076L54.6761 116.069L53.6279 114.366ZM53.6168 114.372L52.6169 112.64C50.8977 113.633 48.5199 114.186 46.0357 114.186L46.0358 116.186L46.0358 118.186C49.0363 118.186 52.1466 117.53 54.6167 116.104L53.6168 114.372ZM46.0358 116.186L46.0358 114.186C43.5512 114.186 41.1728 113.633 39.4537 112.64L38.4537 114.372L37.4537 116.104C39.9241 117.531 43.0353 118.186 46.0357 118.186L46.0358 116.186ZM38.4537 114.372L39.5019 112.669L39.4917 112.663L38.4435 114.366L37.3953 116.069L37.4055 116.076L38.4537 114.372ZM38.4385 114.357L39.4385 112.625L12.0564 96.8163L11.0564 98.5483L10.0564 100.28L37.4385 116.089L38.4385 114.357ZM11.0522 98.5508L12.0543 96.8199L12.0193 96.7997L11.0172 98.5305L10.0151 100.261L10.0501 100.282L11.0522 98.5508ZM11.0172 98.5305L12.0172 96.7985C10.3784 95.8523 9.86886 94.8405 9.86877 94.1387L7.86877 94.1389L5.86877 94.1391C5.86909 96.8755 7.77466 98.9678 10.0172 100.263L11.0172 98.5305ZM7.86877 94.1389H9.86877V77.7772H7.86877H5.86877V94.1389H7.86877ZM7.92063 77.776L5.92251 77.8626L5.9351 78.1533L7.93323 78.0667L9.93135 77.98L9.91876 77.6894L7.92063 77.776ZM7.86877 77.7772H9.86877C9.86877 78.8675 8.98484 79.7512 7.89472 79.7512V77.7512V75.7512C6.77594 75.7512 5.86877 76.6581 5.86877 77.7772H7.86877ZM53.6295 114.363H51.6295C51.6295 113.669 51.9892 113.026 52.5797 112.662L53.6279 114.366L54.6761 116.069C55.2686 115.704 55.6295 115.058 55.6295 114.363H53.6295ZM53.6312 114.36L52.6313 112.628C52.0113 112.985 51.6295 113.647 51.6295 114.363H53.6295H55.6295C55.6295 115.076 55.249 115.735 54.6312 116.092L53.6312 114.36ZM81.0182 98.5501H83.0182C83.0182 97.0096 81.3506 96.0468 80.0165 96.817L81.0165 98.5491L82.0165 100.281C80.6839 101.05 79.0182 100.089 79.0182 98.5501H81.0182ZM81.0199 98.551L80.0372 96.8091C81.3697 96.0574 83.0182 97.0202 83.0182 98.5501H81.0182H79.0182C79.0182 100.082 80.6685 101.046 82.0025 100.293L81.0199 98.551ZM81.0182 82.1087H83.0182C83.0182 82.8432 82.6149 83.5184 81.9681 83.8667L81.0199 82.1057L80.0717 80.3448C79.4228 80.6942 79.0182 81.3717 79.0182 82.1087H81.0182ZM81.0165 82.1116L82.0165 83.8436C82.6358 83.4861 83.0182 82.825 83.0182 82.1087H81.0182H79.0182C79.0182 81.3947 79.3993 80.7359 80.0165 80.3795L81.0165 82.1116ZM53.6295 97.9216H51.6295C51.6295 99.4619 53.2969 100.425 54.6308 99.6544L53.6308 97.9224L52.6308 96.1903C53.9636 95.4208 55.6295 96.3827 55.6295 97.9216H53.6295ZM11.0543 98.5496H9.05432C9.05432 97.01 10.7219 96.0485 12.0543 96.8199L11.0522 98.5508L10.0501 100.282C11.3844 101.054 13.0543 100.091 13.0543 98.5496H11.0543ZM38.441 97.9207H40.441C40.441 99.4512 38.7919 100.414 37.4588 99.6624L38.4415 97.9204L39.4241 96.1784C38.0907 95.4263 36.441 96.3897 36.441 97.9207H38.441ZM7.89472 77.7512V79.7512C6.83772 79.7512 5.96828 78.9186 5.92251 77.8626L7.92063 77.776L9.91876 77.6894C9.87178 76.6057 8.97949 75.7512 7.89472 75.7512V77.7512ZM53.6282 97.9209L54.6109 99.6628C53.2782 100.415 51.6295 99.4517 51.6295 97.9216H53.6295H55.6295C55.6295 96.3902 53.9794 95.4265 52.6456 96.1789L53.6282 97.9209ZM84.1788 77.7512V79.7512C83.088 79.7512 82.2037 78.8669 82.2037 77.7761H84.2037H86.2037C86.2037 76.6578 85.2972 75.7512 84.1788 75.7512V77.7512ZM11.0564 98.5483L12.0564 96.8163C10.7208 96.0452 9.05432 97.0105 9.05432 98.5496H11.0543H13.0543C13.0543 100.086 11.3902 101.05 10.0564 100.28L11.0564 98.5483ZM38.4406 97.9209L37.4406 99.653C38.7848 100.429 40.441 99.4482 40.441 97.9207H38.441H36.441C36.441 96.3936 38.0968 95.413 39.4406 96.1888L38.4406 97.9209ZM84.1538 77.7762L86.1538 77.79C86.1464 78.8606 85.279 79.7512 84.1788 79.7512V77.7512V75.7512C83.0512 75.7512 82.1615 76.6642 82.1539 77.7624L84.1538 77.7762ZM38.441 114.362H40.441C40.441 113.645 40.0589 112.983 39.4385 112.625L38.4385 114.357L37.4385 116.089C36.8213 115.733 36.441 115.074 36.441 114.362H38.441ZM11.0543 82.1082H9.05432C9.05432 82.8236 9.436 83.4847 10.0556 83.8424L11.0556 82.1103L12.0556 80.3783C12.6736 80.7351 13.0543 81.3945 13.0543 82.1082H11.0543ZM38.4435 114.366L39.4917 112.663C40.0817 113.026 40.441 113.669 40.441 114.362H38.441H36.441C36.441 115.058 36.8023 115.704 37.3953 116.069L38.4435 114.366ZM11.053 82.106L10.1048 83.8669C9.4578 83.5185 9.05432 82.843 9.05432 82.1082H11.0543H13.0543C13.0543 81.3715 12.6498 80.6943 12.0012 80.345L11.053 82.106Z" fill="#292D3A" mask="url(#path-19-outside-3_2178_6940)"/>
<rect width="31.682" height="16.3873" transform="matrix(0.866025 0.5 0 1 10.9537 82.1653)" fill="#01A982"/>
<rect width="31.682" height="16.3873" transform="matrix(0.866025 -0.5 0 1 53.5315 98.0068)" fill="#00E0AF"/>
<path d="M7.81934 77.7952C7.81934 79.5017 9.01743 81.0467 10.9545 82.1651V98.5524C9.01743 97.434 7.81934 95.889 7.81934 94.1824V77.7952Z" fill="#01A982"/>
<path d="M38.3922 98.0068C42.5724 100.42 49.3499 100.42 53.5301 98.0068V114.394C49.3499 116.808 42.5724 116.808 38.3922 114.394V98.0068Z" fill="#00E0AF"/>
<path d="M84.1031 77.7952C84.1031 79.5017 82.905 81.0467 80.9679 82.1651V98.5524C82.905 97.434 84.1031 95.889 84.1031 94.1824V77.7952Z" fill="#00E0AF"/>
<path d="M45.9611 54.7747C48.8295 54.7747 51.7525 55.4039 54.0304 56.719L81.4679 72.5598C83.74 73.8717 85.1027 75.7315 85.1027 77.7961C85.1025 79.8606 83.7398 81.7197 81.4679 83.0315L54.0304 98.8723C51.7525 100.187 48.8295 100.817 45.9611 100.817C43.0926 100.817 40.1696 100.187 37.8917 98.8723L10.4542 83.0315C8.18232 81.7197 6.81965 79.8607 6.81946 77.7961C6.81946 75.7314 8.18213 73.8717 10.4542 72.5598L37.8917 56.719C40.1696 55.4038 43.0926 54.7747 45.9611 54.7747Z" fill="url(#paint4_linear_2178_6940)" stroke="#292D3A" stroke-width="2"/>
<mask id="path-27-outside-4_2178_6940" maskUnits="userSpaceOnUse" x="56.8127" y="108.152" width="81" height="43" fill="black">
<rect fill="white" x="56.8127" y="108.152" width="81" height="43"/>
<path d="M58.8772 110.468C59.0148 112.037 60.173 113.454 61.9856 114.501L61.997 114.507C61.9978 114.508 61.9983 114.508 61.9983 114.509C61.9983 114.51 61.9988 114.511 61.9995 114.511L89.3846 130.322C89.3848 130.322 89.385 130.322 89.385 130.322C89.385 130.322 89.3852 130.321 89.3854 130.322L89.4231 130.343C91.5085 131.547 94.2437 132.149 96.9797 132.149C99.7156 132.149 102.45 131.547 104.535 130.343L104.572 130.322C104.573 130.322 104.573 130.322 104.573 130.323C104.573 130.323 104.574 130.324 104.575 130.323L131.96 114.513C131.962 114.512 131.962 114.511 131.962 114.51C131.962 114.509 131.963 114.507 131.964 114.507L131.975 114.501C133.899 113.39 135.086 111.861 135.098 110.177C135.098 110.164 135.109 110.152 135.123 110.152C135.137 110.152 135.148 110.163 135.148 110.177V126.54C135.148 128.259 133.941 129.811 132 130.932L131.964 130.952C131.963 130.953 131.962 130.952 131.962 130.951C131.962 130.95 131.961 130.95 131.96 130.95L104.575 146.761C104.574 146.761 104.573 146.762 104.573 146.764C104.573 146.765 104.573 146.766 104.572 146.767L104.561 146.773C102.466 147.983 99.7221 148.587 96.9797 148.587C94.2371 148.587 91.4925 147.983 89.3977 146.773L89.3875 146.767C89.3859 146.766 89.385 146.765 89.385 146.763C89.385 146.761 89.384 146.759 89.3824 146.758L62.0004 130.949C61.9995 130.949 61.9983 130.95 61.9983 130.951C61.9983 130.952 61.9971 130.952 61.9962 130.952L61.9612 130.932C60.0205 129.811 58.8129 128.259 58.8127 126.54V110.178C58.8127 110.164 58.8244 110.152 58.8387 110.152C58.8526 110.152 58.864 110.163 58.8646 110.177L58.8772 110.468Z"/>
</mask>
<path d="M58.8772 110.468C59.0148 112.037 60.173 113.454 61.9856 114.501L61.997 114.507C61.9978 114.508 61.9983 114.508 61.9983 114.509C61.9983 114.51 61.9988 114.511 61.9995 114.511L89.3846 130.322C89.3848 130.322 89.385 130.322 89.385 130.322C89.385 130.322 89.3852 130.321 89.3854 130.322L89.4231 130.343C91.5085 131.547 94.2437 132.149 96.9797 132.149C99.7156 132.149 102.45 131.547 104.535 130.343L104.572 130.322C104.573 130.322 104.573 130.322 104.573 130.323C104.573 130.323 104.574 130.324 104.575 130.323L131.96 114.513C131.962 114.512 131.962 114.511 131.962 114.51C131.962 114.509 131.963 114.507 131.964 114.507L131.975 114.501C133.899 113.39 135.086 111.861 135.098 110.177C135.098 110.164 135.109 110.152 135.123 110.152C135.137 110.152 135.148 110.163 135.148 110.177V126.54C135.148 128.259 133.941 129.811 132 130.932L131.964 130.952C131.963 130.953 131.962 130.952 131.962 130.951C131.962 130.95 131.961 130.95 131.96 130.95L104.575 146.761C104.574 146.761 104.573 146.762 104.573 146.764C104.573 146.765 104.573 146.766 104.572 146.767L104.561 146.773C102.466 147.983 99.7221 148.587 96.9797 148.587C94.2371 148.587 91.4925 147.983 89.3977 146.773L89.3875 146.767C89.3859 146.766 89.385 146.765 89.385 146.763C89.385 146.761 89.384 146.759 89.3824 146.758L62.0004 130.949C61.9995 130.949 61.9983 130.95 61.9983 130.951C61.9983 130.952 61.9971 130.952 61.9962 130.952L61.9612 130.932C60.0205 129.811 58.8129 128.259 58.8127 126.54V110.178C58.8127 110.164 58.8244 110.152 58.8387 110.152C58.8526 110.152 58.864 110.163 58.8646 110.177L58.8772 110.468Z" fill="#00E0AF"/>
<path d="M58.8772 110.468L56.8791 110.554L56.881 110.599L56.8849 110.643L58.8772 110.468ZM61.9856 114.501L60.9856 116.233L61.0113 116.248L61.0374 116.262L61.9856 114.501ZM89.4231 130.343L90.423 128.611L90.4144 128.606L90.4057 128.601L89.4231 130.343ZM96.9797 132.149V134.149H96.9798L96.9797 132.149ZM104.535 130.343L103.553 128.601L103.544 128.606L103.535 128.611L104.535 130.343ZM131.975 114.501L132.923 116.262L132.949 116.248L132.975 116.233L131.975 114.501ZM135.148 126.54L137.148 126.54V126.54H135.148ZM132 130.932L132.983 132.674L132.992 132.669L133 132.664L132 130.932ZM104.561 146.773L105.561 148.506L105.585 148.491L105.609 148.477L104.561 146.773ZM96.9797 148.587V150.587H96.9798L96.9797 148.587ZM89.3977 146.773L88.3495 148.477L88.3734 148.491L88.3977 148.506L89.3977 146.773ZM61.9612 130.932L62.9633 129.201L62.9612 129.2L61.9612 130.932ZM58.8127 126.54H56.8127V126.54L58.8127 126.54ZM104.572 146.767L103.524 145.063L104.572 146.767ZM104.575 146.761L105.575 148.493L104.575 146.761ZM131.96 130.95L132.96 132.682L131.96 130.95ZM131.964 130.952L132.946 132.694L131.964 130.952ZM131.964 114.507L132.912 116.268L131.964 114.507ZM131.96 114.513L130.961 112.781L131.96 114.513ZM104.575 130.323L105.575 132.056L104.575 130.323ZM61.9962 130.952L60.9941 132.683L61.9962 130.952ZM89.3854 130.322L88.4028 132.063L89.3854 130.322ZM104.572 130.322L103.59 128.58L104.572 130.322ZM62.0004 130.949L63.0004 129.217L62.0004 130.949ZM89.3846 130.322L88.3846 132.054L89.3846 130.322ZM135.098 110.177L137.098 110.191L135.098 110.177ZM89.3824 146.758L88.3824 148.49L89.3824 146.758ZM61.9995 114.511L62.9995 112.779L61.9995 114.511ZM89.3875 146.767L90.4357 145.064L89.3875 146.767ZM61.997 114.507L61.0488 116.268L61.997 114.507ZM58.8772 110.468L56.8849 110.643C57.1025 113.124 58.883 115.019 60.9856 116.233L61.9856 114.501L62.9856 112.769C61.4631 111.89 60.9272 110.95 60.8695 110.293L58.8772 110.468ZM61.9856 114.501L61.0374 116.262L61.0488 116.268L61.997 114.507L62.9452 112.746L62.9338 112.74L61.9856 114.501ZM61.9995 114.511L60.9995 116.244L88.3846 132.054L89.3846 130.322L90.3846 128.59L62.9995 112.779L61.9995 114.511ZM89.3854 130.322L88.4028 132.063L88.4405 132.085L89.4231 130.343L90.4057 128.601L90.3681 128.58L89.3854 130.322ZM89.4231 130.343L88.4232 132.075C90.8841 133.496 93.9857 134.149 96.9797 134.149V132.149V130.149C94.5017 130.149 92.1328 129.598 90.423 128.611L89.4231 130.343ZM96.9797 132.149L96.9798 134.149C99.9737 134.149 103.075 133.495 105.535 132.075L104.535 130.343L103.535 128.611C101.826 129.598 99.4574 130.149 96.9797 130.149L96.9797 132.149ZM104.535 130.343L105.518 132.085L105.555 132.064L104.572 130.322L103.59 128.58L103.553 128.601L104.535 130.343ZM104.575 130.323L105.575 132.056L132.96 116.245L131.96 114.513L130.961 112.781L103.575 128.591L104.575 130.323ZM131.964 114.507L132.912 116.268L132.923 116.262L131.975 114.501L131.027 112.74L131.016 112.746L131.964 114.507ZM131.975 114.501L132.975 116.233C135.2 114.948 137.079 112.884 137.098 110.191L135.098 110.177L133.098 110.163C133.093 110.839 132.597 111.832 130.975 112.769L131.975 114.501ZM135.148 110.177H133.148V126.54H135.148H137.148V110.177H135.148ZM135.148 126.54L133.148 126.54C133.148 127.242 132.638 128.254 131 129.2L132 130.932L133 132.664C135.243 131.369 137.147 129.276 137.148 126.54L135.148 126.54ZM132 130.932L131.018 129.19L130.981 129.21L131.964 130.952L132.946 132.694L132.983 132.674L132 130.932ZM131.96 130.95L130.96 129.218L103.575 145.029L104.575 146.761L105.575 148.493L132.96 132.682L131.96 130.95ZM104.572 146.767L103.524 145.063L103.513 145.07L104.561 146.773L105.609 148.477L105.62 148.47L104.572 146.767ZM104.561 146.773L103.561 145.041C101.842 146.034 99.464 146.587 96.9797 146.587L96.9797 148.587L96.9798 150.587C99.9803 150.587 103.091 149.932 105.561 148.506L104.561 146.773ZM96.9797 148.587V146.587C94.4951 146.587 92.1169 146.034 90.3977 145.041L89.3977 146.773L88.3977 148.506C90.8681 149.932 93.9791 150.587 96.9797 150.587V148.587ZM89.3977 146.773L90.4459 145.07L90.4357 145.064L89.3875 146.767L88.3393 148.47L88.3495 148.477L89.3977 146.773ZM89.3824 146.758L90.3824 145.026L63.0004 129.217L62.0004 130.949L61.0004 132.682L88.3824 148.49L89.3824 146.758ZM61.9962 130.952L62.9982 129.221L62.9633 129.201L61.9612 130.932L60.9591 132.662L60.9941 132.683L61.9962 130.952ZM61.9612 130.932L62.9612 129.2C61.3224 128.253 60.8128 127.242 60.8127 126.54L58.8127 126.54L56.8127 126.54C56.8131 129.277 58.7186 131.369 60.9612 132.664L61.9612 130.932ZM58.8127 126.54H60.8127V110.178H58.8127H56.8127V126.54H58.8127ZM58.8646 110.177L56.8665 110.264L56.8791 110.554L58.8772 110.468L60.8753 110.381L60.8627 110.091L58.8646 110.177ZM58.8127 110.178H60.8127C60.8127 111.269 59.9288 112.152 58.8387 112.152V110.152V108.152C57.7199 108.152 56.8127 109.059 56.8127 110.178H58.8127ZM104.573 146.764H102.573C102.573 146.07 102.933 145.427 103.524 145.063L104.572 146.767L105.62 148.47C106.213 148.105 106.573 147.459 106.573 146.764H104.573ZM104.575 146.761L103.575 145.029C102.955 145.387 102.573 146.048 102.573 146.764H104.573H106.573C106.573 147.477 106.193 148.136 105.575 148.493L104.575 146.761ZM131.962 130.951H133.962C133.962 129.411 132.295 128.448 130.96 129.218L131.96 130.95L132.96 132.682C131.628 133.452 129.962 132.49 129.962 130.951H131.962ZM131.964 130.952L130.981 129.21C132.314 128.459 133.962 129.421 133.962 130.951H131.962H129.962C129.962 132.483 131.613 133.447 132.946 132.694L131.964 130.952ZM131.962 114.51H133.962C133.962 115.244 133.559 115.92 132.912 116.268L131.964 114.507L131.016 112.746C130.367 113.095 129.962 113.773 129.962 114.51H131.962ZM131.96 114.513L132.96 116.245C133.58 115.887 133.962 115.226 133.962 114.51H131.962H129.962C129.962 113.796 130.343 113.137 130.961 112.781L131.96 114.513ZM104.573 130.323H102.573C102.573 131.863 104.241 132.826 105.575 132.056L104.575 130.323L103.575 128.591C104.908 127.822 106.573 128.784 106.573 130.323H104.573ZM61.9983 130.951H59.9983C59.9983 129.411 61.6659 128.45 62.9982 129.221L61.9962 130.952L60.9941 132.683C62.3284 133.455 63.9983 132.492 63.9983 130.951H61.9983ZM89.385 130.322H91.385C91.385 131.852 89.7358 132.815 88.4028 132.063L89.3854 130.322L90.3681 128.58C89.0347 127.827 87.385 128.791 87.385 130.322H89.385ZM58.8387 110.152V112.152C57.7817 112.152 56.9122 111.32 56.8665 110.264L58.8646 110.177L60.8627 110.091C60.8158 109.007 59.9235 108.152 58.8387 108.152V110.152ZM104.572 130.322L105.555 132.064C104.222 132.816 102.573 131.853 102.573 130.323H104.573H106.573C106.573 128.791 104.923 127.828 103.59 128.58L104.572 130.322ZM135.123 110.152V112.152C134.032 112.152 133.148 111.268 133.148 110.177H135.148H137.148C137.148 109.059 136.241 108.152 135.123 108.152V110.152ZM62.0004 130.949L63.0004 129.217C61.6647 128.446 59.9983 129.412 59.9983 130.951H61.9983H63.9983C63.9983 132.488 62.3342 133.452 61.0004 132.682L62.0004 130.949ZM89.3846 130.322L88.3846 132.054C89.7288 132.83 91.385 131.849 91.385 130.322H89.385H87.385C87.385 128.795 89.0408 127.814 90.3846 128.59L89.3846 130.322ZM135.098 110.177L137.098 110.191C137.09 111.262 136.223 112.152 135.123 112.152V110.152V108.152C133.995 108.152 133.105 109.065 133.098 110.163L135.098 110.177ZM89.385 146.763H91.385C91.385 146.046 91.0028 145.384 90.3824 145.026L89.3824 146.758L88.3824 148.49C87.7652 148.134 87.385 147.475 87.385 146.763H89.385ZM61.9983 114.509H59.9983C59.9983 115.225 60.38 115.886 60.9995 116.244L61.9995 114.511L62.9995 112.779C63.6176 113.136 63.9983 113.796 63.9983 114.509H61.9983ZM89.3875 146.767L90.4357 145.064C91.0256 145.427 91.385 146.07 91.385 146.763H89.385H87.385C87.385 147.459 87.7462 148.106 88.3393 148.47L89.3875 146.767ZM61.997 114.507L61.0488 116.268C60.4018 115.92 59.9983 115.244 59.9983 114.509H61.9983H63.9983C63.9983 113.773 63.5938 113.095 62.9452 112.746L61.997 114.507Z" fill="#292D3A" mask="url(#path-27-outside-4_2178_6940)"/>
<rect width="31.682" height="16.3873" transform="matrix(0.866025 0.5 0 1 61.8973 114.565)" fill="#01A982"/>
<rect width="31.682" height="16.3873" transform="matrix(0.866025 -0.5 0 1 104.475 130.405)" fill="#00E0AF"/>
<path d="M58.7631 110.195C58.7631 111.902 59.9612 113.447 61.8982 114.565V130.952C59.9612 129.834 58.7631 128.289 58.7631 126.582V110.195Z" fill="#01A982"/>
<path d="M89.3357 130.405C93.5159 132.819 100.293 132.819 104.474 130.405V146.793C100.293 149.206 93.5159 149.206 89.3357 146.793V130.405Z" fill="#00E0AF"/>
<path d="M135.048 110.195C135.048 111.902 133.85 113.447 131.913 114.565V130.952C133.85 129.834 135.048 128.289 135.048 126.582V110.195Z" fill="#00E0AF"/>
<path d="M96.9045 87.1743C99.773 87.1743 102.696 87.8035 104.974 89.1187L132.411 104.959C134.683 106.271 136.046 108.131 136.046 110.196C136.046 112.26 134.683 114.119 132.411 115.431L104.974 131.272C102.696 132.587 99.773 133.216 96.9045 133.216C94.0361 133.216 91.1131 132.587 88.8352 131.272L61.3977 115.431C59.1258 114.119 57.7631 112.26 57.7629 110.196C57.7629 108.131 59.1256 106.271 61.3977 104.959L88.8352 89.1187C91.1131 87.8035 94.0361 87.1743 96.9045 87.1743Z" fill="url(#paint5_linear_2178_6940)" stroke="#292D3A" stroke-width="2"/>
<path d="M92.6376 24.9976C96.8178 22.5841 103.595 22.5841 107.776 24.9976L135.213 40.8386C139.393 43.2521 139.393 47.165 135.213 49.5785L107.776 65.4195C103.595 67.833 96.8178 67.833 92.6376 65.4195L65.2002 49.5785C61.0199 47.165 61.0199 43.2521 65.2002 40.8386L92.6376 24.9976Z" fill="url(#paint6_linear_2178_6940)"/>
<path d="M144.381 55.9622C148.561 53.5487 155.339 53.5487 159.519 55.9622L186.957 71.8032C191.137 74.2166 191.137 78.1296 186.957 80.5431L159.519 96.3841C155.339 98.7975 148.561 98.7975 144.381 96.3841L116.944 80.5431C112.764 78.1296 112.764 74.2166 116.944 71.8032L144.381 55.9622Z" fill="url(#paint7_linear_2178_6940)"/>
<path d="M38.4764 57.7721C42.6566 55.3587 49.4341 55.3587 53.6143 57.7721L81.0518 73.6132C85.232 76.0266 85.232 79.9396 81.0518 82.353L53.6143 98.1941C49.4341 100.607 42.6566 100.607 38.4764 98.1941L11.039 82.353C6.85875 79.9396 6.85875 76.0266 11.039 73.6132L38.4764 57.7721Z" fill="url(#paint8_linear_2178_6940)"/>
<path d="M89.4199 90.1717C93.6001 87.7582 100.378 87.7582 104.558 90.1717L131.995 106.013C136.175 108.426 136.175 112.339 131.995 114.753L104.558 130.594C100.378 133.007 93.6001 133.007 89.4199 130.594L61.9825 114.753C57.8022 112.339 57.8022 108.426 61.9825 106.013L89.4199 90.1717Z" fill="url(#paint9_linear_2178_6940)"/>
<defs>
<linearGradient id="paint0_linear_2178_6940" x1="50.6394" y1="163.157" x2="114.088" y2="71.1039" gradientUnits="userSpaceOnUse">
<stop stop-color="white" stop-opacity="0.12"/>
<stop offset="1" stop-color="white" stop-opacity="0"/>
</linearGradient>
<linearGradient id="paint1_linear_2178_6940" x1="50.6394" y1="143.576" x2="114.088" y2="51.5229" gradientUnits="userSpaceOnUse">
<stop stop-color="white" stop-opacity="0.12"/>
<stop offset="1" stop-color="white" stop-opacity="0"/>
</linearGradient>
<linearGradient id="paint2_linear_2178_6940" x1="84.7676" y1="62.1704" x2="89.2016" y2="21.61" gradientUnits="userSpaceOnUse">
<stop stop-color="#7764FC"/>
<stop offset="0.075" stop-color="#708DFA"/>
<stop offset="0.157" stop-color="#6AB2F8"/>
<stop offset="0.233" stop-color="#65CEF7"/>
<stop offset="0.299" stop-color="#62DFF6"/>
<stop offset="0.35" stop-color="#62E5F6"/>
<stop offset="0.61" stop-color="#3FDBD1"/>
<stop offset="1" stop-color="#05CC93"/>
</linearGradient>
<linearGradient id="paint3_linear_2178_6940" x1="136.511" y1="93.1345" x2="140.945" y2="52.5741" gradientUnits="userSpaceOnUse">
<stop stop-color="#7764FC"/>
<stop offset="0.075" stop-color="#708DFA"/>
<stop offset="0.157" stop-color="#6AB2F8"/>
<stop offset="0.233" stop-color="#65CEF7"/>
<stop offset="0.299" stop-color="#62DFF6"/>
<stop offset="0.35" stop-color="#62E5F6"/>
<stop offset="0.61" stop-color="#3FDBD1"/>
<stop offset="1" stop-color="#05CC93"/>
</linearGradient>
<linearGradient id="paint4_linear_2178_6940" x1="30.6074" y1="94.945" x2="35.0415" y2="54.3846" gradientUnits="userSpaceOnUse">
<stop stop-color="#7764FC"/>
<stop offset="0.075" stop-color="#708DFA"/>
<stop offset="0.157" stop-color="#6AB2F8"/>
<stop offset="0.233" stop-color="#65CEF7"/>
<stop offset="0.299" stop-color="#62DFF6"/>
<stop offset="0.35" stop-color="#62E5F6"/>
<stop offset="0.61" stop-color="#3FDBD1"/>
<stop offset="1" stop-color="#05CC93"/>
</linearGradient>
<linearGradient id="paint5_linear_2178_6940" x1="81.5509" y1="127.345" x2="85.9849" y2="86.7843" gradientUnits="userSpaceOnUse">
<stop stop-color="#7764FC"/>
<stop offset="0.075" stop-color="#708DFA"/>
<stop offset="0.157" stop-color="#6AB2F8"/>
<stop offset="0.233" stop-color="#65CEF7"/>
<stop offset="0.299" stop-color="#62DFF6"/>
<stop offset="0.35" stop-color="#62E5F6"/>
<stop offset="0.61" stop-color="#3FDBD1"/>
<stop offset="1" stop-color="#05CC93"/>
</linearGradient>
<linearGradient id="paint6_linear_2178_6940" x1="55.9979" y1="123.561" x2="101.452" y2="5.91218" gradientUnits="userSpaceOnUse">
<stop stop-color="#7764FC"/>
<stop offset="0.075" stop-color="#708DFA"/>
<stop offset="0.20151" stop-color="#6AB2F8"/>
<stop offset="0.284083" stop-color="#65CEF7"/>
<stop offset="0.3444" stop-color="#62DFF6"/>
<stop offset="0.397954" stop-color="#62E5F6"/>
<stop offset="0.61" stop-color="#3FDBD1"/>
<stop offset="1" stop-color="#05CC93"/>
</linearGradient>
<linearGradient id="paint7_linear_2178_6940" x1="55.9979" y1="123.561" x2="101.452" y2="5.91218" gradientUnits="userSpaceOnUse">
<stop stop-color="#7764FC"/>
<stop offset="0.075" stop-color="#708DFA"/>
<stop offset="0.20151" stop-color="#6AB2F8"/>
<stop offset="0.284083" stop-color="#65CEF7"/>
<stop offset="0.3444" stop-color="#62DFF6"/>
<stop offset="0.397954" stop-color="#62E5F6"/>
<stop offset="0.61" stop-color="#3FDBD1"/>
<stop offset="1" stop-color="#05CC93"/>
</linearGradient>
<linearGradient id="paint8_linear_2178_6940" x1="55.9979" y1="123.561" x2="101.452" y2="5.91218" gradientUnits="userSpaceOnUse">
<stop stop-color="#7764FC"/>
<stop offset="0.075" stop-color="#708DFA"/>
<stop offset="0.20151" stop-color="#6AB2F8"/>
<stop offset="0.284083" stop-color="#65CEF7"/>
<stop offset="0.3444" stop-color="#62DFF6"/>
<stop offset="0.397954" stop-color="#62E5F6"/>
<stop offset="0.61" stop-color="#3FDBD1"/>
<stop offset="1" stop-color="#05CC93"/>
</linearGradient>
<linearGradient id="paint9_linear_2178_6940" x1="55.9979" y1="123.561" x2="101.452" y2="5.91218" gradientUnits="userSpaceOnUse">
<stop stop-color="#7764FC"/>
<stop offset="0.075" stop-color="#708DFA"/>
<stop offset="0.20151" stop-color="#6AB2F8"/>
<stop offset="0.284083" stop-color="#65CEF7"/>
<stop offset="0.3444" stop-color="#62DFF6"/>
<stop offset="0.397954" stop-color="#62E5F6"/>
<stop offset="0.61" stop-color="#3FDBD1"/>
<stop offset="1" stop-color="#05CC93"/>
</linearGradient>
</defs>
</svg>
