<svg width="330" height="194" viewBox="0 0 330 194" fill="none" xmlns="http://www.w3.org/2000/svg">
<rect width="330" height="27.359" rx="6" fill="#EFEFEF"/>
<rect y="166.641" width="330" height="27.359" rx="6" fill="#EFEFEF"/>
<rect x="113.284" y="32.3333" width="103.433" height="129.333" rx="6" fill="#EFEFEF"/>
<rect x="283.209" y="172.859" width="34.4776" height="14.9231" rx="3" fill="#BBBBBB"/>
<path d="M72.2549 96.948C72.2549 103.824 76.8629 108.36 83.5949 108.36C85.9349 108.36 87.8069 107.784 89.2109 106.848V101.232C87.6269 102.456 85.8989 102.996 84.0629 102.996C80.3909 102.996 78.0509 100.728 78.0509 96.948C78.0509 93.132 80.3909 90.864 84.0629 90.864C85.8989 90.864 87.6269 91.44 89.2109 92.664V87.048C87.8069 86.112 85.9349 85.536 83.5949 85.536C76.8629 85.536 72.2549 90.072 72.2549 96.948ZM107.726 99.9C107.726 94.896 104.378 91.44 99.4456 91.44C94.5496 91.44 91.1656 94.896 91.1656 99.9C91.1656 104.904 94.5496 108.36 99.4456 108.36C104.378 108.36 107.726 104.904 107.726 99.9ZM102.182 99.9C102.182 102.132 101.21 103.68 99.4456 103.68C97.7176 103.68 96.7456 102.132 96.7456 99.9C96.7456 97.668 97.7176 96.084 99.4456 96.084C101.21 96.084 102.182 97.668 102.182 99.9ZM124.216 93.384C123.244 92.232 121.804 91.44 119.752 91.44C117.952 91.44 116.404 92.124 115.576 93.132V91.8H109.924V108H115.576V98.136C115.828 97.02 116.692 96.408 117.664 96.408C118.924 96.408 119.5 97.38 119.5 98.748V108H125.116V98.136C125.404 97.02 126.232 96.408 127.204 96.408C128.464 96.408 129.04 97.38 129.04 98.748V108H134.692V97.38C134.692 93.744 132.604 91.44 129.22 91.44C126.844 91.44 125.188 92.376 124.216 93.384ZM143.64 87.408C143.64 85.536 142.164 84.348 140.436 84.348C138.708 84.348 137.232 85.536 137.232 87.408C137.232 89.244 138.708 90.432 140.436 90.432C142.164 90.432 143.64 89.244 143.64 87.408ZM143.244 108V91.8H137.592V108H143.244ZM146.311 91.8V108H151.963V98.208C152.251 97.092 153.187 96.444 154.303 96.444C155.743 96.444 156.427 97.416 156.427 98.748V108H162.043V97.38C162.043 93.78 159.919 91.44 156.319 91.44C154.447 91.44 152.863 92.196 151.963 93.204V91.8H146.311ZM175.095 105.804V106.344C175.095 108.612 173.223 109.512 171.063 109.512C168.831 109.512 167.067 108.936 165.411 107.532V112.716C166.707 113.544 168.975 114.084 171.243 114.084C176.427 114.084 180.675 111.636 180.675 105.66V91.8H175.095V93.024C174.375 92.16 173.043 91.44 171.279 91.44C166.707 91.44 164.115 94.932 164.115 99.396C164.115 103.86 166.707 107.388 171.279 107.388C173.043 107.388 174.375 106.632 175.095 105.804ZM175.095 97.272V101.556C174.663 102.276 173.763 102.888 172.683 102.888C170.811 102.888 169.695 101.448 169.695 99.396C169.695 97.344 170.811 95.904 172.683 95.904C173.763 95.904 174.663 96.552 175.095 97.272ZM190.599 101.232V106.56C192.219 107.532 194.883 108.36 197.835 108.36C202.803 108.36 206.871 106.236 206.871 101.448C206.871 98.064 205.035 95.94 201.003 94.68L197.655 93.672C196.503 93.312 195.819 92.916 195.819 91.908C195.819 90.792 197.079 90.324 198.735 90.324C201.255 90.324 203.451 91.152 205.431 92.52V87.192C203.595 86.184 201.471 85.536 198.483 85.536C193.839 85.536 190.131 87.948 190.131 92.34C190.131 96.012 192.183 97.848 195.891 98.928L199.239 99.9C200.427 100.332 201.111 100.692 201.111 101.772C201.111 103.14 199.527 103.536 197.691 103.536C195.207 103.536 192.507 102.528 190.599 101.232ZM225.077 99.9C225.077 94.896 221.729 91.44 216.797 91.44C211.901 91.44 208.517 94.896 208.517 99.9C208.517 104.904 211.901 108.36 216.797 108.36C221.729 108.36 225.077 104.904 225.077 99.9ZM219.533 99.9C219.533 102.132 218.561 103.68 216.797 103.68C215.069 103.68 214.097 102.132 214.097 99.9C214.097 97.668 215.069 96.084 216.797 96.084C218.561 96.084 219.533 97.668 219.533 99.9ZM243.183 99.9C243.183 94.896 239.835 91.44 234.903 91.44C230.007 91.44 226.623 94.896 226.623 99.9C226.623 104.904 230.007 108.36 234.903 108.36C239.835 108.36 243.183 104.904 243.183 99.9ZM237.639 99.9C237.639 102.132 236.667 103.68 234.903 103.68C233.175 103.68 232.203 102.132 232.203 99.9C232.203 97.668 233.175 96.084 234.903 96.084C236.667 96.084 237.639 97.668 237.639 99.9ZM245.381 91.8V108H251.033V98.208C251.321 97.092 252.257 96.444 253.373 96.444C254.813 96.444 255.497 97.416 255.497 98.748V108H261.113V97.38C261.113 93.78 258.989 91.44 255.389 91.44C253.517 91.44 251.933 92.196 251.033 93.204V91.8H245.381Z" fill="black"/>
</svg>
