<svg width="330" height="194" viewBox="0 0 330 194" fill="none" xmlns="http://www.w3.org/2000/svg">
<rect width="160.417" height="194" rx="6" fill="#263040"/>
<rect x="169.583" width="160.417" height="194" rx="6" fill="#263040"/>
<path d="M70.2549 96.948C70.2549 103.824 74.8629 108.36 81.5949 108.36C83.9349 108.36 85.8069 107.784 87.2109 106.848V101.232C85.6269 102.456 83.8989 102.996 82.0629 102.996C78.3909 102.996 76.0509 100.728 76.0509 96.948C76.0509 93.132 78.3909 90.864 82.0629 90.864C83.8989 90.864 85.6269 91.44 87.2109 92.664V87.048C85.8069 86.112 83.9349 85.536 81.5949 85.536C74.8629 85.536 70.2549 90.072 70.2549 96.948ZM105.726 99.9C105.726 94.896 102.378 91.44 97.4456 91.44C92.5496 91.44 89.1656 94.896 89.1656 99.9C89.1656 104.904 92.5496 108.36 97.4456 108.36C102.378 108.36 105.726 104.904 105.726 99.9ZM100.182 99.9C100.182 102.132 99.2096 103.68 97.4456 103.68C95.7176 103.68 94.7456 102.132 94.7456 99.9C94.7456 97.668 95.7176 96.084 97.4456 96.084C99.2096 96.084 100.182 97.668 100.182 99.9ZM122.216 93.384C121.244 92.232 119.804 91.44 117.752 91.44C115.952 91.44 114.404 92.124 113.576 93.132V91.8H107.924V108H113.576V98.136C113.828 97.02 114.692 96.408 115.664 96.408C116.924 96.408 117.5 97.38 117.5 98.748V108H123.116V98.136C123.404 97.02 124.232 96.408 125.204 96.408C126.464 96.408 127.04 97.38 127.04 98.748V108H132.692V97.38C132.692 93.744 130.604 91.44 127.22 91.44C124.844 91.44 123.188 92.376 122.216 93.384ZM141.64 87.408C141.64 85.536 140.164 84.348 138.436 84.348C136.708 84.348 135.232 85.536 135.232 87.408C135.232 89.244 136.708 90.432 138.436 90.432C140.164 90.432 141.64 89.244 141.64 87.408ZM141.244 108V91.8H135.592V108H141.244ZM144.311 91.8V108H149.963V98.208C150.251 97.092 151.187 96.444 152.303 96.444C153.743 96.444 154.427 97.416 154.427 98.748V108H160.043V97.38C160.043 93.78 157.919 91.44 154.319 91.44C152.447 91.44 150.863 92.196 149.963 93.204V91.8H144.311ZM173.095 105.804V106.344C173.095 108.612 171.223 109.512 169.063 109.512C166.831 109.512 165.067 108.936 163.411 107.532V112.716C164.707 113.544 166.975 114.084 169.243 114.084C174.427 114.084 178.675 111.636 178.675 105.66V91.8H173.095V93.024C172.375 92.16 171.043 91.44 169.279 91.44C164.707 91.44 162.115 94.932 162.115 99.396C162.115 103.86 164.707 107.388 169.279 107.388C171.043 107.388 172.375 106.632 173.095 105.804ZM173.095 97.272V101.556C172.663 102.276 171.763 102.888 170.683 102.888C168.811 102.888 167.695 101.448 167.695 99.396C167.695 97.344 168.811 95.904 170.683 95.904C171.763 95.904 172.663 96.552 173.095 97.272ZM188.599 101.232V106.56C190.219 107.532 192.883 108.36 195.835 108.36C200.803 108.36 204.871 106.236 204.871 101.448C204.871 98.064 203.035 95.94 199.003 94.68L195.655 93.672C194.503 93.312 193.819 92.916 193.819 91.908C193.819 90.792 195.079 90.324 196.735 90.324C199.255 90.324 201.451 91.152 203.431 92.52V87.192C201.595 86.184 199.471 85.536 196.483 85.536C191.839 85.536 188.131 87.948 188.131 92.34C188.131 96.012 190.183 97.848 193.891 98.928L197.239 99.9C198.427 100.332 199.111 100.692 199.111 101.772C199.111 103.14 197.527 103.536 195.691 103.536C193.207 103.536 190.507 102.528 188.599 101.232ZM223.077 99.9C223.077 94.896 219.729 91.44 214.797 91.44C209.901 91.44 206.517 94.896 206.517 99.9C206.517 104.904 209.901 108.36 214.797 108.36C219.729 108.36 223.077 104.904 223.077 99.9ZM217.533 99.9C217.533 102.132 216.561 103.68 214.797 103.68C213.069 103.68 212.097 102.132 212.097 99.9C212.097 97.668 213.069 96.084 214.797 96.084C216.561 96.084 217.533 97.668 217.533 99.9ZM241.183 99.9C241.183 94.896 237.835 91.44 232.903 91.44C228.007 91.44 224.623 94.896 224.623 99.9C224.623 104.904 228.007 108.36 232.903 108.36C237.835 108.36 241.183 104.904 241.183 99.9ZM235.639 99.9C235.639 102.132 234.667 103.68 232.903 103.68C231.175 103.68 230.203 102.132 230.203 99.9C230.203 97.668 231.175 96.084 232.903 96.084C234.667 96.084 235.639 97.668 235.639 99.9ZM243.381 91.8V108H249.033V98.208C249.321 97.092 250.257 96.444 251.373 96.444C252.813 96.444 253.497 97.416 253.497 98.748V108H259.113V97.38C259.113 93.78 256.989 91.44 253.389 91.44C251.517 91.44 249.933 92.196 249.033 93.204V91.8H243.381Z" fill="white"/>
</svg>
