<svg width="330" height="192" viewBox="0 0 330 192" fill="none" xmlns="http://www.w3.org/2000/svg">
<rect x="0.0769043" width="103.385" height="91.0769" rx="6" fill="#EFEFEF"/>
<rect x="0.0769043" y="100.923" width="103.385" height="91.0769" rx="6" fill="#EFEFEF"/>
<rect x="113.308" width="103.385" height="91.0769" rx="6" fill="#EFEFEF"/>
<rect x="113.308" y="100.923" width="103.385" height="91.0769" rx="6" fill="#EFEFEF"/>
<rect x="226.538" width="103.385" height="91.0769" rx="6" fill="#EFEFEF"/>
<rect x="226.538" y="100.923" width="103.385" height="91.0769" rx="6" fill="#EFEFEF"/>
<path d="M70.2549 95.948C70.2549 102.824 74.8629 107.36 81.5949 107.36C83.9349 107.36 85.8069 106.784 87.2109 105.848V100.232C85.6269 101.456 83.8989 101.996 82.0629 101.996C78.3909 101.996 76.0509 99.728 76.0509 95.948C76.0509 92.132 78.3909 89.864 82.0629 89.864C83.8989 89.864 85.6269 90.44 87.2109 91.664V86.048C85.8069 85.112 83.9349 84.536 81.5949 84.536C74.8629 84.536 70.2549 89.072 70.2549 95.948ZM105.726 98.9C105.726 93.896 102.378 90.44 97.4456 90.44C92.5496 90.44 89.1656 93.896 89.1656 98.9C89.1656 103.904 92.5496 107.36 97.4456 107.36C102.378 107.36 105.726 103.904 105.726 98.9ZM100.182 98.9C100.182 101.132 99.2096 102.68 97.4456 102.68C95.7176 102.68 94.7456 101.132 94.7456 98.9C94.7456 96.668 95.7176 95.084 97.4456 95.084C99.2096 95.084 100.182 96.668 100.182 98.9ZM122.216 92.384C121.244 91.232 119.804 90.44 117.752 90.44C115.952 90.44 114.404 91.124 113.576 92.132V90.8H107.924V107H113.576V97.136C113.828 96.02 114.692 95.408 115.664 95.408C116.924 95.408 117.5 96.38 117.5 97.748V107H123.116V97.136C123.404 96.02 124.232 95.408 125.204 95.408C126.464 95.408 127.04 96.38 127.04 97.748V107H132.692V96.38C132.692 92.744 130.604 90.44 127.22 90.44C124.844 90.44 123.188 91.376 122.216 92.384ZM141.64 86.408C141.64 84.536 140.164 83.348 138.436 83.348C136.708 83.348 135.232 84.536 135.232 86.408C135.232 88.244 136.708 89.432 138.436 89.432C140.164 89.432 141.64 88.244 141.64 86.408ZM141.244 107V90.8H135.592V107H141.244ZM144.311 90.8V107H149.963V97.208C150.251 96.092 151.187 95.444 152.303 95.444C153.743 95.444 154.427 96.416 154.427 97.748V107H160.043V96.38C160.043 92.78 157.919 90.44 154.319 90.44C152.447 90.44 150.863 91.196 149.963 92.204V90.8H144.311ZM173.095 104.804V105.344C173.095 107.612 171.223 108.512 169.063 108.512C166.831 108.512 165.067 107.936 163.411 106.532V111.716C164.707 112.544 166.975 113.084 169.243 113.084C174.427 113.084 178.675 110.636 178.675 104.66V90.8H173.095V92.024C172.375 91.16 171.043 90.44 169.279 90.44C164.707 90.44 162.115 93.932 162.115 98.396C162.115 102.86 164.707 106.388 169.279 106.388C171.043 106.388 172.375 105.632 173.095 104.804ZM173.095 96.272V100.556C172.663 101.276 171.763 101.888 170.683 101.888C168.811 101.888 167.695 100.448 167.695 98.396C167.695 96.344 168.811 94.904 170.683 94.904C171.763 94.904 172.663 95.552 173.095 96.272ZM188.599 100.232V105.56C190.219 106.532 192.883 107.36 195.835 107.36C200.803 107.36 204.871 105.236 204.871 100.448C204.871 97.064 203.035 94.94 199.003 93.68L195.655 92.672C194.503 92.312 193.819 91.916 193.819 90.908C193.819 89.792 195.079 89.324 196.735 89.324C199.255 89.324 201.451 90.152 203.431 91.52V86.192C201.595 85.184 199.471 84.536 196.483 84.536C191.839 84.536 188.131 86.948 188.131 91.34C188.131 95.012 190.183 96.848 193.891 97.928L197.239 98.9C198.427 99.332 199.111 99.692 199.111 100.772C199.111 102.14 197.527 102.536 195.691 102.536C193.207 102.536 190.507 101.528 188.599 100.232ZM223.077 98.9C223.077 93.896 219.729 90.44 214.797 90.44C209.901 90.44 206.517 93.896 206.517 98.9C206.517 103.904 209.901 107.36 214.797 107.36C219.729 107.36 223.077 103.904 223.077 98.9ZM217.533 98.9C217.533 101.132 216.561 102.68 214.797 102.68C213.069 102.68 212.097 101.132 212.097 98.9C212.097 96.668 213.069 95.084 214.797 95.084C216.561 95.084 217.533 96.668 217.533 98.9ZM241.183 98.9C241.183 93.896 237.835 90.44 232.903 90.44C228.007 90.44 224.623 93.896 224.623 98.9C224.623 103.904 228.007 107.36 232.903 107.36C237.835 107.36 241.183 103.904 241.183 98.9ZM235.639 98.9C235.639 101.132 234.667 102.68 232.903 102.68C231.175 102.68 230.203 101.132 230.203 98.9C230.203 96.668 231.175 95.084 232.903 95.084C234.667 95.084 235.639 96.668 235.639 98.9ZM243.381 90.8V107H249.033V97.208C249.321 96.092 250.257 95.444 251.373 95.444C252.813 95.444 253.497 96.416 253.497 97.748V107H259.113V96.38C259.113 92.78 256.989 90.44 253.389 90.44C251.517 90.44 249.933 91.196 249.033 92.204V90.8H243.381Z" fill="black"/>
</svg>
