<svg width="330" height="192" viewBox="0 0 330 192" fill="none" xmlns="http://www.w3.org/2000/svg">
<rect width="103.385" height="91.0769" rx="6" fill="#263040"/>
<rect y="100.923" width="103.385" height="91.0769" rx="6" fill="#263040"/>
<rect x="113.231" width="103.385" height="91.0769" rx="6" fill="#263040"/>
<rect x="113.231" y="100.923" width="103.385" height="91.0769" rx="6" fill="#263040"/>
<rect x="226.461" width="103.385" height="91.0769" rx="6" fill="#263040"/>
<rect x="226.461" y="100.923" width="103.385" height="91.0769" rx="6" fill="#263040"/>
<path d="M70.178 95.948C70.178 102.824 74.786 107.36 81.518 107.36C83.858 107.36 85.73 106.784 87.134 105.848V100.232C85.55 101.456 83.822 101.996 81.986 101.996C78.314 101.996 75.974 99.728 75.974 95.948C75.974 92.132 78.314 89.864 81.986 89.864C83.822 89.864 85.55 90.44 87.134 91.664V86.048C85.73 85.112 83.858 84.536 81.518 84.536C74.786 84.536 70.178 89.072 70.178 95.948ZM105.649 98.9C105.649 93.896 102.301 90.44 97.3687 90.44C92.4727 90.44 89.0887 93.896 89.0887 98.9C89.0887 103.904 92.4727 107.36 97.3687 107.36C102.301 107.36 105.649 103.904 105.649 98.9ZM100.105 98.9C100.105 101.132 99.1327 102.68 97.3687 102.68C95.6407 102.68 94.6687 101.132 94.6687 98.9C94.6687 96.668 95.6407 95.084 97.3687 95.084C99.1327 95.084 100.105 96.668 100.105 98.9ZM122.139 92.384C121.167 91.232 119.727 90.44 117.675 90.44C115.875 90.44 114.327 91.124 113.499 92.132V90.8H107.847V107H113.499V97.136C113.751 96.02 114.615 95.408 115.587 95.408C116.847 95.408 117.423 96.38 117.423 97.748V107H123.039V97.136C123.327 96.02 124.155 95.408 125.127 95.408C126.387 95.408 126.963 96.38 126.963 97.748V107H132.615V96.38C132.615 92.744 130.527 90.44 127.143 90.44C124.767 90.44 123.111 91.376 122.139 92.384ZM141.563 86.408C141.563 84.536 140.087 83.348 138.359 83.348C136.631 83.348 135.155 84.536 135.155 86.408C135.155 88.244 136.631 89.432 138.359 89.432C140.087 89.432 141.563 88.244 141.563 86.408ZM141.167 107V90.8H135.515V107H141.167ZM144.234 90.8V107H149.886V97.208C150.174 96.092 151.11 95.444 152.226 95.444C153.666 95.444 154.35 96.416 154.35 97.748V107H159.966V96.38C159.966 92.78 157.842 90.44 154.242 90.44C152.37 90.44 150.786 91.196 149.886 92.204V90.8H144.234ZM173.018 104.804V105.344C173.018 107.612 171.146 108.512 168.986 108.512C166.754 108.512 164.99 107.936 163.334 106.532V111.716C164.63 112.544 166.898 113.084 169.166 113.084C174.35 113.084 178.598 110.636 178.598 104.66V90.8H173.018V92.024C172.298 91.16 170.966 90.44 169.202 90.44C164.63 90.44 162.038 93.932 162.038 98.396C162.038 102.86 164.63 106.388 169.202 106.388C170.966 106.388 172.298 105.632 173.018 104.804ZM173.018 96.272V100.556C172.586 101.276 171.686 101.888 170.606 101.888C168.734 101.888 167.618 100.448 167.618 98.396C167.618 96.344 168.734 94.904 170.606 94.904C171.686 94.904 172.586 95.552 173.018 96.272ZM188.522 100.232V105.56C190.142 106.532 192.806 107.36 195.758 107.36C200.726 107.36 204.794 105.236 204.794 100.448C204.794 97.064 202.958 94.94 198.926 93.68L195.578 92.672C194.426 92.312 193.742 91.916 193.742 90.908C193.742 89.792 195.002 89.324 196.658 89.324C199.178 89.324 201.374 90.152 203.354 91.52V86.192C201.518 85.184 199.394 84.536 196.406 84.536C191.762 84.536 188.054 86.948 188.054 91.34C188.054 95.012 190.106 96.848 193.814 97.928L197.162 98.9C198.35 99.332 199.034 99.692 199.034 100.772C199.034 102.14 197.45 102.536 195.614 102.536C193.13 102.536 190.43 101.528 188.522 100.232ZM223 98.9C223 93.896 219.652 90.44 214.72 90.44C209.824 90.44 206.44 93.896 206.44 98.9C206.44 103.904 209.824 107.36 214.72 107.36C219.652 107.36 223 103.904 223 98.9ZM217.456 98.9C217.456 101.132 216.484 102.68 214.72 102.68C212.992 102.68 212.02 101.132 212.02 98.9C212.02 96.668 212.992 95.084 214.72 95.084C216.484 95.084 217.456 96.668 217.456 98.9ZM241.106 98.9C241.106 93.896 237.758 90.44 232.826 90.44C227.93 90.44 224.546 93.896 224.546 98.9C224.546 103.904 227.93 107.36 232.826 107.36C237.758 107.36 241.106 103.904 241.106 98.9ZM235.562 98.9C235.562 101.132 234.59 102.68 232.826 102.68C231.098 102.68 230.126 101.132 230.126 98.9C230.126 96.668 231.098 95.084 232.826 95.084C234.59 95.084 235.562 96.668 235.562 98.9ZM243.304 90.8V107H248.956V97.208C249.244 96.092 250.18 95.444 251.296 95.444C252.736 95.444 253.42 96.416 253.42 97.748V107H259.036V96.38C259.036 92.78 256.912 90.44 253.312 90.44C251.44 90.44 249.856 91.196 248.956 92.204V90.8H243.304Z" fill="white"/>
</svg>
