<svg width="1076" height="363" viewBox="0 0 1076 363" fill="none" xmlns="http://www.w3.org/2000/svg">
<g clip-path="url(#clip0_2920_18612)">
<rect width="522.24" height="296.453" transform="translate(4.19482 66.2191)" fill="white"/>
<rect width="1055" height="664" transform="translate(4.19482 66.2191)" fill="white"/>
<path fill-rule="evenodd" clip-rule="evenodd" d="M31 96.2523H75V108.252H31V96.2523ZM34 99.2523H72V105.252H34V99.2523Z" fill="#01A982"/>
<path d="M92.68 97.4283H90.104V101.156H86.312V97.4283H83.736V107.252H86.312V103.364H90.104V107.252H92.68V97.4283ZM96.6863 104.196H98.4463C100.574 104.196 102.014 102.996 102.014 100.82C102.014 98.6283 100.574 97.4283 98.4463 97.4283H94.1423V107.252H96.6863V104.196ZM99.5183 100.82C99.5183 101.556 99.1023 102.052 98.1743 102.052H96.6863V99.5883H98.1743C99.1023 99.5883 99.5183 100.068 99.5183 100.82ZM110.135 97.4283H103.111V107.252H110.135V105.028H105.639V103.332H109.751V101.172H105.639V99.6363H110.135V97.4283ZM119.743 106.154C117.439 106.154 115.963 104.39 115.963 101.726C115.963 99.0623 117.565 97.3163 119.869 97.3163C121.075 97.3163 122.119 97.6943 123.055 98.5403V97.0283C122.281 96.4163 121.165 96.0383 119.869 96.0383C116.827 96.0383 114.541 98.2883 114.541 101.726C114.541 105.146 116.629 107.414 119.707 107.414C121.075 107.414 122.533 107 123.595 105.83V101.51H119.851V102.698H122.281V105.308C121.561 105.902 120.751 106.154 119.743 106.154ZM129.855 100.61V99.2243C129.711 99.1523 129.423 99.0983 129.081 99.0983C128.199 99.0983 127.443 99.6203 127.101 100.304V99.2603H125.751V107.252H127.101V101.888C127.371 100.952 128.109 100.394 128.955 100.394C129.297 100.394 129.639 100.466 129.855 100.61ZM132.062 103.49H137.57V103.004C137.57 100.664 136.454 99.0983 134.294 99.0983C132.17 99.0983 130.73 100.844 130.73 103.328C130.73 105.848 132.278 107.414 134.582 107.414C135.536 107.414 136.364 107.216 137.012 106.712V105.47C136.292 106.01 135.644 106.226 134.744 106.226C133.286 106.226 132.116 105.344 132.062 103.49ZM134.312 100.25C135.608 100.25 136.202 101.258 136.256 102.428H132.134C132.386 100.952 133.25 100.25 134.312 100.25ZM140.165 103.49H145.673V103.004C145.673 100.664 144.557 99.0983 142.397 99.0983C140.273 99.0983 138.833 100.844 138.833 103.328C138.833 105.848 140.381 107.414 142.685 107.414C143.639 107.414 144.467 107.216 145.115 106.712V105.47C144.395 106.01 143.747 106.226 142.847 106.226C141.389 106.226 140.219 105.344 140.165 103.49ZM142.415 100.25C143.711 100.25 144.305 101.258 144.359 102.428H140.237C140.489 100.952 141.353 100.25 142.415 100.25ZM147.513 99.2603V107.252H148.863V101.834C149.151 100.97 149.961 100.34 150.897 100.34C152.103 100.34 152.661 101.114 152.661 102.23V107.252H154.029V102.014C154.029 100.268 153.039 99.0983 151.221 99.0983C150.195 99.0983 149.331 99.6383 148.863 100.268V99.2603H147.513ZM156.427 96.2003V107.252H163.483V105.974H157.849V96.2003H156.427ZM169.836 101.942V102.986C169.494 102.68 168.666 102.338 167.838 102.338C166.128 102.338 164.796 103.346 164.796 104.84C164.796 106.424 166.128 107.396 167.766 107.396C168.702 107.396 169.53 106.982 169.836 106.658V107.252H171.15V101.834C171.15 100.142 170.034 99.0983 168.144 99.0983C167.154 99.0983 166.2 99.3863 165.66 99.7643V101.042C166.326 100.61 167.046 100.34 167.928 100.34C169.098 100.34 169.836 100.952 169.836 101.942ZM169.836 104.444V105.272C169.62 105.866 168.828 106.262 167.982 106.262C167.01 106.262 166.074 105.812 166.074 104.84C166.074 103.886 167.01 103.454 167.982 103.454C168.828 103.454 169.62 103.85 169.836 104.444ZM180.172 107.252L176.176 102.914L180.1 99.2603H178.354L174.808 102.626V95.5523H173.458V107.252H174.808V103.292L178.498 107.252H180.172ZM182.107 103.49H187.615V103.004C187.615 100.664 186.499 99.0983 184.339 99.0983C182.215 99.0983 180.775 100.844 180.775 103.328C180.775 105.848 182.323 107.414 184.627 107.414C185.581 107.414 186.409 107.216 187.057 106.712V105.47C186.337 106.01 185.689 106.226 184.789 106.226C183.331 106.226 182.161 105.344 182.107 103.49ZM184.357 100.25C185.653 100.25 186.247 101.258 186.301 102.428H182.179C182.431 100.952 183.295 100.25 184.357 100.25Z" fill="black"/>
<path fill-rule="evenodd" clip-rule="evenodd" d="M74.609 180.219L79.9019 174.926L78.4876 173.512L71.7805 180.219L78.4876 186.926L79.9019 185.512L74.609 180.219Z" fill="black"/>
<path d="M97.9208 185.219V174.167H95.0228V185.219H97.9208ZM104.688 184.571V185.219H107.514V173.519H104.688V177.767C104.31 177.335 103.518 176.939 102.69 176.939C100.35 176.939 99.0716 178.829 99.0716 181.169C99.0716 183.509 100.35 185.399 102.69 185.399C103.518 185.399 104.31 185.003 104.688 184.571ZM104.688 180.089V182.231C104.472 182.681 104.004 182.987 103.446 182.987C102.474 182.987 101.898 182.213 101.898 181.169C101.898 180.125 102.474 179.333 103.446 179.333C103.986 179.333 104.472 179.657 104.688 180.089ZM111.335 181.817H116.321V180.989C116.321 178.577 115.043 176.939 112.523 176.939C110.291 176.939 108.599 178.685 108.599 181.223C108.599 183.833 110.363 185.399 112.955 185.399C114.125 185.399 115.115 185.147 115.745 184.679V182.537C114.935 183.023 114.269 183.185 113.405 183.185C112.361 183.185 111.569 182.789 111.335 181.817ZM112.631 179.081C113.315 179.081 113.729 179.549 113.801 180.233H111.371C111.569 179.495 112.019 179.081 112.631 179.081ZM117.451 177.119V185.219H120.277V180.323C120.421 179.765 120.889 179.441 121.447 179.441C122.167 179.441 122.509 179.927 122.509 180.593V185.219H125.317V179.909C125.317 178.109 124.255 176.939 122.455 176.939C121.519 176.939 120.727 177.317 120.277 177.821V177.119H117.451ZM130.529 185.219V179.315H132.113V177.119H130.529V174.887H127.721V177.119H126.317V179.315H127.721V185.219H130.529ZM136.172 174.923C136.172 173.987 135.434 173.393 134.57 173.393C133.706 173.393 132.968 173.987 132.968 174.923C132.968 175.841 133.706 176.435 134.57 176.435C135.434 176.435 136.172 175.841 136.172 174.923ZM135.974 185.219V177.119H133.148V185.219H135.974ZM141.251 185.219V179.315H142.835V177.119H141.251V174.887H138.443V177.119H137.039V179.315H138.443V185.219H141.251ZM145.077 188.081H147.867L152.043 177.119H149.235L147.723 181.727L146.175 177.119H143.241L146.265 185.021L145.077 188.081ZM161.261 176.273C162.179 176.273 163.007 176.723 163.619 177.245V174.779C163.043 174.311 162.035 173.987 161.045 173.987C158.867 173.987 157.373 175.211 157.373 177.137C157.373 177.839 157.553 178.415 157.967 179.027C156.941 179.621 156.239 180.683 156.239 181.889C156.239 184.067 157.805 185.399 160.163 185.399C161.135 185.399 162.071 185.111 162.899 184.589L163.475 185.219H166.643L164.645 182.915C165.347 181.925 165.761 180.701 165.779 179.369H163.295C163.277 179.981 163.169 180.539 163.007 181.007L160.883 178.541C160.505 178.109 160.127 177.695 160.127 177.173C160.127 176.633 160.541 176.273 161.261 176.273ZM160.199 183.221C159.317 183.221 158.831 182.645 158.831 181.889C158.831 181.385 159.065 180.953 159.407 180.719L161.405 182.933C161.027 183.113 160.613 183.221 160.199 183.221ZM177.616 174.167H174.664L170.452 185.219H173.314L174.088 183.077H178.102L178.894 185.219H181.828L177.616 174.167ZM174.97 180.701L176.104 177.587L177.238 180.701H174.97ZM181.952 181.169C181.952 183.779 183.752 185.399 186.182 185.399C187.01 185.399 187.784 185.237 188.36 184.823V182.447C187.838 182.825 187.28 183.023 186.614 183.023C185.57 183.023 184.742 182.393 184.742 181.169C184.742 179.945 185.57 179.315 186.614 179.315C187.28 179.315 187.838 179.513 188.36 179.891V177.515C187.784 177.101 187.01 176.939 186.182 176.939C183.752 176.939 181.952 178.559 181.952 181.169ZM189.159 181.169C189.159 183.779 190.959 185.399 193.389 185.399C194.217 185.399 194.991 185.237 195.567 184.823V182.447C195.045 182.825 194.487 183.023 193.821 183.023C192.777 183.023 191.949 182.393 191.949 181.169C191.949 179.945 192.777 179.315 193.821 179.315C194.487 179.315 195.045 179.513 195.567 179.891V177.515C194.991 177.101 194.217 176.939 193.389 176.939C190.959 176.939 189.159 178.559 189.159 181.169ZM199.102 181.817H204.088V180.989C204.088 178.577 202.81 176.939 200.29 176.939C198.058 176.939 196.366 178.685 196.366 181.223C196.366 183.833 198.13 185.399 200.722 185.399C201.892 185.399 202.882 185.147 203.512 184.679V182.537C202.702 183.023 202.036 183.185 201.172 183.185C200.128 183.185 199.336 182.789 199.102 181.817ZM200.398 179.081C201.082 179.081 201.496 179.549 201.568 180.233H199.138C199.336 179.495 199.786 179.081 200.398 179.081ZM204.948 182.249V184.625C205.704 185.129 206.892 185.399 208.026 185.399C210.024 185.399 211.518 184.553 211.518 182.825C211.518 181.457 210.816 180.737 209.052 180.269L208.314 180.053C207.918 179.945 207.684 179.837 207.684 179.531C207.684 179.207 208.008 179.045 208.494 179.045C209.412 179.045 210.276 179.423 211.05 179.981V177.659C210.258 177.173 209.376 176.939 208.224 176.939C206.316 176.939 204.912 177.893 204.912 179.585C204.912 181.043 205.866 181.745 207.36 182.069L207.99 182.231C208.476 182.339 208.728 182.465 208.728 182.789C208.728 183.149 208.368 183.275 207.81 183.275C206.982 183.275 205.722 182.879 204.948 182.249ZM212.348 182.249V184.625C213.104 185.129 214.292 185.399 215.426 185.399C217.424 185.399 218.918 184.553 218.918 182.825C218.918 181.457 218.216 180.737 216.452 180.269L215.714 180.053C215.318 179.945 215.084 179.837 215.084 179.531C215.084 179.207 215.408 179.045 215.894 179.045C216.812 179.045 217.676 179.423 218.45 179.981V177.659C217.658 177.173 216.776 176.939 215.624 176.939C213.716 176.939 212.312 177.893 212.312 179.585C212.312 181.043 213.266 181.745 214.76 182.069L215.39 182.231C215.876 182.339 216.128 182.465 216.128 182.789C216.128 183.149 215.768 183.275 215.21 183.275C214.382 183.275 213.122 182.879 212.348 182.249Z" fill="black"/>
<rect x="41.1948" y="154.219" width="202" height="52" stroke="#7630EA" stroke-width="2"/>
<path d="M63.2468 278.579C69.0788 278.579 72.8588 275.267 72.8588 269.219V256.115H67.0988V268.679C67.0988 271.811 65.6228 273.431 63.2468 273.431C60.8348 273.431 59.3588 271.811 59.3588 268.679V256.115H53.5988V269.183C53.5988 275.267 57.4148 278.579 63.2468 278.579ZM75.2089 272.279V277.031C76.7209 278.039 79.0969 278.579 81.3649 278.579C85.361 278.579 88.349 276.887 88.349 273.431C88.349 270.695 86.945 269.255 83.4169 268.319L81.9409 267.887C81.1489 267.671 80.6809 267.455 80.6809 266.843C80.6809 266.195 81.3289 265.871 82.3009 265.871C84.1369 265.871 85.865 266.627 87.4129 267.743V263.099C85.8289 262.127 84.0649 261.659 81.7609 261.659C77.9449 261.659 75.1369 263.567 75.1369 266.951C75.1369 269.867 77.0449 271.271 80.0329 271.919L81.2929 272.243C82.2649 272.459 82.7689 272.711 82.7689 273.359C82.7689 274.079 82.0489 274.331 80.9329 274.331C79.2769 274.331 76.7569 273.539 75.2089 272.279ZM95.2992 271.415H105.271V269.759C105.271 264.935 102.715 261.659 97.6752 261.659C93.2112 261.659 89.8272 265.151 89.8272 270.227C89.8272 275.447 93.3552 278.579 98.5392 278.579C100.879 278.579 102.859 278.075 104.119 277.139V272.855C102.499 273.827 101.167 274.151 99.4392 274.151C97.3512 274.151 95.7672 273.359 95.2992 271.415ZM97.8912 265.943C99.2592 265.943 100.087 266.879 100.231 268.247H95.3712C95.7672 266.771 96.6672 265.943 97.8912 265.943ZM118.403 267.383V261.947C118.151 261.803 117.575 261.659 116.855 261.659C115.235 261.659 113.975 262.379 113.183 263.459V262.019H107.531V278.219H113.183V268.715C113.471 267.563 114.515 266.879 116.063 266.879C116.963 266.879 117.719 267.023 118.403 267.383ZM120.033 272.279V277.031C121.545 278.039 123.921 278.579 126.189 278.579C130.185 278.579 133.173 276.887 133.173 273.431C133.173 270.695 131.769 269.255 128.241 268.319L126.765 267.887C125.973 267.671 125.505 267.455 125.505 266.843C125.505 266.195 126.153 265.871 127.125 265.871C128.961 265.871 130.689 266.627 132.237 267.743V263.099C130.653 262.127 128.889 261.659 126.585 261.659C122.769 261.659 119.961 263.567 119.961 266.951C119.961 269.867 121.869 271.271 124.857 271.919L126.117 272.243C127.089 272.459 127.593 272.711 127.593 273.359C127.593 274.079 126.873 274.331 125.757 274.331C124.101 274.331 121.581 273.539 120.033 272.279Z" fill="black"/>
<g filter="url(#filter0_d_2920_18612)">
<rect x="52.1948" y="312.219" width="348" height="122" rx="12" fill="white"/>
<path d="M76.8696 342.167V343.427H80.7216V353.219H82.1436V343.427H85.9956V342.167H76.8696ZM93.3036 349.223C93.3036 346.775 91.8096 345.065 89.6316 345.065C87.4356 345.065 85.9596 346.775 85.9596 349.223C85.9596 351.671 87.4356 353.381 89.6316 353.381C91.8096 353.381 93.3036 351.671 93.3036 349.223ZM91.9356 349.223C91.9356 350.969 91.0716 352.193 89.6316 352.193C88.1916 352.193 87.3276 350.969 87.3276 349.223C87.3276 347.477 88.1916 346.253 89.6316 346.253C91.0716 346.253 91.9356 347.477 91.9356 349.223ZM97.2402 353.219V346.379H99.0942V345.227H97.2402V343.121H95.8902V345.227H94.2162V346.379H95.8902V353.219H97.2402ZM105.009 347.909V348.953C104.667 348.647 103.839 348.305 103.011 348.305C101.301 348.305 99.9689 349.313 99.9689 350.807C99.9689 352.391 101.301 353.363 102.939 353.363C103.875 353.363 104.703 352.949 105.009 352.625V353.219H106.323V347.801C106.323 346.109 105.207 345.065 103.317 345.065C102.327 345.065 101.373 345.353 100.833 345.731V347.009C101.499 346.577 102.219 346.307 103.101 346.307C104.271 346.307 105.009 346.919 105.009 347.909ZM105.009 350.411V351.239C104.793 351.833 104.001 352.229 103.155 352.229C102.183 352.229 101.247 351.779 101.247 350.807C101.247 349.853 102.183 349.421 103.155 349.421C104.001 349.421 104.793 349.817 105.009 350.411ZM109.981 353.219V341.519H108.631V353.219H109.981ZM120.614 353.381C123.134 353.381 124.952 351.869 124.952 348.845V342.167H123.53V348.665C123.53 351.023 122.396 352.121 120.614 352.121C118.832 352.121 117.698 351.023 117.698 348.665V342.167H116.294V348.827C116.294 351.869 118.112 353.381 120.614 353.381ZM126.831 351.149V352.589C127.425 353.057 128.415 353.381 129.459 353.381C131.133 353.381 132.447 352.535 132.447 351.059C132.447 349.925 131.781 349.223 130.575 348.809L129.351 348.395C128.595 348.125 128.163 347.909 128.163 347.261C128.163 346.577 128.847 346.217 129.675 346.217C130.647 346.217 131.385 346.613 132.051 347.171V345.767C131.403 345.317 130.575 345.065 129.675 345.065C128.091 345.065 126.849 345.911 126.849 347.315C126.849 348.611 127.659 349.187 128.865 349.583L129.963 349.961C130.665 350.195 131.115 350.519 131.115 351.113C131.115 351.905 130.341 352.229 129.459 352.229C128.487 352.229 127.569 351.833 126.831 351.149ZM135.122 349.457H140.63V348.971C140.63 346.631 139.514 345.065 137.354 345.065C135.23 345.065 133.79 346.811 133.79 349.295C133.79 351.815 135.338 353.381 137.642 353.381C138.596 353.381 139.424 353.183 140.072 352.679V351.437C139.352 351.977 138.704 352.193 137.804 352.193C136.346 352.193 135.176 351.311 135.122 349.457ZM137.372 346.217C138.668 346.217 139.262 347.225 139.316 348.395H135.194C135.446 346.919 136.31 346.217 137.372 346.217ZM146.573 346.577V345.191C146.429 345.119 146.141 345.065 145.799 345.065C144.917 345.065 144.161 345.587 143.819 346.271V345.227H142.469V353.219H143.819V347.855C144.089 346.919 144.827 346.361 145.673 346.361C146.015 346.361 146.357 346.433 146.573 346.577ZM147.732 351.149V352.589C148.326 353.057 149.316 353.381 150.36 353.381C152.034 353.381 153.348 352.535 153.348 351.059C153.348 349.925 152.682 349.223 151.476 348.809L150.252 348.395C149.496 348.125 149.064 347.909 149.064 347.261C149.064 346.577 149.748 346.217 150.576 346.217C151.548 346.217 152.286 346.613 152.952 347.171V345.767C152.304 345.317 151.476 345.065 150.576 345.065C148.992 345.065 147.75 345.911 147.75 347.315C147.75 348.611 148.56 349.187 149.766 349.583L150.864 349.961C151.566 350.195 152.016 350.519 152.016 351.113C152.016 351.905 151.242 352.229 150.36 352.229C149.388 352.229 148.47 351.833 147.732 351.149Z" fill="black"/>
<circle cx="352.195" cy="373.219" r="24" fill="#EFEFEF"/>
<g clip-path="url(#clip1_2920_18612)">
<path fill-rule="evenodd" clip-rule="evenodd" d="M352.195 362.219C348.329 362.219 345.195 365.353 345.195 369.219C345.195 371.485 346.271 373.499 347.94 374.778C346.954 375.069 346.045 375.482 345.249 376.034C343.342 377.358 342.195 379.422 342.195 382.219V385.219H344.195V382.219C344.195 380.045 345.047 378.609 346.39 377.676C347.786 376.707 349.807 376.219 352.195 376.219C354.585 376.219 356.606 376.701 358.001 377.666C359.341 378.594 360.195 380.029 360.195 382.219V385.219H362.195V382.219C362.195 379.409 361.048 377.344 359.139 376.022C358.345 375.472 357.437 375.063 356.454 374.775C358.121 373.495 359.195 371.483 359.195 369.219C359.195 365.353 356.061 362.219 352.195 362.219ZM352.195 374.219C354.956 374.219 357.195 371.981 357.195 369.219C357.195 366.458 354.956 364.219 352.195 364.219C349.433 364.219 347.195 366.458 347.195 369.219C347.195 371.981 349.433 374.219 352.195 374.219Z" fill="black"/>
</g>
</g>
<g filter="url(#filter1_d_2920_18612)">
<rect x="424.195" y="312.219" width="348" height="122" rx="12" fill="white"/>
<path d="M454.5 342.167H453.168L448.848 353.219H450.288L451.548 349.889H456.102L457.38 353.219H458.82L454.5 342.167ZM452.016 348.647L453.816 343.931L455.616 348.647H452.016ZM459.7 349.223C459.7 351.779 461.392 353.381 463.552 353.381C464.326 353.381 465.136 353.201 465.694 352.715V351.347C465.118 351.923 464.416 352.175 463.642 352.175C462.22 352.175 461.068 351.059 461.068 349.223C461.068 347.387 462.22 346.271 463.642 346.271C464.416 346.271 465.118 346.523 465.694 347.099V345.731C465.136 345.245 464.326 345.065 463.552 345.065C461.392 345.065 459.7 346.667 459.7 349.223ZM469.838 353.219V346.379H471.692V345.227H469.838V343.121H468.488V345.227H466.814V346.379H468.488V353.219H469.838ZM474.884 342.815C474.884 342.329 474.488 341.951 474.002 341.951C473.534 341.951 473.138 342.329 473.138 342.815C473.138 343.283 473.534 343.679 474.002 343.679C474.488 343.679 474.884 343.283 474.884 342.815ZM474.686 353.219V345.227H473.336V353.219H474.686ZM479.312 353.219H480.644L483.758 345.227H482.336L480.014 351.509L477.674 345.227H476.216L479.312 353.219ZM485.905 349.457H491.413V348.971C491.413 346.631 490.297 345.065 488.137 345.065C486.013 345.065 484.573 346.811 484.573 349.295C484.573 351.815 486.121 353.381 488.425 353.381C489.379 353.381 490.207 353.183 490.855 352.679V351.437C490.135 351.977 489.487 352.193 488.587 352.193C487.129 352.193 485.959 351.311 485.905 349.457ZM488.155 346.217C489.451 346.217 490.045 347.225 490.099 348.395H485.977C486.229 346.919 487.093 346.217 488.155 346.217ZM501.473 353.381C503.993 353.381 505.811 351.869 505.811 348.845V342.167H504.389V348.665C504.389 351.023 503.255 352.121 501.473 352.121C499.691 352.121 498.557 351.023 498.557 348.665V342.167H497.153V348.827C497.153 351.869 498.971 353.381 501.473 353.381ZM507.691 351.149V352.589C508.285 353.057 509.275 353.381 510.319 353.381C511.993 353.381 513.307 352.535 513.307 351.059C513.307 349.925 512.641 349.223 511.435 348.809L510.211 348.395C509.455 348.125 509.023 347.909 509.023 347.261C509.023 346.577 509.707 346.217 510.535 346.217C511.507 346.217 512.245 346.613 512.911 347.171V345.767C512.263 345.317 511.435 345.065 510.535 345.065C508.951 345.065 507.709 345.911 507.709 347.315C507.709 348.611 508.519 349.187 509.725 349.583L510.823 349.961C511.525 350.195 511.975 350.519 511.975 351.113C511.975 351.905 511.201 352.229 510.319 352.229C509.347 352.229 508.429 351.833 507.691 351.149ZM515.981 349.457H521.489V348.971C521.489 346.631 520.373 345.065 518.213 345.065C516.089 345.065 514.649 346.811 514.649 349.295C514.649 351.815 516.197 353.381 518.501 353.381C519.455 353.381 520.283 353.183 520.931 352.679V351.437C520.211 351.977 519.563 352.193 518.663 352.193C517.205 352.193 516.035 351.311 515.981 349.457ZM518.231 346.217C519.527 346.217 520.121 347.225 520.175 348.395H516.053C516.305 346.919 517.169 346.217 518.231 346.217ZM527.433 346.577V345.191C527.289 345.119 527.001 345.065 526.659 345.065C525.777 345.065 525.021 345.587 524.679 346.271V345.227H523.329V353.219H524.679V347.855C524.949 346.919 525.687 346.361 526.533 346.361C526.875 346.361 527.217 346.433 527.433 346.577ZM528.591 351.149V352.589C529.185 353.057 530.175 353.381 531.219 353.381C532.893 353.381 534.207 352.535 534.207 351.059C534.207 349.925 533.541 349.223 532.335 348.809L531.111 348.395C530.355 348.125 529.923 347.909 529.923 347.261C529.923 346.577 530.607 346.217 531.435 346.217C532.407 346.217 533.145 346.613 533.811 347.171V345.767C533.163 345.317 532.335 345.065 531.435 345.065C529.851 345.065 528.609 345.911 528.609 347.315C528.609 348.611 529.419 349.187 530.625 349.583L531.723 349.961C532.425 350.195 532.875 350.519 532.875 351.113C532.875 351.905 532.101 352.229 531.219 352.229C530.247 352.229 529.329 351.833 528.591 351.149Z" fill="black"/>
</g>
</g>
<g clip-path="url(#clip2_2920_18612)">
<rect width="522.24" height="296.453" transform="translate(553.15 66.2191)" fill="white"/>
<path fill-rule="evenodd" clip-rule="evenodd" d="M579 96.2523H623V108.252H579V96.2523ZM582 99.2523H620V105.252H582V99.2523Z" fill="#01A982"/>
<path d="M640.68 97.4283H638.104V101.156H634.312V97.4283H631.736V107.252H634.312V103.364H638.104V107.252H640.68V97.4283ZM644.686 104.196H646.446C648.574 104.196 650.014 102.996 650.014 100.82C650.014 98.6283 648.574 97.4283 646.446 97.4283H642.142V107.252H644.686V104.196ZM647.518 100.82C647.518 101.556 647.102 102.052 646.174 102.052H644.686V99.5883H646.174C647.102 99.5883 647.518 100.068 647.518 100.82ZM658.135 97.4283H651.111V107.252H658.135V105.028H653.639V103.332H657.751V101.172H653.639V99.6363H658.135V97.4283ZM668.513 106.154C666.209 106.154 664.733 104.39 664.733 101.726C664.733 99.0623 666.335 97.3163 668.639 97.3163C669.845 97.3163 670.889 97.6943 671.825 98.5403V97.0283C671.051 96.4163 669.935 96.0383 668.639 96.0383C665.597 96.0383 663.311 98.2883 663.311 101.726C663.311 105.146 665.399 107.414 668.477 107.414C669.845 107.414 671.303 107 672.365 105.83V101.51H668.621V102.698H671.051V105.308C670.331 105.902 669.521 106.154 668.513 106.154ZM678.624 100.61V99.2243C678.48 99.1523 678.192 99.0983 677.85 99.0983C676.968 99.0983 676.212 99.6203 675.87 100.304V99.2603H674.52V107.252H675.87V101.888C676.14 100.952 676.878 100.394 677.724 100.394C678.066 100.394 678.408 100.466 678.624 100.61ZM680.831 103.49H686.339V103.004C686.339 100.664 685.223 99.0983 683.063 99.0983C680.939 99.0983 679.499 100.844 679.499 103.328C679.499 105.848 681.047 107.414 683.351 107.414C684.305 107.414 685.133 107.216 685.781 106.712V105.47C685.061 106.01 684.413 106.226 683.513 106.226C682.055 106.226 680.885 105.344 680.831 103.49ZM683.081 100.25C684.377 100.25 684.971 101.258 685.025 102.428H680.903C681.155 100.952 682.019 100.25 683.081 100.25ZM688.935 103.49H694.443V103.004C694.443 100.664 693.327 99.0983 691.167 99.0983C689.043 99.0983 687.603 100.844 687.603 103.328C687.603 105.848 689.151 107.414 691.455 107.414C692.409 107.414 693.237 107.216 693.885 106.712V105.47C693.165 106.01 692.517 106.226 691.617 106.226C690.159 106.226 688.989 105.344 688.935 103.49ZM691.185 100.25C692.481 100.25 693.075 101.258 693.129 102.428H689.007C689.259 100.952 690.123 100.25 691.185 100.25ZM696.282 99.2603V107.252H697.632V101.834C697.92 100.97 698.73 100.34 699.666 100.34C700.872 100.34 701.43 101.114 701.43 102.23V107.252H702.798V102.014C702.798 100.268 701.808 99.0983 699.99 99.0983C698.964 99.0983 698.1 99.6383 697.632 100.268V99.2603H696.282ZM705.197 96.2003V107.252H712.253V105.974H706.619V96.2003H705.197ZM718.605 101.942V102.986C718.263 102.68 717.435 102.338 716.607 102.338C714.897 102.338 713.565 103.346 713.565 104.84C713.565 106.424 714.897 107.396 716.535 107.396C717.471 107.396 718.299 106.982 718.605 106.658V107.252H719.919V101.834C719.919 100.142 718.803 99.0983 716.913 99.0983C715.923 99.0983 714.969 99.3863 714.429 99.7643V101.042C715.095 100.61 715.815 100.34 716.697 100.34C717.867 100.34 718.605 100.952 718.605 101.942ZM718.605 104.444V105.272C718.389 105.866 717.597 106.262 716.751 106.262C715.779 106.262 714.843 105.812 714.843 104.84C714.843 103.886 715.779 103.454 716.751 103.454C717.597 103.454 718.389 103.85 718.605 104.444ZM728.941 107.252L724.945 102.914L728.869 99.2603H727.123L723.577 102.626V95.5523H722.227V107.252H723.577V103.292L727.267 107.252H728.941ZM730.876 103.49H736.384V103.004C736.384 100.664 735.268 99.0983 733.108 99.0983C730.984 99.0983 729.544 100.844 729.544 103.328C729.544 105.848 731.092 107.414 733.396 107.414C734.35 107.414 735.178 107.216 735.826 106.712V105.47C735.106 106.01 734.458 106.226 733.558 106.226C732.1 106.226 730.93 105.344 730.876 103.49ZM733.126 100.25C734.422 100.25 735.016 101.258 735.07 102.428H730.948C731.2 100.952 732.064 100.25 733.126 100.25Z" fill="black"/>
<path d="M608.602 218.219V196.115H602.806V218.219H608.602ZM622.136 216.923V218.219H627.788V194.819H622.136V203.315C621.38 202.451 619.796 201.659 618.14 201.659C613.46 201.659 610.904 205.439 610.904 210.119C610.904 214.799 613.46 218.579 618.14 218.579C619.796 218.579 621.38 217.787 622.136 216.923ZM622.136 207.959V212.243C621.704 213.143 620.768 213.755 619.652 213.755C617.708 213.755 616.556 212.207 616.556 210.119C616.556 208.031 617.708 206.447 619.652 206.447C620.732 206.447 621.704 207.095 622.136 207.959ZM635.431 211.415H645.403V209.759C645.403 204.935 642.847 201.659 637.807 201.659C633.343 201.659 629.959 205.151 629.959 210.227C629.959 215.447 633.487 218.579 638.671 218.579C641.011 218.579 642.991 218.075 644.251 217.139V212.855C642.631 213.827 641.299 214.151 639.571 214.151C637.483 214.151 635.899 213.359 635.431 211.415ZM638.023 205.943C639.391 205.943 640.219 206.879 640.363 208.247H635.503C635.899 206.771 636.799 205.943 638.023 205.943ZM647.662 202.019V218.219H653.314V208.427C653.602 207.311 654.538 206.663 655.654 206.663C657.094 206.663 657.778 207.635 657.778 208.967V218.219H663.394V207.599C663.394 203.999 661.27 201.659 657.67 201.659C655.798 201.659 654.214 202.415 653.314 203.423V202.019H647.662ZM673.818 218.219V206.411H676.986V202.019H673.818V197.555H668.202V202.019H665.394V206.411H668.202V218.219H673.818ZM685.105 197.627C685.105 195.755 683.629 194.567 681.901 194.567C680.173 194.567 678.697 195.755 678.697 197.627C678.697 199.463 680.173 200.651 681.901 200.651C683.629 200.651 685.105 199.463 685.105 197.627ZM684.709 218.219V202.019H679.057V218.219H684.709ZM695.264 218.219V206.411H698.432V202.019H695.264V197.555H689.648V202.019H686.84V206.411H689.648V218.219H695.264ZM702.914 223.943H708.494L716.846 202.019H711.23L708.206 211.235L705.11 202.019H699.242L705.29 217.823L702.914 223.943ZM735.284 200.327C737.12 200.327 738.776 201.227 740 202.271V197.339C738.848 196.403 736.832 195.755 734.852 195.755C730.496 195.755 727.508 198.203 727.508 202.055C727.508 203.459 727.868 204.611 728.696 205.835C726.644 207.023 725.24 209.147 725.24 211.559C725.24 215.915 728.372 218.579 733.088 218.579C735.032 218.579 736.904 218.003 738.56 216.959L739.712 218.219H746.048L742.052 213.611C743.456 211.631 744.284 209.183 744.32 206.519H739.352C739.316 207.743 739.1 208.859 738.776 209.795L734.528 204.863C733.772 203.999 733.016 203.171 733.016 202.127C733.016 201.047 733.844 200.327 735.284 200.327ZM733.16 214.223C731.396 214.223 730.424 213.071 730.424 211.559C730.424 210.551 730.892 209.687 731.576 209.219L735.572 213.647C734.816 214.007 733.988 214.223 733.16 214.223ZM767.992 196.115H762.088L753.664 218.219H759.388L760.936 213.935H768.964L770.548 218.219H776.416L767.992 196.115ZM762.7 209.183L764.968 202.955L767.236 209.183H762.7ZM776.666 210.119C776.666 215.339 780.266 218.579 785.126 218.579C786.782 218.579 788.33 218.255 789.482 217.427V212.675C788.438 213.431 787.322 213.827 785.99 213.827C783.902 213.827 782.246 212.567 782.246 210.119C782.246 207.671 783.902 206.411 785.99 206.411C787.322 206.411 788.438 206.807 789.482 207.563V202.811C788.33 201.983 786.782 201.659 785.126 201.659C780.266 201.659 776.666 204.899 776.666 210.119ZM791.08 210.119C791.08 215.339 794.68 218.579 799.54 218.579C801.196 218.579 802.744 218.255 803.896 217.427V212.675C802.852 213.431 801.736 213.827 800.404 213.827C798.316 213.827 796.66 212.567 796.66 210.119C796.66 207.671 798.316 206.411 800.404 206.411C801.736 206.411 802.852 206.807 803.896 207.563V202.811C802.744 201.983 801.196 201.659 799.54 201.659C794.68 201.659 791.08 204.899 791.08 210.119ZM810.966 211.415H820.938V209.759C820.938 204.935 818.382 201.659 813.342 201.659C808.878 201.659 805.494 205.151 805.494 210.227C805.494 215.447 809.022 218.579 814.206 218.579C816.546 218.579 818.526 218.075 819.786 217.139V212.855C818.166 213.827 816.834 214.151 815.106 214.151C813.018 214.151 811.434 213.359 810.966 211.415ZM813.558 205.943C814.926 205.943 815.754 206.879 815.898 208.247H811.038C811.434 206.771 812.334 205.943 813.558 205.943ZM822.657 212.279V217.031C824.169 218.039 826.545 218.579 828.813 218.579C832.809 218.579 835.797 216.887 835.797 213.431C835.797 210.695 834.393 209.255 830.865 208.319L829.389 207.887C828.597 207.671 828.129 207.455 828.129 206.843C828.129 206.195 828.777 205.871 829.749 205.871C831.585 205.871 833.313 206.627 834.861 207.743V203.099C833.277 202.127 831.513 201.659 829.209 201.659C825.393 201.659 822.585 203.567 822.585 206.951C822.585 209.867 824.493 211.271 827.481 211.919L828.741 212.243C829.713 212.459 830.217 212.711 830.217 213.359C830.217 214.079 829.497 214.331 828.381 214.331C826.725 214.331 824.205 213.539 822.657 212.279ZM837.457 212.279V217.031C838.969 218.039 841.345 218.579 843.613 218.579C847.609 218.579 850.597 216.887 850.597 213.431C850.597 210.695 849.193 209.255 845.665 208.319L844.189 207.887C843.397 207.671 842.929 207.455 842.929 206.843C842.929 206.195 843.577 205.871 844.549 205.871C846.385 205.871 848.113 206.627 849.661 207.743V203.099C848.077 202.127 846.313 201.659 844.009 201.659C840.193 201.659 837.385 203.567 837.385 206.951C837.385 209.867 839.293 211.271 842.281 211.919L843.541 212.243C844.513 212.459 845.017 212.711 845.017 213.359C845.017 214.079 844.297 214.331 843.181 214.331C841.525 214.331 839.005 213.539 837.457 212.279Z" fill="black"/>
<path d="M602.052 252.293V254.163C602.976 254.889 604.472 255.417 606.298 255.417C608.916 255.417 610.852 254.031 610.852 251.721C610.852 249.851 609.928 248.773 607.86 247.981L605.726 247.145C604.472 246.661 603.702 246.177 603.702 245.033C603.702 243.691 604.868 243.031 606.364 243.031C607.926 243.031 609.136 243.581 610.214 244.439V242.613C609.202 241.909 607.816 241.513 606.342 241.513C604.01 241.513 602.008 242.723 602.008 245.055C602.008 247.189 603.46 248.091 605.044 248.707L607.024 249.477C608.454 250.071 609.18 250.555 609.18 251.743C609.18 253.129 608.036 253.877 606.298 253.877C604.714 253.877 603.306 253.371 602.052 252.293ZM614.248 250.621H620.98V250.027C620.98 247.167 619.616 245.253 616.976 245.253C614.38 245.253 612.62 247.387 612.62 250.423C612.62 253.503 614.512 255.417 617.328 255.417C618.494 255.417 619.506 255.175 620.298 254.559V253.041C619.418 253.701 618.626 253.965 617.526 253.965C615.744 253.965 614.314 252.887 614.248 250.621ZM616.998 246.661C618.582 246.661 619.308 247.893 619.374 249.323H614.336C614.644 247.519 615.7 246.661 616.998 246.661ZM622.524 250.335C622.524 253.459 624.592 255.417 627.232 255.417C628.178 255.417 629.168 255.197 629.85 254.603V252.931C629.146 253.635 628.288 253.943 627.342 253.943C625.604 253.943 624.196 252.579 624.196 250.335C624.196 248.091 625.604 246.727 627.342 246.727C628.288 246.727 629.146 247.035 629.85 247.739V246.067C629.168 245.473 628.178 245.253 627.232 245.253C624.592 245.253 622.524 247.211 622.524 250.335ZM639.932 255.219V245.451H638.26V252.073C637.908 253.129 636.962 253.899 635.818 253.899C634.344 253.899 633.684 252.953 633.684 251.589V245.451H632.012V251.853C632.012 253.987 633.2 255.417 635.422 255.417C636.676 255.417 637.71 254.757 638.26 253.987V255.219H639.932ZM647.881 247.101V245.407C647.705 245.319 647.353 245.253 646.935 245.253C645.857 245.253 644.933 245.891 644.515 246.727V245.451H642.865V255.219H644.515V248.663C644.845 247.519 645.747 246.837 646.781 246.837C647.199 246.837 647.617 246.925 647.881 247.101ZM650.578 250.621H657.31V250.027C657.31 247.167 655.946 245.253 653.306 245.253C650.71 245.253 648.95 247.387 648.95 250.423C648.95 253.503 650.842 255.417 653.658 255.417C654.824 255.417 655.836 255.175 656.628 254.559V253.041C655.748 253.701 654.956 253.965 653.856 253.965C652.074 253.965 650.644 252.887 650.578 250.621ZM653.328 246.661C654.912 246.661 655.638 247.893 655.704 249.323H650.666C650.974 247.519 652.03 246.661 653.328 246.661ZM661.208 255.219V240.919H659.558V255.219H661.208ZM665.41 258.959H667.038L672.296 245.451H670.58L667.742 253.151L664.86 245.451H663.078L666.884 255.285L665.41 258.959ZM685.953 246.815C685.491 245.891 684.545 245.253 683.313 245.253C682.103 245.253 681.157 245.825 680.673 246.595V245.451H679.023V255.219H680.673V248.487C680.981 247.431 681.839 246.749 682.829 246.749C684.083 246.749 684.677 247.651 684.677 249.015V255.219H686.327V248.487C686.635 247.431 687.493 246.749 688.483 246.749C689.737 246.749 690.331 247.651 690.331 249.015V255.219H692.003V248.751C692.003 246.639 690.903 245.253 688.923 245.253C687.559 245.253 686.569 245.935 685.953 246.815ZM700.226 248.729V250.005C699.808 249.631 698.796 249.213 697.784 249.213C695.694 249.213 694.066 250.445 694.066 252.271C694.066 254.207 695.694 255.395 697.696 255.395C698.84 255.395 699.852 254.889 700.226 254.493V255.219H701.832V248.597C701.832 246.529 700.468 245.253 698.158 245.253C696.948 245.253 695.782 245.605 695.122 246.067V247.629C695.936 247.101 696.816 246.771 697.894 246.771C699.324 246.771 700.226 247.519 700.226 248.729ZM700.226 251.787V252.799C699.962 253.525 698.994 254.009 697.96 254.009C696.772 254.009 695.628 253.459 695.628 252.271C695.628 251.105 696.772 250.577 697.96 250.577C698.994 250.577 699.962 251.061 700.226 251.787ZM704.654 245.451V255.219H706.304V248.597C706.656 247.541 707.646 246.771 708.79 246.771C710.264 246.771 710.946 247.717 710.946 249.081V255.219H712.618V248.817C712.618 246.683 711.408 245.253 709.186 245.253C707.932 245.253 706.876 245.913 706.304 246.683V245.451H704.654ZM720.851 248.729V250.005C720.433 249.631 719.421 249.213 718.409 249.213C716.319 249.213 714.691 250.445 714.691 252.271C714.691 254.207 716.319 255.395 718.321 255.395C719.465 255.395 720.477 254.889 720.851 254.493V255.219H722.457V248.597C722.457 246.529 721.093 245.253 718.783 245.253C717.573 245.253 716.407 245.605 715.747 246.067V247.629C716.561 247.101 717.441 246.771 718.519 246.771C719.949 246.771 720.851 247.519 720.851 248.729ZM720.851 251.787V252.799C720.587 253.525 719.619 254.009 718.585 254.009C717.397 254.009 716.253 253.459 716.253 252.271C716.253 251.105 717.397 250.577 718.585 250.577C719.619 250.577 720.587 251.061 720.851 251.787ZM731.659 253.921V254.559C731.659 256.649 730.295 257.683 728.557 257.683C727.413 257.683 726.379 257.375 725.411 256.473V258.299C726.159 258.827 727.303 259.179 728.557 259.179C730.889 259.179 733.331 257.859 733.331 254.449V245.451H731.659V246.551C731.175 245.869 730.141 245.253 728.931 245.253C726.071 245.253 724.575 247.629 724.575 250.247C724.575 252.865 726.071 255.241 728.931 255.241C730.141 255.241 731.175 254.603 731.659 253.921ZM731.659 248.245V252.227C731.153 253.151 730.229 253.745 729.173 253.745C727.325 253.745 726.247 252.271 726.247 250.247C726.247 248.201 727.325 246.727 729.173 246.727C730.229 246.727 731.153 247.321 731.659 248.245ZM737.181 250.621H743.913V250.027C743.913 247.167 742.549 245.253 739.909 245.253C737.313 245.253 735.553 247.387 735.553 250.423C735.553 253.503 737.445 255.417 740.261 255.417C741.427 255.417 742.439 255.175 743.231 254.559V253.041C742.351 253.701 741.559 253.965 740.459 253.965C738.677 253.965 737.247 252.887 737.181 250.621ZM739.931 246.661C741.515 246.661 742.241 247.893 742.307 249.323H737.269C737.577 247.519 738.633 246.661 739.931 246.661ZM758.805 255.219V245.451H757.133V252.073C756.781 253.129 755.835 253.899 754.691 253.899C753.217 253.899 752.557 252.953 752.557 251.589V245.451H750.885V251.853C750.885 253.987 752.073 255.417 754.295 255.417C755.549 255.417 756.583 254.757 757.133 253.987V255.219H758.805ZM761.166 252.689V254.449C761.892 255.021 763.102 255.417 764.378 255.417C766.424 255.417 768.03 254.383 768.03 252.579C768.03 251.193 767.216 250.335 765.742 249.829L764.246 249.323C763.322 248.993 762.794 248.729 762.794 247.937C762.794 247.101 763.63 246.661 764.642 246.661C765.83 246.661 766.732 247.145 767.546 247.827V246.111C766.754 245.561 765.742 245.253 764.642 245.253C762.706 245.253 761.188 246.287 761.188 248.003C761.188 249.587 762.178 250.291 763.652 250.775L764.994 251.237C765.852 251.523 766.402 251.919 766.402 252.645C766.402 253.613 765.456 254.009 764.378 254.009C763.19 254.009 762.068 253.525 761.166 252.689ZM771.298 250.621H778.03V250.027C778.03 247.167 776.666 245.253 774.026 245.253C771.43 245.253 769.67 247.387 769.67 250.423C769.67 253.503 771.562 255.417 774.378 255.417C775.544 255.417 776.556 255.175 777.348 254.559V253.041C776.468 253.701 775.676 253.965 774.576 253.965C772.794 253.965 771.364 252.887 771.298 250.621ZM774.048 246.661C775.632 246.661 776.358 247.893 776.424 249.323H771.386C771.694 247.519 772.75 246.661 774.048 246.661ZM785.295 247.101V245.407C785.119 245.319 784.767 245.253 784.349 245.253C783.271 245.253 782.347 245.891 781.929 246.727V245.451H780.279V255.219H781.929V248.663C782.259 247.519 783.161 246.837 784.195 246.837C784.613 246.837 785.031 246.925 785.295 247.101ZM786.711 252.689V254.449C787.437 255.021 788.647 255.417 789.923 255.417C791.969 255.417 793.575 254.383 793.575 252.579C793.575 251.193 792.761 250.335 791.287 249.829L789.791 249.323C788.867 248.993 788.339 248.729 788.339 247.937C788.339 247.101 789.175 246.661 790.187 246.661C791.375 246.661 792.277 247.145 793.091 247.827V246.111C792.299 245.561 791.287 245.253 790.187 245.253C788.251 245.253 786.733 246.287 786.733 248.003C786.733 249.587 787.723 250.291 789.197 250.775L790.539 251.237C791.397 251.523 791.947 251.919 791.947 252.645C791.947 253.613 791.001 254.009 789.923 254.009C788.735 254.009 787.613 253.525 786.711 252.689ZM806.209 248.729V250.005C805.791 249.631 804.779 249.213 803.767 249.213C801.677 249.213 800.049 250.445 800.049 252.271C800.049 254.207 801.677 255.395 803.679 255.395C804.823 255.395 805.835 254.889 806.209 254.493V255.219H807.815V248.597C807.815 246.529 806.451 245.253 804.141 245.253C802.931 245.253 801.765 245.605 801.105 246.067V247.629C801.919 247.101 802.799 246.771 803.877 246.771C805.307 246.771 806.209 247.519 806.209 248.729ZM806.209 251.787V252.799C805.945 253.525 804.977 254.009 803.943 254.009C802.755 254.009 801.611 253.459 801.611 252.271C801.611 251.105 802.755 250.577 803.943 250.577C804.977 250.577 805.945 251.061 806.209 251.787ZM810.636 245.451V255.219H812.286V248.597C812.638 247.541 813.628 246.771 814.772 246.771C816.246 246.771 816.928 247.717 816.928 249.081V255.219H818.6V248.817C818.6 246.683 817.39 245.253 815.168 245.253C813.914 245.253 812.858 245.913 812.286 246.683V245.451H810.636ZM827.846 254.075V255.219H829.518V240.919H827.846V246.595C827.362 245.891 826.306 245.253 825.096 245.253C822.236 245.253 820.696 247.585 820.696 250.335C820.696 253.107 822.236 255.417 825.096 255.417C826.306 255.417 827.362 254.779 827.846 254.075ZM827.846 248.355V252.315C827.34 253.327 826.372 253.921 825.338 253.921C823.468 253.921 822.368 252.403 822.368 250.335C822.368 248.267 823.468 246.749 825.338 246.749C826.372 246.749 827.34 247.343 827.846 248.355ZM842.732 248.729V250.005C842.314 249.631 841.302 249.213 840.29 249.213C838.2 249.213 836.572 250.445 836.572 252.271C836.572 254.207 838.2 255.395 840.202 255.395C841.346 255.395 842.358 254.889 842.732 254.493V255.219H844.338V248.597C844.338 246.529 842.974 245.253 840.664 245.253C839.454 245.253 838.288 245.605 837.628 246.067V247.629C838.442 247.101 839.322 246.771 840.4 246.771C841.83 246.771 842.732 247.519 842.732 248.729ZM842.732 251.787V252.799C842.468 253.525 841.5 254.009 840.466 254.009C839.278 254.009 838.134 253.459 838.134 252.271C838.134 251.105 839.278 250.577 840.466 250.577C841.5 250.577 842.468 251.061 842.732 251.787ZM846.456 250.335C846.456 253.459 848.524 255.417 851.164 255.417C852.11 255.417 853.1 255.197 853.782 254.603V252.931C853.078 253.635 852.22 253.943 851.274 253.943C849.536 253.943 848.128 252.579 848.128 250.335C848.128 248.091 849.536 246.727 851.274 246.727C852.22 246.727 853.078 247.035 853.782 247.739V246.067C853.1 245.473 852.11 245.253 851.164 245.253C848.524 245.253 846.456 247.211 846.456 250.335ZM855.372 250.335C855.372 253.459 857.44 255.417 860.08 255.417C861.026 255.417 862.016 255.197 862.698 254.603V252.931C861.994 253.635 861.136 253.943 860.19 253.943C858.452 253.943 857.044 252.579 857.044 250.335C857.044 248.091 858.452 246.727 860.19 246.727C861.136 246.727 861.994 247.035 862.698 247.739V246.067C862.016 245.473 861.026 245.253 860.08 245.253C857.44 245.253 855.372 247.211 855.372 250.335ZM865.916 250.621H872.648V250.027C872.648 247.167 871.284 245.253 868.644 245.253C866.048 245.253 864.288 247.387 864.288 250.423C864.288 253.503 866.18 255.417 868.996 255.417C870.162 255.417 871.174 255.175 871.966 254.559V253.041C871.086 253.701 870.294 253.965 869.194 253.965C867.412 253.965 865.982 252.887 865.916 250.621ZM868.666 246.661C870.25 246.661 870.976 247.893 871.042 249.323H866.004C866.312 247.519 867.368 246.661 868.666 246.661ZM874.41 252.689V254.449C875.136 255.021 876.346 255.417 877.622 255.417C879.668 255.417 881.274 254.383 881.274 252.579C881.274 251.193 880.46 250.335 878.986 249.829L877.49 249.323C876.566 248.993 876.038 248.729 876.038 247.937C876.038 247.101 876.874 246.661 877.886 246.661C879.074 246.661 879.976 247.145 880.79 247.827V246.111C879.998 245.561 878.986 245.253 877.886 245.253C875.95 245.253 874.432 246.287 874.432 248.003C874.432 249.587 875.422 250.291 876.896 250.775L878.238 251.237C879.096 251.523 879.646 251.919 879.646 252.645C879.646 253.613 878.7 254.009 877.622 254.009C876.434 254.009 875.312 253.525 874.41 252.689ZM883.047 252.689V254.449C883.773 255.021 884.983 255.417 886.259 255.417C888.305 255.417 889.911 254.383 889.911 252.579C889.911 251.193 889.097 250.335 887.623 249.829L886.127 249.323C885.203 248.993 884.675 248.729 884.675 247.937C884.675 247.101 885.511 246.661 886.523 246.661C887.711 246.661 888.613 247.145 889.427 247.827V246.111C888.635 245.561 887.623 245.253 886.523 245.253C884.587 245.253 883.069 246.287 883.069 248.003C883.069 249.587 884.059 250.291 885.533 250.775L886.875 251.237C887.733 251.523 888.283 251.919 888.283 252.645C888.283 253.613 887.337 254.009 886.259 254.009C885.071 254.009 883.949 253.525 883.047 252.689ZM899.839 255.219V246.859H902.105V245.451H899.839V242.877H898.189V245.451H896.143V246.859H898.189V255.219H899.839ZM912.215 250.335C912.215 247.343 910.389 245.253 907.727 245.253C905.043 245.253 903.239 247.343 903.239 250.335C903.239 253.327 905.043 255.417 907.727 255.417C910.389 255.417 912.215 253.327 912.215 250.335ZM910.543 250.335C910.543 252.469 909.487 253.965 907.727 253.965C905.967 253.965 904.911 252.469 904.911 250.335C904.911 248.201 905.967 246.705 907.727 246.705C909.487 246.705 910.543 248.201 910.543 250.335ZM924.32 247.101V245.407C924.144 245.319 923.792 245.253 923.374 245.253C922.296 245.253 921.372 245.891 920.954 246.727V245.451H919.304V255.219H920.954V248.663C921.284 247.519 922.186 246.837 923.22 246.837C923.638 246.837 924.056 246.925 924.32 247.101ZM927.017 250.621H933.749V250.027C933.749 247.167 932.385 245.253 929.745 245.253C927.149 245.253 925.389 247.387 925.389 250.423C925.389 253.503 927.281 255.417 930.097 255.417C931.263 255.417 932.275 255.175 933.067 254.559V253.041C932.187 253.701 931.395 253.965 930.295 253.965C928.513 253.965 927.083 252.887 927.017 250.621ZM929.767 246.661C931.351 246.661 932.077 247.893 932.143 249.323H927.105C927.413 247.519 928.469 246.661 929.767 246.661ZM935.511 252.689V254.449C936.237 255.021 937.447 255.417 938.723 255.417C940.769 255.417 942.375 254.383 942.375 252.579C942.375 251.193 941.561 250.335 940.087 249.829L938.591 249.323C937.667 248.993 937.139 248.729 937.139 247.937C937.139 247.101 937.975 246.661 938.987 246.661C940.175 246.661 941.077 247.145 941.891 247.827V246.111C941.099 245.561 940.087 245.253 938.987 245.253C937.051 245.253 935.533 246.287 935.533 248.003C935.533 249.587 936.523 250.291 937.997 250.775L939.339 251.237C940.197 251.523 940.747 251.919 940.747 252.645C940.747 253.613 939.801 254.009 938.723 254.009C937.535 254.009 936.413 253.525 935.511 252.689ZM952.992 250.335C952.992 247.343 951.166 245.253 948.504 245.253C945.82 245.253 944.016 247.343 944.016 250.335C944.016 253.327 945.82 255.417 948.504 255.417C951.166 255.417 952.992 253.327 952.992 250.335ZM951.32 250.335C951.32 252.469 950.264 253.965 948.504 253.965C946.744 253.965 945.688 252.469 945.688 250.335C945.688 248.201 946.744 246.705 948.504 246.705C950.264 246.705 951.32 248.201 951.32 250.335ZM963.014 255.219V245.451H961.342V252.073C960.99 253.129 960.044 253.899 958.9 253.899C957.426 253.899 956.766 252.953 956.766 251.589V245.451H955.094V251.853C955.094 253.987 956.282 255.417 958.504 255.417C959.758 255.417 960.792 254.757 961.342 253.987V255.219H963.014ZM970.963 247.101V245.407C970.787 245.319 970.435 245.253 970.017 245.253C968.939 245.253 968.015 245.891 967.597 246.727V245.451H965.947V255.219H967.597V248.663C967.927 247.519 968.829 246.837 969.863 246.837C970.281 246.837 970.699 246.925 970.963 247.101ZM972.032 250.335C972.032 253.459 974.1 255.417 976.74 255.417C977.686 255.417 978.676 255.197 979.358 254.603V252.931C978.654 253.635 977.796 253.943 976.85 253.943C975.112 253.943 973.704 252.579 973.704 250.335C973.704 248.091 975.112 246.727 976.85 246.727C977.796 246.727 978.654 247.035 979.358 247.739V246.067C978.676 245.473 977.686 245.253 976.74 245.253C974.1 245.253 972.032 247.211 972.032 250.335ZM982.576 250.621H989.308V250.027C989.308 247.167 987.944 245.253 985.304 245.253C982.708 245.253 980.948 247.387 980.948 250.423C980.948 253.503 982.84 255.417 985.656 255.417C986.822 255.417 987.834 255.175 988.626 254.559V253.041C987.746 253.701 986.954 253.965 985.854 253.965C984.072 253.965 982.642 252.887 982.576 250.621ZM985.326 246.661C986.91 246.661 987.636 247.893 987.702 249.323H982.664C982.972 247.519 984.028 246.661 985.326 246.661ZM991.07 252.689V254.449C991.796 255.021 993.006 255.417 994.282 255.417C996.328 255.417 997.934 254.383 997.934 252.579C997.934 251.193 997.12 250.335 995.646 249.829L994.15 249.323C993.226 248.993 992.698 248.729 992.698 247.937C992.698 247.101 993.534 246.661 994.546 246.661C995.734 246.661 996.636 247.145 997.45 247.827V246.111C996.658 245.561 995.646 245.253 994.546 245.253C992.61 245.253 991.092 246.287 991.092 248.003C991.092 249.587 992.082 250.291 993.556 250.775L994.898 251.237C995.756 251.523 996.306 251.919 996.306 252.645C996.306 253.613 995.36 254.009 994.282 254.009C993.094 254.009 991.972 253.525 991.07 252.689ZM999.509 254.141C999.509 254.823 1000.04 255.329 1000.7 255.329C1001.33 255.329 1001.86 254.823 1001.86 254.141C1001.86 253.459 1001.33 252.931 1000.7 252.931C1000.04 252.931 999.509 253.459 999.509 254.141Z" fill="#444444"/>
<path d="M612.341 334.127H612.465L617.332 327.307V338.219H622.23V319.185H617.642L612.403 326.935L607.195 319.185H602.576V338.219H607.443V327.307L612.341 334.127ZM632.603 329.818V330.314C632.045 329.911 630.743 329.539 629.565 329.539C626.558 329.539 624.202 331.275 624.202 333.972C624.202 336.917 626.558 338.467 629.317 338.467C630.805 338.467 632.138 337.971 632.603 337.506V338.219H637.284V329.601C637.284 325.912 634.928 323.959 630.805 323.959C628.821 323.959 626.961 324.424 625.814 325.044V328.95C626.93 328.299 628.294 327.958 629.627 327.958C631.611 327.958 632.603 328.733 632.603 329.818ZM632.603 333.507V334.313C632.293 334.871 631.518 335.243 630.65 335.243C629.689 335.243 628.728 334.84 628.728 333.879C628.728 332.949 629.689 332.546 630.65 332.546C631.518 332.546 632.293 332.918 632.603 333.507ZM639.78 324.269V338.219H644.647V329.787C644.895 328.826 645.701 328.268 646.662 328.268C647.902 328.268 648.491 329.105 648.491 330.252V338.219H653.327V329.074C653.327 325.974 651.498 323.959 648.398 323.959C646.786 323.959 645.422 324.61 644.647 325.478V324.269H639.78ZM663.512 329.818V330.314C662.954 329.911 661.652 329.539 660.474 329.539C657.467 329.539 655.111 331.275 655.111 333.972C655.111 336.917 657.467 338.467 660.226 338.467C661.714 338.467 663.047 337.971 663.512 337.506V338.219H668.193V329.601C668.193 325.912 665.837 323.959 661.714 323.959C659.73 323.959 657.87 324.424 656.723 325.044V328.95C657.839 328.299 659.203 327.958 660.536 327.958C662.52 327.958 663.512 328.733 663.512 329.818ZM663.512 333.507V334.313C663.202 334.871 662.427 335.243 661.559 335.243C660.598 335.243 659.637 334.84 659.637 333.879C659.637 332.949 660.598 332.546 661.559 332.546C662.427 332.546 663.202 332.918 663.512 333.507ZM679.4 336.328V336.793C679.4 338.746 677.788 339.521 675.928 339.521C674.006 339.521 672.487 339.025 671.061 337.816V342.28C672.177 342.993 674.13 343.458 676.083 343.458C680.547 343.458 684.205 341.35 684.205 336.204V324.269H679.4V325.323C678.78 324.579 677.633 323.959 676.114 323.959C672.177 323.959 669.945 326.966 669.945 330.81C669.945 334.654 672.177 337.692 676.114 337.692C677.633 337.692 678.78 337.041 679.4 336.328ZM679.4 328.981V332.67C679.028 333.29 678.253 333.817 677.323 333.817C675.711 333.817 674.75 332.577 674.75 330.81C674.75 329.043 675.711 327.803 677.323 327.803C678.253 327.803 679.028 328.361 679.4 328.981ZM690.823 332.36H699.41V330.934C699.41 326.78 697.209 323.959 692.869 323.959C689.025 323.959 686.111 326.966 686.111 331.337C686.111 335.832 689.149 338.529 693.613 338.529C695.628 338.529 697.333 338.095 698.418 337.289V333.6C697.023 334.437 695.876 334.716 694.388 334.716C692.59 334.716 691.226 334.034 690.823 332.36ZM693.055 327.648C694.233 327.648 694.946 328.454 695.07 329.632H690.885C691.226 328.361 692.001 327.648 693.055 327.648Z" fill="black"/>
</g>
<path d="M244 178.87L577 178.87M577 178.87L567.798 187.057M577 178.87L567.798 170.252" stroke="#7630EA" stroke-width="2"/>
<path d="M592.142 20.2519C592.142 31.1707 583.482 40.0038 572.821 40.0038C562.16 40.0038 553.5 31.1707 553.5 20.2519C553.5 9.33303 562.16 0.5 572.821 0.5C583.482 0.5 592.142 9.33303 592.142 20.2519Z" fill="white" stroke="#999999"/>
<path d="M577.494 25.964H573.468L574.788 24.16C575.954 22.532 576.944 21.058 576.944 19.342C576.944 16.9 575.228 15.272 572.544 15.272C570.586 15.272 568.936 15.976 567.902 16.834V20.222C568.76 19.518 570.234 18.572 571.62 18.572C572.698 18.572 573.292 19.144 573.292 20.046C573.292 21.19 572.654 22.026 571.444 23.632L567.484 28.912V29H577.494V25.964ZM578.848 27.086C578.848 28.252 579.75 29.154 580.872 29.154C582.016 29.154 582.918 28.252 582.918 27.086C582.918 25.92 582.016 25.04 580.872 25.04C579.75 25.04 578.848 25.92 578.848 27.086Z" fill="black"/>
<path d="M39.142 20.2519C39.142 31.1707 30.4816 40.0038 19.821 40.0038C9.16039 40.0038 0.5 31.1707 0.5 20.2519C0.5 9.33303 9.16039 0.5 19.821 0.5C30.4816 0.5 39.142 9.33303 39.142 20.2519Z" fill="white" stroke="#999999"/>
<path d="M15.21 23.964V27H24.67V23.964H21.898V13.492H19.544L15.32 15.516V18.882L18.488 17.32V23.964H15.21ZM25.8477 25.086C25.8477 26.252 26.7497 27.154 27.8717 27.154C29.0157 27.154 29.9177 26.252 29.9177 25.086C29.9177 23.92 29.0157 23.04 27.8717 23.04C26.7497 23.04 25.8477 23.92 25.8477 25.086Z" fill="black"/>
<path d="M19 40V66" stroke="#999999"/>
<path d="M573 40V66" stroke="#999999"/>
<defs>
<filter id="filter0_d_2920_18612" x="40.1948" y="306.219" width="372" height="146" filterUnits="userSpaceOnUse" color-interpolation-filters="sRGB">
<feFlood flood-opacity="0" result="BackgroundImageFix"/>
<feColorMatrix in="SourceAlpha" type="matrix" values="0 0 0 0 0 0 0 0 0 0 0 0 0 0 0 0 0 0 127 0" result="hardAlpha"/>
<feOffset dy="6"/>
<feGaussianBlur stdDeviation="6"/>
<feColorMatrix type="matrix" values="0 0 0 0 0 0 0 0 0 0 0 0 0 0 0 0 0 0 0.12 0"/>
<feBlend mode="normal" in2="BackgroundImageFix" result="effect1_dropShadow_2920_18612"/>
<feBlend mode="normal" in="SourceGraphic" in2="effect1_dropShadow_2920_18612" result="shape"/>
</filter>
<filter id="filter1_d_2920_18612" x="412.195" y="306.219" width="372" height="146" filterUnits="userSpaceOnUse" color-interpolation-filters="sRGB">
<feFlood flood-opacity="0" result="BackgroundImageFix"/>
<feColorMatrix in="SourceAlpha" type="matrix" values="0 0 0 0 0 0 0 0 0 0 0 0 0 0 0 0 0 0 127 0" result="hardAlpha"/>
<feOffset dy="6"/>
<feGaussianBlur stdDeviation="6"/>
<feColorMatrix type="matrix" values="0 0 0 0 0 0 0 0 0 0 0 0 0 0 0 0 0 0 0.12 0"/>
<feBlend mode="normal" in2="BackgroundImageFix" result="effect1_dropShadow_2920_18612"/>
<feBlend mode="normal" in="SourceGraphic" in2="effect1_dropShadow_2920_18612" result="shape"/>
</filter>
<clipPath id="clip0_2920_18612">
<rect width="522.24" height="296.453" fill="white" transform="translate(4.19482 66.2191)"/>
</clipPath>
<clipPath id="clip1_2920_18612">
<rect width="24" height="24" fill="white" transform="translate(340.195 361.219)"/>
</clipPath>
<clipPath id="clip2_2920_18612">
<rect width="522.24" height="296.453" fill="white" transform="translate(553.15 66.2191)"/>
</clipPath>
</defs>
</svg>
