<svg width="336" height="192" viewBox="0 0 336 192" fill="none" xmlns="http://www.w3.org/2000/svg">
<path d="M109.849 43H35.8463C34.2743 43 33 44.2743 33 45.8463V84.745C33 86.3169 34.2743 87.5913 35.8463 87.5913H109.849C111.421 87.5913 112.695 86.3169 112.695 84.745V45.8463C112.695 44.2743 111.421 43 109.849 43Z" fill="#01A982"/>
<path d="M204.724 43.9492H130.721C129.149 43.9492 127.875 45.2235 127.875 46.7955V85.6942C127.875 87.2662 129.149 88.5405 130.721 88.5405H204.724C206.296 88.5405 207.57 87.2662 207.57 85.6942V46.7955C207.57 45.2235 206.296 43.9492 204.724 43.9492Z" fill="#01A982"/>
<path d="M299.599 43H225.596C224.024 43 222.75 44.2743 222.75 45.8463V84.745C222.75 86.3169 224.024 87.5913 225.596 87.5913H299.599C301.171 87.5913 302.445 86.3169 302.445 84.745V45.8463C302.445 44.2743 301.171 43 299.599 43Z" fill="#01A982"/>
<path d="M204.724 104.67H130.721C129.149 104.67 127.875 105.944 127.875 107.516V146.415C127.875 147.987 129.149 149.261 130.721 149.261H204.724C206.296 149.261 207.57 147.987 207.57 146.415V107.516C207.57 105.944 206.296 104.67 204.724 104.67Z" fill="#B1B9BE"/>
<path d="M299.599 104.67H225.596C224.024 104.67 222.75 105.944 222.75 107.516V146.415C222.75 147.987 224.024 149.261 225.596 149.261H299.599C301.171 149.261 302.445 147.987 302.445 146.415V107.516C302.445 105.944 301.171 104.67 299.599 104.67Z" fill="#B1B9BE"/>
<path d="M168.5 92C168.5 91.7239 168.276 91.5 168 91.5C167.724 91.5 167.5 91.7239 167.5 92H168H168.5ZM167.646 102.354C167.842 102.549 168.158 102.549 168.354 102.354L171.536 99.1716C171.731 98.9763 171.731 98.6597 171.536 98.4645C171.34 98.2692 171.024 98.2692 170.828 98.4645L168 101.293L165.172 98.4645C164.976 98.2692 164.66 98.2692 164.464 98.4645C164.269 98.6597 164.269 98.9763 164.464 99.1716L167.646 102.354ZM168 92H167.5V102H168H168.5V92H168Z" fill="white" fill-opacity="0.36"/>
<path d="M262.51 102C262.51 102.276 262.734 102.5 263.01 102.5C263.286 102.5 263.51 102.276 263.51 102L263.01 102L262.51 102ZM263.363 91.6464C263.168 91.4512 262.851 91.4512 262.656 91.6464L259.474 94.8284C259.279 95.0237 259.279 95.3403 259.474 95.5355C259.669 95.7308 259.986 95.7308 260.181 95.5355L263.01 92.7071L265.838 95.5355C266.033 95.7308 266.35 95.7308 266.545 95.5355C266.741 95.3403 266.741 95.0237 266.545 94.8284L263.363 91.6464ZM263.01 102L263.51 102L263.51 92L263.01 92L262.51 92L262.51 102L263.01 102Z" fill="#9B84FC"/>
<path d="M210 126.5C209.724 126.5 209.5 126.724 209.5 127C209.5 127.276 209.724 127.5 210 127.5L210 127L210 126.5ZM220.354 127.354C220.549 127.158 220.549 126.842 220.354 126.646L217.172 123.464C216.976 123.269 216.66 123.269 216.464 123.464C216.269 123.66 216.269 123.976 216.464 124.172L219.293 127L216.464 129.828C216.269 130.024 216.269 130.34 216.464 130.536C216.66 130.731 216.976 130.731 217.172 130.536L220.354 127.354ZM210 127L210 127.5L220 127.5L220 127L220 126.5L210 126.5L210 127Z" fill="white" fill-opacity="0.36"/>
</svg>
