<svg width="267" height="167" viewBox="0 0 267 167" fill="none" xmlns="http://www.w3.org/2000/svg">
<g clip-path="url(#clip0_2810_18684)" filter="url(#filter0_d_2810_18684)">
<rect width="243" height="143" transform="translate(12 6)" fill="white"/>
<rect width="1055" height="653" transform="translate(12 6)" fill="white"/>
<path fill-rule="evenodd" clip-rule="evenodd" d="M38 36H82V48H38V36ZM41 39H79V45H41V39Z" fill="#01A982"/>
<path d="M99.68 36.176H97.104V39.904H93.312V36.176H90.736V46H93.312V42.112H97.104V46H99.68V36.176ZM103.686 42.944H105.446C107.574 42.944 109.014 41.744 109.014 39.568C109.014 37.376 107.574 36.176 105.446 36.176H101.142V46H103.686V42.944ZM106.518 39.568C106.518 40.304 106.102 40.8 105.174 40.8H103.686V38.336H105.174C106.102 38.336 106.518 38.816 106.518 39.568ZM117.135 36.176H110.111V46H117.135V43.776H112.639V42.08H116.751V39.92H112.639V38.384H117.135V36.176ZM126.299 43.872C124.811 43.872 123.803 42.784 123.803 41.12C123.803 39.424 124.907 38.384 126.475 38.384C127.675 38.384 128.571 38.736 129.323 39.28V36.784C128.603 36.32 127.563 36.016 126.475 36.016C123.355 36.016 121.227 38.032 121.227 41.12C121.227 44.08 123.147 46.16 126.219 46.16C127.579 46.16 128.843 45.76 129.835 44.848V40.512H126.139V42.56H127.563V43.52C127.243 43.76 126.811 43.872 126.299 43.872ZM135.895 41.184V38.768C135.783 38.704 135.527 38.64 135.207 38.64C134.487 38.64 133.927 38.96 133.575 39.44V38.8H131.063V46H133.575V41.776C133.703 41.264 134.167 40.96 134.855 40.96C135.255 40.96 135.591 41.024 135.895 41.184ZM138.861 42.976H143.293V42.24C143.293 40.096 142.157 38.64 139.917 38.64C137.933 38.64 136.429 40.192 136.429 42.448C136.429 44.768 137.997 46.16 140.301 46.16C141.341 46.16 142.221 45.936 142.781 45.52V43.616C142.061 44.048 141.469 44.192 140.701 44.192C139.773 44.192 139.069 43.84 138.861 42.976ZM140.013 40.544C140.621 40.544 140.989 40.96 141.053 41.568H138.893C139.069 40.912 139.469 40.544 140.013 40.544ZM146.408 42.976H150.84V42.24C150.84 40.096 149.704 38.64 147.464 38.64C145.48 38.64 143.976 40.192 143.976 42.448C143.976 44.768 145.544 46.16 147.848 46.16C148.888 46.16 149.768 45.936 150.328 45.52V43.616C149.608 44.048 149.016 44.192 148.248 44.192C147.32 44.192 146.616 43.84 146.408 42.976ZM147.56 40.544C148.168 40.544 148.536 40.96 148.6 41.568H146.44C146.616 40.912 147.016 40.544 147.56 40.544ZM151.844 38.8V46H154.356V41.648C154.484 41.152 154.9 40.864 155.396 40.864C156.036 40.864 156.34 41.296 156.34 41.888V46H158.836V41.28C158.836 39.68 157.892 38.64 156.292 38.64C155.46 38.64 154.756 38.976 154.356 39.424V38.8H151.844ZM160.205 36.176V46H167.181V43.776H162.781V36.176H160.205ZM172.249 41.664V41.92C171.961 41.712 171.289 41.52 170.681 41.52C169.129 41.52 167.913 42.416 167.913 43.808C167.913 45.328 169.129 46.128 170.553 46.128C171.321 46.128 172.009 45.872 172.249 45.632V46H174.665V41.552C174.665 39.648 173.449 38.64 171.321 38.64C170.297 38.64 169.337 38.88 168.745 39.2V41.216C169.321 40.88 170.025 40.704 170.713 40.704C171.737 40.704 172.249 41.104 172.249 41.664ZM172.249 43.568V43.984C172.089 44.272 171.689 44.464 171.241 44.464C170.745 44.464 170.249 44.256 170.249 43.76C170.249 43.28 170.745 43.072 171.241 43.072C171.689 43.072 172.089 43.264 172.249 43.568ZM183.457 46L180.721 42.128L183.393 38.8H180.513L178.465 41.52V35.6H175.953V46H178.465V42.848L180.641 46H183.457ZM185.892 42.976H190.324V42.24C190.324 40.096 189.188 38.64 186.948 38.64C184.964 38.64 183.46 40.192 183.46 42.448C183.46 44.768 185.028 46.16 187.332 46.16C188.372 46.16 189.252 45.936 189.812 45.52V43.616C189.092 44.048 188.5 44.192 187.732 44.192C186.804 44.192 186.1 43.84 185.892 42.976ZM187.044 40.544C187.652 40.544 188.02 40.96 188.084 41.568H185.924C186.1 40.912 186.5 40.544 187.044 40.544Z" fill="black"/>
<rect x="11.5" y="5.5" width="1056" height="73" stroke="#606B7D"/>
<path fill-rule="evenodd" clip-rule="evenodd" d="M80.4141 120L87.707 112.707L86.2928 111.293L77.5857 120L86.2928 128.707L87.707 127.293L80.4141 120Z" fill="black"/>
<path d="M109.92 124.73L110.802 125.81L112.548 124.406L111.738 123.416C112.638 122.408 113.196 121.04 113.196 119.474C113.196 116.162 110.982 113.768 107.778 113.768C104.592 113.768 102.396 116.162 102.396 119.474C102.396 122.768 104.592 125.18 107.778 125.18C108.534 125.18 109.272 125.018 109.92 124.73ZM110.28 119.474C110.28 120.194 110.172 120.788 109.992 121.274L109.164 120.248L107.418 121.616L108.3 122.714C108.138 122.75 107.958 122.768 107.778 122.768C106.284 122.768 105.312 121.382 105.312 119.474C105.312 117.566 106.284 116.306 107.778 116.306C109.272 116.306 110.28 117.566 110.28 119.474ZM122.116 125V116.9H119.29V121.814C119.146 122.372 118.66 122.714 118.138 122.714C117.418 122.714 117.094 122.228 117.094 121.544V116.9H114.286V122.21C114.286 124.01 115.348 125.18 117.13 125.18C118.048 125.18 118.858 124.802 119.29 124.298V125H122.116ZM125.925 121.598H130.911V120.77C130.911 118.358 129.633 116.72 127.113 116.72C124.881 116.72 123.189 118.466 123.189 121.004C123.189 123.614 124.953 125.18 127.545 125.18C128.715 125.18 129.705 124.928 130.335 124.46V122.318C129.525 122.804 128.859 122.966 127.995 122.966C126.951 122.966 126.159 122.57 125.925 121.598ZM127.221 118.862C127.905 118.862 128.319 119.33 128.391 120.014H125.961C126.159 119.276 126.609 118.862 127.221 118.862ZM139.835 125V116.9H137.009V121.814C136.865 122.372 136.379 122.714 135.857 122.714C135.137 122.714 134.813 122.228 134.813 121.544V116.9H132.005V122.21C132.005 124.01 133.067 125.18 134.849 125.18C135.767 125.18 136.577 124.802 137.009 124.298V125H139.835ZM143.644 121.598H148.63V120.77C148.63 118.358 147.352 116.72 144.832 116.72C142.6 116.72 140.908 118.466 140.908 121.004C140.908 123.614 142.672 125.18 145.264 125.18C146.434 125.18 147.424 124.928 148.054 124.46V122.318C147.244 122.804 146.578 122.966 145.714 122.966C144.67 122.966 143.878 122.57 143.644 121.598ZM144.94 118.862C145.624 118.862 146.038 119.33 146.11 120.014H143.68C143.878 119.276 144.328 118.862 144.94 118.862ZM149.489 122.03V124.406C150.245 124.91 151.433 125.18 152.567 125.18C154.565 125.18 156.059 124.334 156.059 122.606C156.059 121.238 155.357 120.518 153.593 120.05L152.855 119.834C152.459 119.726 152.225 119.618 152.225 119.312C152.225 118.988 152.549 118.826 153.035 118.826C153.953 118.826 154.817 119.204 155.591 119.762V117.44C154.799 116.954 153.917 116.72 152.765 116.72C150.857 116.72 149.453 117.674 149.453 119.366C149.453 120.824 150.407 121.526 151.901 121.85L152.531 122.012C153.017 122.12 153.269 122.246 153.269 122.57C153.269 122.93 152.909 123.056 152.351 123.056C151.523 123.056 150.263 122.66 149.489 122.03Z" fill="black"/>
</g>
<defs>
<filter id="filter0_d_2810_18684" x="0" y="0" width="267" height="167" filterUnits="userSpaceOnUse" color-interpolation-filters="sRGB">
<feFlood flood-opacity="0" result="BackgroundImageFix"/>
<feColorMatrix in="SourceAlpha" type="matrix" values="0 0 0 0 0 0 0 0 0 0 0 0 0 0 0 0 0 0 127 0" result="hardAlpha"/>
<feOffset dy="6"/>
<feGaussianBlur stdDeviation="6"/>
<feColorMatrix type="matrix" values="0 0 0 0 0 0 0 0 0 0 0 0 0 0 0 0 0 0 0.12 0"/>
<feBlend mode="normal" in2="BackgroundImageFix" result="effect1_dropShadow_2810_18684"/>
<feBlend mode="normal" in="SourceGraphic" in2="effect1_dropShadow_2810_18684" result="shape"/>
</filter>
<clipPath id="clip0_2810_18684">
<rect width="243" height="143" fill="white" transform="translate(12 6)"/>
</clipPath>
</defs>
</svg>
