<svg width="1072" height="364" viewBox="0 0 1072 364" fill="none" xmlns="http://www.w3.org/2000/svg">
<g clip-path="url(#clip0_2893_18600)">
<rect width="522.24" height="296.453" transform="translate(0.194824 67.2191)" fill="white"/>
<rect width="1055" height="664" transform="translate(0.194824 67.2191)" fill="white"/>
<path fill-rule="evenodd" clip-rule="evenodd" d="M27 97.2523H71V109.252H27V97.2523ZM30 100.252H68V106.252H30V100.252Z" fill="#01A982"/>
<path d="M88.68 98.4283H86.104V102.156H82.312V98.4283H79.736V108.252H82.312V104.364H86.104V108.252H88.68V98.4283ZM92.6863 105.196H94.4463C96.5743 105.196 98.0143 103.996 98.0143 101.82C98.0143 99.6283 96.5743 98.4283 94.4463 98.4283H90.1423V108.252H92.6863V105.196ZM95.5183 101.82C95.5183 102.556 95.1023 103.052 94.1743 103.052H92.6863V100.588H94.1743C95.1023 100.588 95.5183 101.068 95.5183 101.82ZM106.135 98.4283H99.111V108.252H106.135V106.028H101.639V104.332H105.751V102.172H101.639V100.636H106.135V98.4283ZM115.743 107.154C113.439 107.154 111.963 105.39 111.963 102.726C111.963 100.062 113.565 98.3163 115.869 98.3163C117.075 98.3163 118.119 98.6943 119.055 99.5403V98.0283C118.281 97.4163 117.165 97.0383 115.869 97.0383C112.827 97.0383 110.541 99.2883 110.541 102.726C110.541 106.146 112.629 108.414 115.707 108.414C117.075 108.414 118.533 108 119.595 106.83V102.51H115.851V103.698H118.281V106.308C117.561 106.902 116.751 107.154 115.743 107.154ZM125.855 101.61V100.224C125.711 100.152 125.423 100.098 125.081 100.098C124.199 100.098 123.443 100.62 123.101 101.304V100.26H121.751V108.252H123.101V102.888C123.371 101.952 124.109 101.394 124.955 101.394C125.297 101.394 125.639 101.466 125.855 101.61ZM128.062 104.49H133.57V104.004C133.57 101.664 132.454 100.098 130.294 100.098C128.17 100.098 126.73 101.844 126.73 104.328C126.73 106.848 128.278 108.414 130.582 108.414C131.536 108.414 132.364 108.216 133.012 107.712V106.47C132.292 107.01 131.644 107.226 130.744 107.226C129.286 107.226 128.116 106.344 128.062 104.49ZM130.312 101.25C131.608 101.25 132.202 102.258 132.256 103.428H128.134C128.386 101.952 129.25 101.25 130.312 101.25ZM136.165 104.49H141.673V104.004C141.673 101.664 140.557 100.098 138.397 100.098C136.273 100.098 134.833 101.844 134.833 104.328C134.833 106.848 136.381 108.414 138.685 108.414C139.639 108.414 140.467 108.216 141.115 107.712V106.47C140.395 107.01 139.747 107.226 138.847 107.226C137.389 107.226 136.219 106.344 136.165 104.49ZM138.415 101.25C139.711 101.25 140.305 102.258 140.359 103.428H136.237C136.489 101.952 137.353 101.25 138.415 101.25ZM143.513 100.26V108.252H144.863V102.834C145.151 101.97 145.961 101.34 146.897 101.34C148.103 101.34 148.661 102.114 148.661 103.23V108.252H150.029V103.014C150.029 101.268 149.039 100.098 147.221 100.098C146.195 100.098 145.331 100.638 144.863 101.268V100.26H143.513ZM152.427 97.2003V108.252H159.483V106.974H153.849V97.2003H152.427ZM165.836 102.942V103.986C165.494 103.68 164.666 103.338 163.838 103.338C162.128 103.338 160.796 104.346 160.796 105.84C160.796 107.424 162.128 108.396 163.766 108.396C164.702 108.396 165.53 107.982 165.836 107.658V108.252H167.15V102.834C167.15 101.142 166.034 100.098 164.144 100.098C163.154 100.098 162.2 100.386 161.66 100.764V102.042C162.326 101.61 163.046 101.34 163.928 101.34C165.098 101.34 165.836 101.952 165.836 102.942ZM165.836 105.444V106.272C165.62 106.866 164.828 107.262 163.982 107.262C163.01 107.262 162.074 106.812 162.074 105.84C162.074 104.886 163.01 104.454 163.982 104.454C164.828 104.454 165.62 104.85 165.836 105.444ZM176.172 108.252L172.176 103.914L176.1 100.26H174.354L170.808 103.626V96.5523H169.458V108.252H170.808V104.292L174.498 108.252H176.172ZM178.107 104.49H183.615V104.004C183.615 101.664 182.499 100.098 180.339 100.098C178.215 100.098 176.775 101.844 176.775 104.328C176.775 106.848 178.323 108.414 180.627 108.414C181.581 108.414 182.409 108.216 183.057 107.712V106.47C182.337 107.01 181.689 107.226 180.789 107.226C179.331 107.226 178.161 106.344 178.107 104.49ZM180.357 101.25C181.653 101.25 182.247 102.258 182.301 103.428H178.179C178.431 101.952 179.295 101.25 180.357 101.25Z" fill="black"/>
<path fill-rule="evenodd" clip-rule="evenodd" d="M70.609 181.219L75.9019 175.926L74.4876 174.512L67.7805 181.219L74.4876 187.926L75.9019 186.512L70.609 181.219Z" fill="black"/>
<path d="M93.9208 186.219V175.167H91.0228V186.219H93.9208ZM100.688 185.571V186.219H103.514V174.519H100.688V178.767C100.31 178.335 99.5176 177.939 98.6896 177.939C96.3496 177.939 95.0716 179.829 95.0716 182.169C95.0716 184.509 96.3496 186.399 98.6896 186.399C99.5176 186.399 100.31 186.003 100.688 185.571ZM100.688 181.089V183.231C100.472 183.681 100.004 183.987 99.4456 183.987C98.4736 183.987 97.8976 183.213 97.8976 182.169C97.8976 181.125 98.4736 180.333 99.4456 180.333C99.9856 180.333 100.472 180.657 100.688 181.089ZM107.335 182.817H112.321V181.989C112.321 179.577 111.043 177.939 108.523 177.939C106.291 177.939 104.599 179.685 104.599 182.223C104.599 184.833 106.363 186.399 108.955 186.399C110.125 186.399 111.115 186.147 111.745 185.679V183.537C110.935 184.023 110.269 184.185 109.405 184.185C108.361 184.185 107.569 183.789 107.335 182.817ZM108.631 180.081C109.315 180.081 109.729 180.549 109.801 181.233H107.371C107.569 180.495 108.019 180.081 108.631 180.081ZM113.451 178.119V186.219H116.277V181.323C116.421 180.765 116.889 180.441 117.447 180.441C118.167 180.441 118.509 180.927 118.509 181.593V186.219H121.317V180.909C121.317 179.109 120.255 177.939 118.455 177.939C117.519 177.939 116.727 178.317 116.277 178.821V178.119H113.451ZM126.529 186.219V180.315H128.113V178.119H126.529V175.887H123.721V178.119H122.317V180.315H123.721V186.219H126.529ZM132.172 175.923C132.172 174.987 131.434 174.393 130.57 174.393C129.706 174.393 128.968 174.987 128.968 175.923C128.968 176.841 129.706 177.435 130.57 177.435C131.434 177.435 132.172 176.841 132.172 175.923ZM131.974 186.219V178.119H129.148V186.219H131.974ZM137.251 186.219V180.315H138.835V178.119H137.251V175.887H134.443V178.119H133.039V180.315H134.443V186.219H137.251ZM141.077 189.081H143.867L148.043 178.119H145.235L143.723 182.727L142.175 178.119H139.241L142.265 186.021L141.077 189.081ZM157.261 177.273C158.179 177.273 159.007 177.723 159.619 178.245V175.779C159.043 175.311 158.035 174.987 157.045 174.987C154.867 174.987 153.373 176.211 153.373 178.137C153.373 178.839 153.553 179.415 153.967 180.027C152.941 180.621 152.239 181.683 152.239 182.889C152.239 185.067 153.805 186.399 156.163 186.399C157.135 186.399 158.071 186.111 158.899 185.589L159.475 186.219H162.643L160.645 183.915C161.347 182.925 161.761 181.701 161.779 180.369H159.295C159.277 180.981 159.169 181.539 159.007 182.007L156.883 179.541C156.505 179.109 156.127 178.695 156.127 178.173C156.127 177.633 156.541 177.273 157.261 177.273ZM156.199 184.221C155.317 184.221 154.831 183.645 154.831 182.889C154.831 182.385 155.065 181.953 155.407 181.719L157.405 183.933C157.027 184.113 156.613 184.221 156.199 184.221ZM173.616 175.167H170.664L166.452 186.219H169.314L170.088 184.077H174.102L174.894 186.219H177.828L173.616 175.167ZM170.97 181.701L172.104 178.587L173.238 181.701H170.97ZM177.952 182.169C177.952 184.779 179.752 186.399 182.182 186.399C183.01 186.399 183.784 186.237 184.36 185.823V183.447C183.838 183.825 183.28 184.023 182.614 184.023C181.57 184.023 180.742 183.393 180.742 182.169C180.742 180.945 181.57 180.315 182.614 180.315C183.28 180.315 183.838 180.513 184.36 180.891V178.515C183.784 178.101 183.01 177.939 182.182 177.939C179.752 177.939 177.952 179.559 177.952 182.169ZM185.159 182.169C185.159 184.779 186.959 186.399 189.389 186.399C190.217 186.399 190.991 186.237 191.567 185.823V183.447C191.045 183.825 190.487 184.023 189.821 184.023C188.777 184.023 187.949 183.393 187.949 182.169C187.949 180.945 188.777 180.315 189.821 180.315C190.487 180.315 191.045 180.513 191.567 180.891V178.515C190.991 178.101 190.217 177.939 189.389 177.939C186.959 177.939 185.159 179.559 185.159 182.169ZM195.102 182.817H200.088V181.989C200.088 179.577 198.81 177.939 196.29 177.939C194.058 177.939 192.366 179.685 192.366 182.223C192.366 184.833 194.13 186.399 196.722 186.399C197.892 186.399 198.882 186.147 199.512 185.679V183.537C198.702 184.023 198.036 184.185 197.172 184.185C196.128 184.185 195.336 183.789 195.102 182.817ZM196.398 180.081C197.082 180.081 197.496 180.549 197.568 181.233H195.138C195.336 180.495 195.786 180.081 196.398 180.081ZM200.948 183.249V185.625C201.704 186.129 202.892 186.399 204.026 186.399C206.024 186.399 207.518 185.553 207.518 183.825C207.518 182.457 206.816 181.737 205.052 181.269L204.314 181.053C203.918 180.945 203.684 180.837 203.684 180.531C203.684 180.207 204.008 180.045 204.494 180.045C205.412 180.045 206.276 180.423 207.05 180.981V178.659C206.258 178.173 205.376 177.939 204.224 177.939C202.316 177.939 200.912 178.893 200.912 180.585C200.912 182.043 201.866 182.745 203.36 183.069L203.99 183.231C204.476 183.339 204.728 183.465 204.728 183.789C204.728 184.149 204.368 184.275 203.81 184.275C202.982 184.275 201.722 183.879 200.948 183.249ZM208.348 183.249V185.625C209.104 186.129 210.292 186.399 211.426 186.399C213.424 186.399 214.918 185.553 214.918 183.825C214.918 182.457 214.216 181.737 212.452 181.269L211.714 181.053C211.318 180.945 211.084 180.837 211.084 180.531C211.084 180.207 211.408 180.045 211.894 180.045C212.812 180.045 213.676 180.423 214.45 180.981V178.659C213.658 178.173 212.776 177.939 211.624 177.939C209.716 177.939 208.312 178.893 208.312 180.585C208.312 182.043 209.266 182.745 210.76 183.069L211.39 183.231C211.876 183.339 212.128 183.465 212.128 183.789C212.128 184.149 211.768 184.275 211.21 184.275C210.382 184.275 209.122 183.879 208.348 183.249Z" fill="black"/>
<rect x="37.1948" y="155.219" width="202" height="52" stroke="#7630EA" stroke-width="2"/>
<path d="M59.2468 279.579C65.0788 279.579 68.8588 276.267 68.8588 270.219V257.115H63.0988V269.679C63.0988 272.811 61.6228 274.431 59.2468 274.431C56.8348 274.431 55.3588 272.811 55.3588 269.679V257.115H49.5988V270.183C49.5988 276.267 53.4148 279.579 59.2468 279.579ZM71.2089 273.279V278.031C72.7209 279.039 75.0969 279.579 77.3649 279.579C81.361 279.579 84.349 277.887 84.349 274.431C84.349 271.695 82.945 270.255 79.4169 269.319L77.9409 268.887C77.1489 268.671 76.6809 268.455 76.6809 267.843C76.6809 267.195 77.3289 266.871 78.3009 266.871C80.1369 266.871 81.865 267.627 83.4129 268.743V264.099C81.8289 263.127 80.0649 262.659 77.7609 262.659C73.9449 262.659 71.1369 264.567 71.1369 267.951C71.1369 270.867 73.0449 272.271 76.0329 272.919L77.2929 273.243C78.2649 273.459 78.7689 273.711 78.7689 274.359C78.7689 275.079 78.0489 275.331 76.9329 275.331C75.2769 275.331 72.7569 274.539 71.2089 273.279ZM91.2992 272.415H101.271V270.759C101.271 265.935 98.7152 262.659 93.6752 262.659C89.2112 262.659 85.8272 266.151 85.8272 271.227C85.8272 276.447 89.3552 279.579 94.5392 279.579C96.8792 279.579 98.8592 279.075 100.119 278.139V273.855C98.4992 274.827 97.1672 275.151 95.4392 275.151C93.3512 275.151 91.7672 274.359 91.2992 272.415ZM93.8912 266.943C95.2592 266.943 96.0872 267.879 96.2312 269.247H91.3712C91.7672 267.771 92.6672 266.943 93.8912 266.943ZM114.403 268.383V262.947C114.151 262.803 113.575 262.659 112.855 262.659C111.235 262.659 109.975 263.379 109.183 264.459V263.019H103.531V279.219H109.183V269.715C109.471 268.563 110.515 267.879 112.063 267.879C112.963 267.879 113.719 268.023 114.403 268.383ZM116.033 273.279V278.031C117.545 279.039 119.921 279.579 122.189 279.579C126.185 279.579 129.173 277.887 129.173 274.431C129.173 271.695 127.769 270.255 124.241 269.319L122.765 268.887C121.973 268.671 121.505 268.455 121.505 267.843C121.505 267.195 122.153 266.871 123.125 266.871C124.961 266.871 126.689 267.627 128.237 268.743V264.099C126.653 263.127 124.889 262.659 122.585 262.659C118.769 262.659 115.961 264.567 115.961 267.951C115.961 270.867 117.869 272.271 120.857 272.919L122.117 273.243C123.089 273.459 123.593 273.711 123.593 274.359C123.593 275.079 122.873 275.331 121.757 275.331C120.101 275.331 117.581 274.539 116.033 273.279Z" fill="black"/>
<g filter="url(#filter0_d_2893_18600)">
<rect x="48.1948" y="313.219" width="348" height="122" rx="12" fill="white"/>
<path d="M72.8696 343.167V344.427H76.7216V354.219H78.1436V344.427H81.9956V343.167H72.8696ZM89.3036 350.223C89.3036 347.775 87.8096 346.065 85.6316 346.065C83.4356 346.065 81.9596 347.775 81.9596 350.223C81.9596 352.671 83.4356 354.381 85.6316 354.381C87.8096 354.381 89.3036 352.671 89.3036 350.223ZM87.9356 350.223C87.9356 351.969 87.0716 353.193 85.6316 353.193C84.1916 353.193 83.3276 351.969 83.3276 350.223C83.3276 348.477 84.1916 347.253 85.6316 347.253C87.0716 347.253 87.9356 348.477 87.9356 350.223ZM93.2402 354.219V347.379H95.0942V346.227H93.2402V344.121H91.8902V346.227H90.2162V347.379H91.8902V354.219H93.2402ZM101.009 348.909V349.953C100.667 349.647 99.8389 349.305 99.0109 349.305C97.3009 349.305 95.9689 350.313 95.9689 351.807C95.9689 353.391 97.3009 354.363 98.9389 354.363C99.8749 354.363 100.703 353.949 101.009 353.625V354.219H102.323V348.801C102.323 347.109 101.207 346.065 99.3169 346.065C98.3269 346.065 97.3729 346.353 96.8329 346.731V348.009C97.4989 347.577 98.2189 347.307 99.1009 347.307C100.271 347.307 101.009 347.919 101.009 348.909ZM101.009 351.411V352.239C100.793 352.833 100.001 353.229 99.1549 353.229C98.1829 353.229 97.2469 352.779 97.2469 351.807C97.2469 350.853 98.1829 350.421 99.1549 350.421C100.001 350.421 100.793 350.817 101.009 351.411ZM105.981 354.219V342.519H104.631V354.219H105.981ZM116.614 354.381C119.134 354.381 120.952 352.869 120.952 349.845V343.167H119.53V349.665C119.53 352.023 118.396 353.121 116.614 353.121C114.832 353.121 113.698 352.023 113.698 349.665V343.167H112.294V349.827C112.294 352.869 114.112 354.381 116.614 354.381ZM122.831 352.149V353.589C123.425 354.057 124.415 354.381 125.459 354.381C127.133 354.381 128.447 353.535 128.447 352.059C128.447 350.925 127.781 350.223 126.575 349.809L125.351 349.395C124.595 349.125 124.163 348.909 124.163 348.261C124.163 347.577 124.847 347.217 125.675 347.217C126.647 347.217 127.385 347.613 128.051 348.171V346.767C127.403 346.317 126.575 346.065 125.675 346.065C124.091 346.065 122.849 346.911 122.849 348.315C122.849 349.611 123.659 350.187 124.865 350.583L125.963 350.961C126.665 351.195 127.115 351.519 127.115 352.113C127.115 352.905 126.341 353.229 125.459 353.229C124.487 353.229 123.569 352.833 122.831 352.149ZM131.122 350.457H136.63V349.971C136.63 347.631 135.514 346.065 133.354 346.065C131.23 346.065 129.79 347.811 129.79 350.295C129.79 352.815 131.338 354.381 133.642 354.381C134.596 354.381 135.424 354.183 136.072 353.679V352.437C135.352 352.977 134.704 353.193 133.804 353.193C132.346 353.193 131.176 352.311 131.122 350.457ZM133.372 347.217C134.668 347.217 135.262 348.225 135.316 349.395H131.194C131.446 347.919 132.31 347.217 133.372 347.217ZM142.573 347.577V346.191C142.429 346.119 142.141 346.065 141.799 346.065C140.917 346.065 140.161 346.587 139.819 347.271V346.227H138.469V354.219H139.819V348.855C140.089 347.919 140.827 347.361 141.673 347.361C142.015 347.361 142.357 347.433 142.573 347.577ZM143.732 352.149V353.589C144.326 354.057 145.316 354.381 146.36 354.381C148.034 354.381 149.348 353.535 149.348 352.059C149.348 350.925 148.682 350.223 147.476 349.809L146.252 349.395C145.496 349.125 145.064 348.909 145.064 348.261C145.064 347.577 145.748 347.217 146.576 347.217C147.548 347.217 148.286 347.613 148.952 348.171V346.767C148.304 346.317 147.476 346.065 146.576 346.065C144.992 346.065 143.75 346.911 143.75 348.315C143.75 349.611 144.56 350.187 145.766 350.583L146.864 350.961C147.566 351.195 148.016 351.519 148.016 352.113C148.016 352.905 147.242 353.229 146.36 353.229C145.388 353.229 144.47 352.833 143.732 352.149Z" fill="black"/>
<circle cx="348.195" cy="374.219" r="24" fill="#EFEFEF"/>
<g clip-path="url(#clip1_2893_18600)">
<path fill-rule="evenodd" clip-rule="evenodd" d="M348.195 363.219C344.329 363.219 341.195 366.353 341.195 370.219C341.195 372.485 342.271 374.499 343.94 375.778C342.954 376.069 342.045 376.482 341.249 377.034C339.342 378.358 338.195 380.422 338.195 383.219V386.219H340.195V383.219C340.195 381.045 341.047 379.609 342.39 378.676C343.786 377.707 345.807 377.219 348.195 377.219C350.585 377.219 352.606 377.701 354.001 378.666C355.341 379.594 356.195 381.029 356.195 383.219V386.219H358.195V383.219C358.195 380.409 357.048 378.344 355.139 377.022C354.345 376.472 353.437 376.063 352.454 375.775C354.121 374.495 355.195 372.483 355.195 370.219C355.195 366.353 352.061 363.219 348.195 363.219ZM348.195 375.219C350.956 375.219 353.195 372.981 353.195 370.219C353.195 367.458 350.956 365.219 348.195 365.219C345.433 365.219 343.195 367.458 343.195 370.219C343.195 372.981 345.433 375.219 348.195 375.219Z" fill="black"/>
</g>
</g>
<g filter="url(#filter1_d_2893_18600)">
<rect x="420.195" y="313.219" width="348" height="122" rx="12" fill="white"/>
<path d="M450.5 343.167H449.168L444.848 354.219H446.288L447.548 350.889H452.102L453.38 354.219H454.82L450.5 343.167ZM448.016 349.647L449.816 344.931L451.616 349.647H448.016ZM455.7 350.223C455.7 352.779 457.392 354.381 459.552 354.381C460.326 354.381 461.136 354.201 461.694 353.715V352.347C461.118 352.923 460.416 353.175 459.642 353.175C458.22 353.175 457.068 352.059 457.068 350.223C457.068 348.387 458.22 347.271 459.642 347.271C460.416 347.271 461.118 347.523 461.694 348.099V346.731C461.136 346.245 460.326 346.065 459.552 346.065C457.392 346.065 455.7 347.667 455.7 350.223ZM465.838 354.219V347.379H467.692V346.227H465.838V344.121H464.488V346.227H462.814V347.379H464.488V354.219H465.838ZM470.884 343.815C470.884 343.329 470.488 342.951 470.002 342.951C469.534 342.951 469.138 343.329 469.138 343.815C469.138 344.283 469.534 344.679 470.002 344.679C470.488 344.679 470.884 344.283 470.884 343.815ZM470.686 354.219V346.227H469.336V354.219H470.686ZM475.312 354.219H476.644L479.758 346.227H478.336L476.014 352.509L473.674 346.227H472.216L475.312 354.219ZM481.905 350.457H487.413V349.971C487.413 347.631 486.297 346.065 484.137 346.065C482.013 346.065 480.573 347.811 480.573 350.295C480.573 352.815 482.121 354.381 484.425 354.381C485.379 354.381 486.207 354.183 486.855 353.679V352.437C486.135 352.977 485.487 353.193 484.587 353.193C483.129 353.193 481.959 352.311 481.905 350.457ZM484.155 347.217C485.451 347.217 486.045 348.225 486.099 349.395H481.977C482.229 347.919 483.093 347.217 484.155 347.217ZM497.473 354.381C499.993 354.381 501.811 352.869 501.811 349.845V343.167H500.389V349.665C500.389 352.023 499.255 353.121 497.473 353.121C495.691 353.121 494.557 352.023 494.557 349.665V343.167H493.153V349.827C493.153 352.869 494.971 354.381 497.473 354.381ZM503.691 352.149V353.589C504.285 354.057 505.275 354.381 506.319 354.381C507.993 354.381 509.307 353.535 509.307 352.059C509.307 350.925 508.641 350.223 507.435 349.809L506.211 349.395C505.455 349.125 505.023 348.909 505.023 348.261C505.023 347.577 505.707 347.217 506.535 347.217C507.507 347.217 508.245 347.613 508.911 348.171V346.767C508.263 346.317 507.435 346.065 506.535 346.065C504.951 346.065 503.709 346.911 503.709 348.315C503.709 349.611 504.519 350.187 505.725 350.583L506.823 350.961C507.525 351.195 507.975 351.519 507.975 352.113C507.975 352.905 507.201 353.229 506.319 353.229C505.347 353.229 504.429 352.833 503.691 352.149ZM511.981 350.457H517.489V349.971C517.489 347.631 516.373 346.065 514.213 346.065C512.089 346.065 510.649 347.811 510.649 350.295C510.649 352.815 512.197 354.381 514.501 354.381C515.455 354.381 516.283 354.183 516.931 353.679V352.437C516.211 352.977 515.563 353.193 514.663 353.193C513.205 353.193 512.035 352.311 511.981 350.457ZM514.231 347.217C515.527 347.217 516.121 348.225 516.175 349.395H512.053C512.305 347.919 513.169 347.217 514.231 347.217ZM523.433 347.577V346.191C523.289 346.119 523.001 346.065 522.659 346.065C521.777 346.065 521.021 346.587 520.679 347.271V346.227H519.329V354.219H520.679V348.855C520.949 347.919 521.687 347.361 522.533 347.361C522.875 347.361 523.217 347.433 523.433 347.577ZM524.591 352.149V353.589C525.185 354.057 526.175 354.381 527.219 354.381C528.893 354.381 530.207 353.535 530.207 352.059C530.207 350.925 529.541 350.223 528.335 349.809L527.111 349.395C526.355 349.125 525.923 348.909 525.923 348.261C525.923 347.577 526.607 347.217 527.435 347.217C528.407 347.217 529.145 347.613 529.811 348.171V346.767C529.163 346.317 528.335 346.065 527.435 346.065C525.851 346.065 524.609 346.911 524.609 348.315C524.609 349.611 525.419 350.187 526.625 350.583L527.723 350.961C528.425 351.195 528.875 351.519 528.875 352.113C528.875 352.905 528.101 353.229 527.219 353.229C526.247 353.229 525.329 352.833 524.591 352.149Z" fill="black"/>
</g>
</g>
<g clip-path="url(#clip2_2893_18600)">
<rect width="522.24" height="296.453" transform="translate(549.15 67.2191)" fill="white"/>
<path fill-rule="evenodd" clip-rule="evenodd" d="M575 97.2523H619V109.252H575V97.2523ZM578 100.252H616V106.252H578V100.252Z" fill="#01A982"/>
<path d="M636.68 98.4283H634.104V102.156H630.312V98.4283H627.736V108.252H630.312V104.364H634.104V108.252H636.68V98.4283ZM640.686 105.196H642.446C644.574 105.196 646.014 103.996 646.014 101.82C646.014 99.6283 644.574 98.4283 642.446 98.4283H638.142V108.252H640.686V105.196ZM643.518 101.82C643.518 102.556 643.102 103.052 642.174 103.052H640.686V100.588H642.174C643.102 100.588 643.518 101.068 643.518 101.82ZM654.135 98.4283H647.111V108.252H654.135V106.028H649.639V104.332H653.751V102.172H649.639V100.636H654.135V98.4283ZM664.513 107.154C662.209 107.154 660.733 105.39 660.733 102.726C660.733 100.062 662.335 98.3163 664.639 98.3163C665.845 98.3163 666.889 98.6943 667.825 99.5403V98.0283C667.051 97.4163 665.935 97.0383 664.639 97.0383C661.597 97.0383 659.311 99.2883 659.311 102.726C659.311 106.146 661.399 108.414 664.477 108.414C665.845 108.414 667.303 108 668.365 106.83V102.51H664.621V103.698H667.051V106.308C666.331 106.902 665.521 107.154 664.513 107.154ZM674.624 101.61V100.224C674.48 100.152 674.192 100.098 673.85 100.098C672.968 100.098 672.212 100.62 671.87 101.304V100.26H670.52V108.252H671.87V102.888C672.14 101.952 672.878 101.394 673.724 101.394C674.066 101.394 674.408 101.466 674.624 101.61ZM676.831 104.49H682.339V104.004C682.339 101.664 681.223 100.098 679.063 100.098C676.939 100.098 675.499 101.844 675.499 104.328C675.499 106.848 677.047 108.414 679.351 108.414C680.305 108.414 681.133 108.216 681.781 107.712V106.47C681.061 107.01 680.413 107.226 679.513 107.226C678.055 107.226 676.885 106.344 676.831 104.49ZM679.081 101.25C680.377 101.25 680.971 102.258 681.025 103.428H676.903C677.155 101.952 678.019 101.25 679.081 101.25ZM684.935 104.49H690.443V104.004C690.443 101.664 689.327 100.098 687.167 100.098C685.043 100.098 683.603 101.844 683.603 104.328C683.603 106.848 685.151 108.414 687.455 108.414C688.409 108.414 689.237 108.216 689.885 107.712V106.47C689.165 107.01 688.517 107.226 687.617 107.226C686.159 107.226 684.989 106.344 684.935 104.49ZM687.185 101.25C688.481 101.25 689.075 102.258 689.129 103.428H685.007C685.259 101.952 686.123 101.25 687.185 101.25ZM692.282 100.26V108.252H693.632V102.834C693.92 101.97 694.73 101.34 695.666 101.34C696.872 101.34 697.43 102.114 697.43 103.23V108.252H698.798V103.014C698.798 101.268 697.808 100.098 695.99 100.098C694.964 100.098 694.1 100.638 693.632 101.268V100.26H692.282ZM701.197 97.2003V108.252H708.253V106.974H702.619V97.2003H701.197ZM714.605 102.942V103.986C714.263 103.68 713.435 103.338 712.607 103.338C710.897 103.338 709.565 104.346 709.565 105.84C709.565 107.424 710.897 108.396 712.535 108.396C713.471 108.396 714.299 107.982 714.605 107.658V108.252H715.919V102.834C715.919 101.142 714.803 100.098 712.913 100.098C711.923 100.098 710.969 100.386 710.429 100.764V102.042C711.095 101.61 711.815 101.34 712.697 101.34C713.867 101.34 714.605 101.952 714.605 102.942ZM714.605 105.444V106.272C714.389 106.866 713.597 107.262 712.751 107.262C711.779 107.262 710.843 106.812 710.843 105.84C710.843 104.886 711.779 104.454 712.751 104.454C713.597 104.454 714.389 104.85 714.605 105.444ZM724.941 108.252L720.945 103.914L724.869 100.26H723.123L719.577 103.626V96.5523H718.227V108.252H719.577V104.292L723.267 108.252H724.941ZM726.876 104.49H732.384V104.004C732.384 101.664 731.268 100.098 729.108 100.098C726.984 100.098 725.544 101.844 725.544 104.328C725.544 106.848 727.092 108.414 729.396 108.414C730.35 108.414 731.178 108.216 731.826 107.712V106.47C731.106 107.01 730.458 107.226 729.558 107.226C728.1 107.226 726.93 106.344 726.876 104.49ZM729.126 101.25C730.422 101.25 731.016 102.258 731.07 103.428H726.948C727.2 101.952 728.064 101.25 729.126 101.25Z" fill="black"/>
<path d="M604.602 219.219V197.115H598.806V219.219H604.602ZM618.136 217.923V219.219H623.788V195.819H618.136V204.315C617.38 203.451 615.796 202.659 614.14 202.659C609.46 202.659 606.904 206.439 606.904 211.119C606.904 215.799 609.46 219.579 614.14 219.579C615.796 219.579 617.38 218.787 618.136 217.923ZM618.136 208.959V213.243C617.704 214.143 616.768 214.755 615.652 214.755C613.708 214.755 612.556 213.207 612.556 211.119C612.556 209.031 613.708 207.447 615.652 207.447C616.732 207.447 617.704 208.095 618.136 208.959ZM631.431 212.415H641.403V210.759C641.403 205.935 638.847 202.659 633.807 202.659C629.343 202.659 625.959 206.151 625.959 211.227C625.959 216.447 629.487 219.579 634.671 219.579C637.011 219.579 638.991 219.075 640.251 218.139V213.855C638.631 214.827 637.299 215.151 635.571 215.151C633.483 215.151 631.899 214.359 631.431 212.415ZM634.023 206.943C635.391 206.943 636.219 207.879 636.363 209.247H631.503C631.899 207.771 632.799 206.943 634.023 206.943ZM643.662 203.019V219.219H649.314V209.427C649.602 208.311 650.538 207.663 651.654 207.663C653.094 207.663 653.778 208.635 653.778 209.967V219.219H659.394V208.599C659.394 204.999 657.27 202.659 653.67 202.659C651.798 202.659 650.214 203.415 649.314 204.423V203.019H643.662ZM669.818 219.219V207.411H672.986V203.019H669.818V198.555H664.202V203.019H661.394V207.411H664.202V219.219H669.818ZM681.105 198.627C681.105 196.755 679.629 195.567 677.901 195.567C676.173 195.567 674.697 196.755 674.697 198.627C674.697 200.463 676.173 201.651 677.901 201.651C679.629 201.651 681.105 200.463 681.105 198.627ZM680.709 219.219V203.019H675.057V219.219H680.709ZM691.264 219.219V207.411H694.432V203.019H691.264V198.555H685.648V203.019H682.84V207.411H685.648V219.219H691.264ZM698.914 224.943H704.494L712.846 203.019H707.23L704.206 212.235L701.11 203.019H695.242L701.29 218.823L698.914 224.943ZM731.284 201.327C733.12 201.327 734.776 202.227 736 203.271V198.339C734.848 197.403 732.832 196.755 730.852 196.755C726.496 196.755 723.508 199.203 723.508 203.055C723.508 204.459 723.868 205.611 724.696 206.835C722.644 208.023 721.24 210.147 721.24 212.559C721.24 216.915 724.372 219.579 729.088 219.579C731.032 219.579 732.904 219.003 734.56 217.959L735.712 219.219H742.048L738.052 214.611C739.456 212.631 740.284 210.183 740.32 207.519H735.352C735.316 208.743 735.1 209.859 734.776 210.795L730.528 205.863C729.772 204.999 729.016 204.171 729.016 203.127C729.016 202.047 729.844 201.327 731.284 201.327ZM729.16 215.223C727.396 215.223 726.424 214.071 726.424 212.559C726.424 211.551 726.892 210.687 727.576 210.219L731.572 214.647C730.816 215.007 729.988 215.223 729.16 215.223ZM763.992 197.115H758.088L749.664 219.219H755.388L756.936 214.935H764.964L766.548 219.219H772.416L763.992 197.115ZM758.7 210.183L760.968 203.955L763.236 210.183H758.7ZM772.666 211.119C772.666 216.339 776.266 219.579 781.126 219.579C782.782 219.579 784.33 219.255 785.482 218.427V213.675C784.438 214.431 783.322 214.827 781.99 214.827C779.902 214.827 778.246 213.567 778.246 211.119C778.246 208.671 779.902 207.411 781.99 207.411C783.322 207.411 784.438 207.807 785.482 208.563V203.811C784.33 202.983 782.782 202.659 781.126 202.659C776.266 202.659 772.666 205.899 772.666 211.119ZM787.08 211.119C787.08 216.339 790.68 219.579 795.54 219.579C797.196 219.579 798.744 219.255 799.896 218.427V213.675C798.852 214.431 797.736 214.827 796.404 214.827C794.316 214.827 792.66 213.567 792.66 211.119C792.66 208.671 794.316 207.411 796.404 207.411C797.736 207.411 798.852 207.807 799.896 208.563V203.811C798.744 202.983 797.196 202.659 795.54 202.659C790.68 202.659 787.08 205.899 787.08 211.119ZM806.966 212.415H816.938V210.759C816.938 205.935 814.382 202.659 809.342 202.659C804.878 202.659 801.494 206.151 801.494 211.227C801.494 216.447 805.022 219.579 810.206 219.579C812.546 219.579 814.526 219.075 815.786 218.139V213.855C814.166 214.827 812.834 215.151 811.106 215.151C809.018 215.151 807.434 214.359 806.966 212.415ZM809.558 206.943C810.926 206.943 811.754 207.879 811.898 209.247H807.038C807.434 207.771 808.334 206.943 809.558 206.943ZM818.657 213.279V218.031C820.169 219.039 822.545 219.579 824.813 219.579C828.809 219.579 831.797 217.887 831.797 214.431C831.797 211.695 830.393 210.255 826.865 209.319L825.389 208.887C824.597 208.671 824.129 208.455 824.129 207.843C824.129 207.195 824.777 206.871 825.749 206.871C827.585 206.871 829.313 207.627 830.861 208.743V204.099C829.277 203.127 827.513 202.659 825.209 202.659C821.393 202.659 818.585 204.567 818.585 207.951C818.585 210.867 820.493 212.271 823.481 212.919L824.741 213.243C825.713 213.459 826.217 213.711 826.217 214.359C826.217 215.079 825.497 215.331 824.381 215.331C822.725 215.331 820.205 214.539 818.657 213.279ZM833.457 213.279V218.031C834.969 219.039 837.345 219.579 839.613 219.579C843.609 219.579 846.597 217.887 846.597 214.431C846.597 211.695 845.193 210.255 841.665 209.319L840.189 208.887C839.397 208.671 838.929 208.455 838.929 207.843C838.929 207.195 839.577 206.871 840.549 206.871C842.385 206.871 844.113 207.627 845.661 208.743V204.099C844.077 203.127 842.313 202.659 840.009 202.659C836.193 202.659 833.385 204.567 833.385 207.951C833.385 210.867 835.293 212.271 838.281 212.919L839.541 213.243C840.513 213.459 841.017 213.711 841.017 214.359C841.017 215.079 840.297 215.331 839.181 215.331C837.525 215.331 835.005 214.539 833.457 213.279Z" fill="black"/>
<path d="M598.052 253.293V255.163C598.976 255.889 600.472 256.417 602.298 256.417C604.916 256.417 606.852 255.031 606.852 252.721C606.852 250.851 605.928 249.773 603.86 248.981L601.726 248.145C600.472 247.661 599.702 247.177 599.702 246.033C599.702 244.691 600.868 244.031 602.364 244.031C603.926 244.031 605.136 244.581 606.214 245.439V243.613C605.202 242.909 603.816 242.513 602.342 242.513C600.01 242.513 598.008 243.723 598.008 246.055C598.008 248.189 599.46 249.091 601.044 249.707L603.024 250.477C604.454 251.071 605.18 251.555 605.18 252.743C605.18 254.129 604.036 254.877 602.298 254.877C600.714 254.877 599.306 254.371 598.052 253.293ZM610.248 251.621H616.98V251.027C616.98 248.167 615.616 246.253 612.976 246.253C610.38 246.253 608.62 248.387 608.62 251.423C608.62 254.503 610.512 256.417 613.328 256.417C614.494 256.417 615.506 256.175 616.298 255.559V254.041C615.418 254.701 614.626 254.965 613.526 254.965C611.744 254.965 610.314 253.887 610.248 251.621ZM612.998 247.661C614.582 247.661 615.308 248.893 615.374 250.323H610.336C610.644 248.519 611.7 247.661 612.998 247.661ZM618.524 251.335C618.524 254.459 620.592 256.417 623.232 256.417C624.178 256.417 625.168 256.197 625.85 255.603V253.931C625.146 254.635 624.288 254.943 623.342 254.943C621.604 254.943 620.196 253.579 620.196 251.335C620.196 249.091 621.604 247.727 623.342 247.727C624.288 247.727 625.146 248.035 625.85 248.739V247.067C625.168 246.473 624.178 246.253 623.232 246.253C620.592 246.253 618.524 248.211 618.524 251.335ZM635.932 256.219V246.451H634.26V253.073C633.908 254.129 632.962 254.899 631.818 254.899C630.344 254.899 629.684 253.953 629.684 252.589V246.451H628.012V252.853C628.012 254.987 629.2 256.417 631.422 256.417C632.676 256.417 633.71 255.757 634.26 254.987V256.219H635.932ZM643.881 248.101V246.407C643.705 246.319 643.353 246.253 642.935 246.253C641.857 246.253 640.933 246.891 640.515 247.727V246.451H638.865V256.219H640.515V249.663C640.845 248.519 641.747 247.837 642.781 247.837C643.199 247.837 643.617 247.925 643.881 248.101ZM646.578 251.621H653.31V251.027C653.31 248.167 651.946 246.253 649.306 246.253C646.71 246.253 644.95 248.387 644.95 251.423C644.95 254.503 646.842 256.417 649.658 256.417C650.824 256.417 651.836 256.175 652.628 255.559V254.041C651.748 254.701 650.956 254.965 649.856 254.965C648.074 254.965 646.644 253.887 646.578 251.621ZM649.328 247.661C650.912 247.661 651.638 248.893 651.704 250.323H646.666C646.974 248.519 648.03 247.661 649.328 247.661ZM657.208 256.219V241.919H655.558V256.219H657.208ZM661.41 259.959H663.038L668.296 246.451H666.58L663.742 254.151L660.86 246.451H659.078L662.884 256.285L661.41 259.959ZM681.953 247.815C681.491 246.891 680.545 246.253 679.313 246.253C678.103 246.253 677.157 246.825 676.673 247.595V246.451H675.023V256.219H676.673V249.487C676.981 248.431 677.839 247.749 678.829 247.749C680.083 247.749 680.677 248.651 680.677 250.015V256.219H682.327V249.487C682.635 248.431 683.493 247.749 684.483 247.749C685.737 247.749 686.331 248.651 686.331 250.015V256.219H688.003V249.751C688.003 247.639 686.903 246.253 684.923 246.253C683.559 246.253 682.569 246.935 681.953 247.815ZM696.226 249.729V251.005C695.808 250.631 694.796 250.213 693.784 250.213C691.694 250.213 690.066 251.445 690.066 253.271C690.066 255.207 691.694 256.395 693.696 256.395C694.84 256.395 695.852 255.889 696.226 255.493V256.219H697.832V249.597C697.832 247.529 696.468 246.253 694.158 246.253C692.948 246.253 691.782 246.605 691.122 247.067V248.629C691.936 248.101 692.816 247.771 693.894 247.771C695.324 247.771 696.226 248.519 696.226 249.729ZM696.226 252.787V253.799C695.962 254.525 694.994 255.009 693.96 255.009C692.772 255.009 691.628 254.459 691.628 253.271C691.628 252.105 692.772 251.577 693.96 251.577C694.994 251.577 695.962 252.061 696.226 252.787ZM700.654 246.451V256.219H702.304V249.597C702.656 248.541 703.646 247.771 704.79 247.771C706.264 247.771 706.946 248.717 706.946 250.081V256.219H708.618V249.817C708.618 247.683 707.408 246.253 705.186 246.253C703.932 246.253 702.876 246.913 702.304 247.683V246.451H700.654ZM716.851 249.729V251.005C716.433 250.631 715.421 250.213 714.409 250.213C712.319 250.213 710.691 251.445 710.691 253.271C710.691 255.207 712.319 256.395 714.321 256.395C715.465 256.395 716.477 255.889 716.851 255.493V256.219H718.457V249.597C718.457 247.529 717.093 246.253 714.783 246.253C713.573 246.253 712.407 246.605 711.747 247.067V248.629C712.561 248.101 713.441 247.771 714.519 247.771C715.949 247.771 716.851 248.519 716.851 249.729ZM716.851 252.787V253.799C716.587 254.525 715.619 255.009 714.585 255.009C713.397 255.009 712.253 254.459 712.253 253.271C712.253 252.105 713.397 251.577 714.585 251.577C715.619 251.577 716.587 252.061 716.851 252.787ZM727.659 254.921V255.559C727.659 257.649 726.295 258.683 724.557 258.683C723.413 258.683 722.379 258.375 721.411 257.473V259.299C722.159 259.827 723.303 260.179 724.557 260.179C726.889 260.179 729.331 258.859 729.331 255.449V246.451H727.659V247.551C727.175 246.869 726.141 246.253 724.931 246.253C722.071 246.253 720.575 248.629 720.575 251.247C720.575 253.865 722.071 256.241 724.931 256.241C726.141 256.241 727.175 255.603 727.659 254.921ZM727.659 249.245V253.227C727.153 254.151 726.229 254.745 725.173 254.745C723.325 254.745 722.247 253.271 722.247 251.247C722.247 249.201 723.325 247.727 725.173 247.727C726.229 247.727 727.153 248.321 727.659 249.245ZM733.181 251.621H739.913V251.027C739.913 248.167 738.549 246.253 735.909 246.253C733.313 246.253 731.553 248.387 731.553 251.423C731.553 254.503 733.445 256.417 736.261 256.417C737.427 256.417 738.439 256.175 739.231 255.559V254.041C738.351 254.701 737.559 254.965 736.459 254.965C734.677 254.965 733.247 253.887 733.181 251.621ZM735.931 247.661C737.515 247.661 738.241 248.893 738.307 250.323H733.269C733.577 248.519 734.633 247.661 735.931 247.661ZM754.805 256.219V246.451H753.133V253.073C752.781 254.129 751.835 254.899 750.691 254.899C749.217 254.899 748.557 253.953 748.557 252.589V246.451H746.885V252.853C746.885 254.987 748.073 256.417 750.295 256.417C751.549 256.417 752.583 255.757 753.133 254.987V256.219H754.805ZM757.166 253.689V255.449C757.892 256.021 759.102 256.417 760.378 256.417C762.424 256.417 764.03 255.383 764.03 253.579C764.03 252.193 763.216 251.335 761.742 250.829L760.246 250.323C759.322 249.993 758.794 249.729 758.794 248.937C758.794 248.101 759.63 247.661 760.642 247.661C761.83 247.661 762.732 248.145 763.546 248.827V247.111C762.754 246.561 761.742 246.253 760.642 246.253C758.706 246.253 757.188 247.287 757.188 249.003C757.188 250.587 758.178 251.291 759.652 251.775L760.994 252.237C761.852 252.523 762.402 252.919 762.402 253.645C762.402 254.613 761.456 255.009 760.378 255.009C759.19 255.009 758.068 254.525 757.166 253.689ZM767.298 251.621H774.03V251.027C774.03 248.167 772.666 246.253 770.026 246.253C767.43 246.253 765.67 248.387 765.67 251.423C765.67 254.503 767.562 256.417 770.378 256.417C771.544 256.417 772.556 256.175 773.348 255.559V254.041C772.468 254.701 771.676 254.965 770.576 254.965C768.794 254.965 767.364 253.887 767.298 251.621ZM770.048 247.661C771.632 247.661 772.358 248.893 772.424 250.323H767.386C767.694 248.519 768.75 247.661 770.048 247.661ZM781.295 248.101V246.407C781.119 246.319 780.767 246.253 780.349 246.253C779.271 246.253 778.347 246.891 777.929 247.727V246.451H776.279V256.219H777.929V249.663C778.259 248.519 779.161 247.837 780.195 247.837C780.613 247.837 781.031 247.925 781.295 248.101ZM782.711 253.689V255.449C783.437 256.021 784.647 256.417 785.923 256.417C787.969 256.417 789.575 255.383 789.575 253.579C789.575 252.193 788.761 251.335 787.287 250.829L785.791 250.323C784.867 249.993 784.339 249.729 784.339 248.937C784.339 248.101 785.175 247.661 786.187 247.661C787.375 247.661 788.277 248.145 789.091 248.827V247.111C788.299 246.561 787.287 246.253 786.187 246.253C784.251 246.253 782.733 247.287 782.733 249.003C782.733 250.587 783.723 251.291 785.197 251.775L786.539 252.237C787.397 252.523 787.947 252.919 787.947 253.645C787.947 254.613 787.001 255.009 785.923 255.009C784.735 255.009 783.613 254.525 782.711 253.689ZM802.209 249.729V251.005C801.791 250.631 800.779 250.213 799.767 250.213C797.677 250.213 796.049 251.445 796.049 253.271C796.049 255.207 797.677 256.395 799.679 256.395C800.823 256.395 801.835 255.889 802.209 255.493V256.219H803.815V249.597C803.815 247.529 802.451 246.253 800.141 246.253C798.931 246.253 797.765 246.605 797.105 247.067V248.629C797.919 248.101 798.799 247.771 799.877 247.771C801.307 247.771 802.209 248.519 802.209 249.729ZM802.209 252.787V253.799C801.945 254.525 800.977 255.009 799.943 255.009C798.755 255.009 797.611 254.459 797.611 253.271C797.611 252.105 798.755 251.577 799.943 251.577C800.977 251.577 801.945 252.061 802.209 252.787ZM806.636 246.451V256.219H808.286V249.597C808.638 248.541 809.628 247.771 810.772 247.771C812.246 247.771 812.928 248.717 812.928 250.081V256.219H814.6V249.817C814.6 247.683 813.39 246.253 811.168 246.253C809.914 246.253 808.858 246.913 808.286 247.683V246.451H806.636ZM823.846 255.075V256.219H825.518V241.919H823.846V247.595C823.362 246.891 822.306 246.253 821.096 246.253C818.236 246.253 816.696 248.585 816.696 251.335C816.696 254.107 818.236 256.417 821.096 256.417C822.306 256.417 823.362 255.779 823.846 255.075ZM823.846 249.355V253.315C823.34 254.327 822.372 254.921 821.338 254.921C819.468 254.921 818.368 253.403 818.368 251.335C818.368 249.267 819.468 247.749 821.338 247.749C822.372 247.749 823.34 248.343 823.846 249.355ZM838.732 249.729V251.005C838.314 250.631 837.302 250.213 836.29 250.213C834.2 250.213 832.572 251.445 832.572 253.271C832.572 255.207 834.2 256.395 836.202 256.395C837.346 256.395 838.358 255.889 838.732 255.493V256.219H840.338V249.597C840.338 247.529 838.974 246.253 836.664 246.253C835.454 246.253 834.288 246.605 833.628 247.067V248.629C834.442 248.101 835.322 247.771 836.4 247.771C837.83 247.771 838.732 248.519 838.732 249.729ZM838.732 252.787V253.799C838.468 254.525 837.5 255.009 836.466 255.009C835.278 255.009 834.134 254.459 834.134 253.271C834.134 252.105 835.278 251.577 836.466 251.577C837.5 251.577 838.468 252.061 838.732 252.787ZM842.456 251.335C842.456 254.459 844.524 256.417 847.164 256.417C848.11 256.417 849.1 256.197 849.782 255.603V253.931C849.078 254.635 848.22 254.943 847.274 254.943C845.536 254.943 844.128 253.579 844.128 251.335C844.128 249.091 845.536 247.727 847.274 247.727C848.22 247.727 849.078 248.035 849.782 248.739V247.067C849.1 246.473 848.11 246.253 847.164 246.253C844.524 246.253 842.456 248.211 842.456 251.335ZM851.372 251.335C851.372 254.459 853.44 256.417 856.08 256.417C857.026 256.417 858.016 256.197 858.698 255.603V253.931C857.994 254.635 857.136 254.943 856.19 254.943C854.452 254.943 853.044 253.579 853.044 251.335C853.044 249.091 854.452 247.727 856.19 247.727C857.136 247.727 857.994 248.035 858.698 248.739V247.067C858.016 246.473 857.026 246.253 856.08 246.253C853.44 246.253 851.372 248.211 851.372 251.335ZM861.916 251.621H868.648V251.027C868.648 248.167 867.284 246.253 864.644 246.253C862.048 246.253 860.288 248.387 860.288 251.423C860.288 254.503 862.18 256.417 864.996 256.417C866.162 256.417 867.174 256.175 867.966 255.559V254.041C867.086 254.701 866.294 254.965 865.194 254.965C863.412 254.965 861.982 253.887 861.916 251.621ZM864.666 247.661C866.25 247.661 866.976 248.893 867.042 250.323H862.004C862.312 248.519 863.368 247.661 864.666 247.661ZM870.41 253.689V255.449C871.136 256.021 872.346 256.417 873.622 256.417C875.668 256.417 877.274 255.383 877.274 253.579C877.274 252.193 876.46 251.335 874.986 250.829L873.49 250.323C872.566 249.993 872.038 249.729 872.038 248.937C872.038 248.101 872.874 247.661 873.886 247.661C875.074 247.661 875.976 248.145 876.79 248.827V247.111C875.998 246.561 874.986 246.253 873.886 246.253C871.95 246.253 870.432 247.287 870.432 249.003C870.432 250.587 871.422 251.291 872.896 251.775L874.238 252.237C875.096 252.523 875.646 252.919 875.646 253.645C875.646 254.613 874.7 255.009 873.622 255.009C872.434 255.009 871.312 254.525 870.41 253.689ZM879.047 253.689V255.449C879.773 256.021 880.983 256.417 882.259 256.417C884.305 256.417 885.911 255.383 885.911 253.579C885.911 252.193 885.097 251.335 883.623 250.829L882.127 250.323C881.203 249.993 880.675 249.729 880.675 248.937C880.675 248.101 881.511 247.661 882.523 247.661C883.711 247.661 884.613 248.145 885.427 248.827V247.111C884.635 246.561 883.623 246.253 882.523 246.253C880.587 246.253 879.069 247.287 879.069 249.003C879.069 250.587 880.059 251.291 881.533 251.775L882.875 252.237C883.733 252.523 884.283 252.919 884.283 253.645C884.283 254.613 883.337 255.009 882.259 255.009C881.071 255.009 879.949 254.525 879.047 253.689ZM895.839 256.219V247.859H898.105V246.451H895.839V243.877H894.189V246.451H892.143V247.859H894.189V256.219H895.839ZM908.215 251.335C908.215 248.343 906.389 246.253 903.727 246.253C901.043 246.253 899.239 248.343 899.239 251.335C899.239 254.327 901.043 256.417 903.727 256.417C906.389 256.417 908.215 254.327 908.215 251.335ZM906.543 251.335C906.543 253.469 905.487 254.965 903.727 254.965C901.967 254.965 900.911 253.469 900.911 251.335C900.911 249.201 901.967 247.705 903.727 247.705C905.487 247.705 906.543 249.201 906.543 251.335ZM920.32 248.101V246.407C920.144 246.319 919.792 246.253 919.374 246.253C918.296 246.253 917.372 246.891 916.954 247.727V246.451H915.304V256.219H916.954V249.663C917.284 248.519 918.186 247.837 919.22 247.837C919.638 247.837 920.056 247.925 920.32 248.101ZM923.017 251.621H929.749V251.027C929.749 248.167 928.385 246.253 925.745 246.253C923.149 246.253 921.389 248.387 921.389 251.423C921.389 254.503 923.281 256.417 926.097 256.417C927.263 256.417 928.275 256.175 929.067 255.559V254.041C928.187 254.701 927.395 254.965 926.295 254.965C924.513 254.965 923.083 253.887 923.017 251.621ZM925.767 247.661C927.351 247.661 928.077 248.893 928.143 250.323H923.105C923.413 248.519 924.469 247.661 925.767 247.661ZM931.511 253.689V255.449C932.237 256.021 933.447 256.417 934.723 256.417C936.769 256.417 938.375 255.383 938.375 253.579C938.375 252.193 937.561 251.335 936.087 250.829L934.591 250.323C933.667 249.993 933.139 249.729 933.139 248.937C933.139 248.101 933.975 247.661 934.987 247.661C936.175 247.661 937.077 248.145 937.891 248.827V247.111C937.099 246.561 936.087 246.253 934.987 246.253C933.051 246.253 931.533 247.287 931.533 249.003C931.533 250.587 932.523 251.291 933.997 251.775L935.339 252.237C936.197 252.523 936.747 252.919 936.747 253.645C936.747 254.613 935.801 255.009 934.723 255.009C933.535 255.009 932.413 254.525 931.511 253.689ZM948.992 251.335C948.992 248.343 947.166 246.253 944.504 246.253C941.82 246.253 940.016 248.343 940.016 251.335C940.016 254.327 941.82 256.417 944.504 256.417C947.166 256.417 948.992 254.327 948.992 251.335ZM947.32 251.335C947.32 253.469 946.264 254.965 944.504 254.965C942.744 254.965 941.688 253.469 941.688 251.335C941.688 249.201 942.744 247.705 944.504 247.705C946.264 247.705 947.32 249.201 947.32 251.335ZM959.014 256.219V246.451H957.342V253.073C956.99 254.129 956.044 254.899 954.9 254.899C953.426 254.899 952.766 253.953 952.766 252.589V246.451H951.094V252.853C951.094 254.987 952.282 256.417 954.504 256.417C955.758 256.417 956.792 255.757 957.342 254.987V256.219H959.014ZM966.963 248.101V246.407C966.787 246.319 966.435 246.253 966.017 246.253C964.939 246.253 964.015 246.891 963.597 247.727V246.451H961.947V256.219H963.597V249.663C963.927 248.519 964.829 247.837 965.863 247.837C966.281 247.837 966.699 247.925 966.963 248.101ZM968.032 251.335C968.032 254.459 970.1 256.417 972.74 256.417C973.686 256.417 974.676 256.197 975.358 255.603V253.931C974.654 254.635 973.796 254.943 972.85 254.943C971.112 254.943 969.704 253.579 969.704 251.335C969.704 249.091 971.112 247.727 972.85 247.727C973.796 247.727 974.654 248.035 975.358 248.739V247.067C974.676 246.473 973.686 246.253 972.74 246.253C970.1 246.253 968.032 248.211 968.032 251.335ZM978.576 251.621H985.308V251.027C985.308 248.167 983.944 246.253 981.304 246.253C978.708 246.253 976.948 248.387 976.948 251.423C976.948 254.503 978.84 256.417 981.656 256.417C982.822 256.417 983.834 256.175 984.626 255.559V254.041C983.746 254.701 982.954 254.965 981.854 254.965C980.072 254.965 978.642 253.887 978.576 251.621ZM981.326 247.661C982.91 247.661 983.636 248.893 983.702 250.323H978.664C978.972 248.519 980.028 247.661 981.326 247.661ZM987.07 253.689V255.449C987.796 256.021 989.006 256.417 990.282 256.417C992.328 256.417 993.934 255.383 993.934 253.579C993.934 252.193 993.12 251.335 991.646 250.829L990.15 250.323C989.226 249.993 988.698 249.729 988.698 248.937C988.698 248.101 989.534 247.661 990.546 247.661C991.734 247.661 992.636 248.145 993.45 248.827V247.111C992.658 246.561 991.646 246.253 990.546 246.253C988.61 246.253 987.092 247.287 987.092 249.003C987.092 250.587 988.082 251.291 989.556 251.775L990.898 252.237C991.756 252.523 992.306 252.919 992.306 253.645C992.306 254.613 991.36 255.009 990.282 255.009C989.094 255.009 987.972 254.525 987.07 253.689ZM995.509 255.141C995.509 255.823 996.037 256.329 996.697 256.329C997.335 256.329 997.863 255.823 997.863 255.141C997.863 254.459 997.335 253.931 996.697 253.931C996.037 253.931 995.509 254.459 995.509 255.141Z" fill="#444444"/>
<path d="M608.341 335.127H608.465L613.332 328.307V339.219H618.23V320.185H613.642L608.403 327.935L603.195 320.185H598.576V339.219H603.443V328.307L608.341 335.127ZM628.603 330.818V331.314C628.045 330.911 626.743 330.539 625.565 330.539C622.558 330.539 620.202 332.275 620.202 334.972C620.202 337.917 622.558 339.467 625.317 339.467C626.805 339.467 628.138 338.971 628.603 338.506V339.219H633.284V330.601C633.284 326.912 630.928 324.959 626.805 324.959C624.821 324.959 622.961 325.424 621.814 326.044V329.95C622.93 329.299 624.294 328.958 625.627 328.958C627.611 328.958 628.603 329.733 628.603 330.818ZM628.603 334.507V335.313C628.293 335.871 627.518 336.243 626.65 336.243C625.689 336.243 624.728 335.84 624.728 334.879C624.728 333.949 625.689 333.546 626.65 333.546C627.518 333.546 628.293 333.918 628.603 334.507ZM635.78 325.269V339.219H640.647V330.787C640.895 329.826 641.701 329.268 642.662 329.268C643.902 329.268 644.491 330.105 644.491 331.252V339.219H649.327V330.074C649.327 326.974 647.498 324.959 644.398 324.959C642.786 324.959 641.422 325.61 640.647 326.478V325.269H635.78ZM659.512 330.818V331.314C658.954 330.911 657.652 330.539 656.474 330.539C653.467 330.539 651.111 332.275 651.111 334.972C651.111 337.917 653.467 339.467 656.226 339.467C657.714 339.467 659.047 338.971 659.512 338.506V339.219H664.193V330.601C664.193 326.912 661.837 324.959 657.714 324.959C655.73 324.959 653.87 325.424 652.723 326.044V329.95C653.839 329.299 655.203 328.958 656.536 328.958C658.52 328.958 659.512 329.733 659.512 330.818ZM659.512 334.507V335.313C659.202 335.871 658.427 336.243 657.559 336.243C656.598 336.243 655.637 335.84 655.637 334.879C655.637 333.949 656.598 333.546 657.559 333.546C658.427 333.546 659.202 333.918 659.512 334.507ZM675.4 337.328V337.793C675.4 339.746 673.788 340.521 671.928 340.521C670.006 340.521 668.487 340.025 667.061 338.816V343.28C668.177 343.993 670.13 344.458 672.083 344.458C676.547 344.458 680.205 342.35 680.205 337.204V325.269H675.4V326.323C674.78 325.579 673.633 324.959 672.114 324.959C668.177 324.959 665.945 327.966 665.945 331.81C665.945 335.654 668.177 338.692 672.114 338.692C673.633 338.692 674.78 338.041 675.4 337.328ZM675.4 329.981V333.67C675.028 334.29 674.253 334.817 673.323 334.817C671.711 334.817 670.75 333.577 670.75 331.81C670.75 330.043 671.711 328.803 673.323 328.803C674.253 328.803 675.028 329.361 675.4 329.981ZM686.823 333.36H695.41V331.934C695.41 327.78 693.209 324.959 688.869 324.959C685.025 324.959 682.111 327.966 682.111 332.337C682.111 336.832 685.149 339.529 689.613 339.529C691.628 339.529 693.333 339.095 694.418 338.289V334.6C693.023 335.437 691.876 335.716 690.388 335.716C688.59 335.716 687.226 335.034 686.823 333.36ZM689.055 328.648C690.233 328.648 690.946 329.454 691.07 330.632H686.885C687.226 329.361 688.001 328.648 689.055 328.648Z" fill="black"/>
</g>
<path d="M240 179.87L573 179.87M573 179.87L563.798 188.057M573 179.87L563.798 171.252" stroke="#7630EA" stroke-width="2"/>
<ellipse cx="20.0158" cy="20.2519" rx="19.821" ry="20.2519" fill="white"/>
<path d="M15.21 26.2163V29.2523H24.67V26.2163H21.898V15.7443H19.544L15.32 17.7683V21.1343L18.488 19.5723V26.2163H15.21ZM25.8477 27.3383C25.8477 28.5043 26.7497 29.4063 27.8717 29.4063C29.0157 29.4063 29.9177 28.5043 29.9177 27.3383C29.9177 26.1723 29.0157 25.2923 27.8717 25.2923C26.7497 25.2923 25.8477 26.1723 25.8477 27.3383Z" fill="black"/>
<ellipse cx="568.971" cy="20.2519" rx="19.821" ry="20.2519" fill="white"/>
<path d="M573.494 26.2163H569.468L570.788 24.4123C571.954 22.7843 572.944 21.3103 572.944 19.5943C572.944 17.1523 571.228 15.5243 568.544 15.5243C566.586 15.5243 564.936 16.2283 563.902 17.0863V20.4743C564.76 19.7703 566.234 18.8243 567.62 18.8243C568.698 18.8243 569.292 19.3963 569.292 20.2983C569.292 21.4423 568.654 22.2783 567.444 23.8843L563.484 29.1643V29.2523H573.494V26.2163ZM574.848 27.3383C574.848 28.5043 575.75 29.4063 576.872 29.4063C578.016 29.4063 578.918 28.5043 578.918 27.3383C578.918 26.1723 578.016 25.2923 576.872 25.2923C575.75 25.2923 574.848 26.1723 574.848 27.3383Z" fill="black"/>
<defs>
<filter id="filter0_d_2893_18600" x="36.1948" y="307.219" width="372" height="146" filterUnits="userSpaceOnUse" color-interpolation-filters="sRGB">
<feFlood flood-opacity="0" result="BackgroundImageFix"/>
<feColorMatrix in="SourceAlpha" type="matrix" values="0 0 0 0 0 0 0 0 0 0 0 0 0 0 0 0 0 0 127 0" result="hardAlpha"/>
<feOffset dy="6"/>
<feGaussianBlur stdDeviation="6"/>
<feColorMatrix type="matrix" values="0 0 0 0 0 0 0 0 0 0 0 0 0 0 0 0 0 0 0.12 0"/>
<feBlend mode="normal" in2="BackgroundImageFix" result="effect1_dropShadow_2893_18600"/>
<feBlend mode="normal" in="SourceGraphic" in2="effect1_dropShadow_2893_18600" result="shape"/>
</filter>
<filter id="filter1_d_2893_18600" x="408.195" y="307.219" width="372" height="146" filterUnits="userSpaceOnUse" color-interpolation-filters="sRGB">
<feFlood flood-opacity="0" result="BackgroundImageFix"/>
<feColorMatrix in="SourceAlpha" type="matrix" values="0 0 0 0 0 0 0 0 0 0 0 0 0 0 0 0 0 0 127 0" result="hardAlpha"/>
<feOffset dy="6"/>
<feGaussianBlur stdDeviation="6"/>
<feColorMatrix type="matrix" values="0 0 0 0 0 0 0 0 0 0 0 0 0 0 0 0 0 0 0.12 0"/>
<feBlend mode="normal" in2="BackgroundImageFix" result="effect1_dropShadow_2893_18600"/>
<feBlend mode="normal" in="SourceGraphic" in2="effect1_dropShadow_2893_18600" result="shape"/>
</filter>
<clipPath id="clip0_2893_18600">
<rect width="522.24" height="296.453" fill="white" transform="translate(0.194824 67.2191)"/>
</clipPath>
<clipPath id="clip1_2893_18600">
<rect width="24" height="24" fill="white" transform="translate(336.195 362.219)"/>
</clipPath>
<clipPath id="clip2_2893_18600">
<rect width="522.24" height="296.453" fill="white" transform="translate(549.15 67.2191)"/>
</clipPath>
</defs>
</svg>
