<svg width="1095" height="382" viewBox="0 0 1095 382" fill="none" xmlns="http://www.w3.org/2000/svg">
<g clip-path="url(#clip0_2934_18616)" filter="url(#filter0_d_2934_18616)">
<rect width="522" height="72" transform="translate(11.8052 67.2856)" fill="#263040"/>
<path fill-rule="evenodd" clip-rule="evenodd" d="M37.8052 97.2856H81.8052V109.286H37.8052V97.2856ZM40.8052 100.286H78.8052V106.286H40.8052V100.286Z" fill="#01A982"/>
<path d="M99.4852 98.4616H96.9092V102.19H93.1172V98.4616H90.5412V108.286H93.1172V104.398H96.9092V108.286H99.4852V98.4616ZM103.491 105.23H105.251C107.379 105.23 108.819 104.03 108.819 101.854C108.819 99.6616 107.379 98.4616 105.251 98.4616H100.947V108.286H103.491V105.23ZM106.323 101.854C106.323 102.59 105.907 103.086 104.979 103.086H103.491V100.622H104.979C105.907 100.622 106.323 101.102 106.323 101.854ZM116.94 98.4616H109.916V108.286H116.94V106.062H112.444V104.366H116.556V102.206H112.444V100.67H116.94V98.4616ZM126.548 107.188C124.244 107.188 122.768 105.424 122.768 102.76C122.768 100.096 124.37 98.3496 126.674 98.3496C127.88 98.3496 128.924 98.7276 129.86 99.5736V98.0616C129.086 97.4496 127.97 97.0716 126.674 97.0716C123.632 97.0716 121.346 99.3216 121.346 102.76C121.346 106.18 123.434 108.448 126.512 108.448C127.88 108.448 129.338 108.034 130.4 106.864V102.544H126.656V103.732H129.086V106.342C128.366 106.936 127.556 107.188 126.548 107.188ZM136.66 101.644V100.258C136.516 100.186 136.228 100.132 135.886 100.132C135.004 100.132 134.248 100.654 133.906 101.338V100.294H132.556V108.286H133.906V102.922C134.176 101.986 134.914 101.428 135.76 101.428C136.102 101.428 136.444 101.5 136.66 101.644ZM138.867 104.524H144.375V104.038C144.375 101.698 143.259 100.132 141.099 100.132C138.975 100.132 137.535 101.878 137.535 104.362C137.535 106.882 139.083 108.448 141.387 108.448C142.341 108.448 143.169 108.25 143.817 107.746V106.504C143.097 107.044 142.449 107.26 141.549 107.26C140.091 107.26 138.921 106.378 138.867 104.524ZM141.117 101.284C142.413 101.284 143.007 102.292 143.061 103.462H138.939C139.191 101.986 140.055 101.284 141.117 101.284ZM146.97 104.524H152.478V104.038C152.478 101.698 151.362 100.132 149.202 100.132C147.078 100.132 145.638 101.878 145.638 104.362C145.638 106.882 147.186 108.448 149.49 108.448C150.444 108.448 151.272 108.25 151.92 107.746V106.504C151.2 107.044 150.552 107.26 149.652 107.26C148.194 107.26 147.024 106.378 146.97 104.524ZM149.22 101.284C150.516 101.284 151.11 102.292 151.164 103.462H147.042C147.294 101.986 148.158 101.284 149.22 101.284ZM154.318 100.294V108.286H155.668V102.868C155.956 102.004 156.766 101.374 157.702 101.374C158.908 101.374 159.466 102.148 159.466 103.264V108.286H160.834V103.048C160.834 101.302 159.844 100.132 158.026 100.132C157 100.132 156.136 100.672 155.668 101.302V100.294H154.318ZM163.232 97.2336V108.286H170.288V107.008H164.654V97.2336H163.232ZM176.641 102.976V104.02C176.299 103.714 175.471 103.372 174.643 103.372C172.933 103.372 171.601 104.38 171.601 105.874C171.601 107.458 172.933 108.43 174.571 108.43C175.507 108.43 176.335 108.016 176.641 107.692V108.286H177.955V102.868C177.955 101.176 176.839 100.132 174.949 100.132C173.959 100.132 173.005 100.42 172.465 100.798V102.076C173.131 101.644 173.851 101.374 174.733 101.374C175.903 101.374 176.641 101.986 176.641 102.976ZM176.641 105.478V106.306C176.425 106.9 175.633 107.296 174.787 107.296C173.815 107.296 172.879 106.846 172.879 105.874C172.879 104.92 173.815 104.488 174.787 104.488C175.633 104.488 176.425 104.884 176.641 105.478ZM186.977 108.286L182.981 103.948L186.905 100.294H185.159L181.613 103.66V96.5856H180.263V108.286H181.613V104.326L185.303 108.286H186.977ZM188.912 104.524H194.42V104.038C194.42 101.698 193.304 100.132 191.144 100.132C189.02 100.132 187.58 101.878 187.58 104.362C187.58 106.882 189.128 108.448 191.432 108.448C192.386 108.448 193.214 108.25 193.862 107.746V106.504C193.142 107.044 192.494 107.26 191.594 107.26C190.136 107.26 188.966 106.378 188.912 104.524ZM191.162 101.284C192.458 101.284 193.052 102.292 193.106 103.462H188.984C189.236 101.986 190.1 101.284 191.162 101.284Z" fill="white"/>
<rect width="522" height="228" transform="translate(12 139.252)" fill="#263040"/>
<path fill-rule="evenodd" clip-rule="evenodd" d="M82.4141 181.253L87.707 175.96L86.2928 174.545L79.5857 181.253L86.2928 187.96L87.707 186.545L82.4141 181.253Z" fill="white"/>
<path d="M105.726 186.252V175.2H102.828V186.252H105.726ZM112.493 185.604V186.252H115.319V174.552H112.493V178.8C112.115 178.368 111.323 177.972 110.495 177.972C108.155 177.972 106.877 179.862 106.877 182.202C106.877 184.542 108.155 186.432 110.495 186.432C111.323 186.432 112.115 186.036 112.493 185.604ZM112.493 181.122V183.264C112.277 183.714 111.809 184.02 111.251 184.02C110.279 184.02 109.703 183.246 109.703 182.202C109.703 181.158 110.279 180.366 111.251 180.366C111.791 180.366 112.277 180.69 112.493 181.122ZM119.14 182.85H124.126V182.022C124.126 179.61 122.848 177.972 120.328 177.972C118.096 177.972 116.404 179.718 116.404 182.256C116.404 184.866 118.168 186.432 120.76 186.432C121.93 186.432 122.92 186.18 123.55 185.712V183.57C122.74 184.056 122.074 184.218 121.21 184.218C120.166 184.218 119.374 183.822 119.14 182.85ZM120.436 180.114C121.12 180.114 121.534 180.582 121.606 181.266H119.176C119.374 180.528 119.824 180.114 120.436 180.114ZM125.256 178.152V186.252H128.082V181.356C128.226 180.798 128.694 180.474 129.252 180.474C129.972 180.474 130.314 180.96 130.314 181.626V186.252H133.122V180.942C133.122 179.142 132.06 177.972 130.26 177.972C129.324 177.972 128.532 178.35 128.082 178.854V178.152H125.256ZM138.334 186.252V180.348H139.918V178.152H138.334V175.92H135.526V178.152H134.122V180.348H135.526V186.252H138.334ZM143.977 175.956C143.977 175.02 143.239 174.426 142.375 174.426C141.511 174.426 140.773 175.02 140.773 175.956C140.773 176.874 141.511 177.468 142.375 177.468C143.239 177.468 143.977 176.874 143.977 175.956ZM143.779 186.252V178.152H140.953V186.252H143.779ZM149.057 186.252V180.348H150.641V178.152H149.057V175.92H146.249V178.152H144.845V180.348H146.249V186.252H149.057ZM152.882 189.114H155.672L159.848 178.152H157.04L155.528 182.76L153.98 178.152H151.046L154.07 186.054L152.882 189.114ZM169.067 177.306C169.985 177.306 170.813 177.756 171.425 178.278V175.812C170.849 175.344 169.841 175.02 168.851 175.02C166.673 175.02 165.179 176.244 165.179 178.17C165.179 178.872 165.359 179.448 165.773 180.06C164.747 180.654 164.045 181.716 164.045 182.922C164.045 185.1 165.611 186.432 167.969 186.432C168.941 186.432 169.877 186.144 170.705 185.622L171.281 186.252H174.449L172.451 183.948C173.153 182.958 173.567 181.734 173.585 180.402H171.101C171.083 181.014 170.975 181.572 170.813 182.04L168.689 179.574C168.311 179.142 167.933 178.728 167.933 178.206C167.933 177.666 168.347 177.306 169.067 177.306ZM168.005 184.254C167.123 184.254 166.637 183.678 166.637 182.922C166.637 182.418 166.871 181.986 167.213 181.752L169.211 183.966C168.833 184.146 168.419 184.254 168.005 184.254ZM185.421 175.2H182.469L178.257 186.252H181.119L181.893 184.11H185.907L186.699 186.252H189.633L185.421 175.2ZM182.775 181.734L183.909 178.62L185.043 181.734H182.775ZM189.758 182.202C189.758 184.812 191.558 186.432 193.988 186.432C194.816 186.432 195.59 186.27 196.166 185.856V183.48C195.644 183.858 195.086 184.056 194.42 184.056C193.376 184.056 192.548 183.426 192.548 182.202C192.548 180.978 193.376 180.348 194.42 180.348C195.086 180.348 195.644 180.546 196.166 180.924V178.548C195.59 178.134 194.816 177.972 193.988 177.972C191.558 177.972 189.758 179.592 189.758 182.202ZM196.965 182.202C196.965 184.812 198.765 186.432 201.195 186.432C202.023 186.432 202.797 186.27 203.373 185.856V183.48C202.851 183.858 202.293 184.056 201.627 184.056C200.583 184.056 199.755 183.426 199.755 182.202C199.755 180.978 200.583 180.348 201.627 180.348C202.293 180.348 202.851 180.546 203.373 180.924V178.548C202.797 178.134 202.023 177.972 201.195 177.972C198.765 177.972 196.965 179.592 196.965 182.202ZM206.908 182.85H211.894V182.022C211.894 179.61 210.616 177.972 208.096 177.972C205.864 177.972 204.172 179.718 204.172 182.256C204.172 184.866 205.936 186.432 208.528 186.432C209.698 186.432 210.688 186.18 211.318 185.712V183.57C210.508 184.056 209.842 184.218 208.978 184.218C207.934 184.218 207.142 183.822 206.908 182.85ZM208.204 180.114C208.888 180.114 209.302 180.582 209.374 181.266H206.944C207.142 180.528 207.592 180.114 208.204 180.114ZM212.753 183.282V185.658C213.509 186.162 214.697 186.432 215.831 186.432C217.829 186.432 219.323 185.586 219.323 183.858C219.323 182.49 218.621 181.77 216.857 181.302L216.119 181.086C215.723 180.978 215.489 180.87 215.489 180.564C215.489 180.24 215.813 180.078 216.299 180.078C217.217 180.078 218.081 180.456 218.855 181.014V178.692C218.063 178.206 217.181 177.972 216.029 177.972C214.121 177.972 212.717 178.926 212.717 180.618C212.717 182.076 213.671 182.778 215.165 183.102L215.795 183.264C216.281 183.372 216.533 183.498 216.533 183.822C216.533 184.182 216.173 184.308 215.615 184.308C214.787 184.308 213.527 183.912 212.753 183.282ZM220.154 183.282V185.658C220.91 186.162 222.098 186.432 223.232 186.432C225.23 186.432 226.724 185.586 226.724 183.858C226.724 182.49 226.022 181.77 224.258 181.302L223.52 181.086C223.124 180.978 222.89 180.87 222.89 180.564C222.89 180.24 223.214 180.078 223.7 180.078C224.618 180.078 225.482 180.456 226.256 181.014V178.692C225.464 178.206 224.582 177.972 223.43 177.972C221.522 177.972 220.118 178.926 220.118 180.618C220.118 182.076 221.072 182.778 222.566 183.102L223.196 183.264C223.682 183.372 223.934 183.498 223.934 183.822C223.934 184.182 223.574 184.308 223.016 184.308C222.188 184.308 220.928 183.912 220.154 183.282Z" fill="white"/>
<rect x="49" y="155.252" width="202" height="52" stroke="#7630EA" stroke-width="2"/>
<path d="M71.052 279.612C76.884 279.612 80.664 276.3 80.664 270.252V257.148H74.904V269.712C74.904 272.844 73.428 274.464 71.052 274.464C68.64 274.464 67.164 272.844 67.164 269.712V257.148H61.404V270.216C61.404 276.3 65.22 279.612 71.052 279.612ZM83.0141 273.312V278.064C84.5261 279.072 86.9021 279.612 89.1701 279.612C93.1661 279.612 96.1541 277.92 96.1541 274.464C96.1541 271.728 94.7501 270.288 91.2221 269.352L89.7461 268.92C88.9541 268.704 88.4861 268.488 88.4861 267.876C88.4861 267.228 89.1341 266.904 90.1061 266.904C91.9421 266.904 93.6701 267.66 95.2181 268.776V264.132C93.6341 263.16 91.8701 262.692 89.5661 262.692C85.7501 262.692 82.9421 264.6 82.9421 267.984C82.9421 270.9 84.8501 272.304 87.8381 272.952L89.0981 273.276C90.0701 273.492 90.5741 273.744 90.5741 274.392C90.5741 275.112 89.8541 275.364 88.7381 275.364C87.0821 275.364 84.5621 274.572 83.0141 273.312ZM103.104 272.448H113.076V270.792C113.076 265.968 110.52 262.692 105.48 262.692C101.016 262.692 97.6324 266.184 97.6324 271.26C97.6324 276.48 101.16 279.612 106.344 279.612C108.684 279.612 110.664 279.108 111.924 278.172V273.888C110.304 274.86 108.972 275.184 107.244 275.184C105.156 275.184 103.572 274.392 103.104 272.448ZM105.696 266.976C107.064 266.976 107.892 267.912 108.036 269.28H103.176C103.572 267.804 104.472 266.976 105.696 266.976ZM126.208 268.416V262.98C125.956 262.836 125.38 262.692 124.66 262.692C123.04 262.692 121.78 263.412 120.988 264.492V263.052H115.336V279.252H120.988V269.748C121.276 268.596 122.32 267.912 123.868 267.912C124.768 267.912 125.524 268.056 126.208 268.416ZM127.838 273.312V278.064C129.35 279.072 131.726 279.612 133.994 279.612C137.99 279.612 140.978 277.92 140.978 274.464C140.978 271.728 139.574 270.288 136.046 269.352L134.57 268.92C133.778 268.704 133.31 268.488 133.31 267.876C133.31 267.228 133.958 266.904 134.93 266.904C136.766 266.904 138.494 267.66 140.042 268.776V264.132C138.458 263.16 136.694 262.692 134.39 262.692C130.574 262.692 127.766 264.6 127.766 267.984C127.766 270.9 129.674 272.304 132.662 272.952L133.922 273.276C134.894 273.492 135.398 273.744 135.398 274.392C135.398 275.112 134.678 275.364 133.562 275.364C131.906 275.364 129.386 274.572 127.838 273.312Z" fill="white"/>
<g filter="url(#filter1_d_2934_18616)">
<rect x="60" y="313.252" width="348" height="122" rx="12" fill="#404B5C"/>
<path d="M84.6748 343.2V344.46H88.5268V354.252H89.9488V344.46H93.8008V343.2H84.6748ZM101.109 350.256C101.109 347.808 99.6148 346.098 97.4368 346.098C95.2408 346.098 93.7648 347.808 93.7648 350.256C93.7648 352.704 95.2408 354.414 97.4368 354.414C99.6148 354.414 101.109 352.704 101.109 350.256ZM99.7408 350.256C99.7408 352.002 98.8768 353.226 97.4368 353.226C95.9968 353.226 95.1328 352.002 95.1328 350.256C95.1328 348.51 95.9968 347.286 97.4368 347.286C98.8768 347.286 99.7408 348.51 99.7408 350.256ZM105.045 354.252V347.412H106.899V346.26H105.045V344.154H103.695V346.26H102.021V347.412H103.695V354.252H105.045ZM112.814 348.942V349.986C112.472 349.68 111.644 349.338 110.816 349.338C109.106 349.338 107.774 350.346 107.774 351.84C107.774 353.424 109.106 354.396 110.744 354.396C111.68 354.396 112.508 353.982 112.814 353.658V354.252H114.128V348.834C114.128 347.142 113.012 346.098 111.122 346.098C110.132 346.098 109.178 346.386 108.638 346.764V348.042C109.304 347.61 110.024 347.34 110.906 347.34C112.076 347.34 112.814 347.952 112.814 348.942ZM112.814 351.444V352.272C112.598 352.866 111.806 353.262 110.96 353.262C109.988 353.262 109.052 352.812 109.052 351.84C109.052 350.886 109.988 350.454 110.96 350.454C111.806 350.454 112.598 350.85 112.814 351.444ZM117.786 354.252V342.552H116.436V354.252H117.786ZM128.419 354.414C130.939 354.414 132.757 352.902 132.757 349.878V343.2H131.335V349.698C131.335 352.056 130.201 353.154 128.419 353.154C126.637 353.154 125.503 352.056 125.503 349.698V343.2H124.099V349.86C124.099 352.902 125.917 354.414 128.419 354.414ZM134.636 352.182V353.622C135.23 354.09 136.22 354.414 137.264 354.414C138.938 354.414 140.252 353.568 140.252 352.092C140.252 350.958 139.586 350.256 138.38 349.842L137.156 349.428C136.4 349.158 135.968 348.942 135.968 348.294C135.968 347.61 136.652 347.25 137.48 347.25C138.452 347.25 139.19 347.646 139.856 348.204V346.8C139.208 346.35 138.38 346.098 137.48 346.098C135.896 346.098 134.654 346.944 134.654 348.348C134.654 349.644 135.464 350.22 136.67 350.616L137.768 350.994C138.47 351.228 138.92 351.552 138.92 352.146C138.92 352.938 138.146 353.262 137.264 353.262C136.292 353.262 135.374 352.866 134.636 352.182ZM142.927 350.49H148.435V350.004C148.435 347.664 147.319 346.098 145.159 346.098C143.035 346.098 141.595 347.844 141.595 350.328C141.595 352.848 143.143 354.414 145.447 354.414C146.401 354.414 147.229 354.216 147.877 353.712V352.47C147.157 353.01 146.509 353.226 145.609 353.226C144.151 353.226 142.981 352.344 142.927 350.49ZM145.177 347.25C146.473 347.25 147.067 348.258 147.121 349.428H142.999C143.251 347.952 144.115 347.25 145.177 347.25ZM154.378 347.61V346.224C154.234 346.152 153.946 346.098 153.604 346.098C152.722 346.098 151.966 346.62 151.624 347.304V346.26H150.274V354.252H151.624V348.888C151.894 347.952 152.632 347.394 153.478 347.394C153.82 347.394 154.162 347.466 154.378 347.61ZM155.537 352.182V353.622C156.131 354.09 157.121 354.414 158.165 354.414C159.839 354.414 161.153 353.568 161.153 352.092C161.153 350.958 160.487 350.256 159.281 349.842L158.057 349.428C157.301 349.158 156.869 348.942 156.869 348.294C156.869 347.61 157.553 347.25 158.381 347.25C159.353 347.25 160.091 347.646 160.757 348.204V346.8C160.109 346.35 159.281 346.098 158.381 346.098C156.797 346.098 155.555 346.944 155.555 348.348C155.555 349.644 156.365 350.22 157.571 350.616L158.669 350.994C159.371 351.228 159.821 351.552 159.821 352.146C159.821 352.938 159.047 353.262 158.165 353.262C157.193 353.262 156.275 352.866 155.537 352.182Z" fill="white"/>
<circle cx="360" cy="374.252" r="24" fill="#263040"/>
<g clip-path="url(#clip1_2934_18616)">
<rect width="24" height="24" transform="translate(348 362.252)" fill="#263040"/>
</g>
</g>
<g filter="url(#filter2_d_2934_18616)">
<rect x="432" y="313.252" width="348" height="122" rx="12" fill="#404B5C"/>
<path d="M462.305 343.2H460.973L456.653 354.252H458.093L459.353 350.922H463.907L465.185 354.252H466.625L462.305 343.2ZM459.821 349.68L461.621 344.964L463.421 349.68H459.821ZM467.505 350.256C467.505 352.812 469.197 354.414 471.357 354.414C472.131 354.414 472.941 354.234 473.499 353.748V352.38C472.923 352.956 472.221 353.208 471.447 353.208C470.025 353.208 468.873 352.092 468.873 350.256C468.873 348.42 470.025 347.304 471.447 347.304C472.221 347.304 472.923 347.556 473.499 348.132V346.764C472.941 346.278 472.131 346.098 471.357 346.098C469.197 346.098 467.505 347.7 467.505 350.256ZM477.643 354.252V347.412H479.497V346.26H477.643V344.154H476.293V346.26H474.619V347.412H476.293V354.252H477.643ZM482.69 343.848C482.69 343.362 482.294 342.984 481.808 342.984C481.34 342.984 480.944 343.362 480.944 343.848C480.944 344.316 481.34 344.712 481.808 344.712C482.294 344.712 482.69 344.316 482.69 343.848ZM482.492 354.252V346.26H481.142V354.252H482.492ZM487.117 354.252H488.449L491.563 346.26H490.141L487.819 352.542L485.479 346.26H484.021L487.117 354.252ZM493.71 350.49H499.218V350.004C499.218 347.664 498.102 346.098 495.942 346.098C493.818 346.098 492.378 347.844 492.378 350.328C492.378 352.848 493.926 354.414 496.23 354.414C497.184 354.414 498.012 354.216 498.66 353.712V352.47C497.94 353.01 497.292 353.226 496.392 353.226C494.934 353.226 493.764 352.344 493.71 350.49ZM495.96 347.25C497.256 347.25 497.85 348.258 497.904 349.428H493.782C494.034 347.952 494.898 347.25 495.96 347.25ZM509.278 354.414C511.798 354.414 513.616 352.902 513.616 349.878V343.2H512.194V349.698C512.194 352.056 511.06 353.154 509.278 353.154C507.496 353.154 506.362 352.056 506.362 349.698V343.2H504.958V349.86C504.958 352.902 506.776 354.414 509.278 354.414ZM515.496 352.182V353.622C516.09 354.09 517.08 354.414 518.124 354.414C519.798 354.414 521.112 353.568 521.112 352.092C521.112 350.958 520.446 350.256 519.24 349.842L518.016 349.428C517.26 349.158 516.828 348.942 516.828 348.294C516.828 347.61 517.512 347.25 518.34 347.25C519.312 347.25 520.05 347.646 520.716 348.204V346.8C520.068 346.35 519.24 346.098 518.34 346.098C516.756 346.098 515.514 346.944 515.514 348.348C515.514 349.644 516.324 350.22 517.53 350.616L518.628 350.994C519.33 351.228 519.78 351.552 519.78 352.146C519.78 352.938 519.006 353.262 518.124 353.262C517.152 353.262 516.234 352.866 515.496 352.182ZM523.786 350.49H529.294V350.004C529.294 347.664 528.178 346.098 526.018 346.098C523.894 346.098 522.454 347.844 522.454 350.328C522.454 352.848 524.002 354.414 526.306 354.414C527.26 354.414 528.088 354.216 528.736 353.712V352.47C528.016 353.01 527.368 353.226 526.468 353.226C525.01 353.226 523.84 352.344 523.786 350.49ZM526.036 347.25C527.332 347.25 527.926 348.258 527.98 349.428H523.858C524.11 347.952 524.974 347.25 526.036 347.25ZM535.238 347.61V346.224C535.094 346.152 534.806 346.098 534.464 346.098C533.582 346.098 532.826 346.62 532.484 347.304V346.26H531.134V354.252H532.484V348.888C532.754 347.952 533.492 347.394 534.338 347.394C534.68 347.394 535.022 347.466 535.238 347.61ZM536.396 352.182V353.622C536.99 354.09 537.98 354.414 539.024 354.414C540.698 354.414 542.012 353.568 542.012 352.092C542.012 350.958 541.346 350.256 540.14 349.842L538.916 349.428C538.16 349.158 537.728 348.942 537.728 348.294C537.728 347.61 538.412 347.25 539.24 347.25C540.212 347.25 540.95 347.646 541.616 348.204V346.8C540.968 346.35 540.14 346.098 539.24 346.098C537.656 346.098 536.414 346.944 536.414 348.348C536.414 349.644 537.224 350.22 538.43 350.616L539.528 350.994C540.23 351.228 540.68 351.552 540.68 352.146C540.68 352.938 539.906 353.262 539.024 353.262C538.052 353.262 537.134 352.866 536.396 352.182Z" fill="white"/>
</g>
</g>
<g clip-path="url(#clip2_2934_18616)" filter="url(#filter3_d_2934_18616)">
<rect width="522" height="296" transform="translate(561 67.2524)" fill="white"/>
<rect width="524" height="298" transform="translate(560.85 66.2856)" fill="#263040"/>
<rect width="523" height="72" transform="translate(560.85 66.2856)" fill="#263040"/>
<path fill-rule="evenodd" clip-rule="evenodd" d="M586.85 96.2856H630.85V108.286H586.85V96.2856ZM589.85 99.2856H627.85V105.286H589.85V99.2856Z" fill="#01A982"/>
<path d="M648.53 97.4616H645.954V101.19H642.162V97.4616H639.586V107.286H642.162V103.398H645.954V107.286H648.53V97.4616ZM652.536 104.23H654.296C656.424 104.23 657.864 103.03 657.864 100.854C657.864 98.6616 656.424 97.4616 654.296 97.4616H649.992V107.286H652.536V104.23ZM655.368 100.854C655.368 101.59 654.952 102.086 654.024 102.086H652.536V99.6216H654.024C654.952 99.6216 655.368 100.102 655.368 100.854ZM665.985 97.4616H658.961V107.286H665.985V105.062H661.489V103.366H665.601V101.206H661.489V99.6696H665.985V97.4616ZM676.362 106.188C674.058 106.188 672.582 104.424 672.582 101.76C672.582 99.0956 674.184 97.3496 676.488 97.3496C677.694 97.3496 678.738 97.7276 679.674 98.5736V97.0616C678.9 96.4496 677.784 96.0716 676.488 96.0716C673.446 96.0716 671.16 98.3216 671.16 101.76C671.16 105.18 673.248 107.448 676.326 107.448C677.694 107.448 679.152 107.034 680.214 105.864V101.544H676.47V102.732H678.9V105.342C678.18 105.936 677.37 106.188 676.362 106.188ZM686.474 100.644V99.2576C686.33 99.1856 686.042 99.1316 685.7 99.1316C684.818 99.1316 684.062 99.6536 683.72 100.338V99.2936H682.37V107.286H683.72V101.922C683.99 100.986 684.728 100.428 685.574 100.428C685.916 100.428 686.258 100.5 686.474 100.644ZM688.681 103.524H694.189V103.038C694.189 100.698 693.073 99.1316 690.913 99.1316C688.789 99.1316 687.349 100.878 687.349 103.362C687.349 105.882 688.897 107.448 691.201 107.448C692.155 107.448 692.983 107.25 693.631 106.746V105.504C692.911 106.044 692.263 106.26 691.363 106.26C689.905 106.26 688.735 105.378 688.681 103.524ZM690.931 100.284C692.227 100.284 692.821 101.292 692.875 102.462H688.753C689.005 100.986 689.869 100.284 690.931 100.284ZM696.784 103.524H702.292V103.038C702.292 100.698 701.176 99.1316 699.016 99.1316C696.892 99.1316 695.452 100.878 695.452 103.362C695.452 105.882 697 107.448 699.304 107.448C700.258 107.448 701.086 107.25 701.734 106.746V105.504C701.014 106.044 700.366 106.26 699.466 106.26C698.008 106.26 696.838 105.378 696.784 103.524ZM699.034 100.284C700.33 100.284 700.924 101.292 700.978 102.462H696.856C697.108 100.986 697.972 100.284 699.034 100.284ZM704.132 99.2936V107.286H705.482V101.868C705.77 101.004 706.58 100.374 707.516 100.374C708.722 100.374 709.28 101.148 709.28 102.264V107.286H710.648V102.048C710.648 100.302 709.658 99.1316 707.84 99.1316C706.814 99.1316 705.95 99.6716 705.482 100.302V99.2936H704.132ZM713.046 96.2336V107.286H720.102V106.008H714.468V96.2336H713.046ZM726.455 101.976V103.02C726.113 102.714 725.285 102.372 724.457 102.372C722.747 102.372 721.415 103.38 721.415 104.874C721.415 106.458 722.747 107.43 724.385 107.43C725.321 107.43 726.149 107.016 726.455 106.692V107.286H727.769V101.868C727.769 100.176 726.653 99.1316 724.763 99.1316C723.773 99.1316 722.819 99.4196 722.279 99.7976V101.076C722.945 100.644 723.665 100.374 724.547 100.374C725.717 100.374 726.455 100.986 726.455 101.976ZM726.455 104.478V105.306C726.239 105.9 725.447 106.296 724.601 106.296C723.629 106.296 722.693 105.846 722.693 104.874C722.693 103.92 723.629 103.488 724.601 103.488C725.447 103.488 726.239 103.884 726.455 104.478ZM736.791 107.286L732.795 102.948L736.719 99.2936H734.973L731.427 102.66V95.5856H730.077V107.286H731.427V103.326L735.117 107.286H736.791ZM738.726 103.524H744.234V103.038C744.234 100.698 743.118 99.1316 740.958 99.1316C738.834 99.1316 737.394 100.878 737.394 103.362C737.394 105.882 738.942 107.448 741.246 107.448C742.2 107.448 743.028 107.25 743.676 106.746V105.504C742.956 106.044 742.308 106.26 741.408 106.26C739.95 106.26 738.78 105.378 738.726 103.524ZM740.976 100.284C742.272 100.284 742.866 101.292 742.92 102.462H738.798C739.05 100.986 739.914 100.284 740.976 100.284Z" fill="white"/>
<path d="M616.452 219.252V197.148H610.656V219.252H616.452ZM629.985 217.956V219.252H635.637V195.852H629.985V204.348C629.229 203.484 627.645 202.692 625.989 202.692C621.309 202.692 618.753 206.472 618.753 211.152C618.753 215.832 621.309 219.612 625.989 219.612C627.645 219.612 629.229 218.82 629.985 217.956ZM629.985 208.992V213.276C629.553 214.176 628.617 214.788 627.501 214.788C625.557 214.788 624.405 213.24 624.405 211.152C624.405 209.064 625.557 207.48 627.501 207.48C628.581 207.48 629.553 208.128 629.985 208.992ZM643.28 212.448H653.252V210.792C653.252 205.968 650.696 202.692 645.656 202.692C641.192 202.692 637.808 206.184 637.808 211.26C637.808 216.48 641.336 219.612 646.52 219.612C648.86 219.612 650.84 219.108 652.1 218.172V213.888C650.48 214.86 649.148 215.184 647.42 215.184C645.332 215.184 643.748 214.392 643.28 212.448ZM645.872 206.976C647.24 206.976 648.068 207.912 648.212 209.28H643.352C643.748 207.804 644.648 206.976 645.872 206.976ZM655.512 203.052V219.252H661.164V209.46C661.452 208.344 662.388 207.696 663.504 207.696C664.944 207.696 665.628 208.668 665.628 210V219.252H671.244V208.632C671.244 205.032 669.12 202.692 665.52 202.692C663.648 202.692 662.064 203.448 661.164 204.456V203.052H655.512ZM681.668 219.252V207.444H684.836V203.052H681.668V198.588H676.052V203.052H673.244V207.444H676.052V219.252H681.668ZM692.955 198.66C692.955 196.788 691.479 195.6 689.751 195.6C688.023 195.6 686.547 196.788 686.547 198.66C686.547 200.496 688.023 201.684 689.751 201.684C691.479 201.684 692.955 200.496 692.955 198.66ZM692.559 219.252V203.052H686.907V219.252H692.559ZM703.113 219.252V207.444H706.281V203.052H703.113V198.588H697.497V203.052H694.689V207.444H697.497V219.252H703.113ZM710.764 224.976H716.344L724.696 203.052H719.08L716.056 212.268L712.96 203.052H707.092L713.14 218.856L710.764 224.976ZM743.133 201.36C744.969 201.36 746.625 202.26 747.849 203.304V198.372C746.697 197.436 744.681 196.788 742.701 196.788C738.345 196.788 735.357 199.236 735.357 203.088C735.357 204.492 735.717 205.644 736.545 206.868C734.493 208.056 733.089 210.18 733.089 212.592C733.089 216.948 736.221 219.612 740.937 219.612C742.881 219.612 744.753 219.036 746.409 217.992L747.561 219.252H753.897L749.901 214.644C751.305 212.664 752.133 210.216 752.169 207.552H747.201C747.165 208.776 746.949 209.892 746.625 210.828L742.377 205.896C741.621 205.032 740.865 204.204 740.865 203.16C740.865 202.08 741.693 201.36 743.133 201.36ZM741.009 215.256C739.245 215.256 738.273 214.104 738.273 212.592C738.273 211.584 738.741 210.72 739.425 210.252L743.421 214.68C742.665 215.04 741.837 215.256 741.009 215.256ZM775.842 197.148H769.938L761.514 219.252H767.238L768.786 214.968H776.814L778.398 219.252H784.266L775.842 197.148ZM770.55 210.216L772.818 203.988L775.086 210.216H770.55ZM784.515 211.152C784.515 216.372 788.115 219.612 792.975 219.612C794.631 219.612 796.179 219.288 797.331 218.46V213.708C796.287 214.464 795.171 214.86 793.839 214.86C791.751 214.86 790.095 213.6 790.095 211.152C790.095 208.704 791.751 207.444 793.839 207.444C795.171 207.444 796.287 207.84 797.331 208.596V203.844C796.179 203.016 794.631 202.692 792.975 202.692C788.115 202.692 784.515 205.932 784.515 211.152ZM798.929 211.152C798.929 216.372 802.529 219.612 807.389 219.612C809.045 219.612 810.593 219.288 811.745 218.46V213.708C810.701 214.464 809.585 214.86 808.253 214.86C806.165 214.86 804.509 213.6 804.509 211.152C804.509 208.704 806.165 207.444 808.253 207.444C809.585 207.444 810.701 207.84 811.745 208.596V203.844C810.593 203.016 809.045 202.692 807.389 202.692C802.529 202.692 798.929 205.932 798.929 211.152ZM818.815 212.448H828.787V210.792C828.787 205.968 826.231 202.692 821.191 202.692C816.727 202.692 813.343 206.184 813.343 211.26C813.343 216.48 816.871 219.612 822.055 219.612C824.395 219.612 826.375 219.108 827.635 218.172V213.888C826.015 214.86 824.683 215.184 822.955 215.184C820.867 215.184 819.283 214.392 818.815 212.448ZM821.407 206.976C822.775 206.976 823.603 207.912 823.747 209.28H818.887C819.283 207.804 820.183 206.976 821.407 206.976ZM830.506 213.312V218.064C832.018 219.072 834.394 219.612 836.662 219.612C840.658 219.612 843.646 217.92 843.646 214.464C843.646 211.728 842.242 210.288 838.714 209.352L837.238 208.92C836.446 208.704 835.978 208.488 835.978 207.876C835.978 207.228 836.626 206.904 837.598 206.904C839.434 206.904 841.162 207.66 842.71 208.776V204.132C841.126 203.16 839.362 202.692 837.058 202.692C833.242 202.692 830.434 204.6 830.434 207.984C830.434 210.9 832.342 212.304 835.33 212.952L836.59 213.276C837.562 213.492 838.066 213.744 838.066 214.392C838.066 215.112 837.346 215.364 836.23 215.364C834.574 215.364 832.054 214.572 830.506 213.312ZM845.307 213.312V218.064C846.819 219.072 849.195 219.612 851.463 219.612C855.459 219.612 858.447 217.92 858.447 214.464C858.447 211.728 857.043 210.288 853.515 209.352L852.039 208.92C851.247 208.704 850.779 208.488 850.779 207.876C850.779 207.228 851.427 206.904 852.399 206.904C854.235 206.904 855.963 207.66 857.511 208.776V204.132C855.927 203.16 854.163 202.692 851.859 202.692C848.043 202.692 845.235 204.6 845.235 207.984C845.235 210.9 847.143 212.304 850.131 212.952L851.391 213.276C852.363 213.492 852.867 213.744 852.867 214.392C852.867 215.112 852.147 215.364 851.031 215.364C849.375 215.364 846.855 214.572 845.307 213.312Z" fill="white"/>
<path d="M609.902 253.326V255.196C610.826 255.922 612.322 256.45 614.148 256.45C616.766 256.45 618.702 255.064 618.702 252.754C618.702 250.884 617.778 249.806 615.71 249.014L613.576 248.178C612.322 247.694 611.552 247.21 611.552 246.066C611.552 244.724 612.718 244.064 614.214 244.064C615.776 244.064 616.986 244.614 618.064 245.472V243.646C617.052 242.942 615.666 242.546 614.192 242.546C611.86 242.546 609.858 243.756 609.858 246.088C609.858 248.222 611.31 249.124 612.894 249.74L614.874 250.51C616.304 251.104 617.03 251.588 617.03 252.776C617.03 254.162 615.886 254.91 614.148 254.91C612.564 254.91 611.156 254.404 609.902 253.326ZM622.097 251.654H628.829V251.06C628.829 248.2 627.465 246.286 624.825 246.286C622.229 246.286 620.469 248.42 620.469 251.456C620.469 254.536 622.361 256.45 625.177 256.45C626.343 256.45 627.355 256.208 628.147 255.592V254.074C627.267 254.734 626.475 254.998 625.375 254.998C623.593 254.998 622.163 253.92 622.097 251.654ZM624.847 247.694C626.431 247.694 627.157 248.926 627.223 250.356H622.185C622.493 248.552 623.549 247.694 624.847 247.694ZM630.374 251.368C630.374 254.492 632.442 256.45 635.082 256.45C636.028 256.45 637.018 256.23 637.7 255.636V253.964C636.996 254.668 636.138 254.976 635.192 254.976C633.454 254.976 632.046 253.612 632.046 251.368C632.046 249.124 633.454 247.76 635.192 247.76C636.138 247.76 636.996 248.068 637.7 248.772V247.1C637.018 246.506 636.028 246.286 635.082 246.286C632.442 246.286 630.374 248.244 630.374 251.368ZM647.782 256.252V246.484H646.11V253.106C645.758 254.162 644.812 254.932 643.668 254.932C642.194 254.932 641.534 253.986 641.534 252.622V246.484H639.862V252.886C639.862 255.02 641.05 256.45 643.272 256.45C644.526 256.45 645.56 255.79 646.11 255.02V256.252H647.782ZM655.73 248.134V246.44C655.554 246.352 655.202 246.286 654.784 246.286C653.706 246.286 652.782 246.924 652.364 247.76V246.484H650.714V256.252H652.364V249.696C652.694 248.552 653.596 247.87 654.63 247.87C655.048 247.87 655.466 247.958 655.73 248.134ZM658.427 251.654H665.159V251.06C665.159 248.2 663.795 246.286 661.155 246.286C658.559 246.286 656.799 248.42 656.799 251.456C656.799 254.536 658.691 256.45 661.507 256.45C662.673 256.45 663.685 256.208 664.477 255.592V254.074C663.597 254.734 662.805 254.998 661.705 254.998C659.923 254.998 658.493 253.92 658.427 251.654ZM661.177 247.694C662.761 247.694 663.487 248.926 663.553 250.356H658.515C658.823 248.552 659.879 247.694 661.177 247.694ZM669.058 256.252V241.952H667.408V256.252H669.058ZM673.259 259.992H674.887L680.145 246.484H678.429L675.591 254.184L672.709 246.484H670.927L674.733 256.318L673.259 259.992ZM693.802 247.848C693.34 246.924 692.394 246.286 691.162 246.286C689.952 246.286 689.006 246.858 688.522 247.628V246.484H686.872V256.252H688.522V249.52C688.83 248.464 689.688 247.782 690.678 247.782C691.932 247.782 692.526 248.684 692.526 250.048V256.252H694.176V249.52C694.484 248.464 695.342 247.782 696.332 247.782C697.586 247.782 698.18 248.684 698.18 250.048V256.252H699.852V249.784C699.852 247.672 698.752 246.286 696.772 246.286C695.408 246.286 694.418 246.968 693.802 247.848ZM708.076 249.762V251.038C707.658 250.664 706.646 250.246 705.634 250.246C703.544 250.246 701.916 251.478 701.916 253.304C701.916 255.24 703.544 256.428 705.546 256.428C706.69 256.428 707.702 255.922 708.076 255.526V256.252H709.682V249.63C709.682 247.562 708.318 246.286 706.008 246.286C704.798 246.286 703.632 246.638 702.972 247.1V248.662C703.786 248.134 704.666 247.804 705.744 247.804C707.174 247.804 708.076 248.552 708.076 249.762ZM708.076 252.82V253.832C707.812 254.558 706.844 255.042 705.81 255.042C704.622 255.042 703.478 254.492 703.478 253.304C703.478 252.138 704.622 251.61 705.81 251.61C706.844 251.61 707.812 252.094 708.076 252.82ZM712.503 246.484V256.252H714.153V249.63C714.505 248.574 715.495 247.804 716.639 247.804C718.113 247.804 718.795 248.75 718.795 250.114V256.252H720.467V249.85C720.467 247.716 719.257 246.286 717.035 246.286C715.781 246.286 714.725 246.946 714.153 247.716V246.484H712.503ZM728.701 249.762V251.038C728.283 250.664 727.271 250.246 726.259 250.246C724.169 250.246 722.541 251.478 722.541 253.304C722.541 255.24 724.169 256.428 726.171 256.428C727.315 256.428 728.327 255.922 728.701 255.526V256.252H730.307V249.63C730.307 247.562 728.943 246.286 726.633 246.286C725.423 246.286 724.257 246.638 723.597 247.1V248.662C724.411 248.134 725.291 247.804 726.369 247.804C727.799 247.804 728.701 248.552 728.701 249.762ZM728.701 252.82V253.832C728.437 254.558 727.469 255.042 726.435 255.042C725.247 255.042 724.103 254.492 724.103 253.304C724.103 252.138 725.247 251.61 726.435 251.61C727.469 251.61 728.437 252.094 728.701 252.82ZM739.508 254.954V255.592C739.508 257.682 738.144 258.716 736.406 258.716C735.262 258.716 734.228 258.408 733.26 257.506V259.332C734.008 259.86 735.152 260.212 736.406 260.212C738.738 260.212 741.18 258.892 741.18 255.482V246.484H739.508V247.584C739.024 246.902 737.99 246.286 736.78 246.286C733.92 246.286 732.424 248.662 732.424 251.28C732.424 253.898 733.92 256.274 736.78 256.274C737.99 256.274 739.024 255.636 739.508 254.954ZM739.508 249.278V253.26C739.002 254.184 738.078 254.778 737.022 254.778C735.174 254.778 734.096 253.304 734.096 251.28C734.096 249.234 735.174 247.76 737.022 247.76C738.078 247.76 739.002 248.354 739.508 249.278ZM745.031 251.654H751.763V251.06C751.763 248.2 750.399 246.286 747.759 246.286C745.163 246.286 743.403 248.42 743.403 251.456C743.403 254.536 745.295 256.45 748.111 256.45C749.277 256.45 750.289 256.208 751.081 255.592V254.074C750.201 254.734 749.409 254.998 748.309 254.998C746.527 254.998 745.097 253.92 745.031 251.654ZM747.781 247.694C749.365 247.694 750.091 248.926 750.157 250.356H745.119C745.427 248.552 746.483 247.694 747.781 247.694ZM766.655 256.252V246.484H764.983V253.106C764.631 254.162 763.685 254.932 762.541 254.932C761.067 254.932 760.407 253.986 760.407 252.622V246.484H758.735V252.886C758.735 255.02 759.923 256.45 762.145 256.45C763.399 256.45 764.433 255.79 764.983 255.02V256.252H766.655ZM769.015 253.722V255.482C769.741 256.054 770.951 256.45 772.227 256.45C774.273 256.45 775.879 255.416 775.879 253.612C775.879 252.226 775.065 251.368 773.591 250.862L772.095 250.356C771.171 250.026 770.643 249.762 770.643 248.97C770.643 248.134 771.479 247.694 772.491 247.694C773.679 247.694 774.581 248.178 775.395 248.86V247.144C774.603 246.594 773.591 246.286 772.491 246.286C770.555 246.286 769.037 247.32 769.037 249.036C769.037 250.62 770.027 251.324 771.501 251.808L772.843 252.27C773.701 252.556 774.251 252.952 774.251 253.678C774.251 254.646 773.305 255.042 772.227 255.042C771.039 255.042 769.917 254.558 769.015 253.722ZM779.148 251.654H785.88V251.06C785.88 248.2 784.516 246.286 781.876 246.286C779.28 246.286 777.52 248.42 777.52 251.456C777.52 254.536 779.412 256.45 782.228 256.45C783.394 256.45 784.406 256.208 785.198 255.592V254.074C784.318 254.734 783.526 254.998 782.426 254.998C780.644 254.998 779.214 253.92 779.148 251.654ZM781.898 247.694C783.482 247.694 784.208 248.926 784.274 250.356H779.236C779.544 248.552 780.6 247.694 781.898 247.694ZM793.144 248.134V246.44C792.968 246.352 792.616 246.286 792.198 246.286C791.12 246.286 790.196 246.924 789.778 247.76V246.484H788.128V256.252H789.778V249.696C790.108 248.552 791.01 247.87 792.044 247.87C792.462 247.87 792.88 247.958 793.144 248.134ZM794.56 253.722V255.482C795.286 256.054 796.496 256.45 797.772 256.45C799.818 256.45 801.424 255.416 801.424 253.612C801.424 252.226 800.61 251.368 799.136 250.862L797.64 250.356C796.716 250.026 796.188 249.762 796.188 248.97C796.188 248.134 797.024 247.694 798.036 247.694C799.224 247.694 800.126 248.178 800.94 248.86V247.144C800.148 246.594 799.136 246.286 798.036 246.286C796.1 246.286 794.582 247.32 794.582 249.036C794.582 250.62 795.572 251.324 797.046 251.808L798.388 252.27C799.246 252.556 799.796 252.952 799.796 253.678C799.796 254.646 798.85 255.042 797.772 255.042C796.584 255.042 795.462 254.558 794.56 253.722ZM814.058 249.762V251.038C813.64 250.664 812.628 250.246 811.616 250.246C809.526 250.246 807.898 251.478 807.898 253.304C807.898 255.24 809.526 256.428 811.528 256.428C812.672 256.428 813.684 255.922 814.058 255.526V256.252H815.664V249.63C815.664 247.562 814.3 246.286 811.99 246.286C810.78 246.286 809.614 246.638 808.954 247.1V248.662C809.768 248.134 810.648 247.804 811.726 247.804C813.156 247.804 814.058 248.552 814.058 249.762ZM814.058 252.82V253.832C813.794 254.558 812.826 255.042 811.792 255.042C810.604 255.042 809.46 254.492 809.46 253.304C809.46 252.138 810.604 251.61 811.792 251.61C812.826 251.61 813.794 252.094 814.058 252.82ZM818.486 246.484V256.252H820.136V249.63C820.488 248.574 821.478 247.804 822.622 247.804C824.096 247.804 824.778 248.75 824.778 250.114V256.252H826.45V249.85C826.45 247.716 825.24 246.286 823.018 246.286C821.764 246.286 820.708 246.946 820.136 247.716V246.484H818.486ZM835.695 255.108V256.252H837.367V241.952H835.695V247.628C835.211 246.924 834.155 246.286 832.945 246.286C830.085 246.286 828.545 248.618 828.545 251.368C828.545 254.14 830.085 256.45 832.945 256.45C834.155 256.45 835.211 255.812 835.695 255.108ZM835.695 249.388V253.348C835.189 254.36 834.221 254.954 833.187 254.954C831.317 254.954 830.217 253.436 830.217 251.368C830.217 249.3 831.317 247.782 833.187 247.782C834.221 247.782 835.189 248.376 835.695 249.388ZM850.582 249.762V251.038C850.164 250.664 849.152 250.246 848.14 250.246C846.05 250.246 844.422 251.478 844.422 253.304C844.422 255.24 846.05 256.428 848.052 256.428C849.196 256.428 850.208 255.922 850.582 255.526V256.252H852.188V249.63C852.188 247.562 850.824 246.286 848.514 246.286C847.304 246.286 846.138 246.638 845.478 247.1V248.662C846.292 248.134 847.172 247.804 848.25 247.804C849.68 247.804 850.582 248.552 850.582 249.762ZM850.582 252.82V253.832C850.318 254.558 849.35 255.042 848.316 255.042C847.128 255.042 845.984 254.492 845.984 253.304C845.984 252.138 847.128 251.61 848.316 251.61C849.35 251.61 850.318 252.094 850.582 252.82ZM854.305 251.368C854.305 254.492 856.373 256.45 859.013 256.45C859.959 256.45 860.949 256.23 861.631 255.636V253.964C860.927 254.668 860.069 254.976 859.123 254.976C857.385 254.976 855.977 253.612 855.977 251.368C855.977 249.124 857.385 247.76 859.123 247.76C860.069 247.76 860.927 248.068 861.631 248.772V247.1C860.949 246.506 859.959 246.286 859.013 246.286C856.373 246.286 854.305 248.244 854.305 251.368ZM863.221 251.368C863.221 254.492 865.289 256.45 867.929 256.45C868.875 256.45 869.865 256.23 870.547 255.636V253.964C869.843 254.668 868.985 254.976 868.039 254.976C866.301 254.976 864.893 253.612 864.893 251.368C864.893 249.124 866.301 247.76 868.039 247.76C868.985 247.76 869.843 248.068 870.547 248.772V247.1C869.865 246.506 868.875 246.286 867.929 246.286C865.289 246.286 863.221 248.244 863.221 251.368ZM873.765 251.654H880.497V251.06C880.497 248.2 879.133 246.286 876.493 246.286C873.897 246.286 872.137 248.42 872.137 251.456C872.137 254.536 874.029 256.45 876.845 256.45C878.011 256.45 879.023 256.208 879.815 255.592V254.074C878.935 254.734 878.143 254.998 877.043 254.998C875.261 254.998 873.831 253.92 873.765 251.654ZM876.515 247.694C878.099 247.694 878.825 248.926 878.891 250.356H873.853C874.161 248.552 875.217 247.694 876.515 247.694ZM882.259 253.722V255.482C882.985 256.054 884.195 256.45 885.471 256.45C887.517 256.45 889.123 255.416 889.123 253.612C889.123 252.226 888.309 251.368 886.835 250.862L885.339 250.356C884.415 250.026 883.887 249.762 883.887 248.97C883.887 248.134 884.723 247.694 885.735 247.694C886.923 247.694 887.825 248.178 888.639 248.86V247.144C887.847 246.594 886.835 246.286 885.735 246.286C883.799 246.286 882.281 247.32 882.281 249.036C882.281 250.62 883.271 251.324 884.745 251.808L886.087 252.27C886.945 252.556 887.495 252.952 887.495 253.678C887.495 254.646 886.549 255.042 885.471 255.042C884.283 255.042 883.161 254.558 882.259 253.722ZM890.896 253.722V255.482C891.622 256.054 892.832 256.45 894.108 256.45C896.154 256.45 897.76 255.416 897.76 253.612C897.76 252.226 896.946 251.368 895.472 250.862L893.976 250.356C893.052 250.026 892.524 249.762 892.524 248.97C892.524 248.134 893.36 247.694 894.372 247.694C895.56 247.694 896.462 248.178 897.276 248.86V247.144C896.484 246.594 895.472 246.286 894.372 246.286C892.436 246.286 890.918 247.32 890.918 249.036C890.918 250.62 891.908 251.324 893.382 251.808L894.724 252.27C895.582 252.556 896.132 252.952 896.132 253.678C896.132 254.646 895.186 255.042 894.108 255.042C892.92 255.042 891.798 254.558 890.896 253.722ZM907.688 256.252V247.892H909.954V246.484H907.688V243.91H906.038V246.484H903.992V247.892H906.038V256.252H907.688ZM920.064 251.368C920.064 248.376 918.238 246.286 915.576 246.286C912.892 246.286 911.088 248.376 911.088 251.368C911.088 254.36 912.892 256.45 915.576 256.45C918.238 256.45 920.064 254.36 920.064 251.368ZM918.392 251.368C918.392 253.502 917.336 254.998 915.576 254.998C913.816 254.998 912.76 253.502 912.76 251.368C912.76 249.234 913.816 247.738 915.576 247.738C917.336 247.738 918.392 249.234 918.392 251.368ZM932.17 248.134V246.44C931.994 246.352 931.642 246.286 931.224 246.286C930.146 246.286 929.222 246.924 928.804 247.76V246.484H927.154V256.252H928.804V249.696C929.134 248.552 930.036 247.87 931.07 247.87C931.488 247.87 931.906 247.958 932.17 248.134ZM934.867 251.654H941.599V251.06C941.599 248.2 940.235 246.286 937.595 246.286C934.999 246.286 933.239 248.42 933.239 251.456C933.239 254.536 935.131 256.45 937.947 256.45C939.113 256.45 940.125 256.208 940.917 255.592V254.074C940.037 254.734 939.245 254.998 938.145 254.998C936.363 254.998 934.933 253.92 934.867 251.654ZM937.617 247.694C939.201 247.694 939.927 248.926 939.993 250.356H934.955C935.263 248.552 936.319 247.694 937.617 247.694ZM943.361 253.722V255.482C944.087 256.054 945.297 256.45 946.573 256.45C948.619 256.45 950.225 255.416 950.225 253.612C950.225 252.226 949.411 251.368 947.937 250.862L946.441 250.356C945.517 250.026 944.989 249.762 944.989 248.97C944.989 248.134 945.825 247.694 946.837 247.694C948.025 247.694 948.927 248.178 949.741 248.86V247.144C948.949 246.594 947.937 246.286 946.837 246.286C944.901 246.286 943.383 247.32 943.383 249.036C943.383 250.62 944.373 251.324 945.847 251.808L947.189 252.27C948.047 252.556 948.597 252.952 948.597 253.678C948.597 254.646 947.651 255.042 946.573 255.042C945.385 255.042 944.263 254.558 943.361 253.722ZM960.842 251.368C960.842 248.376 959.016 246.286 956.354 246.286C953.67 246.286 951.866 248.376 951.866 251.368C951.866 254.36 953.67 256.45 956.354 256.45C959.016 256.45 960.842 254.36 960.842 251.368ZM959.17 251.368C959.17 253.502 958.114 254.998 956.354 254.998C954.594 254.998 953.538 253.502 953.538 251.368C953.538 249.234 954.594 247.738 956.354 247.738C958.114 247.738 959.17 249.234 959.17 251.368ZM970.864 256.252V246.484H969.192V253.106C968.84 254.162 967.894 254.932 966.75 254.932C965.276 254.932 964.616 253.986 964.616 252.622V246.484H962.944V252.886C962.944 255.02 964.132 256.45 966.354 256.45C967.608 256.45 968.642 255.79 969.192 255.02V256.252H970.864ZM978.812 248.134V246.44C978.636 246.352 978.284 246.286 977.866 246.286C976.788 246.286 975.864 246.924 975.446 247.76V246.484H973.796V256.252H975.446V249.696C975.776 248.552 976.678 247.87 977.712 247.87C978.13 247.87 978.548 247.958 978.812 248.134ZM979.881 251.368C979.881 254.492 981.949 256.45 984.589 256.45C985.535 256.45 986.525 256.23 987.207 255.636V253.964C986.503 254.668 985.645 254.976 984.699 254.976C982.961 254.976 981.553 253.612 981.553 251.368C981.553 249.124 982.961 247.76 984.699 247.76C985.645 247.76 986.503 248.068 987.207 248.772V247.1C986.525 246.506 985.535 246.286 984.589 246.286C981.949 246.286 979.881 248.244 979.881 251.368ZM990.425 251.654H997.157V251.06C997.157 248.2 995.793 246.286 993.153 246.286C990.557 246.286 988.797 248.42 988.797 251.456C988.797 254.536 990.689 256.45 993.505 256.45C994.671 256.45 995.683 256.208 996.475 255.592V254.074C995.595 254.734 994.803 254.998 993.703 254.998C991.921 254.998 990.491 253.92 990.425 251.654ZM993.175 247.694C994.759 247.694 995.485 248.926 995.551 250.356H990.513C990.821 248.552 991.877 247.694 993.175 247.694ZM998.92 253.722V255.482C999.646 256.054 1000.86 256.45 1002.13 256.45C1004.18 256.45 1005.78 255.416 1005.78 253.612C1005.78 252.226 1004.97 251.368 1003.5 250.862L1002 250.356C1001.08 250.026 1000.55 249.762 1000.55 248.97C1000.55 248.134 1001.38 247.694 1002.4 247.694C1003.58 247.694 1004.49 248.178 1005.3 248.86V247.144C1004.51 246.594 1003.5 246.286 1002.4 246.286C1000.46 246.286 998.942 247.32 998.942 249.036C998.942 250.62 999.932 251.324 1001.41 251.808L1002.75 252.27C1003.61 252.556 1004.16 252.952 1004.16 253.678C1004.16 254.646 1003.21 255.042 1002.13 255.042C1000.94 255.042 999.822 254.558 998.92 253.722ZM1007.36 255.174C1007.36 255.856 1007.89 256.362 1008.55 256.362C1009.18 256.362 1009.71 255.856 1009.71 255.174C1009.71 254.492 1009.18 253.964 1008.55 253.964C1007.89 253.964 1007.36 254.492 1007.36 255.174Z" fill="#AFBCD2"/>
<path d="M620.191 335.16H620.315L625.182 328.34V339.252H630.08V320.218H625.492L620.253 327.968L615.045 320.218H610.426V339.252H615.293V328.34L620.191 335.16ZM640.452 330.851V331.347C639.894 330.944 638.592 330.572 637.414 330.572C634.407 330.572 632.051 332.308 632.051 335.005C632.051 337.95 634.407 339.5 637.166 339.5C638.654 339.5 639.987 339.004 640.452 338.539V339.252H645.133V330.634C645.133 326.945 642.777 324.992 638.654 324.992C636.67 324.992 634.81 325.457 633.663 326.077V329.983C634.779 329.332 636.143 328.991 637.476 328.991C639.46 328.991 640.452 329.766 640.452 330.851ZM640.452 334.54V335.346C640.142 335.904 639.367 336.276 638.499 336.276C637.538 336.276 636.577 335.873 636.577 334.912C636.577 333.982 637.538 333.579 638.499 333.579C639.367 333.579 640.142 333.951 640.452 334.54ZM647.629 325.302V339.252H652.496V330.82C652.744 329.859 653.55 329.301 654.511 329.301C655.751 329.301 656.34 330.138 656.34 331.285V339.252H661.176V330.107C661.176 327.007 659.347 324.992 656.247 324.992C654.635 324.992 653.271 325.643 652.496 326.511V325.302H647.629ZM671.361 330.851V331.347C670.803 330.944 669.501 330.572 668.323 330.572C665.316 330.572 662.96 332.308 662.96 335.005C662.96 337.95 665.316 339.5 668.075 339.5C669.563 339.5 670.896 339.004 671.361 338.539V339.252H676.042V330.634C676.042 326.945 673.686 324.992 669.563 324.992C667.579 324.992 665.719 325.457 664.572 326.077V329.983C665.688 329.332 667.052 328.991 668.385 328.991C670.369 328.991 671.361 329.766 671.361 330.851ZM671.361 334.54V335.346C671.051 335.904 670.276 336.276 669.408 336.276C668.447 336.276 667.486 335.873 667.486 334.912C667.486 333.982 668.447 333.579 669.408 333.579C670.276 333.579 671.051 333.951 671.361 334.54ZM687.249 337.361V337.826C687.249 339.779 685.637 340.554 683.777 340.554C681.855 340.554 680.336 340.058 678.91 338.849V343.313C680.026 344.026 681.979 344.491 683.932 344.491C688.396 344.491 692.054 342.383 692.054 337.237V325.302H687.249V326.356C686.629 325.612 685.482 324.992 683.963 324.992C680.026 324.992 677.794 327.999 677.794 331.843C677.794 335.687 680.026 338.725 683.963 338.725C685.482 338.725 686.629 338.074 687.249 337.361ZM687.249 330.014V333.703C686.877 334.323 686.102 334.85 685.172 334.85C683.56 334.85 682.599 333.61 682.599 331.843C682.599 330.076 683.56 328.836 685.172 328.836C686.102 328.836 686.877 329.394 687.249 330.014ZM698.672 333.393H707.259V331.967C707.259 327.813 705.058 324.992 700.718 324.992C696.874 324.992 693.96 327.999 693.96 332.37C693.96 336.865 696.998 339.562 701.462 339.562C703.477 339.562 705.182 339.128 706.267 338.322V334.633C704.872 335.47 703.725 335.749 702.237 335.749C700.439 335.749 699.075 335.067 698.672 333.393ZM700.904 328.681C702.082 328.681 702.795 329.487 702.919 330.665H698.734C699.075 329.394 699.85 328.681 700.904 328.681Z" fill="white"/>
</g>
<path d="M252 179.87L585 179.87M585 179.87L575.798 188.057M585 179.87L575.798 171.252" stroke="#7630EA" stroke-width="2"/>
<path d="M51.3368 20.2519C51.3368 31.1707 42.6764 40.0038 32.0158 40.0038C21.3552 40.0038 12.6948 31.1707 12.6948 20.2519C12.6948 9.33303 21.3552 0.5 32.0158 0.5C42.6764 0.5 51.3368 9.33303 51.3368 20.2519Z" fill="#404B5C" stroke="#7887A2"/>
<path d="M27.21 24.2162V27.2522H36.67V24.2162H33.898V13.7442H31.544L27.32 15.7682V19.1342L30.488 17.5722V24.2162H27.21ZM37.8477 25.3382C37.8477 26.5042 38.7497 27.4062 39.8717 27.4062C41.0157 27.4062 41.9177 26.5042 41.9177 25.3382C41.9177 24.1722 41.0157 23.2922 39.8717 23.2922C38.7497 23.2922 37.8477 24.1722 37.8477 25.3382Z" fill="white"/>
<path d="M600.292 20.2519C600.292 31.1707 591.632 40.0038 580.971 40.0038C570.311 40.0038 561.65 31.1707 561.65 20.2519C561.65 9.33303 570.311 0.5 580.971 0.5C591.632 0.5 600.292 9.33303 600.292 20.2519Z" fill="#404B5C" stroke="#7887A2"/>
<path d="M585.494 24.2162H581.468L582.788 22.4122C583.954 20.7842 584.944 19.3102 584.944 17.5942C584.944 15.1522 583.228 13.5242 580.544 13.5242C578.586 13.5242 576.936 14.2282 575.902 15.0862V18.4742C576.76 17.7702 578.234 16.8242 579.62 16.8242C580.698 16.8242 581.292 17.3962 581.292 18.2982C581.292 19.4422 580.654 20.2782 579.444 21.8842L575.484 27.1642V27.2522H585.494V24.2162ZM586.848 25.3382C586.848 26.5042 587.75 27.4062 588.872 27.4062C590.016 27.4062 590.918 26.5042 590.918 25.3382C590.918 24.1722 590.016 23.2922 588.872 23.2922C587.75 23.2922 586.848 24.1722 586.848 25.3382Z" fill="white"/>
<path d="M32 41V67.5" stroke="#7887A2"/>
<path d="M581 40V66.5" stroke="#7887A2"/>
<defs>
<filter id="filter0_d_2934_18616" x="0" y="61.2524" width="547" height="320" filterUnits="userSpaceOnUse" color-interpolation-filters="sRGB">
<feFlood flood-opacity="0" result="BackgroundImageFix"/>
<feColorMatrix in="SourceAlpha" type="matrix" values="0 0 0 0 0 0 0 0 0 0 0 0 0 0 0 0 0 0 127 0" result="hardAlpha"/>
<feOffset dy="6"/>
<feGaussianBlur stdDeviation="6"/>
<feColorMatrix type="matrix" values="0 0 0 0 0 0 0 0 0 0 0 0 0 0 0 0 0 0 0.36 0"/>
<feBlend mode="normal" in2="BackgroundImageFix" result="effect1_dropShadow_2934_18616"/>
<feBlend mode="normal" in="SourceGraphic" in2="effect1_dropShadow_2934_18616" result="shape"/>
</filter>
<filter id="filter1_d_2934_18616" x="48" y="307.252" width="372" height="146" filterUnits="userSpaceOnUse" color-interpolation-filters="sRGB">
<feFlood flood-opacity="0" result="BackgroundImageFix"/>
<feColorMatrix in="SourceAlpha" type="matrix" values="0 0 0 0 0 0 0 0 0 0 0 0 0 0 0 0 0 0 127 0" result="hardAlpha"/>
<feOffset dy="6"/>
<feGaussianBlur stdDeviation="6"/>
<feColorMatrix type="matrix" values="0 0 0 0 0 0 0 0 0 0 0 0 0 0 0 0 0 0 0.12 0"/>
<feBlend mode="normal" in2="BackgroundImageFix" result="effect1_dropShadow_2934_18616"/>
<feBlend mode="normal" in="SourceGraphic" in2="effect1_dropShadow_2934_18616" result="shape"/>
</filter>
<filter id="filter2_d_2934_18616" x="420" y="307.252" width="372" height="146" filterUnits="userSpaceOnUse" color-interpolation-filters="sRGB">
<feFlood flood-opacity="0" result="BackgroundImageFix"/>
<feColorMatrix in="SourceAlpha" type="matrix" values="0 0 0 0 0 0 0 0 0 0 0 0 0 0 0 0 0 0 127 0" result="hardAlpha"/>
<feOffset dy="6"/>
<feGaussianBlur stdDeviation="6"/>
<feColorMatrix type="matrix" values="0 0 0 0 0 0 0 0 0 0 0 0 0 0 0 0 0 0 0.12 0"/>
<feBlend mode="normal" in2="BackgroundImageFix" result="effect1_dropShadow_2934_18616"/>
<feBlend mode="normal" in="SourceGraphic" in2="effect1_dropShadow_2934_18616" result="shape"/>
</filter>
<filter id="filter3_d_2934_18616" x="549" y="61.2524" width="546" height="320" filterUnits="userSpaceOnUse" color-interpolation-filters="sRGB">
<feFlood flood-opacity="0" result="BackgroundImageFix"/>
<feColorMatrix in="SourceAlpha" type="matrix" values="0 0 0 0 0 0 0 0 0 0 0 0 0 0 0 0 0 0 127 0" result="hardAlpha"/>
<feOffset dy="6"/>
<feGaussianBlur stdDeviation="6"/>
<feColorMatrix type="matrix" values="0 0 0 0 0 0 0 0 0 0 0 0 0 0 0 0 0 0 0.36 0"/>
<feBlend mode="normal" in2="BackgroundImageFix" result="effect1_dropShadow_2934_18616"/>
<feBlend mode="normal" in="SourceGraphic" in2="effect1_dropShadow_2934_18616" result="shape"/>
</filter>
<clipPath id="clip0_2934_18616">
<rect width="523" height="296" fill="white" transform="translate(12 67.2524)"/>
</clipPath>
<clipPath id="clip1_2934_18616">
<rect width="24" height="24" fill="white" transform="translate(348 362.252)"/>
</clipPath>
<clipPath id="clip2_2934_18616">
<rect width="522" height="296" fill="white" transform="translate(561 67.2524)"/>
</clipPath>
</defs>
</svg>
