<svg width="789" height="246" viewBox="0 0 789 246" fill="none" xmlns="http://www.w3.org/2000/svg">
<path d="M497 109L496.86 181H396" stroke="#7630EA" stroke-width="2" stroke-dasharray="6 6"/>
<path d="M493 111L497.4 106L501.5 111" stroke="#6633BC" stroke-width="2"/>
<path d="M579 54.8621H606M606 54.8621L602.22 59M606 54.8621L602.22 51" stroke="#7630EA" stroke-width="2"/>
<path d="M182 58.8621H209M209 58.8621L205.22 63M209 58.8621L205.22 55" stroke="#7630EA" stroke-width="2"/>
<path d="M306.138 102V129M306.138 129L302 125.22M306.138 129L310 125.22" stroke="#7630EA" stroke-width="2"/>
<g filter="url(#filter0_d_2_55)">
<rect x="614" y="6" width="162.828" height="93.6452" fill="#404B5C"/>
</g>
<rect x="621.644" y="23.2001" width="148.686" height="68.0361" fill="#263040"/>
<g filter="url(#filter1_d_2_55)">
<rect x="226" y="8" width="162.828" height="93.6452" fill="#404B5C"/>
</g>
<rect x="233.644" y="25.2001" width="148.686" height="68.0361" fill="#263040"/>
<g filter="url(#filter2_d_2_55)">
<rect x="413" y="8" width="162.828" height="93.6452" fill="#404B5C"/>
</g>
<rect x="420.645" y="25.2001" width="148.686" height="68.0361" fill="#263040"/>
<g filter="url(#filter3_d_2_55)">
<rect x="12" y="8" width="162.828" height="93.6452" fill="#404B5C"/>
</g>
<rect x="19" y="25" width="148.686" height="68.0361" fill="#263040"/>
<path d="M46.6605 52.9602H43.7625V57.1542H39.4965V52.9602H36.5985V64.0122H39.4965V59.6382H43.7625V64.0122H46.6605V52.9602ZM51.1675 60.5742H53.1475C55.5415 60.5742 57.1615 59.2242 57.1615 56.7762C57.1615 54.3102 55.5415 52.9602 53.1475 52.9602H48.3055V64.0122H51.1675V60.5742ZM54.3535 56.7762C54.3535 57.6042 53.8855 58.1622 52.8415 58.1622H51.1675V55.3902H52.8415C53.8855 55.3902 54.3535 55.9302 54.3535 56.7762ZM66.2974 52.9602H58.3954V64.0122H66.2974V61.5102H61.2394V59.6022H65.8654V57.1722H61.2394V55.4442H66.2974V52.9602ZM71.3329 52.9602V64.0122H75.5089C78.9829 64.0122 81.0889 61.8522 81.0889 58.4862C81.0889 55.1202 78.9829 52.9602 75.5089 52.9602H71.3329ZM75.3649 61.5102H74.1769V55.4442H75.3649C77.2009 55.4442 78.2269 56.6142 78.2269 58.4862C78.2269 60.3402 77.2009 61.5102 75.3649 61.5102ZM86.5877 59.1342V59.4222C86.2637 59.1882 85.5077 58.9722 84.8237 58.9722C83.0777 58.9722 81.7097 59.9802 81.7097 61.5462C81.7097 63.2562 83.0777 64.1562 84.6797 64.1562C85.5437 64.1562 86.3177 63.8682 86.5877 63.5982V64.0122H89.3057V59.0082C89.3057 56.8662 87.9377 55.7322 85.5437 55.7322C84.3917 55.7322 83.3117 56.0022 82.6457 56.3622V58.6302C83.2937 58.2522 84.0857 58.0542 84.8597 58.0542C86.0117 58.0542 86.5877 58.5042 86.5877 59.1342ZM86.5877 61.2762V61.7442C86.4077 62.0682 85.9577 62.2842 85.4537 62.2842C84.8957 62.2842 84.3377 62.0502 84.3377 61.4922C84.3377 60.9522 84.8957 60.7182 85.4537 60.7182C85.9577 60.7182 86.4077 60.9342 86.5877 61.2762ZM90.467 61.0422V63.4182C91.223 63.9222 92.411 64.1922 93.545 64.1922C95.543 64.1922 97.037 63.3462 97.037 61.6182C97.037 60.2502 96.335 59.5302 94.571 59.0622L93.833 58.8462C93.437 58.7382 93.203 58.6302 93.203 58.3242C93.203 58.0002 93.527 57.8382 94.013 57.8382C94.931 57.8382 95.795 58.2162 96.569 58.7742V56.4522C95.777 55.9662 94.895 55.7322 93.743 55.7322C91.835 55.7322 90.431 56.6862 90.431 58.3782C90.431 59.8362 91.385 60.5382 92.879 60.8622L93.509 61.0242C93.995 61.1322 94.247 61.2582 94.247 61.5822C94.247 61.9422 93.887 62.0682 93.329 62.0682C92.501 62.0682 91.241 61.6722 90.467 61.0422ZM98.1554 52.3122V64.0122H100.981V59.1162C101.125 58.5582 101.593 58.2342 102.151 58.2342C102.871 58.2342 103.213 58.7202 103.213 59.3862V64.0122H106.021V58.7022C106.021 56.9022 104.959 55.7322 103.159 55.7322C102.223 55.7322 101.431 56.1102 100.981 56.6142V52.3122H98.1554ZM110.315 64.0122V63.3642C110.693 63.7962 111.485 64.1922 112.313 64.1922C114.653 64.1922 115.931 62.3022 115.931 59.9622C115.931 57.6222 114.653 55.7322 112.313 55.7322C111.485 55.7322 110.693 56.1282 110.315 56.5602V52.3122H107.489V64.0122H110.315ZM110.315 61.0242V58.8822C110.531 58.4502 111.017 58.1262 111.557 58.1262C112.529 58.1262 113.105 58.9182 113.105 59.9622C113.105 61.0062 112.529 61.7802 111.557 61.7802C110.999 61.7802 110.531 61.4742 110.315 61.0242ZM124.97 59.9622C124.97 57.4602 123.296 55.7322 120.83 55.7322C118.382 55.7322 116.69 57.4602 116.69 59.9622C116.69 62.4642 118.382 64.1922 120.83 64.1922C123.296 64.1922 124.97 62.4642 124.97 59.9622ZM122.198 59.9622C122.198 61.0782 121.712 61.8522 120.83 61.8522C119.966 61.8522 119.48 61.0782 119.48 59.9622C119.48 58.8462 119.966 58.0542 120.83 58.0542C121.712 58.0542 122.198 58.8462 122.198 59.9622ZM130.533 59.1342V59.4222C130.209 59.1882 129.453 58.9722 128.769 58.9722C127.023 58.9722 125.655 59.9802 125.655 61.5462C125.655 63.2562 127.023 64.1562 128.625 64.1562C129.489 64.1562 130.263 63.8682 130.533 63.5982V64.0122H133.251V59.0082C133.251 56.8662 131.883 55.7322 129.489 55.7322C128.337 55.7322 127.257 56.0022 126.591 56.3622V58.6302C127.239 58.2522 128.031 58.0542 128.805 58.0542C129.957 58.0542 130.533 58.5042 130.533 59.1342ZM130.533 61.2762V61.7442C130.353 62.0682 129.903 62.2842 129.399 62.2842C128.841 62.2842 128.283 62.0502 128.283 61.4922C128.283 60.9522 128.841 60.7182 129.399 60.7182C129.903 60.7182 130.353 60.9342 130.533 61.2762ZM140.136 58.5942V55.8762C140.01 55.8042 139.722 55.7322 139.362 55.7322C138.552 55.7322 137.922 56.0922 137.526 56.6322V55.9122H134.7V64.0122H137.526V59.2602C137.67 58.6842 138.192 58.3422 138.966 58.3422C139.416 58.3422 139.794 58.4142 140.136 58.5942ZM146.353 63.3642V64.0122H149.179V52.3122H146.353V56.5602C145.975 56.1282 145.183 55.7322 144.355 55.7322C142.015 55.7322 140.737 57.6222 140.737 59.9622C140.737 62.3022 142.015 64.1922 144.355 64.1922C145.183 64.1922 145.975 63.7962 146.353 63.3642ZM146.353 58.8822V61.0242C146.137 61.4742 145.669 61.7802 145.111 61.7802C144.139 61.7802 143.563 61.0062 143.563 59.9622C143.563 58.9182 144.139 58.1262 145.111 58.1262C145.651 58.1262 146.137 58.4502 146.353 58.8822Z" fill="white"/>
<path d="M691.549 51.1603H688.651V55.3543H684.385V51.1603H681.487V62.2123H684.385V57.8383H688.651V62.2123H691.549V51.1603ZM695.426 58.8103H700.412V57.9823C700.412 55.5703 699.134 53.9323 696.614 53.9323C694.382 53.9323 692.69 55.6783 692.69 58.2163C692.69 60.8263 694.454 62.3923 697.046 62.3923C698.216 62.3923 699.206 62.1403 699.836 61.6723V59.5303C699.026 60.0163 698.36 60.1783 697.496 60.1783C696.452 60.1783 695.66 59.7823 695.426 58.8103ZM696.722 56.0743C697.406 56.0743 697.82 56.5423 697.892 57.2263H695.462C695.66 56.4883 696.11 56.0743 696.722 56.0743ZM704.368 62.2123V50.5123H701.542V62.2123H704.368ZM708.727 65.0743V61.5643C709.105 61.9963 709.897 62.3923 710.725 62.3923C713.065 62.3923 714.343 60.4663 714.343 58.1623C714.343 55.8403 713.065 53.9323 710.725 53.9323C709.897 53.9323 709.105 54.3283 708.727 54.7603V54.1123H705.901V65.0743H708.727ZM708.727 59.2243V57.0823C708.943 56.6503 709.411 56.3263 709.969 56.3263C710.941 56.3263 711.517 57.1183 711.517 58.1623C711.517 59.2063 710.941 59.9803 709.969 59.9803C709.429 59.9803 708.943 59.6743 708.727 59.2243Z" fill="white"/>
<path d="M269.821 53.1603H266.869L262.657 64.2123H265.519L266.293 62.0703H270.307L271.099 64.2123H274.033L269.821 53.1603ZM267.175 59.6943L268.309 56.5803L269.443 59.6943H267.175ZM277.75 67.0743V63.5643C278.128 63.9963 278.92 64.3923 279.748 64.3923C282.088 64.3923 283.366 62.4663 283.366 60.1623C283.366 57.8403 282.088 55.9323 279.748 55.9323C278.92 55.9323 278.128 56.3283 277.75 56.7603V56.1123H274.924V67.0743H277.75ZM277.75 61.2243V59.0823C277.966 58.6503 278.434 58.3263 278.992 58.3263C279.964 58.3263 280.54 59.1183 280.54 60.1623C280.54 61.2063 279.964 61.9803 278.992 61.9803C278.452 61.9803 277.966 61.6743 277.75 61.2243ZM287.277 67.0743V63.5643C287.655 63.9963 288.447 64.3923 289.275 64.3923C291.615 64.3923 292.893 62.4663 292.893 60.1623C292.893 57.8403 291.615 55.9323 289.275 55.9323C288.447 55.9323 287.655 56.3283 287.277 56.7603V56.1123H284.451V67.0743H287.277ZM287.277 61.2243V59.0823C287.493 58.6503 287.961 58.3263 288.519 58.3263C289.491 58.3263 290.067 59.1183 290.067 60.1623C290.067 61.2063 289.491 61.9803 288.519 61.9803C287.979 61.9803 287.493 61.6743 287.277 61.2243ZM296.805 64.2123V52.5123H293.979V64.2123H296.805ZM301.362 53.9163C301.362 52.9803 300.624 52.3863 299.76 52.3863C298.896 52.3863 298.158 52.9803 298.158 53.9163C298.158 54.8343 298.896 55.4283 299.76 55.4283C300.624 55.4283 301.362 54.8343 301.362 53.9163ZM301.164 64.2123V56.1123H298.338V64.2123H301.164ZM302.265 60.1623C302.265 62.7723 304.065 64.3923 306.495 64.3923C307.323 64.3923 308.097 64.2303 308.673 63.8163V61.4403C308.151 61.8183 307.593 62.0163 306.927 62.0163C305.883 62.0163 305.055 61.3863 305.055 60.1623C305.055 58.9383 305.883 58.3083 306.927 58.3083C307.593 58.3083 308.151 58.5063 308.673 58.8843V56.5083C308.097 56.0943 307.323 55.9323 306.495 55.9323C304.065 55.9323 302.265 57.5523 302.265 60.1623ZM314.35 59.3343V59.6223C314.026 59.3883 313.27 59.1723 312.586 59.1723C310.84 59.1723 309.472 60.1803 309.472 61.7463C309.472 63.4563 310.84 64.3563 312.442 64.3563C313.306 64.3563 314.08 64.0683 314.35 63.7983V64.2123H317.068V59.2083C317.068 57.0663 315.7 55.9323 313.306 55.9323C312.154 55.9323 311.074 56.2023 310.408 56.5623V58.8303C311.056 58.4523 311.848 58.2543 312.622 58.2543C313.774 58.2543 314.35 58.7043 314.35 59.3343ZM314.35 61.4763V61.9443C314.17 62.2683 313.72 62.4843 313.216 62.4843C312.658 62.4843 312.1 62.2503 312.1 61.6923C312.1 61.1523 312.658 60.9183 313.216 60.9183C313.72 60.9183 314.17 61.1343 314.35 61.4763ZM322.227 64.2123V58.3083H323.811V56.1123H322.227V53.8803H319.419V56.1123H318.015V58.3083H319.419V64.2123H322.227ZM327.87 53.9163C327.87 52.9803 327.132 52.3863 326.268 52.3863C325.404 52.3863 324.666 52.9803 324.666 53.9163C324.666 54.8343 325.404 55.4283 326.268 55.4283C327.132 55.4283 327.87 54.8343 327.87 53.9163ZM327.672 64.2123V56.1123H324.846V64.2123H327.672ZM337.053 60.1623C337.053 57.6603 335.379 55.9323 332.913 55.9323C330.465 55.9323 328.773 57.6603 328.773 60.1623C328.773 62.6643 330.465 64.3923 332.913 64.3923C335.379 64.3923 337.053 62.6643 337.053 60.1623ZM334.281 60.1623C334.281 61.2783 333.795 62.0523 332.913 62.0523C332.049 62.0523 331.563 61.2783 331.563 60.1623C331.563 59.0463 332.049 58.2543 332.913 58.2543C333.795 58.2543 334.281 59.0463 334.281 60.1623ZM338.152 56.1123V64.2123H340.978V59.3163C341.122 58.7583 341.59 58.4343 342.148 58.4343C342.868 58.4343 343.21 58.9203 343.21 59.5863V64.2123H346.018V58.9023C346.018 57.1023 344.956 55.9323 343.156 55.9323C342.22 55.9323 341.428 56.3103 340.978 56.8143V56.1123H338.152ZM347.198 61.2423V63.6183C347.954 64.1223 349.142 64.3923 350.276 64.3923C352.274 64.3923 353.768 63.5463 353.768 61.8183C353.768 60.4503 353.066 59.7303 351.302 59.2623L350.564 59.0463C350.168 58.9383 349.934 58.8303 349.934 58.5243C349.934 58.2003 350.258 58.0383 350.744 58.0383C351.662 58.0383 352.526 58.4163 353.3 58.9743V56.6523C352.508 56.1663 351.626 55.9323 350.474 55.9323C348.566 55.9323 347.162 56.8863 347.162 58.5783C347.162 60.0363 348.116 60.7383 349.61 61.0623L350.24 61.2243C350.726 61.3323 350.978 61.4583 350.978 61.7823C350.978 62.1423 350.618 62.2683 350.06 62.2683C349.232 62.2683 347.972 61.8723 347.198 61.2423Z" fill="white"/>
<path d="M474.324 60.7743H476.304C478.698 60.7743 480.318 59.4243 480.318 56.9763C480.318 54.5103 478.698 53.1603 476.304 53.1603H471.462V64.2123H474.324V60.7743ZM477.51 56.9763C477.51 57.8043 477.042 58.3623 475.998 58.3623H474.324V55.5903H475.998C477.042 55.5903 477.51 56.1303 477.51 56.9763ZM486.915 58.7943V56.0763C486.789 56.0043 486.501 55.9323 486.141 55.9323C485.331 55.9323 484.701 56.2923 484.305 56.8323V56.1123H481.479V64.2123H484.305V59.4603C484.449 58.8843 484.971 58.5423 485.745 58.5423C486.195 58.5423 486.573 58.6143 486.915 58.7943ZM495.796 60.1623C495.796 57.6603 494.122 55.9323 491.656 55.9323C489.208 55.9323 487.516 57.6603 487.516 60.1623C487.516 62.6643 489.208 64.3923 491.656 64.3923C494.122 64.3923 495.796 62.6643 495.796 60.1623ZM493.024 60.1623C493.024 61.2783 492.538 62.0523 491.656 62.0523C490.792 62.0523 490.306 61.2783 490.306 60.1623C490.306 59.0463 490.792 58.2543 491.656 58.2543C492.538 58.2543 493.024 59.0463 493.024 60.1623ZM502.043 54.8703V52.5663C501.701 52.4403 501.269 52.3503 500.729 52.3503C498.749 52.3503 497.579 53.5743 497.579 55.5183V56.1123H496.373V58.3083H497.579V64.2123H500.369V58.3083H501.935V56.1123H500.369V55.6803C500.369 55.0323 500.747 54.7083 501.377 54.7083C501.629 54.7083 501.845 54.7623 502.043 54.8703ZM506.003 53.9163C506.003 52.9803 505.265 52.3863 504.401 52.3863C503.537 52.3863 502.799 52.9803 502.799 53.9163C502.799 54.8343 503.537 55.4283 504.401 55.4283C505.265 55.4283 506.003 54.8343 506.003 53.9163ZM505.805 64.2123V56.1123H502.979V64.2123H505.805ZM510.163 64.2123V52.5123H507.337V64.2123H510.163ZM514 60.8103H518.986V59.9823C518.986 57.5703 517.708 55.9323 515.188 55.9323C512.956 55.9323 511.264 57.6783 511.264 60.2163C511.264 62.8263 513.028 64.3923 515.62 64.3923C516.79 64.3923 517.78 64.1403 518.41 63.6723V61.5303C517.6 62.0163 516.934 62.1783 516.07 62.1783C515.026 62.1783 514.234 61.7823 514 60.8103ZM515.296 58.0743C515.98 58.0743 516.394 58.5423 516.466 59.2263H514.036C514.234 58.4883 514.684 58.0743 515.296 58.0743Z" fill="white"/>
<g filter="url(#filter4_d_2_55)">
<rect x="226" y="134" width="162.828" height="93.6452" fill="#404B5C"/>
</g>
<rect x="233.644" y="151.2" width="148.686" height="68.0361" fill="#263040"/>
<path d="M258.71 178.948H255.758L251.546 190H254.408L255.182 187.858H259.196L259.988 190H262.922L258.71 178.948ZM256.064 185.482L257.198 182.368L258.332 185.482H256.064ZM268.663 189.352V190H271.489V178.3H268.663V182.548C268.285 182.116 267.493 181.72 266.665 181.72C264.325 181.72 263.047 183.61 263.047 185.95C263.047 188.29 264.325 190.18 266.665 190.18C267.493 190.18 268.285 189.784 268.663 189.352ZM268.663 184.87V187.012C268.447 187.462 267.979 187.768 267.421 187.768C266.449 187.768 265.873 186.994 265.873 185.95C265.873 184.906 266.449 184.114 267.421 184.114C267.961 184.114 268.447 184.438 268.663 184.87ZM278.19 189.352V190H281.016V178.3H278.19V182.548C277.812 182.116 277.02 181.72 276.192 181.72C273.852 181.72 272.574 183.61 272.574 185.95C272.574 188.29 273.852 190.18 276.192 190.18C277.02 190.18 277.812 189.784 278.19 189.352ZM278.19 184.87V187.012C277.974 187.462 277.506 187.768 276.948 187.768C275.976 187.768 275.4 186.994 275.4 185.95C275.4 184.906 275.976 184.114 276.948 184.114C277.488 184.114 277.974 184.438 278.19 184.87ZM292.671 178.948H289.719L285.507 190H288.369L289.143 187.858H293.157L293.949 190H296.883L292.671 178.948ZM290.025 185.482L291.159 182.368L292.293 185.482H290.025ZM300.6 192.862V189.352C300.978 189.784 301.77 190.18 302.598 190.18C304.938 190.18 306.216 188.254 306.216 185.95C306.216 183.628 304.938 181.72 302.598 181.72C301.77 181.72 300.978 182.116 300.6 182.548V181.9H297.774V192.862H300.6ZM300.6 187.012V184.87C300.816 184.438 301.284 184.114 301.842 184.114C302.814 184.114 303.39 184.906 303.39 185.95C303.39 186.994 302.814 187.768 301.842 187.768C301.302 187.768 300.816 187.462 300.6 187.012ZM310.127 192.862V189.352C310.505 189.784 311.297 190.18 312.125 190.18C314.465 190.18 315.743 188.254 315.743 185.95C315.743 183.628 314.465 181.72 312.125 181.72C311.297 181.72 310.505 182.116 310.127 182.548V181.9H307.301V192.862H310.127ZM310.127 187.012V184.87C310.343 184.438 310.811 184.114 311.369 184.114C312.341 184.114 312.917 184.906 312.917 185.95C312.917 186.994 312.341 187.768 311.369 187.768C310.829 187.768 310.343 187.462 310.127 187.012ZM319.654 190V178.3H316.828V190H319.654ZM324.212 179.704C324.212 178.768 323.474 178.174 322.61 178.174C321.746 178.174 321.008 178.768 321.008 179.704C321.008 180.622 321.746 181.216 322.61 181.216C323.474 181.216 324.212 180.622 324.212 179.704ZM324.014 190V181.9H321.188V190H324.014ZM325.115 185.95C325.115 188.56 326.915 190.18 329.345 190.18C330.173 190.18 330.947 190.018 331.523 189.604V187.228C331.001 187.606 330.443 187.804 329.777 187.804C328.733 187.804 327.905 187.174 327.905 185.95C327.905 184.726 328.733 184.096 329.777 184.096C330.443 184.096 331.001 184.294 331.523 184.672V182.296C330.947 181.882 330.173 181.72 329.345 181.72C326.915 181.72 325.115 183.34 325.115 185.95ZM337.2 185.122V185.41C336.876 185.176 336.12 184.96 335.436 184.96C333.69 184.96 332.322 185.968 332.322 187.534C332.322 189.244 333.69 190.144 335.292 190.144C336.156 190.144 336.93 189.856 337.2 189.586V190H339.918V184.996C339.918 182.854 338.55 181.72 336.156 181.72C335.004 181.72 333.924 181.99 333.258 182.35V184.618C333.906 184.24 334.698 184.042 335.472 184.042C336.624 184.042 337.2 184.492 337.2 185.122ZM337.2 187.264V187.732C337.02 188.056 336.57 188.272 336.066 188.272C335.508 188.272 334.95 188.038 334.95 187.48C334.95 186.94 335.508 186.706 336.066 186.706C336.57 186.706 337.02 186.922 337.2 187.264ZM345.076 190V184.096H346.66V181.9H345.076V179.668H342.268V181.9H340.864V184.096H342.268V190H345.076ZM350.719 179.704C350.719 178.768 349.981 178.174 349.117 178.174C348.253 178.174 347.515 178.768 347.515 179.704C347.515 180.622 348.253 181.216 349.117 181.216C349.981 181.216 350.719 180.622 350.719 179.704ZM350.521 190V181.9H347.695V190H350.521ZM359.903 185.95C359.903 183.448 358.229 181.72 355.763 181.72C353.315 181.72 351.623 183.448 351.623 185.95C351.623 188.452 353.315 190.18 355.763 190.18C358.229 190.18 359.903 188.452 359.903 185.95ZM357.131 185.95C357.131 187.066 356.645 187.84 355.763 187.84C354.899 187.84 354.413 187.066 354.413 185.95C354.413 184.834 354.899 184.042 355.763 184.042C356.645 184.042 357.131 184.834 357.131 185.95ZM361.002 181.9V190H363.828V185.104C363.972 184.546 364.44 184.222 364.998 184.222C365.718 184.222 366.06 184.708 366.06 185.374V190H368.868V184.69C368.868 182.89 367.806 181.72 366.006 181.72C365.07 181.72 364.278 182.098 363.828 182.602V181.9H361.002Z" fill="white"/>
<defs>
<filter id="filter0_d_2_55" x="602" y="0" width="186.828" height="117.645" filterUnits="userSpaceOnUse" color-interpolation-filters="sRGB">
<feFlood flood-opacity="0" result="BackgroundImageFix"/>
<feColorMatrix in="SourceAlpha" type="matrix" values="0 0 0 0 0 0 0 0 0 0 0 0 0 0 0 0 0 0 127 0" result="hardAlpha"/>
<feOffset dy="6"/>
<feGaussianBlur stdDeviation="6"/>
<feColorMatrix type="matrix" values="0 0 0 0 0 0 0 0 0 0 0 0 0 0 0 0 0 0 0.12 0"/>
<feBlend mode="normal" in2="BackgroundImageFix" result="effect1_dropShadow_2_55"/>
<feBlend mode="normal" in="SourceGraphic" in2="effect1_dropShadow_2_55" result="shape"/>
</filter>
<filter id="filter1_d_2_55" x="214" y="2" width="186.828" height="117.645" filterUnits="userSpaceOnUse" color-interpolation-filters="sRGB">
<feFlood flood-opacity="0" result="BackgroundImageFix"/>
<feColorMatrix in="SourceAlpha" type="matrix" values="0 0 0 0 0 0 0 0 0 0 0 0 0 0 0 0 0 0 127 0" result="hardAlpha"/>
<feOffset dy="6"/>
<feGaussianBlur stdDeviation="6"/>
<feColorMatrix type="matrix" values="0 0 0 0 0 0 0 0 0 0 0 0 0 0 0 0 0 0 0.12 0"/>
<feBlend mode="normal" in2="BackgroundImageFix" result="effect1_dropShadow_2_55"/>
<feBlend mode="normal" in="SourceGraphic" in2="effect1_dropShadow_2_55" result="shape"/>
</filter>
<filter id="filter2_d_2_55" x="401" y="2" width="186.828" height="117.645" filterUnits="userSpaceOnUse" color-interpolation-filters="sRGB">
<feFlood flood-opacity="0" result="BackgroundImageFix"/>
<feColorMatrix in="SourceAlpha" type="matrix" values="0 0 0 0 0 0 0 0 0 0 0 0 0 0 0 0 0 0 127 0" result="hardAlpha"/>
<feOffset dy="6"/>
<feGaussianBlur stdDeviation="6"/>
<feColorMatrix type="matrix" values="0 0 0 0 0 0 0 0 0 0 0 0 0 0 0 0 0 0 0.12 0"/>
<feBlend mode="normal" in2="BackgroundImageFix" result="effect1_dropShadow_2_55"/>
<feBlend mode="normal" in="SourceGraphic" in2="effect1_dropShadow_2_55" result="shape"/>
</filter>
<filter id="filter3_d_2_55" x="0" y="2" width="186.828" height="117.645" filterUnits="userSpaceOnUse" color-interpolation-filters="sRGB">
<feFlood flood-opacity="0" result="BackgroundImageFix"/>
<feColorMatrix in="SourceAlpha" type="matrix" values="0 0 0 0 0 0 0 0 0 0 0 0 0 0 0 0 0 0 127 0" result="hardAlpha"/>
<feOffset dy="6"/>
<feGaussianBlur stdDeviation="6"/>
<feColorMatrix type="matrix" values="0 0 0 0 0 0 0 0 0 0 0 0 0 0 0 0 0 0 0.12 0"/>
<feBlend mode="normal" in2="BackgroundImageFix" result="effect1_dropShadow_2_55"/>
<feBlend mode="normal" in="SourceGraphic" in2="effect1_dropShadow_2_55" result="shape"/>
</filter>
<filter id="filter4_d_2_55" x="214" y="128" width="186.828" height="117.645" filterUnits="userSpaceOnUse" color-interpolation-filters="sRGB">
<feFlood flood-opacity="0" result="BackgroundImageFix"/>
<feColorMatrix in="SourceAlpha" type="matrix" values="0 0 0 0 0 0 0 0 0 0 0 0 0 0 0 0 0 0 127 0" result="hardAlpha"/>
<feOffset dy="6"/>
<feGaussianBlur stdDeviation="6"/>
<feColorMatrix type="matrix" values="0 0 0 0 0 0 0 0 0 0 0 0 0 0 0 0 0 0 0.12 0"/>
<feBlend mode="normal" in2="BackgroundImageFix" result="effect1_dropShadow_2_55"/>
<feBlend mode="normal" in="SourceGraphic" in2="effect1_dropShadow_2_55" result="shape"/>
</filter>
</defs>
</svg>
