<svg width="1186" height="515" viewBox="0 0 1186 515" fill="none" xmlns="http://www.w3.org/2000/svg">
<path d="M893 111L892.293 196H384" stroke="#7630EA" stroke-width="2" stroke-dasharray="6 6"/>
<path d="M889 115L893.4 110L897.5 115" stroke="#6633BC" stroke-width="2"/>
<path d="M179 58.0743H206M206 58.0743L202.22 62.2123M206 58.0743L202.22 54.2123" stroke="#7630EA" stroke-width="2"/>
<g filter="url(#filter0_d_2259_12262)">
<rect x="211.834" y="6" width="162.828" height="93.6452" fill="white"/>
</g>
<rect x="219.479" y="23.2001" width="148.686" height="68.0361" fill="#EFEFEF"/>
<g filter="url(#filter1_d_2259_12262)">
<rect x="411.669" y="6" width="162.828" height="93.6452" fill="white"/>
</g>
<rect x="419.313" y="23.2001" width="148.686" height="68.0361" fill="#EFEFEF"/>
<g filter="url(#filter2_d_2259_12262)">
<rect x="611.503" y="6" width="162.828" height="93.6452" fill="white"/>
</g>
<rect x="619.148" y="23.2001" width="148.686" height="68.0361" fill="#EFEFEF"/>
<g filter="url(#filter3_d_2259_12262)">
<rect x="811.338" y="6" width="162.828" height="93.6452" fill="white"/>
</g>
<rect x="818.982" y="23.2001" width="148.686" height="68.0361" fill="#EFEFEF"/>
<g filter="url(#filter4_d_2259_12262)">
<rect x="1011.17" y="6" width="162.828" height="93.6452" fill="white"/>
</g>
<rect x="1018.82" y="23.2001" width="148.686" height="68.0361" fill="#EFEFEF"/>
<g filter="url(#filter5_d_2259_12262)">
<rect x="12" y="6" width="162.828" height="93.6452" fill="white"/>
</g>
<rect x="19" y="23" width="148.686" height="68.0361" fill="#EFEFEF"/>
<path d="M70.7171 50.9602H67.8191V55.1542H63.5531V50.9602H60.6551V62.0122H63.5531V57.6382H67.8191V62.0122H70.7171V50.9602ZM75.2242 58.5742H77.2042C79.5982 58.5742 81.2182 57.2242 81.2182 54.7762C81.2182 52.3102 79.5982 50.9602 77.2042 50.9602H72.3622V62.0122H75.2242V58.5742ZM78.4102 54.7762C78.4102 55.6042 77.9422 56.1622 76.8982 56.1622H75.2242V53.3902H76.8982C77.9422 53.3902 78.4102 53.9302 78.4102 54.7762ZM90.354 50.9602H82.452V62.0122H90.354V59.5102H85.296V57.6022H89.922V55.1722H85.296V53.4442H90.354V50.9602ZM91.3352 60.4462C91.3352 61.4002 92.0732 62.1382 92.9912 62.1382C93.9272 62.1382 94.6652 61.4002 94.6652 60.4462C94.6652 59.4922 93.9272 58.7722 92.9912 58.7722C92.0732 58.7722 91.3352 59.4922 91.3352 60.4462ZM95.2195 57.9622C95.2195 60.5722 97.0195 62.1922 99.4495 62.1922C100.278 62.1922 101.052 62.0302 101.628 61.6162V59.2402C101.106 59.6182 100.548 59.8162 99.8815 59.8162C98.8375 59.8162 98.0095 59.1862 98.0095 57.9622C98.0095 56.7382 98.8375 56.1082 99.8815 56.1082C100.548 56.1082 101.106 56.3062 101.628 56.6842V54.3082C101.052 53.8942 100.278 53.7322 99.4495 53.7322C97.0195 53.7322 95.2195 55.3522 95.2195 57.9622ZM110.707 57.9622C110.707 55.4602 109.033 53.7322 106.567 53.7322C104.119 53.7322 102.427 55.4602 102.427 57.9622C102.427 60.4642 104.119 62.1922 106.567 62.1922C109.033 62.1922 110.707 60.4642 110.707 57.9622ZM107.935 57.9622C107.935 59.0782 107.449 59.8522 106.567 59.8522C105.703 59.8522 105.217 59.0782 105.217 57.9622C105.217 56.8462 105.703 56.0542 106.567 56.0542C107.449 56.0542 107.935 56.8462 107.935 57.9622ZM118.952 54.7042C118.466 54.1282 117.746 53.7322 116.72 53.7322C115.82 53.7322 115.046 54.0742 114.632 54.5782V53.9122H111.806V62.0122H114.632V57.0802C114.758 56.5222 115.19 56.2162 115.676 56.2162C116.306 56.2162 116.594 56.7022 116.594 57.3862V62.0122H119.402V57.0802C119.546 56.5222 119.96 56.2162 120.446 56.2162C121.076 56.2162 121.364 56.7022 121.364 57.3862V62.0122H124.19V56.7022C124.19 54.8842 123.146 53.7322 121.454 53.7322C120.266 53.7322 119.438 54.2002 118.952 54.7042Z" fill="#444444"/>
<path d="M269.65 51.1603H267.454L265.744 57.6583L264.196 51.1603H261.244L264.142 62.2123H266.788L268.516 55.7323L270.226 62.2123H272.872L275.788 51.1603H272.872L271.342 57.6583L269.65 51.1603ZM276.657 50.5123V62.2123H279.483V57.3163C279.627 56.7583 280.095 56.4343 280.653 56.4343C281.373 56.4343 281.715 56.9203 281.715 57.5863V62.2123H284.523V56.9023C284.523 55.1023 283.461 53.9323 281.661 53.9323C280.725 53.9323 279.933 54.3103 279.483 54.8143V50.5123H276.657ZM287.057 65.0743H289.847L294.023 54.1123H291.215L289.703 58.7203L288.155 54.1123H285.221L288.245 62.0143L287.057 65.0743ZM308.623 51.1603H305.725V55.3543H301.459V51.1603H298.561V62.2123H301.459V57.8383H305.725V62.2123H308.623V51.1603ZM313.13 58.7743H315.11C317.504 58.7743 319.124 57.4243 319.124 54.9763C319.124 52.5103 317.504 51.1603 315.11 51.1603H310.268V62.2123H313.13V58.7743ZM316.316 54.9763C316.316 55.8043 315.848 56.3623 314.804 56.3623H313.13V53.5903H314.804C315.848 53.5903 316.316 54.1303 316.316 54.9763ZM328.26 51.1603H320.358V62.2123H328.26V59.7103H323.202V57.8023H327.828V55.3723H323.202V53.6443H328.26V51.1603Z" fill="#444444"/>
<path d="M465.003 58.7743H466.983C469.377 58.7743 470.997 57.4243 470.997 54.9763C470.997 52.5103 469.377 51.1603 466.983 51.1603H462.141V62.2123H465.003V58.7743ZM468.189 54.9763C468.189 55.8043 467.721 56.3623 466.677 56.3623H465.003V53.5903H466.677C467.721 53.5903 468.189 54.1303 468.189 54.9763ZM477.595 56.7943V54.0763C477.469 54.0043 477.181 53.9323 476.821 53.9323C476.011 53.9323 475.381 54.2923 474.985 54.8323V54.1123H472.159V62.2123H474.985V57.4603C475.129 56.8843 475.651 56.5423 476.425 56.5423C476.875 56.5423 477.253 56.6143 477.595 56.7943ZM486.476 58.1623C486.476 55.6603 484.802 53.9323 482.336 53.9323C479.888 53.9323 478.196 55.6603 478.196 58.1623C478.196 60.6643 479.888 62.3923 482.336 62.3923C484.802 62.3923 486.476 60.6643 486.476 58.1623ZM483.704 58.1623C483.704 59.2783 483.218 60.0523 482.336 60.0523C481.472 60.0523 480.986 59.2783 480.986 58.1623C480.986 57.0463 481.472 56.2543 482.336 56.2543C483.218 56.2543 483.704 57.0463 483.704 58.1623ZM492.865 61.5643V62.2123H495.691V50.5123H492.865V54.7603C492.487 54.3283 491.695 53.9323 490.867 53.9323C488.527 53.9323 487.249 55.8223 487.249 58.1623C487.249 60.5023 488.527 62.3923 490.867 62.3923C491.695 62.3923 492.487 61.9963 492.865 61.5643ZM492.865 57.0823V59.2243C492.649 59.6743 492.181 59.9803 491.623 59.9803C490.651 59.9803 490.075 59.2063 490.075 58.1623C490.075 57.1183 490.651 56.3263 491.623 56.3263C492.163 56.3263 492.649 56.6503 492.865 57.0823ZM505.002 62.2123V54.1123H502.176V59.0263C502.032 59.5843 501.546 59.9263 501.024 59.9263C500.304 59.9263 499.98 59.4403 499.98 58.7563V54.1123H497.172V59.4223C497.172 61.2223 498.234 62.3923 500.016 62.3923C500.934 62.3923 501.744 62.0143 502.176 61.5103V62.2123H505.002ZM506.075 58.1623C506.075 60.7723 507.875 62.3923 510.305 62.3923C511.133 62.3923 511.907 62.2303 512.483 61.8163V59.4403C511.961 59.8183 511.403 60.0163 510.737 60.0163C509.693 60.0163 508.865 59.3863 508.865 58.1623C508.865 56.9383 509.693 56.3083 510.737 56.3083C511.403 56.3083 511.961 56.5063 512.483 56.8843V54.5083C511.907 54.0943 511.133 53.9323 510.305 53.9323C507.875 53.9323 506.075 55.5523 506.075 58.1623ZM517.458 62.2123V56.3083H519.042V54.1123H517.458V51.8803H514.65V54.1123H513.246V56.3083H514.65V62.2123H517.458ZM519.754 59.2423V61.6183C520.51 62.1223 521.698 62.3923 522.832 62.3923C524.83 62.3923 526.324 61.5463 526.324 59.8183C526.324 58.4503 525.622 57.7303 523.858 57.2623L523.12 57.0463C522.724 56.9383 522.49 56.8303 522.49 56.5243C522.49 56.2003 522.814 56.0383 523.3 56.0383C524.218 56.0383 525.082 56.4163 525.856 56.9743V54.6523C525.064 54.1663 524.182 53.9323 523.03 53.9323C521.122 53.9323 519.718 54.8863 519.718 56.5783C519.718 58.0363 520.672 58.7383 522.166 59.0623L522.796 59.2243C523.282 59.3323 523.534 59.4583 523.534 59.7823C523.534 60.1423 523.174 60.2683 522.616 60.2683C521.788 60.2683 520.528 59.8723 519.754 59.2423Z" fill="#444444"/>
<path d="M663.843 58.8283V61.4923C664.653 61.9783 665.985 62.3923 667.461 62.3923C669.945 62.3923 671.979 61.3303 671.979 58.9363C671.979 57.2443 671.061 56.1823 669.045 55.5523L667.371 55.0483C666.795 54.8683 666.453 54.6703 666.453 54.1663C666.453 53.6083 667.083 53.3743 667.911 53.3743C669.171 53.3743 670.269 53.7883 671.259 54.4723V51.8083C670.341 51.3043 669.279 50.9803 667.785 50.9803C665.463 50.9803 663.609 52.1863 663.609 54.3823C663.609 56.2183 664.635 57.1363 666.489 57.6763L668.163 58.1623C668.757 58.3783 669.099 58.5583 669.099 59.0983C669.099 59.7823 668.307 59.9803 667.389 59.9803C666.147 59.9803 664.797 59.4763 663.843 58.8283ZM680.887 62.2123V54.1123H678.061V59.0263C677.917 59.5843 677.431 59.9263 676.909 59.9263C676.189 59.9263 675.865 59.4403 675.865 58.7563V54.1123H673.057V59.4223C673.057 61.2223 674.119 62.3923 675.901 62.3923C676.819 62.3923 677.629 62.0143 678.061 61.5103V62.2123H680.887ZM685.218 65.0743V61.5643C685.596 61.9963 686.388 62.3923 687.216 62.3923C689.556 62.3923 690.834 60.4663 690.834 58.1623C690.834 55.8403 689.556 53.9323 687.216 53.9323C686.388 53.9323 685.596 54.3283 685.218 54.7603V54.1123H682.392V65.0743H685.218ZM685.218 59.2243V57.0823C685.434 56.6503 685.902 56.3263 686.46 56.3263C687.432 56.3263 688.008 57.1183 688.008 58.1623C688.008 59.2063 687.432 59.9803 686.46 59.9803C685.92 59.9803 685.434 59.6743 685.218 59.2243ZM694.745 65.0743V61.5643C695.123 61.9963 695.915 62.3923 696.743 62.3923C699.083 62.3923 700.361 60.4663 700.361 58.1623C700.361 55.8403 699.083 53.9323 696.743 53.9323C695.915 53.9323 695.123 54.3283 694.745 54.7603V54.1123H691.919V65.0743H694.745ZM694.745 59.2243V57.0823C694.961 56.6503 695.429 56.3263 695.987 56.3263C696.959 56.3263 697.535 57.1183 697.535 58.1623C697.535 59.2063 696.959 59.9803 695.987 59.9803C695.447 59.9803 694.961 59.6743 694.745 59.2243ZM709.4 58.1623C709.4 55.6603 707.726 53.9323 705.26 53.9323C702.812 53.9323 701.12 55.6603 701.12 58.1623C701.12 60.6643 702.812 62.3923 705.26 62.3923C707.726 62.3923 709.4 60.6643 709.4 58.1623ZM706.628 58.1623C706.628 59.2783 706.142 60.0523 705.26 60.0523C704.396 60.0523 703.91 59.2783 703.91 58.1623C703.91 57.0463 704.396 56.2543 705.26 56.2543C706.142 56.2543 706.628 57.0463 706.628 58.1623ZM715.935 56.7943V54.0763C715.809 54.0043 715.521 53.9323 715.161 53.9323C714.351 53.9323 713.721 54.2923 713.325 54.8323V54.1123H710.499V62.2123H713.325V57.4603C713.469 56.8843 713.991 56.5423 714.765 56.5423C715.215 56.5423 715.593 56.6143 715.935 56.7943ZM720.87 62.2123V56.3083H722.454V54.1123H720.87V51.8803H718.062V54.1123H716.658V56.3083H718.062V62.2123H720.87Z" fill="#444444"/>
<path d="M865.824 56.6863C865.824 60.1243 868.128 62.3923 871.494 62.3923C872.664 62.3923 873.6 62.1043 874.302 61.6363V58.8283C873.51 59.4403 872.646 59.7103 871.728 59.7103C869.892 59.7103 868.722 58.5763 868.722 56.6863C868.722 54.7783 869.892 53.6443 871.728 53.6443C872.646 53.6443 873.51 53.9323 874.302 54.5443V51.7363C873.6 51.2683 872.664 50.9803 871.494 50.9803C868.128 50.9803 865.824 53.2483 865.824 56.6863ZM883.559 58.1623C883.559 55.6603 881.885 53.9323 879.419 53.9323C876.971 53.9323 875.279 55.6603 875.279 58.1623C875.279 60.6643 876.971 62.3923 879.419 62.3923C881.885 62.3923 883.559 60.6643 883.559 58.1623ZM880.787 58.1623C880.787 59.2783 880.301 60.0523 879.419 60.0523C878.555 60.0523 878.069 59.2783 878.069 58.1623C878.069 57.0463 878.555 56.2543 879.419 56.2543C880.301 56.2543 880.787 57.0463 880.787 58.1623ZM884.658 54.1123V62.2123H887.484V57.3163C887.628 56.7583 888.096 56.4343 888.654 56.4343C889.374 56.4343 889.716 56.9203 889.716 57.5863V62.2123H892.524V56.9023C892.524 55.1023 891.462 53.9323 889.662 53.9323C888.726 53.9323 887.934 54.3103 887.484 54.8143V54.1123H884.658ZM897.736 62.2123V56.3083H899.32V54.1123H897.736V51.8803H894.928V54.1123H893.524V56.3083H894.928V62.2123H897.736ZM904.591 57.3343V57.6223C904.267 57.3883 903.511 57.1723 902.827 57.1723C901.081 57.1723 899.713 58.1803 899.713 59.7463C899.713 61.4563 901.081 62.3563 902.683 62.3563C903.547 62.3563 904.321 62.0683 904.591 61.7983V62.2123H907.309V57.2083C907.309 55.0663 905.941 53.9323 903.547 53.9323C902.395 53.9323 901.315 54.2023 900.649 54.5623V56.8303C901.297 56.4523 902.089 56.2543 902.863 56.2543C904.015 56.2543 904.591 56.7043 904.591 57.3343ZM904.591 59.4763V59.9443C904.411 60.2683 903.961 60.4843 903.457 60.4843C902.899 60.4843 902.341 60.2503 902.341 59.6923C902.341 59.1523 902.899 58.9183 903.457 58.9183C903.961 58.9183 904.411 59.1343 904.591 59.4763ZM908.326 58.1623C908.326 60.7723 910.126 62.3923 912.556 62.3923C913.384 62.3923 914.158 62.2303 914.734 61.8163V59.4403C914.212 59.8183 913.654 60.0163 912.988 60.0163C911.944 60.0163 911.116 59.3863 911.116 58.1623C911.116 56.9383 911.944 56.3083 912.988 56.3083C913.654 56.3083 914.212 56.5063 914.734 56.8843V54.5083C914.158 54.0943 913.384 53.9323 912.556 53.9323C910.126 53.9323 908.326 55.5523 908.326 58.1623ZM919.709 62.2123V56.3083H921.293V54.1123H919.709V51.8803H916.901V54.1123H915.497V56.3083H916.901V62.2123H919.709Z" fill="#444444"/>
<path d="M1068.95 58.8283V61.4923C1069.76 61.9783 1071.09 62.3923 1072.57 62.3923C1075.05 62.3923 1077.09 61.3303 1077.09 58.9363C1077.09 57.2443 1076.17 56.1823 1074.15 55.5523L1072.48 55.0483C1071.9 54.8683 1071.56 54.6703 1071.56 54.1663C1071.56 53.6083 1072.19 53.3743 1073.02 53.3743C1074.28 53.3743 1075.38 53.7883 1076.37 54.4723V51.8083C1075.45 51.3043 1074.39 50.9803 1072.89 50.9803C1070.57 50.9803 1068.72 52.1863 1068.72 54.3823C1068.72 56.2183 1069.74 57.1363 1071.6 57.6763L1073.27 58.1623C1073.86 58.3783 1074.21 58.5583 1074.21 59.0983C1074.21 59.7823 1073.41 59.9803 1072.5 59.9803C1071.25 59.9803 1069.9 59.4763 1068.95 58.8283ZM1080.64 58.8103H1085.63V57.9823C1085.63 55.5703 1084.35 53.9323 1081.83 53.9323C1079.6 53.9323 1077.91 55.6783 1077.91 58.2163C1077.91 60.8263 1079.67 62.3923 1082.26 62.3923C1083.43 62.3923 1084.42 62.1403 1085.05 61.6723V59.5303C1084.24 60.0163 1083.58 60.1783 1082.71 60.1783C1081.67 60.1783 1080.88 59.7823 1080.64 58.8103ZM1081.94 56.0743C1082.62 56.0743 1083.04 56.5423 1083.11 57.2263H1080.68C1080.88 56.4883 1081.33 56.0743 1081.94 56.0743ZM1091.21 57.3343V57.6223C1090.88 57.3883 1090.13 57.1723 1089.44 57.1723C1087.7 57.1723 1086.33 58.1803 1086.33 59.7463C1086.33 61.4563 1087.7 62.3563 1089.3 62.3563C1090.16 62.3563 1090.94 62.0683 1091.21 61.7983V62.2123H1093.92V57.2083C1093.92 55.0663 1092.56 53.9323 1090.16 53.9323C1089.01 53.9323 1087.93 54.2023 1087.26 54.5623V56.8303C1087.91 56.4523 1088.7 56.2543 1089.48 56.2543C1090.63 56.2543 1091.21 56.7043 1091.21 57.3343ZM1091.21 59.4763V59.9443C1091.03 60.2683 1090.58 60.4843 1090.07 60.4843C1089.51 60.4843 1088.96 60.2503 1088.96 59.6923C1088.96 59.1523 1089.51 58.9183 1090.07 58.9183C1090.58 58.9183 1091.03 59.1343 1091.21 59.4763ZM1100.81 56.7943V54.0763C1100.68 54.0043 1100.4 53.9323 1100.04 53.9323C1099.23 53.9323 1098.6 54.2923 1098.2 54.8323V54.1123H1095.37V62.2123H1098.2V57.4603C1098.34 56.8843 1098.87 56.5423 1099.64 56.5423C1100.09 56.5423 1100.47 56.6143 1100.81 56.7943ZM1101.41 58.1623C1101.41 60.7723 1103.21 62.3923 1105.64 62.3923C1106.47 62.3923 1107.24 62.2303 1107.82 61.8163V59.4403C1107.3 59.8183 1106.74 60.0163 1106.07 60.0163C1105.03 60.0163 1104.2 59.3863 1104.2 58.1623C1104.2 56.9383 1105.03 56.3083 1106.07 56.3083C1106.74 56.3083 1107.3 56.5063 1107.82 56.8843V54.5083C1107.24 54.0943 1106.47 53.9323 1105.64 53.9323C1103.21 53.9323 1101.41 55.5523 1101.41 58.1623ZM1109.05 50.5123V62.2123H1111.87V57.3163C1112.02 56.7583 1112.49 56.4343 1113.04 56.4343C1113.76 56.4343 1114.11 56.9203 1114.11 57.5863V62.2123H1116.91V56.9023C1116.91 55.1023 1115.85 53.9323 1114.05 53.9323C1113.12 53.9323 1112.32 54.3103 1111.87 54.8143V50.5123H1109.05Z" fill="#444444"/>
<path d="M297.138 100V127M297.138 127L293 123.22M297.138 127L301 123.22" stroke="#7630EA" stroke-width="2"/>
<g filter="url(#filter6_d_2259_12262)">
<rect x="215" y="140" width="162.828" height="93.6452" fill="white"/>
</g>
<rect x="222.645" y="157.2" width="148.686" height="68.0361" fill="#EFEFEF"/>
<g filter="url(#filter7_d_2259_12262)">
<rect x="14" y="140" width="162.828" height="93.6452" fill="white"/>
</g>
<rect x="21.6445" y="157.2" width="148.686" height="68.0361" fill="#EFEFEF"/>
<g filter="url(#filter8_d_2259_12262)">
<rect x="217" y="268" width="162.828" height="93.6452" fill="white"/>
</g>
<rect x="224.645" y="285.2" width="148.686" height="68.0361" fill="#EFEFEF"/>
<g filter="url(#filter9_d_2259_12262)">
<rect x="217" y="403" width="162.828" height="93.6452" fill="white"/>
</g>
<rect x="224.645" y="420.2" width="148.686" height="68.0361" fill="#EFEFEF"/>
<path d="M263.35 193.818C261.676 193.818 260.542 192.594 260.542 190.722C260.542 188.814 261.784 187.644 263.548 187.644C264.898 187.644 265.906 188.04 266.752 188.652V185.844C265.942 185.322 264.772 184.98 263.548 184.98C260.038 184.98 257.644 187.248 257.644 190.722C257.644 194.052 259.804 196.392 263.26 196.392C264.79 196.392 266.212 195.942 267.328 194.916V190.038H263.17V192.342H264.772V193.422C264.412 193.692 263.926 193.818 263.35 193.818ZM274.145 190.794V188.076C274.019 188.004 273.731 187.932 273.371 187.932C272.561 187.932 271.931 188.292 271.535 188.832V188.112H268.709V196.212H271.535V191.46C271.679 190.884 272.201 190.542 272.975 190.542C273.425 190.542 273.803 190.614 274.145 190.794ZM277.482 192.81H282.468V191.982C282.468 189.57 281.19 187.932 278.67 187.932C276.438 187.932 274.746 189.678 274.746 192.216C274.746 194.826 276.51 196.392 279.102 196.392C280.272 196.392 281.262 196.14 281.892 195.672V193.53C281.082 194.016 280.416 194.178 279.552 194.178C278.508 194.178 277.716 193.782 277.482 192.81ZM278.778 190.074C279.462 190.074 279.876 190.542 279.948 191.226H277.518C277.716 190.488 278.166 190.074 278.778 190.074ZM285.972 192.81H290.958V191.982C290.958 189.57 289.68 187.932 287.16 187.932C284.928 187.932 283.236 189.678 283.236 192.216C283.236 194.826 285 196.392 287.592 196.392C288.762 196.392 289.752 196.14 290.382 195.672V193.53C289.572 194.016 288.906 194.178 288.042 194.178C286.998 194.178 286.206 193.782 285.972 192.81ZM287.268 190.074C287.952 190.074 288.366 190.542 288.438 191.226H286.008C286.206 190.488 286.656 190.074 287.268 190.074ZM292.088 188.112V196.212H294.914V191.316C295.058 190.758 295.526 190.434 296.084 190.434C296.804 190.434 297.146 190.92 297.146 191.586V196.212H299.954V190.902C299.954 189.102 298.892 187.932 297.092 187.932C296.156 187.932 295.364 188.31 294.914 188.814V188.112H292.088ZM301.494 185.16V196.212H309.342V193.71H304.392V185.16H301.494ZM315.044 191.334V191.622C314.72 191.388 313.964 191.172 313.28 191.172C311.534 191.172 310.166 192.18 310.166 193.746C310.166 195.456 311.534 196.356 313.136 196.356C314 196.356 314.774 196.068 315.044 195.798V196.212H317.762V191.208C317.762 189.066 316.394 187.932 314 187.932C312.848 187.932 311.768 188.202 311.102 188.562V190.83C311.75 190.452 312.542 190.254 313.316 190.254C314.468 190.254 315.044 190.704 315.044 191.334ZM315.044 193.476V193.944C314.864 194.268 314.414 194.484 313.91 194.484C313.352 194.484 312.794 194.25 312.794 193.692C312.794 193.152 313.352 192.918 313.91 192.918C314.414 192.918 314.864 193.134 315.044 193.476ZM327.653 196.212L324.575 191.856L327.581 188.112H324.341L322.037 191.172V184.512H319.211V196.212H322.037V192.666L324.485 196.212H327.653ZM330.392 192.81H335.378V191.982C335.378 189.57 334.1 187.932 331.58 187.932C329.348 187.932 327.656 189.678 327.656 192.216C327.656 194.826 329.42 196.392 332.012 196.392C333.182 196.392 334.172 196.14 334.802 195.672V193.53C333.992 194.016 333.326 194.178 332.462 194.178C331.418 194.178 330.626 193.782 330.392 192.81ZM331.688 190.074C332.372 190.074 332.786 190.542 332.858 191.226H330.428C330.626 190.488 331.076 190.074 331.688 190.074Z" fill="#444444"/>
<path d="M67.3345 192.774H69.3145C71.7085 192.774 73.3285 191.424 73.3285 188.976C73.3285 186.51 71.7085 185.16 69.3145 185.16H64.4725V196.212H67.3345V192.774ZM70.5205 188.976C70.5205 189.804 70.0525 190.362 69.0085 190.362H67.3345V187.59H69.0085C70.0525 187.59 70.5205 188.13 70.5205 188.976ZM79.9264 190.794V188.076C79.8004 188.004 79.5124 187.932 79.1524 187.932C78.3424 187.932 77.7124 188.292 77.3164 188.832V188.112H74.4904V196.212H77.3164V191.46C77.4604 190.884 77.9824 190.542 78.7564 190.542C79.2064 190.542 79.5844 190.614 79.9264 190.794ZM88.8071 192.162C88.8071 189.66 87.1331 187.932 84.6671 187.932C82.2191 187.932 80.5271 189.66 80.5271 192.162C80.5271 194.664 82.2191 196.392 84.6671 196.392C87.1331 196.392 88.8071 194.664 88.8071 192.162ZM86.0351 192.162C86.0351 193.278 85.5491 194.052 84.6671 194.052C83.8031 194.052 83.3171 193.278 83.3171 192.162C83.3171 191.046 83.8031 190.254 84.6671 190.254C85.5491 190.254 86.0351 191.046 86.0351 192.162ZM95.1959 195.564V196.212H98.0219V184.512H95.1959V188.76C94.8179 188.328 94.0259 187.932 93.1979 187.932C90.8579 187.932 89.5799 189.822 89.5799 192.162C89.5799 194.502 90.8579 196.392 93.1979 196.392C94.0259 196.392 94.8179 195.996 95.1959 195.564ZM95.1959 191.082V193.224C94.9799 193.674 94.5119 193.98 93.9539 193.98C92.9819 193.98 92.4059 193.206 92.4059 192.162C92.4059 191.118 92.9819 190.326 93.9539 190.326C94.4939 190.326 94.9799 190.65 95.1959 191.082ZM107.333 196.212V188.112H104.507V193.026C104.363 193.584 103.877 193.926 103.355 193.926C102.635 193.926 102.311 193.44 102.311 192.756V188.112H99.5032V193.422C99.5032 195.222 100.565 196.392 102.347 196.392C103.265 196.392 104.075 196.014 104.507 195.51V196.212H107.333ZM108.406 192.162C108.406 194.772 110.206 196.392 112.636 196.392C113.464 196.392 114.238 196.23 114.814 195.816V193.44C114.292 193.818 113.734 194.016 113.068 194.016C112.024 194.016 111.196 193.386 111.196 192.162C111.196 190.938 112.024 190.308 113.068 190.308C113.734 190.308 114.292 190.506 114.814 190.884V188.508C114.238 188.094 113.464 187.932 112.636 187.932C110.206 187.932 108.406 189.552 108.406 192.162ZM119.789 196.212V190.308H121.373V188.112H119.789V185.88H116.981V188.112H115.577V190.308H116.981V196.212H119.789ZM122.085 193.242V195.618C122.841 196.122 124.029 196.392 125.163 196.392C127.161 196.392 128.655 195.546 128.655 193.818C128.655 192.45 127.953 191.73 126.189 191.262L125.451 191.046C125.055 190.938 124.821 190.83 124.821 190.524C124.821 190.2 125.145 190.038 125.631 190.038C126.549 190.038 127.413 190.416 128.187 190.974V188.652C127.395 188.166 126.513 187.932 125.361 187.932C123.453 187.932 122.049 188.886 122.049 190.578C122.049 192.036 123.003 192.738 124.497 193.062L125.127 193.224C125.613 193.332 125.865 193.458 125.865 193.782C125.865 194.142 125.505 194.268 124.947 194.268C124.119 194.268 122.859 193.872 122.085 193.242Z" fill="#444444"/>
<path d="M266.195 320.774H268.175C270.569 320.774 272.189 319.424 272.189 316.976C272.189 314.51 270.569 313.16 268.175 313.16H263.333V324.212H266.195V320.774ZM269.381 316.976C269.381 317.804 268.913 318.362 267.869 318.362H266.195V315.59H267.869C268.913 315.59 269.381 316.13 269.381 316.976ZM280.9 320.162C280.9 317.66 279.226 315.932 276.76 315.932C274.312 315.932 272.62 317.66 272.62 320.162C272.62 322.664 274.312 324.392 276.76 324.392C279.226 324.392 280.9 322.664 280.9 320.162ZM278.128 320.162C278.128 321.278 277.642 322.052 276.76 322.052C275.896 322.052 275.41 321.278 275.41 320.162C275.41 319.046 275.896 318.254 276.76 318.254C277.642 318.254 278.128 319.046 278.128 320.162ZM285.023 313.916C285.023 312.98 284.285 312.386 283.421 312.386C282.557 312.386 281.819 312.98 281.819 313.916C281.819 314.834 282.557 315.428 283.421 315.428C284.285 315.428 285.023 314.834 285.023 313.916ZM284.825 324.212V316.112H281.999V324.212H284.825ZM286.359 316.112V324.212H289.185V319.316C289.329 318.758 289.797 318.434 290.355 318.434C291.075 318.434 291.417 318.92 291.417 319.586V324.212H294.225V318.902C294.225 317.102 293.163 315.932 291.363 315.932C290.427 315.932 289.635 316.31 289.185 316.814V316.112H286.359ZM299.437 324.212V318.308H301.021V316.112H299.437V313.88H296.629V316.112H295.225V318.308H296.629V324.212H299.437ZM311.884 324.212V313.16H309.094V319.244L304.828 313.16H302.128V324.212H304.918V317.75L309.544 324.212H311.884ZM315.768 320.81H320.754V319.982C320.754 317.57 319.476 315.932 316.956 315.932C314.724 315.932 313.032 317.678 313.032 320.216C313.032 322.826 314.796 324.392 317.388 324.392C318.558 324.392 319.548 324.14 320.178 323.672V321.53C319.368 322.016 318.702 322.178 317.838 322.178C316.794 322.178 316.002 321.782 315.768 320.81ZM317.064 318.074C317.748 318.074 318.162 318.542 318.234 319.226H315.804C316.002 318.488 316.452 318.074 317.064 318.074ZM326.875 320.072L329.593 316.112H326.677L325.399 318.056L324.139 316.112H321.097L323.797 320.09L320.971 324.212H323.887L325.273 322.106L326.659 324.212H329.719L326.875 320.072ZM334.294 324.212V318.308H335.878V316.112H334.294V313.88H331.486V316.112H330.082V318.308H331.486V324.212H334.294Z" fill="#444444"/>
<path d="M267.177 447H270.039V443.094H274.557V440.646H270.039V438.45H274.953V435.948H267.177V447ZM279.252 436.704C279.252 435.768 278.514 435.174 277.65 435.174C276.786 435.174 276.048 435.768 276.048 436.704C276.048 437.622 276.786 438.216 277.65 438.216C278.514 438.216 279.252 437.622 279.252 436.704ZM279.054 447V438.9H276.228V447H279.054ZM280.587 438.9V447H283.413V442.104C283.557 441.546 284.025 441.222 284.583 441.222C285.303 441.222 285.645 441.708 285.645 442.374V447H288.453V441.69C288.453 439.89 287.391 438.72 285.591 438.72C284.655 438.72 283.863 439.098 283.413 439.602V438.9H280.587ZM294.367 442.122V442.41C294.043 442.176 293.287 441.96 292.603 441.96C290.857 441.96 289.489 442.968 289.489 444.534C289.489 446.244 290.857 447.144 292.459 447.144C293.323 447.144 294.097 446.856 294.367 446.586V447H297.085V441.996C297.085 439.854 295.717 438.72 293.323 438.72C292.171 438.72 291.091 438.99 290.425 439.35V441.618C291.073 441.24 291.865 441.042 292.639 441.042C293.791 441.042 294.367 441.492 294.367 442.122ZM294.367 444.264V444.732C294.187 445.056 293.737 445.272 293.233 445.272C292.675 445.272 292.117 445.038 292.117 444.48C292.117 443.94 292.675 443.706 293.233 443.706C293.737 443.706 294.187 443.922 294.367 444.264ZM298.534 438.9V447H301.36V442.104C301.504 441.546 301.972 441.222 302.53 441.222C303.25 441.222 303.592 441.708 303.592 442.374V447H306.4V441.69C306.4 439.89 305.338 438.72 303.538 438.72C302.602 438.72 301.81 439.098 301.36 439.602V438.9H298.534ZM307.436 442.95C307.436 445.56 309.236 447.18 311.666 447.18C312.494 447.18 313.268 447.018 313.844 446.604V444.228C313.322 444.606 312.764 444.804 312.098 444.804C311.054 444.804 310.226 444.174 310.226 442.95C310.226 441.726 311.054 441.096 312.098 441.096C312.764 441.096 313.322 441.294 313.844 441.672V439.296C313.268 438.882 312.494 438.72 311.666 438.72C309.236 438.72 307.436 440.34 307.436 442.95ZM318.099 436.704C318.099 435.768 317.361 435.174 316.497 435.174C315.633 435.174 314.895 435.768 314.895 436.704C314.895 437.622 315.633 438.216 316.497 438.216C317.361 438.216 318.099 437.622 318.099 436.704ZM317.901 447V438.9H315.075V447H317.901ZM323.881 442.122V442.41C323.557 442.176 322.801 441.96 322.117 441.96C320.371 441.96 319.003 442.968 319.003 444.534C319.003 446.244 320.371 447.144 321.973 447.144C322.837 447.144 323.611 446.856 323.881 446.586V447H326.599V441.996C326.599 439.854 325.231 438.72 322.837 438.72C321.685 438.72 320.605 438.99 319.939 439.35V441.618C320.587 441.24 321.379 441.042 322.153 441.042C323.305 441.042 323.881 441.492 323.881 442.122ZM323.881 444.264V444.732C323.701 445.056 323.251 445.272 322.747 445.272C322.189 445.272 321.631 445.038 321.631 444.48C321.631 443.94 322.189 443.706 322.747 443.706C323.251 443.706 323.701 443.922 323.881 444.264ZM330.874 447V435.3H328.048V447H330.874ZM269.298 467.616V470.28C270.108 470.766 271.44 471.18 272.916 471.18C275.4 471.18 277.434 470.118 277.434 467.724C277.434 466.032 276.516 464.97 274.5 464.34L272.826 463.836C272.25 463.656 271.908 463.458 271.908 462.954C271.908 462.396 272.538 462.162 273.366 462.162C274.626 462.162 275.724 462.576 276.714 463.26V460.596C275.796 460.092 274.734 459.768 273.24 459.768C270.918 459.768 269.064 460.974 269.064 463.17C269.064 465.006 270.09 465.924 271.944 466.464L273.618 466.95C274.212 467.166 274.554 467.346 274.554 467.886C274.554 468.57 273.762 468.768 272.844 468.768C271.602 468.768 270.252 468.264 269.298 467.616ZM280.993 467.598H285.979V466.77C285.979 464.358 284.701 462.72 282.181 462.72C279.949 462.72 278.257 464.466 278.257 467.004C278.257 469.614 280.021 471.18 282.613 471.18C283.783 471.18 284.773 470.928 285.403 470.46V468.318C284.593 468.804 283.927 468.966 283.063 468.966C282.019 468.966 281.227 468.57 280.993 467.598ZM282.289 464.862C282.973 464.862 283.387 465.33 283.459 466.014H281.029C281.227 465.276 281.677 464.862 282.289 464.862ZM292.545 465.582V462.864C292.419 462.792 292.131 462.72 291.771 462.72C290.961 462.72 290.331 463.08 289.935 463.62V462.9H287.109V471H289.935V466.248C290.079 465.672 290.601 465.33 291.375 465.33C291.825 465.33 292.203 465.402 292.545 465.582ZM296.131 471H298.669L301.765 462.9H298.993L297.481 467.544L295.933 462.9H293.053L296.131 471ZM305.654 460.704C305.654 459.768 304.916 459.174 304.052 459.174C303.188 459.174 302.45 459.768 302.45 460.704C302.45 461.622 303.188 462.216 304.052 462.216C304.916 462.216 305.654 461.622 305.654 460.704ZM305.456 471V462.9H302.63V471H305.456ZM306.557 466.95C306.557 469.56 308.357 471.18 310.787 471.18C311.615 471.18 312.389 471.018 312.965 470.604V468.228C312.443 468.606 311.885 468.804 311.219 468.804C310.175 468.804 309.347 468.174 309.347 466.95C309.347 465.726 310.175 465.096 311.219 465.096C311.885 465.096 312.443 465.294 312.965 465.672V463.296C312.389 462.882 311.615 462.72 310.787 462.72C308.357 462.72 306.557 464.34 306.557 466.95ZM316.5 467.598H321.486V466.77C321.486 464.358 320.208 462.72 317.688 462.72C315.456 462.72 313.764 464.466 313.764 467.004C313.764 469.614 315.528 471.18 318.12 471.18C319.29 471.18 320.28 470.928 320.91 470.46V468.318C320.1 468.804 319.434 468.966 318.57 468.966C317.526 468.966 316.734 468.57 316.5 467.598ZM317.796 464.862C318.48 464.862 318.894 465.33 318.966 466.014H316.536C316.734 465.276 317.184 464.862 317.796 464.862ZM322.346 468.03V470.406C323.102 470.91 324.29 471.18 325.424 471.18C327.422 471.18 328.916 470.334 328.916 468.606C328.916 467.238 328.214 466.518 326.45 466.05L325.712 465.834C325.316 465.726 325.082 465.618 325.082 465.312C325.082 464.988 325.406 464.826 325.892 464.826C326.81 464.826 327.674 465.204 328.448 465.762V463.44C327.656 462.954 326.774 462.72 325.622 462.72C323.714 462.72 322.31 463.674 322.31 465.366C322.31 466.824 323.264 467.526 324.758 467.85L325.388 468.012C325.874 468.12 326.126 468.246 326.126 468.57C326.126 468.93 325.766 469.056 325.208 469.056C324.38 469.056 323.12 468.66 322.346 468.03Z" fill="#444444"/>
<defs>
<filter id="filter0_d_2259_12262" x="199.834" y="0" width="186.828" height="117.645" filterUnits="userSpaceOnUse" color-interpolation-filters="sRGB">
<feFlood flood-opacity="0" result="BackgroundImageFix"/>
<feColorMatrix in="SourceAlpha" type="matrix" values="0 0 0 0 0 0 0 0 0 0 0 0 0 0 0 0 0 0 127 0" result="hardAlpha"/>
<feOffset dy="6"/>
<feGaussianBlur stdDeviation="6"/>
<feColorMatrix type="matrix" values="0 0 0 0 0 0 0 0 0 0 0 0 0 0 0 0 0 0 0.12 0"/>
<feBlend mode="normal" in2="BackgroundImageFix" result="effect1_dropShadow_2259_12262"/>
<feBlend mode="normal" in="SourceGraphic" in2="effect1_dropShadow_2259_12262" result="shape"/>
</filter>
<filter id="filter1_d_2259_12262" x="399.669" y="0" width="186.828" height="117.645" filterUnits="userSpaceOnUse" color-interpolation-filters="sRGB">
<feFlood flood-opacity="0" result="BackgroundImageFix"/>
<feColorMatrix in="SourceAlpha" type="matrix" values="0 0 0 0 0 0 0 0 0 0 0 0 0 0 0 0 0 0 127 0" result="hardAlpha"/>
<feOffset dy="6"/>
<feGaussianBlur stdDeviation="6"/>
<feColorMatrix type="matrix" values="0 0 0 0 0 0 0 0 0 0 0 0 0 0 0 0 0 0 0.12 0"/>
<feBlend mode="normal" in2="BackgroundImageFix" result="effect1_dropShadow_2259_12262"/>
<feBlend mode="normal" in="SourceGraphic" in2="effect1_dropShadow_2259_12262" result="shape"/>
</filter>
<filter id="filter2_d_2259_12262" x="599.503" y="0" width="186.828" height="117.645" filterUnits="userSpaceOnUse" color-interpolation-filters="sRGB">
<feFlood flood-opacity="0" result="BackgroundImageFix"/>
<feColorMatrix in="SourceAlpha" type="matrix" values="0 0 0 0 0 0 0 0 0 0 0 0 0 0 0 0 0 0 127 0" result="hardAlpha"/>
<feOffset dy="6"/>
<feGaussianBlur stdDeviation="6"/>
<feColorMatrix type="matrix" values="0 0 0 0 0 0 0 0 0 0 0 0 0 0 0 0 0 0 0.12 0"/>
<feBlend mode="normal" in2="BackgroundImageFix" result="effect1_dropShadow_2259_12262"/>
<feBlend mode="normal" in="SourceGraphic" in2="effect1_dropShadow_2259_12262" result="shape"/>
</filter>
<filter id="filter3_d_2259_12262" x="799.338" y="0" width="186.828" height="117.645" filterUnits="userSpaceOnUse" color-interpolation-filters="sRGB">
<feFlood flood-opacity="0" result="BackgroundImageFix"/>
<feColorMatrix in="SourceAlpha" type="matrix" values="0 0 0 0 0 0 0 0 0 0 0 0 0 0 0 0 0 0 127 0" result="hardAlpha"/>
<feOffset dy="6"/>
<feGaussianBlur stdDeviation="6"/>
<feColorMatrix type="matrix" values="0 0 0 0 0 0 0 0 0 0 0 0 0 0 0 0 0 0 0.12 0"/>
<feBlend mode="normal" in2="BackgroundImageFix" result="effect1_dropShadow_2259_12262"/>
<feBlend mode="normal" in="SourceGraphic" in2="effect1_dropShadow_2259_12262" result="shape"/>
</filter>
<filter id="filter4_d_2259_12262" x="999.172" y="0" width="186.828" height="117.645" filterUnits="userSpaceOnUse" color-interpolation-filters="sRGB">
<feFlood flood-opacity="0" result="BackgroundImageFix"/>
<feColorMatrix in="SourceAlpha" type="matrix" values="0 0 0 0 0 0 0 0 0 0 0 0 0 0 0 0 0 0 127 0" result="hardAlpha"/>
<feOffset dy="6"/>
<feGaussianBlur stdDeviation="6"/>
<feColorMatrix type="matrix" values="0 0 0 0 0 0 0 0 0 0 0 0 0 0 0 0 0 0 0.12 0"/>
<feBlend mode="normal" in2="BackgroundImageFix" result="effect1_dropShadow_2259_12262"/>
<feBlend mode="normal" in="SourceGraphic" in2="effect1_dropShadow_2259_12262" result="shape"/>
</filter>
<filter id="filter5_d_2259_12262" x="0" y="0" width="186.828" height="117.645" filterUnits="userSpaceOnUse" color-interpolation-filters="sRGB">
<feFlood flood-opacity="0" result="BackgroundImageFix"/>
<feColorMatrix in="SourceAlpha" type="matrix" values="0 0 0 0 0 0 0 0 0 0 0 0 0 0 0 0 0 0 127 0" result="hardAlpha"/>
<feOffset dy="6"/>
<feGaussianBlur stdDeviation="6"/>
<feColorMatrix type="matrix" values="0 0 0 0 0 0 0 0 0 0 0 0 0 0 0 0 0 0 0.12 0"/>
<feBlend mode="normal" in2="BackgroundImageFix" result="effect1_dropShadow_2259_12262"/>
<feBlend mode="normal" in="SourceGraphic" in2="effect1_dropShadow_2259_12262" result="shape"/>
</filter>
<filter id="filter6_d_2259_12262" x="203" y="134" width="186.828" height="117.645" filterUnits="userSpaceOnUse" color-interpolation-filters="sRGB">
<feFlood flood-opacity="0" result="BackgroundImageFix"/>
<feColorMatrix in="SourceAlpha" type="matrix" values="0 0 0 0 0 0 0 0 0 0 0 0 0 0 0 0 0 0 127 0" result="hardAlpha"/>
<feOffset dy="6"/>
<feGaussianBlur stdDeviation="6"/>
<feColorMatrix type="matrix" values="0 0 0 0 0 0 0 0 0 0 0 0 0 0 0 0 0 0 0.12 0"/>
<feBlend mode="normal" in2="BackgroundImageFix" result="effect1_dropShadow_2259_12262"/>
<feBlend mode="normal" in="SourceGraphic" in2="effect1_dropShadow_2259_12262" result="shape"/>
</filter>
<filter id="filter7_d_2259_12262" x="2" y="134" width="186.828" height="117.645" filterUnits="userSpaceOnUse" color-interpolation-filters="sRGB">
<feFlood flood-opacity="0" result="BackgroundImageFix"/>
<feColorMatrix in="SourceAlpha" type="matrix" values="0 0 0 0 0 0 0 0 0 0 0 0 0 0 0 0 0 0 127 0" result="hardAlpha"/>
<feOffset dy="6"/>
<feGaussianBlur stdDeviation="6"/>
<feColorMatrix type="matrix" values="0 0 0 0 0 0 0 0 0 0 0 0 0 0 0 0 0 0 0.12 0"/>
<feBlend mode="normal" in2="BackgroundImageFix" result="effect1_dropShadow_2259_12262"/>
<feBlend mode="normal" in="SourceGraphic" in2="effect1_dropShadow_2259_12262" result="shape"/>
</filter>
<filter id="filter8_d_2259_12262" x="205" y="262" width="186.828" height="117.645" filterUnits="userSpaceOnUse" color-interpolation-filters="sRGB">
<feFlood flood-opacity="0" result="BackgroundImageFix"/>
<feColorMatrix in="SourceAlpha" type="matrix" values="0 0 0 0 0 0 0 0 0 0 0 0 0 0 0 0 0 0 127 0" result="hardAlpha"/>
<feOffset dy="6"/>
<feGaussianBlur stdDeviation="6"/>
<feColorMatrix type="matrix" values="0 0 0 0 0 0 0 0 0 0 0 0 0 0 0 0 0 0 0.12 0"/>
<feBlend mode="normal" in2="BackgroundImageFix" result="effect1_dropShadow_2259_12262"/>
<feBlend mode="normal" in="SourceGraphic" in2="effect1_dropShadow_2259_12262" result="shape"/>
</filter>
<filter id="filter9_d_2259_12262" x="205" y="397" width="186.828" height="117.645" filterUnits="userSpaceOnUse" color-interpolation-filters="sRGB">
<feFlood flood-opacity="0" result="BackgroundImageFix"/>
<feColorMatrix in="SourceAlpha" type="matrix" values="0 0 0 0 0 0 0 0 0 0 0 0 0 0 0 0 0 0 127 0" result="hardAlpha"/>
<feOffset dy="6"/>
<feGaussianBlur stdDeviation="6"/>
<feColorMatrix type="matrix" values="0 0 0 0 0 0 0 0 0 0 0 0 0 0 0 0 0 0 0.12 0"/>
<feBlend mode="normal" in2="BackgroundImageFix" result="effect1_dropShadow_2259_12262"/>
<feBlend mode="normal" in="SourceGraphic" in2="effect1_dropShadow_2259_12262" result="shape"/>
</filter>
</defs>
</svg>
