<svg width="336" height="192" viewBox="0 0 336 192" fill="none" xmlns="http://www.w3.org/2000/svg">
<path d="M104.172 37.0156H22.0527C20.3084 37.0156 18.8943 38.4298 18.8943 40.1742V83.3413C18.8943 85.0858 20.3084 86.4999 22.0527 86.4999H104.172C105.917 86.4999 107.331 85.0858 107.331 83.3413V40.1742C107.331 38.4298 105.917 37.0156 104.172 37.0156Z" fill="#01A982"/>
<path d="M209.454 38.0684H127.334C125.59 38.0684 124.176 39.4825 124.176 41.2269V84.3941C124.176 86.1385 125.59 87.5526 127.334 87.5526H209.454C211.199 87.5526 212.613 86.1385 212.613 84.3941V41.2269C212.613 39.4825 211.199 38.0684 209.454 38.0684Z" fill="#01A982"/>
<path d="M314.736 37.0156H232.616C230.872 37.0156 229.458 38.4298 229.458 40.1742V83.3413C229.458 85.0858 230.872 86.4999 232.616 86.4999H314.736C316.48 86.4999 317.894 85.0858 317.894 83.3413V40.1742C317.894 38.4298 316.48 37.0156 314.736 37.0156Z" fill="#01A982"/>
<path d="M111 62.5C110.724 62.5 110.5 62.7239 110.5 63C110.5 63.2761 110.724 63.5 111 63.5V63V62.5ZM121.354 63.3536C121.549 63.1583 121.549 62.8417 121.354 62.6464L118.172 59.4645C117.976 59.2692 117.66 59.2692 117.464 59.4645C117.269 59.6597 117.269 59.9763 117.464 60.1716L120.293 63L117.464 65.8284C117.269 66.0237 117.269 66.3403 117.464 66.5355C117.66 66.7308 117.976 66.7308 118.172 66.5355L121.354 63.3536ZM111 63V63.5H121V63V62.5H111V63Z" fill="white" fill-opacity="0.36"/>
<path d="M221 129.5C220.724 129.5 220.5 129.724 220.5 130C220.5 130.276 220.724 130.5 221 130.5V130V129.5ZM274 130V130.5H274.5V130H274ZM274.354 94.6464C274.158 94.4512 273.842 94.4512 273.646 94.6464L270.464 97.8284C270.269 98.0237 270.269 98.3403 270.464 98.5355C270.66 98.7308 270.976 98.7308 271.172 98.5355L274 95.7071L276.828 98.5355C277.024 98.7308 277.34 98.7308 277.536 98.5355C277.731 98.3403 277.731 98.0237 277.536 97.8284L274.354 94.6464ZM221 130V130.5H274V130V129.5H221V130ZM274 130H274.5V95H274H273.5V130H274Z" fill="white" fill-opacity="0.36"/>
<path d="M168.5 91C168.5 90.7239 168.276 90.5 168 90.5C167.724 90.5 167.5 90.7239 167.5 91H168H168.5ZM167.646 101.354C167.842 101.549 168.158 101.549 168.354 101.354L171.536 98.1716C171.731 97.9763 171.731 97.6597 171.536 97.4645C171.34 97.2692 171.024 97.2692 170.828 97.4645L168 100.293L165.172 97.4645C164.976 97.2692 164.66 97.2692 164.464 97.4645C164.269 97.6597 164.269 97.9763 164.464 98.1716L167.646 101.354ZM168 91H167.5V101H168H168.5V91H168Z" fill="white" fill-opacity="0.36"/>
<path d="M209.454 105.451H127.334C125.59 105.451 124.176 106.865 124.176 108.61V151.777C124.176 153.521 125.59 154.935 127.334 154.935H209.454C211.199 154.935 212.613 153.521 212.613 151.777V108.61C212.613 106.865 211.199 105.451 209.454 105.451Z" fill="#B1B9BE"/>
</svg>
