<svg width="336" height="192" viewBox="0 0 336 192" fill="none" xmlns="http://www.w3.org/2000/svg">
<path d="M104.173 71H22.053C20.3086 71 18.8945 72.4141 18.8945 74.1586V117.326C18.8945 119.07 20.3086 120.484 22.053 120.484H104.173C105.917 120.484 107.331 119.07 107.331 117.326V74.1586C107.331 72.4141 105.917 71 104.173 71Z" fill="#01A982"/>
<path d="M210.278 71H128.158C126.414 71 125 72.4141 125 74.1586V117.326C125 119.07 126.414 120.484 128.158 120.484H210.278C212.023 120.484 213.437 119.07 213.437 117.326V74.1586C213.437 72.4141 212.023 71 210.278 71Z" fill="#01A982"/>
<path d="M316.278 71H234.158C232.414 71 231 72.4141 231 74.1586V117.326C231 119.07 232.414 120.484 234.158 120.484H316.278C318.023 120.484 319.437 119.07 319.437 117.326V74.1586C319.437 72.4141 318.023 71 316.278 71Z" fill="#01A982"/>
<path d="M111 95H121" stroke="white" stroke-opacity="0.36" stroke-linecap="round"/>
<path d="M217 95H227" stroke="white" stroke-opacity="0.36" stroke-linecap="round"/>
</svg>
