<svg width="336" height="192" viewBox="0 0 336 192" fill="none" xmlns="http://www.w3.org/2000/svg">
<path fill-rule="evenodd" clip-rule="evenodd" d="M168 88.6666C171.314 88.6666 174 91.3531 174 94.6666V100H174.667C175.035 100 175.333 100.298 175.333 100.667C175.333 101.035 175.035 101.333 174.667 101.333H170C170 102.438 169.105 103.333 168 103.333C166.895 103.333 166 102.438 166 101.333H161.333C160.965 101.333 160.667 101.035 160.667 100.667C160.667 100.298 160.965 100 161.333 100H162V94.6666C162 91.3531 164.687 88.6666 168 88.6666ZM167.333 101.333C167.333 101.701 167.632 102 168 102C168.368 102 168.667 101.701 168.667 101.333H167.333ZM168 90C165.423 90 163.333 92.0895 163.333 94.6666V100H172.667V94.6666C172.667 92.0895 170.577 90 168 90Z" fill="#292D3A"/>
<path d="M177 78C177 73.0294 181.029 69 186 69C190.971 69 195 73.0294 195 78C195 82.9706 190.971 87 186 87C181.029 87 177 82.9706 177 78Z" fill="#292D3A"/>
<path d="M182.906 82V81.76L186.314 78.172C187.094 77.344 187.55 76.564 187.55 75.688C187.55 74.728 186.986 74.152 186.014 74.152C185.018 74.152 184.37 74.716 184.202 76.06H183.23C183.362 74.38 184.382 73.312 186.014 73.312C187.598 73.312 188.606 74.248 188.606 75.724C188.606 76.78 187.934 77.812 186.878 78.844L184.514 81.148H188.654V82H182.906Z" fill="white"/>
</svg>
