<svg width="336" height="192" viewBox="0 0 336 192" fill="none" xmlns="http://www.w3.org/2000/svg">
<path fill-rule="evenodd" clip-rule="evenodd" d="M129.961 77.6943C157.868 78.2072 180.333 100.971 180.333 129C180.333 157.03 157.868 179.793 129.961 180.306C129.645 180.322 129.325 180.334 129 180.334C128.673 180.334 128.351 180.323 128.034 180.306C100.129 179.791 77.6665 157.028 77.6665 129C77.6665 100.973 100.129 78.2096 128.034 77.6943C128.351 77.6781 128.673 77.667 129 77.667C129.325 77.667 129.645 77.6782 129.961 77.6943ZM116.786 152.334C117.332 155.287 118.009 157.982 118.828 160.364C121.541 168.257 125.082 171 129 171C132.918 171 136.458 168.257 139.172 160.364C139.99 157.982 140.668 155.287 141.213 152.334H116.786ZM94.0773 152.334C98.382 158.764 104.417 163.931 111.514 167.186C110.955 165.959 110.45 164.69 110.005 163.394C108.862 160.068 107.982 156.342 107.321 152.334H94.0773ZM150.679 152.334C150.017 156.342 149.138 160.068 147.995 163.394C147.549 164.69 147.041 165.959 146.482 167.186C153.58 163.931 159.617 158.765 163.922 152.334H150.679ZM151.805 115C152.17 119.498 152.333 124.207 152.333 129C152.333 133.794 152.17 138.502 151.805 143H166.333C167.086 143 167.795 143.185 168.425 143.502C170.088 138.981 171 134.098 171 129C171 124.091 170.151 119.38 168.603 115H151.805ZM89.397 115C87.8487 119.38 86.9998 124.091 86.9998 129C86.9998 133.91 87.8487 138.621 89.397 143H106.195C105.83 138.502 105.667 133.794 105.667 129C105.667 124.207 105.83 119.498 106.195 115H89.397ZM115.565 115C115.185 119.362 115 124.064 115 129C115 133.936 115.185 138.639 115.565 143H142.435C142.815 138.639 143 133.936 143 129C143 124.064 142.815 119.362 142.435 115H115.565ZM111.514 90.8102C104.416 94.0654 98.3824 99.2365 94.0773 105.667H107.321C107.982 101.658 108.862 97.9329 110.005 94.6064C110.451 93.3098 110.954 92.038 111.514 90.8102ZM129 87.0003C125.082 87.0003 121.541 89.7439 118.828 97.637C118.009 100.019 117.332 102.714 116.786 105.667H141.213C140.668 102.714 139.99 100.019 139.172 97.637C136.458 89.7439 132.918 87.0003 129 87.0003ZM146.482 90.8102C147.042 92.0385 147.549 93.3091 147.995 94.6064C149.138 97.9329 150.017 101.658 150.679 105.667H163.922C159.617 99.2354 153.581 94.0653 146.482 90.8102Z" fill="#E6E8E9"/>
</svg>
