<svg width="336" height="192" viewBox="0 0 336 192" fill="none" xmlns="http://www.w3.org/2000/svg">
<g filter="url(#filter0_d_92_526)">
<path d="M54.2114 60.1102C54.2114 56.8456 56.8578 54.1992 60.1221 54.1992H274.878C278.143 54.1992 280.789 56.8456 280.789 60.1102V131.041C280.789 134.306 278.143 136.952 274.878 136.952H60.1221C56.8578 136.952 54.2114 134.306 54.2114 131.041V60.1102Z" fill="#292D3A"/>
</g>
<rect x="109.252" y="92.5859" width="32.8281" height="2" rx="1" fill="white" fill-opacity="0.36"/>
<rect x="185.851" y="92.5859" width="32.8281" height="2" rx="1" fill="white" fill-opacity="0.36"/>
<path d="M147.552 93.5859C147.552 84.5207 154.901 77.1719 163.966 77.1719C173.031 77.1719 180.38 84.5207 180.38 93.5859C180.38 102.651 173.031 110 163.966 110C154.901 110 147.552 102.651 147.552 93.5859Z" fill="#05CC93"/>
<path d="M179.012 93.5863C179.012 101.896 172.276 108.632 163.966 108.632C155.656 108.632 148.92 101.896 148.92 93.5863C148.92 85.2765 155.656 78.54 163.966 78.54C172.276 78.54 179.012 85.2765 179.012 93.5863Z" fill="#05CC93"/>
<path d="M172.173 93.5859C172.173 98.1186 168.498 101.793 163.966 101.793C159.433 101.793 155.759 98.1186 155.759 93.5859C155.759 89.0533 159.433 85.3789 163.966 85.3789C168.498 85.3789 172.173 89.0533 172.173 93.5859Z" fill="#292D3A"/>
<g filter="url(#filter1_d_92_526)">
<mask id="path-9-outside-1_92_526" maskUnits="userSpaceOnUse" x="146.92" y="76.54" width="35" height="35" fill="black">
<rect fill="white" x="146.92" y="76.54" width="35" height="35"/>
<path d="M148.92 93.5863C148.92 85.2765 155.656 78.54 163.966 78.54C172.276 78.54 179.012 85.2765 179.012 93.5863C179.012 101.896 172.276 108.632 163.966 108.632C155.656 108.632 148.92 101.896 148.92 93.5863Z"/>
</mask>
<path d="M148.92 93.5863C148.92 85.2765 155.656 78.54 163.966 78.54C172.276 78.54 179.012 85.2765 179.012 93.5863C179.012 101.896 172.276 108.632 163.966 108.632C155.656 108.632 148.92 101.896 148.92 93.5863Z" fill="white" fill-opacity="0.01" shape-rendering="crispEdges"/>
<path d="M163.966 108.632V106.632C156.761 106.632 150.92 100.791 150.92 93.5863H148.92H146.92C146.92 103.001 154.552 110.632 163.966 110.632V108.632ZM179.012 93.5863H177.012C177.012 100.791 171.171 106.632 163.966 106.632V108.632V110.632C173.38 110.632 181.012 103.001 181.012 93.5863H179.012ZM163.966 78.54V80.54C171.171 80.54 177.012 86.381 177.012 93.5863H179.012H181.012C181.012 84.1719 173.38 76.54 163.966 76.54V78.54ZM163.966 78.54V76.54C154.552 76.54 146.92 84.1719 146.92 93.5863H148.92H150.92C150.92 86.381 156.761 80.54 163.966 80.54V78.54Z" fill="#292D3A" mask="url(#path-9-outside-1_92_526)"/>
</g>
<path fill-rule="evenodd" clip-rule="evenodd" d="M232.358 81.0469C239.283 81.0469 244.896 86.6606 244.896 93.5854C244.896 100.51 239.283 106.124 232.358 106.124C225.433 106.124 219.819 100.51 219.819 93.5854C219.819 86.6606 225.433 81.0469 232.358 81.0469Z" fill="#05CC93"/>
<path d="M235.951 88.4215C236.285 87.888 236.988 87.7261 237.522 88.0597C238.055 88.3935 238.217 89.0967 237.883 89.6304L232.184 98.7493C232 99.0436 231.692 99.2376 231.347 99.2769C231.002 99.3162 230.658 99.1964 230.412 98.9508L226.992 95.5312C226.547 95.086 226.547 94.3645 226.992 93.9193C227.438 93.4742 228.159 93.4742 228.604 93.9193L231.01 96.3248L235.951 88.4215Z" fill="#292D3A"/>
<path fill-rule="evenodd" clip-rule="evenodd" d="M95.574 81.0469C102.499 81.0469 108.113 86.6606 108.113 93.5854C108.113 100.51 102.499 106.124 95.574 106.124C88.6491 106.124 83.0355 100.51 83.0355 93.5854C83.0355 86.6606 88.6491 81.0469 95.574 81.0469ZM95.574 83.3266C89.9082 83.3266 85.3152 87.9196 85.3152 93.5854C85.3152 99.2512 89.9082 103.844 95.574 103.844C101.24 103.844 105.833 99.2512 105.833 93.5854C105.833 87.9196 101.24 83.3266 95.574 83.3266Z" fill="#B1B9BE"/>
<defs>
<filter id="filter0_d_92_526" x="42.2114" y="48.1992" width="250.577" height="106.753" filterUnits="userSpaceOnUse" color-interpolation-filters="sRGB">
<feFlood flood-opacity="0" result="BackgroundImageFix"/>
<feColorMatrix in="SourceAlpha" type="matrix" values="0 0 0 0 0 0 0 0 0 0 0 0 0 0 0 0 0 0 127 0" result="hardAlpha"/>
<feOffset dy="6"/>
<feGaussianBlur stdDeviation="6"/>
<feColorMatrix type="matrix" values="0 0 0 0 0 0 0 0 0 0 0 0 0 0 0 0 0 0 0.12 0"/>
<feBlend mode="normal" in2="BackgroundImageFix" result="effect1_dropShadow_92_526"/>
<feBlend mode="normal" in="SourceGraphic" in2="effect1_dropShadow_92_526" result="shape"/>
</filter>
<filter id="filter1_d_92_526" x="144.92" y="74.54" width="38.0925" height="38.0928" filterUnits="userSpaceOnUse" color-interpolation-filters="sRGB">
<feFlood flood-opacity="0" result="BackgroundImageFix"/>
<feColorMatrix in="SourceAlpha" type="matrix" values="0 0 0 0 0 0 0 0 0 0 0 0 0 0 0 0 0 0 127 0" result="hardAlpha"/>
<feMorphology radius="2" operator="dilate" in="SourceAlpha" result="effect1_dropShadow_92_526"/>
<feOffset/>
<feComposite in2="hardAlpha" operator="out"/>
<feColorMatrix type="matrix" values="0 0 0 0 1 0 0 0 0 1 0 0 0 0 1 0 0 0 1 0"/>
<feBlend mode="normal" in2="BackgroundImageFix" result="effect1_dropShadow_92_526"/>
<feBlend mode="normal" in="SourceGraphic" in2="effect1_dropShadow_92_526" result="shape"/>
</filter>
</defs>
</svg>
