<svg width="336" height="192" viewBox="0 0 336 192" fill="none" xmlns="http://www.w3.org/2000/svg">
<path fill-rule="evenodd" clip-rule="evenodd" d="M168.961 44.6943C196.868 45.2072 219.333 67.971 219.333 96.0003C219.333 124.03 196.868 146.793 168.961 147.306C168.645 147.322 168.325 147.334 168 147.334C167.673 147.334 167.351 147.323 167.034 147.306C139.129 146.791 116.667 124.028 116.667 96.0003C116.667 67.9726 139.129 45.2096 167.034 44.6943C167.351 44.6781 167.673 44.667 168 44.667C168.325 44.667 168.645 44.6782 168.961 44.6943ZM155.786 119.334C156.332 122.287 157.009 124.982 157.828 127.364C160.541 135.257 164.082 138 168 138C171.918 138 175.458 135.257 178.172 127.364C178.99 124.982 179.668 122.287 180.213 119.334H155.786ZM133.077 119.334C137.382 125.764 143.417 130.931 150.514 134.186C149.955 132.959 149.45 131.69 149.005 130.394C147.862 127.068 146.982 123.342 146.321 119.334H133.077ZM189.679 119.334C189.017 123.342 188.138 127.068 186.995 130.394C186.549 131.69 186.041 132.959 185.482 134.186C192.58 130.931 198.617 125.765 202.922 119.334H189.679ZM190.805 82.0003C191.17 86.4984 191.333 91.2068 191.333 96.0003C191.333 100.794 191.17 105.502 190.805 110H205.333C206.086 110 206.795 110.185 207.425 110.502C209.088 105.981 210 101.098 210 96.0003C210 91.0906 209.151 86.3799 207.603 82.0003H190.805ZM128.397 82.0003C126.849 86.3799 126 91.0906 126 96.0003C126 100.91 126.849 105.621 128.397 110H145.195C144.83 105.502 144.667 100.794 144.667 96.0003C144.667 91.2068 144.83 86.4984 145.195 82.0003H128.397ZM154.565 82.0003C154.185 86.3617 154 91.0644 154 96.0003C154 100.936 154.185 105.639 154.565 110H181.435C181.815 105.639 182 100.936 182 96.0003C182 91.0644 181.815 86.3617 181.435 82.0003H154.565ZM150.514 57.8102C143.416 61.0654 137.382 66.2365 133.077 72.667H146.321C146.982 68.6582 147.862 64.9329 149.005 61.6064C149.451 60.3098 149.954 59.038 150.514 57.8102ZM168 54.0003C164.082 54.0003 160.541 56.7439 157.828 64.637C157.009 67.0189 156.332 69.7137 155.786 72.667H180.213C179.668 69.7137 178.99 67.0189 178.172 64.637C175.458 56.7439 171.918 54.0003 168 54.0003ZM185.482 57.8102C186.042 59.0385 186.549 60.3091 186.995 61.6064C188.138 64.9329 189.017 68.6582 189.679 72.667H202.922C198.617 66.2354 192.581 61.0653 185.482 57.8102Z" fill="#3E4550"/>
</svg>
