<svg width="337" height="193" viewBox="0 0 337 193" fill="none" xmlns="http://www.w3.org/2000/svg">
<g clip-path="url(#clip0_118_283)">
<g filter="url(#filter0_d_118_283)">
<path d="M48 36C48 33.7909 49.7909 32 52 32H284C286.209 32 288 33.7909 288 36V156C288 158.209 286.209 160 284 160H52C49.7909 160 48 158.209 48 156V36Z" fill="white"/>
</g>
<path fill-rule="evenodd" clip-rule="evenodd" d="M72.1093 71.0569C71.7814 70.7229 71.2518 70.7209 70.9219 71.0569L67.5682 74.4726C67.2403 74.8066 67.2383 75.3459 67.5682 75.6819L70.9219 79.0977C71.2498 79.4316 71.7794 79.4336 72.1093 79.0977L75.463 75.6819C75.7909 75.348 75.7929 74.8086 75.463 74.4726L72.1093 71.0569Z" fill="#EC3331"/>
<path d="M71.2834 91.9706C71.5222 91.4929 72.2039 91.4929 72.4427 91.9706L76.1468 99.3788C76.3623 99.8097 76.0489 100.317 75.5671 100.317H68.1589C67.6772 100.317 67.3638 99.8097 67.5793 99.3788L71.2834 91.9706Z" fill="#D36D00"/>
<path d="M71.4882 142.157C73.7893 142.157 75.6548 140.257 75.6548 137.913C75.6548 135.569 73.7893 133.669 71.4882 133.669C69.187 133.669 67.3215 135.569 67.3215 137.913C67.3215 140.257 69.187 142.157 71.4882 142.157Z" fill="#009A71"/>
<path d="M71.4882 121.447C73.7893 121.447 75.6548 119.547 75.6548 117.203C75.6548 114.86 73.7893 112.959 71.4882 112.959C69.187 112.959 67.3215 114.86 67.3215 117.203C67.3215 119.547 69.187 121.447 71.4882 121.447Z" fill="#009A71"/>
<path d="M137 46H67V60H137V46Z" fill="black" fill-opacity="0.08"/>
<path d="M227.322 46H197.322V60H227.322V46Z" fill="black" fill-opacity="0.04"/>
<path d="M270.322 46H240.322V60H270.322V46Z" fill="black" fill-opacity="0.04"/>
<path d="M184.322 46H149.322V60H184.322V46Z" fill="black" fill-opacity="0.04"/>
<path d="M137.322 72H86.3215V79H137.322V72Z" fill="black" fill-opacity="0.08"/>
<path d="M270.322 72H240.322V79H270.322V72Z" fill="black" fill-opacity="0.04"/>
<path d="M184.322 72H149.322V79H184.322V72Z" fill="black" fill-opacity="0.04"/>
<path d="M137.322 93H86.3215V100H137.322V93Z" fill="black" fill-opacity="0.08"/>
<path d="M270.322 93H240.322V100H270.322V93Z" fill="black" fill-opacity="0.04"/>
<path d="M184.322 93H149.322V100H184.322V93Z" fill="black" fill-opacity="0.04"/>
<path d="M137.322 114H86.3215V121H137.322V114Z" fill="black" fill-opacity="0.08"/>
<path d="M270.322 114H240.322V121H270.322V114Z" fill="black" fill-opacity="0.04"/>
<path d="M184.322 114H149.322V121H184.322V114Z" fill="black" fill-opacity="0.04"/>
<path d="M137.322 135H86.3215V142H137.322V135Z" fill="black" fill-opacity="0.08"/>
<path d="M270.322 135H240.322V142H270.322V135Z" fill="black" fill-opacity="0.04"/>
<path d="M184.322 135H149.322V142H184.322V135Z" fill="black" fill-opacity="0.04"/>
<path d="M227.322 72H197.322V79H227.322V72Z" fill="black" fill-opacity="0.04"/>
<path d="M227.322 93H197.322V100H227.322V93Z" fill="black" fill-opacity="0.04"/>
<path d="M227.322 114H197.322V121H227.322V114Z" fill="black" fill-opacity="0.04"/>
<path d="M227.322 135H197.322V142H227.322V135Z" fill="black" fill-opacity="0.04"/>
</g>
<defs>
<filter id="filter0_d_118_283" x="36" y="26" width="264" height="152" filterUnits="userSpaceOnUse" color-interpolation-filters="sRGB">
<feFlood flood-opacity="0" result="BackgroundImageFix"/>
<feColorMatrix in="SourceAlpha" type="matrix" values="0 0 0 0 0 0 0 0 0 0 0 0 0 0 0 0 0 0 127 0" result="hardAlpha"/>
<feOffset dy="6"/>
<feGaussianBlur stdDeviation="6"/>
<feColorMatrix type="matrix" values="0 0 0 0 0 0 0 0 0 0 0 0 0 0 0 0 0 0 0.12 0"/>
<feBlend mode="normal" in2="BackgroundImageFix" result="effect1_dropShadow_118_283"/>
<feBlend mode="normal" in="SourceGraphic" in2="effect1_dropShadow_118_283" result="shape"/>
</filter>
<clipPath id="clip0_118_283">
<rect width="336" height="192" fill="white"/>
</clipPath>
</defs>
</svg>
