<svg width="336" height="192" viewBox="0 0 336 192" fill="none" xmlns="http://www.w3.org/2000/svg">
<g filter="url(#filter0_d_92_494)">
<path d="M54.2114 60.1102C54.2114 56.8456 56.8578 54.1992 60.1221 54.1992H274.878C278.143 54.1992 280.789 56.8456 280.789 60.1102V131.041C280.789 134.306 278.143 136.952 274.878 136.952H60.1221C56.8578 136.952 54.2114 134.306 54.2114 131.041V60.1102Z" fill="white"/>
</g>
<rect x="112" y="92.5859" width="32.8281" height="2" rx="1" fill="#B1B9BE"/>
<rect x="183" y="92.5859" width="32.8281" height="2" rx="1" fill="#B1B9BE"/>
<path d="M148 93.9531C148 85.1166 155.163 77.9531 164 77.9531C172.837 77.9531 180 85.1166 180 93.9531C180 102.79 172.837 109.953 164 109.953C155.163 109.953 148 102.79 148 93.9531Z" fill="#068667"/>
<path d="M178.667 93.9528C178.667 102.053 172.1 108.619 164 108.619C155.9 108.619 149.333 102.053 149.333 93.9528C149.333 85.8526 155.9 79.2861 164 79.2861C172.1 79.2861 178.667 85.8526 178.667 93.9528Z" fill="#068667"/>
<path d="M172 93.9531C172 98.3714 168.418 101.953 164 101.953C159.582 101.953 156 98.3714 156 93.9531C156 89.5348 159.582 85.9531 164 85.9531C168.418 85.9531 172 89.5348 172 93.9531Z" fill="white"/>
<g filter="url(#filter1_d_92_494)">
<mask id="path-9-outside-1_92_494" maskUnits="userSpaceOnUse" x="147.333" y="77.2861" width="34" height="34" fill="black">
<rect fill="white" x="147.333" y="77.2861" width="34" height="34"/>
<path d="M149.333 93.9528C149.333 85.8526 155.9 79.2861 164 79.2861C172.1 79.2861 178.667 85.8526 178.667 93.9528C178.667 102.053 172.1 108.619 164 108.619C155.9 108.619 149.333 102.053 149.333 93.9528Z"/>
</mask>
<path d="M149.333 93.9528C149.333 85.8526 155.9 79.2861 164 79.2861C172.1 79.2861 178.667 85.8526 178.667 93.9528C178.667 102.053 172.1 108.619 164 108.619C155.9 108.619 149.333 102.053 149.333 93.9528Z" fill="white" fill-opacity="0.01" shape-rendering="crispEdges"/>
<path d="M164 108.619V106.619C157.004 106.619 151.333 100.948 151.333 93.9528H149.333H147.333C147.333 103.158 154.795 110.619 164 110.619V108.619ZM178.667 93.9528H176.667C176.667 100.948 170.996 106.619 164 106.619V108.619V110.619C173.205 110.619 180.667 103.158 180.667 93.9528H178.667ZM164 79.2861V81.2861C170.996 81.2861 176.667 86.9572 176.667 93.9528H178.667H180.667C180.667 84.7481 173.205 77.2861 164 77.2861V79.2861ZM164 79.2861V77.2861C154.795 77.2861 147.333 84.7481 147.333 93.9528H149.333H151.333C151.333 86.9572 157.004 81.2861 164 81.2861V79.2861Z" fill="white" mask="url(#path-9-outside-1_92_494)"/>
</g>
<path fill-rule="evenodd" clip-rule="evenodd" d="M230.5 79.2451C238.347 79.2451 244.708 85.6064 244.708 93.4535C244.708 101.3 238.347 107.662 230.5 107.662C222.653 107.662 216.292 101.3 216.292 93.4535C216.292 85.6064 222.653 79.2451 230.5 79.2451Z" fill="#068667"/>
<path d="M234.572 87.6018C234.95 86.9973 235.747 86.8139 236.352 87.1919C236.956 87.5701 237.139 88.3669 236.761 88.9717L230.303 99.305C230.095 99.6385 229.745 99.8584 229.355 99.9029C228.963 99.9475 228.573 99.8117 228.295 99.5334L224.42 95.6584C223.916 95.1539 223.916 94.3363 224.42 93.8319C224.924 93.3274 225.742 93.3274 226.247 93.8319L228.972 96.5577L234.572 87.6018Z" fill="white"/>
<path fill-rule="evenodd" clip-rule="evenodd" d="M97.5 79.2451C105.347 79.2451 111.708 85.6064 111.708 93.4535C111.708 101.3 105.347 107.662 97.5 107.662C89.653 107.662 83.2917 101.3 83.2917 93.4535C83.2917 85.6064 89.653 79.2451 97.5 79.2451ZM97.5 81.8285C91.0797 81.8285 85.875 87.0331 85.875 93.4535C85.875 99.8738 91.0797 105.078 97.5 105.078C103.92 105.078 109.125 99.8738 109.125 93.4535C109.125 87.0331 103.92 81.8285 97.5 81.8285Z" fill="#606A70"/>
<defs>
<filter id="filter0_d_92_494" x="42.2114" y="48.1992" width="250.577" height="106.753" filterUnits="userSpaceOnUse" color-interpolation-filters="sRGB">
<feFlood flood-opacity="0" result="BackgroundImageFix"/>
<feColorMatrix in="SourceAlpha" type="matrix" values="0 0 0 0 0 0 0 0 0 0 0 0 0 0 0 0 0 0 127 0" result="hardAlpha"/>
<feOffset dy="6"/>
<feGaussianBlur stdDeviation="6"/>
<feColorMatrix type="matrix" values="0 0 0 0 0 0 0 0 0 0 0 0 0 0 0 0 0 0 0.12 0"/>
<feBlend mode="normal" in2="BackgroundImageFix" result="effect1_dropShadow_92_494"/>
<feBlend mode="normal" in="SourceGraphic" in2="effect1_dropShadow_92_494" result="shape"/>
</filter>
<filter id="filter1_d_92_494" x="145.333" y="75.2861" width="37.3333" height="37.333" filterUnits="userSpaceOnUse" color-interpolation-filters="sRGB">
<feFlood flood-opacity="0" result="BackgroundImageFix"/>
<feColorMatrix in="SourceAlpha" type="matrix" values="0 0 0 0 0 0 0 0 0 0 0 0 0 0 0 0 0 0 127 0" result="hardAlpha"/>
<feMorphology radius="2" operator="dilate" in="SourceAlpha" result="effect1_dropShadow_92_494"/>
<feOffset/>
<feComposite in2="hardAlpha" operator="out"/>
<feColorMatrix type="matrix" values="0 0 0 0 0.160784 0 0 0 0 0.176471 0 0 0 0 0.227451 0 0 0 1 0"/>
<feBlend mode="normal" in2="BackgroundImageFix" result="effect1_dropShadow_92_494"/>
<feBlend mode="normal" in="SourceGraphic" in2="effect1_dropShadow_92_494" result="shape"/>
</filter>
</defs>
</svg>
