<svg width="336" height="192" viewBox="0 0 336 192" fill="none" xmlns="http://www.w3.org/2000/svg">
<g filter="url(#filter0_d)">
<path d="M119 60C119 56.6863 121.686 54 125 54H211C214.314 54 217 56.6863 217 60V132C217 135.314 214.314 138 211 138H125C121.686 138 119 135.314 119 132V60Z" fill="#404B5C"/>
</g>
<path fill-rule="evenodd" clip-rule="evenodd" d="M168 75C159.716 75 153 81.7163 153 90V109H183V90C183 81.7163 176.284 75 168 75ZM151 90V109H146V111H161V112C161 115.866 164.134 119 168 119C171.866 119 175 115.866 175 112V111H190V109H185V90C185 80.6117 177.388 73 168 73C158.612 73 151 80.6117 151 90ZM173 111H163V112C163 114.762 165.238 117 168 117C170.762 117 173 114.762 173 112V111Z" fill="white"/>
<path d="M153 109H152V110H153V109ZM183 109V110H184V109H183ZM151 109V110H152V109H151ZM146 109V108H145V109H146ZM146 111H145V112H146V111ZM161 111H162V110H161V111ZM175 111V110H174V111H175ZM190 111V112H191V111H190ZM190 109H191V108H190V109ZM185 109H184V110H185V109ZM173 111H174V110H173V111ZM163 111V110H162V111H163ZM154 90C154 82.2686 160.269 76 168 76V74C159.164 74 152 81.164 152 90H154ZM154 109V90H152V109H154ZM183 108H153V110H183V108ZM182 90V109H184V90H182ZM168 76C175.731 76 182 82.2686 182 90H184C184 81.164 176.836 74 168 74V76ZM152 109V90H150V109H152ZM146 110H151V108H146V110ZM147 111V109H145V111H147ZM161 110H146V112H161V110ZM162 112V111H160V112H162ZM168 118C164.686 118 162 115.314 162 112H160C160 116.419 163.581 120 168 120V118ZM174 112C174 115.314 171.314 118 168 118V120C172.419 120 176 116.419 176 112H174ZM174 111V112H176V111H174ZM190 110H175V112H190V110ZM189 109V111H191V109H189ZM185 110H190V108H185V110ZM184 90V109H186V90H184ZM168 74C176.836 74 184 81.164 184 90H186C186 80.0594 177.941 72 168 72V74ZM152 90C152 81.164 159.164 74 168 74V72C158.059 72 150 80.0594 150 90H152ZM173 110H163V112H173V110ZM162 111V112H164V111H162ZM162 112C162 115.314 164.686 118 168 118V116C165.791 116 164 114.209 164 112H162ZM168 118C171.314 118 174 115.314 174 112H172C172 114.209 170.209 116 168 116V118ZM174 112V111H172V112H174Z" fill="white"/>
<rect x="169" y="64" width="30" height="30" rx="15" fill="#008567"/>
<defs>
<filter id="filter0_d" x="107" y="48" width="122" height="108" filterUnits="userSpaceOnUse" color-interpolation-filters="sRGB">
<feFlood flood-opacity="0" result="BackgroundImageFix"/>
<feColorMatrix in="SourceAlpha" type="matrix" values="0 0 0 0 0 0 0 0 0 0 0 0 0 0 0 0 0 0 127 0" result="hardAlpha"/>
<feOffset dy="6"/>
<feGaussianBlur stdDeviation="6"/>
<feColorMatrix type="matrix" values="0 0 0 0 0 0 0 0 0 0 0 0 0 0 0 0 0 0 0.12 0"/>
<feBlend mode="normal" in2="BackgroundImageFix" result="effect1_dropShadow"/>
<feBlend mode="normal" in="SourceGraphic" in2="effect1_dropShadow" result="shape"/>
</filter>
</defs>
</svg>
