<svg width="336" height="192" viewBox="0 0 336 192" fill="none" xmlns="http://www.w3.org/2000/svg">
<mask id="path-1-inside-1_125_287" fill="white">
<path d="M41 21H65V171H41V21Z"/>
</mask>
<path d="M41 21H65V171H41V21Z" fill="white"/>
<path d="M65 21H64V171H65H66V21H65ZM41 171H42V21H41H40V171H41Z" fill="#D4D8DB" mask="url(#path-1-inside-1_125_287)"/>
<rect x="45" y="23" width="16" height="53" rx="8" fill="#7D8A92"/>
<path d="M120.163 99.0878C120.391 99.3157 120.391 99.6849 120.163 99.9127C119.935 100.141 119.566 100.141 119.338 99.9127L115.838 96.4127C115.61 96.1849 115.61 95.8157 115.838 95.5878L119.338 92.0878C119.566 91.86 119.935 91.86 120.163 92.0878C120.391 92.3157 120.391 92.6849 120.163 92.9127L117.075 96.0003L120.163 99.0878Z" fill="black" fill-opacity="0.24"/>
<path d="M149.629 101V92.838L147.529 94.266V92.642L149.839 90.99H151.505V101H149.629Z" fill="#292D3A"/>
<path d="M168 96C168 88.268 174.268 82 182 82H184C191.732 82 198 88.268 198 96C198 103.732 191.732 110 184 110H182C174.268 110 168 103.732 168 96Z" fill="black" fill-opacity="0.04"/>
<path d="M179.019 101V100.636L182.687 96.758C183.653 95.722 184.269 94.854 184.269 93.944C184.269 93.118 183.807 92.586 182.939 92.586C182.057 92.586 181.497 93.104 181.357 94.42H179.285C179.397 92.124 180.797 90.85 183.023 90.85C185.263 90.85 186.509 92.096 186.509 93.888C186.509 95.218 185.739 96.31 184.577 97.43L182.687 99.278H186.579V101H179.019Z" fill="#006750"/>
<path d="M215.895 101.14C213.515 101.14 212.213 99.824 212.129 97.92H213.809C213.921 98.956 214.509 99.726 215.853 99.726C217.155 99.726 217.757 99.11 217.757 98.116C217.757 97.024 217.169 96.478 215.951 96.478H215.181V95.148H215.895C217.043 95.148 217.561 94.616 217.561 93.678C217.561 92.866 217.043 92.278 216.007 92.278C214.943 92.278 214.257 92.908 214.145 93.916H212.493C212.591 92.18 213.893 90.864 216.035 90.864C218.107 90.864 219.339 92.04 219.339 93.538C219.339 94.672 218.681 95.372 217.715 95.722C218.877 96.002 219.647 96.814 219.647 98.13C219.647 99.992 218.191 101.14 215.895 101.14Z" fill="#292D3A"/>
<path d="M249.906 101V98.97H244.95V98.312L249.36 90.99H251.712V97.598H253.056V98.97H251.712V101H249.906ZM246.938 97.598H249.934V92.404L246.938 97.598Z" fill="#292D3A"/>
<path d="M278.837 92.9127C278.61 92.6849 278.61 92.3157 278.837 92.0878C279.065 91.86 279.434 91.86 279.662 92.0878L283.162 95.5878C283.39 95.8157 283.39 96.1849 283.162 96.4127L279.662 99.9127C279.434 100.141 279.065 100.141 278.837 99.9127C278.61 99.6849 278.61 99.3157 278.837 99.0878L281.925 96.0003L278.837 92.9127Z" fill="#292D3A"/>
</svg>
