<svg width="336" height="192" viewBox="0 0 336 192" fill="none" xmlns="http://www.w3.org/2000/svg">
<path d="M144 96C144 82.7452 154.745 72 168 72C181.255 72 192 82.7452 192 96C192 109.255 181.255 120 168 120C154.745 120 144 109.255 144 96Z" fill="#F7F7F7"/>
<path fill-rule="evenodd" clip-rule="evenodd" d="M168 87.75C171.728 87.75 174.75 90.7723 174.75 94.5V100.5H175.5C175.914 100.5 176.25 100.836 176.25 101.25C176.25 101.664 175.914 102 175.5 102H170.25C170.25 103.243 169.243 104.25 168 104.25C166.757 104.25 165.75 103.243 165.75 102H160.5C160.086 102 159.75 101.664 159.75 101.25C159.75 100.836 160.086 100.5 160.5 100.5H161.25V94.5C161.25 90.7723 164.272 87.75 168 87.75ZM167.25 102C167.25 102.414 167.586 102.75 168 102.75C168.414 102.75 168.75 102.414 168.75 102H167.25ZM168 89.25C165.101 89.25 162.75 91.6007 162.75 94.5V100.5H173.25V94.5C173.25 91.6007 170.899 89.25 168 89.25Z" fill="#292D3A"/>
<path d="M183 72C183 67.0294 187.029 63 192 63C196.971 63 201 67.0294 201 72C201 76.9706 196.971 81 192 81C187.029 81 183 76.9706 183 72Z" fill="#F7F7F7"/>
<path d="M188.906 76V75.76L192.314 72.172C193.094 71.344 193.55 70.564 193.55 69.688C193.55 68.728 192.986 68.152 192.014 68.152C191.018 68.152 190.37 68.716 190.202 70.06H189.23C189.362 68.38 190.382 67.312 192.014 67.312C193.598 67.312 194.606 68.248 194.606 69.724C194.606 70.78 193.934 71.812 192.878 72.844L190.514 75.148H194.654V76H188.906Z" fill="#292D3A"/>
</svg>
