<svg width="336" height="192" viewBox="0 0 336 192" fill="none" xmlns="http://www.w3.org/2000/svg">
<g filter="url(#filter0_d_153_369)">
<path d="M259.131 26.5391H77.8692C75.6929 26.5391 73.9287 28.3033 73.9287 30.4797V160.52C73.9287 162.697 75.6929 164.461 77.8692 164.461H259.131C261.307 164.461 263.072 162.697 263.072 160.52V30.4797C263.072 28.3033 261.307 26.5391 259.131 26.5391Z" fill="white"/>
<path d="M143.306 46.7383C141.75 46.7383 140.839 46.0235 140.781 44.7439H142.095C142.165 45.3549 142.476 45.7123 143.294 45.7123C144.044 45.7123 144.378 45.4471 144.378 44.9399C144.378 44.4441 143.975 44.2597 143.087 44.1098C141.496 43.8562 140.908 43.4066 140.908 42.2768C140.908 41.0663 142.038 40.4668 143.168 40.4668C144.401 40.4668 145.381 40.9279 145.531 42.2883H144.24C144.125 41.7349 143.813 41.4813 143.168 41.4813C142.568 41.4813 142.211 41.7695 142.211 42.1961C142.211 42.6342 142.499 42.8071 143.456 42.9685C144.874 43.1875 145.715 43.5334 145.715 44.813C145.715 46.0351 144.851 46.7383 143.306 46.7383Z" fill="#3E4550"/>
<path d="M134.228 46.623V40.5936H135.623V41.5505C135.911 40.9625 136.58 40.4668 137.571 40.4668C138.782 40.4668 139.635 41.17 139.635 42.8417V46.623H138.24V42.957C138.24 42.0462 137.871 41.6312 137.041 41.6312C136.269 41.6312 135.623 42.1154 135.623 43.0722V46.623H134.228Z" fill="#3E4550"/>
<path d="M129.866 46.7383C128.091 46.7383 126.777 45.5048 126.777 43.6717V43.5795C126.777 41.7119 128.103 40.4668 129.878 40.4668C131.642 40.4668 132.968 41.7003 132.968 43.5449V43.6371C132.968 45.5163 131.642 46.7383 129.866 46.7383ZM129.878 45.6546C130.916 45.6546 131.538 44.8707 131.538 43.6602V43.568C131.538 42.3229 130.916 41.562 129.878 41.562C128.84 41.562 128.206 42.3114 128.206 43.5564V43.6487C128.206 44.8822 128.829 45.6546 129.878 45.6546Z" fill="#3E4550"/>
<path d="M124.765 39.6025C124.304 39.6025 123.935 39.2566 123.935 38.807C123.935 38.3574 124.304 38 124.765 38C125.238 38 125.607 38.3574 125.607 38.807C125.607 39.2566 125.238 39.6025 124.765 39.6025ZM124.085 46.6233V40.5939H125.48V46.6233H124.085Z" fill="#3E4550"/>
<path d="M120.418 46.7383C118.861 46.7383 117.951 46.0235 117.893 44.7439H119.207C119.276 45.3549 119.588 45.7123 120.406 45.7123C121.156 45.7123 121.49 45.4471 121.49 44.9399C121.49 44.4441 121.086 44.2597 120.199 44.1098C118.608 43.8562 118.02 43.4066 118.02 42.2768C118.02 41.0663 119.15 40.4668 120.279 40.4668C121.513 40.4668 122.493 40.9279 122.643 42.2883H121.352C121.236 41.7349 120.925 41.4813 120.279 41.4813C119.68 41.4813 119.323 41.7695 119.323 42.1961C119.323 42.6342 119.611 42.8071 120.568 42.9685C121.986 43.1875 122.827 43.5334 122.827 44.813C122.827 46.0351 121.963 46.7383 120.418 46.7383Z" fill="#3E4550"/>
<path d="M114.71 46.7383C113.153 46.7383 112.243 46.0235 112.185 44.7439H113.499C113.568 45.3549 113.88 45.7123 114.698 45.7123C115.448 45.7123 115.782 45.4471 115.782 44.9399C115.782 44.4441 115.378 44.2597 114.491 44.1098C112.9 43.8562 112.312 43.4066 112.312 42.2768C112.312 41.0663 113.442 40.4668 114.571 40.4668C115.805 40.4668 116.785 40.9279 116.935 42.2883H115.644C115.528 41.7349 115.217 41.4813 114.571 41.4813C113.972 41.4813 113.615 41.7695 113.615 42.1961C113.615 42.6342 113.903 42.8071 114.86 42.9685C116.278 43.1875 117.119 43.5334 117.119 44.813C117.119 46.0351 116.255 46.7383 114.71 46.7383Z" fill="#3E4550"/>
<path d="M110.231 39.6025C109.77 39.6025 109.401 39.2566 109.401 38.807C109.401 38.3574 109.77 38 110.231 38C110.704 38 111.073 38.3574 111.073 38.807C111.073 39.2566 110.704 39.6025 110.231 39.6025ZM109.551 46.6233V40.5939H110.946V46.6233H109.551Z" fill="#3E4550"/>
<path d="M98.9336 46.623V40.5936H100.329V41.5159C100.617 40.951 101.262 40.4668 102.162 40.4668C102.946 40.4668 103.568 40.8011 103.868 41.5505C104.329 40.7896 105.159 40.4668 105.908 40.4668C107.015 40.4668 107.914 41.147 107.914 42.8071V46.623H106.519V42.8993C106.519 42.0116 106.127 41.6312 105.447 41.6312C104.744 41.6312 104.11 42.0923 104.11 43.0146V46.623H102.726V42.8993C102.726 42.0116 102.346 41.6312 101.654 41.6312C100.963 41.6312 100.329 42.0923 100.329 43.0146V46.623H98.9336Z" fill="#3E4550"/>
<path d="M94.3623 46.6236V40.5942H95.7573V41.724C96.1377 40.9516 96.7026 40.5135 97.7171 40.502V41.8047C96.4951 41.8277 95.7573 42.2082 95.7573 43.4878V46.6236H94.3623Z" fill="#3E4550"/>
<path d="M90.3265 46.7383C88.5511 46.7383 87.2715 45.5739 87.2715 43.6717V43.5795C87.2715 41.7119 88.5511 40.4668 90.2689 40.4668C91.7676 40.4668 93.1164 41.3545 93.1164 43.5103V43.9138H88.701C88.7471 45.0551 89.3236 45.7007 90.3611 45.7007C91.2027 45.7007 91.6408 45.3664 91.7445 44.7785H93.0934C92.8974 46.0466 91.8714 46.7383 90.3265 46.7383ZM88.7241 42.98H91.733C91.6638 41.9424 91.1335 41.4813 90.2689 41.4813C89.4273 41.4813 88.8624 42.0462 88.7241 42.98Z" fill="#3E4550"/>
<path d="M80.9453 46.6228V38.3799H83.5969C85.4414 38.3799 86.6404 39.1984 86.6404 40.9277V40.9738C86.6404 42.7146 85.3953 43.4985 83.6315 43.4985H82.4786V46.6228H80.9453ZM82.4786 42.3803H83.5969C84.6114 42.3803 85.1532 41.8845 85.1532 40.9738V40.9277C85.1532 39.9478 84.5653 39.5673 83.5969 39.5673H82.4786V42.3803Z" fill="#3E4550"/>
<path d="M121.245 72.3949C119.972 72.3949 119.227 71.8101 119.18 70.7631H120.255C120.312 71.263 120.566 71.5554 121.236 71.5554C121.849 71.5554 122.123 71.3385 122.123 70.9234C122.123 70.5179 121.792 70.3669 121.066 70.2443C119.764 70.0368 119.283 69.6689 119.283 68.7446C119.283 67.7542 120.208 67.2637 121.132 67.2637C122.141 67.2637 122.943 67.641 123.066 68.754H122.009C121.915 68.3012 121.66 68.0937 121.132 68.0937C120.642 68.0937 120.349 68.3295 120.349 68.6785C120.349 69.037 120.585 69.1785 121.368 69.3105C122.528 69.4897 123.217 69.7727 123.217 70.8197C123.217 71.8195 122.509 72.3949 121.245 72.3949Z" fill="#3E4550"/>
<path d="M115.836 72.3006V67.3675H116.977V68.2918C117.289 67.6599 117.751 67.3014 118.581 67.292V68.3579C117.581 68.3767 116.977 68.688 116.977 69.735V72.3006H115.836Z" fill="#3E4550"/>
<path d="M112.534 72.3949C111.081 72.3949 110.034 71.4422 110.034 69.8859V69.8104C110.034 68.2824 111.081 67.2637 112.487 67.2637C113.713 67.2637 114.816 67.99 114.816 69.7538V70.084H111.204C111.242 71.0178 111.713 71.546 112.562 71.546C113.251 71.546 113.609 71.2724 113.694 70.7914H114.798C114.637 71.829 113.798 72.3949 112.534 72.3949ZM111.223 69.3199H113.685C113.628 68.471 113.194 68.0937 112.487 68.0937C111.798 68.0937 111.336 68.5559 111.223 69.3199Z" fill="#3E4550"/>
<path d="M108.571 72.385C107.59 72.385 107.08 71.8568 107.08 70.923V68.2159H106.42V67.367H107.08V66.2822H108.222V67.367H109.297V68.2159H108.222V70.8192C108.222 71.2531 108.42 71.4606 108.787 71.4606C109.014 71.4606 109.184 71.4229 109.344 71.3569V72.2624C109.165 72.319 108.92 72.385 108.571 72.385Z" fill="#3E4550"/>
<path d="M103.919 72.3949C102.646 72.3949 101.901 71.8101 101.854 70.7631H102.929C102.985 71.263 103.24 71.5554 103.91 71.5554C104.523 71.5554 104.796 71.3385 104.796 70.9234C104.796 70.5179 104.466 70.3669 103.74 70.2443C102.438 70.0368 101.957 69.6689 101.957 68.7446C101.957 67.7542 102.882 67.2637 103.806 67.2637C104.815 67.2637 105.617 67.641 105.74 68.754H104.683C104.589 68.3012 104.334 68.0937 103.806 68.0937C103.316 68.0937 103.023 68.3295 103.023 68.6785C103.023 69.037 103.259 69.1785 104.042 69.3105C105.202 69.4897 105.891 69.7727 105.891 70.8197C105.891 71.8195 105.183 72.3949 103.919 72.3949Z" fill="#3E4550"/>
<path d="M98.1705 72.3947C97.199 72.3947 96.4727 71.8382 96.4727 70.527V67.3672H97.614V70.395C97.614 71.1402 97.9252 71.4797 98.5761 71.4797C99.2081 71.4797 99.7363 71.0836 99.7363 70.3007V67.3672H100.878V72.3003H99.7363V71.5269C99.491 72.0079 98.9722 72.3947 98.1705 72.3947Z" fill="#3E4550"/>
<path d="M93.9873 72.2998V65.084H95.1286V72.2998H93.9873Z" fill="#3E4550"/>
<path d="M90.0141 72.3944C87.9012 72.3944 86.7222 71.0456 86.7222 68.9704V68.895C86.7222 66.867 88.1087 65.4521 89.9952 65.4521C91.5421 65.4521 92.74 66.2256 92.891 67.8103H91.6176C91.4855 66.9142 90.9762 66.452 90.0046 66.452C88.8162 66.452 88.0427 67.3764 88.0427 68.8855V68.961C88.0427 70.4796 88.769 71.3851 90.0141 71.3851C90.9479 71.3851 91.5987 70.9041 91.7402 69.942H92.9664C92.7683 71.5738 91.6176 72.3944 90.0141 72.3944Z" fill="#3E4550"/>
<path d="M107.585 84.8775V80.4925H108.281V81.1884C108.482 80.7775 108.968 80.417 109.689 80.417C110.595 80.417 111.232 80.9117 111.232 82.1861V84.8775H110.536V82.1358C110.536 81.3644 110.209 81.0207 109.505 81.0207C108.859 81.0207 108.281 81.4315 108.281 82.2196V84.8775H107.585Z" fill="#3E4550"/>
<path d="M105.8 79.5785C105.549 79.5785 105.339 79.3689 105.339 79.1174C105.339 78.8659 105.549 78.6562 105.8 78.6562C106.052 78.6562 106.262 78.8659 106.262 79.1174C106.262 79.3689 106.052 79.5785 105.8 79.5785ZM105.465 84.8775V80.4924H106.161V84.8775H105.465Z" fill="#3E4550"/>
<path d="M97.8169 84.8775V80.4925H98.5128V81.1632C98.714 80.7524 99.1919 80.417 99.8208 80.417C100.383 80.417 100.877 80.6518 101.104 81.2387C101.405 80.6685 102.059 80.417 102.604 80.417C103.392 80.417 104.08 80.8865 104.08 82.1609V84.8775H103.384V82.1106C103.384 81.3393 103.057 81.0207 102.453 81.0207C101.883 81.0207 101.296 81.4063 101.296 82.1945V84.8775H100.601V82.1106C100.601 81.3393 100.274 81.0207 99.6698 81.0207C99.0997 81.0207 98.5128 81.4063 98.5128 82.1945V84.8775H97.8169Z" fill="#3E4550"/>
<path d="M94.2121 84.9521C93.0635 84.9521 92.2334 84.1388 92.2334 82.7721V82.7051C92.2334 81.3636 93.0718 80.4161 94.2792 80.4161C95.0086 80.4161 95.4614 80.7683 95.7129 81.1959V78.3955H96.4088V84.8766H95.7129V84.122C95.4614 84.5496 94.8493 84.9521 94.2121 84.9521ZM94.2876 84.3736C95.1009 84.3736 95.7381 83.837 95.7381 82.7135V82.6464C95.7381 81.5229 95.2015 80.9947 94.3463 80.9947C93.4743 80.9947 92.9545 81.6067 92.9545 82.6715V82.7386C92.9545 83.8453 93.5497 84.3736 94.2876 84.3736Z" fill="#3E4550"/>
<path d="M86.5903 84.8767L88.6529 78.8818H89.6087L91.6377 84.8767H90.9167L90.3298 83.1495H87.8564L87.2779 84.8767H86.5903ZM89.0973 79.4855L88.0576 82.571H90.1369L89.0973 79.4855Z" fill="#3E4550"/>
<path d="M249.55 72.1396C249.843 71.8467 250.317 71.8467 250.61 72.1396C250.903 72.4325 250.903 72.9072 250.61 73.2001L246.11 77.7001C245.817 77.993 245.343 77.993 245.05 77.7001L240.55 73.2001C240.257 72.9072 240.257 72.4325 240.55 72.1396C240.843 71.8467 241.317 71.8467 241.61 72.1396L245.58 76.1093L249.55 72.1396Z" fill="#3E4550"/>
<path d="M122.996 110.648C121.722 110.648 120.977 110.063 120.93 109.016H122.005C122.062 109.516 122.317 109.808 122.986 109.808C123.6 109.808 123.873 109.591 123.873 109.176C123.873 108.771 123.543 108.62 122.817 108.497C121.515 108.29 121.034 107.922 121.034 106.997C121.034 106.007 121.958 105.517 122.883 105.517C123.892 105.517 124.694 105.894 124.816 107.007H123.76C123.666 106.554 123.411 106.347 122.883 106.347C122.392 106.347 122.1 106.582 122.1 106.931C122.1 107.29 122.336 107.431 123.118 107.563C124.279 107.743 124.967 108.026 124.967 109.073C124.967 110.072 124.26 110.648 122.996 110.648Z" fill="#3E4550"/>
<path d="M119.486 110.639C118.505 110.639 117.996 110.111 117.996 109.177V106.47H117.335V105.621H117.996V104.536H119.137V105.621H120.212V106.47H119.137V109.073C119.137 109.507 119.335 109.715 119.703 109.715C119.929 109.715 120.099 109.677 120.259 109.611V110.516C120.08 110.573 119.835 110.639 119.486 110.639Z" fill="#3E4550"/>
<path d="M114.505 110.648C113.052 110.648 112.005 109.695 112.005 108.139V108.063C112.005 106.535 113.052 105.517 114.458 105.517C115.684 105.517 116.788 106.243 116.788 108.007V108.337H113.175C113.213 109.271 113.684 109.799 114.533 109.799C115.222 109.799 115.58 109.525 115.665 109.044H116.769C116.608 110.082 115.769 110.648 114.505 110.648ZM113.194 107.573H115.656C115.599 106.724 115.165 106.347 114.458 106.347C113.769 106.347 113.307 106.809 113.194 107.573Z" fill="#3E4550"/>
<path d="M109.354 110.648C108.08 110.648 107.335 110.063 107.288 109.016H108.363C108.42 109.516 108.675 109.808 109.344 109.808C109.957 109.808 110.231 109.591 110.231 109.176C110.231 108.771 109.901 108.62 109.175 108.497C107.873 108.29 107.392 107.922 107.392 106.997C107.392 106.007 108.316 105.517 109.241 105.517C110.25 105.517 111.052 105.894 111.174 107.007H110.118C110.023 106.554 109.769 106.347 109.241 106.347C108.75 106.347 108.458 106.582 108.458 106.931C108.458 107.29 108.694 107.431 109.476 107.563C110.637 107.743 111.325 108.026 111.325 109.073C111.325 110.072 110.618 110.648 109.354 110.648Z" fill="#3E4550"/>
<path d="M103.725 110.648C102.82 110.648 102.075 110.214 102.075 109.186C102.075 108.035 103.188 107.62 104.603 107.62H105.216V107.365C105.216 106.705 104.989 106.375 104.32 106.375C103.725 106.375 103.433 106.658 103.376 107.148H102.273C102.367 105.998 103.282 105.517 104.386 105.517C105.489 105.517 106.357 105.969 106.357 107.318V110.554H105.235V109.95C104.914 110.374 104.48 110.648 103.725 110.648ZM103.999 109.827C104.697 109.827 105.216 109.459 105.216 108.827V108.337H104.631C103.763 108.337 103.207 108.535 103.207 109.139C103.207 109.554 103.433 109.827 103.999 109.827Z" fill="#3E4550"/>
<path d="M100.603 110.639C99.6218 110.639 99.1124 110.111 99.1124 109.177V106.47H98.4521V105.621H99.1124V104.536H100.254V105.621H101.329V106.47H100.254V109.073C100.254 109.507 100.452 109.715 100.82 109.715C101.046 109.715 101.216 109.677 101.376 109.611V110.516C101.197 110.573 100.952 110.639 100.603 110.639Z" fill="#3E4550"/>
<path d="M94.993 110.648C94.0874 110.648 93.3423 110.214 93.3423 109.186C93.3423 108.035 94.4553 107.62 95.8702 107.62H96.4833V107.365C96.4833 106.705 96.2569 106.375 95.5872 106.375C94.993 106.375 94.7006 106.658 94.644 107.148H93.5404C93.6347 105.998 94.5496 105.517 95.6532 105.517C96.7568 105.517 97.6246 105.969 97.6246 107.318V110.554H96.5021V109.95C96.1814 110.374 95.7476 110.648 94.993 110.648ZM95.2665 109.827C95.9645 109.827 96.4833 109.459 96.4833 108.827V108.337H95.8985C95.0307 108.337 94.4742 108.535 94.4742 109.139C94.4742 109.554 94.7006 109.827 95.2665 109.827Z" fill="#3E4550"/>
<path d="M87.062 110.554V103.81H89.1088C91.4575 103.81 92.5988 105.149 92.5988 107.111V107.196C92.5988 109.158 91.4575 110.554 89.09 110.554H87.062ZM88.326 109.563H89.0617C90.5614 109.563 91.2877 108.696 91.2877 107.196V107.12C91.2877 105.677 90.6275 104.8 89.0428 104.8H88.326V109.563Z" fill="#3E4550"/>
<path d="M104.672 123.206C103.431 123.206 102.55 122.334 102.55 120.984V120.917C102.55 119.592 103.397 118.67 104.604 118.67C105.619 118.67 106.575 119.282 106.575 120.85V121.076H103.271C103.305 122.074 103.783 122.627 104.68 122.627C105.359 122.627 105.753 122.376 105.845 121.864H106.541C106.39 122.745 105.661 123.206 104.672 123.206ZM103.297 120.514H105.862C105.795 119.609 105.326 119.248 104.604 119.248C103.892 119.248 103.414 119.735 103.297 120.514Z" fill="#3E4550"/>
<path d="M101.23 123.19C100.433 123.19 100.048 122.72 100.048 122.032V119.333H99.4189V118.746H100.048V117.748H100.744V118.746H101.767V119.333H100.744V121.965C100.744 122.393 100.937 122.603 101.289 122.603C101.507 122.603 101.674 122.569 101.825 122.51V123.097C101.683 123.148 101.515 123.19 101.23 123.19Z" fill="#3E4550"/>
<path d="M98.112 117.831C97.8605 117.831 97.6509 117.622 97.6509 117.37C97.6509 117.119 97.8605 116.909 98.112 116.909C98.3636 116.909 98.5732 117.119 98.5732 117.37C98.5732 117.622 98.3636 117.831 98.112 117.831ZM97.7766 123.13V118.745H98.4725V123.13H97.7766Z" fill="#3E4550"/>
<path d="M94.6074 123.13V118.745H95.3033V119.534C95.58 119.039 95.9573 118.695 96.7454 118.67V119.324C95.8651 119.366 95.3033 119.643 95.3033 120.724V123.13H94.6074Z" fill="#3E4550"/>
<path d="M88.1327 123.131L86.5732 117.136H87.3195L88.5352 121.974L89.9438 117.136H90.4636L91.8722 121.99L93.1047 117.136H93.7838L92.2243 123.131H91.5536L90.1953 118.393L88.7951 123.131H88.1327Z" fill="#3E4550"/>
<path d="M249.55 110.393C249.843 110.101 250.317 110.101 250.61 110.393C250.903 110.686 250.903 111.161 250.61 111.454L246.11 115.954C245.817 116.247 245.343 116.247 245.05 115.954L240.55 111.454C240.257 111.161 240.257 110.686 240.55 110.393C240.843 110.101 241.317 110.101 241.61 110.393L245.58 114.363L249.55 110.393Z" fill="#3E4550"/>
<path d="M257.12 56.3174V56.8414H80V56.3174H257.12Z" fill="#D4D8DB"/>
<path d="M257.12 94.5713V95.0953H80V94.5713H257.12Z" fill="#D4D8DB"/>
<path d="M257.12 132.825V133.349H80V132.825H257.12Z" fill="#D4D8DB"/>
<path d="M210.482 146.45C210.482 142.832 213.415 139.899 217.032 139.899H250.57C254.187 139.899 257.12 142.832 257.12 146.45C257.12 150.067 254.187 153 250.57 153H217.032C213.415 153 210.482 150.067 210.482 146.45Z" fill="#292D3A"/>
</g>
<defs>
<filter id="filter0_d_153_369" x="61.9287" y="20.5391" width="213.143" height="161.922" filterUnits="userSpaceOnUse" color-interpolation-filters="sRGB">
<feFlood flood-opacity="0" result="BackgroundImageFix"/>
<feColorMatrix in="SourceAlpha" type="matrix" values="0 0 0 0 0 0 0 0 0 0 0 0 0 0 0 0 0 0 127 0" result="hardAlpha"/>
<feOffset dy="6"/>
<feGaussianBlur stdDeviation="6"/>
<feColorMatrix type="matrix" values="0 0 0 0 0 0 0 0 0 0 0 0 0 0 0 0 0 0 0.1 0"/>
<feBlend mode="normal" in2="BackgroundImageFix" result="effect1_dropShadow_153_369"/>
<feBlend mode="normal" in="SourceGraphic" in2="effect1_dropShadow_153_369" result="shape"/>
</filter>
</defs>
</svg>
