<svg width="336" height="192" viewBox="0 0 336 192" fill="none" xmlns="http://www.w3.org/2000/svg">
<path d="M29 73.3164H307.789" stroke="white" stroke-opacity="0.12"/>
<path d="M29 28H307.789" stroke="white" stroke-opacity="0.12"/>
<path d="M66.088 57.5576V47.4936L63.528 49.3336V48.0376L66.184 46.1176H67.48V57.5576H66.088ZM75.065 57.5576V46.1176H78.089C82.025 46.1176 83.881 48.5496 83.881 51.7336V51.8776C83.881 55.0456 82.057 57.5576 78.057 57.5576H75.065ZM76.457 56.4216H78.025C80.969 56.4216 82.441 54.6616 82.441 51.8616V51.7336C82.441 49.0936 81.161 47.2376 78.009 47.2376H76.457V56.4216ZM89.5816 57.7016C87.1976 57.7016 85.4856 55.8936 85.4856 53.4456V53.3176C85.4856 50.8056 87.2296 49.0456 89.5976 49.0456C91.9656 49.0456 93.7096 50.7896 93.7096 53.3016V53.4296C93.7096 55.9576 91.9656 57.7016 89.5816 57.7016ZM89.5976 56.5976C91.2776 56.5976 92.3336 55.3336 92.3336 53.4456V53.3336C92.3336 51.3976 91.2616 50.1496 89.5976 50.1496C87.9176 50.1496 86.8616 51.3976 86.8616 53.3176V53.4456C86.8616 55.3496 87.9016 56.5976 89.5976 56.5976ZM94.5235 57.5576V57.3656L99.4675 50.3096H95.0035V49.1896H101.516V49.4296L96.6835 56.3896H101.452V57.5576H94.5235ZM106.612 57.7016C104.244 57.7016 102.564 56.0376 102.564 53.4616V53.3336C102.564 50.8056 104.18 49.0456 106.484 49.0456C108.42 49.0456 110.244 50.2136 110.244 53.2056V53.6376H103.94C104.004 55.5416 104.916 56.5976 106.628 56.5976C107.924 56.5976 108.676 56.1176 108.852 55.1416H110.18C109.892 56.8216 108.5 57.7016 106.612 57.7016ZM103.988 52.5656H108.884C108.756 50.8376 107.86 50.1496 106.484 50.1496C105.124 50.1496 104.212 51.0776 103.988 52.5656ZM112.282 57.5576V49.1896H113.61V50.5176C113.994 49.7336 114.922 49.0456 116.298 49.0456C118.026 49.0456 119.242 49.9896 119.242 52.4216V57.5576H117.914V52.3256C117.914 50.8536 117.29 50.1976 115.946 50.1976C114.714 50.1976 113.61 50.9816 113.61 52.4856V57.5576H112.282ZM129.502 57.7016C127.134 57.7016 125.454 56.0376 125.454 53.4616V53.3336C125.454 50.8056 127.07 49.0456 129.374 49.0456C131.31 49.0456 133.134 50.2136 133.134 53.2056V53.6376H126.83C126.894 55.5416 127.806 56.5976 129.518 56.5976C130.814 56.5976 131.566 56.1176 131.742 55.1416H133.07C132.782 56.8216 131.39 57.7016 129.502 57.7016ZM126.878 52.5656H131.774C131.646 50.8376 130.75 50.1496 129.374 50.1496C128.014 50.1496 127.102 51.0776 126.878 52.5656ZM138.516 60.6136C136.036 60.6136 134.948 59.4456 134.724 58.0376H136.084C136.276 58.9976 137.076 59.4936 138.5 59.4936C140.148 59.4936 141.188 58.7096 141.188 56.9176V55.7016C140.708 56.5176 139.572 57.2856 138.356 57.2856C136.164 57.2856 134.548 55.6216 134.548 53.3176V53.2056C134.548 50.9336 136.148 49.0456 138.452 49.0456C139.844 49.0456 140.708 49.7176 141.188 50.5336V49.1896H142.516V56.9976C142.5 59.4296 140.852 60.6136 138.516 60.6136ZM138.5 56.1816C140.052 56.1816 141.236 55.0936 141.236 53.2216V53.1096C141.236 51.2376 140.212 50.1496 138.58 50.1496C136.916 50.1496 135.924 51.3816 135.924 53.1416V53.2696C135.924 55.0936 137.092 56.1816 138.5 56.1816ZM148.547 60.6136C146.067 60.6136 144.979 59.4456 144.755 58.0376H146.115C146.307 58.9976 147.107 59.4936 148.531 59.4936C150.179 59.4936 151.219 58.7096 151.219 56.9176V55.7016C150.739 56.5176 149.603 57.2856 148.387 57.2856C146.195 57.2856 144.579 55.6216 144.579 53.3176V53.2056C144.579 50.9336 146.179 49.0456 148.483 49.0456C149.875 49.0456 150.739 49.7176 151.219 50.5336V49.1896H152.547V56.9976C152.531 59.4296 150.883 60.6136 148.547 60.6136ZM148.531 56.1816C150.083 56.1816 151.267 55.0936 151.267 53.2216V53.1096C151.267 51.2376 150.243 50.1496 148.611 50.1496C146.947 50.1496 145.955 51.3816 145.955 53.1416V53.2696C145.955 55.0936 147.123 56.1816 148.531 56.1816ZM157.827 57.7016C155.827 57.7016 154.627 56.6936 154.547 54.9816H155.843C155.939 55.9736 156.467 56.5976 157.811 56.5976C159.075 56.5976 159.635 56.1656 159.635 55.2696C159.635 54.3896 158.979 54.1016 157.683 53.8616C155.507 53.4616 154.771 52.8536 154.771 51.3976C154.771 49.8456 156.291 49.0456 157.603 49.0456C159.107 49.0456 160.403 49.6536 160.627 51.4616H159.347C159.155 50.5496 158.643 50.1496 157.587 50.1496C156.627 50.1496 156.003 50.6296 156.003 51.3496C156.003 52.1016 156.419 52.4056 157.955 52.6776C159.683 52.9976 160.899 53.3816 160.899 55.1576C160.899 56.6776 159.859 57.7016 157.827 57.7016Z" fill="#E6E8E9"/>
<path d="M63.304 100.638V100.318L67.848 95.5337C68.888 94.4297 69.496 93.3897 69.496 92.2217C69.496 90.9417 68.744 90.1737 67.448 90.1737C66.12 90.1737 65.256 90.9257 65.032 92.7177H63.736C63.912 90.4777 65.272 89.0537 67.448 89.0537C69.56 89.0537 70.904 90.3017 70.904 92.2697C70.904 93.6777 70.008 95.0537 68.6 96.4297L65.448 99.5017H70.968V100.638H63.304ZM82.5098 100.782C78.9898 100.782 76.9738 98.3337 76.9738 94.9897V94.8617C76.9738 91.5177 79.2298 89.0217 82.5098 89.0217C84.7818 89.0217 86.8138 90.0777 87.1658 92.6537H85.7738C85.4538 90.8297 84.2058 90.1257 82.5418 90.1257C79.9178 90.1257 78.4138 92.0457 78.4138 94.8457V94.9737C78.4138 97.8057 79.8218 99.6617 82.5098 99.6617C84.9898 99.6617 86.0618 98.0457 86.1098 96.0137H82.7658V94.8617H87.4698V95.7097C87.4698 99.0217 85.4378 100.782 82.5098 100.782ZM91.7994 100.782C90.2474 100.782 89.0154 100.03 89.0154 98.3177C89.0154 96.3817 91.0634 95.7257 93.2074 95.7257H94.4074V95.1177C94.4074 93.7897 93.8954 93.2297 92.6154 93.2297C91.4634 93.2297 90.8234 93.7097 90.6954 94.7337H89.3674C89.5434 92.8297 91.0634 92.1257 92.6794 92.1257C94.2794 92.1257 95.7354 92.7817 95.7354 95.1177V100.638H94.4074V99.5817C93.7834 100.366 93.0314 100.782 91.7994 100.782ZM91.9274 99.7257C93.3354 99.7257 94.4074 99.0057 94.4074 97.7097V96.6697H93.2554C91.5754 96.6697 90.3434 97.0857 90.3434 98.3177C90.3434 99.1817 90.7594 99.7257 91.9274 99.7257ZM98.376 100.638V88.2697H99.72V100.638H98.376ZM102.47 100.638V88.2697H103.814V100.638H102.47ZM110.004 100.782C107.62 100.782 105.908 98.9737 105.908 96.5257V96.3977C105.908 93.8857 107.652 92.1257 110.02 92.1257C112.388 92.1257 114.132 93.8697 114.132 96.3817V96.5097C114.132 99.0377 112.388 100.782 110.004 100.782ZM110.02 99.6777C111.7 99.6777 112.756 98.4137 112.756 96.5257V96.4137C112.756 94.4777 111.684 93.2297 110.02 93.2297C108.34 93.2297 107.284 94.4777 107.284 96.3977V96.5257C107.284 98.4297 108.324 99.6777 110.02 99.6777ZM116.188 100.638V92.2697H117.516V93.5977C117.9 92.8137 118.828 92.1257 120.204 92.1257C121.932 92.1257 123.148 93.0697 123.148 95.5017V100.638H121.82V95.4057C121.82 93.9337 121.196 93.2777 119.852 93.2777C118.62 93.2777 117.516 94.0617 117.516 95.5657V100.638H116.188ZM128.342 100.782C126.342 100.782 125.142 99.7737 125.062 98.0617H126.358C126.454 99.0537 126.982 99.6777 128.326 99.6777C129.59 99.6777 130.15 99.2457 130.15 98.3497C130.15 97.4697 129.494 97.1817 128.198 96.9417C126.022 96.5417 125.286 95.9337 125.286 94.4777C125.286 92.9257 126.806 92.1257 128.118 92.1257C129.622 92.1257 130.918 92.7337 131.142 94.5417H129.862C129.67 93.6297 129.158 93.2297 128.102 93.2297C127.142 93.2297 126.518 93.7097 126.518 94.4297C126.518 95.1817 126.934 95.4857 128.47 95.7577C130.198 96.0777 131.414 96.4617 131.414 98.2377C131.414 99.7577 130.374 100.782 128.342 100.782ZM141.144 100.782C138.76 100.782 137.048 98.9737 137.048 96.5257V96.3977C137.048 93.8857 138.792 92.1257 141.16 92.1257C143.528 92.1257 145.272 93.8697 145.272 96.3817V96.5097C145.272 99.0377 143.528 100.782 141.144 100.782ZM141.16 99.6777C142.84 99.6777 143.896 98.4137 143.896 96.5257V96.4137C143.896 94.4777 142.824 93.2297 141.16 93.2297C139.48 93.2297 138.424 94.4777 138.424 96.3977V96.5257C138.424 98.4297 139.464 99.6777 141.16 99.6777ZM147.616 100.638V93.3897H146.416V92.2697H147.616V90.9097C147.616 89.2137 148.448 88.2217 150.112 88.2217C150.544 88.2217 150.768 88.2697 151.104 88.3817V89.5017C150.864 89.4057 150.528 89.3257 150.16 89.3257C149.296 89.3257 148.944 89.9177 148.944 90.7657V92.2697H150.992V93.3897H148.944V100.638H147.616ZM157.094 100.638V92.2697H158.422V93.5497C158.806 92.7657 159.718 92.1257 160.918 92.1257C161.99 92.1257 162.934 92.5737 163.366 93.6937C163.942 92.6057 165.19 92.1257 166.23 92.1257C167.734 92.1257 169.046 93.0217 169.046 95.4537V100.638H167.718V95.3577C167.718 93.8857 167.094 93.2777 165.942 93.2777C164.854 93.2777 163.734 94.0137 163.734 95.5177V100.638H162.406V95.3577C162.406 93.8857 161.782 93.2777 160.63 93.2777C159.542 93.2777 158.422 94.0137 158.422 95.5177V100.638H157.094ZM172.329 90.5257C171.849 90.5257 171.449 90.1257 171.449 89.6457C171.449 89.1657 171.849 88.7657 172.329 88.7657C172.809 88.7657 173.209 89.1657 173.209 89.6457C173.209 90.1257 172.809 90.5257 172.329 90.5257ZM171.689 100.638V92.2697H173.017V100.638H171.689ZM175.767 100.638V88.2697H177.111V100.638H175.767ZM181.156 88.2697V96.1097L184.628 92.2697H186.18L182.596 96.1577L186.484 100.638H184.868L181.156 96.3017V100.638H179.828V88.2697H181.156Z" fill="#E6E8E9"/>
<path d="M69.352 145.955V143.555H63.624V143.107L68.856 134.515H70.712V142.419H72.296V143.555H70.712V145.955H69.352ZM65.384 142.419H69.352V135.571L65.384 142.419ZM82.2454 146.099C79.1894 146.099 78.0854 144.419 77.8774 142.467H79.2214C79.3974 143.827 79.9414 144.979 82.2454 144.979C83.7174 144.979 84.8534 144.115 84.8534 142.819C84.8534 141.523 84.2614 140.979 82.0854 140.627C79.6854 140.259 78.2614 139.507 78.2614 137.475C78.2614 135.715 79.7814 134.371 81.9414 134.371C84.2294 134.371 85.6534 135.491 85.8774 137.523H84.6294C84.3574 136.083 83.5254 135.491 81.9414 135.491C80.3734 135.491 79.5574 136.275 79.5574 137.347C79.5574 138.467 79.9734 139.043 82.3094 139.395C84.8534 139.795 86.1974 140.563 86.1974 142.723C86.1974 144.643 84.5174 146.099 82.2454 146.099ZM91.0286 146.067C89.5086 146.067 88.7726 145.171 88.7726 143.859V138.707H87.5726V137.587H88.7726V135.683H90.1006V137.587H92.0526V138.707H90.1006V143.731C90.1006 144.547 90.4686 144.947 91.1406 144.947C91.5566 144.947 91.8766 144.883 92.1646 144.771V145.891C91.8926 145.987 91.5726 146.067 91.0286 146.067ZM94.8441 135.843C94.3641 135.843 93.9641 135.443 93.9641 134.963C93.9641 134.483 94.3641 134.083 94.8441 134.083C95.3241 134.083 95.7241 134.483 95.7241 134.963C95.7241 135.443 95.3241 135.843 94.8441 135.843ZM94.2041 145.955V137.587H95.5321V145.955H94.2041ZM101.722 146.099C99.3863 146.099 97.6263 144.451 97.6263 141.859V141.731C97.6263 139.171 99.4503 137.443 101.69 137.443C103.434 137.443 105.066 138.243 105.322 140.371H104.01C103.802 139.043 102.842 138.547 101.69 138.547C100.17 138.547 99.0023 139.763 99.0023 141.731V141.859C99.0023 143.907 100.122 144.995 101.738 144.995C102.922 144.995 103.994 144.307 104.138 142.947H105.37C105.194 144.755 103.738 146.099 101.722 146.099ZM108.703 133.587V141.427L112.175 137.587H113.727L110.143 141.475L114.031 145.955H112.415L108.703 141.619V145.955H107.375V133.587H108.703ZM118.061 146.099C116.061 146.099 114.861 145.091 114.781 143.379H116.077C116.173 144.371 116.701 144.995 118.045 144.995C119.309 144.995 119.869 144.563 119.869 143.667C119.869 142.787 119.213 142.499 117.917 142.259C115.741 141.859 115.005 141.251 115.005 139.795C115.005 138.243 116.525 137.443 117.837 137.443C119.341 137.443 120.637 138.051 120.861 139.859H119.581C119.389 138.947 118.877 138.547 117.821 138.547C116.861 138.547 116.237 139.027 116.237 139.747C116.237 140.499 116.653 140.803 118.189 141.075C119.917 141.395 121.133 141.779 121.133 143.555C121.133 145.075 120.093 146.099 118.061 146.099ZM130.863 146.099C128.479 146.099 126.767 144.291 126.767 141.843V141.715C126.767 139.203 128.511 137.443 130.879 137.443C133.247 137.443 134.991 139.187 134.991 141.699V141.827C134.991 144.355 133.247 146.099 130.863 146.099ZM130.879 144.995C132.559 144.995 133.615 143.731 133.615 141.843V141.731C133.615 139.795 132.543 138.547 130.879 138.547C129.199 138.547 128.143 139.795 128.143 141.715V141.843C128.143 143.747 129.183 144.995 130.879 144.995ZM137.335 145.955V138.707H136.135V137.587H137.335V136.227C137.335 134.531 138.167 133.539 139.831 133.539C140.263 133.539 140.487 133.587 140.823 133.699V134.819C140.583 134.723 140.247 134.643 139.879 134.643C139.015 134.643 138.663 135.235 138.663 136.083V137.587H140.711V138.707H138.663V145.955H137.335ZM150.973 146.099C149.613 146.099 148.621 145.411 148.141 144.579V145.955H146.813V133.587H148.141V138.995C148.621 138.179 149.757 137.443 150.973 137.443C153.165 137.443 154.781 139.043 154.781 141.651V141.779C154.781 144.339 153.277 146.099 150.973 146.099ZM150.845 144.995C152.509 144.995 153.405 143.875 153.405 141.843V141.715C153.405 139.603 152.237 138.547 150.829 138.547C149.277 138.547 148.093 139.571 148.093 141.715V141.843C148.093 143.987 149.213 144.995 150.845 144.995ZM159.676 146.099C158.012 146.099 156.764 145.187 156.764 142.883V137.587H158.092V142.819C158.092 144.291 158.716 144.947 160.028 144.947C161.212 144.947 162.332 144.163 162.332 142.659V137.587H163.66V145.955H162.332V144.627C161.948 145.411 161.02 146.099 159.676 146.099ZM168.888 146.067C167.368 146.067 166.632 145.171 166.632 143.859V138.707H165.432V137.587H166.632V135.683H167.96V137.587H169.912V138.707H167.96V143.731C167.96 144.547 168.328 144.947 169 144.947C169.416 144.947 169.736 144.883 170.024 144.771V145.891C169.752 145.987 169.432 146.067 168.888 146.067ZM174.576 146.067C173.056 146.067 172.32 145.171 172.32 143.859V138.707H171.12V137.587H172.32V135.683H173.648V137.587H175.6V138.707H173.648V143.731C173.648 144.547 174.016 144.947 174.688 144.947C175.104 144.947 175.424 144.883 175.712 144.771V145.891C175.44 145.987 175.12 146.067 174.576 146.067ZM181.143 146.099C178.775 146.099 177.095 144.435 177.095 141.859V141.731C177.095 139.203 178.711 137.443 181.015 137.443C182.951 137.443 184.775 138.611 184.775 141.603V142.035H178.471C178.535 143.939 179.447 144.995 181.159 144.995C182.455 144.995 183.207 144.515 183.383 143.539H184.711C184.423 145.219 183.031 146.099 181.143 146.099ZM178.519 140.963H183.415C183.287 139.235 182.391 138.547 181.015 138.547C179.655 138.547 178.743 139.475 178.519 140.963ZM186.813 145.955V137.587H188.141V139.091C188.669 138.147 189.389 137.491 190.893 137.443V138.691C189.213 138.771 188.141 139.299 188.141 141.363V145.955H186.813Z" fill="#E6E8E9"/>
<path d="M29 118.634H307.789" stroke="white" stroke-opacity="0.12"/>
<path d="M29 163.951H307.789" stroke="white" stroke-opacity="0.12"/>
</svg>
