<svg width="336" height="192" viewBox="0 0 336 192" fill="none" xmlns="http://www.w3.org/2000/svg">
<rect width="336" height="192" fill="#1D1F27"/>
<mask id="mask0_146_378" style="mask-type:luminance" maskUnits="userSpaceOnUse" x="3" y="1" width="331" height="190">
<path d="M334 1H3V190.15H334V1Z" fill="white"/>
</mask>
<g mask="url(#mask0_146_378)">
<path d="M334 1H3V61H334V1Z" fill="#1D1F27"/>
<path d="M150.08 37V25.56H152.672V30.232H157.264V25.56H159.856V37H157.264V32.28H152.672V37H150.08ZM162.299 37V25.56H166.251C169.035 25.56 170.619 26.792 170.619 29.208V29.272C170.619 31.688 168.923 32.856 166.331 32.856H164.875V37H162.299ZM164.875 31.032H166.187C167.451 31.032 168.123 30.424 168.123 29.288V29.224C168.123 28.008 167.419 27.528 166.203 27.528H164.875V31.032ZM172.315 37V25.56H179.771V27.576H174.891V30.248H178.795V32.152H174.891V34.984H180.027V37H172.315ZM186.273 37V25.56H189.521C191.713 25.56 193.521 26.52 193.521 28.904V28.968C193.521 31.4 191.697 32.344 189.521 32.344H187.665V37H186.273ZM187.665 31.24H189.617C191.249 31.24 192.129 30.44 192.129 28.968V28.904C192.129 27.288 191.169 26.68 189.617 26.68H187.665V31.24ZM195.474 37V28.632H196.802V30.136C197.33 29.192 198.05 28.536 199.554 28.488V29.736C197.874 29.816 196.802 30.344 196.802 32.408V37H195.474ZM204.727 37.144C202.343 37.144 200.631 35.336 200.631 32.888V32.76C200.631 30.248 202.375 28.488 204.743 28.488C207.111 28.488 208.855 30.232 208.855 32.744V32.872C208.855 35.4 207.111 37.144 204.727 37.144ZM204.743 36.04C206.423 36.04 207.479 34.776 207.479 32.888V32.776C207.479 30.84 206.407 29.592 204.743 29.592C203.063 29.592 202.007 30.84 202.007 32.76V32.888C202.007 34.792 203.047 36.04 204.743 36.04ZM214.063 37.144C211.871 37.144 210.287 35.592 210.287 32.984V32.856C210.287 30.296 211.887 28.488 214.191 28.488C215.583 28.488 216.447 29.16 216.927 29.976V24.632H218.255V37H216.927V35.56C216.447 36.376 215.279 37.144 214.063 37.144ZM214.207 36.04C215.759 36.04 216.975 35.016 216.975 32.872V32.744C216.975 30.6 215.951 29.592 214.319 29.592C212.655 29.592 211.663 30.76 211.663 32.792V32.92C211.663 35.032 212.799 36.04 214.207 36.04ZM223.774 37.144C222.11 37.144 220.862 36.232 220.862 33.928V28.632H222.19V33.864C222.19 35.336 222.814 35.992 224.126 35.992C225.31 35.992 226.43 35.208 226.43 33.704V28.632H227.758V37H226.43V35.672C226.046 36.456 225.118 37.144 223.774 37.144ZM233.914 37.144C231.578 37.144 229.818 35.496 229.818 32.904V32.776C229.818 30.216 231.642 28.488 233.882 28.488C235.626 28.488 237.258 29.288 237.514 31.416H236.202C235.994 30.088 235.034 29.592 233.882 29.592C232.362 29.592 231.194 30.808 231.194 32.776V32.904C231.194 34.952 232.314 36.04 233.93 36.04C235.114 36.04 236.186 35.352 236.33 33.992H237.562C237.386 35.8 235.93 37.144 233.914 37.144ZM242.111 37.112C240.591 37.112 239.855 36.216 239.855 34.904V29.752H238.655V28.632H239.855V26.728H241.183V28.632H243.135V29.752H241.183V34.776C241.183 35.592 241.551 35.992 242.223 35.992C242.639 35.992 242.959 35.928 243.247 35.816V36.936C242.975 37.032 242.655 37.112 242.111 37.112Z" fill="#E6E8E9"/>
<path d="M71.3333 30.2875V35.2125H87V39H67.3333V26.5H87V30.2875H71.3333Z" fill="#01A982"/>
<path d="M55.4268 19H43.0303V39H47.0303V33.9157H55.3648C60.6306 33.9157 63.6553 30.9171 63.6553 26.4998C63.6553 22.0535 60.6306 19 55.4268 19ZM55.1655 30.0824H47.0303V22.7875H55.1655C58.3154 22.7875 59.5101 24.2436 59.5101 26.4998C59.5101 28.733 58.3154 30.0824 55.1655 30.0824ZM71.3333 24.643H67.3333V19H87V22.7875H71.3333V24.643ZM38 19V39H34V30.8033H21V39H17V19H21V26.97H34V19H38Z" fill="white"/>
<path opacity="0.5" d="M112.195 80H34.5302C32.5805 80 31 81.5806 31 83.5304V140.016C31 141.966 32.5805 143.546 34.5302 143.546H112.195C114.145 143.546 115.725 141.966 115.725 140.016V83.5304C115.725 81.5806 114.145 80 112.195 80Z" fill="white" fill-opacity="0.06"/>
<path opacity="0.5" d="M112.195 154.138H34.5302C32.5805 154.138 31 155.718 31 157.668V214.154C31 216.103 32.5805 217.684 34.5302 217.684H112.195C114.145 217.684 115.725 216.103 115.725 214.154V157.668C115.725 155.718 114.145 154.138 112.195 154.138Z" fill="white" fill-opacity="0.06"/>
<path opacity="0.5" d="M207.511 80H129.846C127.896 80 126.316 81.5806 126.316 83.5304V140.016C126.316 141.966 127.896 143.546 129.846 143.546H207.511C209.461 143.546 211.041 141.966 211.041 140.016V83.5304C211.041 81.5806 209.461 80 207.511 80Z" fill="white" fill-opacity="0.06"/>
<path opacity="0.5" d="M302.827 80H225.162C223.212 80 221.632 81.5806 221.632 83.5304V140.016C221.632 141.966 223.212 143.546 225.162 143.546H302.827C304.777 143.546 306.357 141.966 306.357 140.016V83.5304C306.357 81.5806 304.777 80 302.827 80Z" fill="white" fill-opacity="0.06"/>
<path opacity="0.5" d="M207.511 154.138H129.846C127.896 154.138 126.316 155.718 126.316 157.668V214.154C126.316 216.103 127.896 217.684 129.846 217.684H207.511C209.461 217.684 211.041 216.103 211.041 214.154V157.668C211.041 155.718 209.461 154.138 207.511 154.138Z" fill="white" fill-opacity="0.06"/>
<path opacity="0.5" d="M302.827 154.138H225.162C223.212 154.138 221.632 155.718 221.632 157.668V214.154C221.632 216.103 223.212 217.684 225.162 217.684H302.827C304.777 217.684 306.357 216.103 306.357 214.154V157.668C306.357 155.718 304.777 154.138 302.827 154.138Z" fill="white" fill-opacity="0.06"/>
<path d="M3 61H334" stroke="white" stroke-opacity="0.12" stroke-width="0.7"/>
</g>
</svg>
