<svg width="336" height="192" viewBox="0 0 336 192" fill="none" xmlns="http://www.w3.org/2000/svg">
<rect x="177" y="69" width="18" height="18" rx="9" fill="#292D3A"/>
<path d="M183.126 82.344V82.104L186.534 78.516C187.314 77.688 187.77 76.908 187.77 76.032C187.77 75.072 187.206 74.496 186.234 74.496C185.238 74.496 184.59 75.06 184.422 76.404H183.45C183.582 74.724 184.602 73.656 186.234 73.656C187.818 73.656 188.826 74.592 188.826 76.068C188.826 77.124 188.154 78.156 187.098 79.188L184.734 81.492H188.874V82.344H183.126Z" fill="white"/>
<path fill-rule="evenodd" clip-rule="evenodd" d="M168 88.6667C171.314 88.6667 174 91.3532 174 94.6667V100H174.667C175.035 100 175.333 100.299 175.333 100.667C175.333 101.035 175.035 101.333 174.667 101.333H170C170 102.438 169.105 103.333 168 103.333C166.895 103.333 166 102.438 166 101.333H161.333C160.965 101.333 160.667 101.035 160.667 100.667C160.667 100.299 160.965 100 161.333 100H162V94.6667C162 91.3532 164.687 88.6667 168 88.6667ZM167.333 101.333C167.333 101.702 167.632 102 168 102C168.368 102 168.667 101.702 168.667 101.333H167.333ZM168 90.0001C165.423 90.0001 163.333 92.0896 163.333 94.6667V100H172.667V94.6667C172.667 92.0896 170.577 90.0001 168 90.0001Z" fill="#292D3A"/>
</svg>
