<svg width="336" height="192" viewBox="0 0 336 192" fill="none" xmlns="http://www.w3.org/2000/svg">
<rect width="336" height="192" fill="white"/>
<mask id="mask0_111_997" style="mask-type:luminance" maskUnits="userSpaceOnUse" x="3" y="1" width="331" height="190">
<path d="M334 1H3V190.15H334V1Z" fill="white"/>
</mask>
<g mask="url(#mask0_111_997)">
<path d="M333 1H3V61H333V1Z" fill="white"/>
<path d="M150.232 37V25.56H152.824V30.232H157.416V25.56H160.008V37H157.416V32.28H152.824V37H150.232ZM162.451 37V25.56H166.403C169.187 25.56 170.771 26.792 170.771 29.208V29.272C170.771 31.688 169.075 32.856 166.483 32.856H165.027V37H162.451ZM165.027 31.032H166.339C167.603 31.032 168.275 30.424 168.275 29.288V29.224C168.275 28.008 167.571 27.528 166.355 27.528H165.027V31.032ZM172.466 37V25.56H179.922V27.576H175.042V30.248H178.946V32.152H175.042V34.984H180.178V37H172.466ZM186.424 37V25.56H189.672C191.864 25.56 193.672 26.52 193.672 28.904V28.968C193.672 31.4 191.848 32.344 189.672 32.344H187.816V37H186.424ZM187.816 31.24H189.768C191.4 31.24 192.28 30.44 192.28 28.968V28.904C192.28 27.288 191.32 26.68 189.768 26.68H187.816V31.24ZM195.625 37V28.632H196.953V30.136C197.481 29.192 198.201 28.536 199.705 28.488V29.736C198.025 29.816 196.953 30.344 196.953 32.408V37H195.625ZM204.879 37.144C202.495 37.144 200.783 35.336 200.783 32.888V32.76C200.783 30.248 202.527 28.488 204.895 28.488C207.263 28.488 209.007 30.232 209.007 32.744V32.872C209.007 35.4 207.263 37.144 204.879 37.144ZM204.895 36.04C206.575 36.04 207.631 34.776 207.631 32.888V32.776C207.631 30.84 206.559 29.592 204.895 29.592C203.215 29.592 202.159 30.84 202.159 32.76V32.888C202.159 34.792 203.199 36.04 204.895 36.04ZM214.215 37.144C212.023 37.144 210.439 35.592 210.439 32.984V32.856C210.439 30.296 212.039 28.488 214.343 28.488C215.735 28.488 216.599 29.16 217.079 29.976V24.632H218.407V37H217.079V35.56C216.599 36.376 215.431 37.144 214.215 37.144ZM214.359 36.04C215.911 36.04 217.127 35.016 217.127 32.872V32.744C217.127 30.6 216.103 29.592 214.471 29.592C212.807 29.592 211.815 30.76 211.815 32.792V32.92C211.815 35.032 212.951 36.04 214.359 36.04ZM223.926 37.144C222.262 37.144 221.014 36.232 221.014 33.928V28.632H222.342V33.864C222.342 35.336 222.966 35.992 224.278 35.992C225.462 35.992 226.582 35.208 226.582 33.704V28.632H227.91V37H226.582V35.672C226.198 36.456 225.27 37.144 223.926 37.144ZM234.066 37.144C231.73 37.144 229.97 35.496 229.97 32.904V32.776C229.97 30.216 231.794 28.488 234.034 28.488C235.778 28.488 237.41 29.288 237.666 31.416H236.354C236.146 30.088 235.186 29.592 234.034 29.592C232.514 29.592 231.346 30.808 231.346 32.776V32.904C231.346 34.952 232.466 36.04 234.082 36.04C235.266 36.04 236.338 35.352 236.482 33.992H237.714C237.538 35.8 236.082 37.144 234.066 37.144ZM242.263 37.112C240.743 37.112 240.007 36.216 240.007 34.904V29.752H238.807V28.632H240.007V26.728H241.335V28.632H243.287V29.752H241.335V34.776C241.335 35.592 241.703 35.992 242.375 35.992C242.791 35.992 243.111 35.928 243.399 35.816V36.936C243.127 37.032 242.807 37.112 242.263 37.112Z" fill="#3E4550"/>
<path d="M71.3333 30.2875V35.2125H87V39H67.3333V26.5H87V30.2875H71.3333Z" fill="#01A982"/>
<path d="M55.4268 19H43.0303V39H47.0303V33.9157H55.3648C60.6306 33.9157 63.6553 30.9171 63.6553 26.4998C63.6553 22.0535 60.6306 19 55.4268 19ZM55.1655 30.0824H47.0303V22.7875H55.1655C58.3154 22.7875 59.5101 24.2436 59.5101 26.4998C59.5101 28.733 58.3154 30.0824 55.1655 30.0824ZM71.3333 24.643H67.3333V19H87V22.7875H71.3333V24.643ZM38 19V39H34V30.8033H21V39H17V19H21V26.97H34V19H38Z" fill="#292D3A"/>
<path d="M3 61H334" stroke="#D4D8DB" stroke-width="0.7"/>
<path opacity="0.5" d="M105.631 151H18.9405C16.7642 151 15 152.764 15 154.941V217.991C15 220.167 16.7642 221.931 18.9405 221.931H105.631C107.807 221.931 109.571 220.167 109.571 217.991V154.941C109.571 152.764 107.807 151 105.631 151Z" fill="black" fill-opacity="0.04"/>
<path opacity="0.5" d="M212.024 151H125.333C123.157 151 121.393 152.764 121.393 154.941V217.991C121.393 220.167 123.157 221.931 125.333 221.931H212.024C214.2 221.931 215.964 220.167 215.964 217.991V154.941C215.964 152.764 214.2 151 212.024 151Z" fill="black" fill-opacity="0.04"/>
<path opacity="0.5" d="M318.417 151H231.726C229.55 151 227.786 152.764 227.786 154.941V217.991C227.786 220.167 229.55 221.931 231.726 221.931H318.417C320.593 221.931 322.357 220.167 322.357 217.991V154.941C322.357 152.764 320.593 151 318.417 151Z" fill="black" fill-opacity="0.04"/>
<rect width="332" height="42" transform="translate(2 61.0684)" fill="#FFECEC"/>
<path d="M31.5878 72.9462C32.0916 72.4424 32.9084 72.4424 33.4122 72.9462L41.6222 81.1561C42.126 81.6599 42.126 82.4768 41.6222 82.9806L33.4122 91.1905C32.9084 91.6943 32.0916 91.6943 31.5878 91.1905L23.3779 82.9806C22.874 82.4768 22.874 81.6599 23.3779 81.1561L31.5878 72.9462Z" fill="#EC3331"/>
<path opacity="0.5" d="M235.964 78.8801L57.4061 78.2558C55.2623 78.2483 53.5195 79.6351 53.5135 81.3533L53.5108 82.1311C53.5048 83.8493 55.2378 85.2482 57.3816 85.2557L235.94 85.88C238.083 85.8875 239.826 84.5007 239.832 82.7825L239.835 82.0047C239.841 80.2865 238.108 78.8876 235.964 78.8801Z" fill="#3E4550"/>
<path d="M309.171 77.5722C309.399 77.3445 309.768 77.3444 309.996 77.5722C310.224 77.8 310.224 78.1693 309.996 78.3971L306.325 82.068L309.996 85.7389C310.224 85.9667 310.224 86.336 309.996 86.5638C309.768 86.7915 309.399 86.7915 309.171 86.5638L305.5 82.8929L301.829 86.5638C301.601 86.7915 301.232 86.7915 301.004 86.5638C300.777 86.336 300.777 85.9667 301.004 85.7389L304.675 82.068L301.004 78.3971C300.777 78.1693 300.777 77.8 301.004 77.5722C301.232 77.3444 301.601 77.3444 301.829 77.5722L305.5 81.2431L309.171 77.5722Z" fill="#292D3A"/>
</g>
</svg>
