<svg width="336" height="192" viewBox="0 0 336 192" fill="none" xmlns="http://www.w3.org/2000/svg">
<g filter="url(#filter0_d_188_547)">
<path d="M262 27H78C75.7909 27 74 28.7525 74 30.9143V160.086C74 162.248 75.7909 164 78 164H262C264.209 164 266 162.248 266 160.086V30.9143C266 28.7525 264.209 27 262 27Z" fill="#292D3A"/>
<path d="M208 148.5C208 143.806 211.806 140 216.5 140H248.5C253.194 140 257 143.806 257 148.5C257 153.194 253.194 157 248.5 157H216.5C211.806 157 208 153.194 208 148.5Z" fill="#F7F7F7"/>
<path d="M256 71V72H82V71H256Z" fill="white" fill-opacity="0.12"/>
<path d="M88.32 97.16C84.736 97.16 82.736 94.872 82.736 91.352V91.224C82.736 87.784 85.088 85.384 88.288 85.384C90.912 85.384 92.944 86.696 93.2 89.384H91.04C90.816 87.864 89.952 87.08 88.304 87.08C86.288 87.08 84.976 88.648 84.976 91.208V91.336C84.976 93.912 86.208 95.448 88.32 95.448C89.904 95.448 91.008 94.632 91.248 93H93.328C92.992 95.768 91.04 97.16 88.32 97.16ZM95.0594 97V84.76H96.9954V97H95.0594ZM102.155 97.16C100.507 97.16 99.2751 96.216 99.2751 93.992V88.632H101.211V93.768C101.211 95.032 101.739 95.608 102.843 95.608C103.915 95.608 104.811 94.936 104.811 93.608V88.632H106.747V97H104.811V95.688C104.395 96.504 103.515 97.16 102.155 97.16ZM111.907 97.16C109.747 97.16 108.483 96.168 108.403 94.392H110.227C110.323 95.24 110.755 95.736 111.891 95.736C112.931 95.736 113.395 95.368 113.395 94.664C113.395 93.976 112.835 93.72 111.603 93.512C109.395 93.16 108.579 92.536 108.579 90.968C108.579 89.288 110.147 88.456 111.715 88.456C113.427 88.456 114.787 89.096 114.995 90.984H113.203C113.043 90.216 112.611 89.864 111.715 89.864C110.883 89.864 110.387 90.264 110.387 90.856C110.387 91.464 110.787 91.704 112.115 91.928C114.083 92.232 115.251 92.712 115.251 94.488C115.251 96.184 114.051 97.16 111.907 97.16ZM119.797 97.144C118.133 97.144 117.269 96.248 117.269 94.664V90.072H116.149V88.632H117.269V86.792H119.205V88.632H121.029V90.072H119.205V94.488C119.205 95.224 119.541 95.576 120.165 95.576C120.549 95.576 120.837 95.512 121.109 95.4V96.936C120.805 97.032 120.389 97.144 119.797 97.144ZM126.52 97.16C124.056 97.16 122.28 95.544 122.28 92.904V92.776C122.28 90.184 124.056 88.456 126.44 88.456C128.52 88.456 130.392 89.688 130.392 92.68V93.24H124.264C124.328 94.824 125.128 95.72 126.568 95.72C127.736 95.72 128.344 95.256 128.488 94.44H130.36C130.088 96.2 128.664 97.16 126.52 97.16ZM124.296 91.944H128.472C128.376 90.504 127.64 89.864 126.44 89.864C125.272 89.864 124.488 90.648 124.296 91.944ZM132.121 97V88.632H134.057V90.2C134.585 89.128 135.369 88.52 136.777 88.504V90.312C135.081 90.344 134.057 90.872 134.057 92.648V97H132.121ZM141.297 97.16C139.137 97.16 137.873 96.168 137.793 94.392H139.617C139.713 95.24 140.145 95.736 141.281 95.736C142.321 95.736 142.785 95.368 142.785 94.664C142.785 93.976 142.225 93.72 140.993 93.512C138.785 93.16 137.969 92.536 137.969 90.968C137.969 89.288 139.537 88.456 141.105 88.456C142.817 88.456 144.177 89.096 144.385 90.984H142.593C142.433 90.216 142.001 89.864 141.105 89.864C140.273 89.864 139.777 90.264 139.777 90.856C139.777 91.464 140.177 91.704 141.505 91.928C143.473 92.232 144.641 92.712 144.641 94.488C144.641 96.184 143.441 97.16 141.297 97.16ZM82.504 117L85.948 106.99H87.544L90.932 117H89.728L88.748 114.116H84.618L83.652 117H82.504ZM86.69 107.998L84.954 113.15H88.426L86.69 107.998ZM95.2309 117.126C93.3129 117.126 91.9269 115.768 91.9269 113.486V113.374C91.9269 111.134 93.3269 109.552 95.3429 109.552C96.5609 109.552 97.3169 110.14 97.7369 110.854V106.178H98.8989V117H97.7369V115.74C97.3169 116.454 96.2949 117.126 95.2309 117.126ZM95.3569 116.16C96.7149 116.16 97.7789 115.264 97.7789 113.388V113.276C97.7789 111.4 96.8829 110.518 95.4549 110.518C93.9989 110.518 93.1309 111.54 93.1309 113.318V113.43C93.1309 115.278 94.1249 116.16 95.3569 116.16ZM101.25 117V109.678H102.412V110.798C102.748 110.112 103.546 109.552 104.596 109.552C105.534 109.552 106.36 109.944 106.738 110.924C107.242 109.972 108.334 109.552 109.244 109.552C110.56 109.552 111.708 110.336 111.708 112.464V117H110.546V112.38C110.546 111.092 110 110.56 108.992 110.56C108.04 110.56 107.06 111.204 107.06 112.52V117H105.898V112.38C105.898 111.092 105.352 110.56 104.344 110.56C103.392 110.56 102.412 111.204 102.412 112.52V117H101.25ZM114.58 108.152C114.16 108.152 113.81 107.802 113.81 107.382C113.81 106.962 114.16 106.612 114.58 106.612C115 106.612 115.35 106.962 115.35 107.382C115.35 107.802 115 108.152 114.58 108.152ZM114.02 117V109.678H115.182V117H114.02ZM117.561 117V109.678H118.723V110.84C119.059 110.154 119.871 109.552 121.075 109.552C122.587 109.552 123.651 110.378 123.651 112.506V117H122.489V112.422C122.489 111.134 121.943 110.56 120.767 110.56C119.689 110.56 118.723 111.246 118.723 112.562V117H117.561Z" fill="#E6E8E9"/>
<path d="M247.679 98.4599C247.972 98.167 248.447 98.167 248.74 98.4599C249.033 98.7528 249.033 99.2276 248.74 99.5205L244.24 104.02C243.947 104.313 243.472 104.313 243.179 104.02L238.679 99.5205C238.386 99.2276 238.386 98.7528 238.679 98.4599C238.972 98.167 239.447 98.167 239.74 98.4599L243.709 102.43L247.679 98.4599Z" fill="#E6E8E9"/>
<path d="M256 131V132H82V131H256Z" fill="white" fill-opacity="0.12"/>
<path d="M83.476 56V43.13H87.616C90.496 43.13 92.368 44.408 92.368 47.108V47.18C92.368 49.898 90.424 51.122 87.67 51.122H85.87V56H83.476ZM85.87 49.376H87.616C89.2 49.376 90.046 48.602 90.046 47.18V47.108C90.046 45.578 89.128 44.984 87.616 44.984H85.87V49.376ZM98.1235 56.18C95.3515 56.18 93.3535 54.362 93.3535 51.392V51.248C93.3535 48.332 95.3515 46.388 98.0335 46.388C100.374 46.388 102.48 47.774 102.48 51.14V51.77H95.5855C95.6575 53.552 96.5575 54.56 98.1775 54.56C99.4915 54.56 100.176 54.038 100.338 53.12H102.444C102.138 55.1 100.536 56.18 98.1235 56.18ZM95.6215 50.312H100.32C100.212 48.692 99.3835 47.972 98.0335 47.972C96.7195 47.972 95.8375 48.854 95.6215 50.312ZM104.425 56V46.586H106.603V48.35C107.197 47.144 108.079 46.46 109.663 46.442V48.476C107.755 48.512 106.603 49.106 106.603 51.104V56H104.425ZM111.562 56V46.586H113.74V48.026C114.19 47.144 115.198 46.388 116.602 46.388C117.826 46.388 118.798 46.91 119.266 48.08C119.986 46.892 121.282 46.388 122.452 46.388C124.18 46.388 125.584 47.45 125.584 50.042V56H123.406V50.186C123.406 48.8 122.794 48.206 121.732 48.206C120.634 48.206 119.644 48.926 119.644 50.366V56H117.484V50.186C117.484 48.8 116.89 48.206 115.81 48.206C114.73 48.206 113.74 48.926 113.74 50.366V56H111.562ZM129.201 45.038C128.481 45.038 127.905 44.498 127.905 43.796C127.905 43.094 128.481 42.536 129.201 42.536C129.939 42.536 130.515 43.094 130.515 43.796C130.515 44.498 129.939 45.038 129.201 45.038ZM128.139 56V46.586H130.317V56H128.139ZM136.194 56.18C133.764 56.18 132.342 55.064 132.252 53.066H134.304C134.412 54.02 134.898 54.578 136.176 54.578C137.346 54.578 137.868 54.164 137.868 53.372C137.868 52.598 137.238 52.31 135.852 52.076C133.368 51.68 132.45 50.978 132.45 49.214C132.45 47.324 134.214 46.388 135.978 46.388C137.904 46.388 139.434 47.108 139.668 49.232H137.652C137.472 48.368 136.986 47.972 135.978 47.972C135.042 47.972 134.484 48.422 134.484 49.088C134.484 49.772 134.934 50.042 136.428 50.294C138.642 50.636 139.956 51.176 139.956 53.174C139.956 55.082 138.606 56.18 136.194 56.18ZM145.106 56.18C142.676 56.18 141.254 55.064 141.164 53.066H143.216C143.324 54.02 143.81 54.578 145.088 54.578C146.258 54.578 146.78 54.164 146.78 53.372C146.78 52.598 146.15 52.31 144.764 52.076C142.28 51.68 141.362 50.978 141.362 49.214C141.362 47.324 143.126 46.388 144.89 46.388C146.816 46.388 148.346 47.108 148.58 49.232H146.564C146.384 48.368 145.898 47.972 144.89 47.972C143.954 47.972 143.396 48.422 143.396 49.088C143.396 49.772 143.846 50.042 145.34 50.294C147.554 50.636 148.868 51.176 148.868 53.174C148.868 55.082 147.518 56.18 145.106 56.18ZM151.894 45.038C151.174 45.038 150.598 44.498 150.598 43.796C150.598 43.094 151.174 42.536 151.894 42.536C152.632 42.536 153.208 43.094 153.208 43.796C153.208 44.498 152.632 45.038 151.894 45.038ZM150.832 56V46.586H153.01V56H150.832ZM159.859 56.18C157.087 56.18 155.035 54.254 155.035 51.392V51.248C155.035 48.332 157.105 46.388 159.877 46.388C162.631 46.388 164.701 48.314 164.701 51.194V51.338C164.701 54.272 162.631 56.18 159.859 56.18ZM159.877 54.488C161.497 54.488 162.469 53.264 162.469 51.374V51.23C162.469 49.286 161.497 48.098 159.877 48.098C158.257 48.098 157.267 49.268 157.267 51.212V51.356C157.267 53.282 158.239 54.488 159.877 54.488ZM166.669 56V46.586H168.847V48.08C169.297 47.162 170.341 46.388 171.889 46.388C173.779 46.388 175.111 47.486 175.111 50.096V56H172.933V50.276C172.933 48.854 172.357 48.206 171.061 48.206C169.855 48.206 168.847 48.962 168.847 50.456V56H166.669ZM180.842 56.18C178.412 56.18 176.99 55.064 176.9 53.066H178.952C179.06 54.02 179.546 54.578 180.824 54.578C181.994 54.578 182.516 54.164 182.516 53.372C182.516 52.598 181.886 52.31 180.5 52.076C178.016 51.68 177.098 50.978 177.098 49.214C177.098 47.324 178.862 46.388 180.626 46.388C182.552 46.388 184.082 47.108 184.316 49.232H182.3C182.12 48.368 181.634 47.972 180.626 47.972C179.69 47.972 179.132 48.422 179.132 49.088C179.132 49.772 179.582 50.042 181.076 50.294C183.29 50.636 184.604 51.176 184.604 53.174C184.604 55.082 183.254 56.18 180.842 56.18Z" fill="#E6E8E9"/>
</g>
<defs>
<filter id="filter0_d_188_547" x="62" y="21" width="216" height="161" filterUnits="userSpaceOnUse" color-interpolation-filters="sRGB">
<feFlood flood-opacity="0" result="BackgroundImageFix"/>
<feColorMatrix in="SourceAlpha" type="matrix" values="0 0 0 0 0 0 0 0 0 0 0 0 0 0 0 0 0 0 127 0" result="hardAlpha"/>
<feOffset dy="6"/>
<feGaussianBlur stdDeviation="6"/>
<feColorMatrix type="matrix" values="0 0 0 0 0 0 0 0 0 0 0 0 0 0 0 0 0 0 0.1 0"/>
<feBlend mode="normal" in2="BackgroundImageFix" result="effect1_dropShadow_188_547"/>
<feBlend mode="normal" in="SourceGraphic" in2="effect1_dropShadow_188_547" result="shape"/>
</filter>
</defs>
</svg>
