<svg width="336" height="192" viewBox="0 0 336 192" fill="none" xmlns="http://www.w3.org/2000/svg">
<rect width="336" height="192" fill="#1D1F27"/>
<mask id="mask0_112_1004" style="mask-type:luminance" maskUnits="userSpaceOnUse" x="3" y="1" width="331" height="190">
<path d="M334 1H3V190.15H334V1Z" fill="white"/>
</mask>
<g mask="url(#mask0_112_1004)">
<path d="M334 1H3V71.9312H334V1Z" fill="#1D1F27"/>
<path d="M150.232 42V30.56H152.824V35.232H157.416V30.56H160.008V42H157.416V37.28H152.824V42H150.232ZM162.451 42V30.56H166.403C169.187 30.56 170.771 31.792 170.771 34.208V34.272C170.771 36.688 169.075 37.856 166.483 37.856H165.027V42H162.451ZM165.027 36.032H166.339C167.603 36.032 168.275 35.424 168.275 34.288V34.224C168.275 33.008 167.571 32.528 166.355 32.528H165.027V36.032ZM172.466 42V30.56H179.922V32.576H175.042V35.248H178.946V37.152H175.042V39.984H180.178V42H172.466ZM186.424 42V30.56H189.672C191.864 30.56 193.672 31.52 193.672 33.904V33.968C193.672 36.4 191.848 37.344 189.672 37.344H187.816V42H186.424ZM187.816 36.24H189.768C191.4 36.24 192.28 35.44 192.28 33.968V33.904C192.28 32.288 191.32 31.68 189.768 31.68H187.816V36.24ZM195.625 42V33.632H196.953V35.136C197.481 34.192 198.201 33.536 199.705 33.488V34.736C198.025 34.816 196.953 35.344 196.953 37.408V42H195.625ZM204.879 42.144C202.495 42.144 200.783 40.336 200.783 37.888V37.76C200.783 35.248 202.527 33.488 204.895 33.488C207.263 33.488 209.007 35.232 209.007 37.744V37.872C209.007 40.4 207.263 42.144 204.879 42.144ZM204.895 41.04C206.575 41.04 207.631 39.776 207.631 37.888V37.776C207.631 35.84 206.559 34.592 204.895 34.592C203.215 34.592 202.159 35.84 202.159 37.76V37.888C202.159 39.792 203.199 41.04 204.895 41.04ZM214.215 42.144C212.023 42.144 210.439 40.592 210.439 37.984V37.856C210.439 35.296 212.039 33.488 214.343 33.488C215.735 33.488 216.599 34.16 217.079 34.976V29.632H218.407V42H217.079V40.56C216.599 41.376 215.431 42.144 214.215 42.144ZM214.359 41.04C215.911 41.04 217.127 40.016 217.127 37.872V37.744C217.127 35.6 216.103 34.592 214.471 34.592C212.807 34.592 211.815 35.76 211.815 37.792V37.92C211.815 40.032 212.951 41.04 214.359 41.04ZM223.926 42.144C222.262 42.144 221.014 41.232 221.014 38.928V33.632H222.342V38.864C222.342 40.336 222.966 40.992 224.278 40.992C225.462 40.992 226.582 40.208 226.582 38.704V33.632H227.91V42H226.582V40.672C226.198 41.456 225.27 42.144 223.926 42.144ZM234.066 42.144C231.73 42.144 229.97 40.496 229.97 37.904V37.776C229.97 35.216 231.794 33.488 234.034 33.488C235.778 33.488 237.41 34.288 237.666 36.416H236.354C236.146 35.088 235.186 34.592 234.034 34.592C232.514 34.592 231.346 35.808 231.346 37.776V37.904C231.346 39.952 232.466 41.04 234.082 41.04C235.266 41.04 236.338 40.352 236.482 38.992H237.714C237.538 40.8 236.082 42.144 234.066 42.144ZM242.263 42.112C240.743 42.112 240.007 41.216 240.007 39.904V34.752H238.807V33.632H240.007V31.728H241.335V33.632H243.287V34.752H241.335V39.776C241.335 40.592 241.703 40.992 242.375 40.992C242.791 40.992 243.111 40.928 243.399 40.816V41.936C243.127 42.032 242.807 42.112 242.263 42.112Z" fill="#E6E8E9"/>
<path d="M82.3517 38.0108V43.9208H101.152V48.4658H77.5517V33.4658H101.152V38.0108H82.3517Z" fill="#01A982"/>
<path d="M63.2638 24.4658H48.3881V48.4658H53.1881V42.3646H63.1895C69.5085 42.3646 73.1381 38.7664 73.1381 33.4656C73.1381 28.1301 69.5085 24.4658 63.2638 24.4658ZM62.9504 37.7646H53.1881V29.0108H62.9504C66.7303 29.0108 68.1638 30.7581 68.1638 33.4656C68.1638 36.1455 66.7303 37.7646 62.9504 37.7646ZM82.3517 31.2375H77.5517V24.4658H101.152V29.0108H82.3517V31.2375ZM42.3517 24.4658V48.4658H37.5517V38.6298H21.9517V48.4658H17.1517V24.4658H21.9517V34.0298H37.5517V24.4658H42.3517Z" fill="white"/>
<mask id="path-5-inside-1_112_1004" fill="white">
<path d="M3 71.9316H334H3Z"/>
</mask>
<path d="M3 71.9316V72.2316H334V71.9316V71.6316H3V71.9316Z" fill="white" fill-opacity="0.12" mask="url(#path-5-inside-1_112_1004)"/>
<path opacity="0.5" d="M117.274 95.5752H30.5833C28.407 95.5752 26.6428 97.3395 26.6428 99.5158V162.566C26.6428 164.742 28.407 166.506 30.5833 166.506H117.274C119.45 166.506 121.214 164.742 121.214 162.566V99.5158C121.214 97.3395 119.45 95.5752 117.274 95.5752Z" fill="white" fill-opacity="0.06"/>
<path opacity="0.5" d="M117.274 178.328H30.5833C28.407 178.328 26.6428 180.092 26.6428 182.269V245.319C26.6428 247.495 28.407 249.259 30.5833 249.259H117.274C119.45 249.259 121.214 247.495 121.214 245.319V182.269C121.214 180.092 119.45 178.328 117.274 178.328Z" fill="white" fill-opacity="0.06"/>
<path opacity="0.5" d="M223.667 95.5752H136.976C134.8 95.5752 133.036 97.3395 133.036 99.5158V162.566C133.036 164.742 134.8 166.506 136.976 166.506H223.667C225.843 166.506 227.607 164.742 227.607 162.566V99.5158C227.607 97.3395 225.843 95.5752 223.667 95.5752Z" fill="white" fill-opacity="0.06"/>
<path opacity="0.5" d="M330.06 95.5752H243.369C241.193 95.5752 239.429 97.3395 239.429 99.5158V162.566C239.429 164.742 241.193 166.506 243.369 166.506H330.06C332.236 166.506 334 164.742 334 162.566V99.5158C334 97.3395 332.236 95.5752 330.06 95.5752Z" fill="white" fill-opacity="0.06"/>
<path opacity="0.5" d="M223.667 178.328H136.976C134.8 178.328 133.036 180.092 133.036 182.269V245.319C133.036 247.495 134.8 249.259 136.976 249.259H223.667C225.843 249.259 227.607 247.495 227.607 245.319V182.269C227.607 180.092 225.843 178.328 223.667 178.328Z" fill="white" fill-opacity="0.06"/>
<path opacity="0.5" d="M330.06 178.328H243.369C241.193 178.328 239.429 180.092 239.429 182.269V245.319C239.429 247.495 241.193 249.259 243.369 249.259H330.06C332.236 249.259 334 247.495 334 245.319V182.269C334 180.092 332.236 178.328 330.06 178.328Z" fill="white" fill-opacity="0.06"/>
</g>
</svg>
