<svg width="336" height="192" viewBox="0 0 336 192" fill="none" xmlns="http://www.w3.org/2000/svg">
<g filter="url(#filter0_d)">
<path d="M48 36C48 33.7909 49.7909 32 52 32H284C286.209 32 288 33.7909 288 36V156C288 158.209 286.209 160 284 160H52C49.7909 160 48 158.209 48 156V36Z" fill="#404B5C"/>
</g>
<path fill-rule="evenodd" clip-rule="evenodd" d="M71.5939 71.0526C71.266 70.7247 70.7364 70.7227 70.4065 71.0526L67.0528 74.4063C66.7249 74.7342 66.7229 75.2637 67.0528 75.5936L70.4065 78.9474C70.7344 79.2752 71.264 79.2772 71.5939 78.9474L74.9476 75.5936C75.2755 75.2658 75.2775 74.7362 74.9476 74.4063L71.5939 71.0526Z" fill="#FC5A5A" stroke="#FC5A5A"/>
<path fill-rule="evenodd" clip-rule="evenodd" d="M72 92.8333L77 100.333H67L72 92.8333Z" fill="#FFBC44" stroke="#FFBC44" stroke-linejoin="round"/>
<path d="M71.0002 146.167C73.3013 146.167 75.1668 144.301 75.1668 142C75.1668 139.699 73.3013 137.833 71.0002 137.833C68.699 137.833 66.8335 139.699 66.8335 142C66.8335 144.301 68.699 146.167 71.0002 146.167Z" fill="#17EBA0" stroke="#17EBA0"/>
<path d="M71.0002 124.167C73.3013 124.167 75.1668 122.301 75.1668 120C75.1668 117.699 73.3013 115.833 71.0002 115.833C68.699 115.833 66.8335 117.699 66.8335 120C66.8335 122.301 68.699 124.167 71.0002 124.167Z" fill="#17EBA0" stroke="#17EBA0"/>
<path d="M137 46H67V60H137V46Z" fill="#C0CADC"/>
<path d="M227 46H197V60H227V46Z" fill="#C0CADC"/>
<path d="M269 46H239V60H269V46Z" fill="#C0CADC"/>
<path d="M184 46H149V60H184V46Z" fill="#C0CADC"/>
<path d="M137 72H86V79H137V72Z" fill="#C0CADC"/>
<path d="M269 72H239V79H269V72Z" fill="#C0CADC"/>
<path d="M184 72H149V79H184V72Z" fill="#C0CADC"/>
<path d="M137 94H86V101H137V94Z" fill="#C0CADC"/>
<path d="M269 94H239V101H269V94Z" fill="#C0CADC"/>
<path d="M184 94H149V101H184V94Z" fill="#C0CADC"/>
<path d="M137 117H86V124H137V117Z" fill="#C0CADC"/>
<path d="M269 117H239V124H269V117Z" fill="#C0CADC"/>
<path d="M184 117H149V124H184V117Z" fill="#C0CADC"/>
<path d="M137 138H86V145H137V138Z" fill="#C0CADC"/>
<path d="M269 138H239V145H269V138Z" fill="#C0CADC"/>
<path d="M184 138H149V145H184V138Z" fill="#C0CADC"/>
<path d="M227 72H197V79H227V72Z" fill="#C0CADC"/>
<path d="M227 94H197V101H227V94Z" fill="#C0CADC"/>
<path d="M227 117H197V124H227V117Z" fill="#C0CADC"/>
<path d="M227 138H197V145H227V138Z" fill="#C0CADC"/>
<defs>
<filter id="filter0_d" x="36" y="26" width="264" height="152" filterUnits="userSpaceOnUse" color-interpolation-filters="sRGB">
<feFlood flood-opacity="0" result="BackgroundImageFix"/>
<feColorMatrix in="SourceAlpha" type="matrix" values="0 0 0 0 0 0 0 0 0 0 0 0 0 0 0 0 0 0 127 0"/>
<feOffset dy="6"/>
<feGaussianBlur stdDeviation="6"/>
<feColorMatrix type="matrix" values="0 0 0 0 0 0 0 0 0 0 0 0 0 0 0 0 0 0 0.12 0"/>
<feBlend mode="normal" in2="BackgroundImageFix" result="effect1_dropShadow"/>
<feBlend mode="normal" in="SourceGraphic" in2="effect1_dropShadow" result="shape"/>
</filter>
</defs>
</svg>
