<svg width="336" height="192" viewBox="0 0 336 192" fill="none" xmlns="http://www.w3.org/2000/svg">
<path d="M131.5 71.5752C131.5 64.9478 136.873 59.5752 143.5 59.5752H191.5C198.127 59.5752 203.5 64.9478 203.5 71.5752V119.575C203.5 126.203 198.127 131.575 191.5 131.575H143.5C136.873 131.575 131.5 126.203 131.5 119.575V71.5752Z" fill="white" fill-opacity="0.06"/>
<path fill-rule="evenodd" clip-rule="evenodd" d="M173.869 86.4082C175.414 86.4082 176.667 87.661 176.667 89.2061C176.667 89.9478 176.372 90.659 175.847 91.1836L170.917 96.1136C170.448 96.5824 170.186 97.2183 170.186 97.8812V102.056C170.186 103.539 168.983 104.742 167.5 104.742C166.017 104.742 164.814 103.539 164.814 102.056V97.8812C164.814 97.2183 164.552 96.5824 164.083 96.1136L159.153 91.1836C158.628 90.659 158.333 89.9478 158.333 89.2061C158.333 87.661 159.586 86.4082 161.131 86.4082H173.869ZM161.131 88.0749C160.507 88.0749 160 88.5815 160 89.2061C160 89.5058 160.119 89.7932 160.331 90.0052L165.261 94.9352C166.043 95.7165 166.481 96.7763 166.481 97.8812V102.056C166.481 102.619 166.937 103.075 167.5 103.075C168.063 103.075 168.519 102.619 168.519 102.056V97.8812C168.519 96.7763 168.957 95.7165 169.739 94.9352L174.669 90.0052L174.744 89.9222C174.908 89.7211 175 89.4684 175 89.2061C175 88.5815 174.493 88.0749 173.869 88.0749H161.131Z" fill="#E6E8E9"/>
<path d="M194 63C194 56.3726 199.373 51 206 51C212.627 51 218 56.3726 218 63C218 69.6274 212.627 75 206 75C199.373 75 194 69.6274 194 63Z" fill="#F7F7F7"/>
<path d="M202.906 67V66.76L206.314 63.172C207.094 62.344 207.55 61.564 207.55 60.688C207.55 59.728 206.986 59.152 206.014 59.152C205.018 59.152 204.37 59.716 204.202 61.06H203.23C203.362 59.38 204.382 58.312 206.014 58.312C207.598 58.312 208.606 59.248 208.606 60.724C208.606 61.78 207.934 62.812 206.878 63.844L204.514 66.148H208.654V67H202.906Z" fill="#292D3A"/>
</svg>
