<svg width="336" height="192" viewBox="0 0 336 192" fill="none" xmlns="http://www.w3.org/2000/svg">
<path d="M189.914 63.042C190.721 63.0469 191.495 63.3714 192.062 63.945L201.08 73.07C202.26 74.2644 202.25 76.1902 201.056 77.3711C199.862 78.5518 197.936 78.5412 196.755 77.3474L192.834 73.379V88.8962C192.834 96.4554 186.706 102.583 179.147 102.584C174.947 102.584 171.543 105.988 171.542 110.188V126.917H165.459C165.459 122.718 162.054 119.313 157.855 119.313C150.296 119.313 144.167 113.185 144.167 105.625V91.629L140.247 95.5974C139.066 96.7914 137.14 96.8016 135.945 95.6211C134.751 94.4402 134.741 92.5145 135.922 91.32L144.94 82.195L145.163 81.993C145.701 81.5465 146.382 81.2961 147.087 81.292C147.893 81.2879 148.668 81.6047 149.241 82.1713L158.473 91.2963C159.667 92.4772 159.677 94.4029 158.497 95.5974C157.316 96.7915 155.39 96.8017 154.195 95.6211L150.251 91.7181V105.625C150.251 109.825 153.655 113.23 157.855 113.23C160.668 113.23 163.284 114.079 165.459 115.535V110.188C165.459 102.629 171.587 96.5004 179.147 96.5004C183.083 96.5 186.322 93.5083 186.712 89.6744L186.751 88.8962V73.4681L182.806 77.3711C181.612 78.5519 179.686 78.5413 178.505 77.3474C177.324 76.1529 177.335 74.2273 178.529 73.0463L187.761 63.9213L187.984 63.7193C188.527 63.2795 189.209 63.0382 189.914 63.042Z" fill="#E6E8E9"/>
</svg>
