<svg width="336" height="192" viewBox="0 0 336 192" fill="none" xmlns="http://www.w3.org/2000/svg">
<g filter="url(#filter0_d)">
<path d="M113 62C113 58.6863 115.686 56 119 56H205C208.314 56 211 58.6863 211 62V134C211 137.314 208.314 140 205 140H119C115.686 140 113 137.314 113 134V62Z" fill="white"/>
</g>
<path fill-rule="evenodd" clip-rule="evenodd" d="M142 79H182V87.8284L168 101.828V119H156V101.828L142 87.8284V79ZM146 83V86.1716L160 100.172V115H164V100.172L178 86.1716V83H146Z" fill="black"/>
<rect x="192" y="52" width="30" height="30" rx="15" fill="#666666"/>
<path d="M212.8 72.32H206.392L209.104 69.08C210.736 67.064 212.152 65.312 212.152 63.2C212.152 60.656 210.448 59.048 207.736 59.048C205.984 59.048 204.4 59.816 203.392 60.848V62.768C204.424 61.712 205.888 60.728 207.592 60.728C209.392 60.728 210.304 61.784 210.304 63.272C210.304 65.12 209.08 66.536 207.568 68.36L203.056 73.904V74H212.8V72.32Z" fill="white"/>
<defs>
<filter id="filter0_d" x="101" y="50" width="122" height="108" filterUnits="userSpaceOnUse" color-interpolation-filters="sRGB">
<feFlood flood-opacity="0" result="BackgroundImageFix"/>
<feColorMatrix in="SourceAlpha" type="matrix" values="0 0 0 0 0 0 0 0 0 0 0 0 0 0 0 0 0 0 127 0"/>
<feOffset dy="6"/>
<feGaussianBlur stdDeviation="6"/>
<feColorMatrix type="matrix" values="0 0 0 0 0 0 0 0 0 0 0 0 0 0 0 0 0 0 0.12 0"/>
<feBlend mode="normal" in2="BackgroundImageFix" result="effect1_dropShadow"/>
<feBlend mode="normal" in="SourceGraphic" in2="effect1_dropShadow" result="shape"/>
</filter>
</defs>
</svg>
