<svg width="336" height="192" viewBox="0 0 336 192" fill="none" xmlns="http://www.w3.org/2000/svg">
<rect width="336" height="192" fill="white"/>
<mask id="mask0_108_275" style="mask-type:luminance" maskUnits="userSpaceOnUse" x="3" y="1" width="331" height="190">
<path d="M334 1H3V190.15H334V1Z" fill="white"/>
</mask>
<g mask="url(#mask0_108_275)">
<path d="M334 1H3V71.9312H334V1Z" fill="white"/>
<path d="M150.232 42V30.56H152.824V35.232H157.416V30.56H160.008V42H157.416V37.28H152.824V42H150.232ZM162.451 42V30.56H166.403C169.187 30.56 170.771 31.792 170.771 34.208V34.272C170.771 36.688 169.075 37.856 166.483 37.856H165.027V42H162.451ZM165.027 36.032H166.339C167.603 36.032 168.275 35.424 168.275 34.288V34.224C168.275 33.008 167.571 32.528 166.355 32.528H165.027V36.032ZM172.466 42V30.56H179.922V32.576H175.042V35.248H178.946V37.152H175.042V39.984H180.178V42H172.466ZM186.424 42V30.56H189.672C191.864 30.56 193.672 31.52 193.672 33.904V33.968C193.672 36.4 191.848 37.344 189.672 37.344H187.816V42H186.424ZM187.816 36.24H189.768C191.4 36.24 192.28 35.44 192.28 33.968V33.904C192.28 32.288 191.32 31.68 189.768 31.68H187.816V36.24ZM195.625 42V33.632H196.953V35.136C197.481 34.192 198.201 33.536 199.705 33.488V34.736C198.025 34.816 196.953 35.344 196.953 37.408V42H195.625ZM204.879 42.144C202.495 42.144 200.783 40.336 200.783 37.888V37.76C200.783 35.248 202.527 33.488 204.895 33.488C207.263 33.488 209.007 35.232 209.007 37.744V37.872C209.007 40.4 207.263 42.144 204.879 42.144ZM204.895 41.04C206.575 41.04 207.631 39.776 207.631 37.888V37.776C207.631 35.84 206.559 34.592 204.895 34.592C203.215 34.592 202.159 35.84 202.159 37.76V37.888C202.159 39.792 203.199 41.04 204.895 41.04ZM214.215 42.144C212.023 42.144 210.439 40.592 210.439 37.984V37.856C210.439 35.296 212.039 33.488 214.343 33.488C215.735 33.488 216.599 34.16 217.079 34.976V29.632H218.407V42H217.079V40.56C216.599 41.376 215.431 42.144 214.215 42.144ZM214.359 41.04C215.911 41.04 217.127 40.016 217.127 37.872V37.744C217.127 35.6 216.103 34.592 214.471 34.592C212.807 34.592 211.815 35.76 211.815 37.792V37.92C211.815 40.032 212.951 41.04 214.359 41.04ZM223.926 42.144C222.262 42.144 221.014 41.232 221.014 38.928V33.632H222.342V38.864C222.342 40.336 222.966 40.992 224.278 40.992C225.462 40.992 226.582 40.208 226.582 38.704V33.632H227.91V42H226.582V40.672C226.198 41.456 225.27 42.144 223.926 42.144ZM234.066 42.144C231.73 42.144 229.97 40.496 229.97 37.904V37.776C229.97 35.216 231.794 33.488 234.034 33.488C235.778 33.488 237.41 34.288 237.666 36.416H236.354C236.146 35.088 235.186 34.592 234.034 34.592C232.514 34.592 231.346 35.808 231.346 37.776V37.904C231.346 39.952 232.466 41.04 234.082 41.04C235.266 41.04 236.338 40.352 236.482 38.992H237.714C237.538 40.8 236.082 42.144 234.066 42.144ZM242.263 42.112C240.743 42.112 240.007 41.216 240.007 39.904V34.752H238.807V33.632H240.007V31.728H241.335V33.632H243.287V34.752H241.335V39.776C241.335 40.592 241.703 40.992 242.375 40.992C242.791 40.992 243.111 40.928 243.399 40.816V41.936C243.127 42.032 242.807 42.112 242.263 42.112Z" fill="#3E4550"/>
<path d="M82.3517 38.0108V43.9208H101.152V48.4658H77.5517V33.4658H101.152V38.0108H82.3517Z" fill="#01A982"/>
<path d="M63.2638 24.4658H48.3881V48.4658H53.1881V42.3646H63.1895C69.5085 42.3646 73.1381 38.7664 73.1381 33.4656C73.1381 28.1301 69.5085 24.4658 63.2638 24.4658ZM62.9504 37.7646H53.1881V29.0108H62.9504C66.7303 29.0108 68.1638 30.7581 68.1638 33.4656C68.1638 36.1455 66.7303 37.7646 62.9504 37.7646ZM82.3517 31.2375H77.5517V24.4658H101.152V29.0108H82.3517V31.2375ZM42.3517 24.4658V48.4658H37.5517V38.6298H21.9517V48.4658H17.1517V24.4658H21.9517V34.0298H37.5517V24.4658H42.3517Z" fill="#292D3A"/>
<path opacity="0.5" d="M112.195 95H34.5302C32.5805 95 31 96.5806 31 98.5304V155.016C31 156.966 32.5805 158.546 34.5302 158.546H112.195C114.145 158.546 115.725 156.966 115.725 155.016V98.5304C115.725 96.5806 114.145 95 112.195 95Z" fill="black" fill-opacity="0.04"/>
<path opacity="0.5" d="M112.195 169.138H34.5302C32.5805 169.138 31 170.718 31 172.668V229.154C31 231.103 32.5805 232.684 34.5302 232.684H112.195C114.145 232.684 115.725 231.103 115.725 229.154V172.668C115.725 170.718 114.145 169.138 112.195 169.138Z" fill="black" fill-opacity="0.04"/>
<path opacity="0.5" d="M207.511 95H129.846C127.896 95 126.316 96.5806 126.316 98.5304V155.016C126.316 156.966 127.896 158.546 129.846 158.546H207.511C209.461 158.546 211.041 156.966 211.041 155.016V98.5304C211.041 96.5806 209.461 95 207.511 95Z" fill="black" fill-opacity="0.04"/>
<path opacity="0.5" d="M302.827 95H225.162C223.212 95 221.632 96.5806 221.632 98.5304V155.016C221.632 156.966 223.212 158.546 225.162 158.546H302.827C304.777 158.546 306.357 156.966 306.357 155.016V98.5304C306.357 96.5806 304.777 95 302.827 95Z" fill="black" fill-opacity="0.04"/>
<path opacity="0.5" d="M207.511 169.138H129.846C127.896 169.138 126.316 170.718 126.316 172.668V229.154C126.316 231.103 127.896 232.684 129.846 232.684H207.511C209.461 232.684 211.041 231.103 211.041 229.154V172.668C211.041 170.718 209.461 169.138 207.511 169.138Z" fill="black" fill-opacity="0.04"/>
<path opacity="0.5" d="M302.827 169.138H225.162C223.212 169.138 221.632 170.718 221.632 172.668V229.154C221.632 231.103 223.212 232.684 225.162 232.684H302.827C304.777 232.684 306.357 231.103 306.357 229.154V172.668C306.357 170.718 304.777 169.138 302.827 169.138Z" fill="black" fill-opacity="0.04"/>
<path d="M3 71.9316H334" stroke="#D4D8DB" stroke-width="0.7"/>
</g>
</svg>
