<svg width="336" height="192" viewBox="0 0 336 192" fill="none" xmlns="http://www.w3.org/2000/svg">
<path fill-rule="evenodd" clip-rule="evenodd" d="M173.869 86.4082C175.414 86.4082 176.667 87.661 176.667 89.2061C176.667 89.9478 176.372 90.659 175.847 91.1836L170.917 96.1136C170.448 96.5824 170.186 97.2183 170.186 97.8812V102.056C170.186 103.539 168.983 104.742 167.5 104.742C166.017 104.742 164.814 103.539 164.814 102.056V97.8812C164.814 97.2183 164.552 96.5824 164.083 96.1136L159.153 91.1836C158.628 90.659 158.333 89.9478 158.333 89.2061C158.333 87.661 159.586 86.4082 161.131 86.4082H173.869ZM161.131 88.0749C160.507 88.0749 160 88.5815 160 89.2061C160 89.5058 160.119 89.7932 160.331 90.0052L165.261 94.9352C166.043 95.7165 166.481 96.7763 166.481 97.8812V102.056C166.481 102.619 166.937 103.075 167.5 103.075C168.063 103.075 168.519 102.619 168.519 102.056V97.8812C168.519 96.7763 168.957 95.7165 169.739 94.9352L174.669 90.0052L174.744 89.9222C174.908 89.7211 175 89.4684 175 89.2061C175 88.5815 174.493 88.0749 173.869 88.0749H161.131Z" fill="#3E4550"/>
<path d="M194.5 59.5752C194.5 54.6046 198.529 50.5752 203.5 50.5752C208.471 50.5752 212.5 54.6046 212.5 59.5752C212.5 64.5458 208.471 68.5752 203.5 68.5752C198.529 68.5752 194.5 64.5458 194.5 59.5752Z" fill="#292D3A"/>
<path d="M200.406 63.5752V63.3352L203.814 59.7472C204.594 58.9192 205.05 58.1392 205.05 57.2632C205.05 56.3032 204.486 55.7272 203.514 55.7272C202.518 55.7272 201.87 56.2912 201.702 57.6352H200.73C200.862 55.9552 201.882 54.8872 203.514 54.8872C205.098 54.8872 206.106 55.8232 206.106 57.2992C206.106 58.3552 205.434 59.3872 204.378 60.4192L202.014 62.7232H206.154V63.5752H200.406Z" fill="white"/>
</svg>
