<svg width="337" height="193" viewBox="0 0 337 193" fill="none" xmlns="http://www.w3.org/2000/svg">
<path d="M152.522 24.6289H53.1963C51.5641 24.6289 50.241 25.9521 50.241 27.5844V80.5381C50.241 82.1704 51.5641 83.4936 53.1963 83.4936H152.522C154.154 83.4936 155.477 82.1704 155.477 80.5381V27.5844C155.477 25.9521 154.154 24.6289 152.522 24.6289Z" fill="#01A982"/>
<path d="M277.603 24.1572H178.277C176.645 24.1572 175.322 25.4804 175.322 27.1127V80.0664C175.322 81.6987 176.645 83.0219 178.277 83.0219H277.603C279.235 83.0219 280.558 81.6987 280.558 80.0664V27.1127C280.558 25.4804 279.235 24.1572 277.603 24.1572Z" fill="#01A982"/>
<path d="M277.603 106.037H178.277C176.645 106.037 175.322 107.36 175.322 108.993V161.946C175.322 163.579 176.645 164.902 178.277 164.902H277.603C279.235 164.902 280.558 163.579 280.558 161.946V108.993C280.558 107.36 279.235 106.037 277.603 106.037Z" fill="#7D8A92"/>
<path d="M159.322 52.6572C159.045 52.6572 158.822 52.8811 158.822 53.1572C158.822 53.4334 159.045 53.6572 159.322 53.6572L159.322 53.1572L159.322 52.6572ZM170.675 53.5108C170.87 53.3155 170.87 52.9989 170.675 52.8037L167.493 49.6217C167.298 49.4264 166.981 49.4264 166.786 49.6217C166.591 49.817 166.591 50.1335 166.786 50.3288L169.614 53.1572L166.786 55.9857C166.591 56.1809 166.591 56.4975 166.786 56.6928C166.981 56.888 167.298 56.888 167.493 56.6928L170.675 53.5108ZM159.322 53.1572L159.322 53.6572L170.322 53.6572L170.322 53.1572L170.322 52.6572L159.322 52.6572L159.322 53.1572Z" fill="#B1B9BE"/>
<path d="M228.822 88.7764C228.822 88.5002 228.598 88.2764 228.322 88.2764C228.045 88.2764 227.822 88.5002 227.822 88.7764H228.322H228.822ZM227.968 100.13C228.163 100.325 228.48 100.325 228.675 100.13L231.857 96.9479C232.052 96.7527 232.052 96.4361 231.857 96.2408C231.662 96.0456 231.345 96.0456 231.15 96.2408L228.322 99.0693L225.493 96.2408C225.298 96.0456 224.981 96.0456 224.786 96.2408C224.591 96.4361 224.591 96.7527 224.786 96.9479L227.968 100.13ZM228.322 88.7764H227.822V99.7764H228.322H228.822V88.7764H228.322Z" fill="#B1B9BE"/>
</svg>
