<svg width="929" height="317" viewBox="0 0 929 317" fill="none" xmlns="http://www.w3.org/2000/svg">
<g filter="url(#filter0_d_2408_13988)">
<rect x="12" y="19" width="426" height="245" fill="white"/>
</g>
<rect x="32" y="78" width="176" height="72" fill="#EFEFEF"/>
<rect x="32" y="174" width="176" height="72" fill="#EFEFEF"/>
<rect x="243" y="78" width="176" height="72" fill="#EFEFEF"/>
<rect x="243" y="174" width="176" height="72" fill="#EFEFEF"/>
<path d="M408.358 194.983C440.303 200.483 453.035 209.79 466.188 237.874" stroke="#7630EA" stroke-width="2"/>
<path d="M411.237 91.8874C432.31 67.2567 446.821 61.0807 477.681 64.151" stroke="#7630EA" stroke-width="2"/>
<g filter="url(#filter1_d_2408_13988)">
<rect x="489" y="6" width="198.277" height="114.033" fill="white"/>
</g>
<rect x="498" y="44" width="181.056" height="67" fill="#EFEFEF"/>
<g filter="url(#filter2_d_2408_13988)">
<rect x="718.186" y="184" width="198.22" height="114" fill="white"/>
</g>
<rect x="727" y="221" width="181" height="67" fill="#EFEFEF"/>
<path d="M96.396 113.474C96.396 116.912 98.7 119.18 102.066 119.18C103.236 119.18 104.172 118.892 104.874 118.424V115.616C104.082 116.228 103.218 116.498 102.3 116.498C100.464 116.498 99.294 115.364 99.294 113.474C99.294 111.566 100.464 110.432 102.3 110.432C103.218 110.432 104.082 110.72 104.874 111.332V108.524C104.172 108.056 103.236 107.768 102.066 107.768C98.7 107.768 96.396 110.036 96.396 113.474ZM110.729 114.122V114.41C110.405 114.176 109.649 113.96 108.965 113.96C107.219 113.96 105.851 114.968 105.851 116.534C105.851 118.244 107.219 119.144 108.821 119.144C109.685 119.144 110.459 118.856 110.729 118.586V119H113.447V113.996C113.447 111.854 112.079 110.72 109.685 110.72C108.533 110.72 107.453 110.99 106.787 111.35V113.618C107.435 113.24 108.227 113.042 109.001 113.042C110.153 113.042 110.729 113.492 110.729 114.122ZM110.729 116.264V116.732C110.549 117.056 110.099 117.272 109.595 117.272C109.037 117.272 108.479 117.038 108.479 116.48C108.479 115.94 109.037 115.706 109.595 115.706C110.099 115.706 110.549 115.922 110.729 116.264ZM120.333 113.582V110.864C120.207 110.792 119.919 110.72 119.559 110.72C118.749 110.72 118.119 111.08 117.723 111.62V110.9H114.897V119H117.723V114.248C117.867 113.672 118.389 113.33 119.163 113.33C119.613 113.33 119.991 113.402 120.333 113.582ZM126.549 118.352V119H129.375V107.3H126.549V111.548C126.171 111.116 125.379 110.72 124.551 110.72C122.211 110.72 120.933 112.61 120.933 114.95C120.933 117.29 122.211 119.18 124.551 119.18C125.379 119.18 126.171 118.784 126.549 118.352ZM126.549 113.87V116.012C126.333 116.462 125.865 116.768 125.307 116.768C124.335 116.768 123.759 115.994 123.759 114.95C123.759 113.906 124.335 113.114 125.307 113.114C125.847 113.114 126.333 113.438 126.549 113.87ZM134.73 116.516V119H142.47V116.516H140.202V107.948H138.276L134.82 109.604V112.358L137.412 111.08V116.516H134.73Z" fill="#444444"/>
<path d="M307.396 113.474C307.396 116.912 309.7 119.18 313.066 119.18C314.236 119.18 315.172 118.892 315.874 118.424V115.616C315.082 116.228 314.218 116.498 313.3 116.498C311.464 116.498 310.294 115.364 310.294 113.474C310.294 111.566 311.464 110.432 313.3 110.432C314.218 110.432 315.082 110.72 315.874 111.332V108.524C315.172 108.056 314.236 107.768 313.066 107.768C309.7 107.768 307.396 110.036 307.396 113.474ZM321.729 114.122V114.41C321.405 114.176 320.649 113.96 319.965 113.96C318.219 113.96 316.851 114.968 316.851 116.534C316.851 118.244 318.219 119.144 319.821 119.144C320.685 119.144 321.459 118.856 321.729 118.586V119H324.447V113.996C324.447 111.854 323.079 110.72 320.685 110.72C319.533 110.72 318.453 110.99 317.787 111.35V113.618C318.435 113.24 319.227 113.042 320.001 113.042C321.153 113.042 321.729 113.492 321.729 114.122ZM321.729 116.264V116.732C321.549 117.056 321.099 117.272 320.595 117.272C320.037 117.272 319.479 117.038 319.479 116.48C319.479 115.94 320.037 115.706 320.595 115.706C321.099 115.706 321.549 115.922 321.729 116.264ZM331.333 113.582V110.864C331.207 110.792 330.919 110.72 330.559 110.72C329.749 110.72 329.119 111.08 328.723 111.62V110.9H325.897V119H328.723V114.248C328.867 113.672 329.389 113.33 330.163 113.33C330.613 113.33 330.991 113.402 331.333 113.582ZM337.549 118.352V119H340.375V107.3H337.549V111.548C337.171 111.116 336.379 110.72 335.551 110.72C333.211 110.72 331.933 112.61 331.933 114.95C331.933 117.29 333.211 119.18 335.551 119.18C336.379 119.18 337.171 118.784 337.549 118.352ZM337.549 113.87V116.012C337.333 116.462 336.865 116.768 336.307 116.768C335.335 116.768 334.759 115.994 334.759 114.95C334.759 113.906 335.335 113.114 336.307 113.114C336.847 113.114 337.333 113.438 337.549 113.87ZM353.326 116.516H350.032L351.112 115.04C352.066 113.708 352.876 112.502 352.876 111.098C352.876 109.1 351.472 107.768 349.276 107.768C347.674 107.768 346.324 108.344 345.478 109.046V111.818C346.18 111.242 347.386 110.468 348.52 110.468C349.402 110.468 349.888 110.936 349.888 111.674C349.888 112.61 349.366 113.294 348.376 114.608L345.136 118.928V119H353.326V116.516Z" fill="#444444"/>
<path d="M97.396 213.474C97.396 216.912 99.7 219.18 103.066 219.18C104.236 219.18 105.172 218.892 105.874 218.424V215.616C105.082 216.228 104.218 216.498 103.3 216.498C101.464 216.498 100.294 215.364 100.294 213.474C100.294 211.566 101.464 210.432 103.3 210.432C104.218 210.432 105.082 210.72 105.874 211.332V208.524C105.172 208.056 104.236 207.768 103.066 207.768C99.7 207.768 97.396 210.036 97.396 213.474ZM111.729 214.122V214.41C111.405 214.176 110.649 213.96 109.965 213.96C108.219 213.96 106.851 214.968 106.851 216.534C106.851 218.244 108.219 219.144 109.821 219.144C110.685 219.144 111.459 218.856 111.729 218.586V219H114.447V213.996C114.447 211.854 113.079 210.72 110.685 210.72C109.533 210.72 108.453 210.99 107.787 211.35V213.618C108.435 213.24 109.227 213.042 110.001 213.042C111.153 213.042 111.729 213.492 111.729 214.122ZM111.729 216.264V216.732C111.549 217.056 111.099 217.272 110.595 217.272C110.037 217.272 109.479 217.038 109.479 216.48C109.479 215.94 110.037 215.706 110.595 215.706C111.099 215.706 111.549 215.922 111.729 216.264ZM121.333 213.582V210.864C121.207 210.792 120.919 210.72 120.559 210.72C119.749 210.72 119.119 211.08 118.723 211.62V210.9H115.897V219H118.723V214.248C118.867 213.672 119.389 213.33 120.163 213.33C120.613 213.33 120.991 213.402 121.333 213.582ZM127.549 218.352V219H130.375V207.3H127.549V211.548C127.171 211.116 126.379 210.72 125.551 210.72C123.211 210.72 121.933 212.61 121.933 214.95C121.933 217.29 123.211 219.18 125.551 219.18C126.379 219.18 127.171 218.784 127.549 218.352ZM127.549 213.87V216.012C127.333 216.462 126.865 216.768 126.307 216.768C125.335 216.768 124.759 215.994 124.759 214.95C124.759 213.906 125.335 213.114 126.307 213.114C126.847 213.114 127.333 213.438 127.549 213.87ZM135.622 207.948V210.432H139.42L137.584 213.816V213.87C139.114 213.78 140.536 214.248 140.536 215.436C140.536 216.354 139.798 216.822 138.664 216.822C137.566 216.822 136.468 216.372 135.55 215.598V218.244C136.36 218.784 137.404 219.18 138.988 219.18C141.292 219.18 143.236 217.794 143.236 215.418C143.236 213.96 142.372 212.826 140.932 212.304L143.236 208.002V207.948H135.622Z" fill="#444444"/>
<path d="M760.359 205.616V208.28C761.169 208.766 762.501 209.18 763.977 209.18C766.461 209.18 768.495 208.118 768.495 205.724C768.495 204.032 767.577 202.97 765.561 202.34L763.887 201.836C763.311 201.656 762.969 201.458 762.969 200.954C762.969 200.396 763.599 200.162 764.427 200.162C765.687 200.162 766.785 200.576 767.775 201.26V198.596C766.857 198.092 765.795 197.768 764.301 197.768C761.979 197.768 760.125 198.974 760.125 201.17C760.125 203.006 761.151 203.924 763.005 204.464L764.679 204.95C765.273 205.166 765.615 205.346 765.615 205.886C765.615 206.57 764.823 206.768 763.905 206.768C762.663 206.768 761.313 206.264 760.359 205.616ZM777.404 209V200.9H774.578V205.814C774.434 206.372 773.948 206.714 773.426 206.714C772.706 206.714 772.382 206.228 772.382 205.544V200.9H769.574V206.21C769.574 208.01 770.636 209.18 772.418 209.18C773.336 209.18 774.146 208.802 774.578 208.298V209H777.404ZM781.734 209V208.352C782.112 208.784 782.904 209.18 783.732 209.18C786.072 209.18 787.35 207.29 787.35 204.95C787.35 202.61 786.072 200.72 783.732 200.72C782.904 200.72 782.112 201.116 781.734 201.548V197.3H778.908V209H781.734ZM781.734 206.012V203.87C781.95 203.438 782.436 203.114 782.976 203.114C783.948 203.114 784.524 203.906 784.524 204.95C784.524 205.994 783.948 206.768 782.976 206.768C782.418 206.768 781.95 206.462 781.734 206.012ZM788.591 203.096V205.472H792.929V203.096H788.591ZM798.753 204.122V204.41C798.429 204.176 797.673 203.96 796.989 203.96C795.243 203.96 793.875 204.968 793.875 206.534C793.875 208.244 795.243 209.144 796.845 209.144C797.709 209.144 798.483 208.856 798.753 208.586V209H801.471V203.996C801.471 201.854 800.103 200.72 797.709 200.72C796.557 200.72 795.477 200.99 794.811 201.35V203.618C795.459 203.24 796.251 203.042 797.025 203.042C798.177 203.042 798.753 203.492 798.753 204.122ZM798.753 206.264V206.732C798.573 207.056 798.123 207.272 797.619 207.272C797.061 207.272 796.503 207.038 796.503 206.48C796.503 205.94 797.061 205.706 797.619 205.706C798.123 205.706 798.573 205.922 798.753 206.264ZM808.356 203.582V200.864C808.23 200.792 807.942 200.72 807.582 200.72C806.772 200.72 806.142 201.08 805.746 201.62V200.9H802.92V209H805.746V204.248C805.89 203.672 806.412 203.33 807.186 203.33C807.636 203.33 808.014 203.402 808.356 203.582ZM811.693 205.598H816.679V204.77C816.679 202.358 815.401 200.72 812.881 200.72C810.649 200.72 808.957 202.466 808.957 205.004C808.957 207.614 810.721 209.18 813.313 209.18C814.483 209.18 815.473 208.928 816.103 208.46V206.318C815.293 206.804 814.627 206.966 813.763 206.966C812.719 206.966 811.927 206.57 811.693 205.598ZM812.989 202.862C813.673 202.862 814.087 203.33 814.159 204.014H811.729C811.927 203.276 812.377 202.862 812.989 202.862ZM822.255 204.122V204.41C821.931 204.176 821.175 203.96 820.491 203.96C818.745 203.96 817.377 204.968 817.377 206.534C817.377 208.244 818.745 209.144 820.347 209.144C821.211 209.144 821.985 208.856 822.255 208.586V209H824.973V203.996C824.973 201.854 823.605 200.72 821.211 200.72C820.059 200.72 818.979 200.99 818.313 201.35V203.618C818.961 203.24 819.753 203.042 820.527 203.042C821.679 203.042 822.255 203.492 822.255 204.122ZM822.255 206.264V206.732C822.075 207.056 821.625 207.272 821.121 207.272C820.563 207.272 820.005 207.038 820.005 206.48C820.005 205.94 820.563 205.706 821.121 205.706C821.625 205.706 822.075 205.922 822.255 206.264ZM829.846 205.616V208.28C830.656 208.766 831.988 209.18 833.464 209.18C835.948 209.18 837.982 208.118 837.982 205.724C837.982 204.032 837.064 202.97 835.048 202.34L833.374 201.836C832.798 201.656 832.456 201.458 832.456 200.954C832.456 200.396 833.086 200.162 833.914 200.162C835.174 200.162 836.272 200.576 837.262 201.26V198.596C836.344 198.092 835.282 197.768 833.788 197.768C831.466 197.768 829.612 198.974 829.612 201.17C829.612 203.006 830.638 203.924 832.492 204.464L834.166 204.95C834.76 205.166 835.102 205.346 835.102 205.886C835.102 206.57 834.31 206.768 833.392 206.768C832.15 206.768 830.8 206.264 829.846 205.616ZM841.922 211.862V208.352C842.3 208.784 843.092 209.18 843.92 209.18C846.26 209.18 847.538 207.254 847.538 204.95C847.538 202.628 846.26 200.72 843.92 200.72C843.092 200.72 842.3 201.116 841.922 201.548V200.9H839.096V211.862H841.922ZM841.922 206.012V203.87C842.138 203.438 842.606 203.114 843.164 203.114C844.136 203.114 844.712 203.906 844.712 204.95C844.712 205.994 844.136 206.768 843.164 206.768C842.624 206.768 842.138 206.462 841.922 206.012ZM856.577 204.95C856.577 202.448 854.903 200.72 852.437 200.72C849.989 200.72 848.297 202.448 848.297 204.95C848.297 207.452 849.989 209.18 852.437 209.18C854.903 209.18 856.577 207.452 856.577 204.95ZM853.805 204.95C853.805 206.066 853.319 206.84 852.437 206.84C851.573 206.84 851.087 206.066 851.087 204.95C851.087 203.834 851.573 203.042 852.437 203.042C853.319 203.042 853.805 203.834 853.805 204.95ZM866.118 209L863.04 204.644L866.046 200.9H862.806L860.502 203.96V197.3H857.676V209H860.502V205.454L862.95 209H866.118ZM868.857 205.598H873.843V204.77C873.843 202.358 872.565 200.72 870.045 200.72C867.813 200.72 866.121 202.466 866.121 205.004C866.121 207.614 867.885 209.18 870.477 209.18C871.647 209.18 872.637 208.928 873.267 208.46V206.318C872.457 206.804 871.791 206.966 870.927 206.966C869.883 206.966 869.091 206.57 868.857 205.598ZM870.153 202.862C870.837 202.862 871.251 203.33 871.323 204.014H868.893C869.091 203.276 869.541 202.862 870.153 202.862Z" fill="#444444"/>
<path d="M541.075 25.474C541.075 28.912 543.379 31.18 546.745 31.18C547.915 31.18 548.851 30.892 549.553 30.424V27.616C548.761 28.228 547.897 28.498 546.979 28.498C545.143 28.498 543.973 27.364 543.973 25.474C543.973 23.566 545.143 22.432 546.979 22.432C547.897 22.432 548.761 22.72 549.553 23.332V20.524C548.851 20.056 547.915 19.768 546.745 19.768C543.379 19.768 541.075 22.036 541.075 25.474ZM555.408 26.122V26.41C555.084 26.176 554.328 25.96 553.644 25.96C551.898 25.96 550.53 26.968 550.53 28.534C550.53 30.244 551.898 31.144 553.5 31.144C554.364 31.144 555.138 30.856 555.408 30.586V31H558.126V25.996C558.126 23.854 556.758 22.72 554.364 22.72C553.212 22.72 552.132 22.99 551.466 23.35V25.618C552.114 25.24 552.906 25.042 553.68 25.042C554.832 25.042 555.408 25.492 555.408 26.122ZM555.408 28.264V28.732C555.228 29.056 554.778 29.272 554.274 29.272C553.716 29.272 553.158 29.038 553.158 28.48C553.158 27.94 553.716 27.706 554.274 27.706C554.778 27.706 555.228 27.922 555.408 28.264ZM565.011 25.582V22.864C564.885 22.792 564.597 22.72 564.237 22.72C563.427 22.72 562.797 23.08 562.401 23.62V22.9H559.575V31H562.401V26.248C562.545 25.672 563.067 25.33 563.841 25.33C564.291 25.33 564.669 25.402 565.011 25.582ZM571.228 30.352V31H574.054V19.3H571.228V23.548C570.85 23.116 570.058 22.72 569.23 22.72C566.89 22.72 565.612 24.61 565.612 26.95C565.612 29.29 566.89 31.18 569.23 31.18C570.058 31.18 570.85 30.784 571.228 30.352ZM571.228 25.87V28.012C571.012 28.462 570.544 28.768 569.986 28.768C569.014 28.768 568.438 27.994 568.438 26.95C568.438 25.906 569.014 25.114 569.986 25.114C570.526 25.114 571.012 25.438 571.228 25.87ZM587.005 28.516H583.711L584.791 27.04C585.745 25.708 586.555 24.502 586.555 23.098C586.555 21.1 585.151 19.768 582.955 19.768C581.353 19.768 580.003 20.344 579.157 21.046V23.818C579.859 23.242 581.065 22.468 582.199 22.468C583.081 22.468 583.567 22.936 583.567 23.674C583.567 24.61 583.045 25.294 582.055 26.608L578.815 30.928V31H587.005V28.516ZM591.95 27.616V30.28C592.76 30.766 594.092 31.18 595.568 31.18C598.052 31.18 600.086 30.118 600.086 27.724C600.086 26.032 599.168 24.97 597.152 24.34L595.478 23.836C594.902 23.656 594.56 23.458 594.56 22.954C594.56 22.396 595.19 22.162 596.018 22.162C597.278 22.162 598.376 22.576 599.366 23.26V20.596C598.448 20.092 597.386 19.768 595.892 19.768C593.57 19.768 591.716 20.974 591.716 23.17C591.716 25.006 592.742 25.924 594.596 26.464L596.27 26.95C596.864 27.166 597.206 27.346 597.206 27.886C597.206 28.57 596.414 28.768 595.496 28.768C594.254 28.768 592.904 28.264 591.95 27.616ZM604.026 33.862V30.352C604.404 30.784 605.196 31.18 606.024 31.18C608.364 31.18 609.642 29.254 609.642 26.95C609.642 24.628 608.364 22.72 606.024 22.72C605.196 22.72 604.404 23.116 604.026 23.548V22.9H601.2V33.862H604.026ZM604.026 28.012V25.87C604.242 25.438 604.71 25.114 605.268 25.114C606.24 25.114 606.816 25.906 606.816 26.95C606.816 27.994 606.24 28.768 605.268 28.768C604.728 28.768 604.242 28.462 604.026 28.012ZM618.681 26.95C618.681 24.448 617.007 22.72 614.541 22.72C612.093 22.72 610.401 24.448 610.401 26.95C610.401 29.452 612.093 31.18 614.541 31.18C617.007 31.18 618.681 29.452 618.681 26.95ZM615.909 26.95C615.909 28.066 615.423 28.84 614.541 28.84C613.677 28.84 613.191 28.066 613.191 26.95C613.191 25.834 613.677 25.042 614.541 25.042C615.423 25.042 615.909 25.834 615.909 26.95ZM628.222 31L625.144 26.644L628.15 22.9H624.91L622.606 25.96V19.3H619.78V31H622.606V27.454L625.054 31H628.222ZM630.961 27.598H635.947V26.77C635.947 24.358 634.669 22.72 632.149 22.72C629.917 22.72 628.225 24.466 628.225 27.004C628.225 29.614 629.989 31.18 632.581 31.18C633.751 31.18 634.741 30.928 635.371 30.46V28.318C634.561 28.804 633.895 28.966 633.031 28.966C631.987 28.966 631.195 28.57 630.961 27.598ZM632.257 24.862C632.941 24.862 633.355 25.33 633.427 26.014H630.997C631.195 25.276 631.645 24.862 632.257 24.862Z" fill="#444444"/>
<path d="M308.396 213.474C308.396 216.912 310.7 219.18 314.066 219.18C315.236 219.18 316.172 218.892 316.874 218.424V215.616C316.082 216.228 315.218 216.498 314.3 216.498C312.464 216.498 311.294 215.364 311.294 213.474C311.294 211.566 312.464 210.432 314.3 210.432C315.218 210.432 316.082 210.72 316.874 211.332V208.524C316.172 208.056 315.236 207.768 314.066 207.768C310.7 207.768 308.396 210.036 308.396 213.474ZM322.729 214.122V214.41C322.405 214.176 321.649 213.96 320.965 213.96C319.219 213.96 317.851 214.968 317.851 216.534C317.851 218.244 319.219 219.144 320.821 219.144C321.685 219.144 322.459 218.856 322.729 218.586V219H325.447V213.996C325.447 211.854 324.079 210.72 321.685 210.72C320.533 210.72 319.453 210.99 318.787 211.35V213.618C319.435 213.24 320.227 213.042 321.001 213.042C322.153 213.042 322.729 213.492 322.729 214.122ZM322.729 216.264V216.732C322.549 217.056 322.099 217.272 321.595 217.272C321.037 217.272 320.479 217.038 320.479 216.48C320.479 215.94 321.037 215.706 321.595 215.706C322.099 215.706 322.549 215.922 322.729 216.264ZM332.333 213.582V210.864C332.207 210.792 331.919 210.72 331.559 210.72C330.749 210.72 330.119 211.08 329.723 211.62V210.9H326.897V219H329.723V214.248C329.867 213.672 330.389 213.33 331.163 213.33C331.613 213.33 331.991 213.402 332.333 213.582ZM338.549 218.352V219H341.375V207.3H338.549V211.548C338.171 211.116 337.379 210.72 336.551 210.72C334.211 210.72 332.933 212.61 332.933 214.95C332.933 217.29 334.211 219.18 336.551 219.18C337.379 219.18 338.171 218.784 338.549 218.352ZM338.549 213.87V216.012C338.333 216.462 337.865 216.768 337.307 216.768C336.335 216.768 335.759 215.994 335.759 214.95C335.759 213.906 336.335 213.114 337.307 213.114C337.847 213.114 338.333 213.438 338.549 213.87ZM349.448 214.716L351.896 207.948H349.268L345.902 216.984V217.056H351.068V219H353.516V217.056H354.758V214.716H353.516V212.664H351.068V214.716H349.448Z" fill="#444444"/>
<path d="M470.882 56.0879L478.595 64.4575L468 66.9939" stroke="#7630EA" stroke-width="2"/>
<path d="M466.353 226.761L466.103 238.139L456.712 232.617" stroke="#7630EA" stroke-width="2"/>
<path d="M225.123 32.948H222.225V37.142H217.959V32.948H215.061V44H217.959V39.626H222.225V44H225.123V32.948ZM234.49 44V35.9H231.664V40.814C231.52 41.372 231.034 41.714 230.512 41.714C229.792 41.714 229.468 41.228 229.468 40.544V35.9H226.66V41.21C226.66 43.01 227.722 44.18 229.504 44.18C230.422 44.18 231.232 43.802 231.664 43.298V44H234.49ZM238.821 44V43.352C239.199 43.784 239.991 44.18 240.819 44.18C243.159 44.18 244.437 42.29 244.437 39.95C244.437 37.61 243.159 35.72 240.819 35.72C239.991 35.72 239.199 36.116 238.821 36.548V32.3H235.995V44H238.821ZM238.821 41.012V38.87C239.037 38.438 239.523 38.114 240.063 38.114C241.035 38.114 241.611 38.906 241.611 39.95C241.611 40.994 241.035 41.768 240.063 41.768C239.505 41.768 239.037 41.462 238.821 41.012Z" fill="black"/>
<g filter="url(#filter3_d_2408_13988)">
<rect x="489" y="184" width="198.277" height="114.033" fill="white"/>
</g>
<rect x="501" y="221" width="177" height="18" fill="#EFEFEF"/>
<rect x="501" y="248" width="177" height="40" fill="#EFEFEF"/>
<path d="M545.282 203.474C545.282 206.912 547.586 209.18 550.952 209.18C552.122 209.18 553.058 208.892 553.76 208.424V205.616C552.968 206.228 552.104 206.498 551.186 206.498C549.35 206.498 548.18 205.364 548.18 203.474C548.18 201.566 549.35 200.432 551.186 200.432C552.104 200.432 552.968 200.72 553.76 201.332V198.524C553.058 198.056 552.122 197.768 550.952 197.768C547.586 197.768 545.282 200.036 545.282 203.474ZM559.615 204.122V204.41C559.291 204.176 558.535 203.96 557.851 203.96C556.105 203.96 554.737 204.968 554.737 206.534C554.737 208.244 556.105 209.144 557.707 209.144C558.571 209.144 559.345 208.856 559.615 208.586V209H562.333V203.996C562.333 201.854 560.965 200.72 558.571 200.72C557.419 200.72 556.339 200.99 555.673 201.35V203.618C556.321 203.24 557.113 203.042 557.887 203.042C559.039 203.042 559.615 203.492 559.615 204.122ZM559.615 206.264V206.732C559.435 207.056 558.985 207.272 558.481 207.272C557.923 207.272 557.365 207.038 557.365 206.48C557.365 205.94 557.923 205.706 558.481 205.706C558.985 205.706 559.435 205.922 559.615 206.264ZM569.218 203.582V200.864C569.092 200.792 568.804 200.72 568.444 200.72C567.634 200.72 567.004 201.08 566.608 201.62V200.9H563.782V209H566.608V204.248C566.752 203.672 567.274 203.33 568.048 203.33C568.498 203.33 568.876 203.402 569.218 203.582ZM575.435 208.352V209H578.261V197.3H575.435V201.548C575.057 201.116 574.265 200.72 573.437 200.72C571.097 200.72 569.819 202.61 569.819 204.95C569.819 207.29 571.097 209.18 573.437 209.18C574.265 209.18 575.057 208.784 575.435 208.352ZM575.435 203.87V206.012C575.219 206.462 574.751 206.768 574.193 206.768C573.221 206.768 572.645 205.994 572.645 204.95C572.645 203.906 573.221 203.114 574.193 203.114C574.733 203.114 575.219 203.438 575.435 203.87ZM586.334 204.716L588.782 197.948H586.154L582.788 206.984V207.056H587.954V209H590.402V207.056H591.644V204.716H590.402V202.664H587.954V204.716H586.334ZM606.471 197.948H603.573V202.142H599.307V197.948H596.409V209H599.307V204.626H603.573V209H606.471V197.948ZM615.838 209V200.9H613.012V205.814C612.868 206.372 612.382 206.714 611.86 206.714C611.14 206.714 610.816 206.228 610.816 205.544V200.9H608.008V206.21C608.008 208.01 609.07 209.18 610.852 209.18C611.77 209.18 612.58 208.802 613.012 208.298V209H615.838ZM620.169 209V208.352C620.547 208.784 621.339 209.18 622.167 209.18C624.507 209.18 625.785 207.29 625.785 204.95C625.785 202.61 624.507 200.72 622.167 200.72C621.339 200.72 620.547 201.116 620.169 201.548V197.3H617.343V209H620.169ZM620.169 206.012V203.87C620.385 203.438 620.871 203.114 621.411 203.114C622.383 203.114 622.959 203.906 622.959 204.95C622.959 205.994 622.383 206.768 621.411 206.768C620.853 206.768 620.385 206.462 620.169 206.012Z" fill="#444444"/>
<path d="M709.567 235.563C697.514 228.189 690.821 227.511 679 232.679" stroke="#7630EA" stroke-width="2"/>
<path d="M705.508 237L709.724 235.421L708.508 230.5" stroke="#7630EA" stroke-width="2"/>
<defs>
<filter id="filter0_d_2408_13988" x="0" y="13" width="450" height="269" filterUnits="userSpaceOnUse" color-interpolation-filters="sRGB">
<feFlood flood-opacity="0" result="BackgroundImageFix"/>
<feColorMatrix in="SourceAlpha" type="matrix" values="0 0 0 0 0 0 0 0 0 0 0 0 0 0 0 0 0 0 127 0" result="hardAlpha"/>
<feOffset dy="6"/>
<feGaussianBlur stdDeviation="6"/>
<feColorMatrix type="matrix" values="0 0 0 0 0 0 0 0 0 0 0 0 0 0 0 0 0 0 0.12 0"/>
<feBlend mode="normal" in2="BackgroundImageFix" result="effect1_dropShadow_2408_13988"/>
<feBlend mode="normal" in="SourceGraphic" in2="effect1_dropShadow_2408_13988" result="shape"/>
</filter>
<filter id="filter1_d_2408_13988" x="477" y="0" width="222.277" height="138.033" filterUnits="userSpaceOnUse" color-interpolation-filters="sRGB">
<feFlood flood-opacity="0" result="BackgroundImageFix"/>
<feColorMatrix in="SourceAlpha" type="matrix" values="0 0 0 0 0 0 0 0 0 0 0 0 0 0 0 0 0 0 127 0" result="hardAlpha"/>
<feOffset dy="6"/>
<feGaussianBlur stdDeviation="6"/>
<feColorMatrix type="matrix" values="0 0 0 0 0 0 0 0 0 0 0 0 0 0 0 0 0 0 0.12 0"/>
<feBlend mode="normal" in2="BackgroundImageFix" result="effect1_dropShadow_2408_13988"/>
<feBlend mode="normal" in="SourceGraphic" in2="effect1_dropShadow_2408_13988" result="shape"/>
</filter>
<filter id="filter2_d_2408_13988" x="706.186" y="178" width="222.22" height="138" filterUnits="userSpaceOnUse" color-interpolation-filters="sRGB">
<feFlood flood-opacity="0" result="BackgroundImageFix"/>
<feColorMatrix in="SourceAlpha" type="matrix" values="0 0 0 0 0 0 0 0 0 0 0 0 0 0 0 0 0 0 127 0" result="hardAlpha"/>
<feOffset dy="6"/>
<feGaussianBlur stdDeviation="6"/>
<feColorMatrix type="matrix" values="0 0 0 0 0 0 0 0 0 0 0 0 0 0 0 0 0 0 0.12 0"/>
<feBlend mode="normal" in2="BackgroundImageFix" result="effect1_dropShadow_2408_13988"/>
<feBlend mode="normal" in="SourceGraphic" in2="effect1_dropShadow_2408_13988" result="shape"/>
</filter>
<filter id="filter3_d_2408_13988" x="477" y="178" width="222.277" height="138.033" filterUnits="userSpaceOnUse" color-interpolation-filters="sRGB">
<feFlood flood-opacity="0" result="BackgroundImageFix"/>
<feColorMatrix in="SourceAlpha" type="matrix" values="0 0 0 0 0 0 0 0 0 0 0 0 0 0 0 0 0 0 127 0" result="hardAlpha"/>
<feOffset dy="6"/>
<feGaussianBlur stdDeviation="6"/>
<feColorMatrix type="matrix" values="0 0 0 0 0 0 0 0 0 0 0 0 0 0 0 0 0 0 0.12 0"/>
<feBlend mode="normal" in2="BackgroundImageFix" result="effect1_dropShadow_2408_13988"/>
<feBlend mode="normal" in="SourceGraphic" in2="effect1_dropShadow_2408_13988" result="shape"/>
</filter>
</defs>
</svg>
