<svg width="1440" height="72" viewBox="0 0 1440 72" fill="none" xmlns="http://www.w3.org/2000/svg">
<rect width="1440" height="72" fill="white"/>
<path fill-rule="evenodd" clip-rule="evenodd" d="M75 27H141V45H75V27ZM79.5 31.5H136.5V40.5H79.5V31.5Z" fill="#01A982"/>
<path d="M178.89 29.948H175.992V34.142H171.726V29.948H168.828V41H171.726V36.626H175.992V41H178.89V29.948ZM182.767 37.598H187.753V36.77C187.753 34.358 186.475 32.72 183.955 32.72C181.723 32.72 180.031 34.466 180.031 37.004C180.031 39.614 181.795 41.18 184.387 41.18C185.557 41.18 186.547 40.928 187.177 40.46V38.318C186.367 38.804 185.701 38.966 184.837 38.966C183.793 38.966 183.001 38.57 182.767 37.598ZM184.063 34.862C184.747 34.862 185.161 35.33 185.233 36.014H182.803C183.001 35.276 183.451 34.862 184.063 34.862ZM196.411 37.292L195.205 32.9H193.405L192.181 37.292L190.903 32.9H188.095L190.705 41H193.099L194.251 36.896L195.403 41H197.797L200.407 32.9H197.707L196.411 37.292ZM204.119 41V29.3H201.293V41H204.119ZM207.956 37.598H212.942V36.77C212.942 34.358 211.664 32.72 209.144 32.72C206.912 32.72 205.22 34.466 205.22 37.004C205.22 39.614 206.984 41.18 209.576 41.18C210.746 41.18 211.736 40.928 212.366 40.46V38.318C211.556 38.804 210.89 38.966 210.026 38.966C208.982 38.966 208.19 38.57 207.956 37.598ZM209.252 34.862C209.936 34.862 210.35 35.33 210.422 36.014H207.992C208.19 35.276 208.64 34.862 209.252 34.862ZM217.781 41V35.096H219.365V32.9H217.781V30.668H214.973V32.9H213.569V35.096H214.973V41H217.781ZM224.197 41V35.096H225.781V32.9H224.197V30.668H221.389V32.9H219.985V35.096H221.389V41H224.197ZM233.354 37.562H235.334C237.728 37.562 239.348 36.212 239.348 33.764C239.348 31.298 237.728 29.948 235.334 29.948H230.492V41H233.354V37.562ZM236.54 33.764C236.54 34.592 236.072 35.15 235.028 35.15H233.354V32.378H235.028C236.072 32.378 236.54 32.918 236.54 33.764ZM244.481 36.122V36.41C244.157 36.176 243.401 35.96 242.717 35.96C240.971 35.96 239.603 36.968 239.603 38.534C239.603 40.244 240.971 41.144 242.573 41.144C243.437 41.144 244.211 40.856 244.481 40.586V41H247.199V35.996C247.199 33.854 245.831 32.72 243.437 32.72C242.285 32.72 241.205 32.99 240.539 33.35V35.618C241.187 35.24 241.979 35.042 242.753 35.042C243.905 35.042 244.481 35.492 244.481 36.122ZM244.481 38.264V38.732C244.301 39.056 243.851 39.272 243.347 39.272C242.789 39.272 242.231 39.038 242.231 38.48C242.231 37.94 242.789 37.706 243.347 37.706C243.851 37.706 244.301 37.922 244.481 38.264ZM248.217 36.95C248.217 39.56 250.017 41.18 252.447 41.18C253.275 41.18 254.049 41.018 254.625 40.604V38.228C254.103 38.606 253.545 38.804 252.879 38.804C251.835 38.804 251.007 38.174 251.007 36.95C251.007 35.726 251.835 35.096 252.879 35.096C253.545 35.096 254.103 35.294 254.625 35.672V33.296C254.049 32.882 253.275 32.72 252.447 32.72C250.017 32.72 248.217 34.34 248.217 36.95ZM264.298 41L261.22 36.644L264.226 32.9H260.986L258.682 35.96V29.3H255.856V41H258.682V37.454L261.13 41H264.298ZM269.249 36.122V36.41C268.925 36.176 268.169 35.96 267.485 35.96C265.739 35.96 264.371 36.968 264.371 38.534C264.371 40.244 265.739 41.144 267.341 41.144C268.205 41.144 268.979 40.856 269.249 40.586V41H271.967V35.996C271.967 33.854 270.599 32.72 268.205 32.72C267.053 32.72 265.973 32.99 265.307 33.35V35.618C265.955 35.24 266.747 35.042 267.521 35.042C268.673 35.042 269.249 35.492 269.249 36.122ZM269.249 38.264V38.732C269.069 39.056 268.619 39.272 268.115 39.272C267.557 39.272 266.999 39.038 266.999 38.48C266.999 37.94 267.557 37.706 268.115 37.706C268.619 37.706 269.069 37.922 269.249 38.264ZM278.852 35.582V32.864C278.726 32.792 278.438 32.72 278.078 32.72C277.268 32.72 276.638 33.08 276.242 33.62V32.9H273.416V41H276.242V36.248C276.386 35.672 276.908 35.33 277.682 35.33C278.132 35.33 278.51 35.402 278.852 35.582ZM285.069 40.352V41H287.895V29.3H285.069V33.548C284.691 33.116 283.899 32.72 283.071 32.72C280.731 32.72 279.453 34.61 279.453 36.95C279.453 39.29 280.731 41.18 283.071 41.18C283.899 41.18 284.691 40.784 285.069 40.352ZM285.069 35.87V38.012C284.853 38.462 284.385 38.768 283.827 38.768C282.855 38.768 282.279 37.994 282.279 36.95C282.279 35.906 282.855 35.114 283.827 35.114C284.367 35.114 284.853 35.438 285.069 35.87Z" fill="black"/>
<path d="M301.75 29.948H294.712V41H301.75V39.722H296.116V35.96H301.228V34.7H296.116V31.208H301.75V29.948ZM303.868 33.008V41H305.218V35.582C305.506 34.718 306.316 34.088 307.252 34.088C308.458 34.088 309.016 34.862 309.016 35.978V41H310.384V35.762C310.384 34.016 309.394 32.846 307.576 32.846C306.55 32.846 305.686 33.386 305.218 34.016V33.008H303.868ZM314.907 41V34.16H316.761V33.008H314.907V30.902H313.557V33.008H311.883V34.16H313.557V41H314.907ZM319.021 37.238H324.529V36.752C324.529 34.412 323.413 32.846 321.253 32.846C319.129 32.846 317.689 34.592 317.689 37.076C317.689 39.596 319.237 41.162 321.541 41.162C322.495 41.162 323.323 40.964 323.971 40.46V39.218C323.251 39.758 322.603 39.974 321.703 39.974C320.245 39.974 319.075 39.092 319.021 37.238ZM321.271 33.998C322.567 33.998 323.161 35.006 323.215 36.176H319.093C319.345 34.7 320.209 33.998 321.271 33.998ZM330.472 34.358V32.972C330.328 32.9 330.04 32.846 329.698 32.846C328.816 32.846 328.06 33.368 327.718 34.052V33.008H326.368V41H327.718V35.636C327.988 34.7 328.726 34.142 329.572 34.142C329.914 34.142 330.256 34.214 330.472 34.358ZM333.501 44.06V40.064C333.915 40.64 334.761 41.162 335.751 41.162C338.109 41.162 339.351 39.218 339.351 37.004C339.351 34.79 338.109 32.846 335.751 32.846C334.761 32.846 333.915 33.368 333.501 33.944V33.008H332.151V44.06H333.501ZM333.501 38.624V35.384C333.915 34.556 334.707 34.07 335.553 34.07C337.083 34.07 337.983 35.312 337.983 37.004C337.983 38.696 337.083 39.938 335.553 39.938C334.707 39.938 333.915 39.452 333.501 38.624ZM345.29 34.358V32.972C345.146 32.9 344.858 32.846 344.516 32.846C343.634 32.846 342.878 33.368 342.536 34.052V33.008H341.186V41H342.536V35.636C342.806 34.7 343.544 34.142 344.39 34.142C344.732 34.142 345.074 34.214 345.29 34.358ZM348.518 30.596C348.518 30.11 348.122 29.732 347.636 29.732C347.168 29.732 346.772 30.11 346.772 30.596C346.772 31.064 347.168 31.46 347.636 31.46C348.122 31.46 348.518 31.064 348.518 30.596ZM348.32 41V33.008H346.97V41H348.32ZM350.263 38.93V40.37C350.857 40.838 351.847 41.162 352.891 41.162C354.565 41.162 355.879 40.316 355.879 38.84C355.879 37.706 355.213 37.004 354.007 36.59L352.783 36.176C352.027 35.906 351.595 35.69 351.595 35.042C351.595 34.358 352.279 33.998 353.107 33.998C354.079 33.998 354.817 34.394 355.483 34.952V33.548C354.835 33.098 354.007 32.846 353.107 32.846C351.523 32.846 350.281 33.692 350.281 35.096C350.281 36.392 351.091 36.968 352.297 37.364L353.395 37.742C354.097 37.976 354.547 38.3 354.547 38.894C354.547 39.686 353.773 40.01 352.891 40.01C351.919 40.01 351.001 39.614 350.263 38.93ZM358.554 37.238H364.062V36.752C364.062 34.412 362.946 32.846 360.786 32.846C358.662 32.846 357.222 34.592 357.222 37.076C357.222 39.596 358.77 41.162 361.074 41.162C362.028 41.162 362.856 40.964 363.504 40.46V39.218C362.784 39.758 362.136 39.974 361.236 39.974C359.778 39.974 358.608 39.092 358.554 37.238ZM360.804 33.998C362.1 33.998 362.694 35.006 362.748 36.176H358.626C358.878 34.7 359.742 33.998 360.804 33.998Z" fill="black"/>
<path fill-rule="evenodd" clip-rule="evenodd" d="M1362.84 26H1362.16H1362.16C1361.63 26 1361.18 26 1360.8 26.0306C1360.41 26.0629 1360.02 26.1342 1359.64 26.327C1359.07 26.6146 1358.61 27.0735 1358.33 27.638C1358.13 28.0164 1358.06 28.4096 1358.03 28.805C1358 29.1795 1358 29.6343 1358 30.1614V30.1615V30.8385V30.8386C1358 31.3657 1358 31.8205 1358.03 32.195C1358.06 32.5904 1358.13 32.9836 1358.33 33.362C1358.61 33.9265 1359.07 34.3854 1359.64 34.673C1360.02 34.8658 1360.41 34.9371 1360.8 34.9694C1361.18 35 1361.63 35 1362.16 35H1362.84C1363.37 35 1363.82 35 1364.2 34.9694C1364.59 34.9371 1364.98 34.8658 1365.36 34.673C1365.93 34.3854 1366.39 33.9265 1366.67 33.362C1366.87 32.9836 1366.94 32.5904 1366.97 32.195C1367 31.8205 1367 31.3657 1367 30.8385V30.1615C1367 29.6343 1367 29.1796 1366.97 28.805C1366.94 28.4096 1366.87 28.0164 1366.67 27.638C1366.39 27.0735 1365.93 26.6146 1365.36 26.327C1364.98 26.1342 1364.59 26.0629 1364.2 26.0306C1363.82 26 1363.37 26 1362.84 26H1362.84ZM1360.55 28.109C1360.6 28.0838 1360.7 28.0461 1360.97 28.0239C1361.25 28.0008 1361.62 28 1362.2 28H1362.8C1363.38 28 1363.75 28.0008 1364.03 28.0239C1364.3 28.0461 1364.4 28.0838 1364.45 28.109C1364.64 28.2049 1364.8 28.3578 1364.89 28.546C1364.92 28.5955 1364.95 28.6962 1364.98 28.9678C1365 29.2512 1365 29.6234 1365 30.2V30.8C1365 31.3766 1365 31.7488 1364.98 32.0322C1364.95 32.3038 1364.92 32.4045 1364.89 32.454C1364.8 32.6422 1364.64 32.7951 1364.45 32.891C1364.4 32.9162 1364.3 32.9539 1364.03 32.9761C1363.75 32.9992 1363.38 33 1362.8 33H1362.2C1361.62 33 1361.25 32.9992 1360.97 32.9761C1360.7 32.9539 1360.6 32.9162 1360.55 32.891C1360.36 32.7951 1360.2 32.6422 1360.11 32.454C1360.08 32.4045 1360.05 32.3038 1360.02 32.0322C1360 31.7488 1360 31.3766 1360 30.8V30.2C1360 29.6234 1360 29.2512 1360.02 28.9678C1360.05 28.6962 1360.08 28.5955 1360.11 28.546C1360.2 28.3578 1360.36 28.2049 1360.55 28.109ZM1373.84 26H1373.16H1373.16C1372.63 26 1372.18 26 1371.8 26.0306C1371.41 26.0629 1371.02 26.1342 1370.64 26.327C1370.07 26.6146 1369.61 27.0735 1369.33 27.638C1369.13 28.0164 1369.06 28.4096 1369.03 28.805C1369 29.1795 1369 29.6343 1369 30.1615V30.8385C1369 31.3657 1369 31.8205 1369.03 32.195C1369.06 32.5904 1369.13 32.9836 1369.33 33.362C1369.61 33.9265 1370.07 34.3854 1370.64 34.673C1371.02 34.8658 1371.41 34.9371 1371.8 34.9694C1372.18 35 1372.63 35 1373.16 35H1373.84C1374.37 35 1374.82 35 1375.2 34.9694C1375.59 34.9371 1375.98 34.8658 1376.36 34.673C1376.93 34.3854 1377.39 33.9265 1377.67 33.362C1377.87 32.9836 1377.94 32.5904 1377.97 32.195C1378 31.8205 1378 31.3658 1378 30.8387V30.8387V30.8386V30.8385V30.1615V30.1614V30.1613V30.1613C1378 29.6342 1378 29.1795 1377.97 28.805C1377.94 28.4096 1377.87 28.0164 1377.67 27.638C1377.39 27.0735 1376.93 26.6146 1376.36 26.327C1375.98 26.1342 1375.59 26.0629 1375.2 26.0306C1374.82 26 1374.37 26 1373.84 26H1373.84ZM1371.55 28.109C1371.6 28.0838 1371.7 28.0461 1371.97 28.0239C1372.25 28.0008 1372.62 28 1373.2 28H1373.8C1374.38 28 1374.75 28.0008 1375.03 28.0239C1375.3 28.0461 1375.4 28.0838 1375.45 28.109C1375.64 28.2049 1375.8 28.3578 1375.89 28.546C1375.92 28.5955 1375.95 28.6962 1375.98 28.9678C1376 29.2512 1376 29.6234 1376 30.2V30.8C1376 31.3766 1376 31.7488 1375.98 32.0322C1375.95 32.3038 1375.92 32.4045 1375.89 32.454C1375.8 32.6422 1375.64 32.7951 1375.45 32.891C1375.4 32.9162 1375.3 32.9539 1375.03 32.9761C1374.75 32.9992 1374.38 33 1373.8 33H1373.2C1372.62 33 1372.25 32.9992 1371.97 32.9761C1371.7 32.9539 1371.6 32.9162 1371.55 32.891C1371.36 32.7951 1371.2 32.6422 1371.11 32.454C1371.08 32.4045 1371.05 32.3038 1371.02 32.0322C1371 31.7488 1371 31.3766 1371 30.8V30.2C1371 29.6234 1371 29.2512 1371.02 28.9678C1371.05 28.6962 1371.08 28.5955 1371.11 28.546C1371.2 28.3578 1371.36 28.2049 1371.55 28.109ZM1362.16 37H1362.84C1363.37 37 1363.82 37 1364.2 37.0306C1364.59 37.0629 1364.98 37.1342 1365.36 37.327C1365.93 37.6146 1366.39 38.0735 1366.67 38.638C1366.87 39.0164 1366.94 39.4096 1366.97 39.805C1367 40.1796 1367 40.6343 1367 41.1615V41.8385C1367 42.3657 1367 42.8205 1366.97 43.195C1366.94 43.5904 1366.87 43.9836 1366.67 44.362C1366.39 44.9265 1365.93 45.3854 1365.36 45.673C1364.98 45.8658 1364.59 45.9371 1364.2 45.9694C1363.82 46 1363.37 46 1362.84 46H1362.84H1362.84H1362.16H1362.16H1362.16C1361.63 46 1361.18 46 1360.8 45.9694C1360.41 45.9371 1360.02 45.8658 1359.64 45.673C1359.07 45.3854 1358.61 44.9265 1358.33 44.362C1358.13 43.9836 1358.06 43.5904 1358.03 43.195C1358 42.8205 1358 42.3657 1358 41.8386V41.8385V41.1615V41.1614C1358 40.6343 1358 40.1795 1358.03 39.805C1358.06 39.4096 1358.13 39.0164 1358.33 38.638C1358.61 38.0735 1359.07 37.6146 1359.64 37.327C1360.02 37.1342 1360.41 37.0629 1360.8 37.0306C1361.18 37 1361.63 37 1362.16 37ZM1360.97 39.0239C1360.7 39.0461 1360.6 39.0838 1360.55 39.109C1360.36 39.2049 1360.2 39.3578 1360.11 39.546C1360.08 39.5955 1360.05 39.6962 1360.02 39.9678C1360 40.2512 1360 40.6234 1360 41.2V41.8C1360 42.3766 1360 42.7488 1360.02 43.0322C1360.05 43.3038 1360.08 43.4045 1360.11 43.454C1360.2 43.6422 1360.36 43.7951 1360.55 43.891C1360.6 43.9162 1360.7 43.9539 1360.97 43.9761C1361.25 43.9992 1361.62 44 1362.2 44H1362.8C1363.38 44 1363.75 43.9992 1364.03 43.9761C1364.3 43.9539 1364.4 43.9162 1364.45 43.891C1364.64 43.7951 1364.8 43.6422 1364.89 43.454C1364.92 43.4045 1364.95 43.3038 1364.98 43.0322C1365 42.7488 1365 42.3766 1365 41.8V41.2C1365 40.6234 1365 40.2512 1364.98 39.9678C1364.95 39.6962 1364.92 39.5955 1364.89 39.546C1364.8 39.3578 1364.64 39.2049 1364.45 39.109C1364.4 39.0838 1364.3 39.0461 1364.03 39.0239C1363.75 39.0008 1363.38 39 1362.8 39H1362.2C1361.62 39 1361.25 39.0008 1360.97 39.0239ZM1373.84 37H1373.16C1372.63 37 1372.18 37 1371.8 37.0306C1371.41 37.0629 1371.02 37.1342 1370.64 37.327C1370.07 37.6146 1369.61 38.0735 1369.33 38.638C1369.13 39.0164 1369.06 39.4096 1369.03 39.805C1369 40.1795 1369 40.6343 1369 41.1615V41.8385C1369 42.3657 1369 42.8205 1369.03 43.195C1369.06 43.5904 1369.13 43.9836 1369.33 44.362C1369.61 44.9265 1370.07 45.3854 1370.64 45.673C1371.02 45.8658 1371.41 45.9371 1371.8 45.9694C1372.18 46 1372.63 46 1373.16 46H1373.16H1373.84H1373.84C1374.37 46 1374.82 46 1375.2 45.9694C1375.59 45.9371 1375.98 45.8658 1376.36 45.673C1376.93 45.3854 1377.39 44.9265 1377.67 44.362C1377.87 43.9836 1377.94 43.5904 1377.97 43.195C1378 42.8205 1378 42.3658 1378 41.8386V41.8385V41.1615V41.1614C1378 40.6343 1378 40.1795 1377.97 39.805C1377.94 39.4096 1377.87 39.0164 1377.67 38.638C1377.39 38.0735 1376.93 37.6146 1376.36 37.327C1375.98 37.1342 1375.59 37.0629 1375.2 37.0306C1374.82 37 1374.37 37 1373.84 37ZM1371.55 39.109C1371.6 39.0838 1371.7 39.0461 1371.97 39.0239C1372.25 39.0008 1372.62 39 1373.2 39H1373.8C1374.38 39 1374.75 39.0008 1375.03 39.0239C1375.3 39.0461 1375.4 39.0838 1375.45 39.109C1375.64 39.2049 1375.8 39.3578 1375.89 39.546C1375.92 39.5955 1375.95 39.6962 1375.98 39.9678C1376 40.2512 1376 40.6234 1376 41.2V41.8C1376 42.3766 1376 42.7488 1375.98 43.0322C1375.95 43.3038 1375.92 43.4045 1375.89 43.454C1375.8 43.6422 1375.64 43.7951 1375.45 43.891C1375.4 43.9162 1375.3 43.9539 1375.03 43.9761C1374.75 43.9992 1374.38 44 1373.8 44H1373.2C1372.62 44 1372.25 43.9992 1371.97 43.9761C1371.7 43.9539 1371.6 43.9162 1371.55 43.891C1371.36 43.7951 1371.2 43.6422 1371.11 43.454C1371.08 43.4045 1371.05 43.3038 1371.02 43.0322C1371 42.7488 1371 42.3766 1371 41.8V41.2C1371 40.6234 1371 40.2512 1371.02 39.9678C1371.05 39.6962 1371.08 39.5955 1371.11 39.546C1371.2 39.3578 1371.36 39.2049 1371.55 39.109Z" fill="black"/>
<path d="M637.488 29.948H636.354L634.014 38.732L631.746 29.948H630.342L633.276 41H634.554L636.912 32.378L639.234 41H640.53L643.464 29.948H642.096L639.828 38.732L637.488 29.948ZM645.005 29.3V41H646.355V35.582C646.643 34.718 647.453 34.088 648.389 34.088C649.595 34.088 650.153 34.862 650.153 35.978V41H651.521V35.762C651.521 34.016 650.531 32.846 648.713 32.846C647.687 32.846 646.823 33.386 646.355 34.016V29.3H645.005ZM654.75 44.06H656.082L660.384 33.008H658.98L656.658 39.308L654.3 33.008H652.842L655.956 41.054L654.75 44.06ZM675.086 29.948H673.664V34.682H667.418V29.948H665.996V41H667.418V35.96H673.664V41H675.086V29.948ZM679.142 36.572H681.806C684.038 36.572 685.496 35.42 685.496 33.26C685.496 31.082 684.038 29.948 681.806 29.948H677.72V41H679.142V36.572ZM684.092 33.26C684.092 34.502 683.282 35.312 681.788 35.312H679.142V31.19H681.788C683.282 31.19 684.092 32 684.092 33.26ZM694.426 29.948H687.388V41H694.426V39.722H688.792V35.96H693.904V34.7H688.792V31.208H694.426V29.948Z" fill="black"/>
<path d="M722.736 36.572H725.4C727.632 36.572 729.09 35.42 729.09 33.26C729.09 31.082 727.632 29.948 725.4 29.948H721.314V41H722.736V36.572ZM727.686 33.26C727.686 34.502 726.876 35.312 725.382 35.312H722.736V31.19H725.382C726.876 31.19 727.686 32 727.686 33.26ZM734.925 34.358V32.972C734.781 32.9 734.493 32.846 734.151 32.846C733.269 32.846 732.513 33.368 732.171 34.052V33.008H730.821V41H732.171V35.636C732.441 34.7 733.179 34.142 734.025 34.142C734.367 34.142 734.709 34.214 734.925 34.358ZM743.144 37.004C743.144 34.556 741.65 32.846 739.472 32.846C737.276 32.846 735.8 34.556 735.8 37.004C735.8 39.452 737.276 41.162 739.472 41.162C741.65 41.162 743.144 39.452 743.144 37.004ZM741.776 37.004C741.776 38.75 740.912 39.974 739.472 39.974C738.032 39.974 737.168 38.75 737.168 37.004C737.168 35.258 738.032 34.034 739.472 34.034C740.912 34.034 741.776 35.258 741.776 37.004ZM750.281 40.064V41H751.649V29.3H750.281V33.944C749.885 33.368 749.021 32.846 748.031 32.846C745.691 32.846 744.431 34.754 744.431 37.004C744.431 39.272 745.691 41.162 748.031 41.162C749.021 41.162 749.885 40.64 750.281 40.064ZM750.281 35.384V38.624C749.867 39.452 749.075 39.938 748.229 39.938C746.699 39.938 745.799 38.696 745.799 37.004C745.799 35.312 746.699 34.07 748.229 34.07C749.075 34.07 749.867 34.556 750.281 35.384ZM760.414 41V33.008H759.046V38.426C758.758 39.29 757.984 39.92 757.048 39.92C755.842 39.92 755.302 39.146 755.302 38.03V33.008H753.934V38.246C753.934 39.992 754.906 41.162 756.724 41.162C757.75 41.162 758.596 40.622 759.046 39.992V41H760.414ZM762.237 37.004C762.237 39.56 763.929 41.162 766.089 41.162C766.863 41.162 767.673 40.982 768.231 40.496V39.128C767.655 39.704 766.953 39.956 766.179 39.956C764.757 39.956 763.605 38.84 763.605 37.004C763.605 35.168 764.757 34.052 766.179 34.052C766.953 34.052 767.655 34.304 768.231 34.88V33.512C767.673 33.026 766.863 32.846 766.089 32.846C763.929 32.846 762.237 34.448 762.237 37.004ZM772.376 41V34.16H774.229V33.008H772.376V30.902H771.026V33.008H769.352V34.16H771.026V41H772.376ZM775.353 38.93V40.37C775.947 40.838 776.937 41.162 777.981 41.162C779.655 41.162 780.969 40.316 780.969 38.84C780.969 37.706 780.303 37.004 779.097 36.59L777.873 36.176C777.117 35.906 776.685 35.69 776.685 35.042C776.685 34.358 777.369 33.998 778.197 33.998C779.169 33.998 779.907 34.394 780.573 34.952V33.548C779.925 33.098 779.097 32.846 778.197 32.846C776.613 32.846 775.371 33.692 775.371 35.096C775.371 36.392 776.181 36.968 777.387 37.364L778.485 37.742C779.187 37.976 779.637 38.3 779.637 38.894C779.637 39.686 778.863 40.01 777.981 40.01C777.009 40.01 776.091 39.614 775.353 38.93Z" fill="black"/>
<path d="M806.738 38.606V40.136C807.494 40.73 808.718 41.162 810.212 41.162C812.354 41.162 813.938 40.028 813.938 38.138C813.938 36.608 813.182 35.726 811.49 35.078L809.744 34.394C808.718 33.998 808.088 33.602 808.088 32.666C808.088 31.568 809.042 31.028 810.266 31.028C811.544 31.028 812.534 31.478 813.416 32.18V30.686C812.588 30.11 811.454 29.786 810.248 29.786C808.34 29.786 806.702 30.776 806.702 32.684C806.702 34.43 807.89 35.168 809.186 35.672L810.806 36.302C811.976 36.788 812.57 37.184 812.57 38.156C812.57 39.29 811.634 39.902 810.212 39.902C808.916 39.902 807.764 39.488 806.738 38.606ZM822.244 41V33.008H820.876V38.426C820.588 39.29 819.814 39.92 818.878 39.92C817.672 39.92 817.132 39.146 817.132 38.03V33.008H815.764V38.246C815.764 39.992 816.736 41.162 818.554 41.162C819.58 41.162 820.426 40.622 820.876 39.992V41H822.244ZM825.994 44.06V40.064C826.408 40.64 827.254 41.162 828.244 41.162C830.602 41.162 831.844 39.218 831.844 37.004C831.844 34.79 830.602 32.846 828.244 32.846C827.254 32.846 826.408 33.368 825.994 33.944V33.008H824.644V44.06H825.994ZM825.994 38.624V35.384C826.408 34.556 827.2 34.07 828.046 34.07C829.576 34.07 830.476 35.312 830.476 37.004C830.476 38.696 829.576 39.938 828.046 39.938C827.2 39.938 826.408 39.452 825.994 38.624ZM835.029 44.06V40.064C835.443 40.64 836.289 41.162 837.279 41.162C839.637 41.162 840.879 39.218 840.879 37.004C840.879 34.79 839.637 32.846 837.279 32.846C836.289 32.846 835.443 33.368 835.029 33.944V33.008H833.679V44.06H835.029ZM835.029 38.624V35.384C835.443 34.556 836.235 34.07 837.081 34.07C838.611 34.07 839.511 35.312 839.511 37.004C839.511 38.696 838.611 39.938 837.081 39.938C836.235 39.938 835.443 39.452 835.029 38.624ZM849.517 37.004C849.517 34.556 848.023 32.846 845.845 32.846C843.649 32.846 842.173 34.556 842.173 37.004C842.173 39.452 843.649 41.162 845.845 41.162C848.023 41.162 849.517 39.452 849.517 37.004ZM848.149 37.004C848.149 38.75 847.285 39.974 845.845 39.974C844.405 39.974 843.541 38.75 843.541 37.004C843.541 35.258 844.405 34.034 845.845 34.034C847.285 34.034 848.149 35.258 848.149 37.004ZM855.449 34.358V32.972C855.305 32.9 855.017 32.846 854.675 32.846C853.793 32.846 853.037 33.368 852.695 34.052V33.008H851.345V41H852.695V35.636C852.965 34.7 853.703 34.142 854.549 34.142C854.891 34.142 855.233 34.214 855.449 34.358ZM859.36 41V34.16H861.214V33.008H859.36V30.902H858.01V33.008H856.336V34.16H858.01V41H859.36Z" fill="black"/>
<path d="M886.666 35.474C886.666 38.93 888.898 41.162 891.85 41.162C893.128 41.162 894.1 40.802 894.82 40.208V38.714C893.92 39.524 893.002 39.884 891.868 39.884C889.636 39.884 888.088 38.138 888.088 35.474C888.088 32.81 889.636 31.064 891.868 31.064C893.002 31.064 893.92 31.406 894.82 32.234V30.74C894.1 30.146 893.128 29.786 891.85 29.786C888.898 29.786 886.666 32.018 886.666 35.474ZM903.695 37.004C903.695 34.556 902.201 32.846 900.023 32.846C897.827 32.846 896.351 34.556 896.351 37.004C896.351 39.452 897.827 41.162 900.023 41.162C902.201 41.162 903.695 39.452 903.695 37.004ZM902.327 37.004C902.327 38.75 901.463 39.974 900.023 39.974C898.583 39.974 897.719 38.75 897.719 37.004C897.719 35.258 898.583 34.034 900.023 34.034C901.463 34.034 902.327 35.258 902.327 37.004ZM905.522 33.008V41H906.872V35.582C907.16 34.718 907.97 34.088 908.906 34.088C910.112 34.088 910.67 34.862 910.67 35.978V41H912.038V35.762C912.038 34.016 911.048 32.846 909.23 32.846C908.204 32.846 907.34 33.386 906.872 34.016V33.008H905.522ZM916.561 41V34.16H918.415V33.008H916.561V30.902H915.211V33.008H913.537V34.16H915.211V41H916.561ZM924.33 35.69V36.734C923.988 36.428 923.16 36.086 922.332 36.086C920.622 36.086 919.29 37.094 919.29 38.588C919.29 40.172 920.622 41.144 922.26 41.144C923.196 41.144 924.024 40.73 924.33 40.406V41H925.644V35.582C925.644 33.89 924.528 32.846 922.638 32.846C921.648 32.846 920.694 33.134 920.154 33.512V34.79C920.82 34.358 921.54 34.088 922.422 34.088C923.592 34.088 924.33 34.7 924.33 35.69ZM924.33 38.192V39.02C924.114 39.614 923.322 40.01 922.476 40.01C921.504 40.01 920.568 39.56 920.568 38.588C920.568 37.634 921.504 37.202 922.476 37.202C923.322 37.202 924.114 37.598 924.33 38.192ZM927.376 37.004C927.376 39.56 929.068 41.162 931.228 41.162C932.002 41.162 932.812 40.982 933.37 40.496V39.128C932.794 39.704 932.092 39.956 931.318 39.956C929.896 39.956 928.744 38.84 928.744 37.004C928.744 35.168 929.896 34.052 931.318 34.052C932.092 34.052 932.794 34.304 933.37 34.88V33.512C932.812 33.026 932.002 32.846 931.228 32.846C929.068 32.846 927.376 34.448 927.376 37.004ZM937.514 41V34.16H939.368V33.008H937.514V30.902H936.164V33.008H934.49V34.16H936.164V41H937.514Z" fill="black"/>
</svg>
