<svg width="789" height="246" viewBox="0 0 789 246" fill="none" xmlns="http://www.w3.org/2000/svg">
<path d="M497 109L496.86 181H396" stroke="#7630EA" stroke-width="2" stroke-dasharray="6 6"/>
<path d="M493 111L497.4 106L501.5 111" stroke="#6633BC" stroke-width="2"/>
<path d="M579 54.8621H606M606 54.8621L602.22 59M606 54.8621L602.22 51" stroke="#7630EA" stroke-width="2"/>
<path d="M182 58.8621H209M209 58.8621L205.22 63M209 58.8621L205.22 55" stroke="#7630EA" stroke-width="2"/>
<path d="M306.138 102V129M306.138 129L302 125.22M306.138 129L310 125.22" stroke="#7630EA" stroke-width="2"/>
<g filter="url(#filter0_d_2_9)">
<rect x="614" y="6" width="162.828" height="93.6452" fill="#404B5C"/>
</g>
<rect x="621.644" y="23.2001" width="148.686" height="68.0361" fill="#263040"/>
<g filter="url(#filter1_d_2_9)">
<rect x="226" y="8" width="162.828" height="93.6452" fill="#404B5C"/>
</g>
<rect x="233.644" y="25.2001" width="148.686" height="68.0361" fill="#263040"/>
<g filter="url(#filter2_d_2_9)">
<rect x="413" y="8" width="162.828" height="93.6452" fill="#404B5C"/>
</g>
<rect x="420.645" y="25.2001" width="148.686" height="68.0361" fill="#263040"/>
<g filter="url(#filter3_d_2_9)">
<rect x="12" y="8" width="162.828" height="93.6452" fill="#404B5C"/>
</g>
<rect x="19" y="25" width="148.686" height="68.0361" fill="#263040"/>
<path d="M53.4657 52.9602V64.0122H57.6417C61.1157 64.0122 63.2217 61.8522 63.2217 58.4862C63.2217 55.1202 61.1157 52.9602 57.6417 52.9602H53.4657ZM57.4977 61.5102H56.3097V55.4442H57.4977C59.3337 55.4442 60.3597 56.6142 60.3597 58.4862C60.3597 60.3402 59.3337 61.5102 57.4977 61.5102ZM68.7206 59.1342V59.4222C68.3966 59.1882 67.6406 58.9722 66.9566 58.9722C65.2106 58.9722 63.8426 59.9802 63.8426 61.5462C63.8426 63.2562 65.2106 64.1562 66.8126 64.1562C67.6766 64.1562 68.4506 63.8682 68.7206 63.5982V64.0122H71.4386V59.0082C71.4386 56.8662 70.0706 55.7322 67.6766 55.7322C66.5246 55.7322 65.4446 56.0022 64.7786 56.3622V58.6302C65.4266 58.2522 66.2186 58.0542 66.9926 58.0542C68.1446 58.0542 68.7206 58.5042 68.7206 59.1342ZM68.7206 61.2762V61.7442C68.5406 62.0682 68.0906 62.2842 67.5866 62.2842C67.0286 62.2842 66.4706 62.0502 66.4706 61.4922C66.4706 60.9522 67.0286 60.7182 67.5866 60.7182C68.0906 60.7182 68.5406 60.9342 68.7206 61.2762ZM72.5998 61.0422V63.4182C73.3558 63.9222 74.5438 64.1922 75.6778 64.1922C77.6758 64.1922 79.1698 63.3462 79.1698 61.6182C79.1698 60.2502 78.4678 59.5302 76.7038 59.0622L75.9658 58.8462C75.5698 58.7382 75.3358 58.6302 75.3358 58.3242C75.3358 58.0002 75.6598 57.8382 76.1458 57.8382C77.0638 57.8382 77.9278 58.2162 78.7018 58.7742V56.4522C77.9098 55.9662 77.0278 55.7322 75.8758 55.7322C73.9678 55.7322 72.5638 56.6862 72.5638 58.3782C72.5638 59.8362 73.5178 60.5382 75.0118 60.8622L75.6418 61.0242C76.1278 61.1322 76.3798 61.2582 76.3798 61.5822C76.3798 61.9422 76.0198 62.0682 75.4618 62.0682C74.6338 62.0682 73.3738 61.6722 72.5998 61.0422ZM80.2882 52.3122V64.0122H83.1142V59.1162C83.2582 58.5582 83.7262 58.2342 84.2842 58.2342C85.0042 58.2342 85.3462 58.7202 85.3462 59.3862V64.0122H88.1542V58.7022C88.1542 56.9022 87.0922 55.7322 85.2922 55.7322C84.3562 55.7322 83.5642 56.1102 83.1142 56.6142V52.3122H80.2882ZM92.4482 64.0122V63.3642C92.8262 63.7962 93.6182 64.1922 94.4462 64.1922C96.7862 64.1922 98.0642 62.3022 98.0642 59.9622C98.0642 57.6222 96.7862 55.7322 94.4462 55.7322C93.6182 55.7322 92.8262 56.1282 92.4482 56.5602V52.3122H89.6222V64.0122H92.4482ZM92.4482 61.0242V58.8822C92.6642 58.4502 93.1502 58.1262 93.6902 58.1262C94.6622 58.1262 95.2382 58.9182 95.2382 59.9622C95.2382 61.0062 94.6622 61.7802 93.6902 61.7802C93.1322 61.7802 92.6642 61.4742 92.4482 61.0242ZM107.103 59.9622C107.103 57.4602 105.429 55.7322 102.963 55.7322C100.515 55.7322 98.823 57.4602 98.823 59.9622C98.823 62.4642 100.515 64.1922 102.963 64.1922C105.429 64.1922 107.103 62.4642 107.103 59.9622ZM104.331 59.9622C104.331 61.0782 103.845 61.8522 102.963 61.8522C102.099 61.8522 101.613 61.0782 101.613 59.9622C101.613 58.8462 102.099 58.0542 102.963 58.0542C103.845 58.0542 104.331 58.8462 104.331 59.9622ZM112.666 59.1342V59.4222C112.342 59.1882 111.586 58.9722 110.902 58.9722C109.156 58.9722 107.788 59.9802 107.788 61.5462C107.788 63.2562 109.156 64.1562 110.758 64.1562C111.622 64.1562 112.396 63.8682 112.666 63.5982V64.0122H115.384V59.0082C115.384 56.8662 114.016 55.7322 111.622 55.7322C110.47 55.7322 109.39 56.0022 108.724 56.3622V58.6302C109.372 58.2522 110.164 58.0542 110.938 58.0542C112.09 58.0542 112.666 58.5042 112.666 59.1342ZM112.666 61.2762V61.7442C112.486 62.0682 112.036 62.2842 111.532 62.2842C110.974 62.2842 110.416 62.0502 110.416 61.4922C110.416 60.9522 110.974 60.7182 111.532 60.7182C112.036 60.7182 112.486 60.9342 112.666 61.2762ZM122.269 58.5942V55.8762C122.143 55.8042 121.855 55.7322 121.495 55.7322C120.685 55.7322 120.055 56.0922 119.659 56.6322V55.9122H116.833V64.0122H119.659V59.2602C119.803 58.6842 120.325 58.3422 121.099 58.3422C121.549 58.3422 121.927 58.4142 122.269 58.5942ZM128.486 63.3642V64.0122H131.312V52.3122H128.486V56.5602C128.108 56.1282 127.316 55.7322 126.488 55.7322C124.148 55.7322 122.87 57.6222 122.87 59.9622C122.87 62.3022 124.148 64.1922 126.488 64.1922C127.316 64.1922 128.108 63.7962 128.486 63.3642ZM128.486 58.8822V61.0242C128.27 61.4742 127.802 61.7802 127.244 61.7802C126.272 61.7802 125.696 61.0062 125.696 59.9622C125.696 58.9182 126.272 58.1262 127.244 58.1262C127.784 58.1262 128.27 58.4502 128.486 58.8822Z" fill="white"/>
<path d="M667.972 58.8283V61.4923C668.782 61.9783 670.114 62.3923 671.59 62.3923C674.074 62.3923 676.108 61.3303 676.108 58.9363C676.108 57.2443 675.19 56.1823 673.174 55.5523L671.5 55.0483C670.924 54.8683 670.582 54.6703 670.582 54.1663C670.582 53.6083 671.212 53.3743 672.04 53.3743C673.3 53.3743 674.398 53.7883 675.388 54.4723V51.8083C674.47 51.3043 673.408 50.9803 671.914 50.9803C669.592 50.9803 667.738 52.1863 667.738 54.3823C667.738 56.2183 668.764 57.1363 670.618 57.6763L672.292 58.1623C672.886 58.3783 673.228 58.5583 673.228 59.0983C673.228 59.7823 672.436 59.9803 671.518 59.9803C670.276 59.9803 668.926 59.4763 667.972 58.8283ZM679.667 58.8103H684.653V57.9823C684.653 55.5703 683.375 53.9323 680.855 53.9323C678.623 53.9323 676.931 55.6783 676.931 58.2163C676.931 60.8263 678.695 62.3923 681.287 62.3923C682.457 62.3923 683.447 62.1403 684.077 61.6723V59.5303C683.267 60.0163 682.601 60.1783 681.737 60.1783C680.693 60.1783 679.901 59.7823 679.667 58.8103ZM680.963 56.0743C681.647 56.0743 682.061 56.5423 682.133 57.2263H679.703C679.901 56.4883 680.351 56.0743 680.963 56.0743ZM685.421 58.1623C685.421 60.7723 687.221 62.3923 689.651 62.3923C690.479 62.3923 691.253 62.2303 691.829 61.8163V59.4403C691.307 59.8183 690.749 60.0163 690.083 60.0163C689.039 60.0163 688.211 59.3863 688.211 58.1623C688.211 56.9383 689.039 56.3083 690.083 56.3083C690.749 56.3083 691.307 56.5063 691.829 56.8843V54.5083C691.253 54.0943 690.479 53.9323 689.651 53.9323C687.221 53.9323 685.421 55.5523 685.421 58.1623ZM700.854 62.2123V54.1123H698.028V59.0263C697.884 59.5843 697.398 59.9263 696.876 59.9263C696.156 59.9263 695.832 59.4403 695.832 58.7563V54.1123H693.024V59.4223C693.024 61.2223 694.086 62.3923 695.868 62.3923C696.786 62.3923 697.596 62.0143 698.028 61.5103V62.2123H700.854ZM707.795 56.7943V54.0763C707.669 54.0043 707.381 53.9323 707.021 53.9323C706.211 53.9323 705.581 54.2923 705.185 54.8323V54.1123H702.359V62.2123H705.185V57.4603C705.329 56.8843 705.851 56.5423 706.625 56.5423C707.075 56.5423 707.453 56.6143 707.795 56.7943ZM711.957 51.9163C711.957 50.9803 711.219 50.3863 710.355 50.3863C709.491 50.3863 708.753 50.9803 708.753 51.9163C708.753 52.8343 709.491 53.4283 710.355 53.4283C711.219 53.4283 711.957 52.8343 711.957 51.9163ZM711.759 62.2123V54.1123H708.933V62.2123H711.759ZM717.037 62.2123V56.3083H718.621V54.1123H717.037V51.8803H714.229V54.1123H712.825V56.3083H714.229V62.2123H717.037ZM720.862 65.0743H723.652L727.828 54.1123H725.02L723.508 58.7203L721.96 54.1123H719.026L722.05 62.0143L720.862 65.0743Z" fill="white"/>
<path d="M282.108 53.1603H279.156L274.944 64.2123H277.806L278.58 62.0703H282.594L283.386 64.2123H286.32L282.108 53.1603ZM279.462 59.6943L280.596 56.5803L281.73 59.6943H279.462ZM286.445 60.1623C286.445 62.7723 288.245 64.3923 290.675 64.3923C291.503 64.3923 292.277 64.2303 292.853 63.8163V61.4403C292.331 61.8183 291.773 62.0163 291.107 62.0163C290.063 62.0163 289.235 61.3863 289.235 60.1623C289.235 58.9383 290.063 58.3083 291.107 58.3083C291.773 58.3083 292.331 58.5063 292.853 58.8843V56.5083C292.277 56.0943 291.503 55.9323 290.675 55.9323C288.245 55.9323 286.445 57.5523 286.445 60.1623ZM293.652 60.1623C293.652 62.7723 295.452 64.3923 297.882 64.3923C298.71 64.3923 299.484 64.2303 300.06 63.8163V61.4403C299.538 61.8183 298.98 62.0163 298.314 62.0163C297.27 62.0163 296.442 61.3863 296.442 60.1623C296.442 58.9383 297.27 58.3083 298.314 58.3083C298.98 58.3083 299.538 58.5063 300.06 58.8843V56.5083C299.484 56.0943 298.71 55.9323 297.882 55.9323C295.452 55.9323 293.652 57.5523 293.652 60.1623ZM309.139 60.1623C309.139 57.6603 307.465 55.9323 304.999 55.9323C302.551 55.9323 300.859 57.6603 300.859 60.1623C300.859 62.6643 302.551 64.3923 304.999 64.3923C307.465 64.3923 309.139 62.6643 309.139 60.1623ZM306.367 60.1623C306.367 61.2783 305.881 62.0523 304.999 62.0523C304.135 62.0523 303.649 61.2783 303.649 60.1623C303.649 59.0463 304.135 58.2543 304.999 58.2543C305.881 58.2543 306.367 59.0463 306.367 60.1623ZM318.032 64.2123V56.1123H315.206V61.0263C315.062 61.5843 314.576 61.9263 314.054 61.9263C313.334 61.9263 313.01 61.4403 313.01 60.7563V56.1123H310.202V61.4223C310.202 63.2223 311.264 64.3923 313.046 64.3923C313.964 64.3923 314.774 64.0143 315.206 63.5103V64.2123H318.032ZM319.537 56.1123V64.2123H322.363V59.3163C322.507 58.7583 322.975 58.4343 323.533 58.4343C324.253 58.4343 324.595 58.9203 324.595 59.5863V64.2123H327.403V58.9023C327.403 57.1023 326.341 55.9323 324.541 55.9323C323.605 55.9323 322.813 56.3103 322.363 56.8143V56.1123H319.537ZM332.615 64.2123V58.3083H334.199V56.1123H332.615V53.8803H329.807V56.1123H328.403V58.3083H329.807V64.2123H332.615ZM334.911 61.2423V63.6183C335.667 64.1223 336.855 64.3923 337.989 64.3923C339.987 64.3923 341.481 63.5463 341.481 61.8183C341.481 60.4503 340.779 59.7303 339.015 59.2623L338.277 59.0463C337.881 58.9383 337.647 58.8303 337.647 58.5243C337.647 58.2003 337.971 58.0383 338.457 58.0383C339.375 58.0383 340.239 58.4163 341.013 58.9743V56.6523C340.221 56.1663 339.339 55.9323 338.187 55.9323C336.279 55.9323 334.875 56.8863 334.875 58.5783C334.875 60.0363 335.829 60.7383 337.323 61.0623L337.953 61.2243C338.439 61.3323 338.691 61.4583 338.691 61.7823C338.691 62.1423 338.331 62.2683 337.773 62.2683C336.945 62.2683 335.685 61.8723 334.911 61.2423Z" fill="white"/>
<path d="M470.446 60.8283V63.4923C471.256 63.9783 472.588 64.3923 474.064 64.3923C476.548 64.3923 478.582 63.3303 478.582 60.9363C478.582 59.2443 477.664 58.1823 475.648 57.5523L473.974 57.0483C473.398 56.8683 473.056 56.6703 473.056 56.1663C473.056 55.6083 473.686 55.3743 474.514 55.3743C475.774 55.3743 476.872 55.7883 477.862 56.4723V53.8083C476.944 53.3043 475.882 52.9803 474.388 52.9803C472.066 52.9803 470.212 54.1863 470.212 56.3823C470.212 58.2183 471.238 59.1363 473.092 59.6763L474.766 60.1623C475.36 60.3783 475.702 60.5583 475.702 61.0983C475.702 61.7823 474.91 61.9803 473.992 61.9803C472.75 61.9803 471.4 61.4763 470.446 60.8283ZM482.141 60.8103H487.127V59.9823C487.127 57.5703 485.849 55.9323 483.329 55.9323C481.097 55.9323 479.405 57.6783 479.405 60.2163C479.405 62.8263 481.169 64.3923 483.761 64.3923C484.931 64.3923 485.921 64.1403 486.551 63.6723V61.5303C485.741 62.0163 485.075 62.1783 484.211 62.1783C483.167 62.1783 482.375 61.7823 482.141 60.8103ZM483.437 58.0743C484.121 58.0743 484.535 58.5423 484.607 59.2263H482.177C482.375 58.4883 482.825 58.0743 483.437 58.0743ZM492.703 59.3343V59.6223C492.379 59.3883 491.623 59.1723 490.939 59.1723C489.193 59.1723 487.825 60.1803 487.825 61.7463C487.825 63.4563 489.193 64.3563 490.795 64.3563C491.659 64.3563 492.433 64.0683 492.703 63.7983V64.2123H495.421V59.2083C495.421 57.0663 494.053 55.9323 491.659 55.9323C490.507 55.9323 489.427 56.2023 488.761 56.5623V58.8303C489.409 58.4523 490.201 58.2543 490.975 58.2543C492.127 58.2543 492.703 58.7043 492.703 59.3343ZM492.703 61.4763V61.9443C492.523 62.2683 492.073 62.4843 491.569 62.4843C491.011 62.4843 490.453 62.2503 490.453 61.6923C490.453 61.1523 491.011 60.9183 491.569 60.9183C492.073 60.9183 492.523 61.1343 492.703 61.4763ZM502.306 58.7943V56.0763C502.18 56.0043 501.892 55.9323 501.532 55.9323C500.722 55.9323 500.092 56.2923 499.696 56.8323V56.1123H496.87V64.2123H499.696V59.4603C499.84 58.8843 500.362 58.5423 501.136 58.5423C501.586 58.5423 501.964 58.6143 502.306 58.7943ZM502.907 60.1623C502.907 62.7723 504.707 64.3923 507.137 64.3923C507.965 64.3923 508.739 64.2303 509.315 63.8163V61.4403C508.793 61.8183 508.235 62.0163 507.569 62.0163C506.525 62.0163 505.697 61.3863 505.697 60.1623C505.697 58.9383 506.525 58.3083 507.569 58.3083C508.235 58.3083 508.793 58.5063 509.315 58.8843V56.5083C508.739 56.0943 507.965 55.9323 507.137 55.9323C504.707 55.9323 502.907 57.5523 502.907 60.1623ZM510.546 52.5123V64.2123H513.372V59.3163C513.516 58.7583 513.984 58.4343 514.542 58.4343C515.262 58.4343 515.604 58.9203 515.604 59.5863V64.2123H518.412V58.9023C518.412 57.1023 517.35 55.9323 515.55 55.9323C514.614 55.9323 513.822 56.3103 513.372 56.8143V52.5123H510.546Z" fill="white"/>
<g filter="url(#filter4_d_2_9)">
<rect x="226" y="134" width="162.828" height="93.6452" fill="#404B5C"/>
</g>
<rect x="233.644" y="151.2" width="148.686" height="68.0361" fill="#263040"/>
<path d="M285.46 169.948H282.508L278.296 181H281.158L281.932 178.858H285.946L286.738 181H289.672L285.46 169.948ZM282.814 176.482L283.948 173.368L285.082 176.482H282.814ZM289.797 176.95C289.797 179.56 291.597 181.18 294.027 181.18C294.855 181.18 295.629 181.018 296.205 180.604V178.228C295.683 178.606 295.125 178.804 294.459 178.804C293.415 178.804 292.587 178.174 292.587 176.95C292.587 175.726 293.415 175.096 294.459 175.096C295.125 175.096 295.683 175.294 296.205 175.672V173.296C295.629 172.882 294.855 172.72 294.027 172.72C291.597 172.72 289.797 174.34 289.797 176.95ZM297.004 176.95C297.004 179.56 298.804 181.18 301.234 181.18C302.062 181.18 302.836 181.018 303.412 180.604V178.228C302.89 178.606 302.332 178.804 301.666 178.804C300.622 178.804 299.794 178.174 299.794 176.95C299.794 175.726 300.622 175.096 301.666 175.096C302.332 175.096 302.89 175.294 303.412 175.672V173.296C302.836 172.882 302.062 172.72 301.234 172.72C298.804 172.72 297.004 174.34 297.004 176.95ZM312.491 176.95C312.491 174.448 310.817 172.72 308.351 172.72C305.903 172.72 304.211 174.448 304.211 176.95C304.211 179.452 305.903 181.18 308.351 181.18C310.817 181.18 312.491 179.452 312.491 176.95ZM309.719 176.95C309.719 178.066 309.233 178.84 308.351 178.84C307.487 178.84 307.001 178.066 307.001 176.95C307.001 175.834 307.487 175.042 308.351 175.042C309.233 175.042 309.719 175.834 309.719 176.95ZM321.384 181V172.9H318.558V177.814C318.414 178.372 317.928 178.714 317.406 178.714C316.686 178.714 316.362 178.228 316.362 177.544V172.9H313.554V178.21C313.554 180.01 314.616 181.18 316.398 181.18C317.316 181.18 318.126 180.802 318.558 180.298V181H321.384ZM322.889 172.9V181H325.715V176.104C325.859 175.546 326.327 175.222 326.885 175.222C327.605 175.222 327.947 175.708 327.947 176.374V181H330.755V175.69C330.755 173.89 329.693 172.72 327.893 172.72C326.957 172.72 326.165 173.098 325.715 173.602V172.9H322.889ZM335.967 181V175.096H337.551V172.9H335.967V170.668H333.159V172.9H331.755V175.096H333.159V181H335.967ZM283.691 193.948V205H287.867C291.341 205 293.447 202.84 293.447 199.474C293.447 196.108 291.341 193.948 287.867 193.948H283.691ZM287.723 202.498H286.535V196.432H287.723C289.559 196.432 290.585 197.602 290.585 199.474C290.585 201.328 289.559 202.498 287.723 202.498ZM296.927 201.598H301.913V200.77C301.913 198.358 300.635 196.72 298.115 196.72C295.883 196.72 294.191 198.466 294.191 201.004C294.191 203.614 295.955 205.18 298.547 205.18C299.717 205.18 300.707 204.928 301.337 204.46V202.318C300.527 202.804 299.861 202.966 298.997 202.966C297.953 202.966 297.161 202.57 296.927 201.598ZM298.223 198.862C298.907 198.862 299.321 199.33 299.393 200.014H296.963C297.161 199.276 297.611 198.862 298.223 198.862ZM306.752 205V199.096H308.336V196.9H306.752V194.668H303.944V196.9H302.54V199.096H303.944V205H306.752ZM313.606 200.122V200.41C313.282 200.176 312.526 199.96 311.842 199.96C310.096 199.96 308.728 200.968 308.728 202.534C308.728 204.244 310.096 205.144 311.698 205.144C312.562 205.144 313.336 204.856 313.606 204.586V205H316.324V199.996C316.324 197.854 314.956 196.72 312.562 196.72C311.41 196.72 310.33 196.99 309.664 197.35V199.618C310.312 199.24 311.104 199.042 311.878 199.042C313.03 199.042 313.606 199.492 313.606 200.122ZM313.606 202.264V202.732C313.426 203.056 312.976 203.272 312.472 203.272C311.914 203.272 311.356 203.038 311.356 202.48C311.356 201.94 311.914 201.706 312.472 201.706C312.976 201.706 313.426 201.922 313.606 202.264ZM320.798 194.704C320.798 193.768 320.06 193.174 319.196 193.174C318.332 193.174 317.594 193.768 317.594 194.704C317.594 195.622 318.332 196.216 319.196 196.216C320.06 196.216 320.798 195.622 320.798 194.704ZM320.6 205V196.9H317.774V205H320.6ZM324.959 205V193.3H322.133V205H324.959ZM326.204 202.03V204.406C326.96 204.91 328.148 205.18 329.282 205.18C331.28 205.18 332.774 204.334 332.774 202.606C332.774 201.238 332.072 200.518 330.308 200.05L329.57 199.834C329.174 199.726 328.94 199.618 328.94 199.312C328.94 198.988 329.264 198.826 329.75 198.826C330.668 198.826 331.532 199.204 332.306 199.762V197.44C331.514 196.954 330.632 196.72 329.48 196.72C327.572 196.72 326.168 197.674 326.168 199.366C326.168 200.824 327.122 201.526 328.616 201.85L329.246 202.012C329.732 202.12 329.984 202.246 329.984 202.57C329.984 202.93 329.624 203.056 329.066 203.056C328.238 203.056 326.978 202.66 326.204 202.03Z" fill="white"/>
<defs>
<filter id="filter0_d_2_9" x="602" y="0" width="186.828" height="117.645" filterUnits="userSpaceOnUse" color-interpolation-filters="sRGB">
<feFlood flood-opacity="0" result="BackgroundImageFix"/>
<feColorMatrix in="SourceAlpha" type="matrix" values="0 0 0 0 0 0 0 0 0 0 0 0 0 0 0 0 0 0 127 0" result="hardAlpha"/>
<feOffset dy="6"/>
<feGaussianBlur stdDeviation="6"/>
<feColorMatrix type="matrix" values="0 0 0 0 0 0 0 0 0 0 0 0 0 0 0 0 0 0 0.12 0"/>
<feBlend mode="normal" in2="BackgroundImageFix" result="effect1_dropShadow_2_9"/>
<feBlend mode="normal" in="SourceGraphic" in2="effect1_dropShadow_2_9" result="shape"/>
</filter>
<filter id="filter1_d_2_9" x="214" y="2" width="186.828" height="117.645" filterUnits="userSpaceOnUse" color-interpolation-filters="sRGB">
<feFlood flood-opacity="0" result="BackgroundImageFix"/>
<feColorMatrix in="SourceAlpha" type="matrix" values="0 0 0 0 0 0 0 0 0 0 0 0 0 0 0 0 0 0 127 0" result="hardAlpha"/>
<feOffset dy="6"/>
<feGaussianBlur stdDeviation="6"/>
<feColorMatrix type="matrix" values="0 0 0 0 0 0 0 0 0 0 0 0 0 0 0 0 0 0 0.12 0"/>
<feBlend mode="normal" in2="BackgroundImageFix" result="effect1_dropShadow_2_9"/>
<feBlend mode="normal" in="SourceGraphic" in2="effect1_dropShadow_2_9" result="shape"/>
</filter>
<filter id="filter2_d_2_9" x="401" y="2" width="186.828" height="117.645" filterUnits="userSpaceOnUse" color-interpolation-filters="sRGB">
<feFlood flood-opacity="0" result="BackgroundImageFix"/>
<feColorMatrix in="SourceAlpha" type="matrix" values="0 0 0 0 0 0 0 0 0 0 0 0 0 0 0 0 0 0 127 0" result="hardAlpha"/>
<feOffset dy="6"/>
<feGaussianBlur stdDeviation="6"/>
<feColorMatrix type="matrix" values="0 0 0 0 0 0 0 0 0 0 0 0 0 0 0 0 0 0 0.12 0"/>
<feBlend mode="normal" in2="BackgroundImageFix" result="effect1_dropShadow_2_9"/>
<feBlend mode="normal" in="SourceGraphic" in2="effect1_dropShadow_2_9" result="shape"/>
</filter>
<filter id="filter3_d_2_9" x="0" y="2" width="186.828" height="117.645" filterUnits="userSpaceOnUse" color-interpolation-filters="sRGB">
<feFlood flood-opacity="0" result="BackgroundImageFix"/>
<feColorMatrix in="SourceAlpha" type="matrix" values="0 0 0 0 0 0 0 0 0 0 0 0 0 0 0 0 0 0 127 0" result="hardAlpha"/>
<feOffset dy="6"/>
<feGaussianBlur stdDeviation="6"/>
<feColorMatrix type="matrix" values="0 0 0 0 0 0 0 0 0 0 0 0 0 0 0 0 0 0 0.12 0"/>
<feBlend mode="normal" in2="BackgroundImageFix" result="effect1_dropShadow_2_9"/>
<feBlend mode="normal" in="SourceGraphic" in2="effect1_dropShadow_2_9" result="shape"/>
</filter>
<filter id="filter4_d_2_9" x="214" y="128" width="186.828" height="117.645" filterUnits="userSpaceOnUse" color-interpolation-filters="sRGB">
<feFlood flood-opacity="0" result="BackgroundImageFix"/>
<feColorMatrix in="SourceAlpha" type="matrix" values="0 0 0 0 0 0 0 0 0 0 0 0 0 0 0 0 0 0 127 0" result="hardAlpha"/>
<feOffset dy="6"/>
<feGaussianBlur stdDeviation="6"/>
<feColorMatrix type="matrix" values="0 0 0 0 0 0 0 0 0 0 0 0 0 0 0 0 0 0 0.12 0"/>
<feBlend mode="normal" in2="BackgroundImageFix" result="effect1_dropShadow_2_9"/>
<feBlend mode="normal" in="SourceGraphic" in2="effect1_dropShadow_2_9" result="shape"/>
</filter>
</defs>
</svg>
