<svg width="336" height="193" viewBox="0 0 336 193" fill="none" xmlns="http://www.w3.org/2000/svg">
<mask id="mask0_147_430" style="mask-type:luminance" maskUnits="userSpaceOnUse" x="2" y="1" width="331" height="192">
<path d="M333 1H2V193H333V1Z" fill="white"/>
</mask>
<g mask="url(#mask0_147_430)">
<path d="M311.896 16.2256H20.1042C18.3898 16.2256 17 17.8487 17 19.8508V114.107C17 116.109 18.3898 117.732 20.1042 117.732H311.896C313.61 117.732 315 116.109 315 114.107V19.8508C315 17.8487 313.61 16.2256 311.896 16.2256Z" fill="#D4D8DB"/>
<path d="M135.976 63H68.003C65.8267 63 64.0625 64.7909 64.0625 67V242C64.0625 244.209 65.8267 246 68.003 246H135.976C138.152 246 139.917 244.209 139.917 242V67C139.917 64.7909 138.152 63 135.976 63Z" fill="#0070F8"/>
<path d="M232.518 27.999H161.589C159.413 27.999 157.649 29.7899 157.649 31.999V214.999C157.649 217.208 159.413 218.999 161.589 218.999H232.518C234.694 218.999 236.458 217.208 236.458 214.999V31.999C236.458 29.7899 234.694 27.999 232.518 27.999Z" fill="#00A4B3"/>
<path d="M281.774 85H112.333C110.157 85 108.393 86.7909 108.393 89V158C108.393 160.209 110.157 162 112.333 162H281.774C283.95 162 285.714 160.209 285.714 158V89C285.714 86.7909 283.95 85 281.774 85Z" fill="#068667"/>
<path d="M98.5417 31H41.4048C39.2285 31 37.4643 32.7909 37.4643 35V91C37.4643 93.2091 39.2285 95 41.4048 95H98.5417C100.718 95 102.482 93.2091 102.482 91V35C102.482 32.7909 100.718 31 98.5417 31Z" fill="#7764FC"/>
</g>
</svg>
