<svg width="336" height="192" viewBox="0 0 336 192" fill="none" xmlns="http://www.w3.org/2000/svg">
<path d="M54.2114 60.1102C54.2114 56.8456 56.8578 54.1992 60.1221 54.1992H274.878C278.143 54.1992 280.789 56.8456 280.789 60.1102V131.041C280.789 134.306 278.143 136.952 274.878 136.952H60.1221C56.8578 136.952 54.2114 134.306 54.2114 131.041V60.1102Z" fill="white"/>
<path fill-rule="evenodd" clip-rule="evenodd" d="M96.5 81.792C104.347 81.792 110.708 88.1533 110.708 96.0003C110.708 103.847 104.347 110.209 96.5 110.209C88.6529 110.209 82.2917 103.847 82.2917 96.0003C82.2917 88.1533 88.6529 81.792 96.5 81.792Z" fill="#068667"/>
<path d="M100.572 90.1487C100.95 89.5441 101.747 89.3608 102.351 89.7388C102.956 90.117 103.139 90.9138 102.761 91.5186L96.3031 101.852C96.0945 102.185 95.7454 102.405 95.3545 102.45C94.9634 102.494 94.5733 102.359 94.295 102.08L90.42 98.2052C89.9156 97.7008 89.9156 96.8832 90.42 96.3787C90.9244 95.8743 91.742 95.8743 92.2465 96.3787L94.9723 99.1046L100.572 90.1487Z" fill="white"/>
<rect x="115" y="94" width="30" height="4" rx="2" fill="#B1B9BE"/>
<path d="M148 96C148 87.1634 155.163 80 164 80C172.837 80 180 87.1634 180 96C180 104.837 172.837 112 164 112C155.163 112 148 104.837 148 96Z" fill="#068667"/>
<path d="M178.667 95.9997C178.667 104.1 172.1 110.666 164 110.666C155.9 110.666 149.333 104.1 149.333 95.9997C149.333 87.8995 155.9 81.333 164 81.333C172.1 81.333 178.667 87.8995 178.667 95.9997Z" fill="#068667"/>
<path d="M172 96C172 100.418 168.418 104 164 104C159.582 104 156 100.418 156 96C156 91.5817 159.582 88 164 88C168.418 88 172 91.5817 172 96Z" fill="white"/>
<rect x="183" y="94" width="30" height="4" rx="2" fill="#B1B9BE"/>
<path fill-rule="evenodd" clip-rule="evenodd" d="M231.5 81.792C239.347 81.792 245.708 88.1533 245.708 96.0003C245.708 103.847 239.347 110.209 231.5 110.209C223.653 110.209 217.292 103.847 217.292 96.0003C217.292 88.1533 223.653 81.792 231.5 81.792ZM231.5 84.3753C225.08 84.3753 219.875 89.58 219.875 96.0003C219.875 102.421 225.08 107.625 231.5 107.625C237.92 107.625 243.125 102.421 243.125 96.0003C243.125 89.58 237.92 84.3753 231.5 84.3753Z" fill="#606A70"/>
</svg>
