<svg width="336" height="192" viewBox="0 0 336 192" fill="none" xmlns="http://www.w3.org/2000/svg">
<path fill-rule="evenodd" clip-rule="evenodd" d="M169.127 63.0598C187.316 63.3941 201.958 78.2312 201.958 96.5003C201.958 114.769 187.316 129.607 169.127 129.941C168.921 129.951 168.712 129.959 168.5 129.959C168.287 129.959 168.077 129.951 167.87 129.941C149.682 129.605 135.042 114.768 135.042 96.5003C135.042 78.2322 149.682 63.3956 167.87 63.0598C168.077 63.0492 168.287 63.042 168.5 63.042C168.712 63.042 168.921 63.0493 169.127 63.0598ZM160.539 111.709C160.895 113.634 161.336 115.39 161.87 116.942C163.639 122.087 165.946 123.875 168.5 123.875C171.054 123.875 173.361 122.087 175.13 116.942C175.663 115.39 176.105 113.634 176.46 111.709H160.539ZM145.738 111.709C148.544 115.9 152.477 119.267 157.102 121.389C156.738 120.59 156.41 119.762 156.119 118.918C155.374 116.75 154.801 114.322 154.37 111.709H145.738ZM182.63 111.709C182.199 114.322 181.626 116.75 180.88 118.918C180.59 119.762 180.259 120.589 179.894 121.389C184.521 119.267 188.456 115.9 191.262 111.709H182.63ZM183.364 87.3753C183.602 90.3071 183.708 93.376 183.708 96.5003C183.708 99.6247 183.602 102.694 183.364 105.625H192.833C193.324 105.625 193.786 105.745 194.197 105.952C195.281 103.006 195.875 99.8227 195.875 96.5003C195.875 93.3002 195.322 90.2299 194.312 87.3753H183.364ZM142.687 87.3753C141.678 90.2299 141.125 93.3002 141.125 96.5003C141.125 99.7004 141.678 102.771 142.687 105.625H153.636C153.398 102.694 153.292 99.6247 153.292 96.5003C153.292 93.376 153.398 90.3071 153.636 87.3753H142.687ZM159.743 87.3753C159.495 90.218 159.375 93.2832 159.375 96.5003C159.375 99.7175 159.495 102.783 159.743 105.625H177.257C177.504 102.783 177.625 99.7175 177.625 96.5003C177.625 93.2832 177.504 90.218 177.257 87.3753H159.743ZM157.102 71.6086C152.476 73.7302 148.544 77.1007 145.738 81.292H154.37C154.801 78.6791 155.374 76.251 156.119 74.0829C156.41 73.2377 156.738 72.4088 157.102 71.6086ZM168.5 69.1253C165.946 69.1253 163.639 70.9135 161.87 76.0582C161.336 77.6106 160.895 79.367 160.539 81.292H176.46C176.105 79.367 175.663 77.6106 175.13 76.0582C173.361 70.9135 171.054 69.1253 168.5 69.1253ZM179.894 71.6086C180.259 72.4091 180.59 73.2373 180.88 74.0829C181.626 76.251 182.199 78.6791 182.63 81.292H191.262C188.455 77.0999 184.521 73.7302 179.894 71.6086Z" fill="#E6E8E9"/>
</svg>
