<svg width="336" height="192" viewBox="0 0 336 192" fill="none" xmlns="http://www.w3.org/2000/svg">
<path d="M200 48H136C133.791 48 132 49.7909 132 52V140C132 142.209 133.791 144 136 144H200C202.209 144 204 142.209 204 140V52C204 49.7909 202.209 48 200 48Z" fill="#22252E"/>
<g filter="url(#filter0_d_11_254)">
<path d="M104 48H40C37.7909 48 36 49.7909 36 52V140C36 142.209 37.7909 144 40 144H104C106.209 144 108 142.209 108 140V52C108 49.7909 106.209 48 104 48Z" fill="#292D3A"/>
</g>
<path d="M296 48H232C229.791 48 228 49.7909 228 52V140C228 142.209 229.791 144 232 144H296C298.209 144 300 142.209 300 140V52C300 49.7909 298.209 48 296 48Z" fill="#22252E"/>
<defs>
<filter id="filter0_d_11_254" x="24" y="42" width="96" height="120" filterUnits="userSpaceOnUse" color-interpolation-filters="sRGB">
<feFlood flood-opacity="0" result="BackgroundImageFix"/>
<feColorMatrix in="SourceAlpha" type="matrix" values="0 0 0 0 0 0 0 0 0 0 0 0 0 0 0 0 0 0 127 0" result="hardAlpha"/>
<feOffset dy="6"/>
<feGaussianBlur stdDeviation="6"/>
<feColorMatrix type="matrix" values="0 0 0 0 0 0 0 0 0 0 0 0 0 0 0 0 0 0 0.36 0"/>
<feBlend mode="normal" in2="BackgroundImageFix" result="effect1_dropShadow_11_254"/>
<feBlend mode="normal" in="SourceGraphic" in2="effect1_dropShadow_11_254" result="shape"/>
</filter>
</defs>
</svg>
