<svg width="336" height="192" viewBox="0 0 336 192" fill="none" xmlns="http://www.w3.org/2000/svg">
<path d="M131.5 71.5752C131.5 64.9478 136.873 59.5752 143.5 59.5752H191.5C198.127 59.5752 203.5 64.9478 203.5 71.5752V119.575C203.5 126.203 198.127 131.575 191.5 131.575H143.5C136.873 131.575 131.5 126.203 131.5 119.575V71.5752Z" fill="black" fill-opacity="0.04"/>
<path fill-rule="evenodd" clip-rule="evenodd" d="M173.869 86.4082C175.414 86.4082 176.667 87.661 176.667 89.2061C176.667 89.9478 176.372 90.659 175.847 91.1836L170.917 96.1136C170.448 96.5824 170.186 97.2183 170.186 97.8812V102.056C170.186 103.539 168.983 104.742 167.5 104.742C166.017 104.742 164.814 103.539 164.814 102.056V97.8812C164.814 97.2183 164.552 96.5824 164.083 96.1136L159.153 91.1836C158.628 90.659 158.333 89.9478 158.333 89.2061C158.333 87.661 159.586 86.4082 161.131 86.4082H173.869ZM161.131 88.0749C160.507 88.0749 160 88.5815 160 89.2061C160 89.5058 160.119 89.7932 160.331 90.0052L165.261 94.9352C166.043 95.7165 166.481 96.7763 166.481 97.8812V102.056C166.481 102.619 166.937 103.075 167.5 103.075C168.063 103.075 168.519 102.619 168.519 102.056V97.8812C168.519 96.7763 168.957 95.7165 169.739 94.9352L174.669 90.0052L174.744 89.9222C174.908 89.7211 175 89.4684 175 89.2061C175 88.5815 174.493 88.0749 173.869 88.0749H161.131Z" fill="#3E4550"/>
<path d="M189 57C189 50.3726 194.373 45 201 45C207.627 45 213 50.3726 213 57C213 63.6274 207.627 69 201 69C194.373 69 189 63.6274 189 57Z" fill="#292D3A"/>
<path d="M197.906 61V60.76L201.314 57.172C202.094 56.344 202.55 55.564 202.55 54.688C202.55 53.728 201.986 53.152 201.014 53.152C200.018 53.152 199.37 53.716 199.202 55.06H198.23C198.362 53.38 199.382 52.312 201.014 52.312C202.598 52.312 203.606 53.248 203.606 54.724C203.606 55.78 202.934 56.812 201.878 57.844L199.514 60.148H203.654V61H197.906Z" fill="white"/>
</svg>
