<svg width="336" height="192" viewBox="0 0 336 192" fill="none" xmlns="http://www.w3.org/2000/svg">
<path fill-rule="evenodd" clip-rule="evenodd" d="M195.875 62.0415C200.915 62.0415 205 66.1269 205 71.1665V92.4582C205 97.4978 200.915 101.583 195.875 101.583H192.833V118.051L183.628 108.846C183.049 113.328 179.223 116.792 174.583 116.792H166.528L147.208 132.246V116.792H141.125C136.085 116.792 132 112.706 132 107.667V86.3748C132 81.3352 136.085 77.2498 141.125 77.2498H153.292V71.1665C153.292 66.1269 157.377 62.0415 162.417 62.0415H195.875ZM141.125 83.3332C139.445 83.3332 138.083 84.695 138.083 86.3748V107.667C138.083 109.346 139.445 110.708 141.125 110.708H153.292V119.584L163.557 111.374L164.392 110.708H174.583C176.263 110.708 177.625 109.346 177.625 107.667V86.3748C177.625 84.695 176.263 83.3332 174.583 83.3332H141.125ZM162.417 68.1248C160.737 68.1248 159.375 69.4866 159.375 71.1665V77.2498H174.583C179.623 77.2498 183.708 81.3352 183.708 86.3748V100.324L186.75 103.365V95.4998H195.875C197.555 95.4998 198.917 94.138 198.917 92.4582V71.1665C198.917 69.4866 197.555 68.1248 195.875 68.1248H162.417Z" fill="#E6E8E9"/>
</svg>
