<svg width="336" height="192" viewBox="0 0 336 192" fill="none" xmlns="http://www.w3.org/2000/svg">
<path d="M153.292 92.4582C154.972 92.4582 156.333 93.82 156.333 95.4998C156.333 97.1797 154.972 98.5415 153.292 98.5415H147.208C145.528 98.5415 144.167 97.1797 144.167 95.4998C144.167 93.82 145.528 92.4582 147.208 92.4582H153.292Z" fill="#E6E8E9"/>
<path d="M162.417 83.3332C164.097 83.3332 165.458 84.695 165.458 86.3748C165.458 88.0547 164.097 89.4165 162.417 89.4165H147.208C145.528 89.4165 144.167 88.0547 144.167 86.3748C144.167 84.695 145.528 83.3332 147.208 83.3332H162.417Z" fill="#E6E8E9"/>
<path d="M156.333 74.2082C158.013 74.2082 159.375 75.57 159.375 77.2498C159.375 78.9297 158.013 80.2915 156.333 80.2915H147.208C145.528 80.2915 144.167 78.9297 144.167 77.2498C144.167 75.57 145.528 74.2082 147.208 74.2082H156.333Z" fill="#E6E8E9"/>
<path fill-rule="evenodd" clip-rule="evenodd" d="M174.583 62.0415C182.014 62.0415 188.196 67.3713 189.524 74.4161C198.287 75.7524 205 83.3221 205 92.4582C205 97.8621 202.649 102.715 198.917 106.057V123.276C198.916 127.982 193.835 130.848 189.842 128.572L189.459 128.337L186.75 126.531L184.041 128.337C179.999 131.032 174.584 128.134 174.583 123.276V122.875H150.25C141.851 122.875 135.042 116.066 135.042 107.667V77.2498C135.042 68.8505 141.851 62.0415 150.25 62.0415H174.583ZM192.833 109.666C190.93 110.338 188.884 110.708 186.75 110.708C184.617 110.708 182.57 110.338 180.667 109.666V123.276L183.376 121.47C185.419 120.108 188.081 120.108 190.124 121.47L192.833 123.276V109.666ZM150.25 68.1248C145.21 68.1248 141.125 72.2102 141.125 77.2498V107.667C141.125 112.706 145.21 116.792 150.25 116.792H174.583V106.057C170.851 102.715 168.5 97.8621 168.5 92.4582C168.5 83.5593 174.87 76.1516 183.298 74.5379C182.144 70.8226 178.679 68.1248 174.583 68.1248H150.25ZM186.75 80.2915C180.031 80.2915 174.583 85.7387 174.583 92.4582C174.583 99.1776 180.031 104.625 186.75 104.625C193.469 104.625 198.917 99.1776 198.917 92.4582C198.917 85.7387 193.469 80.2915 186.75 80.2915Z" fill="#E6E8E9"/>
</svg>
