<svg width="336" height="192" viewBox="0 0 336 192" fill="none" xmlns="http://www.w3.org/2000/svg">
<path fill-rule="evenodd" clip-rule="evenodd" d="M195.875 62.0417C200.915 62.0417 205 66.1271 205 71.1667V92.4584C205 97.498 200.915 101.583 195.875 101.583H192.833V118.051L183.628 108.846C183.049 113.328 179.223 116.792 174.583 116.792H166.528L147.208 132.247V116.792H141.125C136.085 116.792 132 112.706 132 107.667V86.375C132 81.3354 136.085 77.25 141.125 77.25H153.292V71.1667C153.292 66.1271 157.377 62.0417 162.417 62.0417H195.875ZM141.125 83.3334C139.445 83.3334 138.083 84.6952 138.083 86.375V107.667C138.083 109.347 139.445 110.708 141.125 110.708H153.292V119.584L163.557 111.374L164.392 110.708H174.583C176.263 110.708 177.625 109.347 177.625 107.667V86.375C177.625 84.6952 176.263 83.3334 174.583 83.3334H141.125ZM162.417 68.125C160.737 68.125 159.375 69.4868 159.375 71.1667V77.25H174.583C179.623 77.25 183.708 81.3354 183.708 86.375V100.324L186.75 103.366V95.5H195.875C197.555 95.5 198.917 94.1382 198.917 92.4584V71.1667C198.917 69.4868 197.555 68.125 195.875 68.125H162.417Z" fill="white"/>
</svg>
