<svg width="336" height="192" viewBox="0 0 336 192" fill="none" xmlns="http://www.w3.org/2000/svg">
<path d="M195.875 80.2918C197.555 80.2918 198.917 81.6536 198.917 83.3335C198.917 85.0134 197.555 86.3752 195.875 86.3752H174.583V99.0914L192.278 124.161C193.247 125.534 192.919 127.434 191.547 128.403C190.175 129.372 188.274 129.044 187.305 127.672L169.055 101.818C169.003 101.744 168.964 101.662 168.919 101.583H168.084C168.059 101.626 168.04 101.672 168.013 101.714L151.284 127.568C150.371 128.978 148.488 129.383 147.078 128.471C145.668 127.559 145.263 125.676 146.175 124.265L162.417 99.1626V86.3752H141.125C139.445 86.3752 138.083 85.0134 138.083 83.3335C138.083 81.6536 139.445 80.2918 141.125 80.2918H195.875Z" fill="#E6E8E9"/>
<path d="M168.5 65.0835C171.86 65.0835 174.583 67.8071 174.583 71.1668C174.583 74.5266 171.86 77.2502 168.5 77.2502C165.14 77.2502 162.417 74.5266 162.417 71.1668C162.417 67.8071 165.14 65.0835 168.5 65.0835Z" fill="#E6E8E9"/>
</svg>
