<svg width="336" height="192" viewBox="0 0 336 192" fill="none" xmlns="http://www.w3.org/2000/svg">
<path d="M195.875 80.2916C197.555 80.2916 198.917 81.6534 198.917 83.3333C198.917 85.0132 197.555 86.375 195.875 86.375H174.583V99.0912L192.278 124.161C193.247 125.533 192.919 127.434 191.547 128.403C190.175 129.372 188.274 129.044 187.306 127.672L169.056 101.818C169.003 101.744 168.964 101.661 168.919 101.583H168.084C168.059 101.626 168.04 101.672 168.013 101.714L151.284 127.568C150.371 128.978 148.488 129.383 147.078 128.471C145.668 127.559 145.263 125.675 146.175 124.265L162.417 99.1625V86.375H141.125C139.445 86.375 138.083 85.0132 138.083 83.3333C138.083 81.6534 139.445 80.2916 141.125 80.2916H195.875Z" fill="white"/>
<path d="M168.5 65.0833C171.86 65.0833 174.583 67.8069 174.583 71.1666C174.583 74.5264 171.86 77.25 168.5 77.25C165.14 77.25 162.417 74.5264 162.417 71.1666C162.417 67.8069 165.14 65.0833 168.5 65.0833Z" fill="white"/>
</svg>
