<svg width="336" height="192" viewBox="0 0 336 192" fill="none" xmlns="http://www.w3.org/2000/svg">
<path fill-rule="evenodd" clip-rule="evenodd" d="M180.824 62.0417C189.246 62.0417 196.059 68.8896 196.059 77.3154C196.059 81.7066 194.205 85.6661 191.241 88.4543C197.562 91.313 201.958 97.6863 201.958 105.082V111.124C201.958 112.804 200.596 114.166 198.917 114.166C197.237 114.166 195.875 112.804 195.875 111.124V105.082C195.875 98.3623 190.449 92.9313 183.776 92.9306H177.268C176.636 96.8985 174.722 100.436 171.966 103.11C178.789 105.482 183.681 111.981 183.681 119.619V125.917C183.681 127.597 182.32 128.958 180.64 128.958C178.96 128.958 177.598 127.596 177.598 125.917V119.619C177.598 113.319 172.511 108.228 166.257 108.228H152.469C146.214 108.228 141.125 113.319 141.125 119.619V125.917C141.125 127.597 139.763 128.958 138.083 128.958C136.403 128.958 135.042 127.597 135.042 125.917V119.619C135.042 111.982 139.933 105.483 146.754 103.11C143.345 99.802 141.226 95.1678 141.226 90.0405C141.226 80.0056 149.337 71.8528 159.363 71.8528C161.765 71.8529 164.059 72.3256 166.159 73.1776C167.958 66.7581 173.835 62.0423 180.824 62.0417ZM159.363 77.9362C152.716 77.9362 147.309 83.3459 147.309 90.0405C147.309 96.7353 152.716 102.145 159.363 102.145C166.01 102.144 171.414 96.735 171.414 90.0405C171.414 89.9999 171.414 89.9592 171.414 89.9187C171.413 89.8273 171.411 89.7362 171.408 89.6454C171.289 85.9242 169.5 82.6282 166.759 80.4848C164.716 78.8869 162.154 77.9363 159.363 77.9362ZM180.824 68.125C175.981 68.1257 172.004 71.9113 171.696 76.7154C174.441 79.2716 176.398 82.6699 177.153 86.5057H180.824C185.867 86.5057 189.976 82.4012 189.976 77.3154C189.975 72.2299 185.867 68.125 180.824 68.125Z" fill="white"/>
</svg>
