<svg width="336" height="192" viewBox="0 0 336 192" fill="none" xmlns="http://www.w3.org/2000/svg">
<path d="M68.041 74.8865C68.041 70.233 71.8134 66.4606 76.4669 66.4606H117.694C122.347 66.4606 126.12 70.233 126.12 74.8865V116.114C126.12 120.767 122.347 124.539 117.694 124.539H76.4669C71.8134 124.539 68.041 120.767 68.041 116.114V74.8865Z" fill="#05CC93"/>
<path d="M139.461 74.8865C139.461 70.233 143.233 66.4606 147.887 66.4606H189.114C193.767 66.4606 197.54 70.233 197.54 74.8865V116.114C197.54 120.767 193.767 124.539 189.114 124.539H147.887C143.233 124.539 139.461 120.767 139.461 116.114V74.8865Z" fill="#B1B9BE"/>
<path d="M210.881 74.8865C210.881 70.233 214.653 66.4606 219.307 66.4606H260.534C265.187 66.4606 268.96 70.233 268.96 74.8865V116.114C268.96 120.767 265.187 124.539 260.534 124.539H219.307C214.653 124.539 210.881 120.767 210.881 116.114V74.8865Z" fill="#F7F7F7"/>
</svg>
