<svg width="336" height="192" viewBox="0 0 336 192" fill="none" xmlns="http://www.w3.org/2000/svg">
<path d="M131.76 117.5L145.92 74.6H158.52L172.44 117.5H162.3L159.3 107.9H143.82L140.88 117.5H131.76ZM151.62 82.52L145.86 101.06H157.26L151.62 82.52ZM186.584 118.04C180.764 118.04 176.144 115.22 176.144 108.8C176.144 101.54 183.824 99.08 191.864 99.08H196.364V96.8C196.364 91.82 194.444 89.72 189.644 89.72C185.324 89.72 182.924 91.52 182.444 95.36H177.464C178.124 88.22 183.824 85.58 189.884 85.58C195.884 85.58 201.344 88.04 201.344 96.8V117.5H196.364V113.54C194.024 116.48 191.204 118.04 186.584 118.04ZM187.064 114.08C192.344 114.08 196.364 111.38 196.364 106.52V102.62H192.044C185.744 102.62 181.124 104.18 181.124 108.8C181.124 112.04 182.684 114.08 187.064 114.08Z" fill="#3E4550"/>
</svg>
