<svg width="336" height="192" viewBox="0 0 336 192" fill="none" xmlns="http://www.w3.org/2000/svg">
<path d="M58 108C58 101.373 63.3726 96 70 96H94C100.627 96 106 101.373 106 108V132C106 138.627 100.627 144 94 144H70C63.3726 144 58 138.627 58 132V108Z" fill="#7D8A92"/>
<path d="M112 92C112 85.3726 117.373 80 124 80H164C170.627 80 176 85.3726 176 92V132C176 138.627 170.627 144 164 144H124C117.373 144 112 138.627 112 132V92Z" fill="#7D8A92"/>
<path d="M182 60C182 53.3726 187.373 48 194 48H266C272.627 48 278 53.3726 278 60V132C278 138.627 272.627 144 266 144H194C187.373 144 182 138.627 182 132V60Z" fill="#7D8A92"/>
</svg>
