<svg width="336" height="192" viewBox="0 0 336 192" fill="none" xmlns="http://www.w3.org/2000/svg">
<path fill-rule="evenodd" clip-rule="evenodd" d="M180.824 62.0415C189.247 62.0415 196.059 68.8895 196.059 77.3152C196.059 81.7064 194.205 85.6659 191.241 88.4541C197.563 91.3128 201.958 97.6861 201.958 105.082V111.124C201.958 112.804 200.597 114.166 198.917 114.166C197.237 114.166 195.875 112.804 195.875 111.124V105.082C195.875 98.3621 190.449 92.9311 183.777 92.9305H177.269C176.637 96.8983 174.722 100.436 171.967 103.11C178.79 105.482 183.681 111.981 183.682 119.619V125.917C183.682 127.596 182.32 128.958 180.64 128.958C178.961 128.957 177.598 127.596 177.598 125.917V119.619C177.598 113.319 172.512 108.228 166.257 108.228H152.469C146.215 108.228 141.125 113.318 141.125 119.619V125.917C141.125 127.596 139.763 128.958 138.083 128.958C136.404 128.958 135.042 127.596 135.042 125.917V119.619C135.042 111.982 139.933 105.483 146.754 103.11C143.346 99.8018 141.226 95.1677 141.226 90.0403C141.226 80.0054 149.337 71.8527 159.363 71.8527C161.765 71.8528 164.059 72.3255 166.159 73.1774C167.958 66.7579 173.835 62.0421 180.824 62.0415ZM159.363 77.936C152.716 77.936 147.31 83.3457 147.309 90.0403C147.309 96.7351 152.716 102.145 159.363 102.145C166.01 102.144 171.414 96.7348 171.414 90.0403C171.414 89.9997 171.414 89.959 171.414 89.9185C171.413 89.8271 171.411 89.736 171.408 89.6452C171.29 85.924 169.5 82.6281 166.759 80.4846C164.716 78.8867 162.154 77.9362 159.363 77.936ZM180.824 68.1248C175.982 68.1255 172.004 71.9111 171.696 76.7152C174.441 79.2714 176.399 82.6698 177.153 86.5055H180.824C185.868 86.5055 189.976 82.401 189.976 77.3152C189.976 72.2297 185.867 68.1248 180.824 68.1248Z" fill="#E6E8E9"/>
</svg>
