<svg width="336" height="192" viewBox="0 0 336 192" fill="none" xmlns="http://www.w3.org/2000/svg">
<g clip-path="url(#clip0_2347_1108)">
<path d="M217.718 99.7789V112.338H258.004V121.996H207.433V90.1208H258.004V99.7789H217.718Z" fill="#01A982"/>
<path d="M176.812 71H144.935V122H155.221V109.035H176.652C190.193 109.035 197.971 101.389 197.971 90.1245C197.971 78.7865 190.193 71 176.812 71ZM176.14 99.26H155.221V80.6581H176.14C184.24 80.6581 187.312 84.3711 187.312 90.1245C187.312 95.8193 184.24 99.26 176.14 99.26ZM217.714 85.3898H207.429V71H258V80.6581H217.714V85.3898ZM132 71V122H121.714V101.099H88.2857V122H78V71H88.2857V91.3235H121.714V71H132Z" fill="black"/>
</g>
<defs>
<clipPath id="clip0_2347_1108">
<rect width="180" height="51" fill="white" transform="translate(78 71)"/>
</clipPath>
</defs>
</svg>
