<svg width="336" height="192" viewBox="0 0 336 192" fill="none" xmlns="http://www.w3.org/2000/svg">
<path d="M98 50H70C66.6863 50 64 52.6863 64 56V84C64 87.3137 66.6863 90 70 90H98C101.314 90 104 87.3137 104 84V56C104 52.6863 101.314 50 98 50Z" stroke="#E6E8E9" stroke-width="6"/>
<path d="M98 101H70C66.6863 101 64 103.686 64 107V135C64 138.314 66.6863 141 70 141H98C101.314 141 104 138.314 104 135V107C104 103.686 101.314 101 98 101Z" stroke="#E6E8E9" stroke-width="6"/>
<path d="M175 50H127C123.686 50 121 52.6863 121 56V135C121 138.314 123.686 141 127 141H175C178.314 141 181 138.314 181 135V56C181 52.6863 178.314 50 175 50Z" stroke="#E6E8E9" stroke-width="6"/>
<path d="M267 50H204C200.686 50 198 52.6863 198 56V84C198 87.3137 200.686 90 204 90H267C270.314 90 273 87.3137 273 84V56C273 52.6863 270.314 50 267 50Z" stroke="#E6E8E9" stroke-width="6"/>
<path d="M267 101H204C200.686 101 198 103.686 198 107V135C198 138.314 200.686 141 204 141H267C270.314 141 273 138.314 273 135V107C273 103.686 270.314 101 267 101Z" stroke="#E6E8E9" stroke-width="6"/>
</svg>
