<svg xmlns="http://www.w3.org/2000/svg" width="96" height="96" viewBox="0 0 96 96">
  <g fill="none" fill-rule="evenodd">
    <path stroke="#000" stroke-width="4" d="M22,70 C16.4771525,70 12,74.4771525 12,80 C12,85.5228475 16.4771525,90 22,90 L36.0059397,90 C37.1072288,90 38,89.1017876 38,88.0092049 L38,70 M12,80 L12,16 C12,10.4771525 16.4771525,6 22,6 L76.0056874,6 C80.4208243,6 84,9.579699 84,13.996044 L84,62.0333614 C84,66.4494545 80.4195029,70.0294054 76.0016504,70.0294054 L21.9686914,70.0294054 M39,19 L69,19 C69.5522847,19 70,19.4477153 70,20 L70,30 C70,30.5522847 69.5522847,31 69,31 L39,31 C38.4477153,31 38,30.5522847 38,30 L38,20 C38,19.4477153 38.4477153,19 39,19 Z"/>
    <line x1="38" x2="70" y1="43" y2="43" stroke="#000" stroke-linecap="round" stroke-width="4"/>
    <line x1="38" x2="70" y1="55" y2="55" stroke="#000" stroke-linecap="round" stroke-width="4"/>
  </g>
</svg>
