<svg xmlns="http://www.w3.org/2000/svg" width="24" height="24" viewBox="0 0 24 24">
  <path fill="none" stroke="#000" stroke-width="2" d="M3,1 L21,1 C22.1045695,1 23,1.8954305 23,3 L23,21 C23,22.1045695 22.1045695,23 21,23 L3,23 C1.8954305,23 1,22.1045695 1,21 L1,3 C1,1.8954305 1.8954305,1 3,1 Z M8.33333333,10.1666667 L8.33333333,13.8333333 M8.33333333,13.8333333 C8.33333333,15.1833627 7.23891828,16.2777778 5.88888889,16.2777778 M8.33333333,13.8333333 C8.33333333,15.1833627 9.42774839,16.2777778 10.7777778,16.2777778 M8.33333333,10.1666667 C8.33333333,8.81663728 7.23891828,7.72222222 5.88888889,7.72222222 M8.33333333,10.1666667 C8.33333333,8.81663728 9.42774839,7.72222222 10.7777778,7.72222222"/>
</svg>
