<?xml version="1.0" encoding="UTF-8"?>
<svg width="24px" height="24px" viewBox="0 0 24 24" version="1.1" xmlns="http://www.w3.org/2000/svg" xmlns:xlink="http://www.w3.org/1999/xlink">
    <!-- Generator: Sketch 60.1 (88133) - https://sketch.com -->
    <title>Vector (2)</title>
    <desc>Created with Sketch.</desc>
    <g id="Page-1" stroke="none" stroke-width="1" fill="none" fill-rule="evenodd">
        <g id="Vector-(2)" fill="#000000" fill-rule="nonzero">
            <path d="M5.39946,1.53549 L5.84357,1.7652 L5.84357,1.76519 L5.39946,1.53549 Z M5.93852,1.54293 L5.48822,1.76026 L5.48824,1.7603 L5.93852,1.54293 Z M9.83237,9.60869 L10.2827,9.39134 L10.2826,9.39132 L9.83237,9.60869 Z M1.2275,9.60128 L1.6716,9.83099 L1.6716,9.83099 L1.2275,9.60128 Z M14.6138,13.9067 C14.4186,13.7115 14.102,13.7115 13.9067,13.9067 C13.7115,14.102 13.7115,14.4186 13.9067,14.6138 L14.6138,13.9067 Z M22.3451,23.0522 C22.5403,23.2474 22.8569,23.2474 23.0522,23.0522 C23.2474,22.8569 23.2474,22.5403 23.0522,22.3451 L22.3451,23.0522 Z M23.0522,14.6138 C23.2474,14.4186 23.2474,14.102 23.0522,13.9067 C22.8569,13.7115 22.5403,13.7115 22.3451,13.9067 L23.0522,14.6138 Z M13.9067,22.3451 C13.7115,22.5403 13.7115,22.8569 13.9067,23.0522 C14.102,23.2474 14.4186,23.2474 14.6138,23.0522 L13.9067,22.3451 Z M5.84357,1.76519 C5.76838,1.91057 5.55942,1.90777 5.48822,1.76026 L6.38881,1.3256 C6.10172,0.73075 5.25873,0.719199 4.95534,1.30579 L5.84357,1.76519 Z M5.48824,1.7603 L9.38209,9.82607 L10.2826,9.39132 L6.38879,1.32555 L5.48824,1.7603 Z M9.38208,9.82604 C9.31843,9.69418 9.41447,9.5411 9.56095,9.5411 L9.56095,10.5411 C10.1518,10.5411 10.5395,9.92342 10.2827,9.39134 L9.38208,9.82604 Z M9.56095,9.5411 L1.49518,9.5411 L1.49518,10.5411 L9.56095,10.5411 L9.56095,9.5411 Z M1.49518,9.5411 C1.64402,9.5411 1.74,9.69877 1.6716,9.83099 L0.783387,9.37156 C0.507483,9.90497 0.894659,10.5411 1.49518,10.5411 L1.49518,9.5411 Z M1.6716,9.83099 L5.84357,1.7652 L4.95535,1.30578 L0.783386,9.37157 L1.6716,9.83099 Z M5.52055,14.4589 C7.74104,14.4589 9.5411,16.259 9.5411,18.4795 L10.5411,18.4795 C10.5411,15.7067 8.29332,13.4589 5.52055,13.4589 L5.52055,14.4589 Z M9.5411,18.4795 C9.5411,20.6999 7.74104,22.5 5.52055,22.5 L5.52055,23.5 C8.29332,23.5 10.5411,21.2522 10.5411,18.4795 L9.5411,18.4795 Z M5.52055,22.5 C3.30006,22.5 1.5,20.6999 1.5,18.4795 L0.5,18.4795 C0.5,21.2522 2.74778,23.5 5.52055,23.5 L5.52055,22.5 Z M1.5,18.4795 C1.5,16.259 3.30006,14.4589 5.52055,14.4589 L5.52055,13.4589 C2.74778,13.4589 0.5,15.7067 0.5,18.4795 L1.5,18.4795 Z M15.7671,1.5 L21.1918,1.5 L21.1918,0.5 L15.7671,0.5 L15.7671,1.5 Z M21.1918,1.5 C21.9143,1.5 22.5,2.08571 22.5,2.80822 L23.5,2.80822 C23.5,1.53342 22.4666,0.5 21.1918,0.5 L21.1918,1.5 Z M22.5,2.80822 L22.5,8.23288 L23.5,8.23288 L23.5,2.80822 L22.5,2.80822 Z M22.5,8.23288 C22.5,8.95539 21.9143,9.5411 21.1918,9.5411 L21.1918,10.5411 C22.4666,10.5411 23.5,9.50767 23.5,8.23288 L22.5,8.23288 Z M21.1918,9.5411 L15.7671,9.5411 L15.7671,10.5411 L21.1918,10.5411 L21.1918,9.5411 Z M15.7671,9.5411 C15.0446,9.5411 14.4589,8.95539 14.4589,8.23288 L13.4589,8.23288 C13.4589,9.50767 14.4923,10.5411 15.7671,10.5411 L15.7671,9.5411 Z M14.4589,8.23288 L14.4589,2.80822 L13.4589,2.80822 L13.4589,8.23288 L14.4589,8.23288 Z M14.4589,2.80822 C14.4589,2.08571 15.0446,1.5 15.7671,1.5 L15.7671,0.5 C14.4923,0.5 13.4589,1.53342 13.4589,2.80822 L14.4589,2.80822 Z M13.9067,14.6138 L22.3451,23.0522 L23.0522,22.3451 L14.6138,13.9067 L13.9067,14.6138 Z M22.3451,13.9067 L13.9067,22.3451 L14.6138,23.0522 L23.0522,14.6138 L22.3451,13.9067 Z" id="Shape"></path>
        </g>
    </g>
</svg>