<svg xmlns="http://www.w3.org/2000/svg" width="24" height="24" viewBox="0 0 24 24">
  <path fill="none" stroke="#000" stroke-width="2" d="M3,1 L21,1 C22.1045695,1 23,1.8954305 23,3 L23,21 C23,22.1045695 22.1045695,23 21,23 L3,23 C1.8954305,23 1,22.1045695 1,21 L1,3 C1,1.8954305 1.8954305,1 3,1 Z M12,7.72222222 L12,5.27777778 M12,7.72222222 C13.5267587,7.7493646 14.447876,7.72222222 15.0555556,7.72222222 C16.2777778,7.72222222 17.5,8.02777778 18.1111111,10.1666667 C18.7222222,12.3055556 18.7222222,13.5277778 18.7222222,15.0555556 C18.7222222,16.5833333 17.5,16.8888889 16.2777778,16.8888889 C15.0555556,16.8888889 14.4112319,14.4444444 12,14.4444444 C9.58876812,14.4444444 8.94444444,16.8888889 7.72222222,16.8888889 C6.5,16.8888889 5.27777778,16.5833333 5.27777778,15.0555556 C5.27777778,13.5277778 5.27777778,12.3055556 5.88888889,10.1666667 C6.5,8.02777778 7.72222222,7.72222222 8.94444444,7.72222222 C9.55212403,7.72222222 10.4732413,7.7493646 12,7.72222222 L12,7.72222222 L12,7.72222222 Z M15.6666667,13.2222222 C16.004174,13.2222222 16.2777778,12.9486184 16.2777778,12.6111111 C16.2777778,12.2736038 16.004174,12 15.6666667,12 C15.3291594,12 15.0555556,12.2736038 15.0555556,12.6111111 C15.0555556,12.9486184 15.3291594,13.2222222 15.6666667,13.2222222 Z M13.2222222,11.3888889 C13.5597295,11.3888889 13.8333333,11.1152851 13.8333333,10.7777778 C13.8333333,10.4402705 13.5597295,10.1666667 13.2222222,10.1666667 C12.8847149,10.1666667 12.6111111,10.4402705 12.6111111,10.7777778 C12.6111111,11.1152851 12.8847149,11.3888889 13.2222222,11.3888889 Z M7.11111111,11.3888889 L10.7777778,11.3888889 M8.94444444,9.55555556 L8.94444444,13.2222222"/>
</svg>
