<?xml version="1.0" encoding="UTF-8"?>
<svg width="24px" height="24px" viewBox="0 0 24 24" version="1.1" xmlns="http://www.w3.org/2000/svg" xmlns:xlink="http://www.w3.org/1999/xlink">
    <!-- Generator: Sketch 55.2 (78181) - https://sketchapp.com -->
    <title>icon-mobile</title>
    <desc>Created with Sketch.</desc>
    <g id="Page-1" stroke="none" stroke-width="1" fill="none" fill-rule="evenodd">
        <g id="icon-mobile">
            <path d="M15.6812434,0 L7.55529854,0 C6.1738134,0 5,1.12393071 5,2.50196583 L5,21.5008936 C5,22.8789287 6.14897685,24 7.53046199,24 L15.6697804,23.9912312 C17.0510745,23.9912312 18.1811373,22.8699693 18.1811373,21.4917435 L18.1929825,2.50063145 C18.1927914,1.11764005 17.068269,0 15.6812434,0 Z M10.444362,1.50003574 L12.8019235,1.50003574 C13.009022,1.50003574 13.1777195,1.66778659 13.1777195,1.87499702 C13.1777195,2.08220745 13.009022,2.2499583 12.8019235,2.2499583 L10.444362,2.2499583 C10.2366903,2.2499583 10.068566,2.08220745 10.068566,1.87499702 C10.068566,1.66778659 10.2366903,1.50003574 10.444362,1.50003574 Z M9.02772364,1.6193676 C9.16699935,1.48059189 9.42052318,1.47868563 9.55960784,1.6193676 C9.62934122,1.68875545 9.6706081,1.78616532 9.6706081,1.88567208 C9.6706081,1.98327257 9.62934122,2.08049181 9.55960784,2.15007029 C9.49025656,2.21964877 9.39224773,2.26063335 9.29462099,2.26063335 C9.19508376,2.26063335 9.09936753,2.21964877 9.02772364,2.15007029 C8.95837236,2.08068244 8.91882425,1.98327257 8.91882425,1.88567208 C8.91863389,1.78616532 8.95837236,1.68875545 9.02772364,1.6193676 Z M11.5472958,23.2567494 C10.9271463,23.2567494 10.4227734,22.7531155 10.4227734,22.1345343 C10.4227734,21.5157624 10.9271463,21.0123192 11.5472958,21.0123192 C12.1674452,21.0123192 12.6718182,21.5157624 12.6718182,22.1345343 C12.6718182,22.7531155 12.1672542,23.2567494 11.5472958,23.2567494 Z M17.026429,20.2496247 L6.31538171,20.2496247 L6.31538171,3.56260872 L17.026429,3.56260872 L17.026429,20.2496247 Z" id="Shape" fill="#000000" fill-rule="nonzero"></path>
            <rect id="Rectangle" stroke="#000000" x="0.5" y="0.5" width="23" height="23"></rect>
        </g>
    </g>
</svg>