<svg xmlns="http://www.w3.org/2000/svg" width="24" height="24" viewBox="0 0 24 24">
  <path fill="none" stroke="#000" stroke-width="2" d="M3,1 L21,1 C22.1045695,1 23,1.8954305 23,3 L23,21 C23,22.1045695 22.1045695,23 21,23 L3,23 C1.8954305,23 1,22.1045695 1,21 L1,3 C1,1.8954305 1.8954305,1 3,1 Z M5.88888889,5.88888889 L5.88888889,18.1111111 L8.33333333,18.1111111 L8.33333333,5.88888889 L5.88888889,5.88888889 Z M10.7777778,5.88888889 L10.7777778,18.1111111 L13.2222222,18.1111111 L13.2222222,5.88888889 L10.7777778,5.88888889 Z M15.6666667,5.88888889 L15.6666667,18.1111111 L18.1111111,18.1111111 L18.1111111,5.88888889 L15.6666667,5.88888889 Z"/>
</svg>
