<svg xmlns="http://www.w3.org/2000/svg" width="96" height="96" viewBox="0 0 96 96">
  <g fill="none" fill-rule="evenodd">
    <rect width="72" height="72" x="12" y="12" stroke="#000" stroke-width="4" rx="8"/>
    <path stroke="#000" stroke-width="3" d="M38.25,61.5 C41.9779221,61.5 45,58.4779221 45,54.75 C45,51.0220779 41.9779221,48 38.25,48 C34.5220779,48 31.5,51.0220779 31.5,54.75 C31.5,58.4779221 34.5220779,61.5 38.25,61.5 Z M31.5,54 L31.5,40.5 L31.5,39.75 C31.5,36.0220779 34.5220779,33 38.25,33 L39,33 M64.5,54 L64.5,40.5 L64.5,39.75 C64.5,36.0220779 61.4779221,33 57.75,33 L57,33 M57.75,61.5 C61.4779221,61.5 64.5,58.4779221 64.5,54.75 C64.5,51.0220779 61.4779221,48 57.75,48 C54.0220779,48 51,51.0220779 51,54.75 C51,58.4779221 54.0220779,61.5 57.75,61.5 Z M45,55.5 C45,55.5 45,52.5 48,52.5 C51,52.5 51,55.5 51,55.5"/>
  </g>
</svg>
