<svg width="336" height="192" viewBox="0 0 336 192" fill="none" xmlns="http://www.w3.org/2000/svg">
<rect width="336" height="192" fill="#025369"/>
<path fill-rule="evenodd" clip-rule="evenodd" d="M130 63C130 57.4772 134.477 53 140 53H196C201.523 53 206 57.4772 206 63V109C206 114.523 201.523 119 196 119H160V137V139H158H142C135.373 139 130 133.627 130 127V63ZM196 115H160H158H142C138.927 115 136.123 116.155 134 118.056V63C134 59.6863 136.686 57 140 57H196C199.314 57 202 59.6863 202 63V109C202 112.314 199.314 115 196 115ZM142 135C137.582 135 134 131.418 134 127C134 122.582 137.582 119 142 119H156V135H142ZM158 89.5C156.895 89.5 156 90.3954 156 91.5C156 92.6046 156.895 93.5 158 93.5H190C191.105 93.5 192 92.6046 192 91.5C192 90.3954 191.105 89.5 190 89.5H158ZM156 104.5C156 103.395 156.895 102.5 158 102.5H190C191.105 102.5 192 103.395 192 104.5C192 105.605 191.105 106.5 190 106.5H158C156.895 106.5 156 105.605 156 104.5ZM159 65C157.343 65 156 66.3431 156 68V78C156 79.6569 157.343 81 159 81H189C190.657 81 192 79.6569 192 78V68C192 66.3431 190.657 65 189 65H159ZM160 77V69H188V77H160Z" fill="white"/>
</svg>
