<svg width="336" height="192" viewBox="0 0 336 192" fill="none" xmlns="http://www.w3.org/2000/svg">
<path d="M157.208 66H141.464L119 124.944H134.264L138.392 113.52H159.8L164.024 124.944H179.672L157.208 66ZM143.096 100.848L149.144 84.24L155.192 100.848H143.096Z" fill="#444444"/>
<path d="M210.535 96.624V102.192C208.711 100.56 204.295 98.736 199.879 98.736C190.758 98.736 183.655 104.112 183.655 112.08C183.655 120.528 190.759 125.712 199.495 125.712C204.487 125.712 208.903 123.504 210.535 121.776V124.944H217.543V96.048C217.543 87.024 211.591 81.456 201.511 81.456C196.231 81.456 191.143 82.992 188.263 85.008V91.824C191.815 89.52 195.655 88.08 200.359 88.08C206.599 88.08 210.535 91.344 210.535 96.624ZM210.535 109.968V114.384C209.382 117.552 205.159 119.664 200.647 119.664C195.463 119.664 190.471 117.264 190.471 112.08C190.471 106.992 195.463 104.688 200.647 104.688C205.159 104.688 209.382 106.8 210.535 109.968Z" fill="#444444"/>
</svg>
