<svg width="36" height="40" viewBox="0 0 36 40" fill="none" xmlns="http://www.w3.org/2000/svg">
<path d="M15.2611 38.7694C13.5819 37.8886 12.5632 37.1216 10.6663 36.1197C10.1147 35.8284 9.96118 35.5911 10.2152 34.9676C11.3035 32.3074 12.2993 29.613 13.374 26.9475C13.6063 26.3714 13.5112 26.0656 12.9325 25.8507C12.6825 25.7571 12.4637 25.5884 12.2205 25.4764C10.9856 24.9069 9.98156 24.1502 9.74923 22.6883C8.37976 26.2027 7.01028 29.7184 5.61906 33.2882C4.27947 32.5249 3.00646 31.8632 1.80409 31.096C0.567754 30.3063 0.00393099 29.1134 0.00257238 27.6818C-0.00150345 22.6026 -0.00014484 17.5248 0.00257238 12.4456C0.00257238 10.7939 0.740297 9.54291 2.21303 8.71638C6.71818 6.18669 11.2288 3.66755 15.7339 1.13787C17.2569 0.282339 18.7636 0.290248 20.2839 1.14446C24.7496 3.65174 29.2181 6.15637 33.6893 8.65442C35.234 9.51786 36.0071 10.786 35.9908 12.53C35.969 14.829 35.9867 17.1267 35.984 19.4257C35.984 19.6564 35.9582 19.8857 35.9419 20.152C35.6212 20.152 35.3753 20.152 35.1294 20.152C27.8676 20.152 20.6045 20.152 13.3428 20.156C12.9854 20.156 12.6145 20.156 12.2708 20.2403C11.3198 20.471 10.6215 21.2646 10.5196 22.1966C10.4027 23.2683 10.8416 24.0566 11.817 24.5839C15.7543 26.7102 19.6861 28.8471 23.6206 30.9786C23.9752 31.1711 24.3244 31.3715 24.6858 31.5481C25.7278 32.053 26.9995 31.8592 27.8894 31.0696C28.7168 30.3354 28.888 29.4877 28.441 28.3224C28.2915 27.9335 28.1543 27.5394 27.9899 27.1558C27.3731 25.711 25.9833 24.8726 24.3815 25.0519C23.8815 25.1073 23.4046 25.363 22.8163 25.5607C23.1057 25.8942 23.2647 26.0788 23.4236 26.262L23.3543 26.3358C21.743 25.4619 20.1317 24.5879 18.606 23.7613C19.7146 23.909 20.8817 24.1832 22.0514 24.1977C26.4262 24.2504 30.8022 24.2333 35.177 24.2043C35.8413 24.2003 36.0356 24.3914 35.9948 25.0176C35.9405 25.8468 35.965 26.6812 35.9853 27.5117C36.0302 29.3111 35.2055 30.5937 33.6064 31.4743C30.9816 32.9217 28.3975 34.439 25.755 35.8561C23.3584 37.1401 20.7784 38.581 20.0311 38.9671C18.5021 39.7572 16.9404 39.6501 15.2611 38.7694ZM25.0037 19.5535C24.9086 19.2701 24.8597 19.104 24.7972 18.9432C23.641 15.9587 22.4876 12.9729 21.3232 9.99242C20.7322 8.47909 19.5421 7.64465 18.0137 7.63938C16.458 7.63411 15.2788 8.46987 14.6688 10.0346C13.4025 13.2814 12.1431 16.5322 10.8823 19.7816C10.8144 19.9582 10.7587 20.1402 10.6799 20.3695C11.3891 19.5535 12.7264 19.5509 13.912 19.5509C14.5438 19.5509 15.1755 19.5773 15.8046 19.5351C16.0763 19.5351 16.2828 19.3637 16.348 19.2029C17.0953 17.3601 17.8506 16.0075 17.458 14.1725C17.4362 14.0737 17.4553 13.9656 17.4553 13.8614C17.602 13.9919 17.6699 14.1422 17.7297 14.2964C18.3506 15.8902 18.9592 17.4879 19.6032 19.0724C19.682 19.2675 19.8451 19.5351 20.2201 19.5325C21.8164 19.568 23.3136 19.5535 25.0037 19.5535Z" fill="#FC6161"/>
</svg>
