<svg width="336" height="192" viewBox="0 0 336 192" fill="none" xmlns="http://www.w3.org/2000/svg">
<mask id="path-1-outside-1_1_6265" maskUnits="userSpaceOnUse" x="20.6069" y="11.4739" width="294" height="170" fill="black">
<rect fill="white" x="20.6069" y="11.4739" width="294" height="170"/>
<path d="M20.6069 11.4739H314.495V180.526H20.6069V11.4739Z"/>
</mask>
<path d="M314.495 180.526V179.943H20.6069V180.526V181.11H314.495V180.526Z" fill="#B1B9BE" mask="url(#path-1-outside-1_1_6265)"/>
<mask id="path-3-inside-2_1_6265" fill="white">
<path d="M20.6069 11.4739H314.495V53.4896H20.6069V11.4739Z"/>
</mask>
<path d="M20.6069 11.4739V12.0574H314.495V11.4739V10.8903H20.6069V11.4739Z" fill="#B1B9BE" mask="url(#path-3-inside-2_1_6265)"/>
<path d="M33.3307 36.9817V27.8025H36.2834C38.3375 27.8025 39.6727 28.714 39.6727 30.6397V30.691C39.6727 32.6296 38.2862 33.5026 36.322 33.5026H35.0382V36.9817H33.3307ZM35.0382 32.2573H36.2834C37.4132 32.2573 38.0166 31.7053 38.0166 30.691V30.6397C38.0166 29.5485 37.3619 29.1248 36.2834 29.1248H35.0382V32.2573ZM42.659 37.1101C41.4265 37.1101 40.4123 36.5196 40.4123 35.1202C40.4123 33.5539 41.9272 32.9891 43.8529 32.9891H44.6874V32.6424C44.6874 31.7438 44.3793 31.2944 43.4678 31.2944C42.659 31.2944 42.261 31.6796 42.184 32.3472H40.6819C40.8103 30.7809 42.0556 30.1262 43.5576 30.1262C45.0597 30.1262 46.2408 30.7424 46.2408 32.5783V36.9817H44.7131V36.1601C44.2766 36.7378 43.686 37.1101 42.659 37.1101ZM43.0313 35.9932C43.9813 35.9932 44.6874 35.4925 44.6874 34.6324V33.9648H43.8914C42.7103 33.9648 41.9529 34.2344 41.9529 35.056C41.9529 35.6209 42.261 35.9932 43.0313 35.9932ZM48.0213 36.9817V30.2674H49.5747V31.333C49.8957 30.6782 50.6403 30.1262 51.7444 30.1262C53.0924 30.1262 54.0424 30.9093 54.0424 32.7708V36.9817H52.489V32.8992C52.489 31.885 52.0781 31.4228 51.1538 31.4228C50.2936 31.4228 49.5747 31.962 49.5747 33.0276V36.9817H48.0213ZM58.7848 37.1101C56.8077 37.1101 55.3827 35.8135 55.3827 33.6952V33.5925C55.3827 31.5127 56.8077 30.1262 58.7206 30.1262C60.3895 30.1262 61.8916 31.1147 61.8916 33.5154V33.9648H56.9746C57.0259 35.2357 57.6678 35.9547 58.8233 35.9547C59.7605 35.9547 60.2483 35.5824 60.3638 34.9276H61.8659C61.6477 36.3398 60.5051 37.1101 58.7848 37.1101ZM57.0003 32.9249H60.351C60.274 31.7695 59.6834 31.2559 58.7206 31.2559C57.7834 31.2559 57.1543 31.885 57.0003 32.9249ZM63.3176 36.9817V27.1606H64.871V36.9817H63.3176ZM72.2243 35.7108L72.5324 33.5668H71.4668L71.1587 35.7108H70.0161L70.3242 33.5668H69.3357V32.3087H70.5168L70.7222 30.8965H69.6695V29.6768H70.9019L71.1715 27.8025H72.3141L72.0445 29.6768H73.1101L73.3925 27.8025H74.5351L74.2527 29.6768H75.2926V30.8965H74.073L73.8675 32.3087H74.9459V33.5668H73.675L73.3669 35.7108H72.2243ZM71.8648 30.8965L71.6594 32.3087H72.725L72.9304 30.8965H71.8648Z" fill="#292D3A"/>
<path d="M299.888 30.8593C300.059 30.6884 300.336 30.6884 300.507 30.8593C300.678 31.0302 300.678 31.3073 300.507 31.4782L297.881 34.1042C297.71 34.2751 297.433 34.2751 297.262 34.1042L294.636 31.4782C294.465 31.3073 294.465 31.0302 294.636 30.8593C294.807 30.6884 295.084 30.6884 295.255 30.8593L297.572 33.1759L299.888 30.8593Z" fill="#3E4550"/>
<path d="M29.8223 112.508V106.495H27.8803V105.832H32.5767V106.495H30.6346V112.508H29.8223ZM33.6275 112.508V105.29H34.4025V108.4C34.6266 107.942 35.1681 107.541 35.9711 107.541C36.9794 107.541 37.689 108.092 37.689 109.511V112.508H36.9141V109.455C36.9141 108.596 36.5499 108.213 35.7656 108.213C35.0467 108.213 34.4025 108.67 34.4025 109.548V112.508H33.6275ZM41.2058 112.592C39.8239 112.592 38.8436 111.621 38.8436 110.118V110.043C38.8436 108.568 39.7866 107.541 41.1311 107.541C42.2609 107.541 43.3253 108.222 43.3253 109.968V110.22H39.6465C39.6839 111.331 40.2161 111.948 41.2151 111.948C41.9714 111.948 42.4102 111.668 42.513 111.098H43.2879C43.1198 112.078 42.3075 112.592 41.2058 112.592ZM39.6746 109.595H42.5316C42.4569 108.586 41.9341 108.185 41.1311 108.185C40.3375 108.185 39.8053 108.726 39.6746 109.595ZM47.0414 112.508V105.832H47.8537V108.857H51.3643V105.832H52.1766V112.508H51.3643V109.539H47.8537V112.508H47.0414ZM53.8616 112.508V105.832H55.757C57.0361 105.832 58.0912 106.392 58.0912 107.783V107.821C58.0912 109.24 57.0268 109.791 55.757 109.791H54.6739V112.508H53.8616ZM54.6739 109.147H55.813C56.7654 109.147 57.2789 108.68 57.2789 107.821V107.783C57.2789 106.84 56.7187 106.486 55.813 106.486H54.6739V109.147ZM59.2868 112.508V105.832H63.1803V106.495H60.0991V108.764H62.5827V109.427H60.0991V111.845H63.3483V112.508H59.2868ZM67.0462 112.508V105.832H68.8109C71.1077 105.832 72.1908 107.251 72.1908 109.109V109.193C72.1908 111.042 71.1264 112.508 68.7922 112.508H67.0462ZM67.8585 111.845H68.7735C70.4915 111.845 71.3505 110.818 71.3505 109.184V109.109C71.3505 107.569 70.6036 106.486 68.7642 106.486H67.8585V111.845ZM75.4894 112.592C74.1076 112.592 73.1272 111.621 73.1272 110.118V110.043C73.1272 108.568 74.0702 107.541 75.4147 107.541C76.5445 107.541 77.6089 108.222 77.6089 109.968V110.22H73.9302C73.9675 111.331 74.4997 111.948 75.4988 111.948C76.255 111.948 76.6939 111.668 76.7966 111.098H77.5715C77.4035 112.078 76.5912 112.592 75.4894 112.592ZM73.9582 109.595H76.8152C76.7405 108.586 76.2177 108.185 75.4147 108.185C74.6211 108.185 74.0889 108.726 73.9582 109.595ZM80.3562 112.592C79.1891 112.592 78.4888 112.004 78.4421 111.005H79.1984C79.2544 111.583 79.5625 111.948 80.3468 111.948C81.0844 111.948 81.4112 111.696 81.4112 111.173C81.4112 110.659 81.0284 110.491 80.2721 110.351C79.0023 110.118 78.5728 109.763 78.5728 108.913C78.5728 108.007 79.4598 107.541 80.2254 107.541C81.1031 107.541 81.8594 107.895 81.9901 108.951H81.2432C81.1311 108.418 80.8323 108.185 80.2161 108.185C79.6559 108.185 79.2918 108.465 79.2918 108.885C79.2918 109.324 79.5345 109.501 80.4309 109.66C81.4392 109.847 82.1488 110.071 82.1488 111.107C82.1488 111.994 81.5419 112.592 80.3562 112.592ZM83.7218 106.607C83.4417 106.607 83.2083 106.374 83.2083 106.093C83.2083 105.813 83.4417 105.58 83.7218 105.58C84.0019 105.58 84.2353 105.813 84.2353 106.093C84.2353 106.374 84.0019 106.607 83.7218 106.607ZM83.3483 112.508V107.625H84.1233V112.508H83.3483ZM87.6608 114.291C86.2136 114.291 85.5787 113.61 85.448 112.788H86.2416C86.3537 113.348 86.8205 113.638 87.6515 113.638C88.6132 113.638 89.2201 113.18 89.2201 112.134V111.425C88.94 111.901 88.2771 112.349 87.5675 112.349C86.2883 112.349 85.3453 111.378 85.3453 110.034V109.968C85.3453 108.642 86.279 107.541 87.6235 107.541C88.4358 107.541 88.94 107.933 89.2201 108.409V107.625H89.995V112.181C89.9857 113.6 89.024 114.291 87.6608 114.291ZM87.6515 111.705C88.5572 111.705 89.2481 111.07 89.2481 109.978V109.912C89.2481 108.82 88.6505 108.185 87.6982 108.185C86.7271 108.185 86.1483 108.904 86.1483 109.931V110.006C86.1483 111.07 86.8299 111.705 87.6515 111.705ZM91.5632 112.508V107.625H92.3381V108.4C92.5622 107.942 93.1038 107.541 93.9067 107.541C94.9151 107.541 95.6247 108.092 95.6247 109.511V112.508H94.8497V109.455C94.8497 108.596 94.4856 108.213 93.7013 108.213C92.9824 108.213 92.3381 108.67 92.3381 109.548V112.508H91.5632ZM101.827 112.592C100.044 112.592 99.3996 111.612 99.2782 110.472H100.063C100.165 111.266 100.483 111.938 101.827 111.938C102.686 111.938 103.349 111.434 103.349 110.678C103.349 109.922 103.004 109.604 101.734 109.399C100.333 109.184 99.5023 108.745 99.5023 107.559C99.5023 106.532 100.389 105.748 101.65 105.748C102.985 105.748 103.816 106.402 103.947 107.587H103.218C103.06 106.747 102.574 106.402 101.65 106.402C100.735 106.402 100.259 106.859 100.259 107.485C100.259 108.138 100.501 108.474 101.865 108.68C103.349 108.913 104.133 109.361 104.133 110.622C104.133 111.742 103.153 112.592 101.827 112.592ZM105.816 114.207L106.74 112.004L104.826 107.625H105.657L107.151 111.126L108.505 107.625H109.298L106.6 114.207H105.816ZM111.831 112.592C110.664 112.592 109.964 112.004 109.917 111.005H110.674C110.73 111.583 111.038 111.948 111.822 111.948C112.56 111.948 112.886 111.696 112.886 111.173C112.886 110.659 112.504 110.491 111.747 110.351C110.478 110.118 110.048 109.763 110.048 108.913C110.048 108.007 110.935 107.541 111.701 107.541C112.578 107.541 113.335 107.895 113.465 108.951H112.718C112.606 108.418 112.308 108.185 111.691 108.185C111.131 108.185 110.767 108.465 110.767 108.885C110.767 109.324 111.01 109.501 111.906 109.66C112.915 109.847 113.624 110.071 113.624 111.107C113.624 111.994 113.017 112.592 111.831 112.592ZM116.289 112.573C115.402 112.573 114.973 112.05 114.973 111.285V108.278H114.273V107.625H114.973V106.514H115.748V107.625H116.887V108.278H115.748V111.21C115.748 111.686 115.963 111.92 116.355 111.92C116.598 111.92 116.784 111.882 116.952 111.817V112.47C116.794 112.527 116.607 112.573 116.289 112.573ZM120.122 112.592C118.74 112.592 117.76 111.621 117.76 110.118V110.043C117.76 108.568 118.703 107.541 120.047 107.541C121.177 107.541 122.241 108.222 122.241 109.968V110.22H118.563C118.6 111.331 119.132 111.948 120.131 111.948C120.888 111.948 121.326 111.668 121.429 111.098H122.204C122.036 112.078 121.224 112.592 120.122 112.592ZM118.591 109.595H121.448C121.373 108.586 120.85 108.185 120.047 108.185C119.254 108.185 118.721 108.726 118.591 109.595ZM123.431 112.508V107.625H124.205V108.372C124.43 107.914 124.962 107.541 125.662 107.541C126.288 107.541 126.838 107.802 127.091 108.456C127.427 107.821 128.155 107.541 128.762 107.541C129.64 107.541 130.405 108.064 130.405 109.483V112.508H129.63V109.427C129.63 108.568 129.266 108.213 128.594 108.213C127.959 108.213 127.305 108.642 127.305 109.52V112.508H126.53V109.427C126.53 108.568 126.166 108.213 125.494 108.213C124.859 108.213 124.205 108.642 124.205 109.52V112.508H123.431ZM135.38 112.508L133.877 107.625H134.717L135.856 111.555L137.042 107.625H137.714L138.825 111.555L139.974 107.625H140.767L139.245 112.508H138.386L137.369 108.848L136.229 112.508H135.38ZM142.944 112.592C142.039 112.592 141.32 112.153 141.32 111.154C141.32 110.024 142.515 109.641 143.766 109.641H144.466V109.287C144.466 108.512 144.167 108.185 143.421 108.185C142.748 108.185 142.375 108.465 142.3 109.063H141.525C141.628 107.951 142.515 107.541 143.458 107.541C144.392 107.541 145.241 107.923 145.241 109.287V112.508H144.466V111.892C144.102 112.349 143.663 112.592 142.944 112.592ZM143.019 111.976C143.841 111.976 144.466 111.555 144.466 110.799V110.192H143.794C142.814 110.192 142.095 110.435 142.095 111.154C142.095 111.658 142.337 111.976 143.019 111.976ZM148.276 112.592C147.109 112.592 146.409 112.004 146.362 111.005H147.118C147.174 111.583 147.482 111.948 148.267 111.948C149.004 111.948 149.331 111.696 149.331 111.173C149.331 110.659 148.948 110.491 148.192 110.351C146.922 110.118 146.493 109.763 146.493 108.913C146.493 108.007 147.38 107.541 148.145 107.541C149.023 107.541 149.779 107.895 149.91 108.951H149.163C149.051 108.418 148.752 108.185 148.136 108.185C147.576 108.185 147.212 108.465 147.212 108.885C147.212 109.324 147.454 109.501 148.351 109.66C149.359 109.847 150.069 110.071 150.069 111.107C150.069 111.994 149.462 112.592 148.276 112.592ZM155.747 112.592C154.383 112.592 153.356 111.63 153.356 110.118V110.043C153.356 108.549 154.421 107.541 155.728 107.541C156.746 107.541 157.698 108.007 157.847 109.249H157.082C156.96 108.474 156.4 108.185 155.728 108.185C154.841 108.185 154.159 108.894 154.159 110.043V110.118C154.159 111.313 154.813 111.948 155.756 111.948C156.447 111.948 157.072 111.546 157.156 110.753H157.875C157.773 111.808 156.923 112.592 155.747 112.592ZM159.045 112.508V107.625H159.82V108.502C160.128 107.951 160.549 107.569 161.426 107.541V108.269C160.446 108.316 159.82 108.624 159.82 109.828V112.508H159.045ZM164.417 112.592C163.035 112.592 162.055 111.621 162.055 110.118V110.043C162.055 108.568 162.998 107.541 164.342 107.541C165.472 107.541 166.537 108.222 166.537 109.968V110.22H162.858C162.895 111.331 163.427 111.948 164.426 111.948C165.183 111.948 165.622 111.668 165.724 111.098H166.499C166.331 112.078 165.519 112.592 164.417 112.592ZM162.886 109.595H165.743C165.668 108.586 165.145 108.185 164.342 108.185C163.549 108.185 163.017 108.726 162.886 109.595ZM168.994 112.592C168.089 112.592 167.37 112.153 167.37 111.154C167.37 110.024 168.565 109.641 169.816 109.641H170.516V109.287C170.516 108.512 170.218 108.185 169.471 108.185C168.798 108.185 168.425 108.465 168.35 109.063H167.575C167.678 107.951 168.565 107.541 169.508 107.541C170.442 107.541 171.291 107.923 171.291 109.287V112.508H170.516V111.892C170.152 112.349 169.713 112.592 168.994 112.592ZM169.069 111.976C169.891 111.976 170.516 111.555 170.516 110.799V110.192H169.844C168.864 110.192 168.145 110.435 168.145 111.154C168.145 111.658 168.388 111.976 169.069 111.976ZM174.298 112.573C173.411 112.573 172.982 112.05 172.982 111.285V108.278H172.281V107.625H172.982V106.514H173.757V107.625H174.896V108.278H173.757V111.21C173.757 111.686 173.971 111.92 174.363 111.92C174.606 111.92 174.793 111.882 174.961 111.817V112.47C174.802 112.527 174.616 112.573 174.298 112.573ZM178.131 112.592C176.749 112.592 175.768 111.621 175.768 110.118V110.043C175.768 108.568 176.711 107.541 178.056 107.541C179.186 107.541 180.25 108.222 180.25 109.968V110.22H176.571C176.609 111.331 177.141 111.948 178.14 111.948C178.896 111.948 179.335 111.668 179.438 111.098H180.213C180.045 112.078 179.232 112.592 178.131 112.592ZM176.599 109.595H179.456C179.382 108.586 178.859 108.185 178.056 108.185C177.262 108.185 176.73 108.726 176.599 109.595ZM183.278 112.592C181.999 112.592 181.075 111.686 181.075 110.164V110.09C181.075 108.596 182.009 107.541 183.353 107.541C184.165 107.541 184.67 107.933 184.95 108.409V105.29H185.725V112.508H184.95V111.668C184.67 112.144 183.988 112.592 183.278 112.592ZM183.363 111.948C184.268 111.948 184.978 111.35 184.978 110.099V110.024C184.978 108.773 184.38 108.185 183.428 108.185C182.457 108.185 181.878 108.866 181.878 110.052V110.127C181.878 111.359 182.541 111.948 183.363 111.948ZM191.248 112.573C190.361 112.573 189.932 112.05 189.932 111.285V108.278H189.232V107.625H189.932V106.514H190.707V107.625H191.846V108.278H190.707V111.21C190.707 111.686 190.922 111.92 191.314 111.92C191.557 111.92 191.743 111.882 191.911 111.817V112.47C191.753 112.527 191.566 112.573 191.248 112.573ZM195.109 112.592C193.718 112.592 192.719 111.537 192.719 110.108V110.034C192.719 108.568 193.736 107.541 195.118 107.541C196.5 107.541 197.518 108.558 197.518 110.024V110.099C197.518 111.574 196.5 112.592 195.109 112.592ZM195.118 111.948C196.099 111.948 196.715 111.21 196.715 110.108V110.043C196.715 108.913 196.089 108.185 195.118 108.185C194.138 108.185 193.522 108.913 193.522 110.034V110.108C193.522 111.219 194.129 111.948 195.118 111.948ZM203.187 112.592C201.805 112.592 200.825 111.621 200.825 110.118V110.043C200.825 108.568 201.768 107.541 203.112 107.541C204.242 107.541 205.306 108.222 205.306 109.968V110.22H201.628C201.665 111.331 202.197 111.948 203.196 111.948C203.952 111.948 204.391 111.668 204.494 111.098H205.269C205.101 112.078 204.289 112.592 203.187 112.592ZM201.656 109.595H204.513C204.438 108.586 203.915 108.185 203.112 108.185C202.318 108.185 201.786 108.726 201.656 109.595ZM206.495 112.508V107.625H207.27V108.372C207.494 107.914 208.027 107.541 208.727 107.541C209.352 107.541 209.903 107.802 210.155 108.456C210.492 107.821 211.22 107.541 211.827 107.541C212.704 107.541 213.47 108.064 213.47 109.483V112.508H212.695V109.427C212.695 108.568 212.331 108.213 211.659 108.213C211.024 108.213 210.37 108.642 210.37 109.52V112.508H209.595V109.427C209.595 108.568 209.231 108.213 208.559 108.213C207.924 108.213 207.27 108.642 207.27 109.52V112.508H206.495ZM214.993 114.207V107.625H215.768V108.446C216.048 107.97 216.711 107.541 217.421 107.541C218.7 107.541 219.643 108.474 219.643 109.996V110.071C219.643 111.565 218.765 112.592 217.421 112.592C216.618 112.592 216.048 112.19 215.768 111.705V114.207H214.993ZM217.346 111.948C218.317 111.948 218.84 111.294 218.84 110.108V110.034C218.84 108.801 218.159 108.185 217.337 108.185C216.431 108.185 215.74 108.782 215.74 110.034V110.108C215.74 111.359 216.394 111.948 217.346 111.948ZM222.873 112.592C221.482 112.592 220.483 111.537 220.483 110.108V110.034C220.483 108.568 221.501 107.541 222.882 107.541C224.264 107.541 225.282 108.558 225.282 110.024V110.099C225.282 111.574 224.264 112.592 222.873 112.592ZM222.882 111.948C223.863 111.948 224.479 111.21 224.479 110.108V110.043C224.479 108.913 223.854 108.185 222.882 108.185C221.902 108.185 221.286 108.913 221.286 110.034V110.108C221.286 111.219 221.893 111.948 222.882 111.948ZM227.371 112.508L225.868 107.625H226.708L227.847 111.555L229.033 107.625H229.705L230.816 111.555L231.965 107.625H232.759L231.237 112.508H230.378L229.36 108.848L228.221 112.508H227.371ZM235.711 112.592C234.329 112.592 233.348 111.621 233.348 110.118V110.043C233.348 108.568 234.291 107.541 235.636 107.541C236.766 107.541 237.83 108.222 237.83 109.968V110.22H234.151C234.189 111.331 234.721 111.948 235.72 111.948C236.476 111.948 236.915 111.668 237.018 111.098H237.793C237.625 112.078 236.812 112.592 235.711 112.592ZM234.179 109.595H237.036C236.962 108.586 236.439 108.185 235.636 108.185C234.842 108.185 234.31 108.726 234.179 109.595ZM239.019 112.508V107.625H239.794V108.502C240.102 107.951 240.522 107.569 241.4 107.541V108.269C240.42 108.316 239.794 108.624 239.794 109.828V112.508H239.019ZM246.84 112.592C245.561 112.592 244.636 111.686 244.636 110.164V110.09C244.636 108.596 245.57 107.541 246.915 107.541C247.727 107.541 248.231 107.933 248.511 108.409V105.29H249.286V112.508H248.511V111.668C248.231 112.144 247.55 112.592 246.84 112.592ZM246.924 111.948C247.83 111.948 248.539 111.35 248.539 110.099V110.024C248.539 108.773 247.942 108.185 246.989 108.185C246.018 108.185 245.439 108.866 245.439 110.052V110.127C245.439 111.359 246.102 111.948 246.924 111.948ZM252.852 112.592C251.471 112.592 250.49 111.621 250.49 110.118V110.043C250.49 108.568 251.433 107.541 252.778 107.541C253.907 107.541 254.972 108.222 254.972 109.968V110.22H251.293C251.331 111.331 251.863 111.948 252.862 111.948C253.618 111.948 254.057 111.668 254.16 111.098H254.935C254.766 112.078 253.954 112.592 252.852 112.592ZM251.321 109.595H254.178C254.104 108.586 253.581 108.185 252.778 108.185C251.984 108.185 251.452 108.726 251.321 109.595ZM257.719 112.592C256.552 112.592 255.852 112.004 255.805 111.005H256.561C256.617 111.583 256.926 111.948 257.71 111.948C258.447 111.948 258.774 111.696 258.774 111.173C258.774 110.659 258.391 110.491 257.635 110.351C256.365 110.118 255.936 109.763 255.936 108.913C255.936 108.007 256.823 107.541 257.588 107.541C258.466 107.541 259.222 107.895 259.353 108.951H258.606C258.494 108.418 258.195 108.185 257.579 108.185C257.019 108.185 256.655 108.465 256.655 108.885C256.655 109.324 256.898 109.501 257.794 109.66C258.802 109.847 259.512 110.071 259.512 111.107C259.512 111.994 258.905 112.592 257.719 112.592ZM261.085 106.607C260.805 106.607 260.571 106.374 260.571 106.093C260.571 105.813 260.805 105.58 261.085 105.58C261.365 105.58 261.598 105.813 261.598 106.093C261.598 106.374 261.365 106.607 261.085 106.607ZM260.711 112.508V107.625H261.486V112.508H260.711ZM265.024 114.291C263.577 114.291 262.942 113.61 262.811 112.788H263.605C263.717 113.348 264.184 113.638 265.014 113.638C265.976 113.638 266.583 113.18 266.583 112.134V111.425C266.303 111.901 265.64 112.349 264.93 112.349C263.651 112.349 262.708 111.378 262.708 110.034V109.968C262.708 108.642 263.642 107.541 264.986 107.541C265.799 107.541 266.303 107.933 266.583 108.409V107.625H267.358V112.181C267.349 113.6 266.387 114.291 265.024 114.291ZM265.014 111.705C265.92 111.705 266.611 111.07 266.611 109.978V109.912C266.611 108.82 266.014 108.185 265.061 108.185C264.09 108.185 263.511 108.904 263.511 109.931V110.006C263.511 111.07 264.193 111.705 265.014 111.705ZM268.926 112.508V107.625H269.701V108.4C269.925 107.942 270.467 107.541 271.27 107.541C272.278 107.541 272.988 108.092 272.988 109.511V112.508H272.213V109.455C272.213 108.596 271.849 108.213 271.064 108.213C270.345 108.213 269.701 108.67 269.701 109.548V112.508H268.926ZM276.504 112.592C275.123 112.592 274.142 111.621 274.142 110.118V110.043C274.142 108.568 275.085 107.541 276.43 107.541C277.56 107.541 278.624 108.222 278.624 109.968V110.22H274.945C274.983 111.331 275.515 111.948 276.514 111.948C277.27 111.948 277.709 111.668 277.812 111.098H278.587C278.419 112.078 277.606 112.592 276.504 112.592ZM274.973 109.595H277.83C277.756 108.586 277.233 108.185 276.43 108.185C275.636 108.185 275.104 108.726 274.973 109.595ZM279.813 112.508V107.625H280.588V108.502C280.896 107.951 281.316 107.569 282.194 107.541V108.269C281.214 108.316 280.588 108.624 280.588 109.828V112.508H279.813ZM284.79 112.592C283.623 112.592 282.923 112.004 282.876 111.005H283.633C283.689 111.583 283.997 111.948 284.781 111.948C285.519 111.948 285.846 111.696 285.846 111.173C285.846 110.659 285.463 110.491 284.706 110.351C283.437 110.118 283.007 109.763 283.007 108.913C283.007 108.007 283.894 107.541 284.66 107.541C285.537 107.541 286.294 107.895 286.424 108.951H285.677C285.565 108.418 285.267 108.185 284.65 108.185C284.09 108.185 283.726 108.465 283.726 108.885C283.726 109.324 283.969 109.501 284.865 109.66C285.874 109.847 286.583 110.071 286.583 111.107C286.583 111.994 285.976 112.592 284.79 112.592ZM291.458 112.592C290.552 112.592 289.833 112.153 289.833 111.154C289.833 110.024 291.029 109.641 292.28 109.641H292.98V109.287C292.98 108.512 292.681 108.185 291.934 108.185C291.262 108.185 290.888 108.465 290.814 109.063H290.039C290.142 107.951 291.029 107.541 291.972 107.541C292.905 107.541 293.755 107.923 293.755 109.287V112.508H292.98V111.892C292.616 112.349 292.177 112.592 291.458 112.592ZM291.533 111.976C292.354 111.976 292.98 111.555 292.98 110.799V110.192H292.308C291.327 110.192 290.608 110.435 290.608 111.154C290.608 111.658 290.851 111.976 291.533 111.976ZM295.277 112.508V107.625H296.052V108.4C296.276 107.942 296.818 107.541 297.621 107.541C298.629 107.541 299.339 108.092 299.339 109.511V112.508H298.564V109.455C298.564 108.596 298.2 108.213 297.415 108.213C296.696 108.213 296.052 108.67 296.052 109.548V112.508H295.277ZM302.697 112.592C301.418 112.592 300.493 111.686 300.493 110.164V110.09C300.493 108.596 301.427 107.541 302.771 107.541C303.584 107.541 304.088 107.933 304.368 108.409V105.29H305.143V112.508H304.368V111.668C304.088 112.144 303.406 112.592 302.697 112.592ZM302.781 111.948C303.686 111.948 304.396 111.35 304.396 110.099V110.024C304.396 108.773 303.798 108.185 302.846 108.185C301.875 108.185 301.296 108.866 301.296 110.052V110.127C301.296 111.359 301.959 111.948 302.781 111.948ZM30.2331 126.592C28.954 126.592 28.0297 125.686 28.0297 124.164V124.09C28.0297 122.596 28.9633 121.541 30.3078 121.541C31.1201 121.541 31.6243 121.933 31.9044 122.409V119.29H32.6794V126.508H31.9044V125.668C31.6243 126.144 30.9427 126.592 30.2331 126.592ZM30.3172 125.948C31.2228 125.948 31.9324 125.35 31.9324 124.099V124.024C31.9324 122.773 31.3349 122.185 30.3825 122.185C29.4115 122.185 28.8326 122.866 28.8326 124.052V124.127C28.8326 125.359 29.4955 125.948 30.3172 125.948ZM36.2456 126.592C34.8638 126.592 33.8834 125.621 33.8834 124.118V124.043C33.8834 122.568 34.8264 121.541 36.1709 121.541C37.3007 121.541 38.3651 122.222 38.3651 123.968V124.22H34.6864C34.7237 125.331 35.2559 125.948 36.255 125.948C37.0112 125.948 37.4501 125.668 37.5528 125.098H38.3277C38.1597 126.078 37.3474 126.592 36.2456 126.592ZM34.7144 123.595H37.5714C37.4967 122.586 36.9739 122.185 36.1709 122.185C35.3773 122.185 34.8451 122.726 34.7144 123.595ZM40.7317 126.508L38.9577 121.625H39.7981L41.2453 125.724L42.6738 121.625H43.4768L41.7214 126.508H40.7317ZM46.3575 126.592C44.9756 126.592 43.9952 125.621 43.9952 124.118V124.043C43.9952 122.568 44.9383 121.541 46.2828 121.541C47.4125 121.541 48.4769 122.222 48.4769 123.968V124.22H44.7982C44.8356 125.331 45.3678 125.948 46.3668 125.948C47.1231 125.948 47.5619 125.668 47.6646 125.098H48.4396C48.2715 126.078 47.4592 126.592 46.3575 126.592ZM44.8262 123.595H47.6833C47.6086 122.586 47.0857 122.185 46.2828 122.185C45.4891 122.185 44.9569 122.726 44.8262 123.595ZM49.6847 126.508V119.29H50.469V126.508H49.6847ZM54.081 126.592C52.6899 126.592 51.6908 125.537 51.6908 124.108V124.034C51.6908 122.568 52.7085 121.541 54.0904 121.541C55.4722 121.541 56.4899 122.558 56.4899 124.024V124.099C56.4899 125.574 55.4722 126.592 54.081 126.592ZM54.0904 125.948C55.0707 125.948 55.687 125.21 55.687 124.108V124.043C55.687 122.913 55.0614 122.185 54.0904 122.185C53.11 122.185 52.4938 122.913 52.4938 124.034V124.108C52.4938 125.219 53.1007 125.948 54.0904 125.948ZM57.6899 128.207V121.625H58.4648V122.446C58.7449 121.97 59.4078 121.541 60.1174 121.541C61.3966 121.541 62.3396 122.474 62.3396 123.996V124.071C62.3396 125.565 61.4619 126.592 60.1174 126.592C59.3145 126.592 58.7449 126.19 58.4648 125.705V128.207H57.6899ZM60.0427 125.948C61.0138 125.948 61.5366 125.294 61.5366 124.108V124.034C61.5366 122.801 60.8551 122.185 60.0334 122.185C59.1277 122.185 58.4368 122.782 58.4368 124.034V124.108C58.4368 125.359 59.0904 125.948 60.0427 125.948ZM65.5417 126.592C64.1598 126.592 63.1795 125.621 63.1795 124.118V124.043C63.1795 122.568 64.1225 121.541 65.467 121.541C66.5968 121.541 67.6612 122.222 67.6612 123.968V124.22H63.9824C64.0198 125.331 64.552 125.948 65.551 125.948C66.3073 125.948 66.7461 125.668 66.8488 125.098H67.6238C67.4557 126.078 66.6434 126.592 65.5417 126.592ZM64.0105 123.595H66.8675C66.7928 122.586 66.27 122.185 65.467 122.185C64.6734 122.185 64.1412 122.726 64.0105 123.595ZM68.8503 126.508V121.625H69.6252V122.502C69.9334 121.951 70.3535 121.569 71.2312 121.541V122.269C70.2508 122.316 69.6252 122.624 69.6252 123.828V126.508H68.8503ZM73.8277 126.592C72.6606 126.592 71.9603 126.004 71.9136 125.005H72.6699C72.7259 125.583 73.0341 125.948 73.8183 125.948C74.556 125.948 74.8827 125.696 74.8827 125.173C74.8827 124.659 74.4999 124.491 73.7436 124.351C72.4738 124.118 72.0443 123.763 72.0443 122.913C72.0443 122.007 72.9313 121.541 73.697 121.541C74.5746 121.541 75.3309 121.895 75.4616 122.951H74.7147C74.6026 122.418 74.3039 122.185 73.6876 122.185C73.1274 122.185 72.7633 122.465 72.7633 122.885C72.7633 123.324 73.006 123.501 73.9024 123.66C74.9107 123.847 75.6203 124.071 75.6203 125.107C75.6203 125.994 75.0135 126.592 73.8277 126.592ZM77.3334 126.555C77.0066 126.555 76.7358 126.293 76.7358 125.957C76.7358 125.621 77.0066 125.359 77.3334 125.359C77.6602 125.359 77.9309 125.621 77.9309 125.957C77.9309 126.293 77.6602 126.555 77.3334 126.555Z" fill="#3E4550"/>
<mask id="path-8-inside-3_1_6265" fill="white">
<path d="M20.6069 53.4896H314.495V95.5052H20.6069V53.4896Z"/>
</mask>
<path d="M20.6069 53.4896V54.0731H314.495V53.4896V52.906H20.6069V53.4896Z" fill="#B1B9BE" mask="url(#path-8-inside-3_1_6265)"/>
<path d="M33.3307 78.9974V69.8181H36.2834C38.3375 69.8181 39.6727 70.7296 39.6727 72.6554V72.7067C39.6727 74.6453 38.2862 75.5183 36.322 75.5183H35.0382V78.9974H33.3307ZM35.0382 74.273H36.2834C37.4132 74.273 38.0166 73.7209 38.0166 72.7067V72.6554C38.0166 71.5641 37.3619 71.1405 36.2834 71.1405H35.0382V74.273ZM42.659 79.1258C41.4265 79.1258 40.4123 78.5352 40.4123 77.1359C40.4123 75.5696 41.9272 75.0047 43.8529 75.0047H44.6874V74.6581C44.6874 73.7594 44.3793 73.3101 43.4678 73.3101C42.659 73.3101 42.261 73.6952 42.184 74.3628H40.6819C40.8103 72.7966 42.0556 72.1418 43.5576 72.1418C45.0597 72.1418 46.2408 72.7581 46.2408 74.5939V78.9974H44.7131V78.1758C44.2766 78.7535 43.686 79.1258 42.659 79.1258ZM43.0313 78.0089C43.9813 78.0089 44.6874 77.5082 44.6874 76.648V75.9804H43.8914C42.7103 75.9804 41.9529 76.25 41.9529 77.0717C41.9529 77.6366 42.261 78.0089 43.0313 78.0089ZM48.0213 78.9974V72.2831H49.5747V73.3486C49.8957 72.6939 50.6403 72.1418 51.7444 72.1418C53.0924 72.1418 54.0424 72.925 54.0424 74.7865V78.9974H52.489V74.9149C52.489 73.9007 52.0781 73.4385 51.1538 73.4385C50.2936 73.4385 49.5747 73.9777 49.5747 75.0433V78.9974H48.0213ZM58.7848 79.1258C56.8077 79.1258 55.3827 77.8291 55.3827 75.7108V75.6081C55.3827 73.5284 56.8077 72.1418 58.7206 72.1418C60.3895 72.1418 61.8916 73.1304 61.8916 75.5311V75.9804H56.9746C57.0259 77.2514 57.6678 77.9703 58.8233 77.9703C59.7605 77.9703 60.2483 77.598 60.3638 76.9433H61.8659C61.6477 78.3555 60.5051 79.1258 58.7848 79.1258ZM57.0003 74.9405H60.351C60.274 73.7851 59.6834 73.2716 58.7206 73.2716C57.7834 73.2716 57.1543 73.9007 57.0003 74.9405ZM63.3176 78.9974V69.1762H64.871V78.9974H63.3176ZM72.2243 77.7264L72.5324 75.5825H71.4668L71.1587 77.7264H70.0161L70.3242 75.5825H69.3357V74.3243H70.5168L70.7222 72.9121H69.6695V71.6925H70.9019L71.1715 69.8181H72.3141L72.0445 71.6925H73.1101L73.3925 69.8181H74.5351L74.2527 71.6925H75.2926V72.9121H74.073L73.8675 74.3243H74.9459V75.5825H73.675L73.3669 77.7264H72.2243ZM71.8648 72.9121L71.6594 74.3243H72.725L72.9304 72.9121H71.8648Z" fill="#292D3A"/>
<path d="M296.096 75.9396C295.944 76.0915 295.698 76.0915 295.546 75.9396C295.394 75.7877 295.394 75.5414 295.546 75.3895L297.88 73.0553C298.032 72.9033 298.278 72.9033 298.43 73.0553L300.765 75.3895C300.917 75.5414 300.917 75.7877 300.765 75.9396C300.613 76.0915 300.366 76.0915 300.214 75.9396L298.155 73.8804L296.096 75.9396Z" fill="#3E4550"/>
<mask id="path-12-inside-4_1_6265" fill="white">
<path d="M20.6069 138.51H314.495V180.526H20.6069V138.51Z"/>
</mask>
<path d="M20.6069 138.51V139.094H314.495V138.51V137.927H20.6069V138.51Z" fill="#B1B9BE" mask="url(#path-12-inside-4_1_6265)"/>
<path d="M33.3307 164.018V154.839H36.2834C38.3375 154.839 39.6727 155.751 39.6727 157.676V157.728C39.6727 159.666 38.2862 160.539 36.322 160.539H35.0382V164.018H33.3307ZM35.0382 159.294H36.2834C37.4132 159.294 38.0166 158.742 38.0166 157.728V157.676C38.0166 156.585 37.3619 156.161 36.2834 156.161H35.0382V159.294ZM42.659 164.147C41.4265 164.147 40.4123 163.556 40.4123 162.157C40.4123 160.591 41.9272 160.026 43.8529 160.026H44.6874V159.679C44.6874 158.78 44.3793 158.331 43.4678 158.331C42.659 158.331 42.261 158.716 42.184 159.384H40.6819C40.8103 157.817 42.0556 157.163 43.5576 157.163C45.0597 157.163 46.2408 157.779 46.2408 159.615V164.018H44.7131V163.197C44.2766 163.774 43.686 164.147 42.659 164.147ZM43.0313 163.03C43.9813 163.03 44.6874 162.529 44.6874 161.669V161.001H43.8914C42.7103 161.001 41.9529 161.271 41.9529 162.093C41.9529 162.657 42.261 163.03 43.0313 163.03ZM48.0213 164.018V157.304H49.5747V158.37C49.8957 157.715 50.6403 157.163 51.7444 157.163C53.0924 157.163 54.0424 157.946 54.0424 159.807V164.018H52.489V159.936C52.489 158.922 52.0781 158.459 51.1538 158.459C50.2936 158.459 49.5747 158.999 49.5747 160.064V164.018H48.0213ZM58.7848 164.147C56.8077 164.147 55.3827 162.85 55.3827 160.732V160.629C55.3827 158.549 56.8077 157.163 58.7206 157.163C60.3895 157.163 61.8916 158.151 61.8916 160.552V161.001H56.9746C57.0259 162.272 57.6678 162.991 58.8233 162.991C59.7605 162.991 60.2483 162.619 60.3638 161.964H61.8659C61.6477 163.376 60.5051 164.147 58.7848 164.147ZM57.0003 159.961H60.351C60.274 158.806 59.6834 158.292 58.7206 158.292C57.7834 158.292 57.1543 158.922 57.0003 159.961ZM63.3176 164.018V154.197H64.871V164.018H63.3176ZM72.2243 162.747L72.5324 160.603H71.4668L71.1587 162.747H70.0161L70.3242 160.603H69.3357V159.345H70.5168L70.7222 157.933H69.6695V156.713H70.9019L71.1715 154.839H72.3141L72.0445 156.713H73.1101L73.3925 154.839H74.5351L74.2527 156.713H75.2926V157.933H74.073L73.8675 159.345H74.9459V160.603H73.675L73.3669 162.747H72.2243ZM71.8648 157.933L71.6594 159.345H72.725L72.9304 157.933H71.8648Z" fill="#292D3A"/>
<path d="M299.888 157.896C300.059 157.725 300.336 157.725 300.507 157.896C300.678 158.067 300.678 158.344 300.507 158.515L297.881 161.141C297.71 161.312 297.433 161.312 297.262 161.141L294.636 158.515C294.465 158.344 294.465 158.067 294.636 157.896C294.807 157.725 295.084 157.725 295.255 157.896L297.572 160.212L299.888 157.896Z" fill="#3E4550"/>
</svg>
