<svg width="25" height="24" viewBox="0 0 25 24" fill="none" xmlns="http://www.w3.org/2000/svg">
<g clip-path="url(#clip0_1715_1462)">
<path d="M5.60726 9.76441C6.53985 6.93851 9.19551 4.90897 12.3411 4.90897C14.032 4.90897 15.5592 5.50897 16.7592 6.49079L20.2502 2.99988C18.1229 1.14533 15.3956 -0.00012207 12.3411 -0.00012207C7.61113 -0.00012207 3.53881 2.69818 1.58105 6.6499L5.60726 9.76441Z" fill="#EA4335"/>
<path d="M16.3814 18.0124C15.2916 18.7161 13.9068 19.0907 12.3407 19.0907C9.20715 19.0907 6.55978 17.0767 5.61764 14.2677L1.57812 17.3348C3.53345 21.2935 7.60566 23.9998 12.3407 23.9998C15.2735 23.9998 18.076 22.9572 20.1749 20.9994L16.3814 18.0124Z" fill="#34A853"/>
<path d="M20.175 20.9995C22.37 18.952 23.7954 15.9036 23.7954 11.9999C23.7954 11.2908 23.6863 10.5272 23.5226 9.81812H12.3408V14.4545H18.7772C18.4596 16.0136 17.6071 17.2211 16.3815 18.0125L20.175 20.9995Z" fill="#4A90E2"/>
<path d="M5.6178 14.2678C5.37915 13.5562 5.24991 12.7936 5.24991 11.9999C5.24991 11.2182 5.37526 10.4667 5.60702 9.76441L1.58081 6.6499C0.777407 8.26031 0.34082 10.0753 0.34082 11.9999C0.34082 13.9194 0.785601 15.73 1.57828 17.3349L5.6178 14.2678Z" fill="#FBBC05"/>
</g>
<defs>
<clipPath id="clip0_1715_1462">
<rect width="24" height="24" fill="white" transform="translate(0.34082 -0.00012207)"/>
</clipPath>
</defs>
</svg>
