<svg width="25" height="22" viewBox="0 0 25 22" fill="none" xmlns="http://www.w3.org/2000/svg">
<path fill-rule="evenodd" clip-rule="evenodd" d="M2.9541 9.0963C3.0565 8.7383 3.1457 8.42456 3.2361 8.11136C3.90144 5.80989 4.56731 3.50829 5.23197 1.20655C5.25784 1.11628 5.28557 1.04348 5.38864 1.00201C6.53958 0.540679 7.71545 0.176945 8.95412 0.0430779C10.6197 -0.137189 12.1485 0.252278 13.5605 1.13695C13.7444 1.25228 13.9223 1.37681 14.1103 1.48415C14.2301 1.55295 14.2471 1.62561 14.2085 1.75602C13.656 3.65269 13.1088 5.55149 12.5603 7.44963C12.3689 8.11136 12.1723 8.7723 11.9871 9.4363C11.9459 9.58403 11.9117 9.60897 11.7753 9.51577C10.9617 8.9631 10.1035 8.4995 9.14278 8.25256C7.93065 7.9411 6.72011 8.00363 5.51064 8.26843C4.64891 8.4571 3.81837 8.7419 2.9541 9.0963Z" fill="#F35325"/>
<path fill-rule="evenodd" clip-rule="evenodd" d="M17.6183 12.0253C16.0892 12.0357 14.7405 11.4987 13.4844 10.6738C13.1293 10.4398 13.1297 10.4423 13.2464 10.0392C13.9576 7.58058 14.6672 5.12124 15.3805 2.66297C15.4501 2.42203 15.3987 2.37803 15.6692 2.55937C16.5652 3.15897 17.5088 3.65257 18.5776 3.8691C19.706 4.0975 20.8263 4.0195 21.9399 3.7703C22.6402 3.6135 23.3203 3.3935 23.9882 3.1355C24.0844 3.09857 24.1831 3.0367 24.2822 3.1283C24.379 3.21777 24.3342 3.31843 24.3043 3.42097C23.5911 5.88617 22.8783 8.35138 22.17 10.8179C22.1375 10.9331 22.0772 10.9894 21.9707 11.0321C20.8083 11.4974 19.619 11.8634 18.3656 11.983C18.1176 12.0067 17.8678 12.0117 17.6183 12.0253Z" fill="#81BC06"/>
<path fill-rule="evenodd" clip-rule="evenodd" d="M21.7179 12.3517C21.5619 12.8916 21.4186 13.3883 21.275 13.8851C20.6738 15.9658 20.0699 18.0467 19.4743 20.1296C19.4254 20.2995 19.3396 20.3868 19.176 20.4499C18.1506 20.8454 17.1076 21.1704 16.0135 21.3242C14.3203 21.5615 12.7455 21.2415 11.2833 20.3606C11.0415 20.2151 10.808 20.0546 10.5643 19.9119C10.4439 19.8412 10.4325 19.7668 10.4705 19.639C10.9935 17.8428 11.5109 16.0446 12.0307 14.2472C12.2417 13.5156 12.4536 12.7837 12.6652 12.0528C12.7327 11.8223 12.7335 11.8233 12.9447 11.9623C13.7047 12.464 14.4965 12.8985 15.3792 13.1489C16.6523 13.5093 17.9263 13.4499 19.2018 13.1671C20.0503 12.9795 20.869 12.6953 21.7179 12.3517Z" fill="#FFBA08"/>
<path fill-rule="evenodd" clip-rule="evenodd" d="M11.5198 11.0466C11.3915 11.4886 11.2725 11.8983 11.154 12.3082C10.5305 14.4642 9.90508 16.6203 9.28761 18.7783C9.23401 18.9634 9.18468 18.9676 9.03508 18.8655C8.17801 18.281 7.27054 17.801 6.24827 17.568C5.09067 17.3036 3.9392 17.375 2.78986 17.6268C2.07 17.7844 1.37133 18.0114 0.683726 18.2758C0.593326 18.3104 0.500792 18.3606 0.406659 18.2835C0.301325 18.1976 0.347059 18.0928 0.375992 17.9928C1.08733 15.534 1.7992 13.0755 2.50893 10.6163C2.5392 10.5138 2.59053 10.4544 2.69373 10.4131C3.87453 9.93803 5.08254 9.56909 6.35654 9.45123C7.92788 9.30656 9.38308 9.66336 10.7291 10.4799C10.9589 10.6195 11.186 10.7648 11.4132 10.91C11.4711 10.9475 11.5512 10.98 11.5198 11.0466Z" fill="#05A6F0"/>
</svg>
