<svg width="120" height="120" viewBox="0 0 120 120" fill="none" xmlns="http://www.w3.org/2000/svg">
<circle cx="60" cy="60" r="48" stroke="white" stroke-width="4"/>
<path fill-rule="evenodd" clip-rule="evenodd" d="M54 36C54 32.6863 56.6863 30 60 30C63.3137 30 66 32.6863 66 36C66 39.3137 63.3137 42 60 42C56.6863 42 54 39.3137 54 36ZM36 45C34.3431 45 33 46.3431 33 48C33 49.6569 34.3431 51 36 51H54V63C54 63.0011 54 63.0023 54 63.0034V65.2033L42.3953 85.5116C41.5732 86.9501 42.073 88.7827 43.5116 89.6047C44.9501 90.4268 46.7827 89.927 47.6047 88.4884L59.6047 67.4884C59.8636 67.0354 59.9998 66.5227 60 66.0009C60.0002 66.5227 60.1364 67.0354 60.3953 67.4884L72.3953 88.4884C73.2173 89.927 75.0499 90.4268 76.4884 89.6047C77.927 88.7827 78.4268 86.9501 77.6047 85.5116L66 65.2033V63V51H84C85.6568 51 87 49.6569 87 48C87 46.3431 85.6568 45 84 45H63H57H36Z" fill="white"/>
</svg>

