<svg width="144" height="143" viewBox="0 0 144 143" fill="none" xmlns="http://www.w3.org/2000/svg">
<g filter="url(#filter0_d)">
<path d="M12 9.75C12 7.67893 13.6789 6 15.75 6H128.25C130.321 6 132 7.67893 132 9.75V122.25C132 124.321 130.321 126 128.25 126H15.75C13.6789 126 12 124.321 12 122.25V9.75Z" fill="white"/>
</g>
<path d="M94 18H64V30H94V18Z" fill="black" fill-opacity="0.04"/>
<path d="M120.125 18H107V30H120.125V18Z" fill="#BBBBBB"/>
<path d="M52.125 18H24V30H52.125V18Z" fill="#17EBA0"/>
<path d="M52 42H24V49H52V42Z" fill="#BBBBBB"/>
<path d="M120 42H64V114H120V42Z" fill="black" fill-opacity="0.04"/>
<path d="M52 59H24V66H52V59Z" fill="#BBBBBB"/>
<path d="M52 77H24V84H52V77Z" fill="#BBBBBB"/>
<defs>
<filter id="filter0_d" x="0.75" y="0.375" width="142.5" height="142.5" filterUnits="userSpaceOnUse" color-interpolation-filters="sRGB">
<feFlood flood-opacity="0" result="BackgroundImageFix"/>
<feColorMatrix in="SourceAlpha" type="matrix" values="0 0 0 0 0 0 0 0 0 0 0 0 0 0 0 0 0 0 127 0"/>
<feOffset dy="5.625"/>
<feGaussianBlur stdDeviation="5.625"/>
<feColorMatrix type="matrix" values="0 0 0 0 0 0 0 0 0 0 0 0 0 0 0 0 0 0 0.12 0"/>
<feBlend mode="normal" in2="BackgroundImageFix" result="effect1_dropShadow"/>
<feBlend mode="normal" in="SourceGraphic" in2="effect1_dropShadow" result="shape"/>
</filter>
</defs>
</svg>
