<svg width="120" height="120" viewBox="0 0 120 120" fill="none" xmlns="http://www.w3.org/2000/svg">
<path d="M23.5 28.4195C23.5 25.8104 25.6151 23.6953 28.2242 23.6953H51.3392C53.9482 23.6953 56.0633 25.8104 56.0633 28.4195V51.5345C56.0633 54.1436 53.9482 56.2586 51.3391 56.2586H28.2242C25.6151 56.2586 23.5 54.1436 23.5 51.5345V28.4195Z" fill="#068667"/>
<path d="M63.5433 28.4195C63.5433 25.8104 65.6584 23.6953 68.2675 23.6953H91.3825C93.9916 23.6953 96.1067 25.8104 96.1067 28.4195V51.5345C96.1067 54.1436 93.9916 56.2586 91.3825 56.2586H68.2675C65.6584 56.2586 63.5433 54.1436 63.5433 51.5345V28.4195Z" fill="#05CC93"/>
<path d="M23.5 68.4625C23.5 65.8534 25.6151 63.7383 28.2242 63.7383H51.3392C53.9482 63.7383 56.0633 65.8534 56.0633 68.4625V91.5774C56.0633 94.1865 53.9482 96.3016 51.3391 96.3016H28.2242C25.6151 96.3016 23.5 94.1865 23.5 91.5774V68.4625Z" fill="#606A70"/>
<path d="M63.5433 68.4625C63.5433 65.8534 65.6584 63.7383 68.2675 63.7383H91.3825C93.9916 63.7383 96.1067 65.8534 96.1067 68.4625V91.5774C96.1067 94.1865 93.9916 96.3016 91.3825 96.3016H68.2675C65.6584 96.3016 63.5433 94.1865 63.5433 91.5774V68.4625Z" fill="#292D3A"/>
</svg>
