<svg width="120" height="120" viewBox="0 0 120 120" fill="none" xmlns="http://www.w3.org/2000/svg">
<path d="M49.208 30H33.464L11 88.944H26.264L30.392 77.52H51.8L56.024 88.944H71.672L49.208 30ZM35.096 64.848L41.144 48.24L47.192 64.848H35.096Z" fill="#C0CADC"/>
<path d="M102.535 60.624V66.192C100.711 64.56 96.2945 62.736 91.8785 62.736C82.7585 62.736 75.6545 68.112 75.6545 76.08C75.6545 84.528 82.7585 89.712 91.4945 89.712C96.4865 89.712 100.903 87.504 102.535 85.776V88.944H109.543V60.048C109.543 51.024 103.591 45.456 93.5105 45.456C88.2305 45.456 83.1425 46.992 80.2625 49.008V55.824C83.8145 53.52 87.6545 52.08 92.3585 52.08C98.5985 52.08 102.535 55.344 102.535 60.624ZM102.535 73.968V78.384C101.383 81.552 97.1585 83.664 92.6465 83.664C87.4625 83.664 82.4705 81.264 82.4705 76.08C82.4705 70.992 87.4625 68.688 92.6465 68.688C97.1585 68.688 101.383 70.8 102.535 73.968Z" fill="#C0CADC"/>
</svg>
