<svg width="336" height="192" viewBox="0 0 336 192" fill="none" xmlns="http://www.w3.org/2000/svg">
<g clip-path="url(#clip0_1_7043)">
<mask id="mask0_1_7043" style="mask-type:luminance" maskUnits="userSpaceOnUse" x="0" y="0" width="336" height="192">
<path d="M336 0H0V192H336V0Z" fill="white"/>
</mask>
<g mask="url(#mask0_1_7043)">
<path d="M304 10H28C25.7909 10 24 11.7349 24 13.875V192.125C24 194.265 25.7909 196 28 196H304C306.209 196 308 194.265 308 192.125V13.875C308 11.7349 306.209 10 304 10Z" fill="#292D3A"/>
<path d="M182 24H35C33.3431 24 32 25.3431 32 27V37C32 38.6569 33.3431 40 35 40H182C183.657 40 185 38.6569 185 37V27C185 25.3431 183.657 24 182 24Z" fill="#1D1F27"/>
<path d="M299 54H32V192H299V54Z" fill="#1D1F27"/>
</g>
</g>
<defs>
<clipPath id="clip0_1_7043">
<rect width="336" height="192" fill="white"/>
</clipPath>
</defs>
</svg>
