<svg width="336" height="192" viewBox="0 0 336 192" fill="none" xmlns="http://www.w3.org/2000/svg">
<rect width="240" height="128" transform="translate(48 32)" fill="white"/>
<path d="M48 36C48 33.7909 49.7909 32 52 32H284C286.209 32 288 33.7909 288 36V156C288 158.209 286.209 160 284 160H52C49.7909 160 48 158.209 48 156V36Z" fill="white"/>
<path fill-rule="evenodd" clip-rule="evenodd" d="M72.4968 71.0526C72.1689 70.7247 71.6393 70.7227 71.3094 71.0526L67.9557 74.4063C67.6278 74.7342 67.6258 75.2637 67.9557 75.5936L71.3094 78.9474C71.6373 79.2752 72.1669 79.2772 72.4968 78.9474L75.8505 75.5936C76.1784 75.2658 76.1804 74.7362 75.8505 74.4063L72.4968 71.0526Z" fill="#EC3331"/>
<path fill-rule="evenodd" clip-rule="evenodd" d="M71.9031 92.8334L76.9031 100.333H66.9031L71.9031 92.8334Z" fill="#D36D00"/>
<path d="M71.9031 146.167C74.2042 146.167 76.0697 144.301 76.0697 142C76.0697 139.699 74.2042 137.833 71.9031 137.833C69.6019 137.833 67.7364 139.699 67.7364 142C67.7364 144.301 69.6019 146.167 71.9031 146.167Z" fill="#009A71"/>
<path d="M71.9031 124.167C74.2042 124.167 76.0697 122.301 76.0697 120C76.0697 117.699 74.2042 115.833 71.9031 115.833C69.6019 115.833 67.7364 117.699 67.7364 120C67.7364 122.301 69.6019 124.167 71.9031 124.167Z" fill="#009A71"/>
<path d="M137 46H67V60H137V46Z" fill="#F7F7F7"/>
<path d="M227 46H197V60H227V46Z" fill="#F7F7F7"/>
<path d="M269 46H239V60H269V46Z" fill="#F7F7F7"/>
<path d="M184 46H149V60H184V46Z" fill="#F7F7F7"/>
<path d="M137 72H86V79H137V72Z" fill="#F7F7F7"/>
<path d="M269 72H239V79H269V72Z" fill="#F7F7F7"/>
<path d="M184 72H149V79H184V72Z" fill="#F7F7F7"/>
<path d="M137 94H86V101H137V94Z" fill="#F7F7F7"/>
<path d="M269 94H239V101H269V94Z" fill="#F7F7F7"/>
<path d="M184 94H149V101H184V94Z" fill="#F7F7F7"/>
<path d="M137 117H86V124H137V117Z" fill="#F7F7F7"/>
<path d="M269 117H239V124H269V117Z" fill="#F7F7F7"/>
<path d="M184 117H149V124H184V117Z" fill="#F7F7F7"/>
<path d="M137 138H86V145H137V138Z" fill="#F7F7F7"/>
<path d="M269 138H239V145H269V138Z" fill="#F7F7F7"/>
<path d="M184 138H149V145H184V138Z" fill="#F7F7F7"/>
<path d="M227 72H197V79H227V72Z" fill="#F7F7F7"/>
<path d="M227 94H197V101H227V94Z" fill="#F7F7F7"/>
<path d="M227 117H197V124H227V117Z" fill="#F7F7F7"/>
<path d="M227 138H197V145H227V138Z" fill="#F7F7F7"/>
</svg>
