<svg width="336" height="192" viewBox="0 0 336 192" fill="none" xmlns="http://www.w3.org/2000/svg">
<mask id="path-1-inside-1_1_7086" fill="white">
<path d="M77 76H259V116H77V76Z"/>
</mask>
<path d="M77 76V77H259V76V75H77V76Z" fill="#B1B9BE" mask="url(#path-1-inside-1_1_7086)"/>
<path d="M105.162 99.0876C105.39 99.3154 105.39 99.6847 105.162 99.9125C104.935 100.14 104.565 100.14 104.338 99.9125L100.838 96.4125C100.61 96.1847 100.61 95.8154 100.838 95.5876L104.338 92.0876C104.565 91.8598 104.935 91.8598 105.162 92.0876C105.39 92.3154 105.39 92.6847 105.162 92.9125L102.075 96L105.162 99.0876Z" fill="#292D3A"/>
<path d="M134.629 101V92.838L132.529 94.266V92.642L134.839 90.99H136.505V101H134.629Z" fill="#292D3A"/>
<path d="M153 96C153 88.268 159.268 82 167 82H169C176.732 82 183 88.268 183 96C183 103.732 176.732 110 169 110H167C159.268 110 153 103.732 153 96Z" fill="black" fill-opacity="0.04"/>
<path d="M164.019 101V100.636L167.687 96.758C168.653 95.722 169.269 94.854 169.269 93.944C169.269 93.118 168.807 92.586 167.939 92.586C167.057 92.586 166.497 93.104 166.357 94.42H164.285C164.397 92.124 165.797 90.85 168.023 90.85C170.263 90.85 171.509 92.096 171.509 93.888C171.509 95.218 170.739 96.31 169.577 97.43L167.687 99.278H171.579V101H164.019Z" fill="#006750"/>
<path d="M200.895 101.14C198.515 101.14 197.213 99.824 197.129 97.92H198.809C198.921 98.956 199.509 99.726 200.853 99.726C202.155 99.726 202.757 99.11 202.757 98.116C202.757 97.024 202.169 96.478 200.951 96.478H200.181V95.148H200.895C202.043 95.148 202.561 94.616 202.561 93.678C202.561 92.866 202.043 92.278 201.007 92.278C199.943 92.278 199.257 92.908 199.145 93.916H197.493C197.591 92.18 198.893 90.864 201.035 90.864C203.107 90.864 204.339 92.04 204.339 93.538C204.339 94.672 203.681 95.372 202.715 95.722C203.877 96.002 204.647 96.814 204.647 98.13C204.647 99.992 203.191 101.14 200.895 101.14Z" fill="#292D3A"/>
<path d="M230.838 92.9125C230.61 92.6847 230.61 92.3154 230.838 92.0876C231.065 91.8598 231.435 91.8598 231.662 92.0876L235.162 95.5876C235.39 95.8154 235.39 96.1847 235.162 96.4125L231.662 99.9125C231.435 100.14 231.065 100.14 230.838 99.9125C230.61 99.6847 230.61 99.3154 230.838 99.0876L233.925 96L230.838 92.9125Z" fill="#292D3A"/>
</svg>
