<svg width="24" height="24" viewBox="0 0 24 24" fill="none" xmlns="http://www.w3.org/2000/svg">
<path fill-rule="evenodd" clip-rule="evenodd" d="M18.4463 1.66706C18.7286 1.47932 19.0914 1.44635 19.4072 1.58698C19.7677 1.74777 20 2.10537 20 2.50007V7.12605C21.7253 7.57006 23 9.13611 23 11.0001C22.9999 12.8639 21.7252 14.4301 20 14.8741V19.5001C19.9999 19.8947 19.7676 20.2524 19.4072 20.4132C19.0915 20.5537 18.7286 20.5207 18.4463 20.3331L18.3311 20.2432L18.3291 20.2413C18.3273 20.2397 18.3242 20.237 18.3203 20.2335C18.312 20.2261 18.2986 20.2146 18.2812 20.1993C18.2465 20.1686 18.1942 20.1224 18.126 20.0635C17.9893 19.9456 17.789 19.7758 17.5391 19.5714C17.0375 19.161 16.3401 18.6154 15.5557 18.0723C15.2744 17.8776 14.9827 17.6871 14.6885 17.502C14.41 18.1393 13.975 18.6514 13.5 19.0313C13.0084 19.4246 12.4377 19.7079 11.8916 19.8634L11.9873 20.1192C12.6911 21.997 11.3033 24 9.29785 24.0001C8.10047 24.0001 7.02891 23.2569 6.6084 22.1358L4.22754 15.7882C3.61546 15.6259 3.03143 15.3571 2.52637 14.9307C1.51056 14.0731 1.00005 12.7492 1 11.0001C1 9.25088 1.51059 7.92711 2.52637 7.06941C3.50918 6.23972 4.78796 6.00007 6 6.00007H11C11.5295 6.00007 12.245 5.79287 13.0879 5.39363C13.9113 5.00356 14.7681 4.47306 15.5557 3.9278C16.3401 3.38475 17.0375 2.83912 17.5391 2.42878C17.7889 2.22433 17.9893 2.05456 18.126 1.93659C18.1941 1.87776 18.2465 1.83153 18.2812 1.80085C18.2985 1.78559 18.312 1.7741 18.3203 1.76667C18.3242 1.76319 18.3273 1.76051 18.3291 1.75886L18.3311 1.75691L18.4463 1.66706ZM8.48047 21.4337C8.60825 21.7742 8.93416 22.0001 9.29785 22.0001C9.90686 22 10.3286 21.3916 10.1152 20.8214L8.30664 16.0001H6.44336L8.48047 21.4337ZM11.1846 17.9776C11.4583 17.9255 11.8721 17.7711 12.25 17.4688C12.5615 17.2196 12.8003 16.9079 12.918 16.5294C12.1484 16.1813 11.4938 16.0001 11 16.0001H10.4434L11.1846 17.9776ZM18 4.61433C17.6095 4.91524 17.1683 5.24422 16.6943 5.57234C15.857 6.15199 14.901 6.74664 13.9434 7.20027C13.3224 7.49437 12.6588 7.74704 12 7.88581V14.1134C12.6589 14.2521 13.3224 14.5057 13.9434 14.7999C14.901 15.2535 15.857 15.8481 16.6943 16.4278C17.1681 16.7558 17.6096 17.084 18 17.3848V4.61433ZM6 8.00007C5.00324 8.00007 4.28139 8.20519 3.81641 8.59773C3.38478 8.96234 3 9.63879 3 11.0001C3.00004 12.3613 3.38475 13.0378 3.81641 13.4024C4.2814 13.7949 5.00332 14.0001 6 14.0001H10V8.00007H6ZM20 12.7296C20.5971 12.3836 20.9999 11.7398 21 11.0001C21 10.2601 20.5973 9.61551 20 9.2696V12.7296Z" fill="#000"/>
</svg>
