<svg width="24" height="24" viewBox="0 0 24 24" fill="none" xmlns="http://www.w3.org/2000/svg">
<path d="M11.9997 1C12.552 1.00003 12.9997 1.44773 12.9997 2C13.0408 2 13.0825 2.00267 13.1237 2.00781L17.1237 2.50781C17.6241 2.57039 17.9997 2.9957 17.9997 3.5C17.9997 4.0043 17.6241 4.42961 17.1237 4.49219L13.1237 4.99219C13.0825 4.99732 13.0408 4.99902 12.9997 4.99902V5.47852L22.573 12.1807C22.9305 12.431 23.085 12.8845 22.9538 13.3008C22.8226 13.717 22.4361 14 21.9997 14H20.5583C20.7192 15.4836 21.192 17.147 21.6931 18.5752C21.9968 19.4407 22.301 20.1936 22.529 20.7295C22.6428 20.997 22.7379 21.2099 22.8034 21.3545C22.8361 21.4266 22.8617 21.4821 22.8786 21.5186C22.8869 21.5364 22.8931 21.5499 22.8972 21.5586L22.903 21.5703L22.9499 21.6885C23.0421 21.9696 23.0057 22.2803 22.8454 22.5342C22.6622 22.8241 22.3427 23 21.9997 23H1.99971C1.65675 22.9999 1.33717 22.8241 1.15401 22.5342C0.970994 22.2442 0.949151 21.88 1.09639 21.5703L1.10225 21.5586C1.10631 21.55 1.1125 21.5364 1.1208 21.5186C1.13776 21.4821 1.16333 21.4266 1.196 21.3545C1.2615 21.2099 1.35657 20.997 1.47041 20.7295C1.69843 20.1937 2.00265 19.4407 2.30635 18.5752C2.80746 17.147 3.28026 15.4836 3.44112 14H1.99971C1.5634 13.9998 1.17681 13.7169 1.04561 13.3008C0.914475 12.8846 1.0691 12.431 1.42647 12.1807L10.9997 5.47852V2C10.9997 1.44783 11.4476 1.00019 11.9997 1ZM5.44991 14C5.28488 15.7949 4.72494 17.7215 4.19307 19.2373C3.95956 19.9028 3.72561 20.504 3.52315 21H10.8327L13.0769 15.6152L13.7224 14H5.44991ZM12.9997 21H15.3815L14.0817 18.4014L12.9997 21ZM15.0944 15.9541L17.6179 21H20.4763C20.2738 20.504 20.0399 19.9028 19.8064 19.2373C19.2745 17.7215 18.7145 15.7949 18.5495 14H15.8767L15.0944 15.9541ZM5.17159 12H18.8278L11.9997 7.21973L5.17159 12Z" fill="#000"/>
</svg>
