<svg width="24" height="24" viewBox="0 0 24 24" fill="none" xmlns="http://www.w3.org/2000/svg">
<path fill-rule="evenodd" clip-rule="evenodd" d="M12.0006 1C15.9705 1.00006 18.5175 1.59441 20.0582 2.9541C21.6462 4.3557 21.9194 6.34845 21.982 8.35059C22.0203 9.57359 21.2538 10.5912 20.1998 10.9941V19.2725C20.1998 20.0336 19.789 20.6424 19.3014 21.0791C18.8132 21.5163 18.1635 21.8649 17.4459 22.1367C16.0035 22.6831 14.0777 22.9999 12.0006 23C9.92353 23 7.99772 22.683 6.55526 22.1367C5.83761 21.8649 5.18706 21.5163 4.69882 21.0791C4.21118 20.6424 3.80038 20.0336 3.80038 19.2725V10.9941C2.74641 10.5912 1.97991 9.57356 2.01815 8.35059C2.08077 6.34839 2.35487 4.35571 3.94296 2.9541C5.48375 1.59466 8.03081 1 12.0006 1ZM18.1998 10.3594C17.9283 10.4555 17.6384 10.5429 17.3365 10.6191C15.9327 10.9736 14.0463 11.1816 12.0006 11.1816C9.95493 11.1816 8.06849 10.9736 6.66464 10.6191C6.36258 10.5429 6.07197 10.4556 5.80038 10.3594V19.2725C5.80038 19.2757 5.80018 19.2975 5.82675 19.3467C5.85595 19.4007 5.91573 19.485 6.0328 19.5898C6.27323 19.8051 6.67825 20.044 7.26327 20.2656C8.42662 20.7062 10.1016 21 12.0006 21C13.8994 20.9999 15.5737 20.7062 16.7369 20.2656C17.3219 20.044 17.7269 19.8051 17.9674 19.5898C18.0844 19.485 18.1452 19.4007 18.1744 19.3467C18.2008 19.2977 18.1998 19.2757 18.1998 19.2725V10.3594ZM12.0006 7.5459C10.0702 7.5459 8.35585 7.74435 7.1539 8.04785C6.75006 8.14983 6.4293 8.25952 6.1871 8.36328C6.42934 8.46708 6.74989 8.57766 7.1539 8.67969C8.35585 8.98318 10.0702 9.18164 12.0006 9.18164C13.9307 9.1816 15.6444 8.98315 16.8463 8.67969C17.2502 8.57769 17.5709 8.46706 17.8131 8.36328C17.5709 8.25954 17.25 8.14982 16.8463 8.04785C15.6444 7.74438 13.9307 7.54594 12.0006 7.5459ZM12.0006 3C8.10072 3 6.21805 3.6142 5.2662 4.4541C4.51046 5.1211 4.18906 6.06769 4.06796 7.50586C4.29023 7.17555 4.60786 6.94331 4.85312 6.79688C5.33656 6.50827 5.9704 6.28371 6.66464 6.1084C8.0685 5.75396 9.9549 5.5459 12.0006 5.5459C14.0463 5.54594 15.9327 5.7539 17.3365 6.1084C18.0306 6.28369 18.6637 6.50834 19.1471 6.79688C19.392 6.94314 19.709 7.17525 19.9312 7.50488C19.8101 6.06755 19.4902 5.12092 18.735 4.4541C17.7832 3.61413 15.9004 3.00006 12.0006 3Z" fill="#000"/>
</svg>
