<svg width="24" height="24" viewBox="0 0 24 24" fill="none" xmlns="http://www.w3.org/2000/svg">
<path d="M10.0002 13.0002C10.2653 13.0002 10.5197 13.1056 10.7072 13.2931C10.8947 13.4806 11.0002 13.735 11.0002 14.0002V20.0002C11.0001 20.5524 10.5524 21.0001 10.0002 21.0002C9.4479 21.0002 9.0002 20.5524 9.00017 20.0002V16.4142L2.7072 22.7072C2.31671 23.0977 1.68367 23.0976 1.29314 22.7072C0.902613 22.3167 0.902613 21.6836 1.29314 21.2931L7.58611 15.0002H4.00017C3.4479 15.0002 3.0002 14.5524 3.00017 14.0002C3.00017 13.4479 3.44788 13.0002 4.00017 13.0002H10.0002Z" fill="#000"/>
<path d="M21.2931 1.29312C21.6837 0.902631 22.3167 0.902607 22.7072 1.29312C23.0976 1.68364 23.0977 2.31669 22.7072 2.70718L16.4142 9.00015H20.0002C20.5524 9.00022 21.0002 9.44791 21.0002 10.0002C21.0001 10.5524 20.5524 11.0001 20.0002 11.0002H14.0002C13.4479 11.0002 13.0002 10.5524 13.0002 10.0002V4.00015C13.0002 3.44787 13.4479 3.00015 14.0002 3.00015C14.5524 3.00022 15.0002 3.44791 15.0002 4.00015V7.58609L21.2931 1.29312Z" fill="#000"/>
</svg>
