<svg width="24" height="24" viewBox="0 0 24 24" fill="none" xmlns="http://www.w3.org/2000/svg">
<path d="M10.8857 0.368652C11.6009 0.0826435 12.3991 0.0826434 13.1143 0.368652L21.1143 3.56885C22.2529 4.02446 22.9998 5.12758 23 6.354V10.9995C22.9999 14.3401 21.0098 16.9909 18.8906 18.8735C16.7573 20.7686 14.3413 22.0246 13.1523 22.5825C12.4184 22.9269 11.5816 22.9269 10.8477 22.5825C9.6587 22.0246 7.24274 20.7686 5.10938 18.8735C2.99018 16.9909 1.00008 14.3401 1 10.9995V6.354C1.00019 5.12758 1.74708 4.02446 2.88574 3.56885L10.8857 0.368652ZM12.3711 2.2251C12.133 2.13 11.867 2.13 11.6289 2.2251L3.62891 5.42529C3.24943 5.57712 3.00019 5.94531 3 6.354V10.9995C3.00008 13.5031 4.496 15.6526 6.4375 17.3774C8.36454 19.0893 10.5848 20.25 11.6973 20.772C11.893 20.8638 12.107 20.8638 12.3027 20.772C13.4152 20.25 15.6355 19.0893 17.5625 17.3774C19.504 15.6526 20.9999 13.5031 21 10.9995V6.354C20.9998 5.94531 20.7506 5.57712 20.3711 5.42529L12.3711 2.2251ZM14.793 6.79248C15.1834 6.4025 15.8166 6.4025 16.207 6.79248C16.5973 7.18288 16.5971 7.81602 16.207 8.20654L13.4131 10.9995L16.2422 13.8286C16.6325 14.2191 16.6324 14.8522 16.2422 15.2427C15.8517 15.6328 15.2185 15.633 14.8281 15.2427L12 12.4136L9.17188 15.2427C8.78148 15.633 8.14834 15.6328 7.75781 15.2427C7.36755 14.8522 7.36747 14.2191 7.75781 13.8286L10.5859 10.9995L7.79297 8.20654C7.40288 7.81602 7.40268 7.18288 7.79297 6.79248C8.18339 6.4025 8.81661 6.4025 9.20703 6.79248L12 9.58545L14.793 6.79248Z" fill="#000"/>
</svg>
