<svg width="24" height="24" viewBox="0 0 24 24" fill="none" xmlns="http://www.w3.org/2000/svg">
<path d="M6.29313 12.2931C6.68365 11.9026 7.31668 11.9026 7.70719 12.2931C8.09755 12.6836 8.09763 13.3167 7.70719 13.7072L5.41422 16.0002H16.0002C16.5524 16.0002 17.0002 16.4479 17.0002 17.0002C17.0001 17.5523 16.5523 18.0001 16.0002 18.0002H5.41422L7.70719 20.2931C8.09755 20.6836 8.09763 21.3167 7.70719 21.7072C7.31671 22.0976 6.68365 22.0975 6.29313 21.7072L2.29313 17.7072C1.90261 17.3167 1.90262 16.6836 2.29313 16.2931L6.29313 12.2931Z" fill="#000"/>
<path d="M16.2931 2.29312C16.6837 1.90263 17.3167 1.90261 17.7072 2.29312L21.7072 6.29312C21.8946 6.48064 22.0002 6.73501 22.0002 7.00015C22.0001 7.2653 21.8947 7.51969 21.7072 7.70718L17.7072 11.7072C17.3167 12.0976 16.6837 12.0975 16.2931 11.7072C15.9026 11.3167 15.9026 10.6836 16.2931 10.2931L18.5861 8.00015H8.00016C7.44792 8.00015 7.00024 7.55237 7.00016 7.00015C7.00016 6.44787 7.44788 6.00015 8.00016 6.00015H18.5861L16.2931 3.70718C15.9026 3.31667 15.9026 2.68365 16.2931 2.29312Z" fill="#000"/>
</svg>
