<svg width="336" height="192" viewBox="0 0 336 192" fill="none" xmlns="http://www.w3.org/2000/svg">
<g clip-path="url(#clip0)">
<path fill-rule="evenodd" clip-rule="evenodd" d="M225.169 23.5L185.805 -14.9695L169.031 2.19501L178.041 11H154.108C151.142 11 148.28 12.0987 146.076 14.0842L110.186 46.4158C107.982 48.4013 105.121 49.5 102.154 49.5H-8C-14.6274 49.5 -20 54.8726 -20 61.5C-20 68.1274 -14.6274 73.5 -8 73.5H115.654C118.621 73.5 121.482 72.4013 123.686 70.4158L159.576 38.0842C161.78 36.0987 164.642 35 167.608 35H179.064L169.031 44.8049L185.805 61.9694L225.169 23.5Z" fill="#117B82"/>
<path fill-rule="evenodd" clip-rule="evenodd" d="M295.169 97.5L255.805 59.0305L239.031 76.195L248.552 85.5H-8C-14.6274 85.5 -20 90.8726 -20 97.5C-20 104.127 -14.6274 109.5 -8.00001 109.5H248.552L239.031 118.805L255.805 135.969L295.169 97.5Z" fill="#A2423D"/>
<path fill-rule="evenodd" clip-rule="evenodd" d="M174.169 157.5L134.805 119.031L118.031 136.195L127.552 145.5H110.983C109.345 145.5 107.724 145.165 106.221 144.514L55.2795 122.486C53.7758 121.835 52.1548 121.5 50.5165 121.5H-8C-14.6274 121.5 -20 126.873 -20 133.5C-20 140.127 -14.6274 145.5 -8 145.5H45.5165C47.1548 145.5 48.7758 145.835 50.2795 146.486L101.221 168.514C102.724 169.165 104.345 169.5 105.983 169.5H127.552L118.031 178.805L134.805 195.969L174.169 157.5Z" fill="#9B6310"/>
</g>
<defs>
<clipPath id="clip0">
<rect width="336" height="192" fill="white"/>
</clipPath>
</defs>
</svg>
