<svg width="336" height="192" viewBox="0 0 336 192" fill="none" xmlns="http://www.w3.org/2000/svg">
<circle cx="165" cy="110" r="30" fill="#FF8300"/>
<path fill-rule="evenodd" clip-rule="evenodd" d="M178 137C178 137 177.5 137.5 176 138C174.5 138.5 174 138.5 174 138.5C158.04 111.34 156.431 110.385 154.831 106.268C152.432 100.092 160.499 60.5608 161.373 55.6016C162.247 50.6424 162.906 48.9359 166.23 47.8297C169.555 46.7235 174.09 51.7738 176.46 56.3458C178.831 60.9178 170.871 67.3399 168.429 73.8015C166.801 78.1093 163.575 87.9124 158.75 103.211L178 137Z" fill="#7630EA"/>
<path fill-rule="evenodd" clip-rule="evenodd" d="M196.385 39.234C199.271 37.5661 199.019 33.9497 199.333 32.7765C200.673 27.7719 205.853 25.7342 209.678 26.0275C213.502 26.3208 214.291 27.0207 215.808 28.2137C216.054 28.4077 216.124 28.897 216.018 29.6817L207.324 34.7063C206.691 35.0723 206.441 35.8612 206.748 36.5257L207.944 39.1181C208.266 39.8144 209.083 40.1276 209.787 39.8243L219 35.854C219.718 36.2506 220.068 36.6214 220.051 36.9665C219.906 39.76 219.526 41.7666 217.324 44.8505C214.983 48.1296 209.882 48.9591 205.898 47.4795C204.647 47.0153 201.702 44.8889 198.649 46.2679C195.597 47.6469 147.753 75.106 146.31 75.9399C144.867 76.7738 142.53 76.3912 141.531 74.6579C140.531 72.9246 140.913 70.5851 142.933 69.4176C144.953 68.2501 193.499 40.9019 196.385 39.234ZM143.297 71.7247C143.024 72.7447 143.629 73.7932 144.649 74.0665C145.669 74.3398 146.717 73.7345 146.991 72.7145C147.264 71.6944 146.659 70.646 145.639 70.3727C144.619 70.0994 143.57 70.7047 143.297 71.7247Z" fill="#999999"/>
<path fill-rule="evenodd" clip-rule="evenodd" d="M188.241 56.6708C184.371 63.2466 176.496 66.2447 172.039 67.4014C167.582 68.5581 163.3 70.9092 162.249 63.7427C160.039 48.6685 164.835 46.9507 174.832 42.8881C180.211 40.7022 182.612 44.6112 185.105 48.1832C187.245 51.2501 190.029 53.6332 188.241 56.6708Z" fill="#9454FF"/>
</svg>
