<svg width="336" height="192" viewBox="0 0 336 192" fill="none" xmlns="http://www.w3.org/2000/svg">
<g clip-path="url(#clip0)">
<rect x="-74" y="-31" width="182" height="253" rx="12" fill="#17EBA0"/>
<path fill-rule="evenodd" clip-rule="evenodd" d="M26.7821 62.9179C26.3916 62.5274 25.7584 62.5274 25.3679 62.9179C24.9774 63.3084 24.9774 63.9416 25.3679 64.3321L59.0858 98.05L25.3679 131.768C24.9774 132.158 24.9774 132.792 25.3679 133.182C25.7584 133.573 26.3916 133.573 26.7821 133.182L61.2071 98.7571L61.9142 98.05L61.2071 97.3429L26.7821 62.9179ZM-20 99.05H56.5V97.05H-20V99.05Z" fill="white"/>
<path d="M25.3679 62.9179L21.1253 58.6752L21.1253 58.6753L25.3679 62.9179ZM26.7821 62.9179L31.0248 58.6753L31.0248 58.6752L26.7821 62.9179ZM25.3679 64.3321L21.1253 68.5747L21.1253 68.5747L25.3679 64.3321ZM59.0858 98.05L63.3284 102.293L67.5711 98.05L63.3284 93.8074L59.0858 98.05ZM25.3679 131.768L21.1253 127.525L21.1252 127.525L25.3679 131.768ZM25.3679 133.182L21.1252 137.425L21.1253 137.425L25.3679 133.182ZM26.7821 133.182L31.0247 137.425L31.0248 137.425L26.7821 133.182ZM61.2071 98.7571L56.9645 94.5145L56.9645 94.5145L61.2071 98.7571ZM61.9142 98.05L66.1569 102.293L70.3995 98.05L66.1569 93.8074L61.9142 98.05ZM61.2071 97.3429L56.9645 101.586L61.2071 97.3429ZM56.5 99.05V105.05H62.5V99.05H56.5ZM-20 99.05H-26V105.05H-20V99.05ZM56.5 97.05H62.5V91.05H56.5V97.05ZM-20 97.05V91.05H-26V97.05H-20ZM29.6105 67.1605C27.6579 69.1132 24.4921 69.1132 22.5395 67.1605L31.0248 58.6752C28.2911 55.9416 23.8589 55.9416 21.1253 58.6752L29.6105 67.1605ZM29.6106 60.0895C31.5632 62.0421 31.5632 65.2079 29.6106 67.1605L21.1253 58.6753C18.3916 61.4089 18.3916 65.8411 21.1253 68.5747L29.6106 60.0895ZM63.3284 93.8074L29.6105 60.0895L21.1253 68.5747L54.8432 102.293L63.3284 93.8074ZM29.6105 136.011L63.3284 102.293L54.8432 93.8074L21.1253 127.525L29.6105 136.011ZM29.6106 128.939C31.5632 130.892 31.5632 134.058 29.6106 136.011L21.1252 127.525C18.3916 130.259 18.3916 134.691 21.1252 137.425L29.6106 128.939ZM22.5395 128.939C24.4921 126.987 27.6579 126.987 29.6105 128.939L21.1253 137.425C23.859 140.158 28.2911 140.158 31.0247 137.425L22.5395 128.939ZM56.9645 94.5145L22.5395 128.939L31.0248 137.425L65.4498 103L56.9645 94.5145ZM57.6716 93.8073L56.9645 94.5145L65.4497 103L66.1569 102.293L57.6716 93.8073ZM56.9645 101.586L57.6716 102.293L66.1569 93.8074L65.4498 93.1003L56.9645 101.586ZM22.5395 67.1605L56.9645 101.586L65.4498 93.1003L31.0248 58.6753L22.5395 67.1605ZM56.5 93.05H-20V105.05H56.5V93.05ZM50.5 97.05V99.05H62.5V97.05H50.5ZM-20 103.05H56.5V91.05H-20V103.05ZM-14 99.05V97.05H-26V99.05H-14Z" fill="black"/>
<circle cx="132" cy="96" r="12" fill="#F740FF"/>
<circle cx="168" cy="96" r="12" fill="#F740FF"/>
<circle cx="204" cy="96" r="12" fill="#F740FF"/>
<rect x="410" y="222" width="182" height="253" rx="12" transform="rotate(-180 410 222)" fill="#17EBA0"/>
<path fill-rule="evenodd" clip-rule="evenodd" d="M309.218 128.082C309.608 128.473 310.242 128.473 310.632 128.082C311.023 127.692 311.023 127.058 310.632 126.668L276.914 92.95L310.632 59.2321C311.023 58.8416 311.023 58.2084 310.632 57.8179C310.242 57.4274 309.608 57.4274 309.218 57.8179L274.793 92.2429L274.086 92.95L274.793 93.6571L309.218 128.082ZM356 91.95L279.5 91.95L279.5 93.95L356 93.95L356 91.95Z" fill="white"/>
<path d="M310.632 128.082L314.875 132.325L314.875 132.325L310.632 128.082ZM309.218 128.082L304.975 132.325L304.975 132.325L309.218 128.082ZM310.632 126.668L314.875 122.425L314.875 122.425L310.632 126.668ZM276.914 92.95L272.672 88.7074L268.429 92.95L272.672 97.1926L276.914 92.95ZM310.632 59.2321L314.875 63.4747L314.875 63.4747L310.632 59.2321ZM310.632 57.8179L314.875 53.5753L314.875 53.5752L310.632 57.8179ZM309.218 57.8179L304.975 53.5752L304.975 53.5753L309.218 57.8179ZM274.793 92.2429L279.036 96.4855L279.036 96.4855L274.793 92.2429ZM274.086 92.95L269.843 88.7073L265.6 92.95L269.843 97.1926L274.086 92.95ZM274.793 93.6571L279.036 89.4145L274.793 93.6571ZM279.5 91.95L279.5 85.95L273.5 85.95L273.5 91.95L279.5 91.95ZM356 91.95L362 91.95L362 85.95L356 85.95L356 91.95ZM279.5 93.95L273.5 93.95L273.5 99.95L279.5 99.95L279.5 93.95ZM356 93.95L356 99.95L362 99.95L362 93.95L356 93.95ZM306.389 123.839C308.342 121.887 311.508 121.887 313.461 123.839L304.975 132.325C307.709 135.058 312.141 135.058 314.875 132.325L306.389 123.839ZM306.389 130.911C304.437 128.958 304.437 125.792 306.389 123.839L314.875 132.325C317.608 129.591 317.608 125.159 314.875 122.425L306.389 130.911ZM272.672 97.1926L306.389 130.911L314.875 122.425L281.157 88.7074L272.672 97.1926ZM306.389 54.9895L272.672 88.7074L281.157 97.1926L314.875 63.4747L306.389 54.9895ZM306.389 62.0605C304.437 60.1079 304.437 56.9421 306.389 54.9895L314.875 63.4747C317.608 60.7411 317.608 56.3089 314.875 53.5753L306.389 62.0605ZM313.46 62.0606C311.508 64.0131 308.342 64.0131 306.39 62.0606L314.875 53.5752C312.141 50.8416 307.709 50.8416 304.975 53.5752L313.46 62.0606ZM279.036 96.4855L313.461 62.0605L304.975 53.5753L270.55 88.0002L279.036 96.4855ZM278.328 97.1926L279.036 96.4855L270.55 88.0002L269.843 88.7073L278.328 97.1926ZM279.036 89.4145L278.328 88.7074L269.843 97.1926L270.55 97.8997L279.036 89.4145ZM313.461 123.839L279.036 89.4145L270.55 97.8997L304.975 132.325L313.461 123.839ZM279.5 97.95L356 97.95L356 85.95L279.5 85.95L279.5 97.95ZM285.5 93.95L285.5 91.95L273.5 91.95L273.5 93.95L285.5 93.95ZM356 87.95L279.5 87.95L279.5 99.95L356 99.95L356 87.95ZM350 91.95L350 93.95L362 93.95L362 91.95L350 91.95Z" fill="black"/>
</g>
<defs>
<clipPath id="clip0">
<rect width="336" height="192" fill="white"/>
</clipPath>
</defs>
</svg>
