<svg width="929" height="317" viewBox="0 0 929 317" fill="none" xmlns="http://www.w3.org/2000/svg">
<g filter="url(#filter0_d_2408_13987)">
<rect x="12" y="19" width="426" height="245" fill="white"/>
</g>
<path d="M408.358 194.983C440.303 200.483 453.035 209.79 466.188 237.874" stroke="#7630EA" stroke-width="2"/>
<path d="M411.237 91.8874C432.31 67.2567 446.821 61.0807 477.681 64.151" stroke="#7630EA" stroke-width="2"/>
<g filter="url(#filter1_d_2408_13987)">
<rect x="489" y="6" width="198.277" height="114.033" fill="white"/>
</g>
<rect x="497" y="44" width="181.056" height="67" fill="#EFEFEF"/>
<g filter="url(#filter2_d_2408_13987)">
<rect x="718.186" y="184" width="198.22" height="114" fill="white"/>
</g>
<rect x="727" y="220" width="181" height="68" fill="#EFEFEF"/>
<path d="M756.359 205.616V208.28C757.169 208.766 758.501 209.18 759.977 209.18C762.461 209.18 764.495 208.118 764.495 205.724C764.495 204.032 763.577 202.97 761.561 202.34L759.887 201.836C759.311 201.656 758.969 201.458 758.969 200.954C758.969 200.396 759.599 200.162 760.427 200.162C761.687 200.162 762.785 200.576 763.775 201.26V198.596C762.857 198.092 761.795 197.768 760.301 197.768C757.979 197.768 756.125 198.974 756.125 201.17C756.125 203.006 757.151 203.924 759.005 204.464L760.679 204.95C761.273 205.166 761.615 205.346 761.615 205.886C761.615 206.57 760.823 206.768 759.905 206.768C758.663 206.768 757.313 206.264 756.359 205.616ZM773.404 209V200.9H770.578V205.814C770.434 206.372 769.948 206.714 769.426 206.714C768.706 206.714 768.382 206.228 768.382 205.544V200.9H765.574V206.21C765.574 208.01 766.636 209.18 768.418 209.18C769.336 209.18 770.146 208.802 770.578 208.298V209H773.404ZM777.734 209V208.352C778.112 208.784 778.904 209.18 779.732 209.18C782.072 209.18 783.35 207.29 783.35 204.95C783.35 202.61 782.072 200.72 779.732 200.72C778.904 200.72 778.112 201.116 777.734 201.548V197.3H774.908V209H777.734ZM777.734 206.012V203.87C777.95 203.438 778.436 203.114 778.976 203.114C779.948 203.114 780.524 203.906 780.524 204.95C780.524 205.994 779.948 206.768 778.976 206.768C778.418 206.768 777.95 206.462 777.734 206.012ZM784.591 203.096V205.472H788.929V203.096H784.591ZM794.753 204.122V204.41C794.429 204.176 793.673 203.96 792.989 203.96C791.243 203.96 789.875 204.968 789.875 206.534C789.875 208.244 791.243 209.144 792.845 209.144C793.709 209.144 794.483 208.856 794.753 208.586V209H797.471V203.996C797.471 201.854 796.103 200.72 793.709 200.72C792.557 200.72 791.477 200.99 790.811 201.35V203.618C791.459 203.24 792.251 203.042 793.025 203.042C794.177 203.042 794.753 203.492 794.753 204.122ZM794.753 206.264V206.732C794.573 207.056 794.123 207.272 793.619 207.272C793.061 207.272 792.503 207.038 792.503 206.48C792.503 205.94 793.061 205.706 793.619 205.706C794.123 205.706 794.573 205.922 794.753 206.264ZM804.356 203.582V200.864C804.23 200.792 803.942 200.72 803.582 200.72C802.772 200.72 802.142 201.08 801.746 201.62V200.9H798.92V209H801.746V204.248C801.89 203.672 802.412 203.33 803.186 203.33C803.636 203.33 804.014 203.402 804.356 203.582ZM807.693 205.598H812.679V204.77C812.679 202.358 811.401 200.72 808.881 200.72C806.649 200.72 804.957 202.466 804.957 205.004C804.957 207.614 806.721 209.18 809.313 209.18C810.483 209.18 811.473 208.928 812.103 208.46V206.318C811.293 206.804 810.627 206.966 809.763 206.966C808.719 206.966 807.927 206.57 807.693 205.598ZM808.989 202.862C809.673 202.862 810.087 203.33 810.159 204.014H807.729C807.927 203.276 808.377 202.862 808.989 202.862ZM818.255 204.122V204.41C817.931 204.176 817.175 203.96 816.491 203.96C814.745 203.96 813.377 204.968 813.377 206.534C813.377 208.244 814.745 209.144 816.347 209.144C817.211 209.144 817.985 208.856 818.255 208.586V209H820.973V203.996C820.973 201.854 819.605 200.72 817.211 200.72C816.059 200.72 814.979 200.99 814.313 201.35V203.618C814.961 203.24 815.753 203.042 816.527 203.042C817.679 203.042 818.255 203.492 818.255 204.122ZM818.255 206.264V206.732C818.075 207.056 817.625 207.272 817.121 207.272C816.563 207.272 816.005 207.038 816.005 206.48C816.005 205.94 816.563 205.706 817.121 205.706C817.625 205.706 818.075 205.922 818.255 206.264ZM825.846 205.616V208.28C826.656 208.766 827.988 209.18 829.464 209.18C831.948 209.18 833.982 208.118 833.982 205.724C833.982 204.032 833.064 202.97 831.048 202.34L829.374 201.836C828.798 201.656 828.456 201.458 828.456 200.954C828.456 200.396 829.086 200.162 829.914 200.162C831.174 200.162 832.272 200.576 833.262 201.26V198.596C832.344 198.092 831.282 197.768 829.788 197.768C827.466 197.768 825.612 198.974 825.612 201.17C825.612 203.006 826.638 203.924 828.492 204.464L830.166 204.95C830.76 205.166 831.102 205.346 831.102 205.886C831.102 206.57 830.31 206.768 829.392 206.768C828.15 206.768 826.8 206.264 825.846 205.616ZM837.922 211.862V208.352C838.3 208.784 839.092 209.18 839.92 209.18C842.26 209.18 843.538 207.254 843.538 204.95C843.538 202.628 842.26 200.72 839.92 200.72C839.092 200.72 838.3 201.116 837.922 201.548V200.9H835.096V211.862H837.922ZM837.922 206.012V203.87C838.138 203.438 838.606 203.114 839.164 203.114C840.136 203.114 840.712 203.906 840.712 204.95C840.712 205.994 840.136 206.768 839.164 206.768C838.624 206.768 838.138 206.462 837.922 206.012ZM852.577 204.95C852.577 202.448 850.903 200.72 848.437 200.72C845.989 200.72 844.297 202.448 844.297 204.95C844.297 207.452 845.989 209.18 848.437 209.18C850.903 209.18 852.577 207.452 852.577 204.95ZM849.805 204.95C849.805 206.066 849.319 206.84 848.437 206.84C847.573 206.84 847.087 206.066 847.087 204.95C847.087 203.834 847.573 203.042 848.437 203.042C849.319 203.042 849.805 203.834 849.805 204.95ZM862.118 209L859.04 204.644L862.046 200.9H858.806L856.502 203.96V197.3H853.676V209H856.502V205.454L858.95 209H862.118ZM864.857 205.598H869.843V204.77C869.843 202.358 868.565 200.72 866.045 200.72C863.813 200.72 862.121 202.466 862.121 205.004C862.121 207.614 863.885 209.18 866.477 209.18C867.647 209.18 868.637 208.928 869.267 208.46V206.318C868.457 206.804 867.791 206.966 866.927 206.966C865.883 206.966 865.091 206.57 864.857 205.598ZM866.153 202.862C866.837 202.862 867.251 203.33 867.323 204.014H864.893C865.091 203.276 865.541 202.862 866.153 202.862Z" fill="#444444"/>
<path d="M524.592 19.948V31H532.44V28.498H527.49V19.948H524.592ZM536.719 20.704C536.719 19.768 535.981 19.174 535.117 19.174C534.253 19.174 533.515 19.768 533.515 20.704C533.515 21.622 534.253 22.216 535.117 22.216C535.981 22.216 536.719 21.622 536.719 20.704ZM536.521 31V22.9H533.695V31H536.521ZM537.767 28.03V30.406C538.523 30.91 539.711 31.18 540.845 31.18C542.843 31.18 544.337 30.334 544.337 28.606C544.337 27.238 543.635 26.518 541.871 26.05L541.133 25.834C540.737 25.726 540.503 25.618 540.503 25.312C540.503 24.988 540.827 24.826 541.313 24.826C542.231 24.826 543.095 25.204 543.869 25.762V23.44C543.077 22.954 542.195 22.72 541.043 22.72C539.135 22.72 537.731 23.674 537.731 25.366C537.731 26.824 538.685 27.526 540.179 27.85L540.809 28.012C541.295 28.12 541.547 28.246 541.547 28.57C541.547 28.93 541.187 29.056 540.629 29.056C539.801 29.056 538.541 28.66 537.767 28.03ZM549.164 31V25.096H550.748V22.9H549.164V20.668H546.356V22.9H544.952V25.096H546.356V31H549.164ZM558.357 31V19.948H555.459V31H558.357ZM563.684 31V25.096H565.268V22.9H563.684V20.668H560.876V22.9H559.472V25.096H560.876V31H563.684ZM568.537 27.598H573.523V26.77C573.523 24.358 572.245 22.72 569.725 22.72C567.493 22.72 565.801 24.466 565.801 27.004C565.801 29.614 567.565 31.18 570.157 31.18C571.327 31.18 572.317 30.928 572.947 30.46V28.318C572.137 28.804 571.471 28.966 570.607 28.966C569.563 28.966 568.771 28.57 568.537 27.598ZM569.833 24.862C570.517 24.862 570.931 25.33 571.003 26.014H568.573C568.771 25.276 569.221 24.862 569.833 24.862ZM581.798 23.692C581.312 23.116 580.592 22.72 579.566 22.72C578.666 22.72 577.892 23.062 577.478 23.566V22.9H574.652V31H577.478V26.068C577.604 25.51 578.036 25.204 578.522 25.204C579.152 25.204 579.44 25.69 579.44 26.374V31H582.248V26.068C582.392 25.51 582.806 25.204 583.292 25.204C583.922 25.204 584.21 25.69 584.21 26.374V31H587.036V25.69C587.036 23.872 585.992 22.72 584.3 22.72C583.112 22.72 582.284 23.188 581.798 23.692ZM599.92 28.516H596.626L597.706 27.04C598.66 25.708 599.47 24.502 599.47 23.098C599.47 21.1 598.066 19.768 595.87 19.768C594.268 19.768 592.918 20.344 592.072 21.046V23.818C592.774 23.242 593.98 22.468 595.114 22.468C595.996 22.468 596.482 22.936 596.482 23.674C596.482 24.61 595.96 25.294 594.97 26.608L591.73 30.928V31H599.92V28.516ZM604.865 27.616V30.28C605.675 30.766 607.007 31.18 608.483 31.18C610.967 31.18 613.001 30.118 613.001 27.724C613.001 26.032 612.083 24.97 610.067 24.34L608.393 23.836C607.817 23.656 607.475 23.458 607.475 22.954C607.475 22.396 608.105 22.162 608.933 22.162C610.193 22.162 611.291 22.576 612.281 23.26V20.596C611.363 20.092 610.301 19.768 608.807 19.768C606.485 19.768 604.631 20.974 604.631 23.17C604.631 25.006 605.657 25.924 607.511 26.464L609.185 26.95C609.779 27.166 610.121 27.346 610.121 27.886C610.121 28.57 609.329 28.768 608.411 28.768C607.169 28.768 605.819 28.264 604.865 27.616ZM616.941 33.862V30.352C617.319 30.784 618.111 31.18 618.939 31.18C621.279 31.18 622.557 29.254 622.557 26.95C622.557 24.628 621.279 22.72 618.939 22.72C618.111 22.72 617.319 23.116 616.941 23.548V22.9H614.115V33.862H616.941ZM616.941 28.012V25.87C617.157 25.438 617.625 25.114 618.183 25.114C619.155 25.114 619.731 25.906 619.731 26.95C619.731 27.994 619.155 28.768 618.183 28.768C617.643 28.768 617.157 28.462 616.941 28.012ZM631.596 26.95C631.596 24.448 629.922 22.72 627.456 22.72C625.008 22.72 623.316 24.448 623.316 26.95C623.316 29.452 625.008 31.18 627.456 31.18C629.922 31.18 631.596 29.452 631.596 26.95ZM628.824 26.95C628.824 28.066 628.338 28.84 627.456 28.84C626.592 28.84 626.106 28.066 626.106 26.95C626.106 25.834 626.592 25.042 627.456 25.042C628.338 25.042 628.824 25.834 628.824 26.95ZM641.137 31L638.059 26.644L641.065 22.9H637.825L635.521 25.96V19.3H632.695V31H635.521V27.454L637.969 31H641.137ZM643.876 27.598H648.862V26.77C648.862 24.358 647.584 22.72 645.064 22.72C642.832 22.72 641.14 24.466 641.14 27.004C641.14 29.614 642.904 31.18 645.496 31.18C646.666 31.18 647.656 30.928 648.286 30.46V28.318C647.476 28.804 646.81 28.966 645.946 28.966C644.902 28.966 644.11 28.57 643.876 27.598ZM645.172 24.862C645.856 24.862 646.27 25.33 646.342 26.014H643.912C644.11 25.276 644.56 24.862 645.172 24.862Z" fill="#444444"/>
<path d="M470.882 56.0879L478.595 64.4575L468 66.9939" stroke="#7630EA" stroke-width="2"/>
<path d="M466.353 226.761L466.103 238.139L456.712 232.617" stroke="#7630EA" stroke-width="2"/>
<path d="M221.123 42.948H218.225V47.142H213.959V42.948H211.061V54H213.959V49.626H218.225V54H221.123V42.948ZM230.49 54V45.9H227.664V50.814C227.52 51.372 227.034 51.714 226.512 51.714C225.792 51.714 225.468 51.228 225.468 50.544V45.9H222.66V51.21C222.66 53.01 223.722 54.18 225.504 54.18C226.422 54.18 227.232 53.802 227.664 53.298V54H230.49ZM234.821 54V53.352C235.199 53.784 235.991 54.18 236.819 54.18C239.159 54.18 240.437 52.29 240.437 49.95C240.437 47.61 239.159 45.72 236.819 45.72C235.991 45.72 235.199 46.116 234.821 46.548V42.3H231.995V54H234.821ZM234.821 51.012V48.87C235.037 48.438 235.523 48.114 236.063 48.114C237.035 48.114 237.611 48.906 237.611 49.95C237.611 50.994 237.035 51.768 236.063 51.768C235.505 51.768 235.037 51.462 234.821 51.012Z" fill="black"/>
<g filter="url(#filter3_d_2408_13987)">
<rect x="489" y="184" width="198.277" height="114.033" fill="white"/>
</g>
<rect x="500" y="220" width="177" height="18" fill="#EFEFEF"/>
<rect x="500" y="247" width="177" height="40" fill="#EFEFEF"/>
<path d="M531.299 196.948V208H539.147V205.498H534.197V196.948H531.299ZM543.426 197.704C543.426 196.768 542.688 196.174 541.824 196.174C540.96 196.174 540.222 196.768 540.222 197.704C540.222 198.622 540.96 199.216 541.824 199.216C542.688 199.216 543.426 198.622 543.426 197.704ZM543.228 208V199.9H540.402V208H543.228ZM544.474 205.03V207.406C545.23 207.91 546.418 208.18 547.552 208.18C549.55 208.18 551.044 207.334 551.044 205.606C551.044 204.238 550.342 203.518 548.578 203.05L547.84 202.834C547.444 202.726 547.21 202.618 547.21 202.312C547.21 201.988 547.534 201.826 548.02 201.826C548.938 201.826 549.802 202.204 550.576 202.762V200.44C549.784 199.954 548.902 199.72 547.75 199.72C545.842 199.72 544.438 200.674 544.438 202.366C544.438 203.824 545.392 204.526 546.886 204.85L547.516 205.012C548.002 205.12 548.254 205.246 548.254 205.57C548.254 205.93 547.894 206.056 547.336 206.056C546.508 206.056 545.248 205.66 544.474 205.03ZM555.871 208V202.096H557.455V199.9H555.871V197.668H553.063V199.9H551.659V202.096H553.063V208H555.871ZM565.064 208V196.948H562.166V208H565.064ZM570.391 208V202.096H571.975V199.9H570.391V197.668H567.583V199.9H566.179V202.096H567.583V208H570.391ZM575.244 204.598H580.23V203.77C580.23 201.358 578.952 199.72 576.432 199.72C574.2 199.72 572.508 201.466 572.508 204.004C572.508 206.614 574.272 208.18 576.864 208.18C578.034 208.18 579.024 207.928 579.654 207.46V205.318C578.844 205.804 578.178 205.966 577.314 205.966C576.27 205.966 575.478 205.57 575.244 204.598ZM576.54 201.862C577.224 201.862 577.638 202.33 577.71 203.014H575.28C575.478 202.276 575.928 201.862 576.54 201.862ZM588.506 200.692C588.02 200.116 587.3 199.72 586.274 199.72C585.374 199.72 584.6 200.062 584.186 200.566V199.9H581.36V208H584.186V203.068C584.312 202.51 584.744 202.204 585.23 202.204C585.86 202.204 586.148 202.69 586.148 203.374V208H588.956V203.068C589.1 202.51 589.514 202.204 590 202.204C590.63 202.204 590.918 202.69 590.918 203.374V208H593.744V202.69C593.744 200.872 592.7 199.72 591.008 199.72C589.82 199.72 588.992 200.188 588.506 200.692ZM601.749 203.716L604.197 196.948H601.569L598.203 205.984V206.056H603.369V208H605.817V206.056H607.059V203.716H605.817V201.664H603.369V203.716H601.749ZM621.886 196.948H618.988V201.142H614.722V196.948H611.824V208H614.722V203.626H618.988V208H621.886V196.948ZM631.253 208V199.9H628.427V204.814C628.283 205.372 627.797 205.714 627.275 205.714C626.555 205.714 626.231 205.228 626.231 204.544V199.9H623.423V205.21C623.423 207.01 624.485 208.18 626.267 208.18C627.185 208.18 627.995 207.802 628.427 207.298V208H631.253ZM635.584 208V207.352C635.962 207.784 636.754 208.18 637.582 208.18C639.922 208.18 641.2 206.29 641.2 203.95C641.2 201.61 639.922 199.72 637.582 199.72C636.754 199.72 635.962 200.116 635.584 200.548V196.3H632.758V208H635.584ZM635.584 205.012V202.87C635.8 202.438 636.286 202.114 636.826 202.114C637.798 202.114 638.374 202.906 638.374 203.95C638.374 204.994 637.798 205.768 636.826 205.768C636.268 205.768 635.8 205.462 635.584 205.012Z" fill="#444444"/>
<path d="M709.567 235.563C697.514 228.189 690.821 227.511 679 232.679" stroke="#7630EA" stroke-width="2"/>
<path d="M705.508 237L709.724 235.421L708.508 230.5" stroke="#7630EA" stroke-width="2"/>
<rect x="39" y="92" width="364" height="23" fill="#EFEFEF"/>
<rect x="39" y="121" width="364" height="23" fill="#EFEFEF"/>
<rect x="39" y="150" width="364" height="23" fill="#EFEFEF"/>
<rect x="39" y="179" width="364" height="23" fill="#EFEFEF"/>
<path d="M187.828 98.948V110H195.676V107.498H190.726V98.948H187.828ZM199.956 99.704C199.956 98.768 199.218 98.174 198.354 98.174C197.49 98.174 196.752 98.768 196.752 99.704C196.752 100.622 197.49 101.216 198.354 101.216C199.218 101.216 199.956 100.622 199.956 99.704ZM199.758 110V101.9H196.932V110H199.758ZM201.003 107.03V109.406C201.759 109.91 202.947 110.18 204.081 110.18C206.079 110.18 207.573 109.334 207.573 107.606C207.573 106.238 206.871 105.518 205.107 105.05L204.369 104.834C203.973 104.726 203.739 104.618 203.739 104.312C203.739 103.988 204.063 103.826 204.549 103.826C205.467 103.826 206.331 104.204 207.105 104.762V102.44C206.313 101.954 205.431 101.72 204.279 101.72C202.371 101.72 200.967 102.674 200.967 104.366C200.967 105.824 201.921 106.526 203.415 106.85L204.045 107.012C204.531 107.12 204.783 107.246 204.783 107.57C204.783 107.93 204.423 108.056 203.865 108.056C203.037 108.056 201.777 107.66 201.003 107.03ZM212.4 110V104.096H213.984V101.9H212.4V99.668H209.592V101.9H208.188V104.096H209.592V110H212.4ZM221.593 110V98.948H218.695V110H221.593ZM226.92 110V104.096H228.504V101.9H226.92V99.668H224.112V101.9H222.708V104.096H224.112V110H226.92ZM231.773 106.598H236.759V105.77C236.759 103.358 235.481 101.72 232.961 101.72C230.729 101.72 229.037 103.466 229.037 106.004C229.037 108.614 230.801 110.18 233.393 110.18C234.563 110.18 235.553 109.928 236.183 109.46V107.318C235.373 107.804 234.707 107.966 233.843 107.966C232.799 107.966 232.007 107.57 231.773 106.598ZM233.069 103.862C233.753 103.862 234.167 104.33 234.239 105.014H231.809C232.007 104.276 232.457 103.862 233.069 103.862ZM245.035 102.692C244.549 102.116 243.829 101.72 242.803 101.72C241.903 101.72 241.129 102.062 240.715 102.566V101.9H237.889V110H240.715V105.068C240.841 104.51 241.273 104.204 241.759 104.204C242.389 104.204 242.677 104.69 242.677 105.374V110H245.485V105.068C245.629 104.51 246.043 104.204 246.529 104.204C247.159 104.204 247.447 104.69 247.447 105.374V110H250.273V104.69C250.273 102.872 249.229 101.72 247.537 101.72C246.349 101.72 245.521 102.188 245.035 102.692ZM255.56 107.516V110H263.3V107.516H261.032V98.948H259.106L255.65 100.604V103.358L258.242 102.08V107.516H255.56Z" fill="#444444"/>
<path d="M187.828 126.948V138H195.676V135.498H190.726V126.948H187.828ZM199.956 127.704C199.956 126.768 199.218 126.174 198.354 126.174C197.49 126.174 196.752 126.768 196.752 127.704C196.752 128.622 197.49 129.216 198.354 129.216C199.218 129.216 199.956 128.622 199.956 127.704ZM199.758 138V129.9H196.932V138H199.758ZM201.003 135.03V137.406C201.759 137.91 202.947 138.18 204.081 138.18C206.079 138.18 207.573 137.334 207.573 135.606C207.573 134.238 206.871 133.518 205.107 133.05L204.369 132.834C203.973 132.726 203.739 132.618 203.739 132.312C203.739 131.988 204.063 131.826 204.549 131.826C205.467 131.826 206.331 132.204 207.105 132.762V130.44C206.313 129.954 205.431 129.72 204.279 129.72C202.371 129.72 200.967 130.674 200.967 132.366C200.967 133.824 201.921 134.526 203.415 134.85L204.045 135.012C204.531 135.12 204.783 135.246 204.783 135.57C204.783 135.93 204.423 136.056 203.865 136.056C203.037 136.056 201.777 135.66 201.003 135.03ZM212.4 138V132.096H213.984V129.9H212.4V127.668H209.592V129.9H208.188V132.096H209.592V138H212.4ZM221.593 138V126.948H218.695V138H221.593ZM226.92 138V132.096H228.504V129.9H226.92V127.668H224.112V129.9H222.708V132.096H224.112V138H226.92ZM231.773 134.598H236.759V133.77C236.759 131.358 235.481 129.72 232.961 129.72C230.729 129.72 229.037 131.466 229.037 134.004C229.037 136.614 230.801 138.18 233.393 138.18C234.563 138.18 235.553 137.928 236.183 137.46V135.318C235.373 135.804 234.707 135.966 233.843 135.966C232.799 135.966 232.007 135.57 231.773 134.598ZM233.069 131.862C233.753 131.862 234.167 132.33 234.239 133.014H231.809C232.007 132.276 232.457 131.862 233.069 131.862ZM245.035 130.692C244.549 130.116 243.829 129.72 242.803 129.72C241.903 129.72 241.129 130.062 240.715 130.566V129.9H237.889V138H240.715V133.068C240.841 132.51 241.273 132.204 241.759 132.204C242.389 132.204 242.677 132.69 242.677 133.374V138H245.485V133.068C245.629 132.51 246.043 132.204 246.529 132.204C247.159 132.204 247.447 132.69 247.447 133.374V138H250.273V132.69C250.273 130.872 249.229 129.72 247.537 129.72C246.349 129.72 245.521 130.188 245.035 130.692ZM263.156 135.516H259.862L260.942 134.04C261.896 132.708 262.706 131.502 262.706 130.098C262.706 128.1 261.302 126.768 259.106 126.768C257.504 126.768 256.154 127.344 255.308 128.046V130.818C256.01 130.242 257.216 129.468 258.35 129.468C259.232 129.468 259.718 129.936 259.718 130.674C259.718 131.61 259.196 132.294 258.206 133.608L254.966 137.928V138H263.156V135.516Z" fill="#444444"/>
<path d="M187.828 155.948V167H195.676V164.498H190.726V155.948H187.828ZM199.956 156.704C199.956 155.768 199.218 155.174 198.354 155.174C197.49 155.174 196.752 155.768 196.752 156.704C196.752 157.622 197.49 158.216 198.354 158.216C199.218 158.216 199.956 157.622 199.956 156.704ZM199.758 167V158.9H196.932V167H199.758ZM201.003 164.03V166.406C201.759 166.91 202.947 167.18 204.081 167.18C206.079 167.18 207.573 166.334 207.573 164.606C207.573 163.238 206.871 162.518 205.107 162.05L204.369 161.834C203.973 161.726 203.739 161.618 203.739 161.312C203.739 160.988 204.063 160.826 204.549 160.826C205.467 160.826 206.331 161.204 207.105 161.762V159.44C206.313 158.954 205.431 158.72 204.279 158.72C202.371 158.72 200.967 159.674 200.967 161.366C200.967 162.824 201.921 163.526 203.415 163.85L204.045 164.012C204.531 164.12 204.783 164.246 204.783 164.57C204.783 164.93 204.423 165.056 203.865 165.056C203.037 165.056 201.777 164.66 201.003 164.03ZM212.4 167V161.096H213.984V158.9H212.4V156.668H209.592V158.9H208.188V161.096H209.592V167H212.4ZM221.593 167V155.948H218.695V167H221.593ZM226.92 167V161.096H228.504V158.9H226.92V156.668H224.112V158.9H222.708V161.096H224.112V167H226.92ZM231.773 163.598H236.759V162.77C236.759 160.358 235.481 158.72 232.961 158.72C230.729 158.72 229.037 160.466 229.037 163.004C229.037 165.614 230.801 167.18 233.393 167.18C234.563 167.18 235.553 166.928 236.183 166.46V164.318C235.373 164.804 234.707 164.966 233.843 164.966C232.799 164.966 232.007 164.57 231.773 163.598ZM233.069 160.862C233.753 160.862 234.167 161.33 234.239 162.014H231.809C232.007 161.276 232.457 160.862 233.069 160.862ZM245.035 159.692C244.549 159.116 243.829 158.72 242.803 158.72C241.903 158.72 241.129 159.062 240.715 159.566V158.9H237.889V167H240.715V162.068C240.841 161.51 241.273 161.204 241.759 161.204C242.389 161.204 242.677 161.69 242.677 162.374V167H245.485V162.068C245.629 161.51 246.043 161.204 246.529 161.204C247.159 161.204 247.447 161.69 247.447 162.374V167H250.273V161.69C250.273 159.872 249.229 158.72 247.537 158.72C246.349 158.72 245.521 159.188 245.035 159.692ZM255.452 155.948V158.432H259.25L257.414 161.816V161.87C258.944 161.78 260.366 162.248 260.366 163.436C260.366 164.354 259.628 164.822 258.494 164.822C257.396 164.822 256.298 164.372 255.38 163.598V166.244C256.19 166.784 257.234 167.18 258.818 167.18C261.122 167.18 263.066 165.794 263.066 163.418C263.066 161.96 262.202 160.826 260.762 160.304L263.066 156.002V155.948H255.452Z" fill="#444444"/>
<path d="M187.828 184.948V196H195.676V193.498H190.726V184.948H187.828ZM199.956 185.704C199.956 184.768 199.218 184.174 198.354 184.174C197.49 184.174 196.752 184.768 196.752 185.704C196.752 186.622 197.49 187.216 198.354 187.216C199.218 187.216 199.956 186.622 199.956 185.704ZM199.758 196V187.9H196.932V196H199.758ZM201.003 193.03V195.406C201.759 195.91 202.947 196.18 204.081 196.18C206.079 196.18 207.573 195.334 207.573 193.606C207.573 192.238 206.871 191.518 205.107 191.05L204.369 190.834C203.973 190.726 203.739 190.618 203.739 190.312C203.739 189.988 204.063 189.826 204.549 189.826C205.467 189.826 206.331 190.204 207.105 190.762V188.44C206.313 187.954 205.431 187.72 204.279 187.72C202.371 187.72 200.967 188.674 200.967 190.366C200.967 191.824 201.921 192.526 203.415 192.85L204.045 193.012C204.531 193.12 204.783 193.246 204.783 193.57C204.783 193.93 204.423 194.056 203.865 194.056C203.037 194.056 201.777 193.66 201.003 193.03ZM212.4 196V190.096H213.984V187.9H212.4V185.668H209.592V187.9H208.188V190.096H209.592V196H212.4ZM221.593 196V184.948H218.695V196H221.593ZM226.92 196V190.096H228.504V187.9H226.92V185.668H224.112V187.9H222.708V190.096H224.112V196H226.92ZM231.773 192.598H236.759V191.77C236.759 189.358 235.481 187.72 232.961 187.72C230.729 187.72 229.037 189.466 229.037 192.004C229.037 194.614 230.801 196.18 233.393 196.18C234.563 196.18 235.553 195.928 236.183 195.46V193.318C235.373 193.804 234.707 193.966 233.843 193.966C232.799 193.966 232.007 193.57 231.773 192.598ZM233.069 189.862C233.753 189.862 234.167 190.33 234.239 191.014H231.809C232.007 190.276 232.457 189.862 233.069 189.862ZM245.035 188.692C244.549 188.116 243.829 187.72 242.803 187.72C241.903 187.72 241.129 188.062 240.715 188.566V187.9H237.889V196H240.715V191.068C240.841 190.51 241.273 190.204 241.759 190.204C242.389 190.204 242.677 190.69 242.677 191.374V196H245.485V191.068C245.629 190.51 246.043 190.204 246.529 190.204C247.159 190.204 247.447 190.69 247.447 191.374V196H250.273V190.69C250.273 188.872 249.229 187.72 247.537 187.72C246.349 187.72 245.521 188.188 245.035 188.692ZM258.278 191.716L260.726 184.948H258.098L254.732 193.984V194.056H259.898V196H262.346V194.056H263.588V191.716H262.346V189.664H259.898V191.716H258.278Z" fill="#444444"/>
<defs>
<filter id="filter0_d_2408_13987" x="0" y="13" width="450" height="269" filterUnits="userSpaceOnUse" color-interpolation-filters="sRGB">
<feFlood flood-opacity="0" result="BackgroundImageFix"/>
<feColorMatrix in="SourceAlpha" type="matrix" values="0 0 0 0 0 0 0 0 0 0 0 0 0 0 0 0 0 0 127 0" result="hardAlpha"/>
<feOffset dy="6"/>
<feGaussianBlur stdDeviation="6"/>
<feColorMatrix type="matrix" values="0 0 0 0 0 0 0 0 0 0 0 0 0 0 0 0 0 0 0.12 0"/>
<feBlend mode="normal" in2="BackgroundImageFix" result="effect1_dropShadow_2408_13987"/>
<feBlend mode="normal" in="SourceGraphic" in2="effect1_dropShadow_2408_13987" result="shape"/>
</filter>
<filter id="filter1_d_2408_13987" x="477" y="0" width="222.277" height="138.033" filterUnits="userSpaceOnUse" color-interpolation-filters="sRGB">
<feFlood flood-opacity="0" result="BackgroundImageFix"/>
<feColorMatrix in="SourceAlpha" type="matrix" values="0 0 0 0 0 0 0 0 0 0 0 0 0 0 0 0 0 0 127 0" result="hardAlpha"/>
<feOffset dy="6"/>
<feGaussianBlur stdDeviation="6"/>
<feColorMatrix type="matrix" values="0 0 0 0 0 0 0 0 0 0 0 0 0 0 0 0 0 0 0.12 0"/>
<feBlend mode="normal" in2="BackgroundImageFix" result="effect1_dropShadow_2408_13987"/>
<feBlend mode="normal" in="SourceGraphic" in2="effect1_dropShadow_2408_13987" result="shape"/>
</filter>
<filter id="filter2_d_2408_13987" x="706.186" y="178" width="222.22" height="138" filterUnits="userSpaceOnUse" color-interpolation-filters="sRGB">
<feFlood flood-opacity="0" result="BackgroundImageFix"/>
<feColorMatrix in="SourceAlpha" type="matrix" values="0 0 0 0 0 0 0 0 0 0 0 0 0 0 0 0 0 0 127 0" result="hardAlpha"/>
<feOffset dy="6"/>
<feGaussianBlur stdDeviation="6"/>
<feColorMatrix type="matrix" values="0 0 0 0 0 0 0 0 0 0 0 0 0 0 0 0 0 0 0.12 0"/>
<feBlend mode="normal" in2="BackgroundImageFix" result="effect1_dropShadow_2408_13987"/>
<feBlend mode="normal" in="SourceGraphic" in2="effect1_dropShadow_2408_13987" result="shape"/>
</filter>
<filter id="filter3_d_2408_13987" x="477" y="178" width="222.277" height="138.033" filterUnits="userSpaceOnUse" color-interpolation-filters="sRGB">
<feFlood flood-opacity="0" result="BackgroundImageFix"/>
<feColorMatrix in="SourceAlpha" type="matrix" values="0 0 0 0 0 0 0 0 0 0 0 0 0 0 0 0 0 0 127 0" result="hardAlpha"/>
<feOffset dy="6"/>
<feGaussianBlur stdDeviation="6"/>
<feColorMatrix type="matrix" values="0 0 0 0 0 0 0 0 0 0 0 0 0 0 0 0 0 0 0.12 0"/>
<feBlend mode="normal" in2="BackgroundImageFix" result="effect1_dropShadow_2408_13987"/>
<feBlend mode="normal" in="SourceGraphic" in2="effect1_dropShadow_2408_13987" result="shape"/>
</filter>
</defs>
</svg>
