<svg width="336" height="192" viewBox="0 0 336 192" fill="none" xmlns="http://www.w3.org/2000/svg">
<rect x="26" y="40" width="84" height="47" rx="3" fill="#17EBA0"/>
<rect x="126" y="41" width="84" height="47" rx="3" fill="#17EBA0"/>
<rect x="226" y="40" width="84" height="47" rx="3" fill="#17EBA0"/>
<rect x="126" y="105" width="84" height="47" rx="3" fill="#00C8FF"/>
<rect x="226" y="105" width="84" height="47" rx="3" fill="#00C8FF"/>
<path d="M167.103 90.016L167.163 99.0158M167.163 99.0158L165.05 97.5299M167.163 99.0158L169.55 97.4998" stroke="#BBBBBB"/>
<path d="M268.397 100.005L268.416 91.0053M268.416 91.0053L270.516 92.5098M268.416 91.0053L266.016 92.5001" stroke="#6633BC"/>
<path d="M213.018 133.464L222.018 133.396M222.018 133.396L220.534 135.511M222.018 133.396L220.5 131.011" stroke="#BBBBBB"/>
</svg>
