<svg width="336" height="192" viewBox="0 0 336 192" fill="none" xmlns="http://www.w3.org/2000/svg">
<path d="M127.814 92.246C127.814 96.47 130.542 99.198 134.15 99.198C135.712 99.198 136.9 98.758 137.78 98.032V96.206C136.68 97.196 135.558 97.636 134.172 97.636C131.444 97.636 129.552 95.502 129.552 92.246C129.552 88.99 131.444 86.856 134.172 86.856C135.558 86.856 136.68 87.274 137.78 88.286V86.46C136.9 85.734 135.712 85.294 134.15 85.294C130.542 85.294 127.814 88.022 127.814 92.246ZM148.627 94.116C148.627 91.124 146.801 89.034 144.139 89.034C141.455 89.034 139.651 91.124 139.651 94.116C139.651 97.108 141.455 99.198 144.139 99.198C146.801 99.198 148.627 97.108 148.627 94.116ZM146.955 94.116C146.955 96.25 145.899 97.746 144.139 97.746C142.379 97.746 141.323 96.25 141.323 94.116C141.323 91.982 142.379 90.486 144.139 90.486C145.899 90.486 146.955 91.982 146.955 94.116ZM157.791 90.596C157.329 89.672 156.383 89.034 155.151 89.034C153.941 89.034 152.995 89.606 152.511 90.376V89.232H150.861V99H152.511V92.268C152.819 91.212 153.677 90.53 154.667 90.53C155.921 90.53 156.515 91.432 156.515 92.796V99H158.165V92.268C158.473 91.212 159.331 90.53 160.321 90.53C161.575 90.53 162.169 91.432 162.169 92.796V99H163.841V92.532C163.841 90.42 162.741 89.034 160.761 89.034C159.397 89.034 158.407 89.716 157.791 90.596ZM168.522 86.284C168.522 85.69 168.038 85.228 167.444 85.228C166.872 85.228 166.388 85.69 166.388 86.284C166.388 86.856 166.872 87.34 167.444 87.34C168.038 87.34 168.522 86.856 168.522 86.284ZM168.28 99V89.232H166.63V99H168.28ZM171.228 89.232V99H172.878V92.378C173.23 91.322 174.22 90.552 175.364 90.552C176.838 90.552 177.52 91.498 177.52 92.862V99H179.192V92.598C179.192 90.464 177.982 89.034 175.76 89.034C174.506 89.034 173.45 89.694 172.878 90.464V89.232H171.228ZM188.372 97.702V98.34C188.372 100.43 187.008 101.464 185.27 101.464C184.126 101.464 183.092 101.156 182.124 100.254V102.08C182.872 102.608 184.016 102.96 185.27 102.96C187.602 102.96 190.044 101.64 190.044 98.23V89.232H188.372V90.332C187.888 89.65 186.854 89.034 185.644 89.034C182.784 89.034 181.288 91.41 181.288 94.028C181.288 96.646 182.784 99.022 185.644 99.022C186.854 99.022 187.888 98.384 188.372 97.702ZM188.372 92.026V96.008C187.866 96.932 186.942 97.526 185.886 97.526C184.038 97.526 182.96 96.052 182.96 94.028C182.96 91.982 184.038 90.508 185.886 90.508C186.942 90.508 187.866 91.102 188.372 92.026ZM197.254 96.47V98.23C197.98 98.802 199.19 99.198 200.466 99.198C202.512 99.198 204.118 98.164 204.118 96.36C204.118 94.974 203.304 94.116 201.83 93.61L200.334 93.104C199.41 92.774 198.882 92.51 198.882 91.718C198.882 90.882 199.718 90.442 200.73 90.442C201.918 90.442 202.82 90.926 203.634 91.608V89.892C202.842 89.342 201.83 89.034 200.73 89.034C198.794 89.034 197.276 90.068 197.276 91.784C197.276 93.368 198.266 94.072 199.74 94.556L201.082 95.018C201.94 95.304 202.49 95.7 202.49 96.426C202.49 97.394 201.544 97.79 200.466 97.79C199.278 97.79 198.156 97.306 197.254 96.47ZM214.734 94.116C214.734 91.124 212.908 89.034 210.246 89.034C207.562 89.034 205.758 91.124 205.758 94.116C205.758 97.108 207.562 99.198 210.246 99.198C212.908 99.198 214.734 97.108 214.734 94.116ZM213.062 94.116C213.062 96.25 212.006 97.746 210.246 97.746C208.486 97.746 207.43 96.25 207.43 94.116C207.43 91.982 208.486 90.486 210.246 90.486C212.006 90.486 213.062 91.982 213.062 94.116ZM225.283 94.116C225.283 91.124 223.457 89.034 220.795 89.034C218.111 89.034 216.307 91.124 216.307 94.116C216.307 97.108 218.111 99.198 220.795 99.198C223.457 99.198 225.283 97.108 225.283 94.116ZM223.611 94.116C223.611 96.25 222.555 97.746 220.795 97.746C219.035 97.746 217.979 96.25 217.979 94.116C217.979 91.982 219.035 90.486 220.795 90.486C222.555 90.486 223.611 91.982 223.611 94.116ZM227.517 89.232V99H229.167V92.378C229.519 91.322 230.509 90.552 231.653 90.552C233.127 90.552 233.809 91.498 233.809 92.862V99H235.481V92.598C235.481 90.464 234.271 89.034 232.049 89.034C230.795 89.034 229.739 89.694 229.167 90.464V89.232H227.517Z" fill="#444444"/>
<path fill-rule="evenodd" clip-rule="evenodd" d="M103 82C96.9249 82 92 86.9249 92 93C92 99.0751 96.9249 104 103 104C109.075 104 114 99.0751 114 93C114 86.9249 109.075 82 103 82ZM94 93C94 88.0294 98.0294 84 103 84C107.971 84 112 88.0294 112 93C112 97.9706 107.971 102 103 102C98.0294 102 94 97.9706 94 93ZM104 88C104 87.4477 103.552 87 103 87C102.448 87 102 87.4477 102 88V93C102 93.3148 102.148 93.6111 102.4 93.8L106.4 96.8C106.842 97.1314 107.469 97.0418 107.8 96.6C108.131 96.1582 108.042 95.5314 107.6 95.2L104 92.5V88Z" fill="#444444"/>
</svg>
