<svg width="336" height="192" viewBox="0 0 336 192" fill="none" xmlns="http://www.w3.org/2000/svg">
<g clip-path="url(#clip0)">
<g clip-path="url(#clip1)">
<path fill-rule="evenodd" clip-rule="evenodd" d="M207.243 25.7574C204.899 23.4142 201.1 23.4142 198.757 25.7574C196.414 28.1005 196.414 31.8995 198.757 34.2426L228.515 64H211C181.174 64 157 88.1743 157 118V124.054C147.101 111.821 131.964 104 115 104H97.4852L127.243 74.2427C129.586 71.8995 129.586 68.1005 127.243 65.7574C124.899 63.4142 121.1 63.4142 118.757 65.7574L78.7703 105.744C78.7616 105.753 78.7529 105.762 78.7443 105.77L74.5146 110L78.7573 114.243L118.757 154.243C121.1 156.586 124.899 156.586 127.243 154.243C129.586 151.9 129.586 148.101 127.243 145.757L97.4852 116H115C138.173 116 156.958 134.76 157 157.923V214C157 217.314 159.686 220 163 220C163.207 220 163.412 219.99 163.613 219.969C166.639 219.662 169 217.107 169 214L169 158C169 157.971 169 157.942 169 157.913V118C169 94.8017 187.802 76 211 76H228.515L198.757 105.757C196.414 108.1 196.414 111.899 198.757 114.243C201.1 116.586 204.899 116.586 207.243 114.243L247.243 74.2426L251.485 70L247.243 65.7574L207.243 25.7574Z" fill="#444444"/>
</g>
</g>
<defs>
<clipPath id="clip0">
<rect width="336" height="192" fill="white"/>
</clipPath>
<clipPath id="clip1">
<rect x="67" y="22" width="192" height="192" fill="white"/>
</clipPath>
</defs>
</svg>
