<svg width="336" height="192" viewBox="0 0 336 192" fill="none" xmlns="http://www.w3.org/2000/svg">
<g filter="url(#filter0_d)">
<rect x="72" y="26" width="192" height="140" rx="4" fill="#354050"/>
</g>
<rect x="96" y="134" width="48" height="18" rx="2" fill="#01A982"/>
<rect opacity="0.5" x="96" y="67" width="144" height="21" rx="2" fill="#1A1F2B"/>
<path d="M97 41.168V49.764H102.488V48.77H98.106V41.168H97Z" fill="white"/>
<path d="M109.125 46.656C109.125 44.752 107.963 43.422 106.269 43.422C104.561 43.422 103.413 44.752 103.413 46.656C103.413 48.56 104.561 49.89 106.269 49.89C107.963 49.89 109.125 48.56 109.125 46.656ZM108.061 46.656C108.061 48.014 107.389 48.966 106.269 48.966C105.149 48.966 104.477 48.014 104.477 46.656C104.477 45.298 105.149 44.346 106.269 44.346C107.389 44.346 108.061 45.298 108.061 46.656Z" fill="white"/>
<path d="M114.634 48.938V49.344C114.634 50.674 113.766 51.332 112.66 51.332C111.932 51.332 111.274 51.136 110.658 50.562V51.724C111.134 52.06 111.862 52.284 112.66 52.284C114.144 52.284 115.698 51.444 115.698 49.274V43.548H114.634V44.248C114.326 43.814 113.668 43.422 112.898 43.422C111.078 43.422 110.126 44.934 110.126 46.6C110.126 48.266 111.078 49.778 112.898 49.778C113.668 49.778 114.326 49.372 114.634 48.938ZM114.634 45.326V47.86C114.312 48.448 113.724 48.826 113.052 48.826C111.876 48.826 111.19 47.888 111.19 46.6C111.19 45.298 111.876 44.36 113.052 44.36C113.724 44.36 114.312 44.738 114.634 45.326Z" fill="white"/>
<path d="M121.854 41.672C121.854 41.294 121.546 41 121.168 41C120.804 41 120.496 41.294 120.496 41.672C120.496 42.036 120.804 42.344 121.168 42.344C121.546 42.344 121.854 42.036 121.854 41.672ZM121.7 49.764V43.548H120.65V49.764H121.7Z" fill="white"/>
<path d="M123.576 43.548V49.764H124.626V45.55C124.85 44.878 125.48 44.388 126.208 44.388C127.146 44.388 127.58 44.99 127.58 45.858V49.764H128.644V45.69C128.644 44.332 127.874 43.422 126.46 43.422C125.662 43.422 124.99 43.842 124.626 44.332V43.548H123.576Z" fill="white"/>
<g opacity="0.3">
<path d="M105.836 74.064C105.836 73.74 105.572 73.488 105.248 73.488C104.936 73.488 104.672 73.74 104.672 74.064C104.672 74.376 104.936 74.64 105.248 74.64C105.572 74.64 105.836 74.376 105.836 74.064ZM105.704 81.612V75.672H104.804V81.552C104.804 82.152 104.552 82.368 104.084 82.368C103.976 82.368 103.844 82.344 103.772 82.332V83.1C103.868 83.136 104.048 83.148 104.156 83.148C105.152 83.148 105.704 82.608 105.704 81.612Z" fill="white"/>
<path d="M110.252 77.46V78.156C110.024 77.952 109.472 77.724 108.92 77.724C107.78 77.724 106.892 78.396 106.892 79.392C106.892 80.448 107.78 81.096 108.872 81.096C109.496 81.096 110.048 80.82 110.252 80.604V81H111.128V77.388C111.128 76.26 110.384 75.564 109.124 75.564C108.464 75.564 107.828 75.756 107.468 76.008V76.86C107.912 76.572 108.392 76.392 108.98 76.392C109.76 76.392 110.252 76.8 110.252 77.46ZM110.252 79.128V79.68C110.108 80.076 109.58 80.34 109.016 80.34C108.368 80.34 107.744 80.04 107.744 79.392C107.744 78.756 108.368 78.468 109.016 78.468C109.58 78.468 110.108 78.732 110.252 79.128Z" fill="white"/>
<path d="M112.667 75.672V81H113.567V77.388C113.759 76.812 114.299 76.392 114.923 76.392C115.727 76.392 116.099 76.908 116.099 77.652V81H117.011V77.508C117.011 76.344 116.351 75.564 115.139 75.564C114.455 75.564 113.879 75.924 113.567 76.344V75.672H112.667Z" fill="white"/>
<path d="M119.042 78.492H122.714V78.168C122.714 76.608 121.97 75.564 120.53 75.564C119.114 75.564 118.154 76.728 118.154 78.384C118.154 80.064 119.186 81.108 120.722 81.108C121.358 81.108 121.91 80.976 122.342 80.64V79.812C121.862 80.172 121.43 80.316 120.83 80.316C119.858 80.316 119.078 79.728 119.042 78.492ZM120.542 76.332C121.406 76.332 121.802 77.004 121.838 77.784H119.09C119.258 76.8 119.834 76.332 120.542 76.332Z" fill="white"/>
<path d="M129.493 79.344L130.009 76.428H129.205L129.121 76.872C128.953 76.596 128.569 76.32 128.029 76.32C126.733 76.32 125.845 77.544 125.845 78.852C125.845 79.848 126.421 80.628 127.429 80.628C127.909 80.628 128.413 80.34 128.653 79.944C128.821 80.388 129.289 80.64 129.853 80.64C131.041 80.64 132.193 79.704 132.193 77.748C132.193 75.732 130.585 74.208 128.221 74.208C125.497 74.208 123.673 76.236 123.673 78.744C123.673 81.624 125.905 82.848 128.233 82.848C129.289 82.848 130.237 82.596 130.837 82.308V81.624C130.153 81.936 129.301 82.176 128.233 82.176C126.433 82.176 124.417 81.3 124.417 78.744C124.417 76.524 125.965 74.88 128.221 74.88C130.105 74.88 131.473 76.008 131.473 77.748C131.473 79.176 130.825 79.992 129.973 79.992C129.589 79.992 129.409 79.824 129.493 79.344ZM128.965 77.7L128.689 79.188C128.437 79.572 128.089 79.884 127.597 79.884C127.021 79.884 126.673 79.452 126.673 78.816C126.673 77.952 127.213 77.064 128.077 77.064C128.509 77.064 128.833 77.34 128.965 77.7Z" fill="white"/>
<path d="M133.386 73.2V81H134.286V77.388C134.478 76.812 135.018 76.392 135.642 76.392C136.446 76.392 136.818 76.908 136.818 77.652V81H137.73V77.508C137.73 76.344 137.07 75.564 135.858 75.564C135.174 75.564 134.598 75.924 134.286 76.344V73.2H133.386Z" fill="white"/>
<path d="M140.157 83.04V80.376C140.433 80.76 140.997 81.108 141.657 81.108C143.229 81.108 144.057 79.812 144.057 78.336C144.057 76.86 143.229 75.564 141.657 75.564C140.997 75.564 140.433 75.912 140.157 76.296V75.672H139.257V83.04H140.157ZM140.157 79.416V77.256C140.433 76.704 140.961 76.38 141.525 76.38C142.545 76.38 143.145 77.208 143.145 78.336C143.145 79.464 142.545 80.292 141.525 80.292C140.961 80.292 140.433 79.968 140.157 79.416Z" fill="white"/>
<path d="M145.808 78.492H149.48V78.168C149.48 76.608 148.736 75.564 147.296 75.564C145.88 75.564 144.92 76.728 144.92 78.384C144.92 80.064 145.952 81.108 147.488 81.108C148.124 81.108 148.676 80.976 149.108 80.64V79.812C148.628 80.172 148.196 80.316 147.596 80.316C146.624 80.316 145.844 79.728 145.808 78.492ZM147.308 76.332C148.172 76.332 148.568 77.004 148.604 77.784H145.856C146.024 76.8 146.6 76.332 147.308 76.332Z" fill="white"/>
<path d="M150.286 80.412C150.286 80.784 150.574 81.06 150.934 81.06C151.282 81.06 151.57 80.784 151.57 80.412C151.57 80.04 151.282 79.752 150.934 79.752C150.574 79.752 150.286 80.04 150.286 80.412Z" fill="white"/>
<path d="M152.221 78.336C152.221 80.04 153.349 81.108 154.789 81.108C155.305 81.108 155.845 80.988 156.217 80.664V79.752C155.833 80.136 155.365 80.304 154.849 80.304C153.901 80.304 153.133 79.56 153.133 78.336C153.133 77.112 153.901 76.368 154.849 76.368C155.365 76.368 155.833 76.536 156.217 76.92V76.008C155.845 75.684 155.305 75.564 154.789 75.564C153.349 75.564 152.221 76.632 152.221 78.336Z" fill="white"/>
<path d="M161.98 78.336C161.98 76.704 160.984 75.564 159.532 75.564C158.068 75.564 157.084 76.704 157.084 78.336C157.084 79.968 158.068 81.108 159.532 81.108C160.984 81.108 161.98 79.968 161.98 78.336ZM161.068 78.336C161.068 79.5 160.492 80.316 159.532 80.316C158.572 80.316 157.996 79.5 157.996 78.336C157.996 77.172 158.572 76.356 159.532 76.356C160.492 76.356 161.068 77.172 161.068 78.336Z" fill="white"/>
<path d="M166.979 76.416C166.727 75.912 166.211 75.564 165.539 75.564C164.879 75.564 164.363 75.876 164.099 76.296V75.672H163.199V81H164.099V77.328C164.267 76.752 164.735 76.38 165.275 76.38C165.959 76.38 166.283 76.872 166.283 77.616V81H167.183V77.328C167.351 76.752 167.818 76.38 168.358 76.38C169.042 76.38 169.367 76.872 169.367 77.616V81H170.279V77.472C170.279 76.32 169.679 75.564 168.599 75.564C167.855 75.564 167.315 75.936 166.979 76.416Z" fill="white"/>
</g>
<rect opacity="0.5" x="96" y="100" width="144" height="21" rx="2" fill="#1A1F2B"/>
<g opacity="0.3">
<path d="M107.696 110.868C107.696 109.908 106.964 109.236 106.052 109.236C105.14 109.236 104.42 109.908 104.42 110.868C104.42 111.828 105.14 112.5 106.052 112.5C106.964 112.5 107.696 111.828 107.696 110.868Z" fill="white"/>
<path d="M111.809 110.868C111.809 109.908 111.077 109.236 110.165 109.236C109.253 109.236 108.533 109.908 108.533 110.868C108.533 111.828 109.253 112.5 110.165 112.5C111.077 112.5 111.809 111.828 111.809 110.868Z" fill="white"/>
<path d="M115.922 110.868C115.922 109.908 115.19 109.236 114.278 109.236C113.366 109.236 112.646 109.908 112.646 110.868C112.646 111.828 113.366 112.5 114.278 112.5C115.19 112.5 115.922 111.828 115.922 110.868Z" fill="white"/>
<path d="M120.036 110.868C120.036 109.908 119.304 109.236 118.392 109.236C117.48 109.236 116.76 109.908 116.76 110.868C116.76 111.828 117.48 112.5 118.392 112.5C119.304 112.5 120.036 111.828 120.036 110.868Z" fill="white"/>
<path d="M124.149 110.868C124.149 109.908 123.417 109.236 122.505 109.236C121.593 109.236 120.873 109.908 120.873 110.868C120.873 111.828 121.593 112.5 122.505 112.5C123.417 112.5 124.149 111.828 124.149 110.868Z" fill="white"/>
<path d="M128.262 110.868C128.262 109.908 127.53 109.236 126.618 109.236C125.706 109.236 124.986 109.908 124.986 110.868C124.986 111.828 125.706 112.5 126.618 112.5C127.53 112.5 128.262 111.828 128.262 110.868Z" fill="white"/>
<path d="M132.376 110.868C132.376 109.908 131.644 109.236 130.732 109.236C129.82 109.236 129.1 109.908 129.1 110.868C129.1 111.828 129.82 112.5 130.732 112.5C131.644 112.5 132.376 111.828 132.376 110.868Z" fill="white"/>
<path d="M136.489 110.868C136.489 109.908 135.757 109.236 134.845 109.236C133.933 109.236 133.213 109.908 133.213 110.868C133.213 111.828 133.933 112.5 134.845 112.5C135.757 112.5 136.489 111.828 136.489 110.868Z" fill="white"/>
<path d="M140.602 110.868C140.602 109.908 139.87 109.236 138.958 109.236C138.046 109.236 137.326 109.908 137.326 110.868C137.326 111.828 138.046 112.5 138.958 112.5C139.87 112.5 140.602 111.828 140.602 110.868Z" fill="white"/>
<path d="M144.715 110.868C144.715 109.908 143.983 109.236 143.071 109.236C142.159 109.236 141.439 109.908 141.439 110.868C141.439 111.828 142.159 112.5 143.071 112.5C143.983 112.5 144.715 111.828 144.715 110.868Z" fill="white"/>
</g>
<defs>
<filter id="filter0_d" x="60" y="20" width="216" height="164" filterUnits="userSpaceOnUse" color-interpolation-filters="sRGB">
<feFlood flood-opacity="0" result="BackgroundImageFix"/>
<feColorMatrix in="SourceAlpha" type="matrix" values="0 0 0 0 0 0 0 0 0 0 0 0 0 0 0 0 0 0 127 0"/>
<feOffset dy="6"/>
<feGaussianBlur stdDeviation="6"/>
<feColorMatrix type="matrix" values="0 0 0 0 0 0 0 0 0 0 0 0 0 0 0 0 0 0 0.1 0"/>
<feBlend mode="normal" in2="BackgroundImageFix" result="effect1_dropShadow"/>
<feBlend mode="normal" in="SourceGraphic" in2="effect1_dropShadow" result="shape"/>
</filter>
</defs>
</svg>
