<svg width="24" height="24" viewBox="0 0 24 24" fill="none" xmlns="http://www.w3.org/2000/svg">
<path d="M9.42584 5.10303C9.64745 4.20696 10.922 4.20696 11.1436 5.10303C12.0892 8.92632 15.0742 11.9114 18.8975 12.8569C19.7936 13.0785 19.7936 14.3531 18.8975 14.5747L18.5411 14.6685C14.8893 15.7069 12.0596 18.6248 11.1436 22.3286L11.0899 22.4858C10.7881 23.172 9.7813 23.172 9.47955 22.4858L9.42584 22.3286C8.50985 18.6248 5.68029 15.7069 2.02838 14.6685L1.67194 14.5747C0.776079 14.353 0.776134 13.0787 1.67194 12.8569C5.49522 11.9114 8.48022 8.92632 9.42584 5.10303ZM10.2842 8.4292C9.09748 10.6838 7.25272 12.5286 4.99811 13.7153C7.25271 14.902 9.09741 16.747 10.2842 19.0015C11.4709 16.7471 13.3161 14.9021 15.5704 13.7153C13.316 12.5285 11.4708 10.6837 10.2842 8.4292ZM18.0987 1.32373C18.1941 0.891757 18.8099 0.891757 18.9053 1.32373C19.3217 3.20709 20.7925 4.67802 22.6758 5.09424C23.1078 5.18968 23.1078 5.80544 22.6758 5.90088L22.4864 5.94971C20.6944 6.42025 19.3074 7.85263 18.9053 9.67236L18.8809 9.74854C18.7438 10.0785 18.2592 10.0786 18.1221 9.74854L18.0987 9.67236C17.7086 7.90657 16.3909 6.50327 14.6758 5.9917L14.3272 5.90088C13.8955 5.80533 13.8954 5.18977 14.3272 5.09424C16.2107 4.67807 17.6824 3.20722 18.0987 1.32373ZM18.501 4.82568C18.2927 5.06462 18.0681 5.28919 17.8292 5.49756C18.0682 5.70594 18.2926 5.93047 18.501 6.16943C18.7094 5.93052 18.934 5.70592 19.1729 5.49756C18.934 5.28915 18.7094 5.06466 18.501 4.82568Z" fill="currentColor"/>
</svg>
