<svg width="24" height="24" viewBox="0 0 24 24" fill="none" xmlns="http://www.w3.org/2000/svg">
<path d="M6.70711 10.7078L6.6827 10.7322L6.68172 10.7342L6.67977 10.7352L6.63778 10.7772L6.6368 10.7791L6.63485 10.7801L6.60751 10.8074L6.60555 10.8104L6.60262 10.8123L6.58993 10.825L6.58797 10.8279L6.58504 10.8299L6.58309 10.8318L6.58114 10.8348L6.57821 10.8367L6.55379 10.8611L6.55184 10.8641L6.54891 10.866L6.54598 10.8689L6.54403 10.8719L6.5411 10.8738L6.5245 10.8904L6.52254 10.8934L6.51961 10.8953L6.46688 10.9481L6.46395 10.952L6.46004 10.9549L6.45126 10.9637L6.44833 10.9676L6.44442 10.9705L6.38778 11.0272L6.38485 11.0311L6.38094 11.034L6.3702 11.0447L6.36727 11.0486L6.36336 11.0516L6.35946 11.0555L6.35653 11.0594L6.35262 11.0623L6.33016 11.0848L6.32723 11.0887L6.32333 11.0916L6.30379 11.1111L6.30086 11.115L6.29696 11.118L6.25399 11.1609L6.25008 11.1658L6.2452 11.1697L6.22567 11.1893L6.22176 11.1941L6.21688 11.1981L6.20516 11.2098L6.20126 11.2147L6.19637 11.2186L6.17586 11.2391L6.17196 11.2439L6.16708 11.2479L6.1329 11.282L6.12899 11.2869L6.12411 11.2908L6.09774 11.3172L6.09383 11.3221L6.08895 11.326L6.06649 11.3484L6.06258 11.3533L6.0577 11.3572L6.05282 11.3621L6.04891 11.367L6.04403 11.3709C6.04255 11.3724 6.04061 11.3743 6.03915 11.3758L6.03524 11.3807L6.03036 11.3846C6.02887 11.3861 6.02695 11.388 6.02547 11.3895L6.02157 11.3943L6.01669 11.3982L6.00692 11.408L6.00301 11.4129L5.99813 11.4168L5.98836 11.4266L5.98446 11.4314L5.97958 11.4354L5.96004 11.4549L5.95614 11.4598L5.95126 11.4637L5.92196 11.493L5.91805 11.4979C5.91651 11.4994 5.91471 11.5012 5.91317 11.5027L5.90829 11.5066L5.83504 11.5799C5.83346 11.5815 5.83175 11.5841 5.83016 11.5857C5.82853 11.5873 5.82591 11.589 5.8243 11.5906L5.78524 11.6297C5.78365 11.6313 5.78195 11.6339 5.78036 11.6356C5.7787 11.6372 5.77613 11.6388 5.7745 11.6404L5.75497 11.66C5.75336 11.6616 5.75169 11.6642 5.75008 11.6658C5.74842 11.6674 5.74587 11.6691 5.74422 11.6707L5.72958 11.6854C5.72796 11.687 5.72631 11.6896 5.72469 11.6912C5.72302 11.6928 5.72049 11.6945 5.71883 11.6961L5.70907 11.7059C5.70744 11.7075 5.70582 11.7101 5.70419 11.7117C5.70252 11.7133 5.69997 11.715 5.69833 11.7166L5.68856 11.7264C5.68692 11.7281 5.68532 11.7306 5.68368 11.7322C5.682 11.7339 5.67947 11.7355 5.67782 11.7371L5.65243 11.7625C5.65078 11.7642 5.6492 11.7667 5.64754 11.7684C5.64585 11.77 5.64335 11.7716 5.64169 11.7732L5.58993 11.825C5.58826 11.8267 5.58672 11.8292 5.58504 11.8309C5.58333 11.8325 5.58088 11.8341 5.57919 11.8357L5.51083 11.9041C5.50914 11.9058 5.50764 11.9083 5.50594 11.91C5.50421 11.9116 5.5018 11.9132 5.50008 11.9148L5.46297 11.952C5.46128 11.9537 5.4598 11.9561 5.45809 11.9578C5.45635 11.9595 5.45396 11.961 5.45223 11.9627L5.31258 12.1023C5.31088 12.1041 5.30941 12.1065 5.3077 12.1082C5.30595 12.1099 5.30358 12.1114 5.30184 12.1131C5.30014 12.1148 5.29868 12.1172 5.29696 12.1189C5.29522 12.1206 5.29282 12.1221 5.2911 12.1238L5.24227 12.1727C5.24058 12.1744 5.23909 12.1768 5.23739 12.1785C5.23563 12.1802 5.23327 12.1817 5.23153 12.1834C5.22982 12.1852 5.22836 12.1875 5.22665 12.1893C5.2249 12.191 5.22251 12.1924 5.22079 12.1941L5.1827 12.2322C5.18101 12.234 5.17952 12.2364 5.17782 12.2381C5.17606 12.2398 5.1737 12.2413 5.17196 12.243C5.17025 12.2447 5.16879 12.2471 5.16708 12.2488C5.16534 12.2505 5.16294 12.252 5.16122 12.2537L5.12313 12.2918C5.12143 12.2935 5.11996 12.2959 5.11825 12.2977C5.11649 12.2994 5.11413 12.3008 5.11239 12.3025C5.11068 12.3043 5.10922 12.3067 5.10751 12.3084C5.10577 12.3101 5.10337 12.3116 5.10165 12.3133L5.05282 12.3621C5.05112 12.3639 5.04964 12.3662 5.04794 12.368C5.04618 12.3697 5.04381 12.3711 5.04208 12.3729C5.04037 12.3746 5.03891 12.377 5.03719 12.3787C5.03544 12.3804 5.03306 12.3819 5.03133 12.3836L4.90243 12.5125C4.90074 12.5142 4.89924 12.5166 4.89754 12.5184C4.8958 12.5201 4.89341 12.5215 4.89169 12.5232C4.88999 12.525 4.88851 12.5274 4.8868 12.5291C4.88507 12.5308 4.88265 12.5323 4.88094 12.534L4.84383 12.5711C4.84215 12.5728 4.84065 12.5752 4.83895 12.577C4.83723 12.5786 4.83479 12.5802 4.83309 12.5818L4.81747 12.5975C4.8158 12.5992 4.81426 12.6016 4.81258 12.6033C4.81085 12.605 4.80843 12.6065 4.80672 12.6082L4.7911 12.6238C4.78943 12.6255 4.78789 12.628 4.78622 12.6297C4.78449 12.6314 4.78206 12.6329 4.78036 12.6346L4.74911 12.6658C4.74744 12.6675 4.7459 12.67 4.74422 12.6717C4.74252 12.6733 4.74005 12.6749 4.73836 12.6766C4.7368 12.6781 4.73505 12.6799 4.73348 12.6814C4.73182 12.6832 4.73026 12.6856 4.7286 12.6873C4.72689 12.689 4.72443 12.6905 4.72274 12.6922C4.72117 12.6938 4.71942 12.6955 4.71786 12.6971C4.7162 12.6988 4.71464 12.7013 4.71297 12.7029C4.71127 12.7046 4.70879 12.7062 4.70711 12.7078C3.39925 14.0158 2.95323 15.4289 3.02938 16.7234C3.10719 18.0424 3.73297 19.3196 4.70711 20.2938C5.68133 21.2678 6.95847 21.8938 8.27743 21.9715C9.57188 22.0475 10.9851 21.6015 12.2931 20.2938C12.6896 19.8972 13.1901 19.3967 13.5909 18.9959C13.7912 18.7957 13.9664 18.6194 14.0919 18.4939L14.2393 18.3465C14.2564 18.3294 14.2704 18.3164 14.2794 18.3074L14.2931 18.2938L15.7071 19.7078L15.6934 19.7215C15.6844 19.7305 15.6715 19.7444 15.6544 19.7615C15.6198 19.7961 15.5686 19.8463 15.5059 19.909L13.7071 21.7078C12.0154 23.3994 10.0529 24.0788 8.16024 23.9676C6.29219 23.8577 4.56866 22.9833 3.29305 21.7078C2.01752 20.4323 1.14333 18.7087 1.03329 16.8406C0.92195 14.9479 1.60141 12.9856 3.29305 11.2938C3.29471 11.2921 3.29628 11.2896 3.29794 11.2879C3.29962 11.2862 3.30209 11.2847 3.30379 11.283C3.30536 11.2814 3.30711 11.2797 3.30868 11.2781C3.31034 11.2764 3.3119 11.274 3.31356 11.2723C3.31524 11.2706 3.31771 11.269 3.31942 11.2674C3.32098 11.2658 3.32273 11.2641 3.3243 11.2625C3.32597 11.2608 3.32753 11.2584 3.32919 11.2566C3.33088 11.255 3.33333 11.2534 3.33504 11.2518C3.33661 11.2502 3.33836 11.2484 3.33993 11.2469C3.34158 11.2452 3.34317 11.2427 3.34481 11.241C3.34651 11.2393 3.34895 11.2378 3.35067 11.2361L3.36629 11.2205C3.36798 11.2188 3.3695 11.2164 3.37118 11.2147C3.37287 11.213 3.37532 11.2114 3.37704 11.2098L3.39266 11.1941C3.39435 11.1924 3.39586 11.19 3.39754 11.1883C3.39924 11.1866 3.40169 11.1851 3.4034 11.1834L3.41903 11.1678C3.42071 11.1661 3.42224 11.1636 3.42391 11.1619C3.42563 11.1602 3.42804 11.1587 3.42977 11.157L3.46688 11.1199C3.46857 11.1182 3.47008 11.1158 3.47176 11.1141C3.47349 11.1124 3.47588 11.1109 3.47762 11.1092C3.47933 11.1075 3.48081 11.1051 3.48251 11.1033C3.48422 11.1016 3.48663 11.1001 3.48836 11.0984L3.60653 10.9803C3.60822 10.9786 3.60973 10.9762 3.61141 10.9744C3.61313 10.9727 3.61553 10.9712 3.61727 10.9695C3.61898 10.9678 3.62045 10.9654 3.62215 10.9637C3.62389 10.962 3.62626 10.9605 3.62801 10.9588C3.62973 10.9571 3.63119 10.9547 3.6329 10.9529C3.63462 10.9512 3.63701 10.9497 3.63876 10.9481L3.68758 10.8992C3.68929 10.8975 3.69077 10.8951 3.69247 10.8934C3.6942 10.8916 3.69657 10.8902 3.69833 10.8885C3.70004 10.8867 3.7015 10.8844 3.70321 10.8826C3.70494 10.8809 3.70732 10.8794 3.70907 10.8777L3.74715 10.8397C3.74886 10.8379 3.75034 10.8355 3.75204 10.8338C3.75377 10.8321 3.75614 10.8306 3.7579 10.8289C3.75961 10.8272 3.76107 10.8248 3.76278 10.8231C3.7645 10.8213 3.7669 10.8199 3.76864 10.8182L3.80672 10.7801C3.80843 10.7784 3.80991 10.776 3.81161 10.7742C3.81334 10.7725 3.81571 10.771 3.81747 10.7693C3.81918 10.7676 3.82064 10.7652 3.82235 10.7635C3.82407 10.7618 3.82647 10.7603 3.82821 10.7586L3.87704 10.7098C3.87874 10.708 3.88022 10.7057 3.88192 10.7039C3.88365 10.7022 3.88603 10.7007 3.88778 10.699C3.8895 10.6973 3.89096 10.6949 3.89266 10.6932C3.89439 10.6915 3.89677 10.69 3.89852 10.6883C3.90022 10.6866 3.90171 10.6842 3.9034 10.6824C3.90512 10.6807 3.90753 10.6792 3.90926 10.6775L4.02743 10.5594C4.02912 10.5577 4.03063 10.5552 4.03231 10.5535C4.03403 10.5518 4.03643 10.5503 4.03817 10.5486C4.03988 10.5469 4.04136 10.5445 4.04305 10.5428C4.04478 10.5411 4.04717 10.5396 4.04891 10.5379C4.0506 10.5362 4.05211 10.5338 4.05379 10.532C4.05549 10.5304 4.05794 10.5288 4.05965 10.5272L4.08602 10.5008C4.08772 10.4991 4.08922 10.4967 4.0909 10.4949C4.09262 10.4932 4.09503 10.4917 4.09676 10.49L4.12313 10.4637C4.12482 10.462 4.12633 10.4595 4.12801 10.4578C4.1297 10.4562 4.13217 10.4546 4.13387 10.4529L4.16512 10.4217C4.1668 10.42 4.16834 10.4175 4.17001 10.4158C4.1717 10.4141 4.17415 10.4126 4.17586 10.4109C4.17743 10.4094 4.17918 10.4076 4.18075 10.4061C4.1824 10.4044 4.18399 10.4019 4.18563 10.4002C4.18732 10.3985 4.18978 10.397 4.19149 10.3953L4.22762 10.3592C4.22927 10.3575 4.23086 10.355 4.23251 10.3533C4.23418 10.3517 4.23667 10.3501 4.23836 10.3484L4.24325 10.3436C4.2449 10.3419 4.24648 10.3394 4.24813 10.3377C4.24978 10.3361 4.25231 10.3344 4.25399 10.3328L4.26376 10.3231C4.26539 10.3214 4.26701 10.3189 4.26864 10.3172C4.2703 10.3155 4.27281 10.3139 4.2745 10.3123L4.28426 10.3025C4.28589 10.3009 4.28753 10.2984 4.28915 10.2967C4.2908 10.295 4.29332 10.2934 4.29501 10.2918L4.30477 10.282C4.3064 10.2804 4.30803 10.2779 4.30965 10.2762C4.31129 10.2746 4.31385 10.2729 4.31551 10.2713L4.33016 10.2566C4.33178 10.255 4.33343 10.2525 4.33504 10.2508C4.33668 10.2492 4.33925 10.2475 4.3409 10.2459L4.36044 10.2264C4.36205 10.2247 4.36371 10.2222 4.36532 10.2205C4.36688 10.2189 4.36863 10.2172 4.3702 10.2156C4.37183 10.214 4.37441 10.2123 4.37606 10.2107L4.40536 10.1814C4.40695 10.1798 4.40865 10.1772 4.41024 10.1756L4.42001 10.1658C4.42161 10.1642 4.42423 10.1625 4.42586 10.1609L4.48934 10.0975L4.49325 10.0926L4.50301 10.0828L4.5079 10.0789L4.53719 10.0496L4.5411 10.0447L4.54598 10.0408L4.56551 10.0213L4.56942 10.0164L4.5743 10.0125L4.58407 10.0027L4.58797 9.99786L4.59286 9.99395L4.60262 9.98418L4.60653 9.9793L4.61141 9.97539C4.61289 9.97392 4.61481 9.972 4.61629 9.97051L4.6202 9.96563L4.62508 9.96172C4.62655 9.96026 4.62849 9.95832 4.62997 9.95684L4.63387 9.95196L4.63876 9.94805C4.64021 9.94659 4.64217 9.94464 4.64364 9.94317L4.64754 9.93828L4.65243 9.93438L4.6661 9.92071L4.67001 9.91582L4.67489 9.91192L4.67879 9.90703L4.68368 9.90313L4.70126 9.88555L4.70516 9.88067L4.71004 9.87676L4.71395 9.87188L4.71883 9.86797L4.75301 9.83379L4.75692 9.82891L4.7618 9.825L4.78231 9.8045L4.78622 9.79961L4.7911 9.79571L4.80282 9.78399L4.80672 9.77911L4.81161 9.7752L4.83114 9.75567L4.83504 9.75078L4.83895 9.74688L4.84383 9.74297L4.87899 9.70782L4.88192 9.70391L4.88583 9.7L4.88973 9.69707L4.90926 9.67754L4.91219 9.67364L4.9161 9.67071L4.93856 9.64825L4.94149 9.64434L4.9454 9.64141L4.9493 9.6375L4.95223 9.6336L4.95614 9.63067L4.96688 9.61993L4.96981 9.61602L4.97372 9.61309L4.99422 9.59258L4.99715 9.58868L5.00106 9.58575L5.00399 9.58184L5.0079 9.57891L5.01083 9.57598L5.01376 9.57207L5.01766 9.56914L5.02059 9.56621L5.02352 9.56231L5.02743 9.55938L5.03036 9.55645L5.03329 9.55254L5.03719 9.54961L5.04598 9.54082L5.04891 9.53692L5.05282 9.53399L5.07333 9.51348L5.07626 9.50957L5.08211 9.50371L5.08504 9.50176L5.10555 9.48125L5.10751 9.47832L5.11044 9.47637L5.11922 9.46758L5.12118 9.46465L5.12411 9.4627L5.12704 9.45977L5.12899 9.45684L5.13192 9.45489L5.13485 9.45196L5.1368 9.44903L5.13973 9.44707L5.16415 9.42266L5.1661 9.41973L5.16903 9.41778L5.17098 9.41582L5.17294 9.41289L5.17586 9.41094L5.17782 9.40899L5.17977 9.40606L5.1827 9.40411L5.18856 9.39825L5.19051 9.39532L5.19344 9.39336L5.22079 9.36602L5.22176 9.36407L5.22372 9.36309L5.22762 9.35918L5.2286 9.35723L5.23055 9.35625L5.2452 9.34161L5.24618 9.33965L5.24813 9.33868L5.25985 9.32696L5.26083 9.325L5.26278 9.32403L5.26473 9.32207L5.26571 9.32012L5.26669 9.31914L5.26864 9.31817L5.29305 9.29375L6.70711 10.7078Z" fill="currentColor"/>
<path fill-rule="evenodd" clip-rule="evenodd" d="M16.2462 0.690238C17.5831 0.768968 18.8065 1.39316 19.7071 2.29375C20.6076 3.19438 21.232 4.41787 21.3106 5.75469C21.3905 7.11602 20.8987 8.51618 19.7071 9.70782L15.4141 14.0008L16.9991 15.5857L21.2931 11.2938C21.6836 10.9033 22.3166 10.9032 22.7071 11.2938C23.0972 11.6843 23.0975 12.3174 22.7071 12.7078L18.4141 17.0008L20.7071 19.2938L19.2931 20.7078L3.29305 4.70782C2.90264 4.3174 2.90286 3.6843 3.29305 3.29375C3.68358 2.90328 4.31661 2.90325 4.70711 3.29375L7.99911 6.58575C8.20361 6.38124 8.44943 6.13737 8.7286 5.85821L12.2931 2.29375C13.4848 1.10199 14.8847 0.610229 16.2462 0.690238ZM16.129 2.68633C15.3656 2.64144 14.5152 2.89975 13.7071 3.70782L9.41415 8.00078L11.0001 9.58672L15.2931 5.29375L15.3692 5.22442C15.762 4.90436 16.3411 4.92775 16.7071 5.29375C17.0728 5.6598 17.0964 6.23902 16.7765 6.63164L16.7071 6.70782L12.4141 11.0008L14.0001 12.5867L18.2931 8.29375C19.1009 7.48585 19.3593 6.63512 19.3145 5.87188C19.2682 5.08407 18.8922 4.3071 18.2931 3.70782C17.6938 3.10856 16.9169 2.73277 16.129 2.68633Z" fill="currentColor"/>
<path d="M9.70712 13.7078L7.70711 15.7078C7.39927 16.0158 7.32823 16.3039 7.34188 16.5359C7.35719 16.7925 7.48301 17.0697 7.70711 17.2938C7.9313 17.5178 8.20842 17.6438 8.46493 17.659C8.69694 17.6726 8.9852 17.6015 9.29305 17.2938L10.5362 16.0506C10.7456 15.8412 10.9345 15.6513 11.0714 15.5145C11.1395 15.4464 11.1953 15.3915 11.2335 15.3533C11.2525 15.3343 11.2674 15.3185 11.2774 15.3084C11.2822 15.3036 11.2866 15.3002 11.2891 15.2977L11.2931 15.2938L12.7071 16.7078L12.7032 16.7117C12.7007 16.7143 12.6972 16.7187 12.6925 16.7234C12.6824 16.7335 12.6666 16.7484 12.6475 16.7674C12.6093 16.8056 12.5545 16.8614 12.4864 16.9295C12.3496 17.0664 12.1597 17.2552 11.9503 17.4647C11.5313 17.8836 11.031 18.3839 10.7071 18.7078C10.0154 19.3994 9.17785 19.7038 8.34774 19.6551C7.5422 19.6077 6.81867 19.2333 6.29305 18.7078C5.76751 18.1823 5.39333 17.4587 5.34579 16.6531C5.29695 15.8229 5.60141 14.9856 6.29305 14.2938L8.29305 12.2938L9.70712 13.7078Z" fill="currentColor"/>
</svg>
