<svg width="24" height="24" viewBox="0 0 24 24" fill="none" xmlns="http://www.w3.org/2000/svg">
<path fill-rule="evenodd" clip-rule="evenodd" d="M11.8786 2.70754C13.0502 1.53597 14.9502 1.53596 16.1218 2.70754L21.2937 7.87844L21.4001 7.99074C22.4635 9.16836 22.4283 10.9868 21.2937 12.1216L14.7136 18.6997C14.7114 18.702 14.71 18.7053 14.7077 18.7075C14.7054 18.7098 14.7022 18.7112 14.6999 18.7134L13.4138 20.0005H15.0007C15.5527 20.0009 16.0007 20.4484 16.0007 21.0005C16.0003 21.5522 15.5524 22.0001 15.0007 22.0005H10.5036C10.3863 22.0145 10.2675 22.0239 10.1482 22.0239H7.85226C7.05687 22.0239 6.29369 21.7073 5.73116 21.145L1.70773 17.1216C0.53617 15.95 0.536202 14.05 1.70773 12.8784L11.8786 2.70754ZM3.12179 14.2935C2.73146 14.684 2.73133 15.3171 3.12179 15.7075L7.14523 19.731L7.21847 19.7974C7.38126 19.9306 7.58296 20.0086 7.79366 20.021C7.86025 20.007 7.92995 20.0005 8.0007 20.0005H10.3601C10.546 19.9601 10.7185 19.8676 10.8552 19.731L12.5857 17.9995L6.0007 11.4146L3.12179 14.2935ZM14.7077 4.1216C14.3173 3.73113 13.6842 3.73123 13.2937 4.1216L7.41476 10.0005L13.9997 16.5855L19.8786 10.7075C20.2446 10.3415 20.268 9.76144 19.948 9.36867L19.8786 9.29347L14.7077 4.1216Z" fill="currentColor"/>
<path d="M20.0007 20.0005C20.5527 20.0009 21.0007 20.4484 21.0007 21.0005C21.0003 21.5522 20.5524 22.0001 20.0007 22.0005H19.0007C18.4487 22.0005 18.0011 21.5524 18.0007 21.0005C18.0007 20.4482 18.4484 20.0005 19.0007 20.0005H20.0007Z" fill="currentColor"/>
</svg>
