<svg width="24" height="24" viewBox="0 0 24 24" fill="none" xmlns="http://www.w3.org/2000/svg">
<path d="M19.9092 4.72266C24.0309 8.86471 24.0309 15.5816 19.9092 19.7236L18.5518 18.3584C21.9237 14.9694 21.9239 9.47576 18.5518 6.08691L19.9092 4.72266ZM6.27734 9.26172H2.91895V11.1904H4.83789C5.89756 11.1904 6.75659 12.0533 6.75684 13.1182V15.0469C6.75684 16.6443 5.46844 17.9392 3.87891 17.9395C2.28917 17.9395 1 16.6444 1 15.0469H2.91895C2.91895 15.5794 3.34899 16.0117 3.87891 16.0117C4.40862 16.0115 4.83789 15.5793 4.83789 15.0469V13.1182H1V7.33301H6.27734V9.26172ZM11.5547 7.33301C13.1442 7.33317 14.4324 8.62829 14.4326 10.2256H12.5137C12.5135 9.69334 12.0843 9.26188 11.5547 9.26172H10.8389C10.1746 9.26172 9.63579 9.80321 9.63574 10.4707V14.6016C9.63574 15.3799 10.2636 16.0117 11.0381 16.0117H11.1113C11.8857 16.0116 12.5137 15.3798 12.5137 14.6016V13.6006H10.9707V11.6719H14.4326V14.6016C14.4326 16.4449 12.9456 17.9394 11.1113 17.9395H11.0381C9.20378 17.9394 7.7168 16.4449 7.7168 14.6016V10.4707C7.71684 8.73817 9.11482 7.33301 10.8389 7.33301H11.5547ZM17.2637 7.4502C19.8862 10.0859 19.886 14.3593 17.2637 16.9951L15.9062 15.6318C17.7795 13.7491 17.7795 10.6962 15.9062 8.81348L17.2637 7.4502Z" fill="currentColor"/>
</svg>
