<svg width="24" height="24" viewBox="0 0 24 24" fill="none" xmlns="http://www.w3.org/2000/svg">
<path fill-rule="evenodd" clip-rule="evenodd" d="M12 0C15.8659 1.77188e-05 19 3.13402 19 7C19 7.34041 18.9729 7.67504 18.9257 8.00293C19.2735 7.97737 19.6247 8.13446 19.832 8.44531C20.1383 8.90483 20.0142 9.52568 19.5546 9.83203L19 9C19.5392 9.80891 19.5537 9.83301 19.5537 9.83301L19.5517 9.83398L19.5283 9.84961C19.518 9.85608 19.5055 9.86314 19.4921 9.87109C19.4653 9.88705 19.4317 9.90556 19.3916 9.92676C19.311 9.96929 19.2029 10.0219 19.0625 10.0801C18.7993 10.189 18.4216 10.3177 17.9013 10.4453L13.8837 21.6992C13.2517 23.469 10.7482 23.469 10.1162 21.6992L6.09762 10.4453C5.57781 10.3178 5.2005 10.1889 4.93746 10.0801C4.79699 10.0219 4.68888 9.96929 4.60836 9.92676C4.56824 9.90556 4.53465 9.88705 4.50777 9.87109C4.49439 9.86314 4.48193 9.85608 4.47164 9.84961L4.4482 9.83398L4.44625 9.83301C4.44625 9.83301 4.46934 9.79593 4.99996 9L4.44527 9.83203C3.98581 9.52567 3.86162 8.90482 4.16793 8.44531C4.37498 8.13475 4.72573 7.97776 5.0732 8.00293C5.02609 7.67509 4.99996 7.34036 4.99996 7C4.99996 3.13404 8.13401 4.66219e-05 12 0ZM15.6435 10.8232C14.6674 10.9285 13.4673 11 12 11C10.5321 11 9.33175 10.9285 8.35543 10.8232L12 21.0264L15.6435 10.8232ZM12 2C9.23858 2.00005 6.99996 4.23861 6.99996 7C6.99996 7.58002 7.09874 8.13529 7.27926 8.65137C8.29056 8.83527 9.80592 9 12 9C14.1933 9 15.7084 8.8352 16.7197 8.65137C16.9003 8.1352 17 7.58014 17 7C17 4.23859 14.7614 2.00002 12 2Z" fill="currentColor"/>
</svg>
