<svg width="24" height="24" viewBox="0 0 24 24" fill="none" xmlns="http://www.w3.org/2000/svg">
<path d="M18 13C18.5522 13 18.9999 13.4478 19 14V17H22C22.5522 17 22.9999 17.4478 23 18C23 18.5523 22.5523 19 22 19H19V22C19 22.5523 18.5523 23 18 23C17.4477 23 17 22.5523 17 22V19H14C13.4477 19 13 18.5523 13 18C13.0001 17.4478 13.4478 17 14 17H17V14C17.0001 13.4478 17.4478 13 18 13ZM15.748 1.03223C15.9811 0.971546 16.2298 0.996734 16.4473 1.10547L22.4473 4.10547C22.786 4.27484 23 4.62128 23 5V13.5C23 14.0523 22.5523 14.5 22 14.5C21.4477 14.5 21 14.0523 21 13.5V5.61816L17 3.61816V10.5C17 11.0523 16.5523 11.5 16 11.5C15.4477 11.5 15 11.0523 15 10.5V3.44336L9 5.69336V20.5566L11.6484 19.5635C12.1654 19.3696 12.7424 19.6316 12.9365 20.1484C13.1304 20.6654 12.8684 21.2425 12.3516 21.4365L8.35156 22.9365C8.0912 23.0342 7.80145 23.0189 7.55273 22.8945L1.55273 19.8945C1.21398 19.7251 1 19.3788 1 19V2L1.00781 1.87109C1.04629 1.57497 1.21676 1.30878 1.47461 1.14941C1.76936 0.967377 2.13738 0.95055 2.44727 1.10547L8.05664 3.91016L15.6484 1.06348L15.748 1.03223ZM3 18.3818L7 20.3818V5.61816L3 3.61816V18.3818Z" fill="currentColor"/>
</svg>
