<svg width="24" height="24" viewBox="0 0 24 24" fill="none" xmlns="http://www.w3.org/2000/svg">
<path d="M6.375 1C6.81911 1.00007 7.23688 1.1033 7.62891 1.33105C8.00313 1.54857 8.30758 1.85337 8.5752 2.18555C9.08482 2.81825 9.63734 3.78521 10.3574 4.98535L10.5293 5.29688C10.8999 6.02716 11.0511 6.78845 10.9102 7.51074C10.7445 8.35892 10.1999 9.01774 9.44629 9.39453C9.05901 9.58807 8.62409 9.73079 8.30859 9.83984C7.98705 9.95099 7.78103 10.0313 7.64453 10.1074C7.67444 10.179 7.72855 10.2901 7.83203 10.4453L8.19434 10.9717C9.04952 12.1742 9.96024 13.1916 10.7725 13.9756C11.7201 14.8902 12.4775 15.4333 12.8213 15.6055C13.0403 15.715 13.2405 15.799 13.4131 15.8564C13.4923 15.8828 13.5613 15.9008 13.6191 15.9141C13.6541 15.7534 13.6927 15.5523 13.7422 15.2979C13.8096 14.9512 13.91 14.4506 14.1006 14.0605L14.2266 13.8281C14.5421 13.2949 15.0193 12.8477 15.7139 12.6914C16.45 12.526 17.2165 12.7407 17.9463 13.1055C19.5609 13.9128 20.8348 15.2804 21.6748 16.4004L21.8018 16.5791C22.0855 16.9984 22.2725 17.4341 22.3418 17.8887C22.4221 18.4156 22.3341 18.8978 22.1572 19.3223C21.8314 20.104 21.1658 20.7483 20.707 21.207C19.4656 22.4483 17.4518 23.0793 15.5586 22.4482C14.0345 21.9402 10.8551 20.5262 7.37891 17.373L6.67969 16.7197C4.16644 14.293 2.32902 10.8904 1.55957 8.71582L1.41992 8.29785C1.19195 7.56832 0.990995 6.90409 0.992188 6.21777C0.993545 5.48904 1.21685 4.83001 1.60547 4.05273C1.96612 3.33157 2.75189 2.58955 3.5459 2.04883C4.33706 1.51016 5.38645 1.00016 6.375 1ZM6.375 3C5.9887 3.0002 5.34893 3.24026 4.67188 3.70117C3.99761 4.16031 3.53282 4.66873 3.39355 4.94727C3.06788 5.59869 2.99269 5.93534 2.99219 6.22168C2.99162 6.55054 3.08552 6.92268 3.3291 7.70215L3.45215 8.06836C4.13374 9.98639 5.81534 13.1039 8.06934 15.2803L8.72266 15.8926C11.9722 18.8399 14.9015 20.122 16.1904 20.5518C17.2968 20.9205 18.5334 20.5512 19.292 19.793C19.8331 19.2519 20.1676 18.8957 20.3105 18.5527C20.368 18.4148 20.3816 18.303 20.3643 18.1895C20.3504 18.0987 20.3102 17.968 20.2041 17.792L20.0742 17.5996C19.32 16.5941 18.2706 15.5036 17.0527 14.8945C16.4951 14.6158 16.2328 14.6255 16.1523 14.6436C16.1343 14.6475 16.0753 14.6571 15.9912 14.7764L15.8984 14.9395C15.8434 15.0523 15.7826 15.2861 15.7061 15.6797C15.6597 15.918 15.6026 16.243 15.5283 16.5371L15.4482 16.8164C15.318 17.2069 15.0605 17.5345 14.6865 17.7354C14.3391 17.9217 13.9721 17.9557 13.6709 17.9385C13.0869 17.9048 12.4641 17.6627 11.9277 17.3945C11.3138 17.0875 10.3833 16.3798 9.38379 15.415C8.49151 14.5538 7.49735 13.4432 6.56348 12.1299L6.16797 11.5547C5.81197 11.0206 5.54793 10.4237 5.61914 9.7998C5.69809 9.11007 6.1437 8.68678 6.5293 8.44336C6.8918 8.21459 7.33019 8.06158 7.65527 7.94922C8.02586 7.82113 8.31111 7.72623 8.55273 7.60547C8.79874 7.48236 8.91036 7.31593 8.94727 7.12695C8.98336 6.94157 8.96472 6.6321 8.74805 6.20508L8.6416 6.01465C7.86194 4.71521 7.41409 3.93168 7.01758 3.43945C6.83236 3.2096 6.70664 3.10759 6.62402 3.05957C6.55949 3.02215 6.4925 3.00006 6.375 3Z" fill="currentColor"/>
</svg>
