<svg width="24" height="24" viewBox="0 0 24 24" fill="none" xmlns="http://www.w3.org/2000/svg">
<path d="M10.0006 6C10.5526 6.00032 11.0006 6.44791 11.0006 7V14C11.0006 14.5521 10.5526 14.9997 10.0006 15H9.46936L8.99866 22.0664C8.96194 22.6172 8.48496 23.0344 7.9342 22.998C7.38319 22.9613 6.9659 22.4846 7.00256 21.9336L7.84338 9.30664L2.651 13.7588C2.23177 14.1181 1.60129 14.0694 1.24182 13.6504C0.882399 13.2311 0.930894 12.6006 1.35022 12.2412L8.35022 6.24121L8.41956 6.18555C8.58838 6.06522 8.79182 6 9.00061 6H10.0006ZM14.0006 6C14.2391 6.00014 14.4699 6.08599 14.651 6.24121L21.651 12.2412C22.0699 12.6006 22.1185 13.2312 21.7594 13.6504C21.4001 14.0696 20.7695 14.1179 20.3502 13.7588L14.6725 8.8916L14.5592 9.51465L16.9489 16.6836C17.0504 16.9884 16.9999 17.3243 16.8121 17.585C16.6243 17.8456 16.3218 17.9998 16.0006 18H14.0006V22C14.0006 22.5521 13.5526 22.9997 13.0006 23C12.4483 23 12.0006 22.5523 12.0006 22V7C12.0006 6.44772 12.4483 6 13.0006 6H14.0006ZM10.0006 1C10.5526 1.00032 11.0006 1.44791 11.0006 2V4C11.0006 4.55209 10.5526 4.99968 10.0006 5C8.89604 5 8.00061 4.10457 8.00061 3C8.00061 1.89543 8.89604 1 10.0006 1ZM13.0006 1C14.1049 1.00032 15.0006 1.89563 15.0006 3C15.0006 4.10437 14.1049 4.99968 13.0006 5C12.4483 5 12.0006 4.55228 12.0006 4V2L12.0055 1.89746C12.0569 1.39336 12.483 1 13.0006 1Z" fill="currentColor"/>
</svg>
