<svg width="24" height="24" viewBox="0 0 24 24" fill="none" xmlns="http://www.w3.org/2000/svg">
<path d="M18 4.0001C20.7614 4.0001 23 6.23868 23 9.0001V15.0001C22.9999 17.7614 20.7614 20.0001 18 20.0001H14.4287L15.7109 21.297C16.0991 21.6897 16.0957 22.3228 15.7031 22.711C15.3104 23.0991 14.6773 23.0957 14.2891 22.7032L11.2891 19.6681L11.2227 19.5948C11.078 19.4162 10.9988 19.1919 11 18.9601C11.0015 18.6949 11.1083 18.4405 11.2969 18.254L14.2969 15.2892C14.6896 14.901 15.3227 14.9044 15.7109 15.297C16.099 15.6897 16.0957 16.3228 15.7031 16.711L14.3994 18.0001H18C19.6568 18.0001 20.9999 16.6569 21 15.0001V9.0001C21 7.34325 19.6569 6.0001 18 6.0001H16C15.4478 6.0001 15.0001 5.5523 15 5.0001C15 4.44782 15.4477 4.0001 16 4.0001H18Z" fill="currentColor"/>
<path d="M8.29688 1.28916C8.68958 0.90094 9.32265 0.904371 9.71094 1.29698L12.7109 4.33213L12.7773 4.40538C12.922 4.58404 13.0012 4.80827 13 5.04014C12.9984 5.3053 12.8917 5.55979 12.7031 5.7462L9.70312 8.71104C9.31043 9.0991 8.67731 9.09569 8.28906 8.70323C7.90091 8.31054 7.90438 7.67744 8.29688 7.28916L9.60059 6.0001H6C4.34315 6.0001 3 7.34325 3 9.0001V15.0001C3.0001 16.6569 4.34321 18.0001 6 18.0001H8C8.55228 18.0001 9 18.4478 9 19.0001C8.9999 19.5523 8.55222 20.0001 8 20.0001H6C3.23864 20.0001 1.0001 17.7614 1 15.0001V9.0001C1 6.23868 3.23858 4.0001 6 4.0001H9.57129L8.28906 2.70323C7.90087 2.31055 7.90436 1.67746 8.29688 1.28916Z" fill="currentColor"/>
</svg>
