<?xml version="1.0" encoding="UTF-8"?>
<svg  height="382px" viewBox="0 0 988 668" version="1.1" xmlns="http://www.w3.org/2000/svg" xmlns:xlink="http://www.w3.org/1999/xlink">
    <title>Table Anatomy</title>
    <g id="Page-1" stroke="none" stroke-width="1" fill="none" fill-rule="evenodd">
        <g id="table-anatomy" fill-rule="nonzero">
            <rect id="Rectangle" fill="#01A982" x="0" y="0" width="988" height="36"></rect>
            <rect id="Rectangle" fill="#00C8FF" x="0" y="620" width="988" height="48"></rect>
            <rect id="Rectangle" fill="#7630EA" x="0" y="36" width="48" height="584"></rect>
            <rect id="Rectangle" stroke="#FFFFFF" fill="#FFBC44" x="48.5" y="36.5" width="187" height="583"></rect>
            <rect id="Rectangle" stroke="#FFFFFF" fill="#FFBC44" x="236.5" y="36.5" width="187" height="583"></rect>
            <rect id="Rectangle" stroke="#FFFFFF" fill="#FFBC44" x="424.5" y="36.5" width="187" height="583"></rect>
            <rect id="Rectangle" stroke="#FFFFFF" fill="#FFBC44" x="612.5" y="36.5" width="187" height="583"></rect>
            <rect id="Rectangle" stroke="#FFFFFF" fill="#FFBC44" x="800.5" y="36.5" width="187" height="583"></rect>
            <path d="M37.3385,637.948 L37.3385,640.432 L40.7405,640.432 L40.7405,649 L43.6385,649 L43.6385,640.432 L47.0585,640.432 L47.0585,637.948 L37.3385,637.948 Z M51.6024,644.122 L51.6024,644.41 C51.2784,644.176 50.5224,643.96 49.8384,643.96 C48.0924,643.96 46.7244,644.968 46.7244,646.534 C46.7244,648.244 48.0924,649.144 49.6944,649.144 C50.5584,649.144 51.3324,648.856 51.6024,648.586 L51.6024,649 L54.3204,649 L54.3204,643.996 C54.3204,641.854 52.9524,640.72 50.5584,640.72 C49.4064,640.72 48.3264,640.99 47.6604,641.35 L47.6604,643.618 C48.3084,643.24 49.1004,643.042 49.8744,643.042 C51.0264,643.042 51.6024,643.492 51.6024,644.122 Z M51.6024,646.264 L51.6024,646.732 C51.4224,647.056 50.9724,647.272 50.4684,647.272 C49.9104,647.272 49.3524,647.038 49.3524,646.48 C49.3524,645.94 49.9104,645.706 50.4684,645.706 C50.9724,645.706 51.4224,645.922 51.6024,646.264 Z M58.5957,649 L58.5957,648.352 C58.9737,648.784 59.7657,649.18 60.5937,649.18 C62.9337,649.18 64.2117,647.29 64.2117,644.95 C64.2117,642.61 62.9337,640.72 60.5937,640.72 C59.7657,640.72 58.9737,641.116 58.5957,641.548 L58.5957,637.3 L55.7697,637.3 L55.7697,649 L58.5957,649 Z M58.5957,646.012 L58.5957,643.87 C58.8117,643.438 59.2977,643.114 59.8377,643.114 C60.8097,643.114 61.3857,643.906 61.3857,644.95 C61.3857,645.994 60.8097,646.768 59.8377,646.768 C59.2797,646.768 58.8117,646.462 58.5957,646.012 Z M68.123,649 L68.123,637.3 L65.297,637.3 L65.297,649 L68.123,649 Z M71.9604,645.598 L76.9464,645.598 L76.9464,644.77 C76.9464,642.358 75.6684,640.72 73.1484,640.72 C70.9164,640.72 69.2244,642.466 69.2244,645.004 C69.2244,647.614 70.9884,649.18 73.5804,649.18 C74.7504,649.18 75.7404,648.928 76.3704,648.46 L76.3704,646.318 C75.5604,646.804 74.8944,646.966 74.0304,646.966 C72.9864,646.966 72.1944,646.57 71.9604,645.598 Z M73.2564,642.862 C73.9404,642.862 74.3544,643.33 74.4264,644.014 L71.9964,644.014 C72.1944,643.276 72.6444,642.862 73.2564,642.862 Z M81.7518,649 L84.6138,649 L84.6138,645.094 L89.1318,645.094 L89.1318,642.646 L84.6138,642.646 L84.6138,640.45 L89.5278,640.45 L89.5278,637.948 L81.7518,637.948 L81.7518,649 Z M98.3872,644.95 C98.3872,642.448 96.7132,640.72 94.2472,640.72 C91.7992,640.72 90.1072,642.448 90.1072,644.95 C90.1072,647.452 91.7992,649.18 94.2472,649.18 C96.7132,649.18 98.3872,647.452 98.3872,644.95 Z M95.6152,644.95 C95.6152,646.066 95.1292,646.84 94.2472,646.84 C93.3832,646.84 92.8972,646.066 92.8972,644.95 C92.8972,643.834 93.3832,643.042 94.2472,643.042 C95.1292,643.042 95.6152,643.834 95.6152,644.95 Z M107.44,644.95 C107.44,642.448 105.766,640.72 103.3,640.72 C100.852,640.72 99.1599,642.448 99.1599,644.95 C99.1599,647.452 100.852,649.18 103.3,649.18 C105.766,649.18 107.44,647.452 107.44,644.95 Z M104.668,644.95 C104.668,646.066 104.182,646.84 103.3,646.84 C102.436,646.84 101.95,646.066 101.95,644.95 C101.95,643.834 102.436,643.042 103.3,643.042 C104.182,643.042 104.668,643.834 104.668,644.95 Z M112.213,649 L112.213,643.096 L113.797,643.096 L113.797,640.9 L112.213,640.9 L112.213,638.668 L109.405,638.668 L109.405,640.9 L108.001,640.9 L108.001,643.096 L109.405,643.096 L109.405,649 L112.213,649 Z M117.066,645.598 L122.052,645.598 L122.052,644.77 C122.052,642.358 120.774,640.72 118.254,640.72 C116.022,640.72 114.33,642.466 114.33,645.004 C114.33,647.614 116.094,649.18 118.686,649.18 C119.856,649.18 120.846,648.928 121.476,648.46 L121.476,646.318 C120.666,646.804 120,646.966 119.136,646.966 C118.092,646.966 117.3,646.57 117.066,645.598 Z M118.362,642.862 C119.046,642.862 119.46,643.33 119.532,644.014 L117.102,644.014 C117.3,643.276 117.75,642.862 118.362,642.862 Z M128.618,643.582 L128.618,640.864 C128.492,640.792 128.204,640.72 127.844,640.72 C127.034,640.72 126.404,641.08 126.008,641.62 L126.008,640.9 L123.182,640.9 L123.182,649 L126.008,649 L126.008,644.248 C126.152,643.672 126.674,643.33 127.448,643.33 C127.898,643.33 128.276,643.402 128.618,643.582 Z" id="Shape" fill="#FFFFFF"></path>
            <path d="M12.526,11.948 L12.526,14.432 L15.928,14.432 L15.928,23 L18.826,23 L18.826,14.432 L22.246,14.432 L22.246,11.948 L12.526,11.948 Z M26.7899,18.122 L26.7899,18.41 C26.4659,18.176 25.7099,17.96 25.0259,17.96 C23.2799,17.96 21.9119,18.968 21.9119,20.534 C21.9119,22.244 23.2799,23.144 24.8819,23.144 C25.7459,23.144 26.5199,22.856 26.7899,22.586 L26.7899,23 L29.5079,23 L29.5079,17.996 C29.5079,15.854 28.1399,14.72 25.7459,14.72 C24.5939,14.72 23.5139,14.99 22.8479,15.35 L22.8479,17.618 C23.4959,17.24 24.2879,17.042 25.0619,17.042 C26.2139,17.042 26.7899,17.492 26.7899,18.122 Z M26.7899,20.264 L26.7899,20.732 C26.6099,21.056 26.1599,21.272 25.6559,21.272 C25.0979,21.272 24.5399,21.038 24.5399,20.48 C24.5399,19.94 25.0979,19.706 25.6559,19.706 C26.1599,19.706 26.6099,19.922 26.7899,20.264 Z M33.7832,23 L33.7832,22.352 C34.1612,22.784 34.9532,23.18 35.7812,23.18 C38.1212,23.18 39.3992,21.29 39.3992,18.95 C39.3992,16.61 38.1212,14.72 35.7812,14.72 C34.9532,14.72 34.1612,15.116 33.7832,15.548 L33.7832,11.3 L30.9572,11.3 L30.9572,23 L33.7832,23 Z M33.7832,20.012 L33.7832,17.87 C33.9992,17.438 34.4852,17.114 35.0252,17.114 C35.9972,17.114 36.5732,17.906 36.5732,18.95 C36.5732,19.994 35.9972,20.768 35.0252,20.768 C34.4672,20.768 33.9992,20.462 33.7832,20.012 Z M43.3105,23 L43.3105,11.3 L40.4845,11.3 L40.4845,23 L43.3105,23 Z M47.1479,19.598 L52.1339,19.598 L52.1339,18.77 C52.1339,16.358 50.8559,14.72 48.3359,14.72 C46.1039,14.72 44.4119,16.466 44.4119,19.004 C44.4119,21.614 46.1759,23.18 48.7679,23.18 C49.9379,23.18 50.9279,22.928 51.5579,22.46 L51.5579,20.318 C50.7479,20.804 50.0819,20.966 49.2179,20.966 C48.1739,20.966 47.3819,20.57 47.1479,19.598 Z M48.4439,16.862 C49.1279,16.862 49.5419,17.33 49.6139,18.014 L47.1839,18.014 C47.3819,17.276 47.8319,16.862 48.4439,16.862 Z M56.8673,11.3 L56.8673,23 L59.6933,23 L59.6933,18.104 C59.8373,17.546 60.3053,17.222 60.8633,17.222 C61.5833,17.222 61.9253,17.708 61.9253,18.374 L61.9253,23 L64.7333,23 L64.7333,17.69 C64.7333,15.89 63.6713,14.72 61.8713,14.72 C60.9353,14.72 60.1433,15.098 59.6933,15.602 L59.6933,11.3 L56.8673,11.3 Z M68.5053,19.598 L73.4913,19.598 L73.4913,18.77 C73.4913,16.358 72.2133,14.72 69.6933,14.72 C67.4613,14.72 65.7693,16.466 65.7693,19.004 C65.7693,21.614 67.5333,23.18 70.1253,23.18 C71.2953,23.18 72.2853,22.928 72.9153,22.46 L72.9153,20.318 C72.1053,20.804 71.4393,20.966 70.5753,20.966 C69.5313,20.966 68.7393,20.57 68.5053,19.598 Z M69.8013,16.862 C70.4853,16.862 70.8993,17.33 70.9713,18.014 L68.5413,18.014 C68.7393,17.276 69.1893,16.862 69.8013,16.862 Z M79.0672,18.122 L79.0672,18.41 C78.7432,18.176 77.9872,17.96 77.3032,17.96 C75.5572,17.96 74.1892,18.968 74.1892,20.534 C74.1892,22.244 75.5572,23.144 77.1592,23.144 C78.0232,23.144 78.7972,22.856 79.0672,22.586 L79.0672,23 L81.7852,23 L81.7852,17.996 C81.7852,15.854 80.4172,14.72 78.0232,14.72 C76.8712,14.72 75.7912,14.99 75.1252,15.35 L75.1252,17.618 C75.7732,17.24 76.5652,17.042 77.3392,17.042 C78.4912,17.042 79.0672,17.492 79.0672,18.122 Z M79.0672,20.264 L79.0672,20.732 C78.8872,21.056 78.4372,21.272 77.9332,21.272 C77.3752,21.272 76.8172,21.038 76.8172,20.48 C76.8172,19.94 77.3752,19.706 77.9332,19.706 C78.4372,19.706 78.8872,19.922 79.0672,20.264 Z M88.4185,22.352 L88.4185,23 L91.2445,23 L91.2445,11.3 L88.4185,11.3 L88.4185,15.548 C88.0405,15.116 87.2485,14.72 86.4205,14.72 C84.0805,14.72 82.8025,16.61 82.8025,18.95 C82.8025,21.29 84.0805,23.18 86.4205,23.18 C87.2485,23.18 88.0405,22.784 88.4185,22.352 Z M88.4185,17.87 L88.4185,20.012 C88.2025,20.462 87.7345,20.768 87.1765,20.768 C86.2045,20.768 85.6285,19.994 85.6285,18.95 C85.6285,17.906 86.2045,17.114 87.1765,17.114 C87.7165,17.114 88.2025,17.438 88.4185,17.87 Z M95.0659,19.598 L100.052,19.598 L100.052,18.77 C100.052,16.358 98.7739,14.72 96.2539,14.72 C94.0219,14.72 92.3299,16.466 92.3299,19.004 C92.3299,21.614 94.0939,23.18 96.6859,23.18 C97.8559,23.18 98.8459,22.928 99.4759,22.46 L99.4759,20.318 C98.6659,20.804 97.9999,20.966 97.1359,20.966 C96.0919,20.966 95.2999,20.57 95.0659,19.598 Z M96.3619,16.862 C97.0459,16.862 97.4599,17.33 97.5319,18.014 L95.1019,18.014 C95.2999,17.276 95.7499,16.862 96.3619,16.862 Z M106.618,17.582 L106.618,14.864 C106.492,14.792 106.204,14.72 105.844,14.72 C105.034,14.72 104.404,15.08 104.008,15.62 L104.008,14.9 L101.182,14.9 L101.182,23 L104.008,23 L104.008,18.248 C104.152,17.672 104.674,17.33 105.448,17.33 C105.898,17.33 106.276,17.402 106.618,17.582 Z" id="Shape" fill="#FFFFFF"></path>
            <path d="M302.095,315.474 C302.095,318.912 304.399,321.18 307.765,321.18 C308.935,321.18 309.871,320.892 310.573,320.424 L310.573,317.616 C309.781,318.228 308.917,318.498 307.999,318.498 C306.163,318.498 304.993,317.364 304.993,315.474 C304.993,313.566 306.163,312.432 307.999,312.432 C308.917,312.432 309.781,312.72 310.573,313.332 L310.573,310.524 C309.871,310.056 308.935,309.768 307.765,309.768 C304.399,309.768 302.095,312.036 302.095,315.474 Z M319.831,316.95 C319.831,314.448 318.157,312.72 315.691,312.72 C313.243,312.72 311.551,314.448 311.551,316.95 C311.551,319.452 313.243,321.18 315.691,321.18 C318.157,321.18 319.831,319.452 319.831,316.95 Z M317.059,316.95 C317.059,318.066 316.573,318.84 315.691,318.84 C314.827,318.84 314.341,318.066 314.341,316.95 C314.341,315.834 314.827,315.042 315.691,315.042 C316.573,315.042 317.059,315.834 317.059,316.95 Z M323.756,321 L323.756,309.3 L320.93,309.3 L320.93,321 L323.756,321 Z M333.083,321 L333.083,312.9 L330.257,312.9 L330.257,317.814 C330.113,318.372 329.627,318.714 329.105,318.714 C328.385,318.714 328.061,318.228 328.061,317.544 L328.061,312.9 L325.253,312.9 L325.253,318.21 C325.253,320.01 326.315,321.18 328.097,321.18 C329.015,321.18 329.825,320.802 330.257,320.298 L330.257,321 L333.083,321 Z M341.734,313.692 C341.248,313.116 340.528,312.72 339.502,312.72 C338.602,312.72 337.828,313.062 337.414,313.566 L337.414,312.9 L334.588,312.9 L334.588,321 L337.414,321 L337.414,316.068 C337.54,315.51 337.972,315.204 338.458,315.204 C339.088,315.204 339.376,315.69 339.376,316.374 L339.376,321 L342.184,321 L342.184,316.068 C342.328,315.51 342.742,315.204 343.228,315.204 C343.858,315.204 344.146,315.69 344.146,316.374 L344.146,321 L346.972,321 L346.972,315.69 C346.972,313.872 345.928,312.72 344.236,312.72 C343.048,312.72 342.22,313.188 341.734,313.692 Z M348.422,312.9 L348.422,321 L351.248,321 L351.248,316.104 C351.392,315.546 351.86,315.222 352.418,315.222 C353.138,315.222 353.48,315.708 353.48,316.374 L353.48,321 L356.288,321 L356.288,315.69 C356.288,313.89 355.226,312.72 353.426,312.72 C352.49,312.72 351.698,313.098 351.248,313.602 L351.248,312.9 L348.422,312.9 Z" id="Shape" fill="#000000"></path>
            <path d="M108.095,310.474 C108.095,313.912 110.399,316.18 113.765,316.18 C114.935,316.18 115.871,315.892 116.573,315.424 L116.573,312.616 C115.781,313.228 114.917,313.498 113.999,313.498 C112.163,313.498 110.993,312.364 110.993,310.474 C110.993,308.566 112.163,307.432 113.999,307.432 C114.917,307.432 115.781,307.72 116.573,308.332 L116.573,305.524 C115.871,305.056 114.935,304.768 113.765,304.768 C110.399,304.768 108.095,307.036 108.095,310.474 Z M125.831,311.95 C125.831,309.448 124.157,307.72 121.691,307.72 C119.243,307.72 117.551,309.448 117.551,311.95 C117.551,314.452 119.243,316.18 121.691,316.18 C124.157,316.18 125.831,314.452 125.831,311.95 Z M123.059,311.95 C123.059,313.066 122.573,313.84 121.691,313.84 C120.827,313.84 120.341,313.066 120.341,311.95 C120.341,310.834 120.827,310.042 121.691,310.042 C122.573,310.042 123.059,310.834 123.059,311.95 Z M129.756,316 L129.756,304.3 L126.93,304.3 L126.93,316 L129.756,316 Z M139.083,316 L139.083,307.9 L136.257,307.9 L136.257,312.814 C136.113,313.372 135.627,313.714 135.105,313.714 C134.385,313.714 134.061,313.228 134.061,312.544 L134.061,307.9 L131.253,307.9 L131.253,313.21 C131.253,315.01 132.315,316.18 134.097,316.18 C135.015,316.18 135.825,315.802 136.257,315.298 L136.257,316 L139.083,316 Z M147.734,308.692 C147.248,308.116 146.528,307.72 145.502,307.72 C144.602,307.72 143.828,308.062 143.414,308.566 L143.414,307.9 L140.588,307.9 L140.588,316 L143.414,316 L143.414,311.068 C143.54,310.51 143.972,310.204 144.458,310.204 C145.088,310.204 145.376,310.69 145.376,311.374 L145.376,316 L148.184,316 L148.184,311.068 C148.328,310.51 148.742,310.204 149.228,310.204 C149.858,310.204 150.146,310.69 150.146,311.374 L150.146,316 L152.972,316 L152.972,310.69 C152.972,308.872 151.928,307.72 150.236,307.72 C149.048,307.72 148.22,308.188 147.734,308.692 Z M154.422,307.9 L154.422,316 L157.248,316 L157.248,311.104 C157.392,310.546 157.86,310.222 158.418,310.222 C159.138,310.222 159.48,310.708 159.48,311.374 L159.48,316 L162.288,316 L162.288,310.69 C162.288,308.89 161.226,307.72 159.426,307.72 C158.49,307.72 157.698,308.098 157.248,308.602 L157.248,307.9 L154.422,307.9 Z" id="Shape" fill="#000000"></path>
            <path d="M490.095,315.474 C490.095,318.912 492.399,321.18 495.765,321.18 C496.935,321.18 497.871,320.892 498.573,320.424 L498.573,317.616 C497.781,318.228 496.917,318.498 495.999,318.498 C494.163,318.498 492.993,317.364 492.993,315.474 C492.993,313.566 494.163,312.432 495.999,312.432 C496.917,312.432 497.781,312.72 498.573,313.332 L498.573,310.524 C497.871,310.056 496.935,309.768 495.765,309.768 C492.399,309.768 490.095,312.036 490.095,315.474 Z M507.831,316.95 C507.831,314.448 506.157,312.72 503.691,312.72 C501.243,312.72 499.551,314.448 499.551,316.95 C499.551,319.452 501.243,321.18 503.691,321.18 C506.157,321.18 507.831,319.452 507.831,316.95 Z M505.059,316.95 C505.059,318.066 504.573,318.84 503.691,318.84 C502.827,318.84 502.341,318.066 502.341,316.95 C502.341,315.834 502.827,315.042 503.691,315.042 C504.573,315.042 505.059,315.834 505.059,316.95 Z M511.756,321 L511.756,309.3 L508.93,309.3 L508.93,321 L511.756,321 Z M521.083,321 L521.083,312.9 L518.257,312.9 L518.257,317.814 C518.113,318.372 517.627,318.714 517.105,318.714 C516.385,318.714 516.061,318.228 516.061,317.544 L516.061,312.9 L513.253,312.9 L513.253,318.21 C513.253,320.01 514.315,321.18 516.097,321.18 C517.015,321.18 517.825,320.802 518.257,320.298 L518.257,321 L521.083,321 Z M529.734,313.692 C529.248,313.116 528.528,312.72 527.502,312.72 C526.602,312.72 525.828,313.062 525.414,313.566 L525.414,312.9 L522.588,312.9 L522.588,321 L525.414,321 L525.414,316.068 C525.54,315.51 525.972,315.204 526.458,315.204 C527.088,315.204 527.376,315.69 527.376,316.374 L527.376,321 L530.184,321 L530.184,316.068 C530.328,315.51 530.742,315.204 531.228,315.204 C531.858,315.204 532.146,315.69 532.146,316.374 L532.146,321 L534.972,321 L534.972,315.69 C534.972,313.872 533.928,312.72 532.236,312.72 C531.048,312.72 530.22,313.188 529.734,313.692 Z M536.422,312.9 L536.422,321 L539.248,321 L539.248,316.104 C539.392,315.546 539.86,315.222 540.418,315.222 C541.138,315.222 541.48,315.708 541.48,316.374 L541.48,321 L544.288,321 L544.288,315.69 C544.288,313.89 543.226,312.72 541.426,312.72 C540.49,312.72 539.698,313.098 539.248,313.602 L539.248,312.9 L536.422,312.9 Z" id="Shape" fill="#000000"></path>
            <path d="M678.095,315.474 C678.095,318.912 680.399,321.18 683.765,321.18 C684.935,321.18 685.871,320.892 686.573,320.424 L686.573,317.616 C685.781,318.228 684.917,318.498 683.999,318.498 C682.163,318.498 680.993,317.364 680.993,315.474 C680.993,313.566 682.163,312.432 683.999,312.432 C684.917,312.432 685.781,312.72 686.573,313.332 L686.573,310.524 C685.871,310.056 684.935,309.768 683.765,309.768 C680.399,309.768 678.095,312.036 678.095,315.474 Z M695.831,316.95 C695.831,314.448 694.157,312.72 691.691,312.72 C689.243,312.72 687.551,314.448 687.551,316.95 C687.551,319.452 689.243,321.18 691.691,321.18 C694.157,321.18 695.831,319.452 695.831,316.95 Z M693.059,316.95 C693.059,318.066 692.573,318.84 691.691,318.84 C690.827,318.84 690.341,318.066 690.341,316.95 C690.341,315.834 690.827,315.042 691.691,315.042 C692.573,315.042 693.059,315.834 693.059,316.95 Z M699.756,321 L699.756,309.3 L696.93,309.3 L696.93,321 L699.756,321 Z M709.083,321 L709.083,312.9 L706.257,312.9 L706.257,317.814 C706.113,318.372 705.627,318.714 705.105,318.714 C704.385,318.714 704.061,318.228 704.061,317.544 L704.061,312.9 L701.253,312.9 L701.253,318.21 C701.253,320.01 702.315,321.18 704.097,321.18 C705.015,321.18 705.825,320.802 706.257,320.298 L706.257,321 L709.083,321 Z M717.734,313.692 C717.248,313.116 716.528,312.72 715.502,312.72 C714.602,312.72 713.828,313.062 713.414,313.566 L713.414,312.9 L710.588,312.9 L710.588,321 L713.414,321 L713.414,316.068 C713.54,315.51 713.972,315.204 714.458,315.204 C715.088,315.204 715.376,315.69 715.376,316.374 L715.376,321 L718.184,321 L718.184,316.068 C718.328,315.51 718.742,315.204 719.228,315.204 C719.858,315.204 720.146,315.69 720.146,316.374 L720.146,321 L722.972,321 L722.972,315.69 C722.972,313.872 721.928,312.72 720.236,312.72 C719.048,312.72 718.22,313.188 717.734,313.692 Z M724.422,312.9 L724.422,321 L727.248,321 L727.248,316.104 C727.392,315.546 727.86,315.222 728.418,315.222 C729.138,315.222 729.48,315.708 729.48,316.374 L729.48,321 L732.288,321 L732.288,315.69 C732.288,313.89 731.226,312.72 729.426,312.72 C728.49,312.72 727.698,313.098 727.248,313.602 L727.248,312.9 L724.422,312.9 Z" id="Shape" fill="#000000"></path>
            <path d="M866.095,315.474 C866.095,318.912 868.399,321.18 871.765,321.18 C872.935,321.18 873.871,320.892 874.573,320.424 L874.573,317.616 C873.781,318.228 872.917,318.498 871.999,318.498 C870.163,318.498 868.993,317.364 868.993,315.474 C868.993,313.566 870.163,312.432 871.999,312.432 C872.917,312.432 873.781,312.72 874.573,313.332 L874.573,310.524 C873.871,310.056 872.935,309.768 871.765,309.768 C868.399,309.768 866.095,312.036 866.095,315.474 Z M883.831,316.95 C883.831,314.448 882.157,312.72 879.691,312.72 C877.243,312.72 875.551,314.448 875.551,316.95 C875.551,319.452 877.243,321.18 879.691,321.18 C882.157,321.18 883.831,319.452 883.831,316.95 Z M881.059,316.95 C881.059,318.066 880.573,318.84 879.691,318.84 C878.827,318.84 878.341,318.066 878.341,316.95 C878.341,315.834 878.827,315.042 879.691,315.042 C880.573,315.042 881.059,315.834 881.059,316.95 Z M887.756,321 L887.756,309.3 L884.93,309.3 L884.93,321 L887.756,321 Z M897.083,321 L897.083,312.9 L894.257,312.9 L894.257,317.814 C894.113,318.372 893.627,318.714 893.105,318.714 C892.385,318.714 892.061,318.228 892.061,317.544 L892.061,312.9 L889.253,312.9 L889.253,318.21 C889.253,320.01 890.315,321.18 892.097,321.18 C893.015,321.18 893.825,320.802 894.257,320.298 L894.257,321 L897.083,321 Z M905.734,313.692 C905.248,313.116 904.528,312.72 903.502,312.72 C902.602,312.72 901.828,313.062 901.414,313.566 L901.414,312.9 L898.588,312.9 L898.588,321 L901.414,321 L901.414,316.068 C901.54,315.51 901.972,315.204 902.458,315.204 C903.088,315.204 903.376,315.69 903.376,316.374 L903.376,321 L906.184,321 L906.184,316.068 C906.328,315.51 906.742,315.204 907.228,315.204 C907.858,315.204 908.146,315.69 908.146,316.374 L908.146,321 L910.972,321 L910.972,315.69 C910.972,313.872 909.928,312.72 908.236,312.72 C907.048,312.72 906.22,313.188 905.734,313.692 Z M912.422,312.9 L912.422,321 L915.248,321 L915.248,316.104 C915.392,315.546 915.86,315.222 916.418,315.222 C917.138,315.222 917.48,315.708 917.48,316.374 L917.48,321 L920.288,321 L920.288,315.69 C920.288,313.89 919.226,312.72 917.426,312.72 C916.49,312.72 915.698,313.098 915.248,313.602 L915.248,312.9 L912.422,312.9 Z" id="Shape" fill="#000000"></path>
            <path d="M23.3583,302.71 C26.796,302.665 29.0341,300.332 28.9906,296.967 C28.9755,295.797 28.6754,294.864 28.1984,294.169 L25.3906,294.205 C26.0128,294.989 26.294,295.849 26.3058,296.767 C26.3295,298.603 25.2107,299.788 23.3209,299.812 C21.4131,299.837 20.264,298.681 20.2403,296.846 C20.2285,295.928 20.5053,295.06 21.107,294.26 L18.2992,294.296 C17.8403,295.004 17.5645,295.944 17.5796,297.114 C17.6231,300.48 19.9206,302.754 23.3583,302.71 Z M17.0571,292.903 L28.7562,292.752 L28.7197,289.926 L23.8241,289.989 C23.2643,289.853 22.9342,289.389 22.927,288.831 C22.9177,288.111 23.3993,287.763 24.0652,287.754 L28.6908,287.694 L28.6546,284.887 L23.345,284.955 C21.5452,284.978 20.389,286.055 20.4122,287.855 C20.4243,288.791 20.8125,289.578 21.3223,290.022 L17.0206,290.077 L17.0571,292.903 Z M25.2041,281.159 L25.1397,276.173 L24.3118,276.184 C21.9,276.215 20.2786,277.514 20.3112,280.034 C20.34,282.266 22.1077,283.935 24.6455,283.902 C27.2553,283.869 28.7984,282.084 28.7649,279.493 C28.7498,278.323 28.485,277.336 28.0089,276.712 L25.8671,276.74 C26.3635,277.544 26.5341,278.207 26.5453,279.071 C26.5588,280.115 26.173,280.912 25.2041,281.159 Z M22.4516,279.898 C22.4428,279.214 22.9054,278.794 23.5884,278.713 L23.6198,281.143 C22.8793,280.955 22.4595,280.51 22.4516,279.898 Z M24.4819,275.413 C27.0916,275.38 28.6883,273.559 28.6569,271.129 C28.6462,270.301 28.4742,269.529 28.0528,268.959 L25.677,268.989 C26.0617,269.507 26.2669,270.062 26.2755,270.728 C26.289,271.772 25.6697,272.608 24.4458,272.624 C23.2219,272.639 22.5813,271.82 22.5678,270.776 C22.5592,270.11 22.75,269.549 23.1212,269.022 L20.7454,269.053 C20.3389,269.634 20.1869,270.411 20.1976,271.238 C20.229,273.668 21.8721,275.447 24.4819,275.413 Z M28.3238,259.281 L24.0079,262.415 L20.2254,259.458 L20.2673,262.698 L23.3568,264.962 L16.6973,265.048 L16.7338,267.874 L28.4328,267.723 L28.3963,264.897 L24.8506,264.943 L28.3647,262.449 L28.3238,259.281 Z M28.2776,255.704 L27.6297,255.713 C28.0567,255.329 28.4425,254.532 28.4318,253.704 C28.4016,251.364 26.4952,250.111 24.1554,250.141 C21.8156,250.171 19.9423,251.474 19.9725,253.814 C19.9832,254.641 20.3894,255.428 20.8262,255.801 L16.5786,255.856 L16.6151,258.681 L28.3141,258.53 L28.2776,255.704 Z M25.2898,255.743 L23.148,255.771 C22.7133,255.56 22.383,255.078 22.376,254.539 C22.3635,253.567 23.148,252.98 24.1919,252.967 C25.2358,252.953 26.0172,253.519 26.0297,254.491 C26.0369,255.049 25.737,255.521 25.2898,255.743 Z M24.0386,241.103 C21.5369,241.135 19.8306,242.832 19.8625,245.297 C19.8941,247.745 21.6438,249.415 24.1456,249.382 C26.6474,249.35 28.3534,247.636 28.3218,245.188 C28.2899,242.722 26.5404,241.071 24.0386,241.103 Z M24.0745,243.875 C25.1904,243.86 25.9706,244.336 25.982,245.218 C25.9931,246.082 25.2255,246.578 24.1096,246.593 C22.9937,246.607 22.1954,246.131 22.1843,245.267 C22.1729,244.385 22.9585,243.889 24.0745,243.875 Z M23.8707,235.067 L19.8759,232.4 L19.9136,235.316 L21.8739,236.569 L19.9463,237.854 L19.9856,240.895 L23.9284,238.144 L28.0866,240.917 L28.0489,238.001 L25.9252,236.642 L28.0131,235.229 L27.9736,232.17 L23.8707,235.067 Z" id="Shape" fill="#FFFFFF"></path>
        </g>
    </g>
</svg>