<svg width="336" height="192" viewBox="0 0 336 192" fill="none" xmlns="http://www.w3.org/2000/svg">
<path fill-rule="evenodd" clip-rule="evenodd" d="M111 54.6394C111 52.9826 112.343 51.6394 114 51.6394H128.068C129.725 51.6394 131.068 52.9826 131.068 54.6394C131.068 56.2963 129.725 57.6394 128.068 57.6394H114C112.343 57.6394 111 56.2963 111 54.6394ZM111 88.6395C111 86.9826 112.343 85.6395 114 85.6395H206.083C207.74 85.6395 209.083 86.9826 209.083 88.6395C209.083 90.2963 207.74 91.6395 206.083 91.6395H114C112.343 91.6395 111 90.2963 111 88.6395ZM114 134.639C112.343 134.639 111 135.983 111 137.639C111 139.296 112.343 140.639 114 140.639H140.858C142.514 140.639 143.858 139.296 143.858 137.639C143.858 135.983 142.514 134.639 140.858 134.639H114ZM111 121.639C111 119.983 112.343 118.639 114 118.639H175.389C177.046 118.639 178.389 119.983 178.389 121.639C178.389 123.296 177.046 124.639 175.389 124.639H114C112.343 124.639 111 123.296 111 121.639ZM143 51.6395C141.343 51.6395 140 52.9826 140 54.6395C140 56.2963 141.343 57.6395 143 57.6395H150.674C152.33 57.6395 153.674 56.2963 153.674 54.6395C153.674 52.9826 152.33 51.6395 150.674 51.6395H143ZM188 121.639C188 119.983 189.343 118.639 191 118.639H198.674C200.33 118.639 201.674 119.983 201.674 121.639C201.674 123.296 200.33 124.639 198.674 124.639H191C189.343 124.639 188 123.296 188 121.639ZM114 68.6395C112.343 68.6395 111 69.9826 111 71.6395C111 73.2963 112.343 74.6395 114 74.6395H144.694C146.351 74.6395 147.694 73.2963 147.694 71.6395C147.694 69.9826 146.351 68.6395 144.694 68.6395H114ZM111 104.639C111 102.983 112.343 101.639 114 101.639H119.116C120.773 101.639 122.116 102.983 122.116 104.639C122.116 106.296 120.773 107.639 119.116 107.639H114C112.343 107.639 111 106.296 111 104.639ZM156 134.639C154.343 134.639 153 135.983 153 137.639C153 139.296 154.343 140.639 156 140.639H163.674C165.33 140.639 166.674 139.296 166.674 137.639C166.674 135.983 165.33 134.639 163.674 134.639H156ZM131 104.639C131 102.983 132.343 101.639 134 101.639H192.831C194.488 101.639 195.831 102.983 195.831 104.639C195.831 106.296 194.488 107.639 192.831 107.639H134C132.343 107.639 131 106.296 131 104.639ZM160 68.6395C158.343 68.6395 157 69.9826 157 71.6395C157 73.2963 158.343 74.6395 160 74.6395H198.368C200.025 74.6395 201.368 73.2963 201.368 71.6395C201.368 69.9826 200.025 68.6395 198.368 68.6395H160Z" fill="#444444"/>
</svg>
