<svg width="336" height="192" viewBox="0 0 336 192" fill="none" xmlns="http://www.w3.org/2000/svg">
<path d="M129.382 163.825H122.663V165.825H129.382V163.825ZM159.963 109.652C163.031 109.652 165.516 107.166 165.516 104.099H163.516C163.516 106.062 161.926 107.652 159.963 107.652V109.652Z" fill="white"/>
<path d="M156.717 58.6225L156.944 57.6487C156.936 57.6468 156.928 57.645 156.92 57.6434L156.717 58.6225ZM162.241 64.6862L163.24 64.6383C163.239 64.6248 163.238 64.6113 163.237 64.5978L162.241 64.6862ZM163.971 100.754V101.754C164.244 101.754 164.506 101.642 164.695 101.444C164.883 101.246 164.983 100.98 164.97 100.706L163.971 100.754ZM136.114 82.7719L137.1 82.9382C137.123 82.806 137.118 82.6707 137.087 82.5403L136.114 82.7719ZM134.055 94.9904L133.069 94.8242C133.02 95.1143 133.101 95.4113 133.291 95.636C133.481 95.8608 133.76 95.9904 134.055 95.9904V94.9904ZM155.57 94.9904V95.9904C155.864 95.9904 156.144 95.8608 156.334 95.636C156.524 95.4113 156.605 95.1143 156.556 94.8242L155.57 94.9904ZM153.511 82.7719L152.538 82.5399C152.507 82.6704 152.502 82.8058 152.524 82.9382L153.511 82.7719ZM152.887 58.8493L156.514 59.6017L156.92 57.6434L153.294 56.891L152.887 58.8493ZM156.49 59.5964C158.295 60.0175 159.368 60.5833 160.039 61.3285C160.704 62.0656 161.097 63.1142 161.245 64.7746L163.237 64.5978C163.07 62.7198 162.597 61.1787 161.525 59.9896C160.461 58.8086 158.929 58.1117 156.944 57.6487L156.49 59.5964ZM161.242 64.7341L162.972 100.802L164.97 100.706L163.24 64.6383L161.242 64.7341ZM163.971 99.7542H160.022V101.754H163.971V99.7542ZM131.616 68.1939L135.141 83.0035L137.087 82.5403L133.561 67.7307L131.616 68.1939ZM135.128 82.6057L133.069 94.8242L135.041 95.1566L137.1 82.9382L135.128 82.6057ZM134.055 95.9904H155.57V93.9904H134.055V95.9904ZM156.556 94.8242L154.497 82.6057L152.524 82.9382L154.584 95.1566L156.556 94.8242ZM154.483 83.004L157.345 71.0085L155.4 70.5443L152.538 82.5399L154.483 83.004Z" fill="#7630EA"/>
<path d="M144.516 71.4796L143.576 71.8192C143.719 72.2155 144.095 72.4796 144.516 72.4796C144.938 72.4796 145.314 72.2156 145.457 71.8193L144.516 71.4796ZM149.224 55.4992L143.576 71.14L145.457 71.8193L151.105 56.1785L149.224 55.4992ZM145.457 71.14L139.809 55.4992L137.928 56.1785L143.576 71.8192L145.457 71.14ZM143.517 69.7418V90.5962H145.517V69.7418H143.517Z" fill="#7630EA"/>
<mask id="mask0" mask-type="alpha" maskUnits="userSpaceOnUse" x="126" y="98" width="37" height="27">
<path fill-rule="evenodd" clip-rule="evenodd" d="M157.624 99.1848H131.283L127.628 123.352H161.084L157.624 99.1848Z" fill="white"/>
<path d="M157.624 99.1848H131.283L127.628 123.352H161.084L157.624 99.1848" stroke="white" stroke-width="2" stroke-linejoin="round"/>
</mask>
<g mask="url(#mask0)">
<path d="M133.455 96.8914C132.319 107.107 130.913 113.573 130.287 120.908L157.507 120.977C158.081 113.872 156.66 107.107 155.525 96.8914" stroke="#A2423D" stroke-width="2" stroke-linejoin="round"/>
</g>
<mask id="mask1" mask-type="alpha" maskUnits="userSpaceOnUse" x="146" y="41" width="12" height="14">
<path fill-rule="evenodd" clip-rule="evenodd" d="M148.908 42.9995L147.299 53.6717L156.233 53.9835V48.3264L150.539 42.9966L148.908 42.9995Z" fill="white"/>
<path d="M148.908 42.9995L147.299 53.6717L156.233 53.9835V48.3264L150.539 42.9966L148.908 42.9995" stroke="white" stroke-width="2" stroke-linejoin="round"/>
</mask>
<g mask="url(#mask1)">
<path d="M147.196 50.3867C149.291 53.1068 153.677 52.8661 154.477 49.975C154.477 49.975 149.291 45.8953 149.291 42.8716" stroke="#A2423D" stroke-width="2" stroke-linejoin="round"/>
</g>
<path d="M139 41.5073H138C138 42.0596 138.448 42.5073 139 42.5073V41.5073ZM145 34.5073C141.134 34.5073 138 37.6411 138 41.5073H140C140 38.7458 142.239 36.5073 145 36.5073V34.5073ZM139 42.5073H144.5V40.5073H139V42.5073ZM151 41.5073C151 37.8196 148.476 34.5073 145 34.5073V36.5073C147.046 36.5073 149 38.5673 149 41.5073H151Z" fill="#A2423D"/>
<path d="M149.038 38.1436C149.475 37.512 149.73 36.7447 149.73 35.919C149.73 33.7551 147.975 32 145.81 32C143.646 32 141.891 33.7551 141.891 35.919C141.891 36.139 141.908 36.3552 141.944 36.5655" stroke="#A2423D" stroke-width="2" stroke-linejoin="round"/>
<path d="M134.376 43.6697H135.376C135.376 43.1185 134.93 42.6712 134.379 42.6697L134.376 43.6697ZM151.376 163.544H145.596V165.544H151.376V163.544ZM135.376 46.7467V43.6697H133.376V46.7467H135.376ZM134.379 42.6697C132.927 42.6658 131.725 43.4464 130.959 44.1031C130.563 44.4429 130.247 44.7805 130.029 45.033C129.92 45.1599 129.834 45.2672 129.774 45.3449C129.744 45.3838 129.72 45.4155 129.703 45.4387C129.695 45.4503 129.688 45.4598 129.683 45.467C129.68 45.4706 129.678 45.4737 129.676 45.4762C129.675 45.4774 129.674 45.4785 129.674 45.4795C129.673 45.4799 129.673 45.4804 129.673 45.4808C129.673 45.481 129.672 45.4812 129.672 45.4813C129.672 45.4816 129.672 45.4819 130.488 46.0595C131.305 46.6371 131.304 46.6373 131.304 46.6375C131.304 46.6376 131.304 46.6378 131.304 46.6379C131.304 46.6382 131.304 46.6384 131.304 46.6386C131.303 46.639 131.303 46.6392 131.303 46.6393C131.303 46.6394 131.303 46.6391 131.304 46.6382C131.305 46.6363 131.308 46.6324 131.312 46.6264C131.321 46.6145 131.336 46.5947 131.357 46.5682C131.398 46.5149 131.461 46.435 131.545 46.3375C131.715 46.141 131.959 45.88 132.261 45.6216C132.89 45.0819 133.633 44.6677 134.373 44.6697L134.379 42.6697Z" fill="white"/>
<path d="M129.892 47.4556L122.527 64.6609C121.463 67.0077 121.705 69.576 122.682 71.8235C123.299 72.6574 125.011 72.1198 127.181 71.4851C128.411 71.1259 133.157 69.1225 133.655 69.3076" stroke="#7630EA" stroke-width="2" stroke-linejoin="round"/>
<mask id="mask2" mask-type="alpha" maskUnits="userSpaceOnUse" x="132" y="48" width="6" height="6">
<path fill-rule="evenodd" clip-rule="evenodd" d="M132.638 48.2976H136.016L137.581 52.2692L134.709 53.4067L132.638 48.2976Z" fill="white"/>
</mask>
<g mask="url(#mask2)">
<path d="M135.966 52.4869L134.018 47.5452" stroke="#00E8CF" stroke-width="2" stroke-linejoin="round"/>
</g>
<mask id="mask3" mask-type="alpha" maskUnits="userSpaceOnUse" x="129" y="54" width="8" height="10">
<path fill-rule="evenodd" clip-rule="evenodd" d="M131.358 55.6483L130.08 62.9346L135.574 59.8576L135.652 55.2188L131.358 55.6483Z" fill="white"/>
<path d="M131.358 55.6483L130.08 62.9346L135.574 59.8576L135.652 55.2188L131.358 55.6483" stroke="white" stroke-width="2" stroke-linejoin="round"/>
</mask>
<g mask="url(#mask3)">
<path d="M135.243 57.8101C131.311 57.8101 127.798 60.0102 127.799 63.7619" stroke="#7630EA" stroke-width="2" stroke-linejoin="round"/>
</g>
<mask id="mask4" mask-type="alpha" maskUnits="userSpaceOnUse" x="121" y="124" width="36" height="39">
<path fill-rule="evenodd" clip-rule="evenodd" d="M121.471 162.149H153.13L156.555 124.486H130.101L121.471 162.149Z" fill="white"/>
</mask>
<g mask="url(#mask4)">
<path d="M128.601 160.488V161.488C129.005 161.488 129.369 161.245 129.524 160.872L128.601 160.488ZM124.375 160.488L123.401 160.264C123.333 160.561 123.403 160.873 123.593 161.111C123.783 161.349 124.071 161.488 124.375 161.488V160.488ZM150.834 160.488V161.488C151.336 161.488 151.76 161.116 151.826 160.618L150.834 160.488ZM146.608 160.488H145.608C145.608 161.04 146.056 161.488 146.608 161.488V160.488ZM139.342 124.513C139.342 126.295 138.652 129.386 137.548 133.135C136.456 136.844 134.997 141.075 133.532 145.076C132.069 149.075 130.605 152.833 129.507 155.592C128.957 156.971 128.5 158.1 128.18 158.883C128.02 159.275 127.894 159.581 127.809 159.788C127.766 159.892 127.733 159.971 127.711 160.024C127.7 160.05 127.692 160.07 127.686 160.084C127.683 160.09 127.681 160.095 127.68 160.099C127.679 160.1 127.679 160.102 127.678 160.102C127.678 160.103 127.678 160.103 127.678 160.103C127.678 160.103 127.678 160.103 128.601 160.488C129.524 160.872 129.524 160.872 129.524 160.872C129.525 160.872 129.525 160.871 129.525 160.871C129.525 160.87 129.526 160.869 129.527 160.867C129.528 160.863 129.53 160.858 129.533 160.851C129.539 160.837 129.547 160.817 129.559 160.79C129.581 160.736 129.614 160.656 129.657 160.551C129.744 160.341 129.87 160.034 130.031 159.64C130.353 158.851 130.813 157.717 131.365 156.331C132.468 153.561 133.939 149.785 135.411 145.763C136.882 141.744 138.357 137.467 139.467 133.7C140.564 129.975 141.342 126.622 141.342 124.513H139.342ZM128.601 159.488H124.375V161.488H128.601V159.488ZM125.35 160.712L133.886 123.576L131.937 123.128L123.401 160.264L125.35 160.712ZM153.524 124.512C153.524 128.334 152.611 137.262 151.686 145.305C151.225 149.311 150.764 153.075 150.418 155.837C150.246 157.218 150.102 158.349 150.001 159.134C149.95 159.527 149.911 159.833 149.884 160.041C149.87 160.145 149.86 160.224 149.853 160.278C149.85 160.304 149.847 160.324 149.845 160.338C149.844 160.345 149.844 160.35 149.843 160.353C149.843 160.355 149.843 160.356 149.843 160.357C149.843 160.357 149.843 160.358 149.843 160.358C149.843 160.358 149.842 160.358 150.834 160.488C151.826 160.618 151.826 160.618 151.826 160.617C151.826 160.617 151.826 160.617 151.826 160.616C151.826 160.615 151.826 160.614 151.826 160.612C151.827 160.609 151.827 160.604 151.828 160.597C151.83 160.583 151.833 160.563 151.836 160.536C151.843 160.482 151.854 160.402 151.867 160.298C151.894 160.089 151.934 159.782 151.984 159.389C152.085 158.602 152.23 157.469 152.403 156.086C152.749 153.319 153.211 149.548 153.673 145.534C154.593 137.536 155.524 128.475 155.524 124.512H153.524ZM150.834 159.488H146.608V161.488H150.834V159.488ZM147.608 160.488V124.512H145.608V160.488H147.608Z" fill="white"/>
</g>
<path d="M140 44.0073L140.091 47.8302C140.44 50.3792 142.012 52.2691 144.384 52.2691C146.753 52.2691 148.384 50.4162 148.674 47.8302L149.326 42.8159" stroke="white" stroke-width="2" stroke-linejoin="round"/>
<path d="M283.782 92.472L287.131 120.48H263.625C262.898 111.166 265.795 95.7231 270.53 88.6182" stroke="#FF8300" stroke-width="2" stroke-linejoin="round"/>
<path d="M302.646 97.1576C302.992 96.3615 303.101 95.521 303.006 94.7168C302.813 93.1053 301.793 91.636 300.197 90.9414" stroke="white" stroke-width="2" stroke-linejoin="round"/>
<path d="M273.012 88.5624H266.825L268.843 80.1608C268.843 80.1608 266.424 68.7614 265.338 63.3331C264.669 59.991 266.111 56.3645 268.654 54.2761L277.613 58.321L285.158 77.8339L298.276 87.3471L294.47 93.0686L279.451 82.9645L273.307 70.0248" stroke="#FF8300" stroke-width="2" stroke-linejoin="round"/>
<path d="M272.563 38.2728C274.455 41.4031 279.159 42.3895 282.532 40.1027C282.532 36.0022 279.569 33 275.089 33C270.785 33 266.94 35.7963 266.94 40.1019L263.5 53.9114C262.5 56.9114 260 57.9114 258 56.4114" stroke="#FEC901" stroke-width="2" stroke-linejoin="round"/>
<path d="M275.695 54.2436L276.905 51.1666C280.124 51.8598 281.963 49.4182 281.963 46.5463C281.963 45.551 281.963 44.5933 281.963 43.4114" stroke="white" stroke-width="2" stroke-linejoin="round"/>
<path d="M272.942 42.4114L270.5 51.9114" stroke="#FEC901" stroke-width="2" stroke-linejoin="round"/>
<path d="M251.8 159.879L246.135 156.064L245.018 157.723L250.683 161.538L251.8 159.879ZM291.161 162.434H284.975V164.434H291.161V162.434Z" fill="#01A982"/>
<mask id="mask5" mask-type="alpha" maskUnits="userSpaceOnUse" x="244" y="123" width="51" height="40">
<path fill-rule="evenodd" clip-rule="evenodd" d="M290.223 123.749L293.672 161.597L253.385 159.668L245 154.973V154.876L258.571 123.749" fill="white"/>
<path d="M290.223 123.749L293.672 161.597L253.385 159.668L245 154.973V154.876L258.571 123.749" stroke="white" stroke-width="2" stroke-linejoin="round"/>
</mask>
<g mask="url(#mask5)">
<path d="M273.136 128.818L273.941 129.412C274.02 129.305 274.077 129.183 274.108 129.053L273.136 128.818ZM252.552 156.703L251.99 157.53C252.434 157.832 253.038 157.729 253.357 157.297L252.552 156.703ZM249.058 154.326L248.182 153.843C247.933 154.295 248.068 154.863 248.495 155.153L249.058 154.326ZM265.062 127.815L265.721 128.567C265.881 128.427 265.993 128.238 266.038 128.03L265.062 127.815ZM285.752 159.449L284.781 159.689C284.892 160.136 285.292 160.449 285.752 160.449V159.449ZM289.956 159.449V160.449C290.239 160.449 290.509 160.329 290.699 160.119C290.888 159.909 290.98 159.629 290.951 159.347L289.956 159.449ZM273.602 122.641L272.164 128.583L274.108 129.053L275.545 123.112L273.602 122.641ZM272.331 128.224L251.748 156.109L253.357 157.297L273.941 129.412L272.331 128.224ZM253.115 155.876L249.62 153.499L248.495 155.153L251.99 157.53L253.115 155.876ZM249.933 154.81C251.162 152.585 252.261 150.259 253.339 147.931C254.422 145.593 255.482 143.259 256.649 140.97C258.981 136.398 261.703 132.089 265.721 128.567L264.403 127.063C260.11 130.826 257.25 135.39 254.868 140.061C253.678 142.393 252.598 144.773 251.524 147.09C250.447 149.416 249.374 151.685 248.182 153.843L249.933 154.81ZM266.038 128.03L267.137 123.028L265.183 122.599L264.085 127.601L266.038 128.03ZM277 123.534C277.391 127.486 279.349 136.562 281.187 144.572C282.109 148.593 283.008 152.372 283.676 155.146C284.01 156.532 284.286 157.668 284.479 158.457C284.575 158.851 284.651 159.159 284.702 159.369C284.728 159.473 284.748 159.553 284.761 159.607C284.768 159.634 284.773 159.655 284.776 159.668C284.778 159.675 284.779 159.68 284.78 159.684C284.781 159.686 284.781 159.687 284.781 159.688C284.781 159.688 284.781 159.689 284.781 159.689C284.781 159.689 284.781 159.689 285.752 159.449C286.723 159.209 286.723 159.209 286.723 159.209C286.723 159.209 286.723 159.208 286.723 159.208C286.722 159.207 286.722 159.206 286.722 159.204C286.721 159.201 286.72 159.196 286.718 159.189C286.715 159.175 286.71 159.155 286.703 159.128C286.69 159.075 286.67 158.995 286.645 158.891C286.593 158.682 286.518 158.376 286.422 157.982C286.229 157.195 285.954 156.062 285.62 154.677C284.953 151.909 284.057 148.137 283.136 144.124C281.287 136.064 279.366 127.133 278.991 123.337L277 123.534ZM285.752 160.449H289.956V158.449H285.752V160.449ZM290.951 159.347L287.178 122.523L285.188 122.727L288.962 159.551L290.951 159.347Z" fill="white"/>
</g>
<mask id="mask6" mask-type="alpha" maskUnits="userSpaceOnUse" x="36" y="61" width="23" height="14">
<path fill-rule="evenodd" clip-rule="evenodd" d="M57.2608 64.5025L57.7325 73.0212L37.7412 70.4396L41.9402 62.3372L53.7276 66.799L57.2608 64.5025Z" fill="white"/>
<path d="M57.2608 64.5025L57.7325 73.0212L37.7412 70.4396L41.9402 62.3372L53.7276 66.799L57.2608 64.5025" stroke="white" stroke-width="2" stroke-linejoin="round"/>
</mask>
<g mask="url(#mask6)">
<path d="M40.3398 69.5671L43.0851 64.9808L53.8446 70.0129L62.6454 64.5024" stroke="#01A982" stroke-width="2" stroke-linejoin="round"/>
</g>
<path d="M74.7062 163.017H66.7534V165.017H74.7062V163.017Z" fill="#A2423D"/>
<mask id="mask7" mask-type="alpha" maskUnits="userSpaceOnUse" x="50" y="26" width="25" height="14">
<path fill-rule="evenodd" clip-rule="evenodd" d="M51.46 29.3535L61.0339 35.6756L63.0237 37.2012L73.6344 38.5815L71.4764 27.2851L60.203 27L51.46 29.3535Z" fill="white"/>
<path d="M51.46 29.3535L61.0339 35.6756L63.0237 37.2012L73.6344 38.5815L71.4764 27.2851L60.203 27L51.46 29.3535" stroke="white" stroke-width="2" stroke-linejoin="round"/>
</mask>
<g mask="url(#mask7)">
<path d="M66.3605 41.4623C69.8974 40.6381 72.0961 37.667 71.2718 34.1308C70.4483 30.5925 66.9122 27.8287 63.3753 28.6529C61.318 29.1321 59.8939 29.7556 56.9688 30.6273C57.3472 32.8608 61.1396 33.8546 63.5952 33.6472C64.8112 35.0706 65.1497 36.5636 65.2926 38.0935" stroke="#999999" stroke-width="2" stroke-linejoin="round"/>
</g>
<mask id="mask8" mask-type="alpha" maskUnits="userSpaceOnUse" x="58" y="45" width="25" height="44">
<path fill-rule="evenodd" clip-rule="evenodd" d="M81.2508 57.1576C81.2508 57.1576 81.1997 51.6479 79.0602 49.8128C76.92 47.9755 75.2641 46.1241 73.2898 46.1559C71.3147 46.1863 61.2254 57.1154 60.1449 59.7636C59.0652 62.4104 60.1449 87.4434 60.1449 87.4434H64.9259C64.9259 87.4434 63.2915 64.715 64.9259 62.2993C66.5604 59.8851 71.7568 51.8634 73.6341 51.7101C75.5114 51.5553 76.9926 57.1576 76.9926 57.1576H81.2508Z" fill="white"/>
<path d="M81.2508 57.1576C81.2508 57.1576 81.1997 51.6479 79.0602 49.8128C76.92 47.9755 75.2641 46.1241 73.2898 46.1559C71.3147 46.1863 61.2254 57.1154 60.1449 59.7636C59.0652 62.4104 60.1449 87.4434 60.1449 87.4434H64.9259C64.9259 87.4434 63.2915 64.715 64.9259 62.2993C66.5604 59.8851 71.7568 51.8634 73.6341 51.7101C75.5114 51.5553 76.9926 57.1576 76.9926 57.1576H81.2508" stroke="white" stroke-width="2" stroke-linejoin="round"/>
</mask>
<g mask="url(#mask8)">
<path d="M79.0605 56.8971C79.0605 50.4009 73.2153 49.1079 73.2153 49.1079C73.2153 49.1079 62.6187 56.6238 61.8804 65.2994L62.6187 88.5558" stroke="#01A982" stroke-width="2" stroke-linejoin="round"/>
</g>
<path d="M73.7705 57.4419L73.8075 101.035H78.4123" stroke="#01A982" stroke-width="2" stroke-linejoin="round"/>
<mask id="mask9" mask-type="alpha" maskUnits="userSpaceOnUse" x="55" y="33" width="18" height="22">
<path fill-rule="evenodd" clip-rule="evenodd" d="M71.2208 45.1969L64.3388 35.3223C62.2112 37.4329 59.1646 36.1525 56.4053 34.8047L60.7123 51.4213L64.7365 53.4282L71.2208 45.1969Z" fill="white"/>
<path d="M71.2208 45.1969L64.3388 35.3223C62.2112 37.4329 59.1646 36.1525 56.4053 34.8047L60.7123 51.4213L64.7365 53.4282L71.2208 45.1969" stroke="white" stroke-width="2" stroke-linejoin="round"/>
</mask>
<g mask="url(#mask9)">
<path d="M69.8248 51.5584L66.1539 44.6275C62.794 46.2109 60.1495 44.001 59.4149 40.8463C59.1601 39.7532 58.2003 35.0692 57.8975 33.7703" stroke="white" stroke-width="2" stroke-linejoin="round"/>
</g>
<path d="M32.9434 44.9081C32.7328 44.3976 32.1481 44.1545 31.6376 44.3652C31.1271 44.5758 30.884 45.1604 31.0946 45.671L32.9434 44.9081ZM38.4247 63.4354C38.6353 63.946 39.22 64.1891 39.7305 63.9784C40.241 63.7677 40.4841 63.1831 40.2735 62.6726L38.4247 63.4354ZM71.9826 116.313H70.9826C70.9826 116.866 71.4303 117.313 71.9826 117.313V116.313ZM79.7377 116.313V117.313C80.29 117.313 80.7377 116.866 80.7377 116.313H79.7377ZM60.1698 140.866H59.1698C59.1698 141.419 59.6175 141.866 60.1698 141.866V140.866ZM91.5515 140.866V141.866C92.1038 141.866 92.5515 141.419 92.5515 140.866H91.5515ZM91.5515 118.853H92.5515C92.5515 118.301 92.1038 117.853 91.5515 117.853V118.853ZM60.1698 118.853V117.853C59.6175 117.853 59.1698 118.301 59.1698 118.853H60.1698ZM31.0946 45.671L38.4247 63.4354L40.2735 62.6726L32.9434 44.9081L31.0946 45.671ZM40.2735 62.6726L32.9434 44.9081L31.0946 45.671L38.4247 63.4354L40.2735 62.6726ZM72.9826 116.313C72.9826 114.724 74.2708 113.436 75.8602 113.436V111.436C73.1662 111.436 70.9826 113.619 70.9826 116.313H72.9826ZM75.8602 113.436C77.4502 113.436 78.7377 114.724 78.7377 116.313H80.7377C80.7377 113.619 78.555 111.436 75.8602 111.436V113.436ZM79.7377 115.313H71.9826V117.313H79.7377V115.313ZM60.1698 141.866H91.5515V139.866H60.1698V141.866ZM92.5515 140.866V118.853H90.5515V140.866H92.5515ZM91.5515 117.853H60.1698V119.853H91.5515V117.853ZM59.1698 118.853V140.866H61.1698V118.853H59.1698Z" fill="#00739D"/>
<mask id="mask10" mask-type="alpha" maskUnits="userSpaceOnUse" x="58" y="89" width="18" height="74">
<path fill-rule="evenodd" clip-rule="evenodd" d="M75.5191 143.882H64.2997L66.0067 161.784H75.5191M66.3163 116.435H61.8803L59.5283 90.4058H63.7865L66.3163 116.435Z" fill="white"/>
<path d="M64.2997 143.882V142.882C64.018 142.882 63.7493 143.001 63.5598 143.209C63.3703 143.418 63.2775 143.697 63.3042 143.977L64.2997 143.882ZM66.0067 161.784L65.0112 161.879C65.0602 162.392 65.4912 162.784 66.0067 162.784V161.784ZM61.8803 116.435L60.8844 116.525C60.9309 117.04 61.3629 117.435 61.8803 117.435V116.435ZM59.5283 90.4058V89.4058C59.2475 89.4058 58.9795 89.5239 58.7901 89.7312C58.6006 89.9386 58.5071 90.216 58.5324 90.4958L59.5283 90.4058ZM63.7865 90.4058L64.7818 90.309C64.732 89.7966 64.3013 89.4058 63.7865 89.4058V90.4058ZM75.5191 142.882H64.2997V144.882H75.5191V142.882ZM63.3042 143.977L65.0112 161.879L67.0022 161.689L65.2952 143.787L63.3042 143.977ZM66.0067 162.784H75.5191V160.784H66.0067V162.784ZM66.3163 115.435H61.8803V117.435H66.3163V115.435ZM62.8763 116.345L60.5243 90.3158L58.5324 90.4958L60.8844 116.525L62.8763 116.345ZM59.5283 91.4058H63.7865V89.4058H59.5283V91.4058ZM62.7912 90.5025L65.3209 116.532L67.3116 116.338L64.7818 90.309L62.7912 90.5025Z" fill="white"/>
</mask>
<g mask="url(#mask10)">
<path d="M73.0608 128.399C73.0608 143.111 73.0608 159.477 73.0608 159.477H68.2124L61.8799 88.9336" stroke="white" stroke-width="2" stroke-linejoin="round"/>
</g>
<path d="M71.2091 91.3937H64.9263" stroke="white" stroke-width="2" stroke-linejoin="round"/>
<path d="M78.2881 108.505C75.7925 108.505 73.77 106.484 73.77 103.989" stroke="white" stroke-width="2"/>
</svg>
