<svg width="336" height="192" viewBox="0 0 336 192" fill="none" xmlns="http://www.w3.org/2000/svg">
<path fill-rule="evenodd" clip-rule="evenodd" d="M137.762 72.4373C128.721 79.8833 123 88.9586 123 96.3644C123 103.77 128.721 112.845 137.762 120.292C146.706 127.657 158.082 132.729 168.112 132.729C178.142 132.729 189.518 127.657 198.462 120.292C207.504 112.845 213.224 103.77 213.224 96.3644C213.224 88.9586 207.504 79.8833 198.462 72.4373C189.518 65.0719 178.142 60 168.112 60C158.082 60 146.706 65.0719 137.762 72.4373ZM133.948 67.8057C143.593 59.8627 156.273 54 168.112 54C179.951 54 192.631 59.8627 202.276 67.8057C211.823 75.668 219.224 86.2749 219.224 96.3644C219.224 106.454 211.823 117.061 202.276 124.923C192.631 132.866 179.951 138.729 168.112 138.729C156.273 138.729 143.593 132.866 133.948 124.923C124.401 117.061 117 106.454 117 96.3644C117 86.2749 124.401 75.668 133.948 67.8057ZM143.243 96.3643C143.243 82.6302 154.378 71.4951 168.112 71.4951C181.846 71.4951 192.981 82.6302 192.981 96.3643C192.981 110.098 181.846 121.233 168.112 121.233C154.378 121.233 143.243 110.098 143.243 96.3643ZM168.112 77.4951C157.692 77.4951 149.243 85.9439 149.243 96.3643C149.243 106.785 157.692 115.233 168.112 115.233C178.532 115.233 186.981 106.785 186.981 96.3643C186.981 85.9439 178.532 77.4951 168.112 77.4951Z" fill="white"/>
</svg>
