<svg width="336" height="192" viewBox="0 0 336 192" fill="none" xmlns="http://www.w3.org/2000/svg">
<path fill-rule="evenodd" clip-rule="evenodd" d="M69 39C65.134 39 62 42.134 62 46C62 49.866 65.134 53 69 53C70.5723 53 72.0236 52.4816 73.1922 51.6064L78.2929 56.7071L79.7071 55.2929L74.6064 50.1922C75.4816 49.0236 76 47.5723 76 46C76 42.134 72.866 39 69 39ZM64 46C64 43.2386 66.2386 41 69 41C71.7614 41 74 43.2386 74 46C74 48.7614 71.7614 51 69 51C66.2386 51 64 48.7614 64 46Z" fill="#444444"/>
<g clip-path="url(#clip0)">
<path fill-rule="evenodd" clip-rule="evenodd" d="M259 43.9868C259.06 39.4443 262.472 36 267 36C267.571 36 268.092 36.0683 268.527 36.2456C268.975 36.4286 269.403 36.7638 269.585 37.3074C269.758 37.8271 269.633 38.3246 269.459 38.6929C269.282 39.0647 269.01 39.4067 268.707 39.7069C268.215 40.2053 267.465 40.9553 266.839 41.5796C266.689 41.729 266.547 41.8714 266.416 42.0016L268.998 44.5842C269.129 44.4535 269.271 44.3107 269.42 44.1609C270.045 43.5352 270.795 42.7854 271.293 42.2928L271.301 42.2847C271.539 42.0439 271.826 41.7537 272.108 41.5262C272.254 41.4084 272.427 41.2842 272.618 41.1863C272.803 41.0912 273.066 40.9897 273.377 40.99C273.722 40.9903 274.051 41.1164 274.313 41.3605C274.551 41.582 274.688 41.8573 274.773 42.1023C274.939 42.5806 275 43.2214 275 44C275 48.5305 271.554 51.9268 267.016 51.9999L266.987 52.0003L266.958 51.9991C266.498 51.9795 265.771 51.9792 265.142 51.9844C264.867 51.9867 264.615 51.99 264.42 51.9929C262.576 53.826 260.276 56.1265 258.71 57.7046L258.706 57.7085C257.801 58.6098 256.749 59.0364 255.711 59.0257C254.687 59.0152 253.76 58.5803 253.09 57.9104C252.42 57.2404 251.985 56.3126 251.974 55.2894C251.964 54.2511 252.39 53.1992 253.292 52.2943L253.295 52.2903C254.871 50.7262 257.166 48.4316 259.007 46.5804C259.01 46.3852 259.013 46.1333 259.016 45.8578C259.021 45.2286 259.021 44.5021 259.001 44.0425L259 44.0147L259 43.9868ZM261 47.0205L260.992 47.4209L260.709 47.7049C258.824 49.6024 256.368 52.0584 254.707 53.7075C254.144 54.2738 253.97 54.8236 253.974 55.2689C253.979 55.7297 254.175 56.1676 254.504 56.4962C254.832 56.8247 255.27 57.0211 255.731 57.0258C256.176 57.0304 256.726 56.8565 257.293 56.2933C258.945 54.6291 261.407 52.1667 263.295 50.2907L263.579 50.0084L263.98 50.0002L264.07 49.9985C264.128 49.9974 264.212 49.9959 264.316 49.9943C264.522 49.991 264.809 49.9871 265.126 49.9845C265.74 49.9794 266.495 49.9789 267.012 49.9996C270.478 49.9306 273 47.3952 273 44C273 43.7812 272.994 43.592 272.984 43.4294C272.897 43.5149 272.807 43.6059 272.711 43.7029L272.703 43.7114C272.21 44.1982 271.463 44.9458 270.836 45.5735C270.524 45.887 270.242 46.1699 270.038 46.3745L269.71 46.7047L269.002 47.4163L263.584 41.9979L264.295 41.2908L264.626 40.9619C264.83 40.7583 265.113 40.4765 265.427 40.1637C266.054 39.5375 266.802 38.7898 267.289 38.2972L267.297 38.2887C267.393 38.1939 267.467 38.1087 267.524 38.0352C267.397 38.015 267.226 38 267 38C263.602 38 261.059 40.525 261 43.9869C261.021 44.5032 261.021 45.2594 261.016 45.8744C261.013 46.1915 261.009 46.4776 261.006 46.6844C261.004 46.7878 261.003 46.8716 261.002 46.9296L261 47.0205Z" fill="#444444"/>
</g>
<g clip-path="url(#clip1)">
<path fill-rule="evenodd" clip-rule="evenodd" d="M131 41C131 38.2386 128.761 36 126 36H112C109.239 36 107 38.2386 107 41V49C107 51.7614 109.239 54 112 54H123.638L131 60.135V41ZM126 38C127.657 38 129 39.3431 129 41V55.865L124.362 52H112C110.343 52 109 50.6569 109 49V41C109 39.3431 110.343 38 112 38H126ZM113 44H126V42H113V44ZM117 48H126V46H117V48Z" fill="#444444"/>
</g>
<path fill-rule="evenodd" clip-rule="evenodd" d="M206 45V54H204V56H211C211 58.2093 212.791 60 215 60C217.209 60 219 58.2093 219 56H226V54H224V45C224 40.0297 219.97 36 215 36C210.03 36 206 40.0297 206 45ZM215 38C211.134 38 208 41.1343 208 45V54H222V45C222 41.1343 218.866 38 215 38ZM217 56H213C213 57.1047 213.895 58 215 58C216.105 58 217 57.1047 217 56Z" fill="#444444"/>
<path fill-rule="evenodd" clip-rule="evenodd" d="M167 37C163.134 37 160 40.134 160 44C160 46.2656 161.076 48.2799 162.746 49.5593C161.76 49.8501 160.85 50.2624 160.055 50.8147C158.148 52.1393 157 54.2032 157 57V60H159V57C159 54.8262 159.852 53.3902 161.195 52.4574C162.591 51.4882 164.612 51 167 51C169.39 51 171.411 51.4818 172.806 52.4472C174.146 53.3753 175 54.8099 175 57V60H177V57C177 54.1901 175.854 52.1247 173.944 50.8028C173.15 50.2533 172.243 49.844 171.259 49.5555C172.926 48.276 174 46.2634 174 44C174 40.134 170.866 37 167 37ZM167 49C169.761 49 172 46.7614 172 44C172 41.2386 169.761 39 167 39C164.239 39 162 41.2386 162 44C162 46.7614 164.239 49 167 49Z" fill="#444444"/>
<path d="M71 86C65.4772 86 61 90.4772 61 96C61 101.523 65.4772 106 71 106C76.5228 106 81 101.523 81 96H79C79 100.418 75.4183 104 71 104C66.5817 104 63 100.418 63 96C63 91.5817 66.5817 88 71 88C73.9715 88 76.5547 89.6178 77.8763 92H74V94H81V87H79V90.0484C77.2158 87.5901 74.2895 86 71 86Z" fill="#444444"/>
<path d="M217 103V93H219V103H217Z" fill="#444444"/>
<path d="M211 93V103H213V93H211Z" fill="#444444"/>
<path fill-rule="evenodd" clip-rule="evenodd" d="M211 88V84H219V88H226V90H224V108H206V90H204V88H211ZM208 90V106H222V90H208ZM213 88V86H217V88H213Z" fill="#444444"/>
<path fill-rule="evenodd" clip-rule="evenodd" d="M158 132V156H178V138.586L171.414 132H158ZM160 154V134H169V141H176V154H160ZM175.586 139L171 134.414V139H175.586Z" fill="#444444"/>
<path fill-rule="evenodd" clip-rule="evenodd" d="M111 85H107V87H110.219L113.03 98.2425L113.219 99L114.03 102.243L114.219 103H115H128V101H115.781L115.281 99H127H127.802L127.976 98.2169L129.976 89.2169L130.247 88H129H112.531L111.97 85.7575L111.781 85H111ZM114.781 97L113.031 90H127.753L126.198 97H114.781ZM124 106C124 104.895 124.895 104 126 104C127.105 104 128 104.895 128 106C128 107.105 127.105 108 126 108C124.895 108 124 107.105 124 106ZM116 104C114.895 104 114 104.895 114 106C114 107.105 114.895 108 116 108C117.105 108 118 107.105 118 106C118 104.895 117.105 104 116 104Z" fill="#444444"/>
<path fill-rule="evenodd" clip-rule="evenodd" d="M255.58 88.865C254.729 89.4695 254 90.5098 254 92.4C254 93.7724 254.574 95.1869 255.541 96.5842C256.504 97.9764 257.808 99.2808 259.146 100.411C260.479 101.538 261.816 102.469 262.824 103.119C263.307 103.431 263.711 103.677 264 103.847C264.289 103.677 264.693 103.431 265.176 103.119C266.184 102.469 267.521 101.538 268.854 100.411C270.192 99.2808 271.496 97.9764 272.459 96.5842C273.426 95.1869 274 93.7724 274 92.4C274 90.5098 273.271 89.4695 272.42 88.865C271.516 88.2216 270.365 88 269.5 88C268.524 88 267.602 88.3904 266.779 88.9939C265.955 89.5982 265.282 90.3802 264.832 91.0547L264 92.3028L263.168 91.0547C262.718 90.3802 262.045 89.5982 261.221 88.9939C260.398 88.3904 259.476 88 258.5 88C257.635 88 256.484 88.2216 255.58 88.865ZM264 105C263.521 105.878 263.521 105.878 263.521 105.878L263.51 105.872L263.483 105.857C263.46 105.844 263.427 105.826 263.384 105.801C263.299 105.753 263.176 105.683 263.02 105.591C262.709 105.408 262.268 105.141 261.739 104.8C260.684 104.118 259.271 103.137 257.854 101.939C256.442 100.744 254.996 99.3111 253.896 97.7221C252.801 96.1381 252 94.3276 252 92.4C252 89.8902 253.021 88.2305 254.42 87.235C255.766 86.2784 257.365 86 258.5 86C260.024 86 261.352 86.6096 262.404 87.3811C263.015 87.8294 263.551 88.3444 264 88.8593C264.449 88.3444 264.985 87.8294 265.596 87.3811C266.648 86.6096 267.976 86 269.5 86C270.635 86 272.234 86.2784 273.58 87.235C274.979 88.2305 276 89.8902 276 92.4C276 94.3276 275.199 96.1381 274.104 97.7221C273.004 99.3111 271.558 100.744 270.146 101.939C268.729 103.137 267.316 104.118 266.261 104.8C265.732 105.141 265.291 105.408 264.98 105.591C264.824 105.683 264.701 105.753 264.616 105.801C264.573 105.826 264.54 105.844 264.517 105.857L264.49 105.872L264.48 105.877C264.48 105.877 264.479 105.878 264 105ZM264 105L264.479 105.878L264 106.139L263.521 105.878L264 105Z" fill="#444444"/>
<path fill-rule="evenodd" clip-rule="evenodd" d="M72 137.014V134H70V137.014C68.7222 137.027 67.7582 137.016 66.9951 137.008H66.995H66.995C66.6192 137.004 66.292 137 66 137C64.9326 137 63.7004 137.129 62.5842 137.846C61.448 138.577 60.584 139.816 60.0385 141.725C59.0004 145.359 59 147.468 59 150C59 151.576 59.6637 152.67 60.7461 153.301C61.7326 153.877 62.9545 154 64 154C64.8548 154 65.524 153.567 66.0298 153.137C66.3603 152.857 66.7167 152.488 67.0487 152.145L67.0487 152.145L67.0491 152.145L67.0491 152.145L67.0492 152.144L67.0494 152.144C67.1976 151.991 67.341 151.843 67.4751 151.709C68.4217 150.769 69.4283 150 71 150C72.5717 150 73.5783 150.769 74.5249 151.709C74.659 151.843 74.8025 151.991 74.9509 152.145L74.9512 152.145L74.9513 152.145L74.9514 152.145C75.2834 152.488 75.6397 152.857 75.9702 153.137C76.476 153.567 77.1452 154 78 154C79.0455 154 80.2675 153.877 81.2539 153.301C82.3363 152.67 83 151.576 83 150C83 147.468 82.9996 145.359 81.9615 141.725C81.416 139.816 80.552 138.577 79.4158 137.846C78.2996 137.129 77.0674 137 76 137C75.708 137 75.3809 137.004 75.005 137.008H75.005H75.0049C74.2418 137.016 73.2778 137.027 72 137.014ZM61.9615 142.275C62.416 140.684 63.052 139.923 63.6658 139.529C64.2996 139.121 65.0674 139 66 139C66.2655 139 66.5761 139.003 66.9394 139.007L66.9394 139.007C67.8877 139.018 69.1953 139.032 71 139C72.8047 139.032 74.1123 139.018 75.0606 139.007L75.0606 139.007C75.4239 139.003 75.7345 139 76 139C76.9326 139 77.7004 139.121 78.3342 139.529C78.948 139.923 79.584 140.684 80.0385 142.275C81 145.64 81 147.531 81 149.997V150C81 150.924 80.6637 151.33 80.2461 151.574C79.7325 151.873 78.9545 152 78 152C77.8548 152 77.6422 151.933 77.2645 151.613C77.0073 151.394 76.7713 151.149 76.4867 150.854L76.4866 150.854C76.323 150.684 76.1433 150.498 75.9343 150.291C74.8674 149.231 73.3739 148 71 148C68.6261 148 67.1326 149.231 66.0657 150.291C65.8567 150.498 65.6771 150.684 65.5135 150.854L65.5134 150.854L65.5134 150.854L65.5134 150.854L65.5134 150.854L65.5133 150.854C65.2287 151.149 64.9927 151.394 64.7355 151.613C64.3578 151.933 64.1452 152 64 152C63.0455 152 62.2674 151.873 61.7539 151.574C61.3363 151.33 61 150.924 61 150V149.997C61 147.531 61 145.64 61.9615 142.275ZM75 146C75 144.895 75.8954 144 77 144C78.1046 144 79 144.895 79 146C79 147.105 78.1046 148 77 148C75.8954 148 75 147.105 75 146ZM73 141C71.8954 141 71 141.895 71 143C71 144.105 71.8954 145 73 145C74.1046 145 75 144.105 75 143C75 141.895 74.1046 141 73 141ZM65 145H63V143H65V141H67V143H69V145H67V147H65V145Z" fill="#444444"/>
<path fill-rule="evenodd" clip-rule="evenodd" d="M173.336 88.5111C172.816 89.1794 171.689 89.8435 169.013 89.9761C169.049 88.9136 169.183 88.1084 169.665 87.4889C170.184 86.8206 171.311 86.1565 173.987 86.0239C173.951 87.0864 173.818 87.8916 173.336 88.5111ZM175 84C171.415 84 169.255 84.7582 168.086 86.2611C167.35 87.2076 167.112 88.3413 167.036 89.4076C165.768 88.4714 163.827 88 161 88H160V89L160 89.1359C159.999 90.5308 159.997 92.3395 161.086 93.7389C162.142 95.0966 164.007 95.8465 167 95.9788V99H160V101H161.246L163.039 107.275L163.246 108H164H172H172.754L172.962 107.275L174.754 101H176V99H169V96V95L169 94.8641V94.863V94.8627V94.8624C169 94.7701 169 94.6759 169 94.5802V91.9788C171.993 91.8465 173.859 91.0966 174.915 89.7389C176.003 88.3395 176.001 86.5308 176 85.1359L176 85V84H175ZM164.754 106L163.326 101H172.674L171.246 106H164.754ZM162.013 90.0239C162.049 91.0864 162.183 91.8916 162.665 92.5111C163.184 93.1794 164.311 93.8435 166.987 93.9761C166.951 92.9136 166.818 92.1084 166.336 91.4889C165.816 90.8206 164.689 90.1565 162.013 90.0239Z" fill="#444444"/>
<path fill-rule="evenodd" clip-rule="evenodd" d="M209.5 135C207.567 135 206 136.567 206 138.5V139V144.257C206.951 143.472 208.17 143 209.5 143C211.765 143 213.711 144.369 214.553 146.325C214.965 146.115 215.448 146 216 146C216.552 146 217.035 146.115 217.447 146.325C218.289 144.369 220.235 143 222.5 143C223.83 143 225.049 143.472 226 144.257V139V138.5C226 136.567 224.433 135 222.5 135H222V133H222.5C225.538 133 228 135.462 228 138.5V139V148H227.978C227.992 148.165 228 148.331 228 148.5C228 151.538 225.538 154 222.5 154C219.631 154 217.275 151.804 217.022 149.001C217 149.001 217 149.001 217 149.001L217 149.002L217 149.004L217 149.006L217 149.01L217 149.011C217 149.012 217 149.012 217 149.011C217 149.009 217 149.007 217 149.003C216.999 148.998 216.999 148.993 216.999 148.985C216.997 148.957 216.992 148.911 216.982 148.852C216.962 148.73 216.923 148.582 216.856 148.447C216.79 148.316 216.707 148.215 216.602 148.145C216.502 148.078 216.325 148 216 148C215.675 148 215.498 148.078 215.398 148.145C215.293 148.215 215.21 148.316 215.144 148.447C215.077 148.582 215.038 148.73 215.018 148.852C215.008 148.911 215.003 148.957 215.001 148.985C215 148.999 215 149.008 215 149.011L215 149.012C215 149.012 215 149.011 215 149.01L215 149.006L215 149.004L215 149.002L215 149.001C215 149.001 215 149.001 214.978 149.001C214.725 151.804 212.369 154 209.5 154C206.462 154 204 151.538 204 148.5C204 148.331 204.008 148.165 204.022 148H204V139V138.5C204 135.462 206.462 133 209.5 133H210V135H209.5ZM209.5 145C207.567 145 206 146.567 206 148.5C206 150.433 207.567 152 209.5 152C211.433 152 213 150.433 213 148.5C213 146.567 211.433 145 209.5 145ZM222.5 145C220.567 145 219 146.567 219 148.5C219 150.433 220.567 152 222.5 152C224.433 152 226 150.433 226 148.5C226 146.567 224.433 145 222.5 145Z" fill="#444444"/>
<path fill-rule="evenodd" clip-rule="evenodd" d="M107 144C107 150.627 112.373 156 119 156C125.627 156 131 150.627 131 144C131 137.373 125.627 132 119 132C112.373 132 107 137.373 107 144ZM119 154C113.477 154 109 149.523 109 144C109 138.477 113.477 134 119 134C124.523 134 129 138.477 129 144C129 149.523 124.523 154 119 154ZM120 146.586L123.293 143.293L124.707 144.707L119.707 149.707L119 150.414L118.293 149.707L113.293 144.707L114.707 143.293L118 146.586V138H120V146.586Z" fill="#444444"/>
<path fill-rule="evenodd" clip-rule="evenodd" d="M254 137.929C254 136.795 254.967 136 256 136H272C273.033 136 274 136.795 274 137.929V150H276V151H275C276 151 276 151 276 151L276 151.004L276 151.009L276 151.019L275.999 151.045C275.999 151.064 275.997 151.087 275.996 151.114C275.992 151.168 275.984 151.239 275.971 151.321C275.944 151.48 275.889 151.707 275.769 151.947C275.648 152.191 275.449 152.465 275.133 152.676C274.81 152.891 274.425 153 274 153H254C253.575 153 253.19 152.891 252.867 152.676C252.551 152.465 252.352 152.191 252.231 151.947C252.111 151.707 252.056 151.48 252.029 151.321C252.016 151.239 252.008 151.168 252.004 151.114C252.003 151.087 252.001 151.064 252.001 151.045L252 151.019L252 151.009L252 151.004L252 151.002L252 151.001C252 151 252 151 253 151L252 151.001L252 150H254V137.929ZM272 149H256V138H272V149ZM253.945 150.995C253.945 150.995 253.945 150.996 253.946 150.996L253.945 150.995ZM274.055 150.995C274.056 150.995 274.055 150.996 274.054 150.996L274.055 150.995ZM274.001 150.972C274.001 150.972 274.001 150.972 274.001 150.972V150.972Z" fill="#444444"/>
<defs>
<clipPath id="clip0">
<path d="M251 36H275V60H251V36Z" fill="white"/>
</clipPath>
<clipPath id="clip1">
<path d="M107 36H131V60H107V36Z" fill="white"/>
</clipPath>
</defs>
</svg>
