<svg width="336" height="192" viewBox="0 0 336 192" fill="none" xmlns="http://www.w3.org/2000/svg">
<path fill-rule="evenodd" clip-rule="evenodd" d="M139.681 73.5426C131.273 80.4668 126 88.871 126 95.6804C126 102.49 131.273 110.894 139.681 117.818C147.991 124.662 158.547 129.361 167.832 129.361C177.116 129.361 187.672 124.662 195.982 117.818C204.39 110.894 209.663 102.49 209.663 95.6804C209.663 88.871 204.39 80.4668 195.982 73.5426C187.672 66.6991 177.116 62 167.832 62C158.547 62 147.991 66.6991 139.681 73.5426ZM135.867 68.911C144.878 61.4899 156.738 56 167.832 56C178.925 56 190.785 61.4899 199.796 68.911C208.71 76.2514 215.663 86.1873 215.663 95.6804C215.663 105.173 208.71 115.109 199.796 122.45C190.785 129.871 178.925 135.361 167.832 135.361C156.738 135.361 144.878 129.871 135.867 122.45C126.954 115.109 120 105.173 120 95.6804C120 86.1873 126.954 76.2514 135.867 68.911ZM144.454 95.6803C144.454 82.7697 154.921 72.3023 167.832 72.3023C180.742 72.3023 191.21 82.7697 191.21 95.6803C191.21 108.591 180.742 119.058 167.832 119.058C154.921 119.058 144.454 108.591 144.454 95.6803ZM167.832 78.3023C158.235 78.3023 150.454 86.0834 150.454 95.6803C150.454 105.277 158.235 113.058 167.832 113.058C177.429 113.058 185.21 105.277 185.21 95.6803C185.21 86.0834 177.429 78.3023 167.832 78.3023Z" fill="black"/>
</svg>
