<svg width="336" height="192" viewBox="0 0 336 192" fill="none" xmlns="http://www.w3.org/2000/svg">
<path d="M153.292 92.4584C154.971 92.4584 156.333 93.8202 156.333 95.5C156.333 97.1799 154.971 98.5417 153.292 98.5417H147.208C145.528 98.5417 144.167 97.1799 144.167 95.5C144.167 93.8202 145.528 92.4584 147.208 92.4584H153.292Z" fill="#3E4550"/>
<path d="M162.417 83.3334C164.096 83.3334 165.458 84.6952 165.458 86.375C165.458 88.0549 164.096 89.4167 162.417 89.4167H147.208C145.528 89.4167 144.167 88.0549 144.167 86.375C144.167 84.6952 145.528 83.3334 147.208 83.3334H162.417Z" fill="#3E4550"/>
<path d="M156.333 74.2084C158.013 74.2084 159.375 75.5702 159.375 77.25C159.375 78.9299 158.013 80.2917 156.333 80.2917H147.208C145.528 80.2917 144.167 78.9299 144.167 77.25C144.167 75.5702 145.528 74.2084 147.208 74.2084H156.333Z" fill="#3E4550"/>
<path fill-rule="evenodd" clip-rule="evenodd" d="M174.583 62.0417C182.014 62.0417 188.196 67.3715 189.524 74.4163C198.287 75.7526 205 83.3223 205 92.4584C205 97.8623 202.649 102.715 198.917 106.057V123.276C198.916 127.982 193.835 130.848 189.842 128.572L189.459 128.338L186.75 126.532L184.041 128.338C179.998 131.032 174.584 128.134 174.583 123.276V122.875H150.25C141.851 122.875 135.042 116.066 135.042 107.667V77.25C135.042 68.8507 141.851 62.0417 150.25 62.0417H174.583ZM192.833 109.666C190.93 110.339 188.883 110.708 186.75 110.708C184.616 110.708 182.57 110.339 180.667 109.666V123.276L183.375 121.47C185.419 120.108 188.081 120.108 190.124 121.47L192.833 123.276V109.666ZM150.25 68.125C145.21 68.125 141.125 72.2104 141.125 77.25V107.667C141.125 112.706 145.21 116.792 150.25 116.792H174.583V106.057C170.851 102.715 168.5 97.8623 168.5 92.4584C168.5 83.5594 174.87 76.1518 183.298 74.5381C182.143 70.8228 178.678 68.125 174.583 68.125H150.25ZM186.75 80.2917C180.03 80.2917 174.583 85.7389 174.583 92.4584C174.583 99.1778 180.03 104.625 186.75 104.625C193.469 104.625 198.917 99.1778 198.917 92.4584C198.917 85.7389 193.469 80.2917 186.75 80.2917Z" fill="#3E4550"/>
</svg>
