<svg width="336" height="192" viewBox="0 0 336 192" fill="none" xmlns="http://www.w3.org/2000/svg">
<rect width="336" height="192" fill="#006E55"/>
<path fill-rule="evenodd" clip-rule="evenodd" d="M181 58C176.582 58 173 61.5817 173 66V84C173 88.4183 176.582 92 181 92H199C203.418 92 207 88.4183 207 84V66C207 61.5817 203.418 58 199 58H181ZM177 66C177 63.7909 178.791 62 181 62H199C201.209 62 203 63.7909 203 66V84C203 86.2091 201.209 88 199 88H181C178.791 88 177 86.2091 177 84V66ZM144.822 60.858C145.958 58.662 149.113 58.7055 150.188 60.932L163.108 87.6958C164.07 89.6877 162.619 92 160.407 92H133.643C131.395 92 129.946 89.6186 130.978 87.6217L144.822 60.858ZM147.456 64.4726L135.286 88H158.814L147.456 64.4726ZM130 118C130 108.611 137.611 101 147 101C156.389 101 164 108.611 164 118C164 127.389 156.389 135 147 135C137.611 135 130 127.389 130 118ZM147 105C139.82 105 134 110.82 134 118C134 125.18 139.82 131 147 131C154.18 131 160 125.18 160 118C160 110.82 154.18 105 147 105ZM174.586 102.586C175.367 101.805 176.633 101.805 177.414 102.586L190 115.172L202.586 102.586C203.367 101.805 204.633 101.805 205.414 102.586C206.195 103.367 206.195 104.633 205.414 105.414L192.828 118L205.414 130.586C206.195 131.367 206.195 132.633 205.414 133.414C204.633 134.195 203.367 134.195 202.586 133.414L190 120.828L177.414 133.414C176.633 134.195 175.367 134.195 174.586 133.414C173.805 132.633 173.805 131.367 174.586 130.586L187.172 118L174.586 105.414C173.805 104.633 173.805 103.367 174.586 102.586Z" fill="white"/>
</svg>
