<svg width="288" height="172" viewBox="0 0 288 172" fill="none" xmlns="http://www.w3.org/2000/svg">
<path d="M12.828 12.948V24H20.676V21.498H15.726V12.948H12.828ZM24.9558 13.704C24.9558 12.768 24.2178 12.174 23.3538 12.174C22.4898 12.174 21.7518 12.768 21.7518 13.704C21.7518 14.622 22.4898 15.216 23.3538 15.216C24.2178 15.216 24.9558 14.622 24.9558 13.704ZM24.7578 24V15.9H21.9318V24H24.7578ZM26.0032 21.03V23.406C26.7592 23.91 27.9472 24.18 29.0812 24.18C31.0792 24.18 32.5732 23.334 32.5732 21.606C32.5732 20.238 31.8712 19.518 30.1072 19.05L29.3692 18.834C28.9732 18.726 28.7392 18.618 28.7392 18.312C28.7392 17.988 29.0632 17.826 29.5492 17.826C30.4672 17.826 31.3312 18.204 32.1052 18.762V16.44C31.3132 15.954 30.4312 15.72 29.2792 15.72C27.3712 15.72 25.9672 16.674 25.9672 18.366C25.9672 19.824 26.9212 20.526 28.4152 20.85L29.0452 21.012C29.5312 21.12 29.7832 21.246 29.7832 21.57C29.7832 21.93 29.4232 22.056 28.8652 22.056C28.0372 22.056 26.7772 21.66 26.0032 21.03ZM37.4004 24V18.096H38.9844V15.9H37.4004V13.668H34.5924V15.9H33.1884V18.096H34.5924V24H37.4004ZM46.5932 24V12.948H43.6952V24H46.5932ZM51.9199 24V18.096H53.5039V15.9H51.9199V13.668H49.1119V15.9H47.7079V18.096H49.1119V24H51.9199ZM56.7729 20.598H61.7589V19.77C61.7589 17.358 60.4809 15.72 57.9609 15.72C55.7289 15.72 54.0369 17.466 54.0369 20.004C54.0369 22.614 55.8009 24.18 58.3929 24.18C59.5629 24.18 60.5529 23.928 61.1829 23.46V21.318C60.3729 21.804 59.7069 21.966 58.8429 21.966C57.7989 21.966 57.0069 21.57 56.7729 20.598ZM58.0689 17.862C58.7529 17.862 59.1669 18.33 59.2389 19.014H56.8089C57.0069 18.276 57.4569 17.862 58.0689 17.862ZM70.0348 16.692C69.5488 16.116 68.8288 15.72 67.8028 15.72C66.9028 15.72 66.1288 16.062 65.7148 16.566V15.9H62.8888V24H65.7148V19.068C65.8408 18.51 66.2728 18.204 66.7588 18.204C67.3888 18.204 67.6768 18.69 67.6768 19.374V24H70.4848V19.068C70.6288 18.51 71.0428 18.204 71.5288 18.204C72.1588 18.204 72.4468 18.69 72.4468 19.374V24H75.2728V18.69C75.2728 16.872 74.2288 15.72 72.5368 15.72C71.3488 15.72 70.5208 16.188 70.0348 16.692Z" fill="#444444"/>
<path d="M258 16L264 22L270 16" stroke="#444444" stroke-width="2" stroke-linecap="round" stroke-linejoin="round"/>
<path d="M0 1H288" stroke="#EEEEEE" stroke-width="2"/>
<path d="M12.656 96.872V98.232C13.328 98.76 14.416 99.144 15.744 99.144C17.648 99.144 19.056 98.136 19.056 96.456C19.056 95.096 18.384 94.312 16.88 93.736L15.328 93.128C14.416 92.776 13.856 92.424 13.856 91.592C13.856 90.616 14.704 90.136 15.792 90.136C16.928 90.136 17.808 90.536 18.592 91.16V89.832C17.856 89.32 16.848 89.032 15.776 89.032C14.08 89.032 12.624 89.912 12.624 91.608C12.624 93.16 13.68 93.816 14.832 94.264L16.272 94.824C17.312 95.256 17.84 95.608 17.84 96.472C17.84 97.48 17.008 98.024 15.744 98.024C14.592 98.024 13.568 97.656 12.656 96.872ZM26.4391 99V91.896H25.2231V96.712C24.9671 97.48 24.2791 98.04 23.4471 98.04C22.3751 98.04 21.8951 97.352 21.8951 96.36V91.896H20.6791V96.552C20.6791 98.104 21.5431 99.144 23.1591 99.144C24.0711 99.144 24.8231 98.664 25.2231 98.104V99H26.4391ZM28.156 97.16V98.44C28.684 98.856 29.564 99.144 30.492 99.144C31.98 99.144 33.148 98.392 33.148 97.08C33.148 96.072 32.556 95.448 31.484 95.08L30.396 94.712C29.724 94.472 29.34 94.28 29.34 93.704C29.34 93.096 29.948 92.776 30.684 92.776C31.548 92.776 32.204 93.128 32.796 93.624V92.376C32.22 91.976 31.484 91.752 30.684 91.752C29.276 91.752 28.172 92.504 28.172 93.752C28.172 94.904 28.892 95.416 29.964 95.768L30.94 96.104C31.564 96.312 31.964 96.6 31.964 97.128C31.964 97.832 31.276 98.12 30.492 98.12C29.628 98.12 28.812 97.768 28.156 97.16ZM36.7904 99V92.92H38.4384V91.896H36.7904V90.024H35.5904V91.896H34.1024V92.92H35.5904V99H36.7904ZM43.6959 94.28V95.208C43.3919 94.936 42.6559 94.632 41.9199 94.632C40.3999 94.632 39.2159 95.528 39.2159 96.856C39.2159 98.264 40.3999 99.128 41.8559 99.128C42.6879 99.128 43.4239 98.76 43.6959 98.472V99H44.8639V94.184C44.8639 92.68 43.8719 91.752 42.1919 91.752C41.3119 91.752 40.4639 92.008 39.9839 92.344V93.48C40.5759 93.096 41.2159 92.856 41.9999 92.856C43.0399 92.856 43.6959 93.4 43.6959 94.28ZM43.6959 96.504V97.24C43.5039 97.768 42.7999 98.12 42.0479 98.12C41.1839 98.12 40.3519 97.72 40.3519 96.856C40.3519 96.008 41.1839 95.624 42.0479 95.624C42.7999 95.624 43.5039 95.976 43.6959 96.504ZM48.2918 89.752C48.2918 89.32 47.9398 88.984 47.5078 88.984C47.0918 88.984 46.7398 89.32 46.7398 89.752C46.7398 90.168 47.0918 90.52 47.5078 90.52C47.9398 90.52 48.2918 90.168 48.2918 89.752ZM48.1158 99V91.896H46.9158V99H48.1158ZM50.2595 91.896V99H51.4595V94.184C51.7155 93.416 52.4355 92.856 53.2675 92.856C54.3395 92.856 54.8355 93.544 54.8355 94.536V99H56.0515V94.344C56.0515 92.792 55.1715 91.752 53.5555 91.752C52.6435 91.752 51.8755 92.232 51.4595 92.792V91.896H50.2595ZM62.0396 94.28V95.208C61.7356 94.936 60.9996 94.632 60.2636 94.632C58.7436 94.632 57.5596 95.528 57.5596 96.856C57.5596 98.264 58.7436 99.128 60.1996 99.128C61.0316 99.128 61.7676 98.76 62.0396 98.472V99H63.2076V94.184C63.2076 92.68 62.2156 91.752 60.5356 91.752C59.6556 91.752 58.8076 92.008 58.3276 92.344V93.48C58.9196 93.096 59.5596 92.856 60.3436 92.856C61.3836 92.856 62.0396 93.4 62.0396 94.28ZM62.0396 96.504V97.24C61.8476 97.768 61.1436 98.12 60.3916 98.12C59.5276 98.12 58.6956 97.72 58.6956 96.856C58.6956 96.008 59.5276 95.624 60.3916 95.624C61.1436 95.624 61.8476 95.976 62.0396 96.504ZM66.4595 99V98.168C66.8115 98.68 67.5795 99.144 68.4595 99.144C70.5395 99.144 71.6595 97.464 71.6595 95.448C71.6595 93.448 70.5395 91.752 68.4595 91.752C67.5795 91.752 66.8115 92.216 66.4595 92.728V88.6H65.2435V99H66.4595ZM66.4595 96.888V94.008C66.8275 93.272 67.5315 92.84 68.2835 92.84C69.6435 92.84 70.4435 93.944 70.4435 95.448C70.4435 96.952 69.6435 98.056 68.2835 98.056C67.5315 98.056 66.8275 97.624 66.4595 96.888ZM74.4908 99V88.6H73.2908V99H74.4908ZM77.3065 95.656H82.2025V95.224C82.2025 93.144 81.2105 91.752 79.2905 91.752C77.4025 91.752 76.1225 93.304 76.1225 95.512C76.1225 97.752 77.4985 99.144 79.5465 99.144C80.3945 99.144 81.1305 98.968 81.7065 98.52V97.416C81.0665 97.896 80.4905 98.088 79.6905 98.088C78.3945 98.088 77.3545 97.304 77.3065 95.656ZM79.3065 92.776C80.4585 92.776 80.9865 93.672 81.0345 94.712H77.3705C77.5945 93.4 78.3625 92.776 79.3065 92.776ZM87.3689 91.896V99H88.5689V94.184C88.8249 93.416 89.5449 92.856 90.3769 92.856C91.4489 92.856 91.9449 93.544 91.9449 94.536V99H93.1609V94.344C93.1609 92.792 92.2809 91.752 90.6649 91.752C89.7529 91.752 88.9849 92.232 88.5689 92.792V91.896H87.3689ZM95.869 95.656H100.765V95.224C100.765 93.144 99.773 91.752 97.853 91.752C95.965 91.752 94.685 93.304 94.685 95.512C94.685 97.752 96.061 99.144 98.109 99.144C98.957 99.144 99.693 98.968 100.269 98.52V97.416C99.629 97.896 99.053 98.088 98.253 98.088C96.957 98.088 95.917 97.304 95.869 95.656ZM97.869 92.776C99.021 92.776 99.549 93.672 99.597 94.712H95.933C96.157 93.4 96.925 92.776 97.869 92.776ZM108.064 99V91.896H106.848V96.712C106.592 97.48 105.904 98.04 105.072 98.04C104 98.04 103.52 97.352 103.52 96.36V91.896H102.304V96.552C102.304 98.104 103.168 99.144 104.784 99.144C105.696 99.144 106.448 98.664 106.848 98.104V99H108.064ZM112.181 99V92.92H113.829V91.896H112.181V90.024H110.981V91.896H109.493V92.92H110.981V99H112.181ZM118.939 93.096V91.864C118.811 91.8 118.555 91.752 118.251 91.752C117.467 91.752 116.795 92.216 116.491 92.824V91.896H115.291V99H116.491V94.232C116.731 93.4 117.387 92.904 118.139 92.904C118.443 92.904 118.747 92.968 118.939 93.096ZM124.196 94.28V95.208C123.892 94.936 123.156 94.632 122.42 94.632C120.9 94.632 119.716 95.528 119.716 96.856C119.716 98.264 120.9 99.128 122.356 99.128C123.188 99.128 123.924 98.76 124.196 98.472V99H125.364V94.184C125.364 92.68 124.372 91.752 122.692 91.752C121.812 91.752 120.964 92.008 120.484 92.344V93.48C121.076 93.096 121.716 92.856 122.5 92.856C123.54 92.856 124.196 93.4 124.196 94.28ZM124.196 96.504V97.24C124.004 97.768 123.3 98.12 122.548 98.12C121.684 98.12 120.852 97.72 120.852 96.856C120.852 96.008 121.684 95.624 122.548 95.624C123.3 95.624 124.004 95.976 124.196 96.504ZM131.619 95.656H136.515V95.224C136.515 93.144 135.523 91.752 133.603 91.752C131.715 91.752 130.435 93.304 130.435 95.512C130.435 97.752 131.811 99.144 133.859 99.144C134.707 99.144 135.443 98.968 136.019 98.52V97.416C135.379 97.896 134.803 98.088 134.003 98.088C132.707 98.088 131.667 97.304 131.619 95.656ZM133.619 92.776C134.771 92.776 135.299 93.672 135.347 94.712H131.683C131.907 93.4 132.675 92.776 133.619 92.776ZM137.638 95.448C137.638 97.72 139.142 99.144 141.062 99.144C141.75 99.144 142.47 98.984 142.966 98.552V97.336C142.454 97.848 141.83 98.072 141.142 98.072C139.878 98.072 138.854 97.08 138.854 95.448C138.854 93.816 139.878 92.824 141.142 92.824C141.83 92.824 142.454 93.048 142.966 93.56V92.344C142.47 91.912 141.75 91.752 141.062 91.752C139.142 91.752 137.638 93.176 137.638 95.448ZM144.635 88.6V99H145.835V94.184C146.091 93.416 146.811 92.856 147.643 92.856C148.715 92.856 149.211 93.544 149.211 94.536V99H150.427V94.344C150.427 92.792 149.547 91.752 147.931 91.752C147.019 91.752 146.251 92.232 145.835 92.792V88.6H144.635ZM158.479 95.448C158.479 93.272 157.151 91.752 155.215 91.752C153.263 91.752 151.951 93.272 151.951 95.448C151.951 97.624 153.263 99.144 155.215 99.144C157.151 99.144 158.479 97.624 158.479 95.448ZM157.263 95.448C157.263 97 156.495 98.088 155.215 98.088C153.935 98.088 153.167 97 153.167 95.448C153.167 93.896 153.935 92.808 155.215 92.808C156.495 92.808 157.263 93.896 157.263 95.448ZM164.835 101.72V98.168C165.203 98.68 165.955 99.144 166.835 99.144C168.931 99.144 170.035 97.416 170.035 95.448C170.035 93.48 168.931 91.752 166.835 91.752C165.955 91.752 165.203 92.216 164.835 92.728V91.896H163.635V101.72H164.835ZM164.835 96.888V94.008C165.203 93.272 165.907 92.84 166.659 92.84C168.019 92.84 168.819 93.944 168.819 95.448C168.819 96.952 168.019 98.056 166.659 98.056C165.907 98.056 165.203 97.624 164.835 96.888ZM175.618 94.28V95.208C175.314 94.936 174.578 94.632 173.842 94.632C172.322 94.632 171.138 95.528 171.138 96.856C171.138 98.264 172.322 99.128 173.778 99.128C174.61 99.128 175.346 98.76 175.618 98.472V99H176.786V94.184C176.786 92.68 175.794 91.752 174.114 91.752C173.234 91.752 172.386 92.008 171.906 92.344V93.48C172.498 93.096 173.138 92.856 173.922 92.856C174.962 92.856 175.618 93.4 175.618 94.28ZM175.618 96.504V97.24C175.426 97.768 174.722 98.12 173.97 98.12C173.106 98.12 172.274 97.72 172.274 96.856C172.274 96.008 173.106 95.624 173.97 95.624C174.722 95.624 175.426 95.976 175.618 96.504ZM182.486 93.096V91.864C182.358 91.8 182.102 91.752 181.798 91.752C181.014 91.752 180.342 92.216 180.038 92.824V91.896H178.838V99H180.038V94.232C180.278 93.4 180.934 92.904 181.686 92.904C181.99 92.904 182.294 92.968 182.486 93.096ZM189.946 99L186.394 95.144L189.882 91.896H188.33L185.178 94.888V88.6H183.978V99H185.178V95.48L188.458 99H189.946ZM194.635 88.6V99H195.835V94.184C196.091 93.416 196.811 92.856 197.643 92.856C198.715 92.856 199.211 93.544 199.211 94.536V99H200.427V94.344C200.427 92.792 199.547 91.752 197.931 91.752C197.019 91.752 196.251 92.232 195.835 92.792V88.6H194.635ZM203.135 95.656H208.031V95.224C208.031 93.144 207.039 91.752 205.119 91.752C203.231 91.752 201.951 93.304 201.951 95.512C201.951 97.752 203.327 99.144 205.375 99.144C206.223 99.144 206.959 98.968 207.535 98.52V97.416C206.895 97.896 206.319 98.088 205.519 98.088C204.223 98.088 203.183 97.304 203.135 95.656ZM205.135 92.776C206.287 92.776 206.815 93.672 206.863 94.712H203.199C203.423 93.4 204.191 92.776 205.135 92.776ZM210.866 99V88.6H209.666V99H210.866ZM214.978 99H216.161L218.93 91.896H217.666L215.602 97.48L213.522 91.896H212.226L214.978 99ZM220.838 95.656H225.734V95.224C225.734 93.144 224.742 91.752 222.822 91.752C220.934 91.752 219.654 93.304 219.654 95.512C219.654 97.752 221.03 99.144 223.078 99.144C223.926 99.144 224.662 98.968 225.238 98.52V97.416C224.598 97.896 224.022 98.088 223.222 98.088C221.926 98.088 220.886 97.304 220.838 95.656ZM222.838 92.776C223.99 92.776 224.518 93.672 224.566 94.712H220.902C221.126 93.4 221.894 92.776 222.838 92.776ZM229.275 99V92.92H230.923V91.896H229.275V90.024H228.075V91.896H226.587V92.92H228.075V99H229.275ZM233.761 89.752C233.761 89.32 233.409 88.984 232.977 88.984C232.561 88.984 232.209 89.32 232.209 89.752C232.209 90.168 232.561 90.52 232.977 90.52C233.409 90.52 233.761 90.168 233.761 89.752ZM233.585 99V91.896H232.385V99H233.585ZM235.216 95.448C235.216 97.72 236.72 99.144 238.64 99.144C239.328 99.144 240.048 98.984 240.544 98.552V97.336C240.032 97.848 239.408 98.072 238.72 98.072C237.456 98.072 236.432 97.08 236.432 95.448C236.432 93.816 237.456 92.824 238.72 92.824C239.408 92.824 240.032 93.048 240.544 93.56V92.344C240.048 91.912 239.328 91.752 238.64 91.752C236.72 91.752 235.216 93.176 235.216 95.448ZM246.196 94.28V95.208C245.892 94.936 245.156 94.632 244.42 94.632C242.9 94.632 241.716 95.528 241.716 96.856C241.716 98.264 242.9 99.128 244.356 99.128C245.188 99.128 245.924 98.76 246.196 98.472V99H247.364V94.184C247.364 92.68 246.372 91.752 244.692 91.752C243.812 91.752 242.964 92.008 242.484 92.344V93.48C243.076 93.096 243.716 92.856 244.5 92.856C245.54 92.856 246.196 93.4 246.196 94.28ZM246.196 96.504V97.24C246.004 97.768 245.3 98.12 244.548 98.12C243.684 98.12 242.852 97.72 242.852 96.856C242.852 96.008 243.684 95.624 244.548 95.624C245.3 95.624 246.004 95.976 246.196 96.504ZM16.624 108.704V107.616C16.352 107.504 16.08 107.456 15.696 107.456C14.448 107.456 13.52 108.288 13.52 109.712V110.896H12.32V111.92H13.52V118H14.704V111.92H16.304V110.896H14.704V109.808C14.704 108.96 15.168 108.512 15.872 108.512C16.128 108.512 16.4 108.56 16.624 108.704ZM21.345 112.096V110.864C21.217 110.8 20.961 110.752 20.657 110.752C19.873 110.752 19.201 111.216 18.897 111.824V110.896H17.697V118H18.897V113.232C19.137 112.4 19.793 111.904 20.545 111.904C20.849 111.904 21.153 111.968 21.345 112.096ZM23.3065 114.656H28.2025V114.224C28.2025 112.144 27.2105 110.752 25.2905 110.752C23.4025 110.752 22.1225 112.304 22.1225 114.512C22.1225 116.752 23.4985 118.144 25.5465 118.144C26.3945 118.144 27.1305 117.968 27.7065 117.52V116.416C27.0665 116.896 26.4905 117.088 25.6905 117.088C24.3945 117.088 23.3545 116.304 23.3065 114.656ZM25.3065 111.776C26.4585 111.776 26.9865 112.672 27.0345 113.712H23.3705C23.5945 112.4 24.3625 111.776 25.3065 111.776ZM30.5096 114.656H35.4056V114.224C35.4056 112.144 34.4136 110.752 32.4936 110.752C30.6056 110.752 29.3256 112.304 29.3256 114.512C29.3256 116.752 30.7016 118.144 32.7496 118.144C33.5976 118.144 34.3336 117.968 34.9096 117.52V116.416C34.2696 116.896 33.6936 117.088 32.8936 117.088C31.5976 117.088 30.5576 116.304 30.5096 114.656ZM32.5096 111.776C33.6616 111.776 34.1896 112.672 34.2376 113.712H30.5736C30.7976 112.4 31.5656 111.776 32.5096 111.776ZM41.6808 117.056V117.52C41.6808 119.04 40.6888 119.792 39.4248 119.792C38.5928 119.792 37.8408 119.568 37.1368 118.912V120.24C37.6808 120.624 38.5128 120.88 39.4248 120.88C41.1208 120.88 42.8968 119.92 42.8968 117.44V110.896H41.6808V111.696C41.3288 111.2 40.5768 110.752 39.6968 110.752C37.6168 110.752 36.5288 112.48 36.5288 114.384C36.5288 116.288 37.6168 118.016 39.6968 118.016C40.5768 118.016 41.3288 117.552 41.6808 117.056ZM41.6808 112.928V115.824C41.3128 116.496 40.6408 116.928 39.8728 116.928C38.5288 116.928 37.7448 115.856 37.7448 114.384C37.7448 112.896 38.5288 111.824 39.8728 111.824C40.6408 111.824 41.3128 112.256 41.6808 112.928ZM48.9771 113.28V114.208C48.6731 113.936 47.9371 113.632 47.2011 113.632C45.6811 113.632 44.4971 114.528 44.4971 115.856C44.4971 117.264 45.6811 118.128 47.1371 118.128C47.9691 118.128 48.7051 117.76 48.9771 117.472V118H50.1451V113.184C50.1451 111.68 49.1531 110.752 47.4731 110.752C46.5931 110.752 45.7451 111.008 45.2651 111.344V112.48C45.8571 112.096 46.4971 111.856 47.2811 111.856C48.3211 111.856 48.9771 112.4 48.9771 113.28ZM48.9771 115.504V116.24C48.7851 116.768 48.0811 117.12 47.3291 117.12C46.4651 117.12 45.6331 116.72 45.6331 115.856C45.6331 115.008 46.4651 114.624 47.3291 114.624C48.0811 114.624 48.7851 114.976 48.9771 115.504ZM52.197 110.896V118H53.397V113.184C53.653 112.416 54.373 111.856 55.205 111.856C56.277 111.856 56.773 112.544 56.773 113.536V118H57.989V113.344C57.989 111.792 57.109 110.752 55.493 110.752C54.581 110.752 53.813 111.232 53.397 111.792V110.896H52.197ZM67.1084 108.704V107.616C66.8364 107.504 66.5644 107.456 66.1804 107.456C64.9324 107.456 64.0044 108.288 64.0044 109.712V110.896H62.8044V111.92H64.0044V118H65.1884V111.92H66.7884V110.896H65.1884V109.808C65.1884 108.96 65.6524 108.512 66.3564 108.512C66.6124 108.512 66.8844 108.56 67.1084 108.704ZM74.088 114.448C74.088 112.272 72.76 110.752 70.824 110.752C68.872 110.752 67.56 112.272 67.56 114.448C67.56 116.624 68.872 118.144 70.824 118.144C72.76 118.144 74.088 116.624 74.088 114.448ZM72.872 114.448C72.872 116 72.104 117.088 70.824 117.088C69.544 117.088 68.776 116 68.776 114.448C68.776 112.896 69.544 111.808 70.824 111.808C72.104 111.808 72.872 112.896 72.872 114.448ZM79.3606 112.096V110.864C79.2326 110.8 78.9766 110.752 78.6726 110.752C77.8886 110.752 77.2166 111.216 76.9126 111.824V110.896H75.7126V118H76.9126V113.232C77.1526 112.4 77.8086 111.904 78.5606 111.904C78.8646 111.904 79.1686 111.968 79.3606 112.096ZM84.6178 113.28V114.208C84.3138 113.936 83.5778 113.632 82.8418 113.632C81.3218 113.632 80.1378 114.528 80.1378 115.856C80.1378 117.264 81.3218 118.128 82.7778 118.128C83.6098 118.128 84.3458 117.76 84.6178 117.472V118H85.7858V113.184C85.7858 111.68 84.7938 110.752 83.1138 110.752C82.2338 110.752 81.3858 111.008 80.9058 111.344V112.48C81.4978 112.096 82.1378 111.856 82.9218 111.856C83.9618 111.856 84.6178 112.4 84.6178 113.28ZM84.6178 115.504V116.24C84.4258 116.768 83.7218 117.12 82.9698 117.12C82.1058 117.12 81.2738 116.72 81.2738 115.856C81.2738 115.008 82.1058 114.624 82.9698 114.624C83.7218 114.624 84.4258 114.976 84.6178 115.504ZM92.4776 117.056V117.52C92.4776 119.04 91.4856 119.792 90.2216 119.792C89.3896 119.792 88.6376 119.568 87.9336 118.912V120.24C88.4776 120.624 89.3096 120.88 90.2216 120.88C91.9176 120.88 93.6936 119.92 93.6936 117.44V110.896H92.4776V111.696C92.1256 111.2 91.3736 110.752 90.4936 110.752C88.4136 110.752 87.3256 112.48 87.3256 114.384C87.3256 116.288 88.4136 118.016 90.4936 118.016C91.3736 118.016 92.1256 117.552 92.4776 117.056ZM92.4776 112.928V115.824C92.1096 116.496 91.4376 116.928 90.6696 116.928C89.3256 116.928 88.5416 115.856 88.5416 114.384C88.5416 112.896 89.3256 111.824 90.6696 111.824C91.4376 111.824 92.1096 112.256 92.4776 112.928ZM96.494 114.656H101.39V114.224C101.39 112.144 100.398 110.752 98.478 110.752C96.59 110.752 95.31 112.304 95.31 114.512C95.31 116.752 96.686 118.144 98.734 118.144C99.582 118.144 100.318 117.968 100.894 117.52V116.416C100.254 116.896 99.678 117.088 98.878 117.088C97.582 117.088 96.542 116.304 96.494 114.656ZM98.494 111.776C99.646 111.776 100.174 112.672 100.222 113.712H96.558C96.782 112.4 97.55 111.776 98.494 111.776ZM106.556 107.6V118H107.756V113.184C108.012 112.416 108.732 111.856 109.564 111.856C110.636 111.856 111.132 112.544 111.132 113.536V118H112.348V113.344C112.348 111.792 111.468 110.752 109.852 110.752C108.94 110.752 108.172 111.232 107.756 111.792V107.6H106.556ZM118.337 113.28V114.208C118.033 113.936 117.297 113.632 116.561 113.632C115.041 113.632 113.857 114.528 113.857 115.856C113.857 117.264 115.041 118.128 116.497 118.128C117.329 118.128 118.065 117.76 118.337 117.472V118H119.505V113.184C119.505 111.68 118.513 110.752 116.833 110.752C115.953 110.752 115.105 111.008 114.625 111.344V112.48C115.217 112.096 115.857 111.856 116.641 111.856C117.681 111.856 118.337 112.4 118.337 113.28ZM118.337 115.504V116.24C118.145 116.768 117.441 117.12 116.689 117.12C115.825 117.12 114.993 116.72 114.993 115.856C114.993 115.008 115.825 114.624 116.689 114.624C117.441 114.624 118.145 114.976 118.337 115.504ZM121.14 116.16V117.44C121.668 117.856 122.548 118.144 123.476 118.144C124.964 118.144 126.132 117.392 126.132 116.08C126.132 115.072 125.54 114.448 124.468 114.08L123.38 113.712C122.708 113.472 122.324 113.28 122.324 112.704C122.324 112.096 122.932 111.776 123.668 111.776C124.532 111.776 125.188 112.128 125.78 112.624V111.376C125.204 110.976 124.468 110.752 123.668 110.752C122.26 110.752 121.156 111.504 121.156 112.752C121.156 113.904 121.876 114.416 122.948 114.768L123.924 115.104C124.548 115.312 124.948 115.6 124.948 116.128C124.948 116.832 124.26 117.12 123.476 117.12C122.612 117.12 121.796 116.768 121.14 116.16ZM127.838 107.6V118H129.038V113.184C129.294 112.416 130.014 111.856 130.846 111.856C131.918 111.856 132.414 112.544 132.414 113.536V118H133.63V113.344C133.63 111.792 132.75 110.752 131.134 110.752C130.222 110.752 129.454 111.232 129.038 111.792V107.6H127.838ZM137.65 118V111.92H139.298V110.896H137.65V109.024H136.45V110.896H134.962V111.92H136.45V118H137.65ZM144.555 113.28V114.208C144.251 113.936 143.515 113.632 142.779 113.632C141.259 113.632 140.075 114.528 140.075 115.856C140.075 117.264 141.259 118.128 142.715 118.128C143.547 118.128 144.283 117.76 144.555 117.472V118H145.723V113.184C145.723 111.68 144.731 110.752 143.051 110.752C142.171 110.752 141.323 111.008 140.843 111.344V112.48C141.435 112.096 142.075 111.856 142.859 111.856C143.899 111.856 144.555 112.4 144.555 113.28ZM144.555 115.504V116.24C144.363 116.768 143.659 117.12 142.907 117.12C142.043 117.12 141.211 116.72 141.211 115.856C141.211 115.008 142.043 114.624 142.907 114.624C143.659 114.624 144.363 114.976 144.555 115.504ZM152.415 117.056V117.52C152.415 119.04 151.423 119.792 150.159 119.792C149.327 119.792 148.575 119.568 147.871 118.912V120.24C148.415 120.624 149.247 120.88 150.159 120.88C151.855 120.88 153.631 119.92 153.631 117.44V110.896H152.415V111.696C152.063 111.2 151.311 110.752 150.431 110.752C148.351 110.752 147.263 112.48 147.263 114.384C147.263 116.288 148.351 118.016 150.431 118.016C151.311 118.016 152.063 117.552 152.415 117.056ZM152.415 112.928V115.824C152.047 116.496 151.375 116.928 150.607 116.928C149.263 116.928 148.479 115.856 148.479 114.384C148.479 112.896 149.263 111.824 150.607 111.824C151.375 111.824 152.047 112.256 152.415 112.928ZM165.259 118L161.707 114.144L165.195 110.896H163.643L160.491 113.888V107.6H159.291V118H160.491V114.48L163.771 118H165.259ZM172.322 114.448C172.322 112.272 170.994 110.752 169.058 110.752C167.106 110.752 165.794 112.272 165.794 114.448C165.794 116.624 167.106 118.144 169.058 118.144C170.994 118.144 172.322 116.624 172.322 114.448ZM171.106 114.448C171.106 116 170.338 117.088 169.058 117.088C167.778 117.088 167.01 116 167.01 114.448C167.01 112.896 167.778 111.808 169.058 111.808C170.338 111.808 171.106 112.896 171.106 114.448ZM178.618 117.056V117.52C178.618 119.04 177.626 119.792 176.362 119.792C175.53 119.792 174.778 119.568 174.074 118.912V120.24C174.618 120.624 175.45 120.88 176.362 120.88C178.058 120.88 179.834 119.92 179.834 117.44V110.896H178.618V111.696C178.266 111.2 177.514 110.752 176.634 110.752C174.554 110.752 173.466 112.48 173.466 114.384C173.466 116.288 174.554 118.016 176.634 118.016C177.514 118.016 178.266 117.552 178.618 117.056ZM178.618 112.928V115.824C178.25 116.496 177.578 116.928 176.81 116.928C175.466 116.928 174.682 115.856 174.682 114.384C174.682 112.896 175.466 111.824 176.81 111.824C177.578 111.824 178.25 112.256 178.618 112.928ZM183.339 108.752C183.339 108.32 182.987 107.984 182.555 107.984C182.139 107.984 181.787 108.32 181.787 108.752C181.787 109.168 182.139 109.52 182.555 109.52C182.987 109.52 183.339 109.168 183.339 108.752ZM183.163 118V110.896H181.963V118H183.163ZM190.038 120.72V117.168C190.406 117.68 191.158 118.144 192.038 118.144C194.134 118.144 195.238 116.416 195.238 114.448C195.238 112.48 194.134 110.752 192.038 110.752C191.158 110.752 190.406 111.216 190.038 111.728V110.896H188.838V120.72H190.038ZM190.038 115.888V113.008C190.406 112.272 191.11 111.84 191.862 111.84C193.222 111.84 194.022 112.944 194.022 114.448C194.022 115.952 193.222 117.056 191.862 117.056C191.11 117.056 190.406 116.624 190.038 115.888ZM198.245 108.752C198.245 108.32 197.893 107.984 197.461 107.984C197.045 107.984 196.693 108.32 196.693 108.752C196.693 109.168 197.045 109.52 197.461 109.52C197.893 109.52 198.245 109.168 198.245 108.752ZM198.069 118V110.896H196.869V118H198.069ZM202.197 118V111.92H203.845V110.896H202.197V109.024H200.997V110.896H199.509V111.92H200.997V118H202.197ZM204.669 114.448C204.669 116.72 206.173 118.144 208.093 118.144C208.781 118.144 209.501 117.984 209.997 117.552V116.336C209.485 116.848 208.861 117.072 208.173 117.072C206.909 117.072 205.885 116.08 205.885 114.448C205.885 112.816 206.909 111.824 208.173 111.824C208.861 111.824 209.485 112.048 209.997 112.56V111.344C209.501 110.912 208.781 110.752 208.093 110.752C206.173 110.752 204.669 112.176 204.669 114.448ZM211.666 107.6V118H212.866V113.184C213.122 112.416 213.842 111.856 214.674 111.856C215.746 111.856 216.242 112.544 216.242 113.536V118H217.458V113.344C217.458 111.792 216.578 110.752 214.962 110.752C214.05 110.752 213.282 111.232 212.866 111.792V107.6H211.666ZM223.046 108.704V107.616C222.774 107.504 222.502 107.456 222.118 107.456C220.87 107.456 219.942 108.288 219.942 109.712V110.896H218.742V111.92H219.942V118H221.126V111.92H222.726V110.896H221.126V109.808C221.126 108.96 221.59 108.512 222.294 108.512C222.55 108.512 222.822 108.56 223.046 108.704ZM230.026 114.448C230.026 112.272 228.698 110.752 226.762 110.752C224.81 110.752 223.498 112.272 223.498 114.448C223.498 116.624 224.81 118.144 226.762 118.144C228.698 118.144 230.026 116.624 230.026 114.448ZM228.81 114.448C228.81 116 228.042 117.088 226.762 117.088C225.482 117.088 224.714 116 224.714 114.448C224.714 112.896 225.482 111.808 226.762 111.808C228.042 111.808 228.81 112.896 228.81 114.448ZM235.298 112.096V110.864C235.17 110.8 234.914 110.752 234.61 110.752C233.826 110.752 233.154 111.216 232.85 111.824V110.896H231.65V118H232.85V113.232C233.09 112.4 233.746 111.904 234.498 111.904C234.802 111.904 235.106 111.968 235.298 112.096ZM242.759 118L239.207 114.144L242.695 110.896H241.143L237.991 113.888V107.6H236.791V118H237.991V114.48L241.271 118H242.759ZM243.715 117.216C243.715 117.712 244.099 118.08 244.579 118.08C245.043 118.08 245.427 117.712 245.427 117.216C245.427 116.72 245.043 116.336 244.579 116.336C244.099 116.336 243.715 116.72 243.715 117.216Z" fill="#444444"/>
<path d="M12.828 48.948V60H20.676V57.498H15.726V48.948H12.828ZM24.9558 49.704C24.9558 48.768 24.2178 48.174 23.3538 48.174C22.4898 48.174 21.7518 48.768 21.7518 49.704C21.7518 50.622 22.4898 51.216 23.3538 51.216C24.2178 51.216 24.9558 50.622 24.9558 49.704ZM24.7578 60V51.9H21.9318V60H24.7578ZM26.0032 57.03V59.406C26.7592 59.91 27.9472 60.18 29.0812 60.18C31.0792 60.18 32.5732 59.334 32.5732 57.606C32.5732 56.238 31.8712 55.518 30.1072 55.05L29.3692 54.834C28.9732 54.726 28.7392 54.618 28.7392 54.312C28.7392 53.988 29.0632 53.826 29.5492 53.826C30.4672 53.826 31.3312 54.204 32.1052 54.762V52.44C31.3132 51.954 30.4312 51.72 29.2792 51.72C27.3712 51.72 25.9672 52.674 25.9672 54.366C25.9672 55.824 26.9212 56.526 28.4152 56.85L29.0452 57.012C29.5312 57.12 29.7832 57.246 29.7832 57.57C29.7832 57.93 29.4232 58.056 28.8652 58.056C28.0372 58.056 26.7772 57.66 26.0032 57.03ZM37.4004 60V54.096H38.9844V51.9H37.4004V49.668H34.5924V51.9H33.1884V54.096H34.5924V60H37.4004ZM46.5932 60V48.948H43.6952V60H46.5932ZM51.9199 60V54.096H53.5039V51.9H51.9199V49.668H49.1119V51.9H47.7079V54.096H49.1119V60H51.9199ZM56.7729 56.598H61.7589V55.77C61.7589 53.358 60.4809 51.72 57.9609 51.72C55.7289 51.72 54.0369 53.466 54.0369 56.004C54.0369 58.614 55.8009 60.18 58.3929 60.18C59.5629 60.18 60.5529 59.928 61.1829 59.46V57.318C60.3729 57.804 59.7069 57.966 58.8429 57.966C57.7989 57.966 57.0069 57.57 56.7729 56.598ZM58.0689 53.862C58.7529 53.862 59.1669 54.33 59.2389 55.014H56.8089C57.0069 54.276 57.4569 53.862 58.0689 53.862ZM70.0348 52.692C69.5488 52.116 68.8288 51.72 67.8028 51.72C66.9028 51.72 66.1288 52.062 65.7148 52.566V51.9H62.8888V60H65.7148V55.068C65.8408 54.51 66.2728 54.204 66.7588 54.204C67.3888 54.204 67.6768 54.69 67.6768 55.374V60H70.4848V55.068C70.6288 54.51 71.0428 54.204 71.5288 54.204C72.1588 54.204 72.4468 54.69 72.4468 55.374V60H75.2728V54.69C75.2728 52.872 74.2288 51.72 72.5368 51.72C71.3488 51.72 70.5208 52.188 70.0348 52.692Z" fill="#444444"/>
<path d="M258 58L264 52L270 58" stroke="#444444" stroke-width="2" stroke-linecap="round" stroke-linejoin="round"/>
<path d="M0 37H288" stroke="#EEEEEE" stroke-width="2"/>
<path d="M0 135H288" stroke="#EEEEEE" stroke-width="2"/>
<path d="M12.828 146.948V158H20.676V155.498H15.726V146.948H12.828ZM24.9558 147.704C24.9558 146.768 24.2178 146.174 23.3538 146.174C22.4898 146.174 21.7518 146.768 21.7518 147.704C21.7518 148.622 22.4898 149.216 23.3538 149.216C24.2178 149.216 24.9558 148.622 24.9558 147.704ZM24.7578 158V149.9H21.9318V158H24.7578ZM26.0032 155.03V157.406C26.7592 157.91 27.9472 158.18 29.0812 158.18C31.0792 158.18 32.5732 157.334 32.5732 155.606C32.5732 154.238 31.8712 153.518 30.1072 153.05L29.3692 152.834C28.9732 152.726 28.7392 152.618 28.7392 152.312C28.7392 151.988 29.0632 151.826 29.5492 151.826C30.4672 151.826 31.3312 152.204 32.1052 152.762V150.44C31.3132 149.954 30.4312 149.72 29.2792 149.72C27.3712 149.72 25.9672 150.674 25.9672 152.366C25.9672 153.824 26.9212 154.526 28.4152 154.85L29.0452 155.012C29.5312 155.12 29.7832 155.246 29.7832 155.57C29.7832 155.93 29.4232 156.056 28.8652 156.056C28.0372 156.056 26.7772 155.66 26.0032 155.03ZM37.4004 158V152.096H38.9844V149.9H37.4004V147.668H34.5924V149.9H33.1884V152.096H34.5924V158H37.4004ZM46.5932 158V146.948H43.6952V158H46.5932ZM51.9199 158V152.096H53.5039V149.9H51.9199V147.668H49.1119V149.9H47.7079V152.096H49.1119V158H51.9199ZM56.7729 154.598H61.7589V153.77C61.7589 151.358 60.4809 149.72 57.9609 149.72C55.7289 149.72 54.0369 151.466 54.0369 154.004C54.0369 156.614 55.8009 158.18 58.3929 158.18C59.5629 158.18 60.5529 157.928 61.1829 157.46V155.318C60.3729 155.804 59.7069 155.966 58.8429 155.966C57.7989 155.966 57.0069 155.57 56.7729 154.598ZM58.0689 151.862C58.7529 151.862 59.1669 152.33 59.2389 153.014H56.8089C57.0069 152.276 57.4569 151.862 58.0689 151.862ZM70.0348 150.692C69.5488 150.116 68.8288 149.72 67.8028 149.72C66.9028 149.72 66.1288 150.062 65.7148 150.566V149.9H62.8888V158H65.7148V153.068C65.8408 152.51 66.2728 152.204 66.7588 152.204C67.3888 152.204 67.6768 152.69 67.6768 153.374V158H70.4848V153.068C70.6288 152.51 71.0428 152.204 71.5288 152.204C72.1588 152.204 72.4468 152.69 72.4468 153.374V158H75.2728V152.69C75.2728 150.872 74.2288 149.72 72.5368 149.72C71.3488 149.72 70.5208 150.188 70.0348 150.692Z" fill="#444444"/>
<path d="M258 150L264 156L270 150" stroke="#444444" stroke-width="2" stroke-linecap="round" stroke-linejoin="round"/>
<path d="M0 171H288" stroke="#EEEEEE" stroke-width="2"/>
</svg>
