<svg width="971" height="269" viewBox="0 0 971 269" fill="none" xmlns="http://www.w3.org/2000/svg">
<g filter="url(#filter0_d_2_14)">
<path d="M959 6H533V251H959V6Z" fill="#404B5C"/>
</g>
<g filter="url(#filter1_d_2_14)">
<path d="M438 6H12V251H438V6Z" fill="#404B5C"/>
</g>
<path d="M941 92H550V234H941V92Z" fill="#263040"/>
<path d="M420 92H29V234H420V92Z" fill="#263040"/>
<path d="M717.523 54.474C717.523 57.912 719.827 60.18 723.193 60.18C724.363 60.18 725.299 59.892 726.001 59.424V56.616C725.209 57.228 724.345 57.498 723.427 57.498C721.591 57.498 720.421 56.364 720.421 54.474C720.421 52.566 721.591 51.432 723.427 51.432C724.345 51.432 725.209 51.72 726.001 52.332V49.524C725.299 49.056 724.363 48.768 723.193 48.768C719.827 48.768 717.523 51.036 717.523 54.474ZM727.41 48.3V60H730.236V55.104C730.38 54.546 730.848 54.222 731.406 54.222C732.126 54.222 732.468 54.708 732.468 55.374V60H735.276V54.69C735.276 52.89 734.214 51.72 732.414 51.72C731.478 51.72 730.686 52.098 730.236 52.602V48.3H727.41ZM739.768 49.704C739.768 48.768 739.03 48.174 738.166 48.174C737.302 48.174 736.564 48.768 736.564 49.704C736.564 50.622 737.302 51.216 738.166 51.216C739.03 51.216 739.768 50.622 739.768 49.704ZM739.57 60V51.9H736.744V60H739.57ZM743.93 60V48.3H741.104V60H743.93ZM750.647 59.352V60H753.473V48.3H750.647V52.548C750.269 52.116 749.477 51.72 748.649 51.72C746.309 51.72 745.031 53.61 745.031 55.95C745.031 58.29 746.309 60.18 748.649 60.18C749.477 60.18 750.269 59.784 750.647 59.352ZM750.647 54.87V57.012C750.431 57.462 749.963 57.768 749.405 57.768C748.433 57.768 747.857 56.994 747.857 55.95C747.857 54.906 748.433 54.114 749.405 54.114C749.945 54.114 750.431 54.438 750.647 54.87ZM761.528 56.562H763.508C765.902 56.562 767.522 55.212 767.522 52.764C767.522 50.298 765.902 48.948 763.508 48.948H758.666V60H761.528V56.562ZM764.714 52.764C764.714 53.592 764.246 54.15 763.202 54.15H761.528V51.378H763.202C764.246 51.378 764.714 51.918 764.714 52.764ZM772.655 55.122V55.41C772.331 55.176 771.575 54.96 770.891 54.96C769.145 54.96 767.777 55.968 767.777 57.534C767.777 59.244 769.145 60.144 770.747 60.144C771.611 60.144 772.385 59.856 772.655 59.586V60H775.373V54.996C775.373 52.854 774.005 51.72 771.611 51.72C770.459 51.72 769.379 51.99 768.713 52.35V54.618C769.361 54.24 770.153 54.042 770.927 54.042C772.079 54.042 772.655 54.492 772.655 55.122ZM772.655 57.264V57.732C772.475 58.056 772.025 58.272 771.521 58.272C770.963 58.272 770.405 58.038 770.405 57.48C770.405 56.94 770.963 56.706 771.521 56.706C772.025 56.706 772.475 56.922 772.655 57.264ZM781.88 58.902V59.172C781.88 60.306 780.944 60.756 779.864 60.756C778.748 60.756 777.866 60.468 777.038 59.766V62.358C777.686 62.772 778.82 63.042 779.954 63.042C782.546 63.042 784.67 61.818 784.67 58.83V51.9H781.88V52.512C781.52 52.08 780.854 51.72 779.972 51.72C777.686 51.72 776.39 53.466 776.39 55.698C776.39 57.93 777.686 59.694 779.972 59.694C780.854 59.694 781.52 59.316 781.88 58.902ZM781.88 54.636V56.778C781.664 57.138 781.214 57.444 780.674 57.444C779.738 57.444 779.18 56.724 779.18 55.698C779.18 54.672 779.738 53.952 780.674 53.952C781.214 53.952 781.664 54.276 781.88 54.636ZM788.513 56.598H793.499V55.77C793.499 53.358 792.221 51.72 789.701 51.72C787.469 51.72 785.777 53.466 785.777 56.004C785.777 58.614 787.541 60.18 790.133 60.18C791.303 60.18 792.293 59.928 792.923 59.46V57.318C792.113 57.804 791.447 57.966 790.583 57.966C789.539 57.966 788.747 57.57 788.513 56.598ZM789.809 53.862C790.493 53.862 790.907 54.33 790.979 55.014H788.549C788.747 54.276 789.197 53.862 789.809 53.862Z" fill="white"/>
<path d="M221.123 39.948H218.225V44.142H213.959V39.948H211.061V51H213.959V46.626H218.225V51H221.123V39.948ZM230.49 51V42.9H227.664V47.814C227.52 48.372 227.034 48.714 226.512 48.714C225.792 48.714 225.468 48.228 225.468 47.544V42.9H222.66V48.21C222.66 50.01 223.722 51.18 225.504 51.18C226.422 51.18 227.232 50.802 227.664 50.298V51H230.49ZM234.821 51V50.352C235.199 50.784 235.991 51.18 236.819 51.18C239.159 51.18 240.437 49.29 240.437 46.95C240.437 44.61 239.159 42.72 236.819 42.72C235.991 42.72 235.199 43.116 234.821 43.548V39.3H231.995V51H234.821ZM234.821 48.012V45.87C235.037 45.438 235.523 45.114 236.063 45.114C237.035 45.114 237.611 45.906 237.611 46.95C237.611 47.994 237.035 48.768 236.063 48.768C235.505 48.768 235.037 48.462 234.821 48.012Z" fill="white"/>
<path d="M451.5 57.9841V58.0159C451.5 58.0053 451.5 57.9947 451.5 57.9841ZM452.793 59.5H454.207L458.717 64.0105L458.718 64.0107C458.913 64.2058 458.913 64.522 458.718 64.7174L458.717 64.7178C458.523 64.9127 458.205 64.9127 458.011 64.7178L458.011 64.7176L452.793 59.5ZM458.717 51.9895L454.207 56.5H452.793L458.011 51.2825L458.011 51.2822C458.205 51.0873 458.523 51.0873 458.717 51.2822L458.718 51.2826C458.913 51.478 458.913 51.7942 458.718 51.9893L458.717 51.9895ZM452.5 58.5V57.5H453.207L453.06 57.6464L452.707 58L453.06 58.3536L453.207 58.5H452.5ZM454.121 58L454.621 57.5H549.5V58.5H454.621L454.121 58Z" fill="#6633BC" stroke="#7630EA"/>
<path fill-rule="evenodd" clip-rule="evenodd" d="M570.414 57.4L574.107 53.7071L572.693 52.2929L567.293 57.6929L566.586 58.4L567.293 59.1071L572.693 64.5071L574.107 63.0929L570.414 59.4H580V57.4H570.414Z" fill="white"/>
<path d="M602.89 51.948H599.992V56.142H595.726V51.948H592.828V63H595.726V58.626H599.992V63H602.89V51.948ZM612.257 63V54.9H609.431V59.814C609.287 60.372 608.801 60.714 608.279 60.714C607.559 60.714 607.235 60.228 607.235 59.544V54.9H604.427V60.21C604.427 62.01 605.489 63.18 607.271 63.18C608.189 63.18 608.999 62.802 609.431 62.298V63H612.257ZM616.588 63V62.352C616.966 62.784 617.758 63.18 618.586 63.18C620.926 63.18 622.204 61.29 622.204 58.95C622.204 56.61 620.926 54.72 618.586 54.72C617.758 54.72 616.966 55.116 616.588 55.548V51.3H613.762V63H616.588ZM616.588 60.012V57.87C616.804 57.438 617.29 57.114 617.83 57.114C618.802 57.114 619.378 57.906 619.378 58.95C619.378 59.994 618.802 60.768 617.83 60.768C617.272 60.768 616.804 60.462 616.588 60.012ZM629.827 59.562H631.807C634.201 59.562 635.821 58.212 635.821 55.764C635.821 53.298 634.201 51.948 631.807 51.948H626.965V63H629.827V59.562ZM633.013 55.764C633.013 56.592 632.545 57.15 631.501 57.15H629.827V54.378H631.501C632.545 54.378 633.013 54.918 633.013 55.764ZM640.954 58.122V58.41C640.63 58.176 639.874 57.96 639.19 57.96C637.444 57.96 636.076 58.968 636.076 60.534C636.076 62.244 637.444 63.144 639.046 63.144C639.91 63.144 640.684 62.856 640.954 62.586V63H643.672V57.996C643.672 55.854 642.304 54.72 639.91 54.72C638.758 54.72 637.678 54.99 637.012 55.35V57.618C637.66 57.24 638.452 57.042 639.226 57.042C640.378 57.042 640.954 57.492 640.954 58.122ZM640.954 60.264V60.732C640.774 61.056 640.324 61.272 639.82 61.272C639.262 61.272 638.704 61.038 638.704 60.48C638.704 59.94 639.262 59.706 639.82 59.706C640.324 59.706 640.774 59.922 640.954 60.264ZM650.179 61.902V62.172C650.179 63.306 649.243 63.756 648.163 63.756C647.047 63.756 646.165 63.468 645.337 62.766V65.358C645.985 65.772 647.119 66.042 648.253 66.042C650.845 66.042 652.969 64.818 652.969 61.83V54.9H650.179V55.512C649.819 55.08 649.153 54.72 648.271 54.72C645.985 54.72 644.689 56.466 644.689 58.698C644.689 60.93 645.985 62.694 648.271 62.694C649.153 62.694 649.819 62.316 650.179 61.902ZM650.179 57.636V59.778C649.963 60.138 649.513 60.444 648.973 60.444C648.037 60.444 647.479 59.724 647.479 58.698C647.479 57.672 648.037 56.952 648.973 56.952C649.513 56.952 649.963 57.276 650.179 57.636ZM656.812 59.598H661.798V58.77C661.798 56.358 660.52 54.72 658 54.72C655.768 54.72 654.076 56.466 654.076 59.004C654.076 61.614 655.84 63.18 658.432 63.18C659.602 63.18 660.592 62.928 661.222 62.46V60.318C660.412 60.804 659.746 60.966 658.882 60.966C657.838 60.966 657.046 60.57 656.812 59.598ZM658.108 56.862C658.792 56.862 659.206 57.33 659.278 58.014H656.848C657.046 57.276 657.496 56.862 658.108 56.862Z" fill="white"/>
<defs>
<filter id="filter0_d_2_14" x="521" y="0" width="450" height="269" filterUnits="userSpaceOnUse" color-interpolation-filters="sRGB">
<feFlood flood-opacity="0" result="BackgroundImageFix"/>
<feColorMatrix in="SourceAlpha" type="matrix" values="0 0 0 0 0 0 0 0 0 0 0 0 0 0 0 0 0 0 127 0" result="hardAlpha"/>
<feOffset dy="6"/>
<feGaussianBlur stdDeviation="6"/>
<feColorMatrix type="matrix" values="0 0 0 0 0 0 0 0 0 0 0 0 0 0 0 0 0 0 0.12 0"/>
<feBlend mode="normal" in2="BackgroundImageFix" result="effect1_dropShadow_2_14"/>
<feBlend mode="normal" in="SourceGraphic" in2="effect1_dropShadow_2_14" result="shape"/>
</filter>
<filter id="filter1_d_2_14" x="0" y="0" width="450" height="269" filterUnits="userSpaceOnUse" color-interpolation-filters="sRGB">
<feFlood flood-opacity="0" result="BackgroundImageFix"/>
<feColorMatrix in="SourceAlpha" type="matrix" values="0 0 0 0 0 0 0 0 0 0 0 0 0 0 0 0 0 0 127 0" result="hardAlpha"/>
<feOffset dy="6"/>
<feGaussianBlur stdDeviation="6"/>
<feColorMatrix type="matrix" values="0 0 0 0 0 0 0 0 0 0 0 0 0 0 0 0 0 0 0.12 0"/>
<feBlend mode="normal" in2="BackgroundImageFix" result="effect1_dropShadow_2_14"/>
<feBlend mode="normal" in="SourceGraphic" in2="effect1_dropShadow_2_14" result="shape"/>
</filter>
</defs>
</svg>
