<svg width="288" height="212" viewBox="0 0 288 212" fill="none" xmlns="http://www.w3.org/2000/svg">
<path d="M0 7.99999C0 3.58172 3.58172 0 8 0H280C284.418 0 288 3.58172 288 8V204C288 208.418 284.418 212 280 212H8C3.58173 212 0 208.418 0 204V7.99999Z" fill="#EEEEEE"/>
<rect x="93" y="36" width="102" height="140" rx="4" fill="#DDDDDD"/>
<path d="M217 39C217 36.7909 218.791 35 221 35H288V175H221C218.791 175 217 173.209 217 171V39Z" fill="#DDDDDD"/>
<path d="M71 39C71 36.7909 69.2091 35 67 35H0V175H67C69.2091 175 71 173.209 71 171V39Z" fill="#DDDDDD"/>
</svg>
