<svg width="336" height="192" viewBox="0 0 336 192" fill="none" xmlns="http://www.w3.org/2000/svg">
<mask id="path-1-outside-1_1_6123" maskUnits="userSpaceOnUse" x="21.0561" y="11.4739" width="294" height="170" fill="black">
<rect fill="white" x="21.0561" y="11.4739" width="294" height="170"/>
<path d="M21.0561 11.4739H314.944V180.526H21.0561V11.4739Z"/>
</mask>
<path d="M314.944 180.526V179.943H21.0561V180.526V181.11H314.944V180.526Z" fill="white" fill-opacity="0.36" mask="url(#path-1-outside-1_1_6123)"/>
<mask id="path-3-inside-2_1_6123" fill="white">
<path d="M21.0561 11.4739H314.944V53.4896H21.0561V11.4739Z"/>
</mask>
<path d="M21.0561 11.4739V12.0574H314.944V11.4739V10.8903H21.0561V11.4739Z" fill="white" fill-opacity="0.36" mask="url(#path-3-inside-2_1_6123)"/>
<path d="M33.7798 36.9817V27.8025H36.7326C38.7867 27.8025 40.1219 28.714 40.1219 30.6397V30.691C40.1219 32.6296 38.7354 33.5026 36.7711 33.5026H35.4873V36.9817H33.7798ZM35.4873 32.2573H36.7326C37.8624 32.2573 38.4658 31.7053 38.4658 30.691V30.6397C38.4658 29.5485 37.811 29.1248 36.7326 29.1248H35.4873V32.2573ZM43.1081 37.1101C41.8757 37.1101 40.8615 36.5196 40.8615 35.1202C40.8615 33.5539 42.3764 32.9891 44.3021 32.9891H45.1366V32.6424C45.1366 31.7438 44.8284 31.2944 43.9169 31.2944C43.1081 31.2944 42.7102 31.6796 42.6331 32.3472H41.1311C41.2594 30.7809 42.5047 30.1262 44.0068 30.1262C45.5089 30.1262 46.69 30.7424 46.69 32.5783V36.9817H45.1622V36.1601C44.7257 36.7378 44.1352 37.1101 43.1081 37.1101ZM43.4804 35.9932C44.4305 35.9932 45.1366 35.4925 45.1366 34.6324V33.9648H44.3406C43.1595 33.9648 42.402 34.2344 42.402 35.056C42.402 35.6209 42.7102 35.9932 43.4804 35.9932ZM48.4705 36.9817V30.2674H50.0239V31.333C50.3448 30.6782 51.0894 30.1262 52.1935 30.1262C53.5415 30.1262 54.4915 30.9093 54.4915 32.7708V36.9817H52.9381V32.8992C52.9381 31.885 52.5273 31.4228 51.603 31.4228C50.7428 31.4228 50.0239 31.962 50.0239 33.0276V36.9817H48.4705ZM59.2339 37.1101C57.2568 37.1101 55.8318 35.8135 55.8318 33.6952V33.5925C55.8318 31.5127 57.2568 30.1262 59.1697 30.1262C60.8387 30.1262 62.3407 31.1147 62.3407 33.5154V33.9648H57.4237C57.4751 35.2357 58.117 35.9547 59.2724 35.9547C60.2096 35.9547 60.6975 35.5824 60.813 34.9276H62.3151C62.0968 36.3398 60.9542 37.1101 59.2339 37.1101ZM57.4494 32.9249H60.8002C60.7231 31.7695 60.1326 31.2559 59.1697 31.2559C58.2325 31.2559 57.6035 31.885 57.4494 32.9249ZM63.7668 36.9817V27.1606H65.3202V36.9817H63.7668ZM72.6734 35.7108L72.9815 33.5668H71.916L71.6079 35.7108H70.4653L70.7734 33.5668H69.7848V32.3087H70.966L71.1714 30.8965H70.1186V29.6768H71.3511L71.6207 27.8025H72.7633L72.4937 29.6768H73.5593L73.8417 27.8025H74.9843L74.7018 29.6768H75.7417V30.8965H74.5221L74.3167 32.3087H75.3951V33.5668H74.1241L73.816 35.7108H72.6734ZM72.314 30.8965L72.1085 32.3087H73.1741L73.3795 30.8965H72.314Z" fill="white"/>
<path d="M300.337 30.8593C300.508 30.6884 300.785 30.6884 300.956 30.8593C301.127 31.0302 301.127 31.3073 300.956 31.4782L298.33 34.1042C298.159 34.2751 297.882 34.2751 297.712 34.1042L295.086 31.4782C294.915 31.3073 294.915 31.0302 295.086 30.8593C295.256 30.6884 295.533 30.6884 295.704 30.8593L298.021 33.1759L300.337 30.8593Z" fill="#E6E8E9"/>
<path d="M30.2715 112.508V106.495H28.3295V105.832H33.0259V106.495H31.0838V112.508H30.2715ZM34.0767 112.508V105.29H34.8517V108.4C35.0758 107.942 35.6173 107.541 36.4203 107.541C37.4286 107.541 38.1382 108.092 38.1382 109.511V112.508H37.3633V109.455C37.3633 108.596 36.9992 108.213 36.2149 108.213C35.4959 108.213 34.8517 108.67 34.8517 109.548V112.508H34.0767ZM41.655 112.592C40.2732 112.592 39.2928 111.621 39.2928 110.118V110.043C39.2928 108.568 40.2358 107.541 41.5803 107.541C42.7101 107.541 43.7745 108.222 43.7745 109.968V110.22H40.0958C40.1331 111.331 40.6653 111.948 41.6644 111.948C42.4206 111.948 42.8595 111.668 42.9622 111.098H43.7371C43.5691 112.078 42.7568 112.592 41.655 112.592ZM40.1238 109.595H42.9808C42.9061 108.586 42.3833 108.185 41.5803 108.185C40.7867 108.185 40.2545 108.726 40.1238 109.595ZM47.4906 112.508V105.832H48.3029V108.857H51.8135V105.832H52.6258V112.508H51.8135V109.539H48.3029V112.508H47.4906ZM54.3108 112.508V105.832H56.2062C57.4854 105.832 58.5404 106.392 58.5404 107.783V107.821C58.5404 109.24 57.476 109.791 56.2062 109.791H55.1232V112.508H54.3108ZM55.1232 109.147H56.2622C57.2146 109.147 57.7281 108.68 57.7281 107.821V107.783C57.7281 106.84 57.1679 106.486 56.2622 106.486H55.1232V109.147ZM59.736 112.508V105.832H63.6295V106.495H60.5484V108.764H63.0319V109.427H60.5484V111.845H63.7976V112.508H59.736ZM67.4955 112.508V105.832H69.2601C71.557 105.832 72.64 107.251 72.64 109.109V109.193C72.64 111.042 71.5756 112.508 69.2414 112.508H67.4955ZM68.3078 111.845H69.2228C70.9407 111.845 71.7997 110.818 71.7997 109.184V109.109C71.7997 107.569 71.0528 106.486 69.2134 106.486H68.3078V111.845ZM75.9386 112.592C74.5568 112.592 73.5764 111.621 73.5764 110.118V110.043C73.5764 108.568 74.5194 107.541 75.8639 107.541C76.9937 107.541 78.0581 108.222 78.0581 109.968V110.22H74.3794C74.4167 111.331 74.9489 111.948 75.948 111.948C76.7043 111.948 77.1431 111.668 77.2458 111.098H78.0207C77.8527 112.078 77.0404 112.592 75.9386 112.592ZM74.4074 109.595H77.2645C77.1898 108.586 76.6669 108.185 75.8639 108.185C75.0703 108.185 74.5381 108.726 74.4074 109.595ZM80.8054 112.592C79.6383 112.592 78.938 112.004 78.8913 111.005H79.6476C79.7036 111.583 80.0117 111.948 80.796 111.948C81.5336 111.948 81.8604 111.696 81.8604 111.173C81.8604 110.659 81.4776 110.491 80.7213 110.351C79.4515 110.118 79.022 109.763 79.022 108.913C79.022 108.007 79.909 107.541 80.6747 107.541C81.5523 107.541 82.3086 107.895 82.4393 108.951H81.6924C81.5803 108.418 81.2816 108.185 80.6653 108.185C80.1051 108.185 79.741 108.465 79.741 108.885C79.741 109.324 79.9837 109.501 80.8801 109.66C81.8884 109.847 82.598 110.071 82.598 111.107C82.598 111.994 81.9912 112.592 80.8054 112.592ZM84.171 106.607C83.8909 106.607 83.6575 106.374 83.6575 106.093C83.6575 105.813 83.8909 105.58 84.171 105.58C84.4511 105.58 84.6845 105.813 84.6845 106.093C84.6845 106.374 84.4511 106.607 84.171 106.607ZM83.7975 112.508V107.625H84.5725V112.508H83.7975ZM88.11 114.291C86.6628 114.291 86.0279 113.61 85.8972 112.788H86.6909C86.8029 113.348 87.2697 113.638 88.1007 113.638C89.0624 113.638 89.6693 113.18 89.6693 112.134V111.425C89.3892 111.901 88.7263 112.349 88.0167 112.349C86.7375 112.349 85.7945 111.378 85.7945 110.034V109.968C85.7945 108.642 86.7282 107.541 88.0727 107.541C88.885 107.541 89.3892 107.933 89.6693 108.409V107.625H90.4443V112.181C90.4349 113.6 89.4732 114.291 88.11 114.291ZM88.1007 111.705C89.0064 111.705 89.6973 111.07 89.6973 109.978V109.912C89.6973 108.82 89.0997 108.185 88.1474 108.185C87.1764 108.185 86.5975 108.904 86.5975 109.931V110.006C86.5975 111.07 87.2791 111.705 88.1007 111.705ZM92.0124 112.508V107.625H92.7874V108.4C93.0114 107.942 93.553 107.541 94.3559 107.541C95.3643 107.541 96.0739 108.092 96.0739 109.511V112.508H95.299V109.455C95.299 108.596 94.9348 108.213 94.1505 108.213C93.4316 108.213 92.7874 108.67 92.7874 109.548V112.508H92.0124ZM102.276 112.592C100.493 112.592 99.8488 111.612 99.7274 110.472H100.512C100.614 111.266 100.932 111.938 102.276 111.938C103.135 111.938 103.798 111.434 103.798 110.678C103.798 109.922 103.453 109.604 102.183 109.399C100.783 109.184 99.9515 108.745 99.9515 107.559C99.9515 106.532 100.839 105.748 102.099 105.748C103.434 105.748 104.265 106.402 104.396 107.587H103.668C103.509 106.747 103.023 106.402 102.099 106.402C101.184 106.402 100.708 106.859 100.708 107.485C100.708 108.138 100.951 108.474 102.314 108.68C103.798 108.913 104.583 109.361 104.583 110.622C104.583 111.742 103.602 112.592 102.276 112.592ZM106.265 114.207L107.189 112.004L105.275 107.625H106.106L107.6 111.126L108.954 107.625H109.748L107.049 114.207H106.265ZM112.281 112.592C111.114 112.592 110.413 112.004 110.367 111.005H111.123C111.179 111.583 111.487 111.948 112.271 111.948C113.009 111.948 113.336 111.696 113.336 111.173C113.336 110.659 112.953 110.491 112.197 110.351C110.927 110.118 110.497 109.763 110.497 108.913C110.497 108.007 111.384 107.541 112.15 107.541C113.028 107.541 113.784 107.895 113.915 108.951H113.168C113.056 108.418 112.757 108.185 112.141 108.185C111.58 108.185 111.216 108.465 111.216 108.885C111.216 109.324 111.459 109.501 112.355 109.66C113.364 109.847 114.073 110.071 114.073 111.107C114.073 111.994 113.466 112.592 112.281 112.592ZM116.739 112.573C115.852 112.573 115.422 112.05 115.422 111.285V108.278H114.722V107.625H115.422V106.514H116.197V107.625H117.336V108.278H116.197V111.21C116.197 111.686 116.412 111.92 116.804 111.92C117.047 111.92 117.234 111.882 117.402 111.817V112.47C117.243 112.527 117.056 112.573 116.739 112.573ZM120.571 112.592C119.189 112.592 118.209 111.621 118.209 110.118V110.043C118.209 108.568 119.152 107.541 120.496 107.541C121.626 107.541 122.691 108.222 122.691 109.968V110.22H119.012C119.049 111.331 119.581 111.948 120.58 111.948C121.337 111.948 121.776 111.668 121.878 111.098H122.653C122.485 112.078 121.673 112.592 120.571 112.592ZM119.04 109.595H121.897C121.822 108.586 121.299 108.185 120.496 108.185C119.703 108.185 119.171 108.726 119.04 109.595ZM123.88 112.508V107.625H124.655V108.372C124.879 107.914 125.411 107.541 126.111 107.541C126.737 107.541 127.288 107.802 127.54 108.456C127.876 107.821 128.604 107.541 129.211 107.541C130.089 107.541 130.854 108.064 130.854 109.483V112.508H130.079V109.427C130.079 108.568 129.715 108.213 129.043 108.213C128.408 108.213 127.755 108.642 127.755 109.52V112.508H126.98V109.427C126.98 108.568 126.615 108.213 125.943 108.213C125.308 108.213 124.655 108.642 124.655 109.52V112.508H123.88ZM135.829 112.508L134.326 107.625H135.166L136.305 111.555L137.491 107.625H138.163L139.274 111.555L140.423 107.625H141.216L139.694 112.508H138.836L137.818 108.848L136.679 112.508H135.829ZM143.394 112.592C142.488 112.592 141.769 112.153 141.769 111.154C141.769 110.024 142.964 109.641 144.215 109.641H144.915V109.287C144.915 108.512 144.617 108.185 143.87 108.185C143.197 108.185 142.824 108.465 142.749 109.063H141.974C142.077 107.951 142.964 107.541 143.907 107.541C144.841 107.541 145.69 107.923 145.69 109.287V112.508H144.915V111.892C144.551 112.349 144.112 112.592 143.394 112.592ZM143.468 111.976C144.29 111.976 144.915 111.555 144.915 110.799V110.192H144.243C143.263 110.192 142.544 110.435 142.544 111.154C142.544 111.658 142.787 111.976 143.468 111.976ZM148.725 112.592C147.558 112.592 146.858 112.004 146.811 111.005H147.567C147.623 111.583 147.932 111.948 148.716 111.948C149.454 111.948 149.78 111.696 149.78 111.173C149.78 110.659 149.397 110.491 148.641 110.351C147.371 110.118 146.942 109.763 146.942 108.913C146.942 108.007 147.829 107.541 148.595 107.541C149.472 107.541 150.228 107.895 150.359 108.951H149.612C149.5 108.418 149.201 108.185 148.585 108.185C148.025 108.185 147.661 108.465 147.661 108.885C147.661 109.324 147.904 109.501 148.8 109.66C149.808 109.847 150.518 110.071 150.518 111.107C150.518 111.994 149.911 112.592 148.725 112.592ZM156.196 112.592C154.833 112.592 153.806 111.63 153.806 110.118V110.043C153.806 108.549 154.87 107.541 156.177 107.541C157.195 107.541 158.147 108.007 158.297 109.249H157.531C157.41 108.474 156.849 108.185 156.177 108.185C155.29 108.185 154.609 108.894 154.609 110.043V110.118C154.609 111.313 155.262 111.948 156.205 111.948C156.896 111.948 157.522 111.546 157.606 110.753H158.325C158.222 111.808 157.372 112.592 156.196 112.592ZM159.495 112.508V107.625H160.27V108.502C160.578 107.951 160.998 107.569 161.875 107.541V108.269C160.895 108.316 160.27 108.624 160.27 109.828V112.508H159.495ZM164.866 112.592C163.484 112.592 162.504 111.621 162.504 110.118V110.043C162.504 108.568 163.447 107.541 164.792 107.541C165.921 107.541 166.986 108.222 166.986 109.968V110.22H163.307C163.344 111.331 163.877 111.948 164.876 111.948C165.632 111.948 166.071 111.668 166.173 111.098H166.948C166.78 112.078 165.968 112.592 164.866 112.592ZM163.335 109.595H166.192C166.117 108.586 165.595 108.185 164.792 108.185C163.998 108.185 163.466 108.726 163.335 109.595ZM169.444 112.592C168.538 112.592 167.819 112.153 167.819 111.154C167.819 110.024 169.014 109.641 170.265 109.641H170.966V109.287C170.966 108.512 170.667 108.185 169.92 108.185C169.248 108.185 168.874 108.465 168.799 109.063H168.024C168.127 107.951 169.014 107.541 169.957 107.541C170.891 107.541 171.74 107.923 171.74 109.287V112.508H170.966V111.892C170.601 112.349 170.163 112.592 169.444 112.592ZM169.518 111.976C170.34 111.976 170.966 111.555 170.966 110.799V110.192H170.293C169.313 110.192 168.594 110.435 168.594 111.154C168.594 111.658 168.837 111.976 169.518 111.976ZM174.747 112.573C173.86 112.573 173.431 112.05 173.431 111.285V108.278H172.731V107.625H173.431V106.514H174.206V107.625H175.345V108.278H174.206V111.21C174.206 111.686 174.421 111.92 174.813 111.92C175.055 111.92 175.242 111.882 175.41 111.817V112.47C175.251 112.527 175.065 112.573 174.747 112.573ZM178.58 112.592C177.198 112.592 176.218 111.621 176.218 110.118V110.043C176.218 108.568 177.161 107.541 178.505 107.541C179.635 107.541 180.699 108.222 180.699 109.968V110.22H177.021C177.058 111.331 177.59 111.948 178.589 111.948C179.345 111.948 179.784 111.668 179.887 111.098H180.662C180.494 112.078 179.682 112.592 178.58 112.592ZM177.049 109.595H179.906C179.831 108.586 179.308 108.185 178.505 108.185C177.711 108.185 177.179 108.726 177.049 109.595ZM183.728 112.592C182.449 112.592 181.524 111.686 181.524 110.164V110.09C181.524 108.596 182.458 107.541 183.802 107.541C184.615 107.541 185.119 107.933 185.399 108.409V105.29H186.174V112.508H185.399V111.668C185.119 112.144 184.437 112.592 183.728 112.592ZM183.812 111.948C184.717 111.948 185.427 111.35 185.427 110.099V110.024C185.427 108.773 184.829 108.185 183.877 108.185C182.906 108.185 182.327 108.866 182.327 110.052V110.127C182.327 111.359 182.99 111.948 183.812 111.948ZM191.698 112.573C190.811 112.573 190.381 112.05 190.381 111.285V108.278H189.681V107.625H190.381V106.514H191.156V107.625H192.295V108.278H191.156V111.21C191.156 111.686 191.371 111.92 191.763 111.92C192.006 111.92 192.192 111.882 192.361 111.817V112.47C192.202 112.527 192.015 112.573 191.698 112.573ZM195.558 112.592C194.167 112.592 193.168 111.537 193.168 110.108V110.034C193.168 108.568 194.186 107.541 195.567 107.541C196.949 107.541 197.967 108.558 197.967 110.024V110.099C197.967 111.574 196.949 112.592 195.558 112.592ZM195.567 111.948C196.548 111.948 197.164 111.21 197.164 110.108V110.043C197.164 108.913 196.538 108.185 195.567 108.185C194.587 108.185 193.971 108.913 193.971 110.034V110.108C193.971 111.219 194.578 111.948 195.567 111.948ZM203.636 112.592C202.254 112.592 201.274 111.621 201.274 110.118V110.043C201.274 108.568 202.217 107.541 203.561 107.541C204.691 107.541 205.755 108.222 205.755 109.968V110.22H202.077C202.114 111.331 202.646 111.948 203.645 111.948C204.402 111.948 204.84 111.668 204.943 111.098H205.718C205.55 112.078 204.738 112.592 203.636 112.592ZM202.105 109.595H204.962C204.887 108.586 204.364 108.185 203.561 108.185C202.768 108.185 202.235 108.726 202.105 109.595ZM206.945 112.508V107.625H207.72V108.372C207.944 107.914 208.476 107.541 209.176 107.541C209.802 107.541 210.353 107.802 210.605 108.456C210.941 107.821 211.669 107.541 212.276 107.541C213.154 107.541 213.919 108.064 213.919 109.483V112.508H213.144V109.427C213.144 108.568 212.78 108.213 212.108 108.213C211.473 108.213 210.819 108.642 210.819 109.52V112.508H210.044V109.427C210.044 108.568 209.68 108.213 209.008 108.213C208.373 108.213 207.72 108.642 207.72 109.52V112.508H206.945ZM215.443 114.207V107.625H216.217V108.446C216.498 107.97 217.161 107.541 217.87 107.541C219.149 107.541 220.092 108.474 220.092 109.996V110.071C220.092 111.565 219.215 112.592 217.87 112.592C217.067 112.592 216.498 112.19 216.217 111.705V114.207H215.443ZM217.795 111.948C218.766 111.948 219.289 111.294 219.289 110.108V110.034C219.289 108.801 218.608 108.185 217.786 108.185C216.88 108.185 216.189 108.782 216.189 110.034V110.108C216.189 111.359 216.843 111.948 217.795 111.948ZM223.322 112.592C221.931 112.592 220.932 111.537 220.932 110.108V110.034C220.932 108.568 221.95 107.541 223.332 107.541C224.714 107.541 225.731 108.558 225.731 110.024V110.099C225.731 111.574 224.714 112.592 223.322 112.592ZM223.332 111.948C224.312 111.948 224.928 111.21 224.928 110.108V110.043C224.928 108.913 224.303 108.185 223.332 108.185C222.351 108.185 221.735 108.913 221.735 110.034V110.108C221.735 111.219 222.342 111.948 223.332 111.948ZM227.82 112.508L226.317 107.625H227.157L228.297 111.555L229.482 107.625H230.155L231.266 111.555L232.414 107.625H233.208L231.686 112.508H230.827L229.809 108.848L228.67 112.508H227.82ZM236.16 112.592C234.778 112.592 233.798 111.621 233.798 110.118V110.043C233.798 108.568 234.741 107.541 236.085 107.541C237.215 107.541 238.279 108.222 238.279 109.968V110.22H234.601C234.638 111.331 235.17 111.948 236.169 111.948C236.925 111.948 237.364 111.668 237.467 111.098H238.242C238.074 112.078 237.262 112.592 236.16 112.592ZM234.629 109.595H237.486C237.411 108.586 236.888 108.185 236.085 108.185C235.292 108.185 234.759 108.726 234.629 109.595ZM239.468 112.508V107.625H240.243V108.502C240.551 107.951 240.972 107.569 241.849 107.541V108.269C240.869 108.316 240.243 108.624 240.243 109.828V112.508H239.468ZM247.289 112.592C246.01 112.592 245.086 111.686 245.086 110.164V110.09C245.086 108.596 246.019 107.541 247.364 107.541C248.176 107.541 248.68 107.933 248.96 108.409V105.29H249.735V112.508H248.96V111.668C248.68 112.144 247.999 112.592 247.289 112.592ZM247.373 111.948C248.279 111.948 248.988 111.35 248.988 110.099V110.024C248.988 108.773 248.391 108.185 247.439 108.185C246.468 108.185 245.889 108.866 245.889 110.052V110.127C245.889 111.359 246.552 111.948 247.373 111.948ZM253.302 112.592C251.92 112.592 250.939 111.621 250.939 110.118V110.043C250.939 108.568 251.882 107.541 253.227 107.541C254.357 107.541 255.421 108.222 255.421 109.968V110.22H251.742C251.78 111.331 252.312 111.948 253.311 111.948C254.067 111.948 254.506 111.668 254.609 111.098H255.384C255.216 112.078 254.403 112.592 253.302 112.592ZM251.77 109.595H254.627C254.553 108.586 254.03 108.185 253.227 108.185C252.433 108.185 251.901 108.726 251.77 109.595ZM258.168 112.592C257.001 112.592 256.301 112.004 256.254 111.005H257.011C257.067 111.583 257.375 111.948 258.159 111.948C258.897 111.948 259.223 111.696 259.223 111.173C259.223 110.659 258.841 110.491 258.084 110.351C256.815 110.118 256.385 109.763 256.385 108.913C256.385 108.007 257.272 107.541 258.038 107.541C258.915 107.541 259.672 107.895 259.802 108.951H259.055C258.943 108.418 258.645 108.185 258.028 108.185C257.468 108.185 257.104 108.465 257.104 108.885C257.104 109.324 257.347 109.501 258.243 109.66C259.251 109.847 259.961 110.071 259.961 111.107C259.961 111.994 259.354 112.592 258.168 112.592ZM261.534 106.607C261.254 106.607 261.02 106.374 261.02 106.093C261.02 105.813 261.254 105.58 261.534 105.58C261.814 105.58 262.048 105.813 262.048 106.093C262.048 106.374 261.814 106.607 261.534 106.607ZM261.161 112.508V107.625H261.935V112.508H261.161ZM265.473 114.291C264.026 114.291 263.391 113.61 263.26 112.788H264.054C264.166 113.348 264.633 113.638 265.464 113.638C266.425 113.638 267.032 113.18 267.032 112.134V111.425C266.752 111.901 266.089 112.349 265.38 112.349C264.101 112.349 263.158 111.378 263.158 110.034V109.968C263.158 108.642 264.091 107.541 265.436 107.541C266.248 107.541 266.752 107.933 267.032 108.409V107.625H267.807V112.181C267.798 113.6 266.836 114.291 265.473 114.291ZM265.464 111.705C266.369 111.705 267.06 111.07 267.06 109.978V109.912C267.06 108.82 266.463 108.185 265.51 108.185C264.539 108.185 263.96 108.904 263.96 109.931V110.006C263.96 111.07 264.642 111.705 265.464 111.705ZM269.375 112.508V107.625H270.15V108.4C270.374 107.942 270.916 107.541 271.719 107.541C272.727 107.541 273.437 108.092 273.437 109.511V112.508H272.662V109.455C272.662 108.596 272.298 108.213 271.514 108.213C270.795 108.213 270.15 108.67 270.15 109.548V112.508H269.375ZM276.954 112.592C275.572 112.592 274.591 111.621 274.591 110.118V110.043C274.591 108.568 275.535 107.541 276.879 107.541C278.009 107.541 279.073 108.222 279.073 109.968V110.22H275.394C275.432 111.331 275.964 111.948 276.963 111.948C277.719 111.948 278.158 111.668 278.261 111.098H279.036C278.868 112.078 278.055 112.592 276.954 112.592ZM275.422 109.595H278.28C278.205 108.586 277.682 108.185 276.879 108.185C276.085 108.185 275.553 108.726 275.422 109.595ZM280.262 112.508V107.625H281.037V108.502C281.345 107.951 281.766 107.569 282.643 107.541V108.269C281.663 108.316 281.037 108.624 281.037 109.828V112.508H280.262ZM285.24 112.592C284.073 112.592 283.372 112.004 283.326 111.005H284.082C284.138 111.583 284.446 111.948 285.23 111.948C285.968 111.948 286.295 111.696 286.295 111.173C286.295 110.659 285.912 110.491 285.156 110.351C283.886 110.118 283.456 109.763 283.456 108.913C283.456 108.007 284.343 107.541 285.109 107.541C285.987 107.541 286.743 107.895 286.874 108.951H286.127C286.015 108.418 285.716 108.185 285.1 108.185C284.539 108.185 284.175 108.465 284.175 108.885C284.175 109.324 284.418 109.501 285.314 109.66C286.323 109.847 287.032 110.071 287.032 111.107C287.032 111.994 286.425 112.592 285.24 112.592ZM291.907 112.592C291.002 112.592 290.283 112.153 290.283 111.154C290.283 110.024 291.478 109.641 292.729 109.641H293.429V109.287C293.429 108.512 293.13 108.185 292.383 108.185C291.711 108.185 291.338 108.465 291.263 109.063H290.488C290.591 107.951 291.478 107.541 292.421 107.541C293.354 107.541 294.204 107.923 294.204 109.287V112.508H293.429V111.892C293.065 112.349 292.626 112.592 291.907 112.592ZM291.982 111.976C292.804 111.976 293.429 111.555 293.429 110.799V110.192H292.757C291.777 110.192 291.058 110.435 291.058 111.154C291.058 111.658 291.3 111.976 291.982 111.976ZM295.726 112.508V107.625H296.501V108.4C296.725 107.942 297.267 107.541 298.07 107.541C299.078 107.541 299.788 108.092 299.788 109.511V112.508H299.013V109.455C299.013 108.596 298.649 108.213 297.865 108.213C297.146 108.213 296.501 108.67 296.501 109.548V112.508H295.726ZM303.146 112.592C301.867 112.592 300.942 111.686 300.942 110.164V110.09C300.942 108.596 301.876 107.541 303.221 107.541C304.033 107.541 304.537 107.933 304.817 108.409V105.29H305.592V112.508H304.817V111.668C304.537 112.144 303.856 112.592 303.146 112.592ZM303.23 111.948C304.136 111.948 304.845 111.35 304.845 110.099V110.024C304.845 108.773 304.248 108.185 303.295 108.185C302.324 108.185 301.745 108.866 301.745 110.052V110.127C301.745 111.359 302.408 111.948 303.23 111.948ZM30.6824 126.592C29.4032 126.592 28.4789 125.686 28.4789 124.164V124.09C28.4789 122.596 29.4126 121.541 30.7571 121.541C31.5694 121.541 32.0735 121.933 32.3537 122.409V119.29H33.1286V126.508H32.3537V125.668C32.0735 126.144 31.392 126.592 30.6824 126.592ZM30.7664 125.948C31.6721 125.948 32.3817 125.35 32.3817 124.099V124.024C32.3817 122.773 31.7841 122.185 30.8318 122.185C29.8607 122.185 29.2818 122.866 29.2818 124.052V124.127C29.2818 125.359 29.9448 125.948 30.7664 125.948ZM36.6948 126.592C35.313 126.592 34.3326 125.621 34.3326 124.118V124.043C34.3326 122.568 35.2756 121.541 36.6201 121.541C37.7499 121.541 38.8143 122.222 38.8143 123.968V124.22H35.1356C35.1729 125.331 35.7051 125.948 36.7042 125.948C37.4605 125.948 37.8993 125.668 38.002 125.098H38.7769C38.6089 126.078 37.7966 126.592 36.6948 126.592ZM35.1636 123.595H38.0207C37.946 122.586 37.4231 122.185 36.6201 122.185C35.8265 122.185 35.2943 122.726 35.1636 123.595ZM41.181 126.508L39.407 121.625H40.2473L41.6945 125.724L43.123 121.625H43.926L42.1707 126.508H41.181ZM46.8067 126.592C45.4248 126.592 44.4445 125.621 44.4445 124.118V124.043C44.4445 122.568 45.3875 121.541 46.732 121.541C47.8617 121.541 48.9261 122.222 48.9261 123.968V124.22H45.2474C45.2848 125.331 45.817 125.948 46.816 125.948C47.5723 125.948 48.0111 125.668 48.1138 125.098H48.8888C48.7207 126.078 47.9084 126.592 46.8067 126.592ZM45.2754 123.595H48.1325C48.0578 122.586 47.5349 122.185 46.732 122.185C45.9384 122.185 45.4062 122.726 45.2754 123.595ZM50.1339 126.508V119.29H50.9182V126.508H50.1339ZM54.5303 126.592C53.1391 126.592 52.14 125.537 52.14 124.108V124.034C52.14 122.568 53.1578 121.541 54.5396 121.541C55.9214 121.541 56.9392 122.558 56.9392 124.024V124.099C56.9392 125.574 55.9214 126.592 54.5303 126.592ZM54.5396 125.948C55.52 125.948 56.1362 125.21 56.1362 124.108V124.043C56.1362 122.913 55.5106 122.185 54.5396 122.185C53.5592 122.185 52.943 122.913 52.943 124.034V124.108C52.943 125.219 53.5499 125.948 54.5396 125.948ZM58.1391 128.207V121.625H58.914V122.446C59.1942 121.97 59.8571 121.541 60.5667 121.541C61.8458 121.541 62.7888 122.474 62.7888 123.996V124.071C62.7888 125.565 61.9112 126.592 60.5667 126.592C59.7637 126.592 59.1942 126.19 58.914 125.705V128.207H58.1391ZM60.492 125.948C61.463 125.948 61.9859 125.294 61.9859 124.108V124.034C61.9859 122.801 61.3043 122.185 60.4826 122.185C59.577 122.185 58.886 122.782 58.886 124.034V124.108C58.886 125.359 59.5396 125.948 60.492 125.948ZM65.9909 126.592C64.6091 126.592 63.6287 125.621 63.6287 124.118V124.043C63.6287 122.568 64.5717 121.541 65.9162 121.541C67.046 121.541 68.1104 122.222 68.1104 123.968V124.22H64.4317C64.469 125.331 65.0012 125.948 66.0002 125.948C66.7565 125.948 67.1954 125.668 67.2981 125.098H68.073C67.905 126.078 67.0927 126.592 65.9909 126.592ZM64.4597 123.595H67.3167C67.242 122.586 66.7192 122.185 65.9162 122.185C65.1226 122.185 64.5904 122.726 64.4597 123.595ZM69.2995 126.508V121.625H70.0745V122.502C70.3826 121.951 70.8027 121.569 71.6804 121.541V122.269C70.7 122.316 70.0745 122.624 70.0745 123.828V126.508H69.2995ZM74.2769 126.592C73.1098 126.592 72.4095 126.004 72.3629 125.005H73.1191C73.1752 125.583 73.4833 125.948 74.2676 125.948C75.0052 125.948 75.332 125.696 75.332 125.173C75.332 124.659 74.9491 124.491 74.1929 124.351C72.9231 124.118 72.4936 123.763 72.4936 122.913C72.4936 122.007 73.3806 121.541 74.1462 121.541C75.0238 121.541 75.7801 121.895 75.9108 122.951H75.1639C75.0519 122.418 74.7531 122.185 74.1368 122.185C73.5766 122.185 73.2125 122.465 73.2125 122.885C73.2125 123.324 73.4553 123.501 74.3516 123.66C75.36 123.847 76.0696 124.071 76.0696 125.107C76.0696 125.994 75.4627 126.592 74.2769 126.592ZM77.7826 126.555C77.4558 126.555 77.185 126.293 77.185 125.957C77.185 125.621 77.4558 125.359 77.7826 125.359C78.1094 125.359 78.3801 125.621 78.3801 125.957C78.3801 126.293 78.1094 126.555 77.7826 126.555Z" fill="#E6E8E9"/>
<mask id="path-8-inside-3_1_6123" fill="white">
<path d="M21.0561 53.4896H314.944V95.5052H21.0561V53.4896Z"/>
</mask>
<path d="M21.0561 53.4896V54.0731H314.944V53.4896V52.906H21.0561V53.4896Z" fill="white" fill-opacity="0.36" mask="url(#path-8-inside-3_1_6123)"/>
<path d="M33.7798 78.9974V69.8181H36.7326C38.7867 69.8181 40.1219 70.7296 40.1219 72.6554V72.7067C40.1219 74.6453 38.7354 75.5183 36.7711 75.5183H35.4873V78.9974H33.7798ZM35.4873 74.273H36.7326C37.8624 74.273 38.4658 73.7209 38.4658 72.7067V72.6554C38.4658 71.5641 37.811 71.1405 36.7326 71.1405H35.4873V74.273ZM43.1081 79.1258C41.8757 79.1258 40.8615 78.5352 40.8615 77.1359C40.8615 75.5696 42.3764 75.0047 44.3021 75.0047H45.1366V74.6581C45.1366 73.7594 44.8284 73.3101 43.9169 73.3101C43.1081 73.3101 42.7102 73.6952 42.6331 74.3628H41.1311C41.2594 72.7966 42.5047 72.1418 44.0068 72.1418C45.5089 72.1418 46.69 72.7581 46.69 74.5939V78.9974H45.1622V78.1758C44.7257 78.7535 44.1352 79.1258 43.1081 79.1258ZM43.4804 78.0089C44.4305 78.0089 45.1366 77.5082 45.1366 76.648V75.9804H44.3406C43.1595 75.9804 42.402 76.25 42.402 77.0717C42.402 77.6366 42.7102 78.0089 43.4804 78.0089ZM48.4705 78.9974V72.2831H50.0239V73.3486C50.3448 72.6939 51.0894 72.1418 52.1935 72.1418C53.5415 72.1418 54.4915 72.925 54.4915 74.7865V78.9974H52.9381V74.9149C52.9381 73.9007 52.5273 73.4385 51.603 73.4385C50.7428 73.4385 50.0239 73.9777 50.0239 75.0433V78.9974H48.4705ZM59.2339 79.1258C57.2568 79.1258 55.8318 77.8291 55.8318 75.7108V75.6081C55.8318 73.5284 57.2568 72.1418 59.1697 72.1418C60.8387 72.1418 62.3407 73.1304 62.3407 75.5311V75.9804H57.4237C57.4751 77.2514 58.117 77.9703 59.2724 77.9703C60.2096 77.9703 60.6975 77.598 60.813 76.9433H62.3151C62.0968 78.3555 60.9542 79.1258 59.2339 79.1258ZM57.4494 74.9405H60.8002C60.7231 73.7851 60.1326 73.2716 59.1697 73.2716C58.2325 73.2716 57.6035 73.9007 57.4494 74.9405ZM63.7668 78.9974V69.1762H65.3202V78.9974H63.7668ZM72.6734 77.7264L72.9815 75.5825H71.916L71.6079 77.7264H70.4653L70.7734 75.5825H69.7848V74.3243H70.966L71.1714 72.9121H70.1186V71.6925H71.3511L71.6207 69.8181H72.7633L72.4937 71.6925H73.5593L73.8417 69.8181H74.9843L74.7018 71.6925H75.7417V72.9121H74.5221L74.3167 74.3243H75.3951V75.5825H74.1241L73.816 77.7264H72.6734ZM72.314 72.9121L72.1085 74.3243H73.1741L73.3795 72.9121H72.314Z" fill="white"/>
<path d="M296.545 75.9396C296.393 76.0915 296.147 76.0915 295.995 75.9396C295.843 75.7877 295.843 75.5414 295.995 75.3895L298.329 73.0553C298.481 72.9033 298.728 72.9033 298.88 73.0553L301.214 75.3895C301.366 75.5414 301.366 75.7877 301.214 75.9396C301.062 76.0915 300.816 76.0915 300.664 75.9396L298.604 73.8804L296.545 75.9396Z" fill="#E6E8E9"/>
<mask id="path-12-inside-4_1_6123" fill="white">
<path d="M21.0561 138.51H314.944V180.526H21.0561V138.51Z"/>
</mask>
<path d="M21.0561 138.51V139.094H314.944V138.51V137.927H21.0561V138.51Z" fill="white" fill-opacity="0.36" mask="url(#path-12-inside-4_1_6123)"/>
<path d="M33.7798 164.018V154.839H36.7326C38.7867 154.839 40.1219 155.751 40.1219 157.676V157.728C40.1219 159.666 38.7354 160.539 36.7711 160.539H35.4873V164.018H33.7798ZM35.4873 159.294H36.7326C37.8624 159.294 38.4658 158.742 38.4658 157.728V157.676C38.4658 156.585 37.811 156.161 36.7326 156.161H35.4873V159.294ZM43.1081 164.147C41.8757 164.147 40.8615 163.556 40.8615 162.157C40.8615 160.591 42.3764 160.026 44.3021 160.026H45.1366V159.679C45.1366 158.78 44.8284 158.331 43.9169 158.331C43.1081 158.331 42.7102 158.716 42.6331 159.384H41.1311C41.2594 157.817 42.5047 157.163 44.0068 157.163C45.5089 157.163 46.69 157.779 46.69 159.615V164.018H45.1622V163.197C44.7257 163.774 44.1352 164.147 43.1081 164.147ZM43.4804 163.03C44.4305 163.03 45.1366 162.529 45.1366 161.669V161.001H44.3406C43.1595 161.001 42.402 161.271 42.402 162.093C42.402 162.657 42.7102 163.03 43.4804 163.03ZM48.4705 164.018V157.304H50.0239V158.37C50.3448 157.715 51.0894 157.163 52.1935 157.163C53.5415 157.163 54.4915 157.946 54.4915 159.807V164.018H52.9381V159.936C52.9381 158.922 52.5273 158.459 51.603 158.459C50.7428 158.459 50.0239 158.999 50.0239 160.064V164.018H48.4705ZM59.2339 164.147C57.2568 164.147 55.8318 162.85 55.8318 160.732V160.629C55.8318 158.549 57.2568 157.163 59.1697 157.163C60.8387 157.163 62.3407 158.151 62.3407 160.552V161.001H57.4237C57.4751 162.272 58.117 162.991 59.2724 162.991C60.2096 162.991 60.6975 162.619 60.813 161.964H62.3151C62.0968 163.376 60.9542 164.147 59.2339 164.147ZM57.4494 159.961H60.8002C60.7231 158.806 60.1326 158.292 59.1697 158.292C58.2325 158.292 57.6035 158.922 57.4494 159.961ZM63.7668 164.018V154.197H65.3202V164.018H63.7668ZM72.6734 162.747L72.9815 160.603H71.916L71.6079 162.747H70.4653L70.7734 160.603H69.7848V159.345H70.966L71.1714 157.933H70.1186V156.713H71.3511L71.6207 154.839H72.7633L72.4937 156.713H73.5593L73.8417 154.839H74.9843L74.7018 156.713H75.7417V157.933H74.5221L74.3167 159.345H75.3951V160.603H74.1241L73.816 162.747H72.6734ZM72.314 157.933L72.1085 159.345H73.1741L73.3795 157.933H72.314Z" fill="white"/>
<path d="M300.337 157.896C300.508 157.725 300.785 157.725 300.956 157.896C301.127 158.067 301.127 158.344 300.956 158.515L298.33 161.141C298.159 161.312 297.882 161.312 297.712 161.141L295.086 158.515C294.915 158.344 294.915 158.067 295.086 157.896C295.256 157.725 295.533 157.725 295.704 157.896L298.021 160.212L300.337 157.896Z" fill="#E6E8E9"/>
</svg>
