<svg width="336" height="192" viewBox="0 0 336 192" fill="none" xmlns="http://www.w3.org/2000/svg">
<path d="M85 79.5H125V76.5H85V79.5ZM127.5 82V110H130.5V82H127.5ZM125 112.5H85V115.5H125V112.5ZM82.5 110V82H79.5V110H82.5ZM85 112.5C83.6193 112.5 82.5 111.381 82.5 110H79.5C79.5 113.038 81.9624 115.5 85 115.5V112.5ZM127.5 110C127.5 111.381 126.381 112.5 125 112.5V115.5C128.038 115.5 130.5 113.038 130.5 110H127.5ZM125 79.5C126.381 79.5 127.5 80.6193 127.5 82H130.5C130.5 78.9624 128.038 76.5 125 76.5V79.5ZM85 76.5C81.9624 76.5 79.5 78.9624 79.5 82H82.5C82.5 80.6193 83.6193 79.5 85 79.5V76.5Z" fill="#008567"/>
<g filter="url(#filter0_d)">
<rect x="135" y="85" width="121" height="22" rx="4" fill="#263040"/>
<path d="M147.48 91.176V92.296H150.904V101H152.168V92.296H155.592V91.176H147.48ZM157.15 90.6V101H158.35V96.184C158.606 95.416 159.326 94.856 160.158 94.856C161.23 94.856 161.726 95.544 161.726 96.536V101H162.942V96.344C162.942 94.792 162.062 93.752 160.446 93.752C159.534 93.752 158.766 94.232 158.35 94.792V90.6H157.15ZM166.354 91.752C166.354 91.32 166.002 90.984 165.57 90.984C165.154 90.984 164.802 91.32 164.802 91.752C164.802 92.168 165.154 92.52 165.57 92.52C166.002 92.52 166.354 92.168 166.354 91.752ZM166.178 101V93.896H164.978V101H166.178ZM167.906 99.16V100.44C168.434 100.856 169.314 101.144 170.242 101.144C171.73 101.144 172.898 100.392 172.898 99.08C172.898 98.072 172.306 97.448 171.234 97.08L170.146 96.712C169.474 96.472 169.09 96.28 169.09 95.704C169.09 95.096 169.698 94.776 170.434 94.776C171.298 94.776 171.954 95.128 172.546 95.624V94.376C171.97 93.976 171.234 93.752 170.434 93.752C169.026 93.752 167.922 94.504 167.922 95.752C167.922 96.904 168.642 97.416 169.714 97.768L170.69 98.104C171.314 98.312 171.714 98.6 171.714 99.128C171.714 99.832 171.026 100.12 170.242 100.12C169.378 100.12 168.562 99.768 167.906 99.16ZM179.511 91.752C179.511 91.32 179.159 90.984 178.727 90.984C178.311 90.984 177.959 91.32 177.959 91.752C177.959 92.168 178.311 92.52 178.727 92.52C179.159 92.52 179.511 92.168 179.511 91.752ZM179.335 101V93.896H178.135V101H179.335ZM181.062 99.16V100.44C181.59 100.856 182.47 101.144 183.398 101.144C184.886 101.144 186.054 100.392 186.054 99.08C186.054 98.072 185.462 97.448 184.39 97.08L183.302 96.712C182.63 96.472 182.246 96.28 182.246 95.704C182.246 95.096 182.854 94.776 183.59 94.776C184.454 94.776 185.11 95.128 185.702 95.624V94.376C185.126 93.976 184.39 93.752 183.59 93.752C182.182 93.752 181.078 94.504 181.078 95.752C181.078 96.904 181.798 97.416 182.87 97.768L183.846 98.104C184.47 98.312 184.87 98.6 184.87 99.128C184.87 99.832 184.182 100.12 183.398 100.12C182.534 100.12 181.718 99.768 181.062 99.16ZM195.243 96.28V97.208C194.939 96.936 194.203 96.632 193.467 96.632C191.947 96.632 190.763 97.528 190.763 98.856C190.763 100.264 191.947 101.128 193.403 101.128C194.235 101.128 194.971 100.76 195.243 100.472V101H196.411V96.184C196.411 94.68 195.419 93.752 193.739 93.752C192.859 93.752 192.011 94.008 191.531 94.344V95.48C192.123 95.096 192.763 94.856 193.547 94.856C194.587 94.856 195.243 95.4 195.243 96.28ZM195.243 98.504V99.24C195.051 99.768 194.347 100.12 193.595 100.12C192.731 100.12 191.899 99.72 191.899 98.856C191.899 98.008 192.731 97.624 193.595 97.624C194.347 97.624 195.051 97.976 195.243 98.504ZM203.978 101V94.92H205.626V93.896H203.978V92.024H202.778V93.896H201.29V94.92H202.778V101H203.978ZM212.979 97.448C212.979 95.272 211.651 93.752 209.715 93.752C207.763 93.752 206.451 95.272 206.451 97.448C206.451 99.624 207.763 101.144 209.715 101.144C211.651 101.144 212.979 99.624 212.979 97.448ZM211.763 97.448C211.763 99 210.995 100.088 209.715 100.088C208.435 100.088 207.667 99 207.667 97.448C207.667 95.896 208.435 94.808 209.715 94.808C210.995 94.808 211.763 95.896 211.763 97.448ZM220.651 97.448C220.651 95.272 219.323 93.752 217.387 93.752C215.435 93.752 214.123 95.272 214.123 97.448C214.123 99.624 215.435 101.144 217.387 101.144C219.323 101.144 220.651 99.624 220.651 97.448ZM219.435 97.448C219.435 99 218.667 100.088 217.387 100.088C216.107 100.088 215.339 99 215.339 97.448C215.339 95.896 216.107 94.808 217.387 94.808C218.667 94.808 219.435 95.896 219.435 97.448ZM223.475 101V90.6H222.275V101H223.475ZM227.603 101V94.92H229.251V93.896H227.603V92.024H226.403V93.896H224.915V94.92H226.403V101H227.603ZM232.089 91.752C232.089 91.32 231.737 90.984 231.305 90.984C230.889 90.984 230.537 91.32 230.537 91.752C230.537 92.168 230.889 92.52 231.305 92.52C231.737 92.52 232.089 92.168 232.089 91.752ZM231.913 101V93.896H230.713V101H231.913ZM235.256 103.72V100.168C235.624 100.68 236.376 101.144 237.256 101.144C239.352 101.144 240.456 99.416 240.456 97.448C240.456 95.48 239.352 93.752 237.256 93.752C236.376 93.752 235.624 94.216 235.256 94.728V93.896H234.056V103.72H235.256ZM235.256 98.888V96.008C235.624 95.272 236.328 94.84 237.08 94.84C238.44 94.84 239.24 95.944 239.24 97.448C239.24 98.952 238.44 100.056 237.08 100.056C236.328 100.056 235.624 99.624 235.256 98.888ZM241.325 100.216C241.325 100.712 241.709 101.08 242.189 101.08C242.653 101.08 243.037 100.712 243.037 100.216C243.037 99.72 242.653 99.336 242.189 99.336C241.709 99.336 241.325 99.72 241.325 100.216Z" fill="#C0CADC"/>
<rect x="135" y="85" width="121" height="22" rx="4" stroke="#606B7D"/>
</g>
<path fill-rule="evenodd" clip-rule="evenodd" d="M99.1615 86H99.8385C100.366 86 100.82 86 101.195 86.0306C101.59 86.0629 101.984 86.1342 102.362 86.327C102.926 86.6146 103.385 87.0735 103.673 87.638C103.866 88.0164 103.937 88.4096 103.969 88.805C104 89.1796 104 89.6343 104 90.1615V90.8385C104 91.3657 104 91.8205 103.969 92.195C103.937 92.5904 103.866 92.9836 103.673 93.362C103.385 93.9265 102.926 94.3854 102.362 94.673C101.984 94.8658 101.59 94.9371 101.195 94.9694C100.82 95 100.366 95 99.8385 95H99.1615C98.6343 95 98.1796 95 97.805 94.9694C97.4096 94.9371 97.0164 94.8658 96.638 94.673C96.0735 94.3854 95.6146 93.9265 95.327 93.362C95.1342 92.9836 95.0629 92.5904 95.0306 92.195C95 91.8205 95 91.3657 95 90.8385V90.1615C95 89.6343 95 89.1795 95.0306 88.805C95.0629 88.4096 95.1342 88.0164 95.327 87.638C95.6146 87.0735 96.0735 86.6146 96.638 86.327C97.0164 86.1342 97.4096 86.0629 97.805 86.0306C98.1795 86 98.6343 86 99.1615 86ZM97.9678 88.0239C97.6962 88.0461 97.5955 88.0838 97.546 88.109C97.3578 88.2049 97.2049 88.3578 97.109 88.546C97.0838 88.5955 97.0461 88.6962 97.0239 88.9678C97.0008 89.2512 97 89.6234 97 90.2V90.8C97 91.3766 97.0008 91.7488 97.0239 92.0322C97.0461 92.3038 97.0838 92.4045 97.109 92.454C97.2049 92.6422 97.3578 92.7951 97.546 92.891C97.5955 92.9162 97.6962 92.9539 97.9678 92.9761C98.2512 92.9992 98.6234 93 99.2 93H99.8C100.377 93 100.749 92.9992 101.032 92.9761C101.304 92.9539 101.405 92.9162 101.454 92.891C101.642 92.7951 101.795 92.6422 101.891 92.454C101.916 92.4045 101.954 92.3038 101.976 92.0322C101.999 91.7488 102 91.3766 102 90.8V90.2C102 89.6234 101.999 89.2512 101.976 88.9678C101.954 88.6962 101.916 88.5955 101.891 88.546C101.795 88.3578 101.642 88.2049 101.454 88.109C101.405 88.0838 101.304 88.0461 101.032 88.0239C100.749 88.0008 100.377 88 99.8 88H99.2C98.6234 88 98.2512 88.0008 97.9678 88.0239Z" fill="white"/>
<path fill-rule="evenodd" clip-rule="evenodd" d="M110.161 86H110.839C111.366 86 111.82 86 112.195 86.0306C112.59 86.0629 112.984 86.1342 113.362 86.327C113.926 86.6146 114.385 87.0735 114.673 87.638C114.866 88.0164 114.937 88.4096 114.969 88.805C115 89.1796 115 89.6343 115 90.1615V90.8385C115 91.3657 115 91.8205 114.969 92.195C114.937 92.5904 114.866 92.9836 114.673 93.362C114.385 93.9265 113.926 94.3854 113.362 94.673C112.984 94.8658 112.59 94.9371 112.195 94.9694C111.82 95 111.366 95 110.839 95H110.161C109.634 95 109.18 95 108.805 94.9694C108.41 94.9371 108.016 94.8658 107.638 94.673C107.074 94.3854 106.615 93.9265 106.327 93.362C106.134 92.9836 106.063 92.5904 106.031 92.195C106 91.8205 106 91.3657 106 90.8385V90.1615C106 89.6343 106 89.1795 106.031 88.805C106.063 88.4096 106.134 88.0164 106.327 87.638C106.615 87.0735 107.074 86.6146 107.638 86.327C108.016 86.1342 108.41 86.0629 108.805 86.0306C109.18 86 109.634 86 110.161 86ZM108.968 88.0239C108.696 88.0461 108.595 88.0838 108.546 88.109C108.358 88.2049 108.205 88.3578 108.109 88.546C108.084 88.5955 108.046 88.6962 108.024 88.9678C108.001 89.2512 108 89.6234 108 90.2V90.8C108 91.3766 108.001 91.7488 108.024 92.0322C108.046 92.3038 108.084 92.4045 108.109 92.454C108.205 92.6422 108.358 92.7951 108.546 92.891C108.595 92.9162 108.696 92.9539 108.968 92.9761C109.251 92.9992 109.623 93 110.2 93H110.8C111.377 93 111.749 92.9992 112.032 92.9761C112.304 92.9539 112.405 92.9162 112.454 92.891C112.642 92.7951 112.795 92.6422 112.891 92.454C112.916 92.4045 112.954 92.3038 112.976 92.0322C112.999 91.7488 113 91.3766 113 90.8V90.2C113 89.6234 112.999 89.2512 112.976 88.9678C112.954 88.6962 112.916 88.5955 112.891 88.546C112.795 88.3578 112.642 88.2049 112.454 88.109C112.405 88.0838 112.304 88.0461 112.032 88.0239C111.749 88.0008 111.377 88 110.8 88H110.2C109.623 88 109.251 88.0008 108.968 88.0239Z" fill="white"/>
<path fill-rule="evenodd" clip-rule="evenodd" d="M99.1615 97H99.8385C100.366 97 100.82 97 101.195 97.0306C101.59 97.0629 101.984 97.1342 102.362 97.327C102.926 97.6146 103.385 98.0735 103.673 98.638C103.866 99.0164 103.937 99.4096 103.969 99.805C104 100.18 104 100.634 104 101.161V101.839C104 102.366 104 102.82 103.969 103.195C103.937 103.59 103.866 103.984 103.673 104.362C103.385 104.926 102.926 105.385 102.362 105.673C101.984 105.866 101.59 105.937 101.195 105.969C100.82 106 100.366 106 99.8385 106H99.1615C98.6343 106 98.1796 106 97.805 105.969C97.4096 105.937 97.0164 105.866 96.638 105.673C96.0735 105.385 95.6146 104.926 95.327 104.362C95.1342 103.984 95.0629 103.59 95.0306 103.195C95 102.82 95 102.366 95 101.839V101.161C95 100.634 95 100.18 95.0306 99.805C95.0629 99.4096 95.1342 99.0164 95.327 98.638C95.6146 98.0735 96.0735 97.6146 96.638 97.327C97.0164 97.1342 97.4096 97.0629 97.805 97.0306C98.1795 97 98.6343 97 99.1615 97ZM97.9678 99.0239C97.6962 99.0461 97.5955 99.0838 97.546 99.109C97.3578 99.2049 97.2049 99.3578 97.109 99.546C97.0838 99.5955 97.0461 99.6962 97.0239 99.9678C97.0008 100.251 97 100.623 97 101.2V101.8C97 102.377 97.0008 102.749 97.0239 103.032C97.0461 103.304 97.0838 103.405 97.109 103.454C97.2049 103.642 97.3578 103.795 97.546 103.891C97.5955 103.916 97.6962 103.954 97.9678 103.976C98.2512 103.999 98.6234 104 99.2 104H99.8C100.377 104 100.749 103.999 101.032 103.976C101.304 103.954 101.405 103.916 101.454 103.891C101.642 103.795 101.795 103.642 101.891 103.454C101.916 103.405 101.954 103.304 101.976 103.032C101.999 102.749 102 102.377 102 101.8V101.2C102 100.623 101.999 100.251 101.976 99.9678C101.954 99.6962 101.916 99.5955 101.891 99.546C101.795 99.3578 101.642 99.2049 101.454 99.109C101.405 99.0838 101.304 99.0461 101.032 99.0239C100.749 99.0008 100.377 99 99.8 99H99.2C98.6234 99 98.2512 99.0008 97.9678 99.0239Z" fill="white"/>
<path fill-rule="evenodd" clip-rule="evenodd" d="M110.161 97H110.839C111.366 97 111.82 97 112.195 97.0306C112.59 97.0629 112.984 97.1342 113.362 97.327C113.926 97.6146 114.385 98.0735 114.673 98.638C114.866 99.0164 114.937 99.4096 114.969 99.805C115 100.18 115 100.634 115 101.161V101.839C115 102.366 115 102.82 114.969 103.195C114.937 103.59 114.866 103.984 114.673 104.362C114.385 104.926 113.926 105.385 113.362 105.673C112.984 105.866 112.59 105.937 112.195 105.969C111.82 106 111.366 106 110.839 106H110.161C109.634 106 109.18 106 108.805 105.969C108.41 105.937 108.016 105.866 107.638 105.673C107.074 105.385 106.615 104.926 106.327 104.362C106.134 103.984 106.063 103.59 106.031 103.195C106 102.82 106 102.366 106 101.839V101.161C106 100.634 106 100.18 106.031 99.805C106.063 99.4096 106.134 99.0164 106.327 98.638C106.615 98.0735 107.074 97.6146 107.638 97.327C108.016 97.1342 108.41 97.0629 108.805 97.0306C109.18 97 109.634 97 110.161 97ZM108.968 99.0239C108.696 99.0461 108.595 99.0838 108.546 99.109C108.358 99.2049 108.205 99.3578 108.109 99.546C108.084 99.5955 108.046 99.6962 108.024 99.9678C108.001 100.251 108 100.623 108 101.2V101.8C108 102.377 108.001 102.749 108.024 103.032C108.046 103.304 108.084 103.405 108.109 103.454C108.205 103.642 108.358 103.795 108.546 103.891C108.595 103.916 108.696 103.954 108.968 103.976C109.251 103.999 109.623 104 110.2 104H110.8C111.377 104 111.749 103.999 112.032 103.976C112.304 103.954 112.405 103.916 112.454 103.891C112.642 103.795 112.795 103.642 112.891 103.454C112.916 103.405 112.954 103.304 112.976 103.032C112.999 102.749 113 102.377 113 101.8V101.2C113 100.623 112.999 100.251 112.976 99.9678C112.954 99.6962 112.916 99.5955 112.891 99.546C112.795 99.3578 112.642 99.2049 112.454 99.109C112.405 99.0838 112.304 99.0461 112.032 99.0239C111.749 99.0008 111.377 99 110.8 99H110.2C109.623 99 109.251 99.0008 108.968 99.0239Z" fill="white"/>
<defs>
<filter id="filter0_d" x="122.5" y="78.5" width="146" height="47" filterUnits="userSpaceOnUse" color-interpolation-filters="sRGB">
<feFlood flood-opacity="0" result="BackgroundImageFix"/>
<feColorMatrix in="SourceAlpha" type="matrix" values="0 0 0 0 0 0 0 0 0 0 0 0 0 0 0 0 0 0 127 0"/>
<feOffset dy="6"/>
<feGaussianBlur stdDeviation="6"/>
<feColorMatrix type="matrix" values="0 0 0 0 0 0 0 0 0 0 0 0 0 0 0 0 0 0 0.12 0"/>
<feBlend mode="normal" in2="BackgroundImageFix" result="effect1_dropShadow"/>
<feBlend mode="normal" in="SourceGraphic" in2="effect1_dropShadow" result="shape"/>
</filter>
</defs>
</svg>
