<svg width="336" height="192" viewBox="0 0 336 192" fill="none" xmlns="http://www.w3.org/2000/svg">
<path d="M150 78C150 68.0589 158.059 60 168 60C177.941 60 186 68.0589 186 78C186 87.9411 177.941 96 168 96C158.059 96 150 87.9411 150 78Z" fill="#F7F7F7"/>
<path d="M168 76C168.368 76 168.667 76.2985 168.667 76.6667V79.3333C168.667 79.7015 168.368 80 168 80C167.632 80 167.333 79.7015 167.333 79.3333V76.6667C167.333 76.2985 167.632 76 168 76Z" fill="#292D3A"/>
<path d="M168 73.6667C168.368 73.6667 168.667 73.9651 168.667 74.3333V74.3997C168.667 74.7679 168.368 75.0664 168 75.0664C167.632 75.0664 167.333 74.7679 167.333 74.3997V74.3333C167.333 73.9651 167.632 73.6667 168 73.6667Z" fill="#292D3A"/>
<path fill-rule="evenodd" clip-rule="evenodd" d="M172 70.6667C173.841 70.6667 175.333 72.1591 175.333 74V79.3333C175.333 81.1743 173.841 82.6667 172 82.6667H170.378L169.143 84.7233C168.625 85.5864 167.375 85.5864 166.857 84.7233L165.622 82.6667H164C162.159 82.6667 160.667 81.1743 160.667 79.3333V74C160.667 72.1591 162.159 70.6667 164 70.6667H172ZM164 72C162.895 72 162 72.8954 162 74V79.3333C162 80.4379 162.895 81.3333 164 81.3333H165.622C166.091 81.3333 166.525 81.579 166.766 81.9805L168 84.0378L169.234 81.9805L169.281 81.9069C169.529 81.549 169.939 81.3333 170.378 81.3333H172C173.105 81.3333 174 80.4379 174 79.3333V74C174 72.8954 173.105 72 172 72H164Z" fill="#292D3A"/>
<g filter="url(#filter0_d_1_6235)">
<mask id="path-3-inside-1_1_6235" fill="white">
<path d="M124.5 106C124.5 102.686 127.186 100 130.5 100H205.5C208.814 100 211.5 102.686 211.5 106V118C211.5 121.314 208.814 124 205.5 124H130.5C127.186 124 124.5 121.314 124.5 118V106Z"/>
</mask>
<path d="M124.5 106C124.5 102.686 127.186 100 130.5 100H205.5C208.814 100 211.5 102.686 211.5 106V118C211.5 121.314 208.814 124 205.5 124H130.5C127.186 124 124.5 121.314 124.5 118V106Z" fill="#22252E"/>
<path d="M130.5 100V101H205.5V100V99H130.5V100ZM211.5 106H210.5V118H211.5H212.5V106H211.5ZM205.5 124V123H130.5V124V125H205.5V124ZM124.5 118H125.5V106H124.5H123.5V118H124.5ZM130.5 124V123C127.739 123 125.5 120.761 125.5 118H124.5H123.5C123.5 121.866 126.634 125 130.5 125V124ZM211.5 118H210.5C210.5 120.761 208.261 123 205.5 123V124V125C209.366 125 212.5 121.866 212.5 118H211.5ZM205.5 100V101C208.261 101 210.5 103.239 210.5 106H211.5H212.5C212.5 102.134 209.366 99 205.5 99V100ZM130.5 100V99C126.634 99 123.5 102.134 123.5 106H124.5H125.5C125.5 103.239 127.739 101 130.5 101V100Z" fill="white" fill-opacity="0.12" mask="url(#path-3-inside-1_1_6235)"/>
<path d="M134.818 117V107.984H131.906V106.99H138.948V107.984H136.036V117H134.818ZM140.524 117V106.178H141.686V110.84C142.022 110.154 142.834 109.552 144.038 109.552C145.55 109.552 146.614 110.378 146.614 112.506V117H145.452V112.422C145.452 111.134 144.906 110.56 143.73 110.56C142.652 110.56 141.686 111.246 141.686 112.562V117H140.524ZM149.479 108.152C149.059 108.152 148.709 107.802 148.709 107.382C148.709 106.962 149.059 106.612 149.479 106.612C149.899 106.612 150.249 106.962 150.249 107.382C150.249 107.802 149.899 108.152 149.479 108.152ZM148.919 117V109.678H150.081V117H148.919ZM154.727 117.126C152.977 117.126 151.927 116.244 151.857 114.746H152.991C153.075 115.614 153.537 116.16 154.713 116.16C155.819 116.16 156.309 115.782 156.309 114.998C156.309 114.228 155.735 113.976 154.601 113.766C152.697 113.416 152.053 112.884 152.053 111.61C152.053 110.252 153.383 109.552 154.531 109.552C155.847 109.552 156.981 110.084 157.177 111.666H156.057C155.889 110.868 155.441 110.518 154.517 110.518C153.677 110.518 153.131 110.938 153.131 111.568C153.131 112.226 153.495 112.492 154.839 112.73C156.351 113.01 157.415 113.346 157.415 114.9C157.415 116.23 156.505 117.126 154.727 117.126ZM163.479 108.152C163.059 108.152 162.709 107.802 162.709 107.382C162.709 106.962 163.059 106.612 163.479 106.612C163.899 106.612 164.249 106.962 164.249 107.382C164.249 107.802 163.899 108.152 163.479 108.152ZM162.919 117V109.678H164.081V117H162.919ZM168.727 117.126C166.977 117.126 165.927 116.244 165.857 114.746H166.991C167.075 115.614 167.537 116.16 168.713 116.16C169.819 116.16 170.309 115.782 170.309 114.998C170.309 114.228 169.735 113.976 168.601 113.766C166.697 113.416 166.053 112.884 166.053 111.61C166.053 110.252 167.383 109.552 168.531 109.552C169.847 109.552 170.981 110.084 171.177 111.666H170.057C169.889 110.868 169.441 110.518 168.517 110.518C167.677 110.518 167.131 110.938 167.131 111.568C167.131 112.226 167.495 112.492 168.839 112.73C170.351 113.01 171.415 113.346 171.415 114.9C171.415 116.23 170.505 117.126 168.727 117.126ZM178.725 117.126C177.367 117.126 176.289 116.468 176.289 114.97C176.289 113.276 178.081 112.702 179.957 112.702H181.007V112.17C181.007 111.008 180.559 110.518 179.439 110.518C178.431 110.518 177.871 110.938 177.759 111.834H176.597C176.751 110.168 178.081 109.552 179.495 109.552C180.895 109.552 182.169 110.126 182.169 112.17V117H181.007V116.076C180.461 116.762 179.803 117.126 178.725 117.126ZM178.837 116.202C180.069 116.202 181.007 115.572 181.007 114.438V113.528H179.999C178.529 113.528 177.451 113.892 177.451 114.97C177.451 115.726 177.815 116.202 178.837 116.202ZM190.382 117.098C189.052 117.098 188.408 116.314 188.408 115.166V110.658H187.358V109.678H188.408V108.012H189.57V109.678H191.278V110.658H189.57V115.054C189.57 115.768 189.892 116.118 190.48 116.118C190.844 116.118 191.124 116.062 191.376 115.964V116.944C191.138 117.028 190.858 117.098 190.382 117.098ZM193.721 108.152C193.301 108.152 192.951 107.802 192.951 107.382C192.951 106.962 193.301 106.612 193.721 106.612C194.141 106.612 194.491 106.962 194.491 107.382C194.491 107.802 194.141 108.152 193.721 108.152ZM193.161 117V109.678H194.323V117H193.161ZM196.701 119.548V109.678H197.863V110.91C198.283 110.196 199.277 109.552 200.341 109.552C202.259 109.552 203.673 110.952 203.673 113.234V113.346C203.673 115.586 202.357 117.126 200.341 117.126C199.137 117.126 198.283 116.524 197.863 115.796V119.548H196.701ZM200.229 116.16C201.685 116.16 202.469 115.18 202.469 113.402V113.29C202.469 111.442 201.447 110.518 200.215 110.518C198.857 110.518 197.821 111.414 197.821 113.29V113.402C197.821 115.278 198.801 116.16 200.229 116.16Z" fill="#E6E8E9"/>
</g>
<defs>
<filter id="filter0_d_1_6235" x="120.5" y="98" width="95" height="32" filterUnits="userSpaceOnUse" color-interpolation-filters="sRGB">
<feFlood flood-opacity="0" result="BackgroundImageFix"/>
<feColorMatrix in="SourceAlpha" type="matrix" values="0 0 0 0 0 0 0 0 0 0 0 0 0 0 0 0 0 0 127 0" result="hardAlpha"/>
<feOffset dy="2"/>
<feGaussianBlur stdDeviation="2"/>
<feColorMatrix type="matrix" values="0 0 0 0 0 0 0 0 0 0 0 0 0 0 0 0 0 0 0.24 0"/>
<feBlend mode="normal" in2="BackgroundImageFix" result="effect1_dropShadow_1_6235"/>
<feBlend mode="normal" in="SourceGraphic" in2="effect1_dropShadow_1_6235" result="shape"/>
</filter>
</defs>
</svg>
