<svg width="763" height="888" viewBox="0 0 763 888" fill="none" xmlns="http://www.w3.org/2000/svg">
<g opacity="0.9">
<g filter="url(#filter0_d)">
<rect x="58.1025" y="486" width="240" height="360" rx="16" transform="rotate(8 58.1025 486)" fill="#F2F2F2"/>
</g>
</g>
<g opacity="0.9">
<g filter="url(#filter1_d)">
<rect x="235.103" y="4" width="240" height="360" rx="16" transform="rotate(8 235.103 4)" fill="#F2F2F2"/>
</g>
</g>
<g opacity="0.8" filter="url(#filter2_d)">
<rect x="353.103" y="312" width="240" height="360" rx="16" transform="rotate(8 353.103 312)" fill="#00C781"/>
</g>
<g opacity="0.9">
<g filter="url(#filter3_d)">
<rect x="517.103" y="228" width="240" height="360" rx="16" transform="rotate(8 517.103 228)" fill="#F2F2F2"/>
</g>
<path d="M561.065 269.522L562.473 269.72L563.142 264.961L568.098 265.658L568.273 264.41L563.318 263.713L563.836 260.024L569.112 260.765L569.288 259.517L562.603 258.578L561.065 269.522ZM576.659 267.679C577 265.255 575.758 263.353 573.601 263.05C571.427 262.745 569.727 264.233 569.386 266.657C569.046 269.081 570.269 270.98 572.444 271.285C574.601 271.588 576.318 270.103 576.659 267.679ZM575.304 267.488C575.061 269.217 574.035 270.309 572.609 270.109C571.183 269.908 570.498 268.576 570.741 266.847C570.984 265.118 572.01 264.026 573.436 264.227C574.862 264.427 575.547 265.759 575.304 267.488ZM584.223 272.777L585.335 264.863L583.98 264.672L583.226 270.038C582.821 270.853 581.967 271.369 581.04 271.239C579.845 271.071 579.418 270.23 579.574 269.125L580.273 264.151L578.918 263.961L578.189 269.148C577.946 270.877 578.746 272.171 580.546 272.424C581.562 272.567 582.475 272.15 583.008 271.588L582.868 272.587L584.223 272.777ZM587.711 265.197L586.599 273.111L587.936 273.299L588.69 267.934C589.095 267.118 589.985 266.607 590.912 266.737C592.106 266.905 592.551 267.749 592.396 268.854L591.697 273.827L593.051 274.018L593.78 268.831C594.023 267.102 593.206 265.805 591.406 265.552C590.39 265.41 589.459 265.824 588.908 266.383L589.048 265.385L587.711 265.197ZM600.673 274.144L600.542 275.071L601.897 275.261L603.525 263.675L602.171 263.485L601.524 268.083C601.212 267.458 600.43 266.821 599.449 266.683C597.132 266.357 595.619 268.071 595.305 270.299C594.99 272.545 595.975 274.592 598.292 274.918C599.272 275.056 600.2 274.659 600.673 274.144ZM601.324 269.509L600.873 272.718C600.348 273.48 599.496 273.851 598.658 273.733C597.143 273.52 596.425 272.165 596.66 270.49C596.896 268.814 597.96 267.71 599.475 267.923C600.313 268.04 601.029 268.632 601.324 269.509ZM609.409 270.955L609.263 271.988C608.967 271.638 608.195 271.184 607.375 271.069C605.682 270.831 604.222 271.643 604.014 273.123C603.794 274.691 604.978 275.839 606.6 276.067C607.527 276.198 608.404 275.903 608.752 275.625L608.67 276.213L609.971 276.396L610.725 271.03C610.96 269.355 610.001 268.166 608.129 267.903C607.149 267.765 606.164 267.917 605.576 268.217L605.399 269.482C606.118 269.147 606.869 268.98 607.742 269.103C608.901 269.265 609.547 269.974 609.409 270.955ZM609.061 273.432L608.945 274.252C608.649 274.81 607.809 275.092 606.972 274.974C606.009 274.839 605.145 274.263 605.28 273.301C605.413 272.356 606.4 272.059 607.362 272.194C608.2 272.312 608.929 272.814 609.061 273.432ZM614.415 277.02L615.367 270.247L617.203 270.505L617.363 269.364L615.527 269.106L615.82 267.021L614.483 266.833L614.19 268.918L612.533 268.685L612.372 269.826L614.03 270.059L613.078 276.832L614.415 277.02ZM620.86 267.42C620.928 266.939 620.588 266.509 620.107 266.442C619.644 266.376 619.199 266.696 619.131 267.177C619.066 267.64 619.403 268.088 619.867 268.153C620.348 268.22 620.795 267.883 620.86 267.42ZM619.216 277.695L620.328 269.781L618.992 269.593L617.879 277.507L619.216 277.695ZM628.863 275.016C629.203 272.591 627.962 270.69 625.805 270.387C623.63 270.081 621.931 271.569 621.59 273.993C621.249 276.418 622.473 278.316 624.648 278.622C626.805 278.925 628.522 277.44 628.863 275.016ZM627.508 274.825C627.265 276.554 626.239 277.646 624.813 277.446C623.387 277.245 622.702 275.913 622.945 274.184C623.188 272.455 624.214 271.363 625.64 271.563C627.066 271.764 627.751 273.096 627.508 274.825ZM631.229 271.313L630.116 279.227L631.453 279.415L632.207 274.05C632.613 273.234 633.503 272.723 634.429 272.853C635.624 273.021 636.069 273.865 635.913 274.97L635.214 279.943L636.569 280.134L637.298 274.947C637.541 273.218 636.724 271.921 634.923 271.668C633.907 271.526 632.976 271.94 632.425 272.499L632.566 271.501L631.229 271.313Z" fill="#333333"/>
<path fill-rule="evenodd" clip-rule="evenodd" d="M632.659 483.569C621.72 482.032 614.099 471.919 615.637 460.981C617.174 450.042 627.287 442.421 638.226 443.959C649.164 445.496 656.785 455.609 655.247 466.547C653.71 477.486 643.597 485.107 632.659 483.569ZM556.221 452.63C554.684 463.568 562.305 473.682 573.243 475.219C584.181 476.756 594.294 469.135 595.832 458.197C597.369 447.259 589.748 437.146 578.81 435.608C567.872 434.071 557.758 441.692 556.221 452.63ZM592.888 407.292C591.35 418.23 598.971 428.344 609.91 429.881C620.848 431.418 630.961 423.797 632.498 412.859C634.036 401.921 626.415 391.807 615.476 390.27C604.538 388.733 594.425 396.354 592.888 407.292Z" fill="#00C781"/>
<rect x="534.124" y="250.589" width="20" height="20" rx="10" transform="rotate(8 534.124 250.589)" fill="#00C781"/>
</g>
<defs>
<filter id="filter0_d" x="0" y="482" width="303.767" height="405.898" filterUnits="userSpaceOnUse" color-interpolation-filters="sRGB">
<feFlood flood-opacity="0" result="BackgroundImageFix"/>
<feColorMatrix in="SourceAlpha" type="matrix" values="0 0 0 0 0 0 0 0 0 0 0 0 0 0 0 0 0 0 127 0"/>
<feOffset dy="4"/>
<feGaussianBlur stdDeviation="4"/>
<feColorMatrix type="matrix" values="0 0 0 0 0 0 0 0 0 0 0 0 0 0 0 0 0 0 0.24 0"/>
<feBlend mode="normal" in2="BackgroundImageFix" result="effect1_dropShadow"/>
<feBlend mode="normal" in="SourceGraphic" in2="effect1_dropShadow" result="shape"/>
</filter>
<filter id="filter1_d" x="177" y="0" width="303.767" height="405.898" filterUnits="userSpaceOnUse" color-interpolation-filters="sRGB">
<feFlood flood-opacity="0" result="BackgroundImageFix"/>
<feColorMatrix in="SourceAlpha" type="matrix" values="0 0 0 0 0 0 0 0 0 0 0 0 0 0 0 0 0 0 127 0"/>
<feOffset dy="4"/>
<feGaussianBlur stdDeviation="4"/>
<feColorMatrix type="matrix" values="0 0 0 0 0 0 0 0 0 0 0 0 0 0 0 0 0 0 0.24 0"/>
<feBlend mode="normal" in2="BackgroundImageFix" result="effect1_dropShadow"/>
<feBlend mode="normal" in="SourceGraphic" in2="effect1_dropShadow" result="shape"/>
</filter>
<filter id="filter2_d" x="295" y="308" width="303.767" height="405.898" filterUnits="userSpaceOnUse" color-interpolation-filters="sRGB">
<feFlood flood-opacity="0" result="BackgroundImageFix"/>
<feColorMatrix in="SourceAlpha" type="matrix" values="0 0 0 0 0 0 0 0 0 0 0 0 0 0 0 0 0 0 127 0"/>
<feOffset dy="4"/>
<feGaussianBlur stdDeviation="4"/>
<feColorMatrix type="matrix" values="0 0 0 0 0 0 0 0 0 0 0 0 0 0 0 0 0 0 0.24 0"/>
<feBlend mode="normal" in2="BackgroundImageFix" result="effect1_dropShadow"/>
<feBlend mode="normal" in="SourceGraphic" in2="effect1_dropShadow" result="shape"/>
</filter>
<filter id="filter3_d" x="459" y="224" width="303.767" height="405.898" filterUnits="userSpaceOnUse" color-interpolation-filters="sRGB">
<feFlood flood-opacity="0" result="BackgroundImageFix"/>
<feColorMatrix in="SourceAlpha" type="matrix" values="0 0 0 0 0 0 0 0 0 0 0 0 0 0 0 0 0 0 127 0"/>
<feOffset dy="4"/>
<feGaussianBlur stdDeviation="4"/>
<feColorMatrix type="matrix" values="0 0 0 0 0 0 0 0 0 0 0 0 0 0 0 0 0 0 0.24 0"/>
<feBlend mode="normal" in2="BackgroundImageFix" result="effect1_dropShadow"/>
<feBlend mode="normal" in="SourceGraphic" in2="effect1_dropShadow" result="shape"/>
</filter>
</defs>
</svg>
