<svg width="288" height="240" viewBox="0 0 288 240" fill="none" xmlns="http://www.w3.org/2000/svg">
<path d="M0 7.99999C0 3.58172 3.58172 0 8 0H280C284.418 0 288 3.58172 288 8V204C288 208.418 284.418 212 280 212H8C3.58173 212 0 208.418 0 204V7.99999Z" fill="#EEEEEE"/>
<path d="M0 7.99999C0 3.58172 3.58172 0 8 0H72V212H0V7.99999Z" fill="#0E5265"/>
<path fill-rule="evenodd" clip-rule="evenodd" d="M29.2 204H29.1615H29.1614C28.6343 204 28.1795 204 27.805 204.031C27.4096 204.063 27.0164 204.134 26.638 204.327C26.0735 204.615 25.6146 205.074 25.327 205.638C25.1342 206.016 25.0629 206.41 25.0306 206.805C25 207.18 25 207.634 25 208.161V208.161V208.2V210.05V210.089V210.089C25 210.616 25 211.07 25.0306 211.445C25.0629 211.84 25.1342 212.234 25.327 212.612C25.6146 213.176 26.0735 213.635 26.638 213.923C27.0164 214.116 27.4096 214.187 27.805 214.219C28.1795 214.25 28.6343 214.25 29.1614 214.25H29.1615H29.2H31.05H31.0885H31.0886C31.6157 214.25 32.0705 214.25 32.445 214.219C32.8404 214.187 33.2336 214.116 33.612 213.923C34.1765 213.635 34.6354 213.176 34.923 212.612C35.1158 212.234 35.1871 211.84 35.2194 211.445C35.25 211.07 35.25 210.616 35.25 210.089V210.089V210.05V208.2V208.161V208.161C35.25 207.634 35.25 207.18 35.2194 206.805C35.1871 206.41 35.1158 206.016 34.923 205.638C34.6354 205.074 34.1765 204.615 33.612 204.327C33.2336 204.134 32.8404 204.063 32.445 204.031C32.0705 204 31.6157 204 31.0886 204H31.0885H31.05H29.2ZM27.546 206.109C27.5955 206.084 27.6962 206.046 27.9678 206.024C28.2512 206.001 28.6234 206 29.2 206H31.05C31.6266 206 31.9988 206.001 32.2822 206.024C32.5538 206.046 32.6545 206.084 32.704 206.109C32.8922 206.205 33.0451 206.358 33.141 206.546C33.1662 206.595 33.2039 206.696 33.2261 206.968C33.2492 207.251 33.25 207.623 33.25 208.2V210.05C33.25 210.627 33.2492 210.999 33.2261 211.282C33.2039 211.554 33.1662 211.655 33.141 211.704C33.0451 211.892 32.8922 212.045 32.704 212.141C32.6545 212.166 32.5538 212.204 32.2822 212.226C31.9988 212.249 31.6266 212.25 31.05 212.25H29.2C28.6234 212.25 28.2512 212.249 27.9678 212.226C27.6962 212.204 27.5955 212.166 27.546 212.141C27.3578 212.045 27.2049 211.892 27.109 211.704C27.0838 211.655 27.0461 211.554 27.0239 211.282C27.0008 210.999 27 210.627 27 210.05V208.2C27 207.623 27.0008 207.251 27.0239 206.968C27.0461 206.696 27.0838 206.595 27.109 206.546C27.2049 206.358 27.3578 206.205 27.546 206.109ZM42.95 204H42.9115H42.9114C42.3843 204 41.9295 204 41.555 204.031C41.1596 204.063 40.7664 204.134 40.388 204.327C39.8235 204.615 39.3646 205.074 39.077 205.638C38.8842 206.016 38.8129 206.41 38.7806 206.805C38.75 207.18 38.75 207.634 38.75 208.161L38.75 208.2V210.05L38.75 210.089C38.75 210.616 38.75 211.07 38.7806 211.445C38.8129 211.84 38.8842 212.234 39.077 212.612C39.3646 213.176 39.8235 213.635 40.388 213.923C40.7664 214.116 41.1596 214.187 41.555 214.219C41.9295 214.25 42.3843 214.25 42.9115 214.25H42.9115H42.95H44.8H44.8385H44.8386C45.3657 214.25 45.8205 214.25 46.195 214.219C46.5904 214.187 46.9836 214.116 47.362 213.923C47.9265 213.635 48.3854 213.176 48.673 212.612C48.8658 212.234 48.9371 211.84 48.9694 211.445C49 211.07 49 210.616 49 210.089V210.089V210.089V210.089V210.05V208.2V208.161V208.161V208.161V208.161C49 207.634 49 207.18 48.9694 206.805C48.9371 206.41 48.8658 206.016 48.673 205.638C48.3854 205.074 47.9265 204.615 47.362 204.327C46.9836 204.134 46.5904 204.063 46.195 204.031C45.8205 204 45.3657 204 44.8386 204H44.8385H44.8H42.95ZM41.296 206.109C41.3455 206.084 41.4462 206.046 41.7178 206.024C42.0012 206.001 42.3734 206 42.95 206H44.8C45.3766 206 45.7488 206.001 46.0322 206.024C46.3038 206.046 46.4045 206.084 46.454 206.109C46.6422 206.205 46.7951 206.358 46.891 206.546C46.9162 206.595 46.9539 206.696 46.9761 206.968C46.9992 207.251 47 207.623 47 208.2V210.05C47 210.627 46.9992 210.999 46.9761 211.282C46.9539 211.554 46.9162 211.655 46.891 211.704C46.7951 211.892 46.6422 212.045 46.454 212.141C46.4045 212.166 46.3038 212.204 46.0322 212.226C45.7488 212.249 45.3766 212.25 44.8 212.25H42.95C42.3734 212.25 42.0012 212.249 41.7178 212.226C41.4462 212.204 41.3455 212.166 41.296 212.141C41.1078 212.045 40.9549 211.892 40.859 211.704C40.8338 211.655 40.7961 211.554 40.7739 211.282C40.7508 210.999 40.75 210.627 40.75 210.05V208.2C40.75 207.623 40.7508 207.251 40.7739 206.968C40.7961 206.696 40.8338 206.595 40.859 206.546C40.9549 206.358 41.1078 206.205 41.296 206.109ZM29.1615 217.75L29.2 217.75H31.05L31.0885 217.75C31.6157 217.75 32.0705 217.75 32.445 217.781C32.8404 217.813 33.2336 217.884 33.612 218.077C34.1765 218.365 34.6354 218.824 34.923 219.388C35.1158 219.766 35.1871 220.16 35.2194 220.555C35.25 220.93 35.25 221.384 35.25 221.911V221.911V221.95V223.8V223.839V223.839C35.25 224.366 35.25 224.82 35.2194 225.195C35.1871 225.59 35.1158 225.984 34.923 226.362C34.6354 226.926 34.1765 227.385 33.612 227.673C33.2336 227.866 32.8404 227.937 32.445 227.969C32.0705 228 31.6158 228 31.0887 228H31.0886H31.0885H31.05H29.2H29.1615H29.1614H29.1613C28.6342 228 28.1795 228 27.805 227.969C27.4096 227.937 27.0164 227.866 26.638 227.673C26.0735 227.385 25.6146 226.926 25.327 226.362C25.1342 225.984 25.0629 225.59 25.0306 225.195C25 224.82 25 224.366 25 223.839V223.839V223.8V221.95V221.911V221.911C25 221.384 25 220.93 25.0306 220.555C25.0629 220.16 25.1342 219.766 25.327 219.388C25.6146 218.824 26.0735 218.365 26.638 218.077C27.0164 217.884 27.4096 217.813 27.805 217.781C28.1795 217.75 28.6343 217.75 29.1615 217.75ZM27.9678 219.774C27.6962 219.796 27.5955 219.834 27.546 219.859C27.3578 219.955 27.2049 220.108 27.109 220.296C27.0838 220.345 27.0461 220.446 27.0239 220.718C27.0008 221.001 27 221.373 27 221.95V223.8C27 224.377 27.0008 224.749 27.0239 225.032C27.0461 225.304 27.0838 225.405 27.109 225.454C27.2049 225.642 27.3578 225.795 27.546 225.891C27.5955 225.916 27.6962 225.954 27.9678 225.976C28.2512 225.999 28.6234 226 29.2 226H31.05C31.6266 226 31.9988 225.999 32.2822 225.976C32.5538 225.954 32.6545 225.916 32.704 225.891C32.8922 225.795 33.0451 225.642 33.141 225.454C33.1662 225.405 33.2039 225.304 33.2261 225.032C33.2492 224.749 33.25 224.377 33.25 223.8V221.95C33.25 221.373 33.2492 221.001 33.2261 220.718C33.2039 220.446 33.1662 220.345 33.141 220.296C33.0451 220.108 32.8922 219.955 32.704 219.859C32.6545 219.834 32.5538 219.796 32.2822 219.774C31.9988 219.751 31.6266 219.75 31.05 219.75H29.2C28.6234 219.75 28.2512 219.751 27.9678 219.774ZM42.95 217.75L42.9115 217.75C42.3843 217.75 41.9295 217.75 41.555 217.781C41.1596 217.813 40.7664 217.884 40.388 218.077C39.8235 218.365 39.3646 218.824 39.077 219.388C38.8842 219.766 38.8129 220.16 38.7806 220.555C38.75 220.93 38.75 221.384 38.75 221.911L38.75 221.95V223.8L38.75 223.839C38.75 224.366 38.75 224.82 38.7806 225.195C38.8129 225.59 38.8842 225.984 39.077 226.362C39.3646 226.926 39.8235 227.385 40.388 227.673C40.7664 227.866 41.1596 227.937 41.555 227.969C41.9295 228 42.3843 228 42.9114 228H42.9115H42.95H44.8H44.8385H44.8386C45.3658 228 45.8205 228 46.195 227.969C46.5904 227.937 46.9836 227.866 47.362 227.673C47.9265 227.385 48.3854 226.926 48.673 226.362C48.8658 225.984 48.9371 225.59 48.9694 225.195C49 224.82 49 224.366 49 223.839V223.839V223.8V221.95V221.911V221.911C49 221.384 49 220.93 48.9694 220.555C48.9371 220.16 48.8658 219.766 48.673 219.388C48.3854 218.824 47.9265 218.365 47.362 218.077C46.9836 217.884 46.5904 217.813 46.195 217.781C45.8205 217.75 45.3657 217.75 44.8385 217.75L44.8 217.75H42.95ZM41.296 219.859C41.3455 219.834 41.4462 219.796 41.7178 219.774C42.0012 219.751 42.3734 219.75 42.95 219.75H44.8C45.3766 219.75 45.7488 219.751 46.0322 219.774C46.3038 219.796 46.4045 219.834 46.454 219.859C46.6422 219.955 46.7951 220.108 46.891 220.296C46.9162 220.345 46.9539 220.446 46.9761 220.718C46.9992 221.001 47 221.373 47 221.95V223.8C47 224.377 46.9992 224.749 46.9761 225.032C46.9539 225.304 46.9162 225.405 46.891 225.454C46.7951 225.642 46.6422 225.795 46.454 225.891C46.4045 225.916 46.3038 225.954 46.0322 225.976C45.7488 225.999 45.3766 226 44.8 226H42.95C42.3734 226 42.0012 225.999 41.7178 225.976C41.4462 225.954 41.3455 225.916 41.296 225.891C41.1078 225.795 40.9549 225.642 40.859 225.454C40.8338 225.405 40.7961 225.304 40.7739 225.032C40.7508 224.749 40.75 224.377 40.75 223.8V221.95C40.75 221.373 40.7508 221.001 40.7739 220.718C40.7961 220.446 40.8338 220.345 40.859 220.296C40.9549 220.108 41.1078 219.955 41.296 219.859Z" fill="white"/>
<rect x="25" y="133" width="22" height="22" rx="4" stroke="white" stroke-width="2" stroke-linecap="round" stroke-linejoin="round"/>
<rect x="12" y="24" width="48" height="48" rx="24" fill="#00739D"/>
<path d="M35.2744 41.264H26.1304V56H35.2744V54.872H27.3304V48.968H34.5304V47.84H27.3304V42.392H35.2744V41.264ZM37.5219 53.336V54.752C38.4819 55.592 40.1139 56.216 42.0819 56.216C44.7699 56.216 46.7379 54.656 46.7379 52.304C46.7379 50.408 45.7539 49.352 43.5939 48.416L41.3139 47.456C39.7539 46.832 38.7459 46.208 38.7459 44.768C38.7459 43.04 40.2099 42.176 42.0339 42.176C43.6899 42.176 44.9859 42.704 46.1379 43.664V42.296C45.0579 41.504 43.5459 41.048 42.0099 41.048C39.6339 41.048 37.5459 42.296 37.5459 44.792C37.5459 47.024 39.2019 47.912 40.7379 48.56L42.8979 49.472C44.6979 50.24 45.5379 50.84 45.5379 52.328C45.5379 54.032 44.1939 55.088 42.0819 55.088C40.3779 55.088 38.9379 54.608 37.5219 53.336Z" fill="white"/>
</svg>
