<svg xmlns="http://www.w3.org/2000/svg" viewBox="0 0 504 144" xmlns:v="https://vecta.io/nano"><path d="M391.2 81.27v35.46H504V144H362.4V54H504v27.27H391.2z" fill="#01a982"/><path d="M276.673 0h-89.254v144h28.8v-36.607h60.008c37.914 0 59.692-21.59 59.692-53.395C335.918 21.985 314.14 0 276.673 0zm-1.881 79.793h-58.573V27.27h58.573c22.679 0 31.281 10.484 31.281 26.728 0 16.079-8.602 25.795-31.281 25.795zM391.2 40.63h-28.8V0H504v27.27H391.2v13.36zM151.2 0v144h-28.8V84.984H28.8V144H0V0h28.8v57.384h93.6V0h28.8z"/></svg>