<svg xmlns="http://www.w3.org/2000/svg" width="96" height="96" viewBox="0 0 96 96">
  <g fill="none" fill-rule="evenodd">
    <path stroke="#000" stroke-width="4" d="M44.4165688,13.7917156 C46.3956432,12.8021784 49.593326,12.796663 51.5834312,13.7917156 L80.4165688,28.2082844 C82.3956432,29.1978216 82.406674,30.796663 80.4165688,31.7917156 L51.5834312,46.2082844 C49.6043568,47.1978216 46.406674,47.203337 44.4165688,46.2082844 L15.5834312,31.7917156 C13.6043568,30.8021784 13.593326,29.203337 15.5834312,28.2082844 L44.4165688,13.7917156 Z"/>
    <path stroke="#000" stroke-width="4" d="M66,39 L80.4222582,46.2111291 C82.3981904,47.1990952 82.406674,48.796663 80.4165688,49.7917156 L51.5834312,64.2082844 C49.6043568,65.1978216 46.406674,65.203337 44.4165688,64.2082844 L15.5834312,49.7917156 C13.6043568,48.8021784 13.5973799,47.20131 15.5777418,46.2111291 L30,39"/>
    <path stroke="#000" stroke-width="4" d="M66,57 L80.4222582,64.2111291 C82.3981904,65.1990952 82.406674,66.796663 80.4165688,67.7917156 L51.5834312,82.2082844 C49.6043568,83.1978216 46.406674,83.203337 44.4165688,82.2082844 L15.5834312,67.7917156 C13.6043568,66.8021784 13.5973799,65.20131 15.5777418,64.2111291 L30,57"/>
  </g>
</svg>
