<svg width="288" height="212" viewBox="0 0 288 212" fill="none" xmlns="http://www.w3.org/2000/svg">
<path d="M0 7.99999C0 3.58172 3.58172 0 8 0H280C284.418 0 288 3.58172 288 8V204C288 208.418 284.418 212 280 212H8C3.58173 212 0 208.418 0 204V7.99999Z" fill="#01A982"/>
<path fill-rule="evenodd" clip-rule="evenodd" d="M106 73C106 67.4772 110.477 63 116 63H172C177.523 63 182 67.4772 182 73V119C182 124.523 177.523 129 172 129H136V147V149H134H118C111.373 149 106 143.627 106 137V73ZM172 125H136H134H118C114.927 125 112.123 126.155 110 128.056V73C110 69.6863 112.686 67 116 67H172C175.314 67 178 69.6863 178 73V119C178 122.314 175.314 125 172 125ZM118 145C113.582 145 110 141.418 110 137C110 132.582 113.582 129 118 129H132V145H118ZM134 99.5C132.895 99.5 132 100.395 132 101.5C132 102.605 132.895 103.5 134 103.5H166C167.105 103.5 168 102.605 168 101.5C168 100.395 167.105 99.5 166 99.5H134ZM132 114.5C132 113.395 132.895 112.5 134 112.5H166C167.105 112.5 168 113.395 168 114.5C168 115.605 167.105 116.5 166 116.5H134C132.895 116.5 132 115.605 132 114.5ZM135 75C133.343 75 132 76.3431 132 78V88C132 89.6569 133.343 91 135 91H165C166.657 91 168 89.6569 168 88V78C168 76.3431 166.657 75 165 75H135ZM136 87V79H164V87H136Z" fill="white"/>
</svg>
