<svg width="288" height="212" viewBox="0 0 288 212" fill="none" xmlns="http://www.w3.org/2000/svg">
<path d="M0 7.99999C0 3.58172 3.58172 0 8 0H280C284.418 0 288 3.58172 288 8V204C288 208.418 284.418 212 280 212H8C3.58173 212 0 208.418 0 204V7.99999Z" fill="#00C781"/>
<path fill-rule="evenodd" clip-rule="evenodd" d="M157 68C152.582 68 149 71.5817 149 76V94C149 98.4183 152.582 102 157 102H175C179.418 102 183 98.4183 183 94V76C183 71.5817 179.418 68 175 68H157ZM153 76C153 73.7909 154.791 72 157 72H175C177.209 72 179 73.7909 179 76V94C179 96.2091 177.209 98 175 98H157C154.791 98 153 96.2091 153 94V76ZM120.822 70.858C121.958 68.662 125.113 68.7055 126.188 70.932L139.108 97.6958C140.07 99.6877 138.619 102 136.407 102H109.643C107.395 102 105.946 99.6186 106.978 97.6217L120.822 70.858ZM123.456 74.4726L111.286 98H134.814L123.456 74.4726ZM106 128C106 118.611 113.611 111 123 111C132.389 111 140 118.611 140 128C140 137.389 132.389 145 123 145C113.611 145 106 137.389 106 128ZM123 115C115.82 115 110 120.82 110 128C110 135.18 115.82 141 123 141C130.18 141 136 135.18 136 128C136 120.82 130.18 115 123 115Z" fill="white"/>
<path d="M152 114L180 142" stroke="white" stroke-width="4" stroke-linecap="round" stroke-linejoin="round"/>
<path d="M180 114L152 142" stroke="white" stroke-width="4" stroke-linecap="round" stroke-linejoin="round"/>
</svg>
