<svg width="96" height="96" viewBox="0 0 96 96" fill="none" xmlns="http://www.w3.org/2000/svg">
<path fill-rule="evenodd" clip-rule="evenodd" d="M96 33.1411C90.3219 23.962 81.3466 17.3959 71.6524 15.7221C63.5047 14.3092 48.643 14.1586 40.7729 29.0107C37.4856 35.2123 37.6873 43.2826 41.2922 50.0851C44.9676 57.0463 51.5366 61.5187 59.31 62.3709C67.0198 63.2093 72.8126 61.4261 76.0681 57.219C79.3471 52.9676 79.9548 47.1845 77.6302 42.4719C75.1303 37.4112 71.361 34.7233 66.1276 34.2786C62.1331 33.925 59.1801 35.5866 58.1069 37.2813C57.8017 37.8117 57.2396 38.7896 57.234 40.226C57.234 44.0271 60.7036 45.0672 61.4094 45.1141C61.6249 45.1058 62.6704 45.0851 64.0558 44.7357L64.7271 44.5105L65.5254 44.2882C68.053 43.8282 70.4798 45.3199 71.1883 47.7757C71.3126 48.2301 71.3817 48.6818 71.3817 49.1279C71.3817 50.7591 70.5502 52.2839 68.8555 53.4138C68.1262 53.8709 67.4577 54.1278 66.756 54.3475C64.7712 54.9925 63.0185 55.2908 61.263 55.2908C55.2451 55.2839 46.8653 50.1113 46.7604 40.3959C46.7037 34.9112 49.451 29.9237 54.299 26.7082C59.8763 23.019 69.5102 21.7677 78.459 27.2552C89.4616 33.983 92.3345 47.1804 89.4616 56.1789C85.2876 69.2092 73.5405 76.1746 58.0476 74.7892C47.067 73.8127 36.8682 68.0158 30.8006 59.2935C28.1086 55.4303 26.1155 51.1223 25.0368 46.8171C22.5576 36.9927 25.0658 26.5521 26.9277 21.9293C30.1292 14.0034 34.9004 6.67742 41.193 0L4.002 0C1.791 0 0 1.791 0 3.999V92.001C0 94.209 1.791 96 4.002 96H92.001C94.209 96 96 94.209 96 92.001V33.1411Z" fill="#7AC142"/>
</svg>
