<svg width="735" height="634" viewBox="0 0 735 634" fill="none" xmlns="http://www.w3.org/2000/svg">
<g opacity="0.8">
<g filter="url(#filter0_d)">
<rect x="8" y="116.673" width="240" height="360" rx="8" transform="rotate(-28 8 116.673)" fill="#272E3F"/>
</g>
</g>
<g opacity="0.8" filter="url(#filter1_d)">
<rect x="369.425" y="151" width="240" height="360" rx="16" transform="rotate(24 369.425 151)" fill="#FF8300"/>
</g>
<g opacity="0.9">
<g filter="url(#filter2_d)">
<rect x="439" y="265.402" width="240" height="360" rx="16" transform="rotate(-8 439 265.402)" fill="#272E3F"/>
</g>
<path d="M490.679 284.342L490.854 285.589L494.669 285.053L496.032 294.75L497.44 294.552L496.077 284.855L499.891 284.319L499.716 283.071L490.679 284.342ZM502.014 290.11L507.468 289.344L507.401 288.862C507.075 286.545 505.752 285.15 503.613 285.45C501.51 285.746 500.327 287.675 500.672 290.135C501.023 292.631 502.774 293.966 505.056 293.645C506 293.512 506.793 293.201 507.364 292.612L507.191 291.382C506.554 292.017 505.942 292.321 505.051 292.446C503.607 292.649 502.326 291.939 502.014 290.11ZM503.791 286.589C505.075 286.408 505.803 287.324 506.019 288.475L501.938 289.048C501.982 287.552 502.74 286.736 503.791 286.589ZM514.472 285.215C513.992 284.519 513.153 284.11 512.155 284.25C511.174 284.388 510.473 284.959 510.169 285.638L510.038 284.711L508.701 284.899L509.814 292.813L511.151 292.625L510.384 287.171C510.513 286.28 511.131 285.63 511.933 285.517C512.949 285.374 513.533 286.037 513.688 287.143L514.395 292.169L515.731 291.981L514.965 286.527C515.094 285.636 515.712 284.986 516.514 284.873C517.53 284.73 518.114 285.394 518.269 286.499L518.976 291.525L520.33 291.335L519.594 286.094C519.353 284.383 518.304 283.386 516.7 283.611C515.595 283.766 514.87 284.432 514.472 285.215ZM524.353 293.86L523.797 289.903C524.287 290.415 525.198 290.814 526.178 290.677C528.513 290.349 529.472 288.251 529.164 286.058C528.856 283.866 527.356 282.113 525.021 282.442C524.04 282.579 523.275 283.214 522.945 283.842L522.815 282.915L521.478 283.103L523.016 294.048L524.353 293.86ZM523.597 288.477L523.146 285.268C523.44 284.391 524.157 283.799 524.995 283.681C526.51 283.468 527.574 284.573 527.81 286.249C528.045 287.924 527.327 289.279 525.812 289.492C524.974 289.61 524.122 289.239 523.597 288.477ZM532.875 289.572L531.246 277.986L529.909 278.174L531.538 289.76L532.875 289.572ZM538.926 283.359L539.072 284.393C538.691 284.138 537.823 283.914 537.003 284.029C535.31 284.267 534.131 285.451 534.339 286.93C534.559 288.499 536.014 289.276 537.636 289.048C538.563 288.918 539.325 288.393 539.583 288.029L539.665 288.618L540.967 288.435L540.213 283.069C539.977 281.394 538.727 280.515 536.855 280.778C535.875 280.916 534.97 281.334 534.488 281.784L534.666 283.049C535.265 282.529 535.941 282.161 536.814 282.038C537.973 281.876 538.789 282.379 538.926 283.359ZM539.275 285.837L539.39 286.657C539.259 287.275 538.53 287.777 537.692 287.895C536.729 288.03 535.74 287.715 535.604 286.753C535.472 285.808 536.338 285.25 537.301 285.115C538.139 284.997 538.978 285.279 539.275 285.837ZM545.411 287.81L544.459 281.037L546.295 280.779L546.134 279.638L544.298 279.896L544.005 277.81L542.668 277.998L542.962 280.084L541.304 280.317L541.464 281.458L543.122 281.225L544.074 287.998L545.411 287.81ZM548.961 283.512L554.415 282.746L554.348 282.264C554.022 279.947 552.699 278.552 550.56 278.852C548.457 279.148 547.274 281.077 547.619 283.537C547.97 286.033 549.721 287.368 552.002 287.047C552.947 286.915 553.74 286.603 554.311 286.014L554.138 284.784C553.5 285.419 552.889 285.723 551.998 285.848C550.554 286.051 549.272 285.341 548.961 283.512ZM550.738 279.991C552.021 279.81 552.75 280.726 552.966 281.877L548.884 282.451C548.929 280.954 549.686 280.138 550.738 279.991ZM556.079 284.22L556.279 285.646C556.932 286.027 557.958 286.21 558.992 286.065C560.649 285.832 561.833 284.811 561.627 283.35C561.47 282.227 560.712 281.624 559.46 281.382L558.191 281.143C557.405 280.98 556.947 280.827 556.857 280.185C556.761 279.508 557.389 279.056 558.208 278.941C559.171 278.805 559.957 279.095 560.694 279.555L560.499 278.164C559.794 277.809 558.939 277.675 558.048 277.8C556.48 278.02 555.367 279.031 555.563 280.421C555.743 281.705 556.625 282.162 557.875 282.387L559.015 282.608C559.742 282.742 560.233 283 560.316 283.589C560.426 284.373 559.705 284.801 558.831 284.924C557.869 285.06 556.905 284.795 556.079 284.22Z" fill="white"/>
</g>
<path d="M586.337 433.852C584.696 433.301 582.892 433.555 581.466 434.537L537.902 464.55C534.849 466.654 535.507 471.341 539.023 472.522L589.171 489.365C590.813 489.916 592.617 489.662 594.043 488.68L637.607 458.667C640.66 456.563 640.001 451.876 636.486 450.695L586.337 433.852Z" fill="#FF8300" stroke="#262C3D" stroke-width="7"/>
<path d="M582.626 407.445C580.984 406.894 579.18 407.148 577.754 408.13L534.19 438.143C531.137 440.247 531.795 444.934 535.311 446.115L585.46 462.957C587.101 463.509 588.905 463.255 590.331 462.273L633.895 432.259C636.948 430.156 636.29 425.469 632.774 424.288L582.626 407.445Z" fill="#FF8300" stroke="#262C3D" stroke-width="7"/>
<path d="M578.915 381.038C577.273 380.487 575.469 380.74 574.043 381.723L530.479 411.736C527.426 413.84 528.085 418.527 531.6 419.707L581.749 436.55C583.39 437.101 585.195 436.848 586.62 435.866L630.184 405.852C633.237 403.749 632.579 399.061 629.063 397.881L578.915 381.038Z" fill="#FF8300" stroke="#262C3D" stroke-width="7"/>
<path d="M471.121 283.481C471.454 283.04 472.081 282.952 472.522 283.284L482.219 290.591C482.66 290.924 482.748 291.551 482.416 291.992L475.108 301.689C474.776 302.13 474.149 302.218 473.708 301.886L464.011 294.578C463.57 294.246 463.481 293.619 463.814 293.178L471.121 283.481Z" fill="#FF8300"/>
<defs>
<filter id="filter0_d" x="0" y="0" width="396.917" height="446.534" filterUnits="userSpaceOnUse" color-interpolation-filters="sRGB">
<feFlood flood-opacity="0" result="BackgroundImageFix"/>
<feColorMatrix in="SourceAlpha" type="matrix" values="0 0 0 0 0 0 0 0 0 0 0 0 0 0 0 0 0 0 127 0"/>
<feOffset dy="4"/>
<feGaussianBlur stdDeviation="4"/>
<feColorMatrix type="matrix" values="0 0 0 0 0 0 0 0 0 0 0 0 0 0 0 0 0 0 0.24 0"/>
<feBlend mode="normal" in2="BackgroundImageFix" result="effect1_dropShadow"/>
<feBlend mode="normal" in="SourceGraphic" in2="effect1_dropShadow" result="shape"/>
</filter>
<filter id="filter1_d" x="215" y="147" width="381.676" height="442.493" filterUnits="userSpaceOnUse" color-interpolation-filters="sRGB">
<feFlood flood-opacity="0" result="BackgroundImageFix"/>
<feColorMatrix in="SourceAlpha" type="matrix" values="0 0 0 0 0 0 0 0 0 0 0 0 0 0 0 0 0 0 127 0"/>
<feOffset dy="4"/>
<feGaussianBlur stdDeviation="4"/>
<feColorMatrix type="matrix" values="0 0 0 0 0 0 0 0 0 0 0 0 0 0 0 0 0 0 0.24 0"/>
<feBlend mode="normal" in2="BackgroundImageFix" result="effect1_dropShadow"/>
<feBlend mode="normal" in="SourceGraphic" in2="effect1_dropShadow" result="shape"/>
</filter>
<filter id="filter2_d" x="431" y="228" width="303.767" height="405.898" filterUnits="userSpaceOnUse" color-interpolation-filters="sRGB">
<feFlood flood-opacity="0" result="BackgroundImageFix"/>
<feColorMatrix in="SourceAlpha" type="matrix" values="0 0 0 0 0 0 0 0 0 0 0 0 0 0 0 0 0 0 127 0"/>
<feOffset dy="4"/>
<feGaussianBlur stdDeviation="4"/>
<feColorMatrix type="matrix" values="0 0 0 0 0 0 0 0 0 0 0 0 0 0 0 0 0 0 0.24 0"/>
<feBlend mode="normal" in2="BackgroundImageFix" result="effect1_dropShadow"/>
<feBlend mode="normal" in="SourceGraphic" in2="effect1_dropShadow" result="shape"/>
</filter>
</defs>
</svg>
