<svg width="336" height="192" viewBox="0 0 336 192" fill="none" xmlns="http://www.w3.org/2000/svg">
<path opacity="0.3" d="M24 73H307" stroke="white"/>
<path opacity="0.3" d="M24 27H307" stroke="white"/>
<path d="M37.224 53.74V55H44.532V53.74H41.76V43.93H40.914L37.278 45.784V47.224L40.374 45.64V53.74H37.224ZM50.6382 43.948V55H54.1842C57.4242 55 59.5482 52.84 59.5482 49.474C59.5482 46.108 57.4242 43.948 54.1842 43.948H50.6382ZM54.1662 53.722H52.0602V45.208H54.1662C56.6682 45.208 58.1442 46.882 58.1442 49.474C58.1442 52.066 56.6682 53.722 54.1662 53.722ZM68.2845 51.004C68.2845 48.556 66.7905 46.846 64.6125 46.846C62.4165 46.846 60.9405 48.556 60.9405 51.004C60.9405 53.452 62.4165 55.162 64.6125 55.162C66.7905 55.162 68.2845 53.452 68.2845 51.004ZM66.9165 51.004C66.9165 52.75 66.0525 53.974 64.6125 53.974C63.1725 53.974 62.3085 52.75 62.3085 51.004C62.3085 49.258 63.1725 48.034 64.6125 48.034C66.0525 48.034 66.9165 49.258 66.9165 51.004ZM75.7484 55V53.848H71.4824L75.7664 47.08V47.008H69.5744V48.16H73.6784L69.3764 54.928V55H75.7484ZM78.3214 51.238H83.8294V50.752C83.8294 48.412 82.7134 46.846 80.5534 46.846C78.4294 46.846 76.9894 48.592 76.9894 51.076C76.9894 53.596 78.5374 55.162 80.8414 55.162C81.7954 55.162 82.6234 54.964 83.2714 54.46V53.218C82.5514 53.758 81.9034 53.974 81.0034 53.974C79.5454 53.974 78.3754 53.092 78.3214 51.238ZM80.5714 47.998C81.8674 47.998 82.4614 49.006 82.5154 50.176H78.3934C78.6454 48.7 79.5094 47.998 80.5714 47.998ZM85.6689 47.008V55H87.0189V49.582C87.3069 48.718 88.1169 48.088 89.0529 48.088C90.2589 48.088 90.8169 48.862 90.8169 49.978V55H92.1849V49.762C92.1849 48.016 91.1949 46.846 89.3769 46.846C88.3509 46.846 87.4869 47.386 87.0189 48.016V47.008H85.6689ZM105.594 43.948H98.5562V55H105.594V53.722H99.9602V49.96H105.072V48.7H99.9602V45.208H105.594V43.948ZM112.844 53.938V54.46C112.844 56.17 111.728 57.016 110.306 57.016C109.37 57.016 108.524 56.764 107.732 56.026V57.52C108.344 57.952 109.28 58.24 110.306 58.24C112.214 58.24 114.212 57.16 114.212 54.37V47.008H112.844V47.908C112.448 47.35 111.602 46.846 110.612 46.846C108.272 46.846 107.048 48.79 107.048 50.932C107.048 53.074 108.272 55.018 110.612 55.018C111.602 55.018 112.448 54.496 112.844 53.938ZM112.844 49.294V52.552C112.43 53.308 111.674 53.794 110.81 53.794C109.298 53.794 108.416 52.588 108.416 50.932C108.416 49.258 109.298 48.052 110.81 48.052C111.674 48.052 112.43 48.538 112.844 49.294ZM121.826 53.938V54.46C121.826 56.17 120.71 57.016 119.288 57.016C118.352 57.016 117.506 56.764 116.714 56.026V57.52C117.326 57.952 118.262 58.24 119.288 58.24C121.196 58.24 123.194 57.16 123.194 54.37V47.008H121.826V47.908C121.43 47.35 120.584 46.846 119.594 46.846C117.254 46.846 116.03 48.79 116.03 50.932C116.03 53.074 117.254 55.018 119.594 55.018C120.584 55.018 121.43 54.496 121.826 53.938ZM121.826 49.294V52.552C121.412 53.308 120.656 53.794 119.792 53.794C118.28 53.794 117.398 52.588 117.398 50.932C117.398 49.258 118.28 48.052 119.792 48.052C120.656 48.052 121.412 48.538 121.826 49.294ZM125.121 52.93V54.37C125.715 54.838 126.705 55.162 127.749 55.162C129.423 55.162 130.737 54.316 130.737 52.84C130.737 51.706 130.071 51.004 128.865 50.59L127.641 50.176C126.885 49.906 126.453 49.69 126.453 49.042C126.453 48.358 127.137 47.998 127.965 47.998C128.937 47.998 129.675 48.394 130.341 48.952V47.548C129.693 47.098 128.865 46.846 127.965 46.846C126.381 46.846 125.139 47.692 125.139 49.096C125.139 50.392 125.949 50.968 127.155 51.364L128.253 51.742C128.955 51.976 129.405 52.3 129.405 52.894C129.405 53.686 128.631 54.01 127.749 54.01C126.777 54.01 125.859 53.614 125.121 52.93Z" fill="white"/>
<path d="M44.1 99.74H39.294L41.328 97.31C42.552 95.798 43.614 94.484 43.614 92.9C43.614 90.992 42.336 89.786 40.302 89.786C38.988 89.786 37.8 90.362 37.044 91.136V92.576C37.818 91.784 38.916 91.046 40.194 91.046C41.544 91.046 42.228 91.838 42.228 92.954C42.228 94.34 41.31 95.402 40.176 96.77L36.792 100.928V101H44.1V99.74ZM55.1922 99.902C52.8882 99.902 51.4122 98.138 51.4122 95.474C51.4122 92.81 53.0142 91.064 55.3182 91.064C56.5242 91.064 57.5682 91.442 58.5042 92.288V90.776C57.7302 90.164 56.6142 89.786 55.3182 89.786C52.2762 89.786 49.9902 92.036 49.9902 95.474C49.9902 98.894 52.0782 101.162 55.1562 101.162C56.5242 101.162 57.9822 100.748 59.0442 99.578V95.258H55.3002V96.446H57.7302V99.056C57.0102 99.65 56.2002 99.902 55.1922 99.902ZM65.6813 95.69V96.734C65.3393 96.428 64.5113 96.086 63.6833 96.086C61.9733 96.086 60.6413 97.094 60.6413 98.588C60.6413 100.172 61.9733 101.144 63.6113 101.144C64.5473 101.144 65.3753 100.73 65.6813 100.406V101H66.9953V95.582C66.9953 93.89 65.8793 92.846 63.9893 92.846C62.9993 92.846 62.0453 93.134 61.5053 93.512V94.79C62.1713 94.358 62.8913 94.088 63.7733 94.088C64.9433 94.088 65.6813 94.7 65.6813 95.69ZM65.6813 98.192V99.02C65.4653 99.614 64.6733 100.01 63.8273 100.01C62.8553 100.01 61.9193 99.56 61.9193 98.588C61.9193 97.634 62.8553 97.202 63.8273 97.202C64.6733 97.202 65.4653 97.598 65.6813 98.192ZM70.6537 101V89.3H69.3037V101H70.6537ZM74.4154 101V89.3H73.0654V101H74.4154ZM83.5951 97.004C83.5951 94.556 82.1011 92.846 79.9231 92.846C77.7271 92.846 76.2511 94.556 76.2511 97.004C76.2511 99.452 77.7271 101.162 79.9231 101.162C82.1011 101.162 83.5951 99.452 83.5951 97.004ZM82.2271 97.004C82.2271 98.75 81.3631 99.974 79.9231 99.974C78.4831 99.974 77.6191 98.75 77.6191 97.004C77.6191 95.258 78.4831 94.034 79.9231 94.034C81.3631 94.034 82.2271 95.258 82.2271 97.004ZM85.4228 93.008V101H86.7728V95.582C87.0608 94.718 87.8708 94.088 88.8068 94.088C90.0128 94.088 90.5708 94.862 90.5708 95.978V101H91.9388V95.762C91.9388 94.016 90.9488 92.846 89.1308 92.846C88.1048 92.846 87.2408 93.386 86.7728 94.016V93.008H85.4228ZM93.7614 98.93V100.37C94.3554 100.838 95.3454 101.162 96.3894 101.162C98.0634 101.162 99.3774 100.316 99.3774 98.84C99.3774 97.706 98.7114 97.004 97.5054 96.59L96.2814 96.176C95.5254 95.906 95.0934 95.69 95.0934 95.042C95.0934 94.358 95.7774 93.998 96.6054 93.998C97.5774 93.998 98.3154 94.394 98.9814 94.952V93.548C98.3334 93.098 97.5054 92.846 96.6054 92.846C95.0214 92.846 93.7794 93.692 93.7794 95.096C93.7794 96.392 94.5894 96.968 95.7954 97.364L96.8934 97.742C97.5954 97.976 98.0454 98.3 98.0454 98.894C98.0454 99.686 97.2714 100.01 96.3894 100.01C95.4174 100.01 94.4994 99.614 93.7614 98.93ZM112.037 97.004C112.037 94.556 110.543 92.846 108.365 92.846C106.169 92.846 104.693 94.556 104.693 97.004C104.693 99.452 106.169 101.162 108.365 101.162C110.543 101.162 112.037 99.452 112.037 97.004ZM110.669 97.004C110.669 98.75 109.805 99.974 108.365 99.974C106.925 99.974 106.061 98.75 106.061 97.004C106.061 95.258 106.925 94.034 108.365 94.034C109.805 94.034 110.669 95.258 110.669 97.004ZM117.86 90.542V89.318C117.554 89.192 117.248 89.138 116.816 89.138C115.412 89.138 114.368 90.074 114.368 91.676V93.008H113.018V94.16H114.368V101H115.7V94.16H117.5V93.008H115.7V91.784C115.7 90.83 116.222 90.326 117.014 90.326C117.302 90.326 117.608 90.38 117.86 90.542ZM128.332 98.534H128.404L132.148 92.504V101H133.534V89.948H132.292L128.386 96.302L124.462 89.948H123.148V101H124.534V92.504L128.332 98.534ZM137.596 90.596C137.596 90.11 137.2 89.732 136.714 89.732C136.246 89.732 135.85 90.11 135.85 90.596C135.85 91.064 136.246 91.46 136.714 91.46C137.2 91.46 137.596 91.064 137.596 90.596ZM137.398 101V93.008H136.048V101H137.398ZM141.16 101V89.3H139.81V101H141.16ZM150.285 101L146.289 96.662L150.213 93.008H148.467L144.921 96.374V89.3H143.571V101H144.921V97.04L148.611 101H150.285Z" fill="white"/>
<path d="M38.448 143.31L41.814 135.948H40.41L36.522 144.426V144.498H41.724V147H43.038V144.498H44.874V143.31H43.038V140.646H41.724V143.31H38.448ZM50.0622 144.606V146.136C50.8182 146.73 52.0422 147.162 53.5362 147.162C55.6782 147.162 57.2622 146.028 57.2622 144.138C57.2622 142.608 56.5062 141.726 54.8142 141.078L53.0682 140.394C52.0422 139.998 51.4122 139.602 51.4122 138.666C51.4122 137.568 52.3662 137.028 53.5902 137.028C54.8682 137.028 55.8582 137.478 56.7402 138.18V136.686C55.9122 136.11 54.7782 135.786 53.5722 135.786C51.6642 135.786 50.0262 136.776 50.0262 138.684C50.0262 140.43 51.2142 141.168 52.5102 141.672L54.1302 142.302C55.3002 142.788 55.8942 143.184 55.8942 144.156C55.8942 145.29 54.9582 145.902 53.5362 145.902C52.2402 145.902 51.0882 145.488 50.0622 144.606ZM61.3755 147V140.16H63.2295V139.008H61.3755V136.902H60.0255V139.008H58.3515V140.16H60.0255V147H61.3755ZM66.422 136.596C66.422 136.11 66.026 135.732 65.54 135.732C65.072 135.732 64.676 136.11 64.676 136.596C64.676 137.064 65.072 137.46 65.54 137.46C66.026 137.46 66.422 137.064 66.422 136.596ZM66.224 147V139.008H64.874V147H66.224ZM68.0597 143.004C68.0597 145.56 69.7517 147.162 71.9117 147.162C72.6857 147.162 73.4957 146.982 74.0537 146.496V145.128C73.4777 145.704 72.7757 145.956 72.0017 145.956C70.5797 145.956 69.4277 144.84 69.4277 143.004C69.4277 141.168 70.5797 140.052 72.0017 140.052C72.7757 140.052 73.4777 140.304 74.0537 140.88V139.512C73.4957 139.026 72.6857 138.846 71.9117 138.846C69.7517 138.846 68.0597 140.448 68.0597 143.004ZM82.6446 147L78.6486 142.662L82.5726 139.008H80.8266L77.2806 142.374V135.3H75.9306V147H77.2806V143.04L80.9706 147H82.6446ZM83.5134 144.93V146.37C84.1074 146.838 85.0974 147.162 86.1414 147.162C87.8154 147.162 89.1294 146.316 89.1294 144.84C89.1294 143.706 88.4634 143.004 87.2574 142.59L86.0334 142.176C85.2774 141.906 84.8454 141.69 84.8454 141.042C84.8454 140.358 85.5294 139.998 86.3574 139.998C87.3294 139.998 88.0674 140.394 88.7334 140.952V139.548C88.0854 139.098 87.2574 138.846 86.3574 138.846C84.7734 138.846 83.5314 139.692 83.5314 141.096C83.5314 142.392 84.3414 142.968 85.5474 143.364L86.6454 143.742C87.3474 143.976 87.7974 144.3 87.7974 144.894C87.7974 145.686 87.0234 146.01 86.1414 146.01C85.1694 146.01 84.2514 145.614 83.5134 144.93ZM101.788 143.004C101.788 140.556 100.294 138.846 98.1165 138.846C95.9205 138.846 94.4445 140.556 94.4445 143.004C94.4445 145.452 95.9205 147.162 98.1165 147.162C100.294 147.162 101.788 145.452 101.788 143.004ZM100.42 143.004C100.42 144.75 99.5565 145.974 98.1165 145.974C96.6765 145.974 95.8125 144.75 95.8125 143.004C95.8125 141.258 96.6765 140.034 98.1165 140.034C99.5565 140.034 100.42 141.258 100.42 143.004ZM107.612 136.542V135.318C107.306 135.192 107 135.138 106.568 135.138C105.164 135.138 104.12 136.074 104.12 137.676V139.008H102.77V140.16H104.12V147H105.452V140.16H107.252V139.008H105.452V137.784C105.452 136.83 105.974 136.326 106.766 136.326C107.054 136.326 107.36 136.38 107.612 136.542ZM118.57 141.276C119.434 141.006 120.19 140.196 120.19 138.882C120.19 136.974 118.822 135.948 116.536 135.948H112.9V147H116.896C119.164 147 120.568 145.902 120.568 143.886C120.568 142.644 119.758 141.582 118.57 141.276ZM116.536 140.754H114.286V137.19H116.536C118.012 137.19 118.822 137.748 118.822 138.954C118.822 140.16 118.012 140.754 116.536 140.754ZM114.286 145.758V141.942H116.896C118.39 141.942 119.182 142.68 119.182 143.85C119.182 145.002 118.39 145.758 116.896 145.758H114.286ZM128.849 147V139.008H127.481V144.426C127.193 145.29 126.419 145.92 125.483 145.92C124.277 145.92 123.737 145.146 123.737 144.03V139.008H122.369V144.246C122.369 145.992 123.341 147.162 125.159 147.162C126.185 147.162 127.031 146.622 127.481 145.992V147H128.849ZM133.481 147V140.16H135.335V139.008H133.481V136.902H132.131V139.008H130.457V140.16H132.131V147H133.481ZM139.211 147V140.16H141.065V139.008H139.211V136.902H137.861V139.008H136.187V140.16H137.861V147H139.211ZM143.325 143.238H148.833V142.752C148.833 140.412 147.717 138.846 145.557 138.846C143.433 138.846 141.993 140.592 141.993 143.076C141.993 145.596 143.541 147.162 145.845 147.162C146.799 147.162 147.627 146.964 148.275 146.46V145.218C147.555 145.758 146.907 145.974 146.007 145.974C144.549 145.974 143.379 145.092 143.325 143.238ZM145.575 139.998C146.871 139.998 147.465 141.006 147.519 142.176H143.397C143.649 140.7 144.513 139.998 145.575 139.998ZM154.777 140.358V138.972C154.633 138.9 154.345 138.846 154.003 138.846C153.121 138.846 152.365 139.368 152.023 140.052V139.008H150.673V147H152.023V141.636C152.293 140.7 153.031 140.142 153.877 140.142C154.219 140.142 154.561 140.214 154.777 140.358Z" fill="white"/>
<path opacity="0.3" d="M24 119H307" stroke="white"/>
<path opacity="0.3" d="M24 165H307" stroke="white"/>
</svg>
