<svg width="121" height="18" xmlns="http://www.w3.org/2000/svg">
 <g fill="none" fill-rule="evenodd">
   <path d="M96.298 2v13.508h-3.542v-5.346h-5.214v5.346H84V2h3.542v5.126h5.214V2h3.542zm5.5 9.306v4.202H98.3V2h5.918c.733 0 1.4.103 2.002.308a4.344 4.344 0 011.551.902c.433.396.766.884 1.001 1.463.235.58.352 1.243.352 1.991s-.117 1.412-.352 1.991a3.872 3.872 0 01-1.001 1.452c-.433.389-.95.686-1.551.891a6.166 6.166 0 01-2.002.308h-2.42zm3.894-4.642c0-.513-.147-.924-.44-1.232-.293-.308-.763-.462-1.408-.462h-2.046v3.388h2.046c.645 0 1.115-.154 1.408-.462.293-.308.44-.719.44-1.232zM120.3 2v3.036h-6.182v2.112h5.654v2.97h-5.654v2.332h6.182v3.058h-9.658V2h9.658z" fill="#FFF" fill-rule="nonzero"/>
   <path d="M0 0h66v18H0V0zm4 4h58v10H4V4z" fill="#01A982"/>
 </g>
</svg>