<svg width="854" height="356" viewBox="0 0 854 356" fill="none" xmlns="http://www.w3.org/2000/svg">
<g opacity="0.5" filter="url(#filter0_d)">
<rect x="679.972" y="27.2621" width="144" height="216" rx="8" transform="rotate(-6 679.972 27.2621)" fill="#272E3F"/>
</g>
<g opacity="0.5" filter="url(#filter1_d)">
<rect x="566.067" y="33" width="144" height="216" rx="8" transform="rotate(4 566.067 33)" fill="#272E3F"/>
</g>
<g opacity="0.5" filter="url(#filter2_d)">
<rect x="8" y="24.0409" width="144" height="216" rx="8" transform="rotate(-8 8 24.0409)" fill="#272E3F"/>
</g>
<g opacity="0.5" filter="url(#filter3_d)">
<rect x="375" y="105.005" width="144" height="216" rx="8" transform="rotate(-10 375 105.005)" fill="#272E3F"/>
</g>
<g opacity="0.5" filter="url(#filter4_d)">
<rect x="136.039" y="54.21" width="144" height="216" rx="8" transform="rotate(4 136.039 54.21)" fill="#272E3F"/>
</g>
<g opacity="0.8">
<g filter="url(#filter5_d)">
<rect x="232.039" y="8.21002" width="144" height="216" rx="8" transform="rotate(4 232.039 8.21002)" fill="#272E3F"/>
</g>
<path d="M259.31 32.1707L260.256 32.2368L260.479 29.0407L263.807 29.2734L263.866 28.4354L260.538 28.2027L260.711 25.7248L264.254 25.9725L264.313 25.1346L259.824 24.8207L259.31 32.1707ZM269.595 30.2194C269.709 28.5914 268.795 27.3847 267.346 27.2834C265.886 27.1813 264.825 28.2498 264.711 29.8779C264.597 31.5059 265.499 32.7118 266.959 32.8139C268.408 32.9152 269.481 31.8474 269.595 30.2194ZM268.685 30.1558C268.604 31.3169 267.972 32.0908 267.015 32.0238C266.057 31.9568 265.539 31.1026 265.621 29.9415C265.702 28.7803 266.333 28.0065 267.291 28.0735C268.249 28.1404 268.766 28.9946 268.685 30.1558ZM274.862 33.2582L275.234 27.9432L274.324 27.8796L274.072 31.4828C273.84 32.044 273.296 32.427 272.674 32.3834C271.872 32.3274 271.549 31.7875 271.601 31.0453L271.834 27.7055L270.924 27.6419L270.681 31.1254C270.6 32.2865 271.192 33.1098 272.401 33.1944C273.083 33.2421 273.671 32.9223 273.999 32.5242L273.952 33.1946L274.862 33.2582ZM276.83 28.0548L276.458 33.3698L277.356 33.4326L277.608 29.8294C277.839 29.2682 278.407 28.8869 279.03 28.9304C279.832 28.9865 280.167 29.5272 280.115 30.2694L279.882 33.6092L280.791 33.6728L281.035 30.1893C281.116 29.0282 280.512 28.204 279.303 28.1195C278.621 28.0718 278.021 28.3907 277.681 28.7879L277.727 28.1176L276.83 28.0548ZM285.866 33.4021L285.822 34.0246L286.732 34.0882L287.276 26.3072L286.366 26.2436L286.15 29.3321C285.914 28.9306 285.363 28.5433 284.705 28.4972C283.149 28.3884 282.222 29.5987 282.117 31.0951C282.012 32.6034 282.762 33.9189 284.318 34.0277C284.977 34.0738 285.576 33.7668 285.866 33.4021ZM286.083 30.2897L285.933 32.4445C285.619 32.9759 285.07 33.2623 284.507 33.2229C283.489 33.1518 282.949 32.2839 283.027 31.1587C283.106 30.0334 283.762 29.2493 284.78 29.3205C285.342 29.3598 285.847 29.7198 286.083 30.2897ZM291.527 30.8749L291.479 31.5692C291.265 31.3498 290.731 31.0839 290.18 31.0454C289.043 30.9658 288.11 31.5743 288.041 32.5678C287.967 33.6213 288.808 34.3296 289.897 34.4058C290.519 34.4493 291.089 34.2125 291.308 34.0113L291.28 34.4063L292.154 34.4674L292.406 30.8642C292.485 29.7389 291.791 28.9927 290.534 28.9048C289.876 28.8588 289.228 29.006 288.851 29.2323L288.792 30.0822C289.255 29.8258 289.746 29.6798 290.333 29.7208C291.111 29.7752 291.573 30.2165 291.527 30.8749ZM291.411 32.5389L291.372 33.0895C291.201 33.4745 290.656 33.701 290.093 33.6617C289.447 33.6165 288.845 33.2737 288.891 32.6273C288.935 31.9928 289.577 31.749 290.224 31.7942C290.787 31.8336 291.295 32.1338 291.411 32.5389ZM295.139 34.6761L295.457 30.1272L296.69 30.2134L296.743 29.4473L295.51 29.3611L295.608 27.9605L294.71 27.8977L294.612 29.2983L293.499 29.2204L293.446 29.9866L294.559 30.0644L294.241 34.6133L295.139 34.6761ZM298.979 27.9917C299.001 27.6685 298.755 27.3987 298.432 27.3761C298.121 27.3543 297.84 27.5873 297.817 27.9105C297.796 28.2217 298.041 28.5035 298.352 28.5253C298.675 28.5479 298.957 28.3029 298.979 27.9917ZM298.363 34.9016L298.735 29.5865L297.837 29.5238L297.465 34.8388L298.363 34.9016ZM304.654 32.671C304.768 31.0429 303.854 29.8362 302.405 29.7349C300.945 29.6328 299.884 30.7014 299.77 32.3294C299.656 33.9575 300.558 35.1633 302.018 35.2654C303.467 35.3667 304.54 34.299 304.654 32.671ZM303.744 32.6073C303.663 33.7685 303.031 34.5423 302.074 34.4754C301.116 34.4084 300.598 33.5542 300.679 32.393C300.761 31.2319 301.392 30.458 302.35 30.525C303.308 30.592 303.825 31.4462 303.744 32.6073ZM306.055 30.0984L305.683 35.4135L306.581 35.4762L306.833 31.873C307.065 31.3118 307.633 30.9305 308.255 30.9741C309.057 31.0301 309.393 31.5708 309.341 32.313L309.107 35.6529L310.017 35.7165L310.26 32.233C310.342 31.0718 309.738 30.2477 308.529 30.1631C307.846 30.1154 307.247 30.4344 306.906 30.8316L306.953 30.1612L306.055 30.0984Z" fill="white"/>
<path fill-rule="evenodd" clip-rule="evenodd" d="M264.868 140.823C264.406 147.434 269.391 153.169 276.002 153.631C282.613 154.093 288.348 149.109 288.81 142.497C289.272 135.886 284.287 130.152 277.676 129.689C271.065 129.227 265.331 134.212 264.868 140.823ZM284.917 112.152C284.455 118.763 289.44 124.497 296.051 124.96C302.662 125.422 308.396 120.437 308.859 113.826C309.321 107.215 304.336 101.48 297.725 101.018C291.114 100.556 285.379 105.541 284.917 112.152ZM311.914 156.142C305.303 155.68 300.318 149.946 300.781 143.334C301.243 136.723 306.977 131.738 313.588 132.201C320.2 132.663 325.184 138.397 324.722 145.009C324.26 151.62 318.526 156.605 311.914 156.142Z" fill="#00C781"/>
<rect x="243.173" y="21.0179" width="12" height="12" rx="6" transform="rotate(4 243.173 21.0179)" fill="#00C781"/>
</g>
<g opacity="0.8">
<g filter="url(#filter6_d)">
<rect x="334.972" y="58.2549" width="144" height="216" rx="8" transform="rotate(-4 334.972 58.2549)" fill="#272E3F"/>
</g>
<path d="M364.624 74.5422C364.784 76.8406 366.373 78.2211 368.336 78.0839C369.186 78.0244 369.815 77.7398 370.267 77.3113L370.197 76.3177C369.636 76.8983 369.043 77.1804 368.288 77.2331C366.804 77.3369 365.693 76.2477 365.569 74.4761C365.446 72.7044 366.394 71.4712 367.878 71.3674C368.632 71.3147 369.259 71.4994 369.896 72.0082L369.826 71.0147C369.32 70.6531 368.657 70.4589 367.807 70.5183C365.844 70.6556 364.463 72.2438 364.624 74.5422ZM376.02 74.7678C375.906 73.1398 374.833 72.072 373.384 72.1733C371.924 72.2754 371.022 73.4813 371.136 75.1093C371.249 76.7373 372.311 77.8059 373.771 77.7038C375.219 77.6025 376.134 76.3958 376.02 74.7678ZM375.11 74.8314C375.191 75.9926 374.673 76.8468 373.716 76.9137C372.758 76.9807 372.127 76.2069 372.045 75.0457C371.964 73.8845 372.482 73.0303 373.44 72.9634C374.397 72.8964 375.029 73.6702 375.11 74.8314ZM380.872 72.5038C380.586 72.0186 380.047 71.7074 379.376 71.7543C378.718 71.8004 378.225 72.1476 377.991 72.585L377.947 71.9625L377.049 72.0253L377.421 77.3403L378.319 77.2775L378.063 73.6145C378.19 73.0281 378.631 72.6244 379.17 72.5867C379.852 72.539 380.21 73.0072 380.261 73.7494L380.498 77.1252L381.395 77.0624L381.139 73.3993C381.267 72.813 381.708 72.4093 382.246 72.3716C382.929 72.3239 383.286 72.7921 383.338 73.5343L383.574 76.91L384.484 76.8464L384.238 73.327C384.157 72.1778 383.506 71.4655 382.429 71.5409C381.686 71.5928 381.174 72.0015 380.872 72.5038ZM387.042 78.7125L386.856 76.055C387.158 76.4188 387.745 76.7266 388.403 76.6806C389.972 76.571 390.707 75.2203 390.604 73.7479C390.501 72.2755 389.585 71.0405 388.017 71.1501C387.358 71.1962 386.82 71.5826 386.571 71.985L386.528 71.3625L385.63 71.4253L386.144 78.7753L387.042 78.7125ZM386.789 75.0974L386.638 72.9426C386.875 72.3727 387.379 72.0127 387.942 71.9733C388.959 71.9022 389.616 72.6863 389.694 73.8116C389.773 74.9368 389.232 75.8047 388.215 75.8758C387.652 75.9151 387.103 75.6288 386.789 75.0974ZM396.349 73.3462C396.235 71.7182 395.162 70.6505 393.714 70.7517C392.253 70.8539 391.351 72.0597 391.465 73.6878C391.579 75.3158 392.64 76.3844 394.1 76.2822C395.549 76.181 396.463 74.9743 396.349 73.3462ZM395.439 73.4098C395.52 74.571 395.003 75.4252 394.045 75.4922C393.087 75.5591 392.456 74.7853 392.375 73.6241C392.293 72.463 392.811 71.6088 393.769 71.5418C394.726 71.4748 395.358 72.2487 395.439 73.4098ZM397.379 70.6037L397.75 75.9187L398.648 75.856L398.396 72.2528C398.547 71.6648 399.057 71.2081 399.679 71.1646C400.481 71.1085 400.888 71.5973 400.94 72.3395L401.174 75.6793L402.084 75.6157L401.84 72.1322C401.759 70.9711 401.046 70.239 399.837 70.3235C399.155 70.3713 398.605 70.7706 398.323 71.2113L398.276 70.5409L397.379 70.6037ZM403.935 72.9721L407.598 72.716L407.575 72.3928C407.467 70.8366 406.652 69.847 405.215 69.9475C403.802 70.0463 402.926 71.2744 403.042 72.9264C403.159 74.6023 404.261 75.5717 405.793 75.4646C406.428 75.4202 406.969 75.25 407.377 74.8847L407.319 74.0587C406.865 74.4513 406.444 74.6251 405.846 74.667C404.876 74.7348 404.057 74.2026 403.935 72.9721ZM405.281 70.7128C406.142 70.6525 406.584 71.2952 406.675 72.0708L403.933 72.2625C404.032 71.2692 404.574 70.7622 405.281 70.7128ZM408.625 69.8173L408.996 75.1323L409.894 75.0696L409.642 71.4664C409.793 70.8784 410.303 70.4217 410.925 70.3782C411.727 70.3221 412.134 70.8109 412.186 71.5531L412.42 74.8929L413.33 74.8293L413.086 71.3458C413.005 70.1847 412.292 69.4526 411.083 69.5371C410.401 69.5849 409.851 69.9842 409.569 70.4249L409.522 69.7545L408.625 69.8173ZM416.337 74.619L416.019 70.0701L417.252 69.9839L417.199 69.2178L415.966 69.304L415.868 67.9034L414.97 67.9662L415.068 69.3668L413.955 69.4446L414.008 70.2107L415.122 70.1329L415.44 74.6818L416.337 74.619ZM418.221 73.1039L418.288 74.0615C418.705 74.3452 419.379 74.5146 420.073 74.466C421.186 74.3882 422.021 73.7645 421.952 72.7829C421.899 72.0287 421.424 71.5928 420.603 71.3736L419.769 71.1552C419.254 71.0108 418.957 70.8872 418.927 70.4563C418.895 70.0014 419.333 69.7301 419.884 69.6916C420.53 69.6464 421.039 69.8755 421.508 70.2156L421.443 69.2819C420.991 69.0127 420.428 68.8837 419.83 68.9255C418.777 68.9992 417.99 69.6196 418.055 70.5533C418.115 71.4152 418.681 71.7606 419.501 71.9678L420.249 72.1682C420.727 72.2911 421.041 72.4857 421.069 72.8807C421.106 73.4074 420.606 73.6589 420.019 73.6999C419.373 73.7451 418.744 73.5245 418.221 73.1039Z" fill="white"/>
<rect x="382.729" y="139.121" width="60" height="60" rx="4" transform="rotate(-4 382.729 139.121)" fill="#7630EA"/>
<rect x="347.779" y="69.3886" width="12" height="12" rx="1" transform="rotate(-4 347.779 69.3886)" fill="#7630EA"/>
</g>
<g opacity="0.8">
<g filter="url(#filter7_d)">
<rect x="598.039" y="70.21" width="144" height="216" rx="8" transform="rotate(4 598.039 70.21)" fill="#272E3F"/>
</g>
<path d="M630.505 87.148L625.824 86.8207L625.31 94.1707L629.991 94.498L630.05 93.6481L626.303 93.3861L626.478 90.8842L629.878 91.1219L629.936 90.284L626.537 90.0462L626.699 87.7239L630.446 87.9859L630.505 87.148ZM633.974 92.0098L636.02 89.5786L635.039 89.51L633.529 91.3171L632.321 89.32L631.292 89.248L632.966 91.9754L630.812 94.5555L631.782 94.6233L633.411 92.6561L634.739 94.83L635.756 94.9012L633.974 92.0098ZM638.261 95.0763L638.579 90.5274L639.812 90.6137L639.866 89.8475L638.633 89.7613L638.73 88.3607L637.833 88.2979L637.735 89.6985L636.621 89.6207L636.568 90.3868L637.681 90.4647L637.363 95.0135L638.261 95.0763ZM641.172 92.7657L644.835 93.0219L644.857 92.6987C644.966 91.1425 644.297 90.0491 642.86 89.9487C641.448 89.8499 640.409 90.9441 640.293 92.5961C640.176 94.272 641.133 95.3854 642.665 95.4926C643.3 95.5369 643.859 95.4438 644.314 95.1387L644.372 94.3127C643.868 94.6384 643.427 94.7519 642.828 94.71C641.858 94.6422 641.121 94.0012 641.172 92.7657ZM642.819 90.7156C643.681 90.7759 644.029 91.4739 644.01 92.2545L641.269 92.0628C641.505 91.0929 642.112 90.6663 642.819 90.7156ZM646.255 90.2943L645.883 95.6093L646.781 95.6721L647.033 92.0689C647.265 91.5077 647.833 91.1264 648.455 91.1699C649.257 91.226 649.592 91.7667 649.54 92.5089L649.307 95.8487L650.217 95.9124L650.46 92.4289C650.541 91.2677 649.937 90.4436 648.728 90.359C648.046 90.3113 647.446 90.6302 647.106 91.0275L647.153 90.3571L646.255 90.2943ZM655.291 95.6417L655.247 96.2641L656.157 96.3278L656.701 88.5468L655.791 88.4831L655.576 91.5716C655.339 91.1701 654.789 90.7828 654.13 90.7367C652.574 90.6279 651.647 91.8382 651.543 93.3346C651.437 94.8429 652.187 96.1584 653.744 96.2672C654.402 96.3133 655.001 96.0063 655.291 95.6417ZM655.509 92.5293L655.358 94.684C655.044 95.2154 654.495 95.5018 653.932 95.4624C652.915 95.3913 652.374 94.5234 652.453 93.3982C652.531 92.2729 653.187 91.4888 654.205 91.56C654.768 91.5993 655.272 91.9594 655.509 92.5293Z" fill="white"/>
<path d="M608.929 86.5093L616.91 87.0674" stroke="white" stroke-width="2" stroke-linecap="round"/>
<path d="M608.51 92.4947L612.5 92.7737" stroke="white" stroke-width="2" stroke-linecap="round"/>
</g>
<path d="M633.205 169.405L651.162 170.66" stroke="white" stroke-width="4" stroke-linecap="round"/>
<path d="M631.671 191.351L691.525 195.537" stroke="white" stroke-width="4" stroke-linecap="round"/>
<path d="M630.103 213.775L654.044 215.449" stroke="white" stroke-width="4" stroke-linecap="round"/>
<path d="M661.137 171.358L669.118 171.916" stroke="white" stroke-width="4" stroke-linecap="round"/>
<path d="M632.438 180.378L680.321 183.726" stroke="white" stroke-width="4" stroke-linecap="round"/>
<path d="M630.87 202.801L634.861 203.08" stroke="white" stroke-width="4" stroke-linecap="round"/>
<path d="M644.869 203.301L668.811 204.975" stroke="white" stroke-width="4" stroke-linecap="round"/>
<g opacity="0.8">
<g filter="url(#filter8_d)">
<rect x="459.33" y="127.886" width="144" height="216" rx="8" transform="rotate(-3 459.33 127.886)" fill="#272E3F"/>
</g>
<path d="M488.417 141.013L488.461 141.852L491.026 141.718L491.367 148.237L492.314 148.187L491.972 141.668L494.537 141.534L494.493 140.695L488.417 141.013ZM495.61 145.503L499.277 145.311L499.26 144.987C499.178 143.429 498.381 142.426 496.943 142.501C495.529 142.575 494.631 143.788 494.718 145.442C494.805 147.119 495.891 148.108 497.425 148.027C498.06 147.994 498.604 147.833 499.018 147.475L498.975 146.648C498.514 147.033 498.09 147.2 497.491 147.231C496.52 147.282 495.711 146.735 495.61 145.503ZM496.995 143.267C497.858 143.222 498.288 143.873 498.365 144.65L495.621 144.793C495.737 143.802 496.288 143.305 496.995 143.267ZM504.168 142.976C503.89 142.486 503.356 142.165 502.685 142.2C502.026 142.235 501.527 142.573 501.285 143.007L501.253 142.383L500.354 142.431L500.633 147.751L501.532 147.704L501.339 144.037C501.477 143.453 501.925 143.057 502.464 143.029C503.147 142.993 503.497 143.467 503.536 144.21L503.713 147.59L504.611 147.543L504.419 143.876C504.557 143.292 505.005 142.896 505.544 142.867C506.227 142.832 506.576 143.306 506.615 144.049L506.792 147.428L507.703 147.381L507.519 143.858C507.458 142.707 506.82 141.984 505.741 142.04C504.998 142.079 504.478 142.479 504.168 142.976ZM510.228 149.291L510.089 146.631C510.384 147 510.966 147.318 511.625 147.283C513.195 147.201 513.954 145.863 513.877 144.389C513.799 142.915 512.905 141.665 511.335 141.747C510.676 141.781 510.131 142.158 509.875 142.556L509.843 141.933L508.944 141.98L509.329 149.338L510.228 149.291ZM510.039 145.672L509.925 143.515C510.172 142.949 510.683 142.598 511.246 142.569C512.264 142.515 512.907 143.311 512.966 144.437C513.025 145.564 512.469 146.422 511.451 146.475C510.887 146.505 510.343 146.209 510.039 145.672ZM516.137 146.939L515.728 139.149L514.83 139.196L515.238 146.986L516.137 146.939ZM520.517 143.164L520.553 143.859C520.315 143.668 519.752 143.469 519.201 143.498C518.062 143.557 517.21 144.275 517.263 145.269C517.318 146.324 518.239 146.925 519.329 146.868C519.952 146.835 520.489 146.53 520.681 146.304L520.702 146.699L521.577 146.654L521.388 143.047C521.329 141.92 520.549 141.264 519.291 141.33C518.632 141.364 518.007 141.589 517.661 141.86L517.705 142.711C518.134 142.4 518.604 142.195 519.191 142.164C519.97 142.123 520.482 142.505 520.517 143.164ZM520.604 144.83L520.633 145.381C520.51 145.784 519.997 146.075 519.433 146.105C518.786 146.139 518.147 145.872 518.113 145.225C518.08 144.59 518.688 144.269 519.335 144.236C519.899 144.206 520.44 144.442 520.604 144.83ZM524.565 146.497L524.326 141.943L525.56 141.879L525.52 141.112L524.286 141.176L524.212 139.774L523.314 139.821L523.387 141.223L522.273 141.282L522.313 142.049L523.427 141.99L523.666 146.544L524.565 146.497ZM527.172 143.849L530.839 143.657L530.822 143.333C530.741 141.775 529.943 140.772 528.505 140.847C527.091 140.921 526.193 142.134 526.28 143.788C526.368 145.465 527.453 146.454 528.987 146.373C529.622 146.34 530.166 146.179 530.58 145.821L530.537 144.994C530.076 145.379 529.652 145.545 529.053 145.577C528.083 145.628 527.273 145.081 527.172 143.849ZM528.557 141.613C529.42 141.568 529.851 142.218 529.927 142.996L527.183 143.139C527.299 142.148 527.85 141.65 528.557 141.613ZM531.858 144.733L531.908 145.692C532.32 145.982 532.99 146.164 533.686 146.127C534.8 146.069 535.645 145.46 535.594 144.477C535.554 143.722 535.086 143.278 534.269 143.044L533.44 142.811C532.927 142.658 532.632 142.529 532.609 142.098C532.585 141.643 533.028 141.379 533.579 141.35C534.227 141.316 534.732 141.554 535.195 141.902L535.146 140.968C534.698 140.691 534.138 140.552 533.539 140.583C532.485 140.638 531.687 141.245 531.736 142.18C531.781 143.043 532.341 143.398 533.158 143.619L533.902 143.833C534.377 143.964 534.688 144.164 534.709 144.559C534.737 145.087 534.233 145.329 533.645 145.36C532.998 145.394 532.373 145.162 531.858 144.733Z" fill="white"/>
</g>
<path d="M538.914 236.528C537.76 236.024 536.437 236.094 535.342 236.715L508.777 251.784L509.764 253.524L508.777 251.784C506.627 253.004 506.792 256.155 509.058 257.143L537.052 269.353C538.206 269.857 539.53 269.787 540.625 269.166L567.189 254.097C569.34 252.877 569.174 249.726 566.908 248.738L538.914 236.528Z" fill="#FF8300" stroke="#262C3D" stroke-width="4"/>
<path d="M538.076 220.55C536.922 220.046 535.599 220.116 534.504 220.737L507.939 235.806L508.926 237.546L507.939 235.806C505.789 237.026 505.954 240.177 508.22 241.165L536.214 253.375C537.368 253.879 538.692 253.809 539.787 253.188L566.351 238.119C568.502 236.899 568.337 233.748 566.071 232.76L538.076 220.55Z" fill="#FF8300" stroke="#262C3D" stroke-width="4"/>
<path d="M537.24 204.572C536.085 204.068 534.762 204.138 533.667 204.759L507.102 219.828L508.089 221.568L507.102 219.828C504.952 221.048 505.117 224.199 507.383 225.187L535.377 237.397C536.531 237.901 537.855 237.831 538.95 237.21L565.515 222.141C567.665 220.921 567.5 217.77 565.234 216.782L537.24 204.572Z" fill="#FF8300" stroke="#262C3D" stroke-width="4"/>
<path d="M477.317 140.669C477.686 140.258 478.319 140.225 478.729 140.595L483.549 144.934C483.959 145.304 483.992 145.936 483.623 146.347L479.283 151.166C478.914 151.577 478.281 151.61 477.871 151.24L473.051 146.901C472.641 146.531 472.608 145.899 472.977 145.488L477.317 140.669Z" fill="#FF8300"/>
<defs>
<filter id="filter0_d" x="671.972" y="8.21002" width="181.789" height="245.869" filterUnits="userSpaceOnUse" color-interpolation-filters="sRGB">
<feFlood flood-opacity="0" result="BackgroundImageFix"/>
<feColorMatrix in="SourceAlpha" type="matrix" values="0 0 0 0 0 0 0 0 0 0 0 0 0 0 0 0 0 0 127 0"/>
<feOffset dy="4"/>
<feGaussianBlur stdDeviation="4"/>
<feColorMatrix type="matrix" values="0 0 0 0 0 0 0 0 0 0 0 0 0 0 0 0 0 0 0.24 0"/>
<feBlend mode="normal" in2="BackgroundImageFix" result="effect1_dropShadow"/>
<feBlend mode="normal" in="SourceGraphic" in2="effect1_dropShadow" result="shape"/>
</filter>
<filter id="filter1_d" x="543" y="29" width="174.717" height="241.519" filterUnits="userSpaceOnUse" color-interpolation-filters="sRGB">
<feFlood flood-opacity="0" result="BackgroundImageFix"/>
<feColorMatrix in="SourceAlpha" type="matrix" values="0 0 0 0 0 0 0 0 0 0 0 0 0 0 0 0 0 0 127 0"/>
<feOffset dy="4"/>
<feGaussianBlur stdDeviation="4"/>
<feColorMatrix type="matrix" values="0 0 0 0 0 0 0 0 0 0 0 0 0 0 0 0 0 0 0.24 0"/>
<feBlend mode="normal" in2="BackgroundImageFix" result="effect1_dropShadow"/>
<feBlend mode="normal" in="SourceGraphic" in2="effect1_dropShadow" result="shape"/>
</filter>
<filter id="filter2_d" x="0" y="0" width="188.66" height="249.939" filterUnits="userSpaceOnUse" color-interpolation-filters="sRGB">
<feFlood flood-opacity="0" result="BackgroundImageFix"/>
<feColorMatrix in="SourceAlpha" type="matrix" values="0 0 0 0 0 0 0 0 0 0 0 0 0 0 0 0 0 0 127 0"/>
<feOffset dy="4"/>
<feGaussianBlur stdDeviation="4"/>
<feColorMatrix type="matrix" values="0 0 0 0 0 0 0 0 0 0 0 0 0 0 0 0 0 0 0.24 0"/>
<feBlend mode="normal" in2="BackgroundImageFix" result="effect1_dropShadow"/>
<feBlend mode="normal" in="SourceGraphic" in2="effect1_dropShadow" result="shape"/>
</filter>
<filter id="filter3_d" x="367" y="76" width="195.32" height="253.724" filterUnits="userSpaceOnUse" color-interpolation-filters="sRGB">
<feFlood flood-opacity="0" result="BackgroundImageFix"/>
<feColorMatrix in="SourceAlpha" type="matrix" values="0 0 0 0 0 0 0 0 0 0 0 0 0 0 0 0 0 0 127 0"/>
<feOffset dy="4"/>
<feGaussianBlur stdDeviation="4"/>
<feColorMatrix type="matrix" values="0 0 0 0 0 0 0 0 0 0 0 0 0 0 0 0 0 0 0.24 0"/>
<feBlend mode="normal" in2="BackgroundImageFix" result="effect1_dropShadow"/>
<feBlend mode="normal" in="SourceGraphic" in2="effect1_dropShadow" result="shape"/>
</filter>
<filter id="filter4_d" x="112.972" y="50.21" width="174.717" height="241.519" filterUnits="userSpaceOnUse" color-interpolation-filters="sRGB">
<feFlood flood-opacity="0" result="BackgroundImageFix"/>
<feColorMatrix in="SourceAlpha" type="matrix" values="0 0 0 0 0 0 0 0 0 0 0 0 0 0 0 0 0 0 127 0"/>
<feOffset dy="4"/>
<feGaussianBlur stdDeviation="4"/>
<feColorMatrix type="matrix" values="0 0 0 0 0 0 0 0 0 0 0 0 0 0 0 0 0 0 0.24 0"/>
<feBlend mode="normal" in2="BackgroundImageFix" result="effect1_dropShadow"/>
<feBlend mode="normal" in="SourceGraphic" in2="effect1_dropShadow" result="shape"/>
</filter>
<filter id="filter5_d" x="208.972" y="4.21002" width="174.717" height="241.519" filterUnits="userSpaceOnUse" color-interpolation-filters="sRGB">
<feFlood flood-opacity="0" result="BackgroundImageFix"/>
<feColorMatrix in="SourceAlpha" type="matrix" values="0 0 0 0 0 0 0 0 0 0 0 0 0 0 0 0 0 0 127 0"/>
<feOffset dy="4"/>
<feGaussianBlur stdDeviation="4"/>
<feColorMatrix type="matrix" values="0 0 0 0 0 0 0 0 0 0 0 0 0 0 0 0 0 0 0.24 0"/>
<feBlend mode="normal" in2="BackgroundImageFix" result="effect1_dropShadow"/>
<feBlend mode="normal" in="SourceGraphic" in2="effect1_dropShadow" result="shape"/>
</filter>
<filter id="filter6_d" x="326.972" y="44.21" width="174.717" height="241.519" filterUnits="userSpaceOnUse" color-interpolation-filters="sRGB">
<feFlood flood-opacity="0" result="BackgroundImageFix"/>
<feColorMatrix in="SourceAlpha" type="matrix" values="0 0 0 0 0 0 0 0 0 0 0 0 0 0 0 0 0 0 127 0"/>
<feOffset dy="4"/>
<feGaussianBlur stdDeviation="4"/>
<feColorMatrix type="matrix" values="0 0 0 0 0 0 0 0 0 0 0 0 0 0 0 0 0 0 0.24 0"/>
<feBlend mode="normal" in2="BackgroundImageFix" result="effect1_dropShadow"/>
<feBlend mode="normal" in="SourceGraphic" in2="effect1_dropShadow" result="shape"/>
</filter>
<filter id="filter7_d" x="574.972" y="66.21" width="174.717" height="241.519" filterUnits="userSpaceOnUse" color-interpolation-filters="sRGB">
<feFlood flood-opacity="0" result="BackgroundImageFix"/>
<feColorMatrix in="SourceAlpha" type="matrix" values="0 0 0 0 0 0 0 0 0 0 0 0 0 0 0 0 0 0 127 0"/>
<feOffset dy="4"/>
<feGaussianBlur stdDeviation="4"/>
<feColorMatrix type="matrix" values="0 0 0 0 0 0 0 0 0 0 0 0 0 0 0 0 0 0 0.24 0"/>
<feBlend mode="normal" in2="BackgroundImageFix" result="effect1_dropShadow"/>
<feBlend mode="normal" in="SourceGraphic" in2="effect1_dropShadow" result="shape"/>
</filter>
<filter id="filter8_d" x="451.33" y="116.349" width="171.107" height="239.24" filterUnits="userSpaceOnUse" color-interpolation-filters="sRGB">
<feFlood flood-opacity="0" result="BackgroundImageFix"/>
<feColorMatrix in="SourceAlpha" type="matrix" values="0 0 0 0 0 0 0 0 0 0 0 0 0 0 0 0 0 0 127 0"/>
<feOffset dy="4"/>
<feGaussianBlur stdDeviation="4"/>
<feColorMatrix type="matrix" values="0 0 0 0 0 0 0 0 0 0 0 0 0 0 0 0 0 0 0.24 0"/>
<feBlend mode="normal" in2="BackgroundImageFix" result="effect1_dropShadow"/>
<feBlend mode="normal" in="SourceGraphic" in2="effect1_dropShadow" result="shape"/>
</filter>
</defs>
</svg>
