<?xml version="1.0" encoding="UTF-8"?>
<svg width="852px" height="354px" viewBox="0 0 852 354" version="1.1" xmlns="http://www.w3.org/2000/svg" xmlns:xlink="http://www.w3.org/1999/xlink">
    <!-- Generator: Sketch 63.1 (92452) - https://sketch.com -->
    <title>Group</title>
    <desc>Created with Sketch.</desc>
    <defs>
        <filter x="-13.8%" y="-10.0%" width="127.5%" height="119.9%" filterUnits="objectBoundingBox" id="filter-1">
            <feOffset dx="0" dy="4" in="SourceAlpha" result="shadowOffsetOuter1"></feOffset>
            <feGaussianBlur stdDeviation="4" in="shadowOffsetOuter1" result="shadowBlurOuter1"></feGaussianBlur>
            <feColorMatrix values="0 0 0 0 0   0 0 0 0 0   0 0 0 0 0  0 0 0 0.24 0" type="matrix" in="shadowBlurOuter1" result="shadowMatrixOuter1"></feColorMatrix>
            <feMerge>
                <feMergeNode in="shadowMatrixOuter1"></feMergeNode>
                <feMergeNode in="SourceGraphic"></feMergeNode>
            </feMerge>
        </filter>
        <filter x="-14.5%" y="-10.2%" width="128.9%" height="120.4%" filterUnits="objectBoundingBox" id="filter-2">
            <feOffset dx="0" dy="4" in="SourceAlpha" result="shadowOffsetOuter1"></feOffset>
            <feGaussianBlur stdDeviation="4" in="shadowOffsetOuter1" result="shadowBlurOuter1"></feGaussianBlur>
            <feColorMatrix values="0 0 0 0 0   0 0 0 0 0   0 0 0 0 0  0 0 0 0.24 0" type="matrix" in="shadowBlurOuter1" result="shadowMatrixOuter1"></feColorMatrix>
            <feMerge>
                <feMergeNode in="shadowMatrixOuter1"></feMergeNode>
                <feMergeNode in="SourceGraphic"></feMergeNode>
            </feMerge>
        </filter>
        <filter x="-13.3%" y="-9.8%" width="126.6%" height="119.7%" filterUnits="objectBoundingBox" id="filter-3">
            <feOffset dx="0" dy="4" in="SourceAlpha" result="shadowOffsetOuter1"></feOffset>
            <feGaussianBlur stdDeviation="4" in="shadowOffsetOuter1" result="shadowBlurOuter1"></feGaussianBlur>
            <feColorMatrix values="0 0 0 0 0   0 0 0 0 0   0 0 0 0 0  0 0 0 0.24 0" type="matrix" in="shadowBlurOuter1" result="shadowMatrixOuter1"></feColorMatrix>
            <feMerge>
                <feMergeNode in="shadowMatrixOuter1"></feMergeNode>
                <feMergeNode in="SourceGraphic"></feMergeNode>
            </feMerge>
        </filter>
        <filter x="-12.8%" y="-9.7%" width="125.6%" height="119.3%" filterUnits="objectBoundingBox" id="filter-4">
            <feOffset dx="0" dy="4" in="SourceAlpha" result="shadowOffsetOuter1"></feOffset>
            <feGaussianBlur stdDeviation="4" in="shadowOffsetOuter1" result="shadowBlurOuter1"></feGaussianBlur>
            <feColorMatrix values="0 0 0 0 0   0 0 0 0 0   0 0 0 0 0  0 0 0 0.24 0" type="matrix" in="shadowBlurOuter1" result="shadowMatrixOuter1"></feColorMatrix>
            <feMerge>
                <feMergeNode in="shadowMatrixOuter1"></feMergeNode>
                <feMergeNode in="SourceGraphic"></feMergeNode>
            </feMerge>
        </filter>
        <filter x="-14.4%" y="-10.2%" width="128.8%" height="120.4%" filterUnits="objectBoundingBox" id="filter-5">
            <feOffset dx="0" dy="4" in="SourceAlpha" result="shadowOffsetOuter1"></feOffset>
            <feGaussianBlur stdDeviation="4" in="shadowOffsetOuter1" result="shadowBlurOuter1"></feGaussianBlur>
            <feColorMatrix values="0 0 0 0 0   0 0 0 0 0   0 0 0 0 0  0 0 0 0.24 0" type="matrix" in="shadowBlurOuter1" result="shadowMatrixOuter1"></feColorMatrix>
            <feMerge>
                <feMergeNode in="shadowMatrixOuter1"></feMergeNode>
                <feMergeNode in="SourceGraphic"></feMergeNode>
            </feMerge>
        </filter>
        <filter x="-14.4%" y="-10.2%" width="128.8%" height="120.4%" filterUnits="objectBoundingBox" id="filter-6">
            <feOffset dx="0" dy="4" in="SourceAlpha" result="shadowOffsetOuter1"></feOffset>
            <feGaussianBlur stdDeviation="4" in="shadowOffsetOuter1" result="shadowBlurOuter1"></feGaussianBlur>
            <feColorMatrix values="0 0 0 0 0   0 0 0 0 0   0 0 0 0 0  0 0 0 0.24 0" type="matrix" in="shadowBlurOuter1" result="shadowMatrixOuter1"></feColorMatrix>
            <feMerge>
                <feMergeNode in="shadowMatrixOuter1"></feMergeNode>
                <feMergeNode in="SourceGraphic"></feMergeNode>
            </feMerge>
        </filter>
        <filter x="-14.4%" y="-10.2%" width="128.8%" height="120.4%" filterUnits="objectBoundingBox" id="filter-7">
            <feOffset dx="0" dy="4" in="SourceAlpha" result="shadowOffsetOuter1"></feOffset>
            <feGaussianBlur stdDeviation="4" in="shadowOffsetOuter1" result="shadowBlurOuter1"></feGaussianBlur>
            <feColorMatrix values="0 0 0 0 0   0 0 0 0 0   0 0 0 0 0  0 0 0 0.24 0" type="matrix" in="shadowBlurOuter1" result="shadowMatrixOuter1"></feColorMatrix>
            <feMerge>
                <feMergeNode in="shadowMatrixOuter1"></feMergeNode>
                <feMergeNode in="SourceGraphic"></feMergeNode>
            </feMerge>
        </filter>
        <filter x="-14.4%" y="-10.2%" width="128.8%" height="120.4%" filterUnits="objectBoundingBox" id="filter-8">
            <feOffset dx="0" dy="4" in="SourceAlpha" result="shadowOffsetOuter1"></feOffset>
            <feGaussianBlur stdDeviation="4" in="shadowOffsetOuter1" result="shadowBlurOuter1"></feGaussianBlur>
            <feColorMatrix values="0 0 0 0 0   0 0 0 0 0   0 0 0 0 0  0 0 0 0.24 0" type="matrix" in="shadowBlurOuter1" result="shadowMatrixOuter1"></feColorMatrix>
            <feMerge>
                <feMergeNode in="shadowMatrixOuter1"></feMergeNode>
                <feMergeNode in="SourceGraphic"></feMergeNode>
            </feMerge>
        </filter>
        <filter x="-14.7%" y="-10.3%" width="129.5%" height="120.5%" filterUnits="objectBoundingBox" id="filter-9">
            <feOffset dx="0" dy="4" in="SourceAlpha" result="shadowOffsetOuter1"></feOffset>
            <feGaussianBlur stdDeviation="4" in="shadowOffsetOuter1" result="shadowBlurOuter1"></feGaussianBlur>
            <feColorMatrix values="0 0 0 0 0   0 0 0 0 0   0 0 0 0 0  0 0 0 0.24 0" type="matrix" in="shadowBlurOuter1" result="shadowMatrixOuter1"></feColorMatrix>
            <feMerge>
                <feMergeNode in="shadowMatrixOuter1"></feMergeNode>
                <feMergeNode in="SourceGraphic"></feMergeNode>
            </feMerge>
        </filter>
    </defs>
    <g id="Page-1" stroke="none" stroke-width="1" fill="none" fill-rule="evenodd">
        <g id="Group" transform="translate(7.000000, 3.000000)">
            <g filter="url(#filter-1)" opacity="0.495893787" transform="translate(671.000000, 8.000000)" fill="#F2F2F2" fill-rule="nonzero" id="Rectangle">
                <rect transform="translate(83.866650, 115.144415) rotate(-6.000000) translate(-83.866650, -115.144415) " x="11.8666505" y="7.14441534" width="144" height="216" rx="8"></rect>
            </g>
            <g filter="url(#filter-2)" opacity="0.495893787" transform="translate(543.000000, 29.000000)" fill="#F2F2F2" fill-rule="nonzero" id="Rectangle">
                <rect transform="translate(79.357912, 112.759384) rotate(4.000000) translate(-79.357912, -112.759384) " x="7.35791245" y="4.75938354" width="144" height="216" rx="8"></rect>
            </g>
            <g filter="url(#filter-3)" opacity="0.495893787" fill="#F2F2F2" fill-rule="nonzero" id="Rectangle">
                <rect transform="translate(86.329996, 116.969388) rotate(-8.000000) translate(-86.329996, -116.969388) " x="14.3299959" y="8.96938815" width="144" height="216" rx="8"></rect>
            </g>
            <g filter="url(#filter-4)" opacity="0.495893787" transform="translate(367.000000, 76.000000)" fill="#F2F2F2" fill-rule="nonzero" id="Rectangle">
                <rect transform="translate(89.660161, 118.861569) rotate(-10.000000) translate(-89.660161, -118.861569) " x="17.6601614" y="10.8615685" width="144" height="216" rx="8"></rect>
            </g>
            <g filter="url(#filter-5)" opacity="0.495893787" transform="translate(112.000000, 50.000000)" fill="#F2F2F2" fill-rule="nonzero" id="Rectangle">
                <rect transform="translate(80.330012, 112.969384) rotate(4.000000) translate(-80.330012, -112.969384) " x="8.33001245" y="4.96938354" width="144" height="216" rx="8"></rect>
            </g>
            <g filter="url(#filter-6)" opacity="0.8" transform="translate(208.000000, 4.000000)">
                <g fill="#F2F2F2" fill-rule="nonzero" id="Rectangle">
                    <rect transform="translate(80.329912, 112.969404) rotate(4.000000) translate(-80.329912, -112.969404) " x="8.32991245" y="4.96940354" width="144" height="216" rx="8"></rect>
                </g>
                <path d="M43.31,24.1707 L44.256,24.2368 L44.479,21.0407 L47.807,21.2734 L47.866,20.4354 L44.538,20.2027 L44.711,17.7248 L48.254,17.9725 L48.313,17.1346 L43.824,16.8207 L43.31,24.1707 Z M53.595,22.2194 C53.709,20.5914 52.795,19.3847 51.346,19.2834 C49.886,19.1813 48.825,20.2498 48.711,21.8779 C48.597,23.5059 49.499,24.7118 50.959,24.8139 C52.408,24.9152 53.481,23.8474 53.595,22.2194 Z M52.685,22.1558 C52.604,23.3169 51.972,24.0908 51.015,24.0238 C50.057,23.9568 49.539,23.1026 49.621,21.9415 C49.702,20.7803 50.333,20.0065 51.291,20.0735 C52.249,20.1404 52.766,20.9946 52.685,22.1558 Z M58.862,25.2582 L59.234,19.9432 L58.324,19.8796 L58.072,23.4828 C57.84,24.044 57.296,24.427 56.674,24.3834 C55.872,24.3274 55.549,23.7875 55.601,23.0453 L55.834,19.7055 L54.924,19.6419 L54.681,23.1254 C54.6,24.2865 55.192,25.1098 56.401,25.1944 C57.083,25.2421 57.671,24.9223 57.999,24.5242 L57.952,25.1946 L58.862,25.2582 Z M60.83,20.0548 L60.458,25.3698 L61.356,25.4326 L61.608,21.8294 C61.839,21.2682 62.407,20.8869 63.03,20.9304 C63.832,20.9865 64.167,21.5272 64.115,22.2694 L63.882,25.6092 L64.791,25.6728 L65.035,22.1893 C65.116,21.0282 64.512,20.204 63.303,20.1195 C62.621,20.0718 62.021,20.3907 61.681,20.7879 L61.727,20.1176 L60.83,20.0548 Z M69.866,25.4021 L69.822,26.0246 L70.732,26.0882 L71.276,18.3072 L70.366,18.2436 L70.15,21.3321 C69.914,20.9306 69.363,20.5433 68.705,20.4972 C67.149,20.3884 66.222,21.5987 66.117,23.0951 C66.012,24.6034 66.762,25.9189 68.318,26.0277 C68.977,26.0738 69.576,25.7668 69.866,25.4021 Z M70.083,22.2897 L69.933,24.4445 C69.619,24.9759 69.07,25.2623 68.507,25.2229 C67.489,25.1518 66.949,24.2839 67.027,23.1587 C67.106,22.0334 67.762,21.2493 68.78,21.3205 C69.342,21.3598 69.847,21.7198 70.083,22.2897 Z M75.527,22.8749 L75.479,23.5692 C75.265,23.3498 74.731,23.0839 74.18,23.0454 C73.043,22.9658 72.11,23.5743 72.041,24.5678 C71.967,25.6213 72.808,26.3296 73.897,26.4058 C74.519,26.4493 75.089,26.2125 75.308,26.0113 L75.28,26.4063 L76.154,26.4674 L76.406,22.8642 C76.485,21.7389 75.791,20.9927 74.534,20.9048 C73.876,20.8588 73.228,21.006 72.851,21.2323 L72.792,22.0822 C73.255,21.8258 73.746,21.6798 74.333,21.7208 C75.111,21.7752 75.573,22.2165 75.527,22.8749 Z M75.411,24.5389 L75.372,25.0895 C75.201,25.4745 74.656,25.701 74.093,25.6617 C73.447,25.6165 72.845,25.2737 72.891,24.6273 C72.935,23.9928 73.577,23.749 74.224,23.7942 C74.787,23.8336 75.295,24.1338 75.411,24.5389 Z M79.139,26.6761 L79.457,22.1272 L80.69,22.2134 L80.743,21.4473 L79.51,21.3611 L79.608,19.9605 L78.71,19.8977 L78.612,21.2983 L77.499,21.2204 L77.446,21.9866 L78.559,22.0644 L78.241,26.6133 L79.139,26.6761 Z M82.979,19.9917 C83.001,19.6685 82.755,19.3987 82.432,19.3761 C82.121,19.3543 81.84,19.5873 81.817,19.9105 C81.796,20.2217 82.041,20.5035 82.352,20.5253 C82.675,20.5479 82.957,20.3029 82.979,19.9917 Z M82.363,26.9016 L82.735,21.5865 L81.837,21.5238 L81.465,26.8388 L82.363,26.9016 Z M88.654,24.671 C88.768,23.0429 87.854,21.8362 86.405,21.7349 C84.945,21.6328 83.884,22.7014 83.77,24.3294 C83.656,25.9575 84.558,27.1633 86.018,27.2654 C87.467,27.3667 88.54,26.299 88.654,24.671 Z M87.744,24.6073 C87.663,25.7685 87.031,26.5423 86.074,26.4754 C85.116,26.4084 84.598,25.5542 84.679,24.393 C84.761,23.2319 85.392,22.458 86.35,22.525 C87.308,22.592 87.825,23.4462 87.744,24.6073 Z M90.055,22.0984 L89.683,27.4135 L90.581,27.4762 L90.833,23.873 C91.065,23.3118 91.633,22.9305 92.255,22.9741 C93.057,23.0301 93.393,23.5708 93.341,24.313 L93.107,27.6529 L94.017,27.7165 L94.26,24.233 C94.342,23.0718 93.738,22.2477 92.529,22.1631 C91.846,22.1154 91.247,22.4344 90.906,22.8316 L90.953,22.1612 L90.055,22.0984 Z" id="Shape" fill="#333333" fill-rule="nonzero"></path>
                <path d="M48.868,132.823 C48.406,139.434 53.391,145.169 60.002,145.631 C66.613,146.093 72.348,141.109 72.81,134.497 C73.272,127.886 68.288,122.152 61.676,121.689 C55.065,121.227 49.331,126.212 48.868,132.823 Z M68.917,104.152 C68.455,110.763 73.44,116.497 80.051,116.96 C86.662,117.422 92.396,112.437 92.859,105.826 C93.321,99.215 88.336,93.48 81.725,93.018 C75.114,92.556 69.38,97.541 68.917,104.152 Z M95.914,148.142 C89.303,147.68 84.318,141.946 84.781,135.334 C85.243,128.723 90.977,123.738 97.589,124.201 C104.2,124.663 109.185,130.397 108.722,137.009 C108.26,143.62 102.526,148.605 95.914,148.142 Z" id="Shape" fill="#00C781"></path>
                <rect id="Rectangle" fill="#00C781" fill-rule="nonzero" transform="translate(32.739845, 19.421823) rotate(4.000000) translate(-32.739845, -19.421823) " x="26.7398455" y="13.4218231" width="12" height="12" rx="6"></rect>
            </g>
            <g filter="url(#filter-7)" opacity="0.8" transform="translate(326.000000, 44.000000)" fill-rule="nonzero">
                <g fill="#F2F2F2" id="Rectangle">
                    <rect transform="translate(80.330311, 112.969351) rotate(-4.000000) translate(-80.330311, -112.969351) " x="8.33031078" y="4.96935132" width="144" height="216" rx="8"></rect>
                </g>
                <path d="M30.624,26.5422 C30.785,28.8406 32.373,30.2211 34.336,30.0839 C35.186,30.0244 35.816,29.7398 36.267,29.3113 L36.197,28.3177 C35.637,28.8983 35.043,29.1804 34.289,29.2331 C32.804,29.3369 31.694,28.2477 31.57,26.4761 C31.446,24.7044 32.394,23.4712 33.879,23.3674 C34.633,23.3147 35.259,23.4994 35.896,24.0082 L35.827,23.0147 C35.32,22.6531 34.657,22.4589 33.807,22.5183 C31.844,22.6556 30.463,24.2438 30.624,26.5422 Z M42.02,26.7678 C41.906,25.1398 40.833,24.072 39.385,24.1733 C37.924,24.2754 37.022,25.4813 37.136,27.1093 C37.25,28.7373 38.311,29.8059 39.771,29.7038 C41.22,29.6025 42.134,28.3958 42.02,26.7678 Z M41.11,26.8314 C41.191,27.9926 40.674,28.8468 39.716,28.9137 C38.758,28.9807 38.127,28.2069 38.046,27.0457 C37.965,25.8845 38.482,25.0303 39.44,24.9634 C40.398,24.8964 41.029,25.6702 41.11,26.8314 Z M46.872,24.5038 C46.586,24.0186 46.047,23.7074 45.376,23.7543 C44.718,23.8004 44.225,24.1476 43.991,24.585 L43.947,23.9625 L43.05,24.0253 L43.421,29.3403 L44.319,29.2775 L44.063,25.6145 C44.19,25.0281 44.631,24.6244 45.17,24.5867 C45.852,24.539 46.21,25.0072 46.262,25.7494 L46.498,29.1252 L47.396,29.0624 L47.139,25.3993 C47.267,24.813 47.708,24.4093 48.246,24.3716 C48.929,24.3239 49.286,24.7921 49.338,25.5343 L49.574,28.91 L50.484,28.8464 L50.238,25.327 C50.158,24.1778 49.506,23.4655 48.429,23.5409 C47.687,23.5928 47.174,24.0015 46.872,24.5038 Z M53.042,30.7125 L52.856,28.055 C53.158,28.4188 53.745,28.7266 54.404,28.6806 C55.972,28.571 56.707,27.2203 56.604,25.7479 C56.501,24.2755 55.585,23.0405 54.017,23.1501 C53.359,23.1962 52.82,23.5826 52.572,23.985 L52.528,23.3625 L51.63,23.4253 L52.144,30.7753 L53.042,30.7125 Z M52.789,27.0974 L52.639,24.9426 C52.875,24.3727 53.38,24.0127 53.942,23.9733 C54.96,23.9022 55.616,24.6863 55.695,25.8116 C55.773,26.9368 55.233,27.8047 54.215,27.8758 C53.652,27.9151 53.103,27.6288 52.789,27.0974 Z M62.349,25.3462 C62.235,23.7182 61.162,22.6505 59.714,22.7517 C58.253,22.8539 57.351,24.0597 57.465,25.6878 C57.579,27.3158 58.64,28.3844 60.101,28.2822 C61.549,28.181 62.463,26.9743 62.349,25.3462 Z M61.439,25.4098 C61.521,26.571 61.003,27.4252 60.045,27.4922 C59.088,27.5591 58.456,26.7853 58.375,25.6241 C58.294,24.463 58.811,23.6088 59.769,23.5418 C60.727,23.4748 61.358,24.2487 61.439,25.4098 Z M63.379,22.6037 L63.751,27.9187 L64.648,27.856 L64.396,24.2528 C64.548,23.6648 65.057,23.2081 65.68,23.1646 C66.482,23.1085 66.889,23.5973 66.941,24.3395 L67.174,27.6793 L68.084,27.6157 L67.84,24.1322 C67.759,22.9711 67.046,22.239 65.837,22.3235 C65.155,22.3713 64.606,22.7706 64.324,23.2113 L64.277,22.5409 L63.379,22.6037 Z M69.935,24.9721 L73.598,24.716 L73.576,24.3928 C73.467,22.8366 72.652,21.847 71.215,21.9475 C69.803,22.0463 68.926,23.2744 69.042,24.9264 C69.159,26.6023 70.261,27.5717 71.794,27.4646 C72.428,27.4202 72.97,27.25 73.377,26.8847 L73.319,26.0587 C72.866,26.4513 72.445,26.6251 71.846,26.667 C70.876,26.7348 70.057,26.2026 69.935,24.9721 Z M71.281,22.7128 C72.143,22.6525 72.585,23.2952 72.675,24.0708 L69.934,24.2625 C70.033,23.2692 70.575,22.7622 71.281,22.7128 Z M74.625,21.8173 L74.997,27.1323 L75.894,27.0696 L75.642,23.4664 C75.794,22.8784 76.303,22.4217 76.926,22.3782 C77.728,22.3221 78.135,22.8109 78.187,23.5531 L78.42,26.8929 L79.33,26.8293 L79.086,23.3458 C79.005,22.1847 78.292,21.4526 77.083,21.5371 C76.401,21.5849 75.852,21.9842 75.57,22.4249 L75.523,21.7545 L74.625,21.8173 Z M82.338,26.619 L82.02,22.0701 L83.253,21.9839 L83.199,21.2178 L81.966,21.304 L81.868,19.9034 L80.97,19.9662 L81.068,21.3668 L79.955,21.4446 L80.009,22.2107 L81.122,22.1329 L81.44,26.6818 L82.338,26.619 Z M84.222,25.1039 L84.289,26.0615 C84.706,26.3452 85.379,26.5146 86.073,26.466 C87.187,26.3882 88.021,25.7645 87.952,24.7829 C87.9,24.0287 87.424,23.5928 86.603,23.3736 L85.77,23.1552 C85.254,23.0108 84.957,22.8872 84.927,22.4563 C84.895,22.0014 85.333,21.7301 85.884,21.6916 C86.53,21.6464 87.039,21.8755 87.508,22.2156 L87.443,21.2819 C86.991,21.0127 86.429,20.8837 85.83,20.9255 C84.777,20.9992 83.99,21.6196 84.055,22.5533 C84.116,23.4152 84.681,23.7606 85.502,23.9678 L86.249,24.1682 C86.727,24.2911 87.042,24.4857 87.069,24.8807 C87.106,25.4074 86.606,25.6589 86.02,25.6999 C85.373,25.7451 84.744,25.5245 84.222,25.1039 Z" id="Shape" fill="#333333"></path>
                <rect id="Rectangle" fill="#7630EA" transform="translate(80.748616, 118.955227) rotate(-4.000000) translate(-80.748616, -118.955227) " x="50.7486157" y="88.9552273" width="60" height="60" rx="4"></rect>
                <rect id="Rectangle" fill="#7630EA" transform="translate(20.183923, 26.955445) rotate(-4.000000) translate(-20.183923, -26.955445) " x="14.1839231" y="20.9554455" width="12" height="12" rx="1"></rect>
            </g>
            <g filter="url(#filter-8)" opacity="0.8" transform="translate(574.000000, 66.000000)">
                <g fill="#F2F2F2" fill-rule="nonzero" id="Rectangle">
                    <rect transform="translate(80.329912, 112.969384) rotate(4.000000) translate(-80.329912, -112.969384) " x="8.32991245" y="4.96938354" width="144" height="216" rx="8"></rect>
                </g>
                <path d="M48.505,17.148 L43.824,16.8207 L43.31,24.1707 L47.991,24.498 L48.05,23.6481 L44.303,23.3861 L44.478,20.8842 L47.878,21.1219 L47.936,20.284 L44.537,20.0462 L44.699,17.7239 L48.446,17.9859 L48.505,17.148 Z M51.974,22.0098 L54.02,19.5786 L53.039,19.51 L51.529,21.3171 L50.321,19.32 L49.292,19.248 L50.966,21.9754 L48.812,24.5555 L49.782,24.6233 L51.411,22.6561 L52.739,24.83 L53.756,24.9012 L51.974,22.0098 Z M56.261,25.0763 L56.579,20.5274 L57.812,20.6137 L57.866,19.8475 L56.633,19.7613 L56.73,18.3607 L55.833,18.2979 L55.735,19.6985 L54.621,19.6207 L54.568,20.3868 L55.681,20.4647 L55.363,25.0135 L56.261,25.0763 Z M59.172,22.7657 L62.835,23.0219 L62.857,22.6987 C62.966,21.1425 62.297,20.0491 60.86,19.9487 C59.448,19.8499 58.409,20.9441 58.293,22.5961 C58.176,24.272 59.133,25.3854 60.665,25.4926 C61.3,25.5369 61.859,25.4438 62.314,25.1387 L62.372,24.3127 C61.868,24.6384 61.427,24.7519 60.828,24.71 C59.858,24.6422 59.121,24.0012 59.172,22.7657 Z M60.819,20.7156 C61.681,20.7759 62.029,21.4739 62.01,22.2545 L59.269,22.0628 C59.505,21.0929 60.112,20.6663 60.819,20.7156 Z M64.255,20.2943 L63.883,25.6093 L64.781,25.6721 L65.033,22.0689 C65.265,21.5077 65.833,21.1264 66.455,21.1699 C67.257,21.226 67.592,21.7667 67.54,22.5089 L67.307,25.8487 L68.217,25.9124 L68.46,22.4289 C68.541,21.2677 67.937,20.4436 66.728,20.359 C66.046,20.3113 65.446,20.6302 65.106,21.0275 L65.153,20.3571 L64.255,20.2943 Z M73.291,25.6417 L73.247,26.2641 L74.157,26.3278 L74.701,18.5468 L73.791,18.4831 L73.576,21.5716 C73.339,21.1701 72.789,20.7828 72.13,20.7367 C70.574,20.6279 69.647,21.8382 69.543,23.3346 C69.437,24.8429 70.187,26.1584 71.743,26.2672 C72.402,26.3133 73.001,26.0063 73.291,25.6417 Z M73.509,22.5293 L73.358,24.684 C73.044,25.2154 72.495,25.5018 71.932,25.4624 C70.915,25.3913 70.374,24.5234 70.452,23.3982 C70.531,22.2729 71.187,21.4888 72.205,21.56 C72.768,21.5993 73.272,21.9594 73.509,22.5293 Z" id="Shape" fill="#333333" fill-rule="nonzero"></path>
                <line x1="26.929" y1="16.5093" x2="34.909" y2="17.0674" id="Path" stroke="#000000" stroke-width="2" stroke-linecap="round"></line>
                <line x1="26.51" y1="22.4947" x2="30.5" y2="22.7737" id="Path" stroke="#000000" stroke-width="2" stroke-linecap="round"></line>
            </g>
            <line x1="625.205" y1="165.405" x2="643.161" y2="166.66" id="Path" stroke="#000000" stroke-width="4" stroke-linecap="round"></line>
            <line x1="623.671" y1="187.351" x2="683.524" y2="191.537" id="Path" stroke="#000000" stroke-width="4" stroke-linecap="round"></line>
            <line x1="622.103" y1="209.775" x2="646.044" y2="211.449" id="Path" stroke="#000000" stroke-width="4" stroke-linecap="round"></line>
            <line x1="653.137" y1="167.358" x2="661.118" y2="167.916" id="Path" stroke="#000000" stroke-width="4" stroke-linecap="round"></line>
            <line x1="624.438" y1="176.378" x2="672.321" y2="179.726" id="Path" stroke="#000000" stroke-width="4" stroke-linecap="round"></line>
            <line x1="622.87" y1="198.801" x2="626.86" y2="199.08" id="Path" stroke="#000000" stroke-width="4" stroke-linecap="round"></line>
            <line x1="636.869" y1="199.301" x2="660.811" y2="200.975" id="Path" stroke="#000000" stroke-width="4" stroke-linecap="round"></line>
            <g filter="url(#filter-9)" opacity="0.8" transform="translate(451.000000, 116.000000)" fill-rule="nonzero">
                <g fill="#F2F2F2" id="Rectangle">
                    <rect transform="translate(77.883610, 111.969801) rotate(-3.000000) translate(-77.883610, -111.969801) " x="5.88360978" y="3.9698009" width="144" height="216" rx="8"></rect>
                </g>
                <path d="M29.417,21.013 L29.461,21.852 L32.025,21.718 L32.367,28.237 L33.314,28.187 L32.972,21.668 L35.536,21.534 L35.493,20.695 L29.417,21.013 Z M36.61,25.503 L40.277,25.311 L40.26,24.987 C40.178,23.429 39.38,22.426 37.942,22.501 C36.528,22.575 35.631,23.788 35.717,25.442 C35.805,27.119 36.89,28.108 38.424,28.027 C39.059,27.994 39.604,27.833 40.018,27.475 L39.974,26.648 C39.514,27.033 39.09,27.2 38.491,27.231 C37.52,27.282 36.71,26.735 36.61,25.503 Z M37.995,23.267 C38.857,23.222 39.288,23.873 39.365,24.65 L36.621,24.793 C36.737,23.802 37.288,23.305 37.995,23.267 Z M45.168,22.976 C44.889,22.486 44.356,22.165 43.685,22.2 C43.026,22.235 42.527,22.573 42.285,23.007 L42.253,22.383 L41.354,22.43 L41.633,27.751 L42.531,27.704 L42.339,24.037 C42.477,23.453 42.925,23.057 43.464,23.029 C44.147,22.993 44.496,23.467 44.535,24.21 L44.712,27.59 L45.611,27.543 L45.419,23.876 C45.557,23.292 46.004,22.896 46.544,22.867 C47.227,22.832 47.576,23.306 47.615,24.049 L47.792,27.428 L48.703,27.381 L48.518,23.857 C48.458,22.707 47.819,21.984 46.741,22.04 C45.998,22.079 45.478,22.479 45.168,22.976 Z M51.228,29.291 L51.088,26.631 C51.384,27 51.966,27.318 52.625,27.283 C54.195,27.201 54.954,25.863 54.876,24.389 C54.799,22.915 53.904,21.665 52.335,21.747 C51.675,21.781 51.13,22.158 50.875,22.556 L50.842,21.933 L49.944,21.98 L50.329,29.338 L51.228,29.291 Z M51.038,25.672 L50.925,23.515 C51.172,22.949 51.682,22.598 52.245,22.569 C53.264,22.515 53.907,23.311 53.966,24.437 C54.025,25.564 53.469,26.422 52.45,26.475 C51.887,26.505 51.343,26.209 51.038,25.672 Z M57.136,26.939 L56.728,19.149 L55.829,19.196 L56.238,26.986 L57.136,26.939 Z M61.517,23.164 L61.553,23.859 C61.315,23.668 60.751,23.469 60.2,23.498 C59.062,23.557 58.21,24.275 58.262,25.269 C58.318,26.324 59.238,26.925 60.329,26.868 C60.952,26.835 61.489,26.53 61.681,26.304 L61.702,26.699 L62.577,26.654 L62.388,23.047 C62.329,21.92 61.549,21.264 60.291,21.33 C59.632,21.364 59.007,21.589 58.66,21.86 L58.705,22.711 C59.133,22.4 59.603,22.195 60.19,22.164 C60.969,22.123 61.482,22.505 61.517,23.164 Z M61.604,24.83 L61.633,25.381 C61.51,25.784 60.996,26.075 60.433,26.105 C59.786,26.139 59.147,25.872 59.113,25.225 C59.08,24.59 59.688,24.269 60.335,24.236 C60.898,24.206 61.439,24.442 61.604,24.83 Z M65.564,26.497 L65.326,21.943 L66.56,21.879 L66.52,21.112 L65.285,21.176 L65.212,19.774 L64.313,19.821 L64.387,21.223 L63.272,21.282 L63.312,22.049 L64.427,21.99 L64.666,26.544 L65.564,26.497 Z M68.172,23.849 L71.839,23.657 L71.822,23.333 C71.74,21.775 70.943,20.772 69.505,20.847 C68.091,20.921 67.193,22.134 67.279,23.788 C67.367,25.465 68.453,26.454 69.986,26.373 C70.622,26.34 71.166,26.179 71.58,25.821 L71.536,24.994 C71.076,25.379 70.652,25.545 70.053,25.577 C69.082,25.628 68.272,25.081 68.172,23.849 Z M69.557,21.613 C70.42,21.568 70.85,22.218 70.927,22.996 L68.183,23.139 C68.299,22.148 68.85,21.65 69.557,21.613 Z M72.858,24.733 L72.908,25.692 C73.32,25.982 73.99,26.164 74.685,26.127 C75.8,26.069 76.645,25.46 76.593,24.477 C76.554,23.722 76.086,23.278 75.269,23.044 L74.439,22.811 C73.927,22.658 73.631,22.529 73.609,22.098 C73.585,21.643 74.028,21.379 74.579,21.35 C75.226,21.316 75.731,21.554 76.194,21.902 L76.145,20.968 C75.698,20.691 75.138,20.552 74.539,20.583 C73.484,20.638 72.687,21.245 72.736,22.18 C72.781,23.043 73.341,23.398 74.157,23.619 L74.901,23.833 C75.377,23.964 75.688,24.164 75.709,24.559 C75.736,25.087 75.232,25.329 74.645,25.36 C73.998,25.394 73.373,25.162 72.858,24.733 Z" id="Shape" fill="#333333"></path>
            </g>
            <path d="M530.914,232.528 C529.76,232.024 528.436,232.094 527.341,232.715 L500.776,247.784 L501.763,249.524 L500.776,247.784 C498.626,249.004 498.791,252.155 501.057,253.143 L529.051,265.353 C530.205,265.857 531.529,265.787 532.624,265.166 L559.189,250.097 C561.339,248.877 561.174,245.726 558.908,244.738 L530.914,232.528 Z" id="Path" stroke="#F2F2F2" stroke-width="4" fill="#FF8300" fill-rule="nonzero"></path>
            <path d="M530.076,216.55 C528.922,216.046 527.599,216.116 526.504,216.737 L499.939,231.806 L500.926,233.546 L499.939,231.806 C497.789,233.026 497.954,236.177 500.22,237.165 L528.214,249.375 C529.368,249.879 530.692,249.809 531.787,249.188 L558.351,234.119 C560.502,232.899 560.336,229.748 558.07,228.76 L530.076,216.55 Z" id="Path" stroke="#F2F2F2" stroke-width="4" fill="#FF8300" fill-rule="nonzero"></path>
            <path d="M529.239,200.572 C528.085,200.068 526.761,200.138 525.666,200.759 L499.102,215.828 L500.089,217.568 L499.102,215.828 C496.951,217.048 497.117,220.199 499.383,221.187 L527.377,233.397 C528.531,233.901 529.854,233.831 530.95,233.21 L557.514,218.141 C559.664,216.921 559.499,213.77 557.233,212.782 L529.239,200.572 Z" id="Path" stroke="#F2F2F2" stroke-width="4" fill="#FF8300" fill-rule="nonzero"></path>
            <path d="M469.317,136.669 C469.686,136.258 470.318,136.225 470.729,136.595 L475.548,140.934 C475.959,141.304 475.992,141.936 475.622,142.347 L471.283,147.166 C470.913,147.577 470.281,147.61 469.871,147.24 L465.051,142.901 C464.641,142.531 464.607,141.899 464.977,141.488 L469.317,136.669 Z" id="Path" fill="#FF8300" fill-rule="nonzero"></path>
        </g>
    </g>
</svg>