<svg width="336" height="192" viewBox="0 0 336 192" fill="none" xmlns="http://www.w3.org/2000/svg">
<path d="M24.8279 28.9479V40H32.6759V37.498H27.7259V28.9479H24.8279Z" fill="#444444"/>
<path d="M36.9557 29.7039C36.9557 28.768 36.2177 28.174 35.3537 28.174C34.4897 28.174 33.7517 28.768 33.7517 29.7039C33.7517 30.6219 34.4897 31.216 35.3537 31.216C36.2177 31.216 36.9557 30.6219 36.9557 29.7039ZM36.7577 40V31.9H33.9317V40H36.7577Z" fill="#444444"/>
<path d="M38.003 37.03V39.406C38.759 39.91 39.947 40.18 41.081 40.18C43.079 40.18 44.573 39.334 44.573 37.606C44.573 36.238 43.871 35.518 42.107 35.05L41.369 34.834C40.973 34.7259 40.739 34.6179 40.739 34.3119C40.739 33.9879 41.063 33.8259 41.549 33.8259C42.467 33.8259 43.331 34.2039 44.105 34.762V32.4399C43.313 31.9539 42.431 31.72 41.279 31.72C39.371 31.72 37.967 32.674 37.967 34.3659C37.967 35.8239 38.921 36.526 40.415 36.8499L41.045 37.012C41.531 37.12 41.783 37.2459 41.783 37.57C41.783 37.9299 41.423 38.056 40.865 38.056C40.037 38.056 38.777 37.66 38.003 37.03Z" fill="#444444"/>
<path d="M49.4003 40V34.096H50.9843V31.9H49.4003V29.668H46.5923V31.9H45.1883V34.096H46.5923V40H49.4003Z" fill="#444444"/>
<path d="M58.5931 40V28.9479H55.6951V40H58.5931Z" fill="#444444"/>
<path d="M63.9198 40V34.096H65.5038V31.9H63.9198V29.668H61.1118V31.9H59.7078V34.096H61.1118V40H63.9198Z" fill="#444444"/>
<path d="M68.7728 36.5979H73.7588V35.7699C73.7588 33.3579 72.4808 31.72 69.9608 31.72C67.7288 31.72 66.0368 33.466 66.0368 36.004C66.0368 38.614 67.8008 40.18 70.3928 40.18C71.5628 40.18 72.5528 39.9279 73.1828 39.4599V37.318C72.3728 37.804 71.7068 37.966 70.8428 37.966C69.7988 37.966 69.0068 37.57 68.7728 36.5979ZM70.0688 33.8619C70.7528 33.8619 71.1668 34.3299 71.2388 35.014H68.8088C69.0068 34.276 69.4568 33.8619 70.0688 33.8619Z" fill="#444444"/>
<path d="M82.0347 32.6919C81.5487 32.1159 80.8287 31.72 79.8027 31.72C78.9027 31.72 78.1287 32.062 77.7147 32.566V31.9H74.8887V40H77.7147V35.068C77.8407 34.51 78.2727 34.2039 78.7587 34.2039C79.3887 34.2039 79.6767 34.6899 79.6767 35.374V40H82.4847V35.068C82.6287 34.51 83.0427 34.2039 83.5287 34.2039C84.1587 34.2039 84.4467 34.6899 84.4467 35.374V40H87.2727V34.6899C87.2727 32.8719 86.2287 31.72 84.5367 31.72C83.3487 31.72 82.5207 32.188 82.0347 32.6919Z" fill="#444444"/>
<path d="M294 32L300 38L306 32" stroke="#444444" stroke-width="2" stroke-linecap="round" stroke-linejoin="round"/>
<path opacity="0.5" d="M12 17H324" stroke="white" stroke-width="2"/>
<path d="M24.6561 100.872V102.232C25.3281 102.76 26.4161 103.144 27.7441 103.144C29.6481 103.144 31.0561 102.136 31.0561 100.456C31.0561 99.096 30.3841 98.312 28.8801 97.736L27.3281 97.128C26.4161 96.776 25.8561 96.424 25.8561 95.592C25.8561 94.616 26.7041 94.136 27.7921 94.136C28.9281 94.136 29.8081 94.536 30.5921 95.16V93.832C29.8561 93.32 28.8481 93.032 27.7761 93.032C26.0801 93.032 24.6241 93.912 24.6241 95.608C24.6241 97.16 25.6801 97.816 26.8321 98.264L28.2721 98.824C29.3121 99.256 29.8401 99.608 29.8401 100.472C29.8401 101.48 29.0081 102.024 27.7441 102.024C26.5921 102.024 25.5681 101.656 24.6561 100.872Z" fill="#444444"/>
<path d="M38.4392 103V95.896H37.2232V100.712C36.9672 101.48 36.2792 102.04 35.4472 102.04C34.3752 102.04 33.8952 101.352 33.8952 100.36V95.896H32.6792V100.552C32.6792 102.104 33.5432 103.144 35.1592 103.144C36.0712 103.144 36.8232 102.664 37.2232 102.104V103H38.4392Z" fill="#444444"/>
<path d="M40.1561 101.16V102.44C40.6841 102.856 41.5641 103.144 42.4921 103.144C43.9801 103.144 45.1481 102.392 45.1481 101.08C45.1481 100.072 44.5561 99.448 43.4841 99.08L42.3961 98.712C41.7241 98.472 41.3401 98.28 41.3401 97.704C41.3401 97.096 41.9481 96.776 42.6841 96.776C43.5481 96.776 44.2041 97.128 44.7961 97.624V96.376C44.2201 95.976 43.4841 95.752 42.6841 95.752C41.2761 95.752 40.1721 96.504 40.1721 97.752C40.1721 98.904 40.8921 99.416 41.9641 99.768L42.9401 100.104C43.5641 100.312 43.9641 100.6 43.9641 101.128C43.9641 101.832 43.2761 102.12 42.4921 102.12C41.6281 102.12 40.8121 101.768 40.1561 101.16Z" fill="#444444"/>
<path d="M48.7904 103V96.92H50.4384V95.896H48.7904V94.024H47.5904V95.896H46.1024V96.92H47.5904V103H48.7904Z" fill="#444444"/>
<path d="M55.6959 98.28V99.208C55.3919 98.936 54.6559 98.632 53.9199 98.632C52.3999 98.632 51.2159 99.528 51.2159 100.856C51.2159 102.264 52.3999 103.128 53.8559 103.128C54.6879 103.128 55.4239 102.76 55.6959 102.472V103H56.8639V98.184C56.8639 96.68 55.8719 95.752 54.1919 95.752C53.3119 95.752 52.4639 96.008 51.9839 96.344V97.48C52.5759 97.096 53.2159 96.856 53.9999 96.856C55.0399 96.856 55.6959 97.4 55.6959 98.28ZM55.6959 100.504V101.24C55.5039 101.768 54.7999 102.12 54.0479 102.12C53.1839 102.12 52.3519 101.72 52.3519 100.856C52.3519 100.008 53.1839 99.624 54.0479 99.624C54.7999 99.624 55.5039 99.976 55.6959 100.504Z" fill="#444444"/>
<path d="M60.2918 93.752C60.2918 93.32 59.9398 92.984 59.5078 92.984C59.0918 92.984 58.7398 93.32 58.7398 93.752C58.7398 94.168 59.0918 94.52 59.5078 94.52C59.9398 94.52 60.2918 94.168 60.2918 93.752ZM60.1158 103V95.896H58.9158V103H60.1158Z" fill="#444444"/>
<path d="M62.2596 95.896V103H63.4596V98.184C63.7156 97.416 64.4356 96.856 65.2676 96.856C66.3396 96.856 66.8356 97.544 66.8356 98.536V103H68.0516V98.344C68.0516 96.792 67.1716 95.752 65.5556 95.752C64.6436 95.752 63.8756 96.232 63.4596 96.792V95.896H62.2596Z" fill="#444444"/>
<path d="M74.0397 98.28V99.208C73.7357 98.936 72.9997 98.632 72.2637 98.632C70.7437 98.632 69.5597 99.528 69.5597 100.856C69.5597 102.264 70.7437 103.128 72.1997 103.128C73.0317 103.128 73.7677 102.76 74.0397 102.472V103H75.2077V98.184C75.2077 96.68 74.2157 95.752 72.5357 95.752C71.6557 95.752 70.8077 96.008 70.3277 96.344V97.48C70.9197 97.096 71.5597 96.856 72.3437 96.856C73.3837 96.856 74.0397 97.4 74.0397 98.28ZM74.0397 100.504V101.24C73.8477 101.768 73.1437 102.12 72.3917 102.12C71.5277 102.12 70.6957 101.72 70.6957 100.856C70.6957 100.008 71.5277 99.624 72.3917 99.624C73.1437 99.624 73.8477 99.976 74.0397 100.504Z" fill="#444444"/>
<path d="M78.4596 103V102.168C78.8116 102.68 79.5796 103.144 80.4596 103.144C82.5396 103.144 83.6596 101.464 83.6596 99.448C83.6596 97.448 82.5396 95.752 80.4596 95.752C79.5796 95.752 78.8116 96.216 78.4596 96.728V92.6H77.2436V103H78.4596ZM78.4596 100.888V98.008C78.8276 97.272 79.5316 96.84 80.2836 96.84C81.6436 96.84 82.4436 97.944 82.4436 99.448C82.4436 100.952 81.6436 102.056 80.2836 102.056C79.5316 102.056 78.8276 101.624 78.4596 100.888Z" fill="#444444"/>
<path d="M86.4908 103V92.6H85.2908V103H86.4908Z" fill="#444444"/>
<path d="M89.3066 99.656H94.2026V99.224C94.2026 97.144 93.2106 95.752 91.2906 95.752C89.4026 95.752 88.1226 97.304 88.1226 99.512C88.1226 101.752 89.4986 103.144 91.5466 103.144C92.3946 103.144 93.1306 102.968 93.7066 102.52V101.416C93.0666 101.896 92.4906 102.088 91.6906 102.088C90.3946 102.088 89.3546 101.304 89.3066 99.656ZM91.3066 96.776C92.4586 96.776 92.9866 97.672 93.0346 98.712H89.3706C89.5946 97.4 90.3626 96.776 91.3066 96.776Z" fill="#444444"/>
<path d="M99.3689 95.896V103H100.569V98.184C100.825 97.416 101.545 96.856 102.377 96.856C103.449 96.856 103.945 97.544 103.945 98.536V103H105.161V98.344C105.161 96.792 104.281 95.752 102.665 95.752C101.753 95.752 100.985 96.232 100.569 96.792V95.896H99.3689Z" fill="#444444"/>
<path d="M107.869 99.656H112.765V99.224C112.765 97.144 111.773 95.752 109.853 95.752C107.965 95.752 106.685 97.304 106.685 99.512C106.685 101.752 108.061 103.144 110.109 103.144C110.957 103.144 111.693 102.968 112.269 102.52V101.416C111.629 101.896 111.053 102.088 110.253 102.088C108.957 102.088 107.917 101.304 107.869 99.656ZM109.869 96.776C111.021 96.776 111.549 97.672 111.597 98.712H107.933C108.157 97.4 108.925 96.776 109.869 96.776Z" fill="#444444"/>
<path d="M120.064 103V95.896H118.848V100.712C118.592 101.48 117.904 102.04 117.072 102.04C116 102.04 115.52 101.352 115.52 100.36V95.896H114.304V100.552C114.304 102.104 115.168 103.144 116.784 103.144C117.696 103.144 118.448 102.664 118.848 102.104V103H120.064Z" fill="#444444"/>
<path d="M124.181 103V96.92H125.829V95.896H124.181V94.024H122.981V95.896H121.493V96.92H122.981V103H124.181Z" fill="#444444"/>
<path d="M130.939 97.096V95.864C130.811 95.8 130.555 95.752 130.251 95.752C129.467 95.752 128.795 96.216 128.491 96.824V95.896H127.291V103H128.491V98.232C128.731 97.4 129.387 96.904 130.139 96.904C130.443 96.904 130.747 96.968 130.939 97.096Z" fill="#444444"/>
<path d="M136.196 98.28V99.208C135.892 98.936 135.156 98.632 134.42 98.632C132.9 98.632 131.716 99.528 131.716 100.856C131.716 102.264 132.9 103.128 134.356 103.128C135.188 103.128 135.924 102.76 136.196 102.472V103H137.364V98.184C137.364 96.68 136.372 95.752 134.692 95.752C133.812 95.752 132.964 96.008 132.484 96.344V97.48C133.076 97.096 133.716 96.856 134.5 96.856C135.54 96.856 136.196 97.4 136.196 98.28ZM136.196 100.504V101.24C136.004 101.768 135.3 102.12 134.548 102.12C133.684 102.12 132.852 101.72 132.852 100.856C132.852 100.008 133.684 99.624 134.548 99.624C135.3 99.624 136.004 99.976 136.196 100.504Z" fill="#444444"/>
<path d="M143.619 99.656H148.515V99.224C148.515 97.144 147.523 95.752 145.603 95.752C143.715 95.752 142.435 97.304 142.435 99.512C142.435 101.752 143.811 103.144 145.859 103.144C146.707 103.144 147.443 102.968 148.019 102.52V101.416C147.379 101.896 146.803 102.088 146.003 102.088C144.707 102.088 143.667 101.304 143.619 99.656ZM145.619 96.776C146.771 96.776 147.299 97.672 147.347 98.712H143.683C143.907 97.4 144.675 96.776 145.619 96.776Z" fill="#444444"/>
<path d="M149.638 99.448C149.638 101.72 151.142 103.144 153.062 103.144C153.75 103.144 154.47 102.984 154.966 102.552V101.336C154.454 101.848 153.83 102.072 153.142 102.072C151.878 102.072 150.854 101.08 150.854 99.448C150.854 97.816 151.878 96.824 153.142 96.824C153.83 96.824 154.454 97.048 154.966 97.56V96.344C154.47 95.912 153.75 95.752 153.062 95.752C151.142 95.752 149.638 97.176 149.638 99.448Z" fill="#444444"/>
<path d="M156.635 92.6V103H157.835V98.184C158.091 97.416 158.811 96.856 159.643 96.856C160.715 96.856 161.211 97.544 161.211 98.536V103H162.427V98.344C162.427 96.792 161.547 95.752 159.931 95.752C159.019 95.752 158.251 96.232 157.835 96.792V92.6H156.635Z" fill="#444444"/>
<path d="M170.479 99.448C170.479 97.272 169.151 95.752 167.215 95.752C165.263 95.752 163.951 97.272 163.951 99.448C163.951 101.624 165.263 103.144 167.215 103.144C169.151 103.144 170.479 101.624 170.479 99.448ZM169.263 99.448C169.263 101 168.495 102.088 167.215 102.088C165.935 102.088 165.167 101 165.167 99.448C165.167 97.896 165.935 96.808 167.215 96.808C168.495 96.808 169.263 97.896 169.263 99.448Z" fill="#444444"/>
<path d="M176.835 105.72V102.168C177.203 102.68 177.955 103.144 178.835 103.144C180.931 103.144 182.035 101.416 182.035 99.448C182.035 97.48 180.931 95.752 178.835 95.752C177.955 95.752 177.203 96.216 176.835 96.728V95.896H175.635V105.72H176.835ZM176.835 100.888V98.008C177.203 97.272 177.907 96.84 178.659 96.84C180.019 96.84 180.819 97.944 180.819 99.448C180.819 100.952 180.019 102.056 178.659 102.056C177.907 102.056 177.203 101.624 176.835 100.888Z" fill="#444444"/>
<path d="M187.618 98.28V99.208C187.314 98.936 186.578 98.632 185.842 98.632C184.322 98.632 183.138 99.528 183.138 100.856C183.138 102.264 184.322 103.128 185.778 103.128C186.61 103.128 187.346 102.76 187.618 102.472V103H188.786V98.184C188.786 96.68 187.794 95.752 186.114 95.752C185.234 95.752 184.386 96.008 183.906 96.344V97.48C184.498 97.096 185.138 96.856 185.922 96.856C186.962 96.856 187.618 97.4 187.618 98.28ZM187.618 100.504V101.24C187.426 101.768 186.722 102.12 185.97 102.12C185.106 102.12 184.274 101.72 184.274 100.856C184.274 100.008 185.106 99.624 185.97 99.624C186.722 99.624 187.426 99.976 187.618 100.504Z" fill="#444444"/>
<path d="M194.486 97.096V95.864C194.358 95.8 194.102 95.752 193.798 95.752C193.014 95.752 192.342 96.216 192.038 96.824V95.896H190.838V103H192.038V98.232C192.278 97.4 192.934 96.904 193.686 96.904C193.99 96.904 194.294 96.968 194.486 97.096Z" fill="#444444"/>
<path d="M201.946 103L198.394 99.144L201.882 95.896H200.33L197.178 98.888V92.6H195.978V103H197.178V99.48L200.458 103H201.946Z" fill="#444444"/>
<path d="M206.635 92.6V103H207.835V98.184C208.091 97.416 208.811 96.856 209.643 96.856C210.715 96.856 211.211 97.544 211.211 98.536V103H212.427V98.344C212.427 96.792 211.547 95.752 209.931 95.752C209.019 95.752 208.251 96.232 207.835 96.792V92.6H206.635Z" fill="#444444"/>
<path d="M215.135 99.656H220.031V99.224C220.031 97.144 219.039 95.752 217.119 95.752C215.231 95.752 213.951 97.304 213.951 99.512C213.951 101.752 215.327 103.144 217.375 103.144C218.223 103.144 218.959 102.968 219.535 102.52V101.416C218.895 101.896 218.319 102.088 217.519 102.088C216.223 102.088 215.183 101.304 215.135 99.656ZM217.135 96.776C218.287 96.776 218.815 97.672 218.863 98.712H215.199C215.423 97.4 216.191 96.776 217.135 96.776Z" fill="#444444"/>
<path d="M222.866 103V92.6H221.666V103H222.866Z" fill="#444444"/>
<path d="M226.978 103H228.162L230.93 95.896H229.666L227.602 101.48L225.522 95.896H224.226L226.978 103Z" fill="#444444"/>
<path d="M232.838 99.656H237.734V99.224C237.734 97.144 236.742 95.752 234.822 95.752C232.934 95.752 231.654 97.304 231.654 99.512C231.654 101.752 233.03 103.144 235.078 103.144C235.926 103.144 236.662 102.968 237.238 102.52V101.416C236.598 101.896 236.022 102.088 235.222 102.088C233.926 102.088 232.886 101.304 232.838 99.656ZM234.838 96.776C235.99 96.776 236.518 97.672 236.566 98.712H232.902C233.126 97.4 233.894 96.776 234.838 96.776Z" fill="#444444"/>
<path d="M241.275 103V96.92H242.923V95.896H241.275V94.024H240.075V95.896H238.587V96.92H240.075V103H241.275Z" fill="#444444"/>
<path d="M245.761 93.752C245.761 93.32 245.409 92.984 244.977 92.984C244.561 92.984 244.209 93.32 244.209 93.752C244.209 94.168 244.561 94.52 244.977 94.52C245.409 94.52 245.761 94.168 245.761 93.752ZM245.585 103V95.896H244.385V103H245.585Z" fill="#444444"/>
<path d="M247.216 99.448C247.216 101.72 248.72 103.144 250.64 103.144C251.328 103.144 252.048 102.984 252.544 102.552V101.336C252.032 101.848 251.408 102.072 250.72 102.072C249.456 102.072 248.432 101.08 248.432 99.448C248.432 97.816 249.456 96.824 250.72 96.824C251.408 96.824 252.032 97.048 252.544 97.56V96.344C252.048 95.912 251.328 95.752 250.64 95.752C248.72 95.752 247.216 97.176 247.216 99.448Z" fill="#444444"/>
<path d="M258.196 98.28V99.208C257.892 98.936 257.156 98.632 256.42 98.632C254.9 98.632 253.716 99.528 253.716 100.856C253.716 102.264 254.9 103.128 256.356 103.128C257.188 103.128 257.924 102.76 258.196 102.472V103H259.364V98.184C259.364 96.68 258.372 95.752 256.692 95.752C255.812 95.752 254.964 96.008 254.484 96.344V97.48C255.076 97.096 255.716 96.856 256.5 96.856C257.54 96.856 258.196 97.4 258.196 98.28ZM258.196 100.504V101.24C258.004 101.768 257.3 102.12 256.548 102.12C255.684 102.12 254.852 101.72 254.852 100.856C254.852 100.008 255.684 99.624 256.548 99.624C257.3 99.624 258.004 99.976 258.196 100.504Z" fill="#444444"/>
<path d="M28.6241 112.704V111.616C28.3521 111.504 28.0801 111.456 27.6961 111.456C26.4481 111.456 25.5201 112.288 25.5201 113.712V114.896H24.3201V115.92H25.5201V122H26.7041V115.92H28.3041V114.896H26.7041V113.808C26.7041 112.96 27.1681 112.512 27.8721 112.512C28.1281 112.512 28.4001 112.56 28.6241 112.704Z" fill="#444444"/>
<path d="M33.3451 116.096V114.864C33.2171 114.8 32.9611 114.752 32.6571 114.752C31.8731 114.752 31.2011 115.216 30.8971 115.824V114.896H29.6971V122H30.8971V117.232C31.1371 116.4 31.7931 115.904 32.5451 115.904C32.8491 115.904 33.1531 115.968 33.3451 116.096Z" fill="#444444"/>
<path d="M35.3066 118.656H40.2026V118.224C40.2026 116.144 39.2106 114.752 37.2906 114.752C35.4026 114.752 34.1226 116.304 34.1226 118.512C34.1226 120.752 35.4986 122.144 37.5466 122.144C38.3946 122.144 39.1306 121.968 39.7066 121.52V120.416C39.0666 120.896 38.4906 121.088 37.6906 121.088C36.3946 121.088 35.3546 120.304 35.3066 118.656ZM37.3066 115.776C38.4586 115.776 38.9866 116.672 39.0346 117.712H35.3706C35.5946 116.4 36.3626 115.776 37.3066 115.776Z" fill="#444444"/>
<path d="M42.5097 118.656H47.4057V118.224C47.4057 116.144 46.4137 114.752 44.4937 114.752C42.6057 114.752 41.3257 116.304 41.3257 118.512C41.3257 120.752 42.7017 122.144 44.7497 122.144C45.5977 122.144 46.3337 121.968 46.9097 121.52V120.416C46.2697 120.896 45.6937 121.088 44.8937 121.088C43.5977 121.088 42.5577 120.304 42.5097 118.656ZM44.5097 115.776C45.6617 115.776 46.1897 116.672 46.2377 117.712H42.5737C42.7977 116.4 43.5657 115.776 44.5097 115.776Z" fill="#444444"/>
<path d="M53.6808 121.056V121.52C53.6808 123.04 52.6888 123.792 51.4248 123.792C50.5928 123.792 49.8408 123.568 49.1368 122.912V124.24C49.6808 124.624 50.5128 124.88 51.4248 124.88C53.1208 124.88 54.8968 123.92 54.8968 121.44V114.896H53.6808V115.696C53.3288 115.2 52.5768 114.752 51.6968 114.752C49.6168 114.752 48.5288 116.48 48.5288 118.384C48.5288 120.288 49.6168 122.016 51.6968 122.016C52.5768 122.016 53.3288 121.552 53.6808 121.056ZM53.6808 116.928V119.824C53.3128 120.496 52.6408 120.928 51.8728 120.928C50.5288 120.928 49.7448 119.856 49.7448 118.384C49.7448 116.896 50.5288 115.824 51.8728 115.824C52.6408 115.824 53.3128 116.256 53.6808 116.928Z" fill="#444444"/>
<path d="M60.9772 117.28V118.208C60.6732 117.936 59.9372 117.632 59.2012 117.632C57.6812 117.632 56.4972 118.528 56.4972 119.856C56.4972 121.264 57.6812 122.128 59.1372 122.128C59.9692 122.128 60.7052 121.76 60.9772 121.472V122H62.1452V117.184C62.1452 115.68 61.1532 114.752 59.4732 114.752C58.5932 114.752 57.7452 115.008 57.2652 115.344V116.48C57.8572 116.096 58.4972 115.856 59.2812 115.856C60.3212 115.856 60.9772 116.4 60.9772 117.28ZM60.9772 119.504V120.24C60.7852 120.768 60.0812 121.12 59.3292 121.12C58.4652 121.12 57.6332 120.72 57.6332 119.856C57.6332 119.008 58.4652 118.624 59.3292 118.624C60.0812 118.624 60.7852 118.976 60.9772 119.504Z" fill="#444444"/>
<path d="M64.1971 114.896V122H65.3971V117.184C65.6531 116.416 66.3731 115.856 67.2051 115.856C68.2771 115.856 68.7731 116.544 68.7731 117.536V122H69.9891V117.344C69.9891 115.792 69.1091 114.752 67.4931 114.752C66.5811 114.752 65.8131 115.232 65.3971 115.792V114.896H64.1971Z" fill="#444444"/>
<path d="M79.1084 112.704V111.616C78.8364 111.504 78.5644 111.456 78.1804 111.456C76.9324 111.456 76.0044 112.288 76.0044 113.712V114.896H74.8044V115.92H76.0044V122H77.1884V115.92H78.7884V114.896H77.1884V113.808C77.1884 112.96 77.6524 112.512 78.3564 112.512C78.6124 112.512 78.8844 112.56 79.1084 112.704Z" fill="#444444"/>
<path d="M86.0881 118.448C86.0881 116.272 84.7601 114.752 82.8241 114.752C80.8721 114.752 79.5601 116.272 79.5601 118.448C79.5601 120.624 80.8721 122.144 82.8241 122.144C84.7601 122.144 86.0881 120.624 86.0881 118.448ZM84.8721 118.448C84.8721 120 84.1041 121.088 82.8241 121.088C81.5441 121.088 80.7761 120 80.7761 118.448C80.7761 116.896 81.5441 115.808 82.8241 115.808C84.1041 115.808 84.8721 116.896 84.8721 118.448Z" fill="#444444"/>
<path d="M91.3607 116.096V114.864C91.2327 114.8 90.9767 114.752 90.6727 114.752C89.8887 114.752 89.2167 115.216 88.9127 115.824V114.896H87.7127V122H88.9127V117.232C89.1527 116.4 89.8087 115.904 90.5607 115.904C90.8647 115.904 91.1687 115.968 91.3607 116.096Z" fill="#444444"/>
<path d="M96.6178 117.28V118.208C96.3138 117.936 95.5778 117.632 94.8418 117.632C93.3218 117.632 92.1378 118.528 92.1378 119.856C92.1378 121.264 93.3218 122.128 94.7778 122.128C95.6098 122.128 96.3458 121.76 96.6178 121.472V122H97.7858V117.184C97.7858 115.68 96.7938 114.752 95.1138 114.752C94.2338 114.752 93.3858 115.008 92.9058 115.344V116.48C93.4978 116.096 94.1378 115.856 94.9218 115.856C95.9618 115.856 96.6178 116.4 96.6178 117.28ZM96.6178 119.504V120.24C96.4258 120.768 95.7218 121.12 94.9698 121.12C94.1058 121.12 93.2738 120.72 93.2738 119.856C93.2738 119.008 94.1058 118.624 94.9698 118.624C95.7218 118.624 96.4258 118.976 96.6178 119.504Z" fill="#444444"/>
<path d="M104.478 121.056V121.52C104.478 123.04 103.486 123.792 102.222 123.792C101.39 123.792 100.638 123.568 99.9337 122.912V124.24C100.478 124.624 101.31 124.88 102.222 124.88C103.918 124.88 105.694 123.92 105.694 121.44V114.896H104.478V115.696C104.126 115.2 103.374 114.752 102.494 114.752C100.414 114.752 99.3257 116.48 99.3257 118.384C99.3257 120.288 100.414 122.016 102.494 122.016C103.374 122.016 104.126 121.552 104.478 121.056ZM104.478 116.928V119.824C104.11 120.496 103.438 120.928 102.67 120.928C101.326 120.928 100.542 119.856 100.542 118.384C100.542 116.896 101.326 115.824 102.67 115.824C103.438 115.824 104.11 116.256 104.478 116.928Z" fill="#444444"/>
<path d="M108.494 118.656H113.39V118.224C113.39 116.144 112.398 114.752 110.478 114.752C108.59 114.752 107.31 116.304 107.31 118.512C107.31 120.752 108.686 122.144 110.734 122.144C111.582 122.144 112.318 121.968 112.894 121.52V120.416C112.254 120.896 111.678 121.088 110.878 121.088C109.582 121.088 108.542 120.304 108.494 118.656ZM110.494 115.776C111.646 115.776 112.174 116.672 112.222 117.712H108.558C108.782 116.4 109.55 115.776 110.494 115.776Z" fill="#444444"/>
<path d="M118.556 111.6V122H119.756V117.184C120.012 116.416 120.732 115.856 121.564 115.856C122.636 115.856 123.132 116.544 123.132 117.536V122H124.348V117.344C124.348 115.792 123.468 114.752 121.852 114.752C120.94 114.752 120.172 115.232 119.756 115.792V111.6H118.556Z" fill="#444444"/>
<path d="M130.337 117.28V118.208C130.033 117.936 129.297 117.632 128.561 117.632C127.041 117.632 125.857 118.528 125.857 119.856C125.857 121.264 127.041 122.128 128.497 122.128C129.329 122.128 130.065 121.76 130.337 121.472V122H131.505V117.184C131.505 115.68 130.513 114.752 128.833 114.752C127.953 114.752 127.105 115.008 126.625 115.344V116.48C127.217 116.096 127.857 115.856 128.641 115.856C129.681 115.856 130.337 116.4 130.337 117.28ZM130.337 119.504V120.24C130.145 120.768 129.441 121.12 128.689 121.12C127.825 121.12 126.993 120.72 126.993 119.856C126.993 119.008 127.825 118.624 128.689 118.624C129.441 118.624 130.145 118.976 130.337 119.504Z" fill="#444444"/>
<path d="M133.14 120.16V121.44C133.668 121.856 134.548 122.144 135.476 122.144C136.964 122.144 138.132 121.392 138.132 120.08C138.132 119.072 137.54 118.448 136.468 118.08L135.38 117.712C134.708 117.472 134.324 117.28 134.324 116.704C134.324 116.096 134.932 115.776 135.668 115.776C136.532 115.776 137.188 116.128 137.78 116.624V115.376C137.204 114.976 136.468 114.752 135.668 114.752C134.26 114.752 133.156 115.504 133.156 116.752C133.156 117.904 133.876 118.416 134.948 118.768L135.924 119.104C136.548 119.312 136.948 119.6 136.948 120.128C136.948 120.832 136.26 121.12 135.476 121.12C134.612 121.12 133.796 120.768 133.14 120.16Z" fill="#444444"/>
<path d="M139.838 111.6V122H141.038V117.184C141.294 116.416 142.014 115.856 142.846 115.856C143.918 115.856 144.414 116.544 144.414 117.536V122H145.63V117.344C145.63 115.792 144.75 114.752 143.134 114.752C142.222 114.752 141.454 115.232 141.038 115.792V111.6H139.838Z" fill="#444444"/>
<path d="M149.65 122V115.92H151.298V114.896H149.65V113.024H148.45V114.896H146.962V115.92H148.45V122H149.65Z" fill="#444444"/>
<path d="M156.555 117.28V118.208C156.251 117.936 155.515 117.632 154.779 117.632C153.259 117.632 152.075 118.528 152.075 119.856C152.075 121.264 153.259 122.128 154.715 122.128C155.547 122.128 156.283 121.76 156.555 121.472V122H157.723V117.184C157.723 115.68 156.731 114.752 155.051 114.752C154.171 114.752 153.323 115.008 152.843 115.344V116.48C153.435 116.096 154.075 115.856 154.859 115.856C155.899 115.856 156.555 116.4 156.555 117.28ZM156.555 119.504V120.24C156.363 120.768 155.659 121.12 154.907 121.12C154.043 121.12 153.211 120.72 153.211 119.856C153.211 119.008 154.043 118.624 154.907 118.624C155.659 118.624 156.363 118.976 156.555 119.504Z" fill="#444444"/>
<path d="M164.415 121.056V121.52C164.415 123.04 163.423 123.792 162.159 123.792C161.327 123.792 160.575 123.568 159.871 122.912V124.24C160.415 124.624 161.247 124.88 162.159 124.88C163.855 124.88 165.631 123.92 165.631 121.44V114.896H164.415V115.696C164.063 115.2 163.311 114.752 162.431 114.752C160.351 114.752 159.263 116.48 159.263 118.384C159.263 120.288 160.351 122.016 162.431 122.016C163.311 122.016 164.063 121.552 164.415 121.056ZM164.415 116.928V119.824C164.047 120.496 163.375 120.928 162.607 120.928C161.263 120.928 160.479 119.856 160.479 118.384C160.479 116.896 161.263 115.824 162.607 115.824C163.375 115.824 164.047 116.256 164.415 116.928Z" fill="#444444"/>
<path d="M177.259 122L173.707 118.144L177.195 114.896H175.643L172.491 117.888V111.6H171.291V122H172.491V118.48L175.771 122H177.259Z" fill="#444444"/>
<path d="M184.322 118.448C184.322 116.272 182.994 114.752 181.058 114.752C179.106 114.752 177.794 116.272 177.794 118.448C177.794 120.624 179.106 122.144 181.058 122.144C182.994 122.144 184.322 120.624 184.322 118.448ZM183.106 118.448C183.106 120 182.338 121.088 181.058 121.088C179.778 121.088 179.01 120 179.01 118.448C179.01 116.896 179.778 115.808 181.058 115.808C182.338 115.808 183.106 116.896 183.106 118.448Z" fill="#444444"/>
<path d="M190.618 121.056V121.52C190.618 123.04 189.626 123.792 188.362 123.792C187.53 123.792 186.778 123.568 186.074 122.912V124.24C186.618 124.624 187.45 124.88 188.362 124.88C190.058 124.88 191.834 123.92 191.834 121.44V114.896H190.618V115.696C190.266 115.2 189.514 114.752 188.634 114.752C186.554 114.752 185.466 116.48 185.466 118.384C185.466 120.288 186.554 122.016 188.634 122.016C189.514 122.016 190.266 121.552 190.618 121.056ZM190.618 116.928V119.824C190.25 120.496 189.578 120.928 188.81 120.928C187.466 120.928 186.682 119.856 186.682 118.384C186.682 116.896 187.466 115.824 188.81 115.824C189.578 115.824 190.25 116.256 190.618 116.928Z" fill="#444444"/>
<path d="M195.339 112.752C195.339 112.32 194.987 111.984 194.555 111.984C194.139 111.984 193.787 112.32 193.787 112.752C193.787 113.168 194.139 113.52 194.555 113.52C194.987 113.52 195.339 113.168 195.339 112.752ZM195.163 122V114.896H193.963V122H195.163Z" fill="#444444"/>
<path d="M202.038 124.72V121.168C202.406 121.68 203.158 122.144 204.038 122.144C206.134 122.144 207.238 120.416 207.238 118.448C207.238 116.48 206.134 114.752 204.038 114.752C203.158 114.752 202.406 115.216 202.038 115.728V114.896H200.838V124.72H202.038ZM202.038 119.888V117.008C202.406 116.272 203.11 115.84 203.862 115.84C205.222 115.84 206.022 116.944 206.022 118.448C206.022 119.952 205.222 121.056 203.862 121.056C203.11 121.056 202.406 120.624 202.038 119.888Z" fill="#444444"/>
<path d="M210.245 112.752C210.245 112.32 209.893 111.984 209.461 111.984C209.045 111.984 208.693 112.32 208.693 112.752C208.693 113.168 209.045 113.52 209.461 113.52C209.893 113.52 210.245 113.168 210.245 112.752ZM210.069 122V114.896H208.869V122H210.069Z" fill="#444444"/>
<path d="M214.197 122V115.92H215.845V114.896H214.197V113.024H212.997V114.896H211.509V115.92H212.997V122H214.197Z" fill="#444444"/>
<path d="M216.669 118.448C216.669 120.72 218.173 122.144 220.093 122.144C220.781 122.144 221.501 121.984 221.997 121.552V120.336C221.485 120.848 220.861 121.072 220.173 121.072C218.909 121.072 217.885 120.08 217.885 118.448C217.885 116.816 218.909 115.824 220.173 115.824C220.861 115.824 221.485 116.048 221.997 116.56V115.344C221.501 114.912 220.781 114.752 220.093 114.752C218.173 114.752 216.669 116.176 216.669 118.448Z" fill="#444444"/>
<path d="M223.666 111.6V122H224.866V117.184C225.122 116.416 225.842 115.856 226.674 115.856C227.746 115.856 228.242 116.544 228.242 117.536V122H229.458V117.344C229.458 115.792 228.578 114.752 226.962 114.752C226.05 114.752 225.282 115.232 224.866 115.792V111.6H223.666Z" fill="#444444"/>
<path d="M235.046 112.704V111.616C234.774 111.504 234.502 111.456 234.118 111.456C232.87 111.456 231.942 112.288 231.942 113.712V114.896H230.742V115.92H231.942V122H233.126V115.92H234.726V114.896H233.126V113.808C233.126 112.96 233.59 112.512 234.294 112.512C234.55 112.512 234.822 112.56 235.046 112.704Z" fill="#444444"/>
<path d="M242.026 118.448C242.026 116.272 240.698 114.752 238.762 114.752C236.81 114.752 235.498 116.272 235.498 118.448C235.498 120.624 236.81 122.144 238.762 122.144C240.698 122.144 242.026 120.624 242.026 118.448ZM240.81 118.448C240.81 120 240.042 121.088 238.762 121.088C237.482 121.088 236.714 120 236.714 118.448C236.714 116.896 237.482 115.808 238.762 115.808C240.042 115.808 240.81 116.896 240.81 118.448Z" fill="#444444"/>
<path d="M247.298 116.096V114.864C247.17 114.8 246.914 114.752 246.61 114.752C245.826 114.752 245.154 115.216 244.85 115.824V114.896H243.65V122H244.85V117.232C245.09 116.4 245.746 115.904 246.498 115.904C246.802 115.904 247.106 115.968 247.298 116.096Z" fill="#444444"/>
<path d="M254.759 122L251.207 118.144L254.695 114.896H253.143L249.991 117.888V111.6H248.791V122H249.991V118.48L253.271 122H254.759Z" fill="#444444"/>
<path d="M255.715 121.216C255.715 121.712 256.099 122.08 256.579 122.08C257.043 122.08 257.427 121.712 257.427 121.216C257.427 120.72 257.043 120.336 256.579 120.336C256.099 120.336 255.715 120.72 255.715 121.216Z" fill="#444444"/>
<path d="M24.8279 64.948V76H32.6759V73.498H27.7259V64.948H24.8279Z" fill="#444444"/>
<path d="M36.9557 65.704C36.9557 64.768 36.2177 64.174 35.3537 64.174C34.4897 64.174 33.7517 64.768 33.7517 65.704C33.7517 66.622 34.4897 67.216 35.3537 67.216C36.2177 67.216 36.9557 66.622 36.9557 65.704ZM36.7577 76V67.9H33.9317V76H36.7577Z" fill="#444444"/>
<path d="M38.003 73.03V75.406C38.759 75.91 39.947 76.18 41.081 76.18C43.079 76.18 44.573 75.334 44.573 73.606C44.573 72.238 43.871 71.518 42.107 71.05L41.369 70.834C40.973 70.726 40.739 70.618 40.739 70.312C40.739 69.988 41.063 69.826 41.549 69.826C42.467 69.826 43.331 70.204 44.105 70.762V68.44C43.313 67.954 42.431 67.72 41.279 67.72C39.371 67.72 37.967 68.674 37.967 70.366C37.967 71.824 38.921 72.526 40.415 72.85L41.045 73.012C41.531 73.12 41.783 73.246 41.783 73.57C41.783 73.93 41.423 74.056 40.865 74.056C40.037 74.056 38.777 73.66 38.003 73.03Z" fill="#444444"/>
<path d="M49.4003 76V70.096H50.9843V67.9H49.4003V65.668H46.5923V67.9H45.1883V70.096H46.5923V76H49.4003Z" fill="#444444"/>
<path d="M58.5931 76V64.948H55.6951V76H58.5931Z" fill="#444444"/>
<path d="M63.9198 76V70.096H65.5038V67.9H63.9198V65.668H61.1118V67.9H59.7078V70.096H61.1118V76H63.9198Z" fill="#444444"/>
<path d="M68.7728 72.598H73.7588V71.77C73.7588 69.358 72.4808 67.72 69.9608 67.72C67.7288 67.72 66.0368 69.466 66.0368 72.004C66.0368 74.614 67.8008 76.18 70.3928 76.18C71.5628 76.18 72.5528 75.928 73.1828 75.46V73.318C72.3728 73.804 71.7068 73.966 70.8428 73.966C69.7988 73.966 69.0068 73.57 68.7728 72.598ZM70.0688 69.862C70.7528 69.862 71.1668 70.33 71.2388 71.014H68.8088C69.0068 70.276 69.4568 69.862 70.0688 69.862Z" fill="#444444"/>
<path d="M82.0347 68.692C81.5487 68.116 80.8287 67.72 79.8027 67.72C78.9027 67.72 78.1287 68.062 77.7147 68.566V67.9H74.8887V76H77.7147V71.068C77.8407 70.51 78.2727 70.204 78.7587 70.204C79.3887 70.204 79.6767 70.69 79.6767 71.374V76H82.4847V71.068C82.6287 70.51 83.0427 70.204 83.5287 70.204C84.1587 70.204 84.4467 70.69 84.4467 71.374V76H87.2727V70.69C87.2727 68.872 86.2287 67.72 84.5367 67.72C83.3487 67.72 82.5207 68.188 82.0347 68.692Z" fill="#444444"/>
<path d="M294 74L300 68L306 74" stroke="#444444" stroke-width="2" stroke-linecap="round" stroke-linejoin="round"/>
<path opacity="0.5" d="M12 53H324" stroke="white" stroke-width="2"/>
<path opacity="0.5" d="M12 139H324" stroke="white" stroke-width="2"/>
<path d="M24.8279 150.948V162H32.6759V159.498H27.7259V150.948H24.8279Z" fill="#444444"/>
<path d="M36.9557 151.704C36.9557 150.768 36.2177 150.174 35.3537 150.174C34.4897 150.174 33.7517 150.768 33.7517 151.704C33.7517 152.622 34.4897 153.216 35.3537 153.216C36.2177 153.216 36.9557 152.622 36.9557 151.704ZM36.7577 162V153.9H33.9317V162H36.7577Z" fill="#444444"/>
<path d="M38.003 159.03V161.406C38.759 161.91 39.947 162.18 41.081 162.18C43.079 162.18 44.573 161.334 44.573 159.606C44.573 158.238 43.871 157.518 42.107 157.05L41.369 156.834C40.973 156.726 40.739 156.618 40.739 156.312C40.739 155.988 41.063 155.826 41.549 155.826C42.467 155.826 43.331 156.204 44.105 156.762V154.44C43.313 153.954 42.431 153.72 41.279 153.72C39.371 153.72 37.967 154.674 37.967 156.366C37.967 157.824 38.921 158.526 40.415 158.85L41.045 159.012C41.531 159.12 41.783 159.246 41.783 159.57C41.783 159.93 41.423 160.056 40.865 160.056C40.037 160.056 38.777 159.66 38.003 159.03Z" fill="#444444"/>
<path d="M49.4003 162V156.096H50.9843V153.9H49.4003V151.668H46.5923V153.9H45.1883V156.096H46.5923V162H49.4003Z" fill="#444444"/>
<path d="M58.5931 162V150.948H55.6951V162H58.5931Z" fill="#444444"/>
<path d="M63.9198 162V156.096H65.5038V153.9H63.9198V151.668H61.1118V153.9H59.7078V156.096H61.1118V162H63.9198Z" fill="#444444"/>
<path d="M68.7728 158.598H73.7588V157.77C73.7588 155.358 72.4808 153.72 69.9608 153.72C67.7288 153.72 66.0368 155.466 66.0368 158.004C66.0368 160.614 67.8008 162.18 70.3928 162.18C71.5628 162.18 72.5528 161.928 73.1828 161.46V159.318C72.3728 159.804 71.7068 159.966 70.8428 159.966C69.7988 159.966 69.0068 159.57 68.7728 158.598ZM70.0688 155.862C70.7528 155.862 71.1668 156.33 71.2388 157.014H68.8088C69.0068 156.276 69.4568 155.862 70.0688 155.862Z" fill="#444444"/>
<path d="M82.0347 154.692C81.5487 154.116 80.8287 153.72 79.8027 153.72C78.9027 153.72 78.1287 154.062 77.7147 154.566V153.9H74.8887V162H77.7147V157.068C77.8407 156.51 78.2727 156.204 78.7587 156.204C79.3887 156.204 79.6767 156.69 79.6767 157.374V162H82.4847V157.068C82.6287 156.51 83.0427 156.204 83.5287 156.204C84.1587 156.204 84.4467 156.69 84.4467 157.374V162H87.2727V156.69C87.2727 154.872 86.2287 153.72 84.5367 153.72C83.3487 153.72 82.5207 154.188 82.0347 154.692Z" fill="#444444"/>
<path d="M294 154L300 160L306 154" stroke="#444444" stroke-width="2" stroke-linecap="round" stroke-linejoin="round"/>
<path opacity="0.5" d="M12 175H324" stroke="white" stroke-width="2"/>
</svg>
