<svg width="553" height="726" viewBox="0 0 553 726" fill="none" xmlns="http://www.w3.org/2000/svg">
<g opacity="0.9">
<g filter="url(#filter0_d)">
<rect x="205" y="78.1641" width="240" height="360" rx="16" transform="rotate(-18 205 78.1641)" fill="#F2F2F2"/>
</g>
</g>
<g opacity="0.8" filter="url(#filter1_d)">
<rect x="156" y="371.164" width="240" height="360" rx="16" transform="rotate(-18 156 371.164)" fill="#7630EA"/>
</g>
<g opacity="0.9">
<g filter="url(#filter2_d)">
<rect x="8" y="359.164" width="240" height="360" rx="16" transform="rotate(-18 8 359.164)" fill="#F2F2F2"/>
</g>
<path d="M63.3921 372.157C64.46 375.444 67.2725 376.877 70.0801 375.965C71.2955 375.57 72.1087 374.927 72.6099 374.139L72.1482 372.719C71.5426 373.767 70.7807 374.393 69.7022 374.744C67.5795 375.433 65.5677 374.251 64.7445 371.717C63.9213 369.184 64.854 367.045 66.9767 366.355C68.0552 366.005 69.034 366.046 70.1458 366.556L69.6841 365.135C68.8158 364.792 67.7801 364.75 66.5647 365.145C63.7572 366.058 62.3241 368.87 63.3921 372.157ZM80.0601 368.35C79.3037 366.022 77.3544 364.857 75.283 365.53C73.1944 366.209 72.3191 368.291 73.0756 370.619C73.8321 372.947 75.7642 374.118 77.8528 373.439C79.9242 372.766 80.8166 370.678 80.0601 368.35ZM78.7591 368.773C79.2986 370.433 78.8552 371.864 77.4856 372.309C76.1161 372.754 74.9162 371.857 74.3766 370.197C73.8371 368.536 74.2806 367.105 75.6501 366.66C77.0196 366.215 78.2196 367.112 78.7591 368.773ZM86.3009 363.294C85.7078 362.692 84.8104 362.434 83.8517 362.746C82.9102 363.052 82.3187 363.736 82.1367 364.458L81.8475 363.567L80.5636 363.985L83.0332 371.586L84.3171 371.168L82.6151 365.93C82.5878 365.03 83.083 364.283 83.8533 364.032C84.8291 363.715 85.5194 364.267 85.8642 365.328L87.4328 370.156L88.7167 369.739L87.0147 364.5C86.9873 363.601 87.4826 362.853 88.2529 362.603C89.2287 362.286 89.919 362.838 90.2638 363.899L91.8324 368.726L93.1334 368.304L91.4981 363.271C90.9641 361.627 89.7578 360.827 88.2171 361.328C87.1557 361.672 86.5578 362.453 86.3009 363.294ZM97.5336 370.092L96.2988 366.291C96.8705 366.711 97.8364 366.946 98.7779 366.64C101.021 365.911 101.601 363.679 100.917 361.573C100.233 359.467 98.4507 358.002 96.2082 358.731C95.2666 359.037 94.6233 359.795 94.4076 360.471L94.1183 359.58L92.8344 359.998L96.2497 370.509L97.5336 370.092ZM95.8538 364.922L94.8526 361.84C94.9904 360.925 95.5935 360.218 96.3981 359.956C97.8532 359.484 99.093 360.387 99.6158 361.996C100.139 363.605 99.6665 365.064 98.2114 365.537C97.4068 365.799 96.5034 365.581 95.8538 364.922ZM109.132 358.904C108.376 356.576 106.427 355.411 104.355 356.084C102.267 356.763 101.391 358.845 102.148 361.173C102.904 363.501 104.836 364.672 106.925 363.993C108.996 363.32 109.889 361.232 109.132 358.904ZM107.831 359.326C108.371 360.987 107.927 362.418 106.558 362.863C105.188 363.308 103.988 362.411 103.449 360.75C102.909 359.09 103.353 357.659 104.722 357.214C106.092 356.769 107.292 357.666 107.831 359.326ZM109.636 354.539L112.105 362.139L113.389 361.722L111.715 356.569C111.722 355.659 112.298 354.809 113.188 354.52C114.335 354.147 115.105 354.711 115.45 355.772L117.001 360.549L118.303 360.126L116.684 355.144C116.144 353.484 114.841 352.677 113.112 353.239C112.136 353.556 111.482 354.336 111.231 355.08L110.92 354.121L109.636 354.539ZM120.038 355.606L125.276 353.904L125.126 353.442C124.403 351.217 122.857 350.072 120.803 350.74C118.783 351.396 117.953 353.502 118.721 355.864C119.499 358.261 121.456 359.272 123.647 358.56C124.554 358.265 125.28 357.821 125.741 357.141L125.357 355.96C124.839 356.696 124.29 357.102 123.434 357.38C122.047 357.83 120.662 357.353 120.038 355.606ZM121.176 351.83C122.409 351.429 123.285 352.204 123.698 353.3L119.778 354.574C119.561 353.093 120.166 352.158 121.176 351.83ZM125.718 349.313L128.188 356.914L129.472 356.497L127.798 351.344C127.805 350.433 128.38 349.584 129.27 349.294C130.417 348.922 131.187 349.485 131.532 350.547L133.084 355.323L134.385 354.9L132.766 349.919C132.227 348.258 130.924 347.451 129.195 348.013C128.219 348.33 127.564 349.111 127.314 349.854L127.002 348.896L125.718 349.313ZM138.686 353.503L136.573 346.997L138.336 346.425L137.98 345.329L136.217 345.902L135.566 343.899L134.282 344.316L134.933 346.319L133.341 346.836L133.697 347.932L135.289 347.415L137.402 353.92L138.686 353.503ZM140.879 350.614L141.324 351.983C142.033 352.245 143.075 352.247 144.068 351.925C145.66 351.407 146.648 350.197 146.192 348.793C145.842 347.714 144.991 347.252 143.716 347.231L142.424 347.216C141.622 347.193 141.144 347.121 140.944 346.505C140.733 345.854 141.272 345.3 142.059 345.044C142.984 344.744 143.808 344.893 144.614 345.217L144.18 343.882C143.425 343.654 142.559 343.671 141.703 343.949C140.197 344.438 139.277 345.627 139.711 346.962C140.112 348.195 141.06 348.492 142.329 348.496L143.49 348.516C144.23 348.522 144.758 348.691 144.942 349.256C145.187 350.009 144.551 350.556 143.712 350.829C142.787 351.129 141.792 351.036 140.879 350.614Z" fill="#333333"/>
<rect x="117.837" y="470.681" width="100" height="100" rx="8" transform="rotate(-18 117.837 470.681)" fill="#7630EA"/>
<rect x="33.2012" y="372.005" width="20" height="20" rx="2" transform="rotate(-18 33.2012 372.005)" fill="#7630EA"/>
</g>
<defs>
<filter id="filter0_d" x="197" y="0" width="355.5" height="432.544" filterUnits="userSpaceOnUse" color-interpolation-filters="sRGB">
<feFlood flood-opacity="0" result="BackgroundImageFix"/>
<feColorMatrix in="SourceAlpha" type="matrix" values="0 0 0 0 0 0 0 0 0 0 0 0 0 0 0 0 0 0 127 0"/>
<feOffset dy="4"/>
<feGaussianBlur stdDeviation="4"/>
<feColorMatrix type="matrix" values="0 0 0 0 0 0 0 0 0 0 0 0 0 0 0 0 0 0 0.24 0"/>
<feBlend mode="normal" in2="BackgroundImageFix" result="effect1_dropShadow"/>
<feBlend mode="normal" in="SourceGraphic" in2="effect1_dropShadow" result="shape"/>
</filter>
<filter id="filter1_d" x="148" y="293" width="355.5" height="432.544" filterUnits="userSpaceOnUse" color-interpolation-filters="sRGB">
<feFlood flood-opacity="0" result="BackgroundImageFix"/>
<feColorMatrix in="SourceAlpha" type="matrix" values="0 0 0 0 0 0 0 0 0 0 0 0 0 0 0 0 0 0 127 0"/>
<feOffset dy="4"/>
<feGaussianBlur stdDeviation="4"/>
<feColorMatrix type="matrix" values="0 0 0 0 0 0 0 0 0 0 0 0 0 0 0 0 0 0 0.24 0"/>
<feBlend mode="normal" in2="BackgroundImageFix" result="effect1_dropShadow"/>
<feBlend mode="normal" in="SourceGraphic" in2="effect1_dropShadow" result="shape"/>
</filter>
<filter id="filter2_d" x="0" y="281" width="355.5" height="432.544" filterUnits="userSpaceOnUse" color-interpolation-filters="sRGB">
<feFlood flood-opacity="0" result="BackgroundImageFix"/>
<feColorMatrix in="SourceAlpha" type="matrix" values="0 0 0 0 0 0 0 0 0 0 0 0 0 0 0 0 0 0 127 0"/>
<feOffset dy="4"/>
<feGaussianBlur stdDeviation="4"/>
<feColorMatrix type="matrix" values="0 0 0 0 0 0 0 0 0 0 0 0 0 0 0 0 0 0 0.24 0"/>
<feBlend mode="normal" in2="BackgroundImageFix" result="effect1_dropShadow"/>
<feBlend mode="normal" in="SourceGraphic" in2="effect1_dropShadow" result="shape"/>
</filter>
</defs>
</svg>
