<svg width="288" height="212" viewBox="0 0 288 212" fill="none" xmlns="http://www.w3.org/2000/svg">
<path d="M0 7.99999C0 3.58172 3.58172 0 8 0H280C284.418 0 288 3.58172 288 8V204C288 208.418 284.418 212 280 212H8C3.58173 212 0 208.418 0 204V7.99999Z" fill="#EEEEEE"/>
<path d="M130.88 75.056H115.136L92.672 134H107.936L112.064 122.576H133.472L137.696 134H153.344L130.88 75.056ZM116.768 109.904L122.816 93.296L128.864 109.904H116.768ZM184.207 105.68V111.248C182.383 109.616 177.967 107.792 173.551 107.792C164.431 107.792 157.327 113.168 157.327 121.136C157.327 129.584 164.431 134.768 173.167 134.768C178.159 134.768 182.575 132.56 184.207 130.832V134H191.215V105.104C191.215 96.08 185.263 90.512 175.183 90.512C169.903 90.512 164.815 92.048 161.935 94.064V100.88C165.487 98.576 169.327 97.136 174.031 97.136C180.271 97.136 184.207 100.4 184.207 105.68ZM184.207 119.024V123.44C183.055 126.608 178.831 128.72 174.319 128.72C169.135 128.72 164.143 126.32 164.143 121.136C164.143 116.048 169.135 113.744 174.319 113.744C178.831 113.744 183.055 115.856 184.207 119.024Z" fill="#444444"/>
</svg>
