<svg width="384" height="179" viewBox="0 0 384 179" fill="none" xmlns="http://www.w3.org/2000/svg">
<rect width="384" height="179" rx="12" fill="white"/>
<path d="M145.204 134.864V138.12C146.194 138.714 147.822 139.22 149.626 139.22C152.662 139.22 155.148 137.922 155.148 134.996C155.148 132.928 154.026 131.63 151.562 130.86L149.516 130.244C148.812 130.024 148.394 129.782 148.394 129.166C148.394 128.484 149.164 128.198 150.176 128.198C151.716 128.198 153.058 128.704 154.268 129.54V126.284C153.146 125.668 151.848 125.272 150.022 125.272C147.184 125.272 144.918 126.746 144.918 129.43C144.918 131.674 146.172 132.796 148.438 133.456L150.484 134.05C151.21 134.314 151.628 134.534 151.628 135.194C151.628 136.03 150.66 136.272 149.538 136.272C148.02 136.272 146.37 135.656 145.204 134.864ZM159.498 134.842H165.592V133.83C165.592 130.882 164.03 128.88 160.95 128.88C158.222 128.88 156.154 131.014 156.154 134.116C156.154 137.306 158.31 139.22 161.478 139.22C162.908 139.22 164.118 138.912 164.888 138.34V135.722C163.898 136.316 163.084 136.514 162.028 136.514C160.752 136.514 159.784 136.03 159.498 134.842ZM161.082 131.498C161.918 131.498 162.424 132.07 162.512 132.906H159.542C159.784 132.004 160.334 131.498 161.082 131.498ZM166.531 134.05C166.531 137.24 168.731 139.22 171.701 139.22C172.713 139.22 173.659 139.022 174.363 138.516V135.612C173.725 136.074 173.043 136.316 172.229 136.316C170.953 136.316 169.941 135.546 169.941 134.05C169.941 132.554 170.953 131.784 172.229 131.784C173.043 131.784 173.725 132.026 174.363 132.488V129.584C173.659 129.078 172.713 128.88 171.701 128.88C168.731 128.88 166.531 130.86 166.531 134.05ZM185.459 134.05C185.459 130.992 183.413 128.88 180.399 128.88C177.407 128.88 175.339 130.992 175.339 134.05C175.339 137.108 177.407 139.22 180.399 139.22C183.413 139.22 185.459 137.108 185.459 134.05ZM182.071 134.05C182.071 135.414 181.477 136.36 180.399 136.36C179.343 136.36 178.749 135.414 178.749 134.05C178.749 132.686 179.343 131.718 180.399 131.718C181.477 131.718 182.071 132.686 182.071 134.05ZM186.803 129.1V139H190.257V133.016C190.433 132.334 191.005 131.938 191.687 131.938C192.567 131.938 192.985 132.532 192.985 133.346V139H196.417V132.51C196.417 130.31 195.119 128.88 192.919 128.88C191.775 128.88 190.807 129.342 190.257 129.958V129.1H186.803ZM204.547 138.208V139H208.001V124.7H204.547V129.892C204.085 129.364 203.117 128.88 202.105 128.88C199.245 128.88 197.683 131.19 197.683 134.05C197.683 136.91 199.245 139.22 202.105 139.22C203.117 139.22 204.085 138.736 204.547 138.208ZM204.547 132.73V135.348C204.283 135.898 203.711 136.272 203.029 136.272C201.841 136.272 201.137 135.326 201.137 134.05C201.137 132.774 201.841 131.806 203.029 131.806C203.689 131.806 204.283 132.202 204.547 132.73ZM215.29 133.038V133.39C214.894 133.104 213.97 132.84 213.134 132.84C211 132.84 209.328 134.072 209.328 135.986C209.328 138.076 211 139.176 212.958 139.176C214.014 139.176 214.96 138.824 215.29 138.494V139H218.612V132.884C218.612 130.266 216.94 128.88 214.014 128.88C212.606 128.88 211.286 129.21 210.472 129.65V132.422C211.264 131.96 212.232 131.718 213.178 131.718C214.586 131.718 215.29 132.268 215.29 133.038ZM215.29 135.656V136.228C215.07 136.624 214.52 136.888 213.904 136.888C213.222 136.888 212.54 136.602 212.54 135.92C212.54 135.26 213.222 134.974 213.904 134.974C214.52 134.974 215.07 135.238 215.29 135.656ZM227.027 132.378V129.056C226.873 128.968 226.521 128.88 226.081 128.88C225.091 128.88 224.321 129.32 223.837 129.98V129.1H220.383V139H223.837V133.192C224.013 132.488 224.651 132.07 225.597 132.07C226.147 132.07 226.609 132.158 227.027 132.378ZM229.892 142.498H233.302L238.406 129.1H234.974L233.126 134.732L231.234 129.1H227.648L231.344 138.758L229.892 142.498Z" fill="black"/>
<path d="M30 113H354V111H30V113ZM359 118V146H361V118H359ZM354 151H30V153H354V151ZM25 146V118H23V146H25ZM30 151C27.2386 151 25 148.761 25 146H23C23 149.866 26.134 153 30 153V151ZM359 146C359 148.761 356.761 151 354 151V153C357.866 153 361 149.866 361 146H359ZM354 113C356.761 113 359 115.239 359 118H361C361 114.134 357.866 111 354 111V113ZM30 111C26.134 111 23 114.134 23 118H25C25 115.239 27.2386 113 30 113V111Z" fill="#17EBA0"/>
<path d="M45.78 33.896H39.984V42.284H31.452V33.896H25.656V56H31.452V47.252H39.984V56H45.78V33.896ZM53.5341 49.196H63.5061V47.54C63.5061 42.716 60.9501 39.44 55.9101 39.44C51.4461 39.44 48.0621 42.932 48.0621 48.008C48.0621 53.228 51.5901 56.36 56.7741 56.36C59.1141 56.36 61.0941 55.856 62.3541 54.92V50.636C60.7341 51.608 59.4021 51.932 57.6741 51.932C55.5861 51.932 54.0021 51.14 53.5341 49.196ZM56.1261 43.724C57.4941 43.724 58.3221 44.66 58.4661 46.028H53.6061C54.0021 44.552 54.9021 43.724 56.1261 43.724ZM74.6579 46.244V46.82C74.0099 46.352 72.4979 45.92 71.1299 45.92C67.6379 45.92 64.9019 47.936 64.9019 51.068C64.9019 54.488 67.6379 56.288 70.8419 56.288C72.5699 56.288 74.1179 55.712 74.6579 55.172V56H80.0939V45.992C80.0939 41.708 77.3579 39.44 72.5699 39.44C70.2659 39.44 68.1059 39.98 66.7739 40.7V45.236C68.0699 44.48 69.6539 44.084 71.2019 44.084C73.5059 44.084 74.6579 44.984 74.6579 46.244ZM74.6579 50.528V51.464C74.2979 52.112 73.3979 52.544 72.3899 52.544C71.2739 52.544 70.1579 52.076 70.1579 50.96C70.1579 49.88 71.2739 49.412 72.3899 49.412C73.3979 49.412 74.2979 49.844 74.6579 50.528ZM93.3605 54.704V56H99.0125V32.6H93.3605V41.096C92.6045 40.232 91.0205 39.44 89.3645 39.44C84.6845 39.44 82.1285 43.22 82.1285 47.9C82.1285 52.58 84.6845 56.36 89.3645 56.36C91.0205 56.36 92.6045 55.568 93.3605 54.704ZM93.3605 45.74V50.024C92.9285 50.924 91.9925 51.536 90.8765 51.536C88.9325 51.536 87.7805 49.988 87.7805 47.9C87.7805 45.812 88.9325 44.228 90.8765 44.228C91.9565 44.228 92.9285 44.876 93.3605 45.74ZM108.095 35.408C108.095 33.536 106.619 32.348 104.891 32.348C103.163 32.348 101.687 33.536 101.687 35.408C101.687 37.244 103.163 38.432 104.891 38.432C106.619 38.432 108.095 37.244 108.095 35.408ZM107.699 56V39.8H102.047V56H107.699ZM110.766 39.8V56H116.418V46.208C116.706 45.092 117.642 44.444 118.758 44.444C120.198 44.444 120.882 45.416 120.882 46.748V56H126.498V45.38C126.498 41.78 124.374 39.44 120.774 39.44C118.902 39.44 117.318 40.196 116.418 41.204V39.8H110.766ZM139.55 53.804V54.344C139.55 56.612 137.678 57.512 135.518 57.512C133.286 57.512 131.522 56.936 129.866 55.532V60.716C131.162 61.544 133.43 62.084 135.698 62.084C140.882 62.084 145.13 59.636 145.13 53.66V39.8H139.55V41.024C138.83 40.16 137.498 39.44 135.734 39.44C131.162 39.44 128.57 42.932 128.57 47.396C128.57 51.86 131.162 55.388 135.734 55.388C137.498 55.388 138.83 54.632 139.55 53.804ZM139.55 45.272V49.556C139.118 50.276 138.218 50.888 137.138 50.888C135.266 50.888 134.15 49.448 134.15 47.396C134.15 45.344 135.266 43.904 137.138 43.904C138.218 43.904 139.118 44.552 139.55 45.272Z" fill="black"/>
<path d="M24.738 80.606V82.136C25.494 82.73 26.718 83.162 28.212 83.162C30.354 83.162 31.938 82.028 31.938 80.138C31.938 78.608 31.182 77.726 29.49 77.078L27.744 76.394C26.718 75.998 26.088 75.602 26.088 74.666C26.088 73.568 27.042 73.028 28.266 73.028C29.544 73.028 30.534 73.478 31.416 74.18V72.686C30.588 72.11 29.454 71.786 28.248 71.786C26.34 71.786 24.702 72.776 24.702 74.684C24.702 76.43 25.89 77.168 27.186 77.672L28.806 78.302C29.976 78.788 30.57 79.184 30.57 80.156C30.57 81.29 29.634 81.902 28.212 81.902C26.916 81.902 25.764 81.488 24.738 80.606ZM40.244 83V75.008H38.876V80.426C38.588 81.29 37.814 81.92 36.878 81.92C35.672 81.92 35.132 81.146 35.132 80.03V75.008H33.764V80.246C33.764 81.992 34.736 83.162 36.554 83.162C37.58 83.162 38.426 82.622 38.876 81.992V83H40.244ZM43.9935 83V82.064C44.3895 82.64 45.2535 83.162 46.2435 83.162C48.5835 83.162 49.8435 81.272 49.8435 79.004C49.8435 76.754 48.5835 74.846 46.2435 74.846C45.2535 74.846 44.3895 75.368 43.9935 75.944V71.3H42.6255V83H43.9935ZM43.9935 80.624V77.384C44.4075 76.556 45.1995 76.07 46.0455 76.07C47.5755 76.07 48.4755 77.312 48.4755 79.004C48.4755 80.696 47.5755 81.938 46.0455 81.938C45.1995 81.938 44.4075 81.452 43.9935 80.624ZM53.7876 83V76.16H55.6416V75.008H53.7876V72.902H52.4376V75.008H50.7636V76.16H52.4376V83H53.7876ZM58.8341 72.596C58.8341 72.11 58.4381 71.732 57.9521 71.732C57.4841 71.732 57.0881 72.11 57.0881 72.596C57.0881 73.064 57.4841 73.46 57.9521 73.46C58.4381 73.46 58.8341 73.064 58.8341 72.596ZM58.6361 83V75.008H57.2861V83H58.6361ZM63.2798 83V76.16H65.1338V75.008H63.2798V72.902H61.9298V75.008H60.2558V76.16H61.9298V83H63.2798ZM68.1283 83V71.3H66.7783V83H68.1283ZM71.296 79.238H76.804V78.752C76.804 76.412 75.688 74.846 73.528 74.846C71.404 74.846 69.964 76.592 69.964 79.076C69.964 81.596 71.512 83.162 73.816 83.162C74.77 83.162 75.598 82.964 76.246 82.46V81.218C75.526 81.758 74.878 81.974 73.978 81.974C72.52 81.974 71.35 81.092 71.296 79.238ZM73.546 75.998C74.842 75.998 75.436 77.006 75.49 78.176H71.368C71.62 76.7 72.484 75.998 73.546 75.998Z" fill="#444444"/>
</svg>
