<svg width="384" height="228" viewBox="0 0 384 228" fill="none" xmlns="http://www.w3.org/2000/svg">
<rect width="384" height="228" rx="12" fill="white"/>
<path d="M24 118C24 114.686 26.6863 112 30 112H229C232.314 112 235 114.686 235 118V146C235 149.314 232.314 152 229 152H30C26.6863 152 24 149.314 24 146V118Z" fill="#17EBA0"/>
<path d="M50.01 134.798H52.43C55.356 134.798 57.336 133.148 57.336 130.156C57.336 127.142 55.356 125.492 52.43 125.492H46.512V139H50.01V134.798ZM53.904 130.156C53.904 131.168 53.332 131.85 52.056 131.85H50.01V128.462H52.056C53.332 128.462 53.904 129.122 53.904 130.156ZM65.4 132.378V129.056C65.246 128.968 64.894 128.88 64.454 128.88C63.464 128.88 62.694 129.32 62.21 129.98V129.1H58.756V139H62.21V133.192C62.386 132.488 63.024 132.07 63.97 132.07C64.52 132.07 64.982 132.158 65.4 132.378ZM70.4872 126.416C70.4872 125.272 69.5852 124.546 68.5292 124.546C67.4732 124.546 66.5712 125.272 66.5712 126.416C66.5712 127.538 67.4732 128.264 68.5292 128.264C69.5852 128.264 70.4872 127.538 70.4872 126.416ZM70.2452 139V129.1H66.7912V139H70.2452ZM80.8533 130.068C80.2593 129.364 79.3793 128.88 78.1253 128.88C77.0253 128.88 76.0793 129.298 75.5733 129.914V129.1H72.1193V139H75.5733V132.972C75.7273 132.29 76.2553 131.916 76.8493 131.916C77.6193 131.916 77.9713 132.51 77.9713 133.346V139H81.4033V132.972C81.5793 132.29 82.0853 131.916 82.6793 131.916C83.4493 131.916 83.8013 132.51 83.8013 133.346V139H87.2553V132.51C87.2553 130.288 85.9793 128.88 83.9113 128.88C82.4593 128.88 81.4473 129.452 80.8533 130.068ZM94.4615 133.038V133.39C94.0655 133.104 93.1415 132.84 92.3055 132.84C90.1715 132.84 88.4995 134.072 88.4995 135.986C88.4995 138.076 90.1715 139.176 92.1295 139.176C93.1855 139.176 94.1315 138.824 94.4615 138.494V139H97.7835V132.884C97.7835 130.266 96.1115 128.88 93.1855 128.88C91.7775 128.88 90.4575 129.21 89.6435 129.65V132.422C90.4355 131.96 91.4035 131.718 92.3495 131.718C93.7575 131.718 94.4615 132.268 94.4615 133.038ZM94.4615 135.656V136.228C94.2415 136.624 93.6915 136.888 93.0755 136.888C92.3935 136.888 91.7115 136.602 91.7115 135.92C91.7115 135.26 92.3935 134.974 93.0755 134.974C93.6915 134.974 94.2415 135.238 94.4615 135.656ZM106.199 132.378V129.056C106.045 128.968 105.693 128.88 105.253 128.88C104.263 128.88 103.493 129.32 103.009 129.98V129.1H99.5549V139H103.009V133.192C103.185 132.488 103.823 132.07 104.769 132.07C105.319 132.07 105.781 132.158 106.199 132.378ZM109.064 142.498H112.474L117.578 129.1H114.146L112.298 134.732L110.406 129.1H106.82L110.516 138.758L109.064 142.498ZM123.125 125.492V139H132.717V135.942H126.667V125.492H123.125ZM143.801 134.05C143.801 130.992 141.755 128.88 138.741 128.88C135.749 128.88 133.681 130.992 133.681 134.05C133.681 137.108 135.749 139.22 138.741 139.22C141.755 139.22 143.801 137.108 143.801 134.05ZM140.413 134.05C140.413 135.414 139.819 136.36 138.741 136.36C137.685 136.36 137.091 135.414 137.091 134.05C137.091 132.686 137.685 131.718 138.741 131.718C139.819 131.718 140.413 132.686 140.413 134.05ZM145.145 129.1V139H148.599V133.016C148.775 132.334 149.347 131.938 150.029 131.938C150.909 131.938 151.327 132.532 151.327 133.346V139H154.759V132.51C154.759 130.31 153.461 128.88 151.261 128.88C150.117 128.88 149.149 129.342 148.599 129.958V129.1H145.145ZM162.735 137.658V137.988C162.735 139.374 161.591 139.924 160.271 139.924C158.907 139.924 157.829 139.572 156.817 138.714V141.882C157.609 142.388 158.995 142.718 160.381 142.718C163.549 142.718 166.145 141.222 166.145 137.57V129.1H162.735V129.848C162.295 129.32 161.481 128.88 160.403 128.88C157.609 128.88 156.025 131.014 156.025 133.742C156.025 136.47 157.609 138.626 160.403 138.626C161.481 138.626 162.295 138.164 162.735 137.658ZM162.735 132.444V135.062C162.471 135.502 161.921 135.876 161.261 135.876C160.117 135.876 159.435 134.996 159.435 133.742C159.435 132.488 160.117 131.608 161.261 131.608C161.921 131.608 162.471 132.004 162.735 132.444ZM171.946 125.492V128.528H176.104V139H179.646V128.528H183.826V125.492H171.946ZM188.888 126.416C188.888 125.272 187.986 124.546 186.93 124.546C185.874 124.546 184.972 125.272 184.972 126.416C184.972 127.538 185.874 128.264 186.93 128.264C187.986 128.264 188.888 127.538 188.888 126.416ZM188.646 139V129.1H185.192V139H188.646ZM195.096 139V131.784H197.032V129.1H195.096V126.372H191.664V129.1H189.948V131.784H191.664V139H195.096ZM201.751 139V124.7H198.297V139H201.751ZM206.441 134.842H212.535V133.83C212.535 130.882 210.973 128.88 207.893 128.88C205.165 128.88 203.097 131.014 203.097 134.116C203.097 137.306 205.253 139.22 208.421 139.22C209.851 139.22 211.061 138.912 211.831 138.34V135.722C210.841 136.316 210.027 136.514 208.971 136.514C207.695 136.514 206.727 136.03 206.441 134.842ZM208.025 131.498C208.861 131.498 209.367 132.07 209.455 132.906H206.485C206.727 132.004 207.277 131.498 208.025 131.498Z" fill="black"/>
<path d="M45.78 33.896H39.984V42.284H31.452V33.896H25.656V56H31.452V47.252H39.984V56H45.78V33.896ZM53.5341 49.196H63.5061V47.54C63.5061 42.716 60.9501 39.44 55.9101 39.44C51.4461 39.44 48.0621 42.932 48.0621 48.008C48.0621 53.228 51.5901 56.36 56.7741 56.36C59.1141 56.36 61.0941 55.856 62.3541 54.92V50.636C60.7341 51.608 59.4021 51.932 57.6741 51.932C55.5861 51.932 54.0021 51.14 53.5341 49.196ZM56.1261 43.724C57.4941 43.724 58.3221 44.66 58.4661 46.028H53.6061C54.0021 44.552 54.9021 43.724 56.1261 43.724ZM74.6579 46.244V46.82C74.0099 46.352 72.4979 45.92 71.1299 45.92C67.6379 45.92 64.9019 47.936 64.9019 51.068C64.9019 54.488 67.6379 56.288 70.8419 56.288C72.5699 56.288 74.1179 55.712 74.6579 55.172V56H80.0939V45.992C80.0939 41.708 77.3579 39.44 72.5699 39.44C70.2659 39.44 68.1059 39.98 66.7739 40.7V45.236C68.0699 44.48 69.6539 44.084 71.2019 44.084C73.5059 44.084 74.6579 44.984 74.6579 46.244ZM74.6579 50.528V51.464C74.2979 52.112 73.3979 52.544 72.3899 52.544C71.2739 52.544 70.1579 52.076 70.1579 50.96C70.1579 49.88 71.2739 49.412 72.3899 49.412C73.3979 49.412 74.2979 49.844 74.6579 50.528ZM93.3605 54.704V56H99.0125V32.6H93.3605V41.096C92.6045 40.232 91.0205 39.44 89.3645 39.44C84.6845 39.44 82.1285 43.22 82.1285 47.9C82.1285 52.58 84.6845 56.36 89.3645 56.36C91.0205 56.36 92.6045 55.568 93.3605 54.704ZM93.3605 45.74V50.024C92.9285 50.924 91.9925 51.536 90.8765 51.536C88.9325 51.536 87.7805 49.988 87.7805 47.9C87.7805 45.812 88.9325 44.228 90.8765 44.228C91.9565 44.228 92.9285 44.876 93.3605 45.74ZM108.095 35.408C108.095 33.536 106.619 32.348 104.891 32.348C103.163 32.348 101.687 33.536 101.687 35.408C101.687 37.244 103.163 38.432 104.891 38.432C106.619 38.432 108.095 37.244 108.095 35.408ZM107.699 56V39.8H102.047V56H107.699ZM110.766 39.8V56H116.418V46.208C116.706 45.092 117.642 44.444 118.758 44.444C120.198 44.444 120.882 45.416 120.882 46.748V56H126.498V45.38C126.498 41.78 124.374 39.44 120.774 39.44C118.902 39.44 117.318 40.196 116.418 41.204V39.8H110.766ZM139.55 53.804V54.344C139.55 56.612 137.678 57.512 135.518 57.512C133.286 57.512 131.522 56.936 129.866 55.532V60.716C131.162 61.544 133.43 62.084 135.698 62.084C140.882 62.084 145.13 59.636 145.13 53.66V39.8H139.55V41.024C138.83 40.16 137.498 39.44 135.734 39.44C131.162 39.44 128.57 42.932 128.57 47.396C128.57 51.86 131.162 55.388 135.734 55.388C137.498 55.388 138.83 54.632 139.55 53.804ZM139.55 45.272V49.556C139.118 50.276 138.218 50.888 137.138 50.888C135.266 50.888 134.15 49.448 134.15 47.396C134.15 45.344 135.266 43.904 137.138 43.904C138.218 43.904 139.118 44.552 139.55 45.272Z" fill="black"/>
<path d="M24.738 80.606V82.136C25.494 82.73 26.718 83.162 28.212 83.162C30.354 83.162 31.938 82.028 31.938 80.138C31.938 78.608 31.182 77.726 29.49 77.078L27.744 76.394C26.718 75.998 26.088 75.602 26.088 74.666C26.088 73.568 27.042 73.028 28.266 73.028C29.544 73.028 30.534 73.478 31.416 74.18V72.686C30.588 72.11 29.454 71.786 28.248 71.786C26.34 71.786 24.702 72.776 24.702 74.684C24.702 76.43 25.89 77.168 27.186 77.672L28.806 78.302C29.976 78.788 30.57 79.184 30.57 80.156C30.57 81.29 29.634 81.902 28.212 81.902C26.916 81.902 25.764 81.488 24.738 80.606ZM40.244 83V75.008H38.876V80.426C38.588 81.29 37.814 81.92 36.878 81.92C35.672 81.92 35.132 81.146 35.132 80.03V75.008H33.764V80.246C33.764 81.992 34.736 83.162 36.554 83.162C37.58 83.162 38.426 82.622 38.876 81.992V83H40.244ZM43.9935 83V82.064C44.3895 82.64 45.2535 83.162 46.2435 83.162C48.5835 83.162 49.8435 81.272 49.8435 79.004C49.8435 76.754 48.5835 74.846 46.2435 74.846C45.2535 74.846 44.3895 75.368 43.9935 75.944V71.3H42.6255V83H43.9935ZM43.9935 80.624V77.384C44.4075 76.556 45.1995 76.07 46.0455 76.07C47.5755 76.07 48.4755 77.312 48.4755 79.004C48.4755 80.696 47.5755 81.938 46.0455 81.938C45.1995 81.938 44.4075 81.452 43.9935 80.624ZM53.7876 83V76.16H55.6416V75.008H53.7876V72.902H52.4376V75.008H50.7636V76.16H52.4376V83H53.7876ZM58.8341 72.596C58.8341 72.11 58.4381 71.732 57.9521 71.732C57.4841 71.732 57.0881 72.11 57.0881 72.596C57.0881 73.064 57.4841 73.46 57.9521 73.46C58.4381 73.46 58.8341 73.064 58.8341 72.596ZM58.6361 83V75.008H57.2861V83H58.6361ZM63.2798 83V76.16H65.1338V75.008H63.2798V72.902H61.9298V75.008H60.2558V76.16H61.9298V83H63.2798ZM68.1283 83V71.3H66.7783V83H68.1283ZM71.296 79.238H76.804V78.752C76.804 76.412 75.688 74.846 73.528 74.846C71.404 74.846 69.964 76.592 69.964 79.076C69.964 81.596 71.512 83.162 73.816 83.162C74.77 83.162 75.598 82.964 76.246 82.46V81.218C75.526 81.758 74.878 81.974 73.978 81.974C72.52 81.974 71.35 81.092 71.296 79.238ZM73.546 75.998C74.842 75.998 75.436 77.006 75.49 78.176H71.368C71.62 76.7 72.484 75.998 73.546 75.998Z" fill="#444444"/>
<path d="M35.204 186.864V190.12C36.194 190.714 37.822 191.22 39.626 191.22C42.662 191.22 45.148 189.922 45.148 186.996C45.148 184.928 44.026 183.63 41.562 182.86L39.516 182.244C38.812 182.024 38.394 181.782 38.394 181.166C38.394 180.484 39.164 180.198 40.176 180.198C41.716 180.198 43.058 180.704 44.268 181.54V178.284C43.146 177.668 41.848 177.272 40.022 177.272C37.184 177.272 34.918 178.746 34.918 181.43C34.918 183.674 36.172 184.796 38.438 185.456L40.484 186.05C41.21 186.314 41.628 186.534 41.628 187.194C41.628 188.03 40.66 188.272 39.538 188.272C38.02 188.272 36.37 187.656 35.204 186.864ZM49.4978 186.842H55.5918V185.83C55.5918 182.882 54.0298 180.88 50.9498 180.88C48.2218 180.88 46.1538 183.014 46.1538 186.116C46.1538 189.306 48.3098 191.22 51.4778 191.22C52.9078 191.22 54.1178 190.912 54.8878 190.34V187.722C53.8978 188.316 53.0838 188.514 52.0278 188.514C50.7518 188.514 49.7838 188.03 49.4978 186.842ZM51.0818 183.498C51.9178 183.498 52.4238 184.07 52.5118 184.906H49.5418C49.7838 184.004 50.3338 183.498 51.0818 183.498ZM56.5308 186.05C56.5308 189.24 58.7308 191.22 61.7008 191.22C62.7128 191.22 63.6588 191.022 64.3628 190.516V187.612C63.7248 188.074 63.0428 188.316 62.2288 188.316C60.9528 188.316 59.9408 187.546 59.9408 186.05C59.9408 184.554 60.9528 183.784 62.2288 183.784C63.0428 183.784 63.7248 184.026 64.3628 184.488V181.584C63.6588 181.078 62.7128 180.88 61.7008 180.88C58.7308 180.88 56.5308 182.86 56.5308 186.05ZM75.4594 186.05C75.4594 182.992 73.4134 180.88 70.3994 180.88C67.4074 180.88 65.3394 182.992 65.3394 186.05C65.3394 189.108 67.4074 191.22 70.3994 191.22C73.4134 191.22 75.4594 189.108 75.4594 186.05ZM72.0714 186.05C72.0714 187.414 71.4774 188.36 70.3994 188.36C69.3434 188.36 68.7494 187.414 68.7494 186.05C68.7494 184.686 69.3434 183.718 70.3994 183.718C71.4774 183.718 72.0714 184.686 72.0714 186.05ZM76.8029 181.1V191H80.2569V185.016C80.4329 184.334 81.0049 183.938 81.6869 183.938C82.5669 183.938 82.9849 184.532 82.9849 185.346V191H86.4169V184.51C86.4169 182.31 85.1189 180.88 82.9189 180.88C81.7749 180.88 80.8069 181.342 80.2569 181.958V181.1H76.8029ZM94.5471 190.208V191H98.0011V176.7H94.5471V181.892C94.0851 181.364 93.1171 180.88 92.1051 180.88C89.2451 180.88 87.6831 183.19 87.6831 186.05C87.6831 188.91 89.2451 191.22 92.1051 191.22C93.1171 191.22 94.0851 190.736 94.5471 190.208ZM94.5471 184.73V187.348C94.2831 187.898 93.7111 188.272 93.0291 188.272C91.8411 188.272 91.1371 187.326 91.1371 186.05C91.1371 184.774 91.8411 183.806 93.0291 183.806C93.6891 183.806 94.2831 184.202 94.5471 184.73ZM105.29 185.038V185.39C104.894 185.104 103.97 184.84 103.134 184.84C101 184.84 99.3276 186.072 99.3276 187.986C99.3276 190.076 101 191.176 102.958 191.176C104.014 191.176 104.96 190.824 105.29 190.494V191H108.612V184.884C108.612 182.266 106.94 180.88 104.014 180.88C102.606 180.88 101.286 181.21 100.472 181.65V184.422C101.264 183.96 102.232 183.718 103.178 183.718C104.586 183.718 105.29 184.268 105.29 185.038ZM105.29 187.656V188.228C105.07 188.624 104.52 188.888 103.904 188.888C103.222 188.888 102.54 188.602 102.54 187.92C102.54 187.26 103.222 186.974 103.904 186.974C104.52 186.974 105.07 187.238 105.29 187.656ZM117.027 184.378V181.056C116.873 180.968 116.521 180.88 116.081 180.88C115.091 180.88 114.321 181.32 113.837 181.98V181.1H110.383V191H113.837V185.192C114.013 184.488 114.651 184.07 115.597 184.07C116.147 184.07 116.609 184.158 117.027 184.378ZM119.892 194.498H123.302L128.406 181.1H124.974L123.126 186.732L121.234 181.1H117.648L121.344 190.758L119.892 194.498ZM133.953 177.492V191H143.545V187.942H137.495V177.492H133.953ZM154.629 186.05C154.629 182.992 152.583 180.88 149.569 180.88C146.577 180.88 144.509 182.992 144.509 186.05C144.509 189.108 146.577 191.22 149.569 191.22C152.583 191.22 154.629 189.108 154.629 186.05ZM151.241 186.05C151.241 187.414 150.647 188.36 149.569 188.36C148.513 188.36 147.919 187.414 147.919 186.05C147.919 184.686 148.513 183.718 149.569 183.718C150.647 183.718 151.241 184.686 151.241 186.05ZM155.973 181.1V191H159.427V185.016C159.603 184.334 160.175 183.938 160.857 183.938C161.737 183.938 162.155 184.532 162.155 185.346V191H165.587V184.51C165.587 182.31 164.289 180.88 162.089 180.88C160.945 180.88 159.977 181.342 159.427 181.958V181.1H155.973ZM173.563 189.658V189.988C173.563 191.374 172.419 191.924 171.099 191.924C169.735 191.924 168.657 191.572 167.645 190.714V193.882C168.437 194.388 169.823 194.718 171.209 194.718C174.377 194.718 176.973 193.222 176.973 189.57V181.1H173.563V181.848C173.123 181.32 172.309 180.88 171.231 180.88C168.437 180.88 166.853 183.014 166.853 185.742C166.853 188.47 168.437 190.626 171.231 190.626C172.309 190.626 173.123 190.164 173.563 189.658ZM173.563 184.444V187.062C173.299 187.502 172.749 187.876 172.089 187.876C170.945 187.876 170.263 186.996 170.263 185.742C170.263 184.488 170.945 183.608 172.089 183.608C172.749 183.608 173.299 184.004 173.563 184.444ZM182.774 177.492V180.528H186.932V191H190.474V180.528H194.654V177.492H182.774ZM199.716 178.416C199.716 177.272 198.814 176.546 197.758 176.546C196.702 176.546 195.8 177.272 195.8 178.416C195.8 179.538 196.702 180.264 197.758 180.264C198.814 180.264 199.716 179.538 199.716 178.416ZM199.474 191V181.1H196.02V191H199.474ZM205.924 191V183.784H207.86V181.1H205.924V178.372H202.492V181.1H200.776V183.784H202.492V191H205.924ZM212.579 191V176.7H209.125V191H212.579ZM217.269 186.842H223.363V185.83C223.363 182.882 221.801 180.88 218.721 180.88C215.993 180.88 213.925 183.014 213.925 186.116C213.925 189.306 216.081 191.22 219.249 191.22C220.679 191.22 221.889 190.912 222.659 190.34V187.722C221.669 188.316 220.855 188.514 219.799 188.514C218.523 188.514 217.555 188.03 217.269 186.842ZM218.853 183.498C219.689 183.498 220.195 184.07 220.283 184.906H217.313C217.555 184.004 218.105 183.498 218.853 183.498Z" fill="black"/>
<path d="M30 165H229V163H30V165ZM234 170V198H236V170H234ZM229 203H30V205H229V203ZM25 198V170H23V198H25ZM30 203C27.2386 203 25 200.761 25 198H23C23 201.866 26.134 205 30 205V203ZM234 198C234 200.761 231.761 203 229 203V205C232.866 205 236 201.866 236 198H234ZM229 165C231.761 165 234 167.239 234 170H236C236 166.134 232.866 163 229 163V165ZM30 163C26.134 163 23 166.134 23 170H25C25 167.239 27.2386 165 30 165V163Z" fill="#17EBA0"/>
</svg>
