<svg width="384" height="179" viewBox="0 0 384 179" fill="none" xmlns="http://www.w3.org/2000/svg">
<rect width="384" height="179" rx="12" fill="white"/>
<path d="M35.204 134.864V138.12C36.194 138.714 37.822 139.22 39.626 139.22C42.662 139.22 45.148 137.922 45.148 134.996C45.148 132.928 44.026 131.63 41.562 130.86L39.516 130.244C38.812 130.024 38.394 129.782 38.394 129.166C38.394 128.484 39.164 128.198 40.176 128.198C41.716 128.198 43.058 128.704 44.268 129.54V126.284C43.146 125.668 41.848 125.272 40.022 125.272C37.184 125.272 34.918 126.746 34.918 129.43C34.918 131.674 36.172 132.796 38.438 133.456L40.484 134.05C41.21 134.314 41.628 134.534 41.628 135.194C41.628 136.03 40.66 136.272 39.538 136.272C38.02 136.272 36.37 135.656 35.204 134.864ZM49.4978 134.842H55.5918V133.83C55.5918 130.882 54.0298 128.88 50.9498 128.88C48.2218 128.88 46.1538 131.014 46.1538 134.116C46.1538 137.306 48.3098 139.22 51.4778 139.22C52.9078 139.22 54.1178 138.912 54.8878 138.34V135.722C53.8978 136.316 53.0838 136.514 52.0278 136.514C50.7518 136.514 49.7838 136.03 49.4978 134.842ZM51.0818 131.498C51.9178 131.498 52.4238 132.07 52.5118 132.906H49.5418C49.7838 132.004 50.3338 131.498 51.0818 131.498ZM56.5308 134.05C56.5308 137.24 58.7308 139.22 61.7008 139.22C62.7128 139.22 63.6588 139.022 64.3628 138.516V135.612C63.7248 136.074 63.0428 136.316 62.2288 136.316C60.9528 136.316 59.9408 135.546 59.9408 134.05C59.9408 132.554 60.9528 131.784 62.2288 131.784C63.0428 131.784 63.7248 132.026 64.3628 132.488V129.584C63.6588 129.078 62.7128 128.88 61.7008 128.88C58.7308 128.88 56.5308 130.86 56.5308 134.05ZM75.4594 134.05C75.4594 130.992 73.4134 128.88 70.3994 128.88C67.4074 128.88 65.3394 130.992 65.3394 134.05C65.3394 137.108 67.4074 139.22 70.3994 139.22C73.4134 139.22 75.4594 137.108 75.4594 134.05ZM72.0714 134.05C72.0714 135.414 71.4774 136.36 70.3994 136.36C69.3434 136.36 68.7494 135.414 68.7494 134.05C68.7494 132.686 69.3434 131.718 70.3994 131.718C71.4774 131.718 72.0714 132.686 72.0714 134.05ZM76.8029 129.1V139H80.2569V133.016C80.4329 132.334 81.0049 131.938 81.6869 131.938C82.5669 131.938 82.9849 132.532 82.9849 133.346V139H86.4169V132.51C86.4169 130.31 85.1189 128.88 82.9189 128.88C81.7749 128.88 80.8069 129.342 80.2569 129.958V129.1H76.8029ZM94.5471 138.208V139H98.0011V124.7H94.5471V129.892C94.0851 129.364 93.1171 128.88 92.1051 128.88C89.2451 128.88 87.6831 131.19 87.6831 134.05C87.6831 136.91 89.2451 139.22 92.1051 139.22C93.1171 139.22 94.0851 138.736 94.5471 138.208ZM94.5471 132.73V135.348C94.2831 135.898 93.7111 136.272 93.0291 136.272C91.8411 136.272 91.1371 135.326 91.1371 134.05C91.1371 132.774 91.8411 131.806 93.0291 131.806C93.6891 131.806 94.2831 132.202 94.5471 132.73ZM105.29 133.038V133.39C104.894 133.104 103.97 132.84 103.134 132.84C101 132.84 99.3276 134.072 99.3276 135.986C99.3276 138.076 101 139.176 102.958 139.176C104.014 139.176 104.96 138.824 105.29 138.494V139H108.612V132.884C108.612 130.266 106.94 128.88 104.014 128.88C102.606 128.88 101.286 129.21 100.472 129.65V132.422C101.264 131.96 102.232 131.718 103.178 131.718C104.586 131.718 105.29 132.268 105.29 133.038ZM105.29 135.656V136.228C105.07 136.624 104.52 136.888 103.904 136.888C103.222 136.888 102.54 136.602 102.54 135.92C102.54 135.26 103.222 134.974 103.904 134.974C104.52 134.974 105.07 135.238 105.29 135.656ZM117.027 132.378V129.056C116.873 128.968 116.521 128.88 116.081 128.88C115.091 128.88 114.321 129.32 113.837 129.98V129.1H110.383V139H113.837V133.192C114.013 132.488 114.651 132.07 115.597 132.07C116.147 132.07 116.609 132.158 117.027 132.378ZM119.892 142.498H123.302L128.406 129.1H124.974L123.126 134.732L121.234 129.1H117.648L121.344 138.758L119.892 142.498Z" fill="black"/>
<path d="M30 113H134V111H30V113ZM139 118V146H141V118H139ZM134 151H30V153H134V151ZM25 146V118H23V146H25ZM30 151C27.2386 151 25 148.761 25 146H23C23 149.866 26.134 153 30 153V151ZM139 146C139 148.761 136.761 151 134 151V153C137.866 153 141 149.866 141 146H139ZM134 113C136.761 113 139 115.239 139 118H141C141 114.134 137.866 111 134 111V113ZM30 111C26.134 111 23 114.134 23 118H25C25 115.239 27.2386 113 30 113V111Z" fill="#17EBA0"/>
<path d="M45.78 33.896H39.984V42.284H31.452V33.896H25.656V56H31.452V47.252H39.984V56H45.78V33.896ZM53.5341 49.196H63.5061V47.54C63.5061 42.716 60.9501 39.44 55.9101 39.44C51.4461 39.44 48.0621 42.932 48.0621 48.008C48.0621 53.228 51.5901 56.36 56.7741 56.36C59.1141 56.36 61.0941 55.856 62.3541 54.92V50.636C60.7341 51.608 59.4021 51.932 57.6741 51.932C55.5861 51.932 54.0021 51.14 53.5341 49.196ZM56.1261 43.724C57.4941 43.724 58.3221 44.66 58.4661 46.028H53.6061C54.0021 44.552 54.9021 43.724 56.1261 43.724ZM74.6579 46.244V46.82C74.0099 46.352 72.4979 45.92 71.1299 45.92C67.6379 45.92 64.9019 47.936 64.9019 51.068C64.9019 54.488 67.6379 56.288 70.8419 56.288C72.5699 56.288 74.1179 55.712 74.6579 55.172V56H80.0939V45.992C80.0939 41.708 77.3579 39.44 72.5699 39.44C70.2659 39.44 68.1059 39.98 66.7739 40.7V45.236C68.0699 44.48 69.6539 44.084 71.2019 44.084C73.5059 44.084 74.6579 44.984 74.6579 46.244ZM74.6579 50.528V51.464C74.2979 52.112 73.3979 52.544 72.3899 52.544C71.2739 52.544 70.1579 52.076 70.1579 50.96C70.1579 49.88 71.2739 49.412 72.3899 49.412C73.3979 49.412 74.2979 49.844 74.6579 50.528ZM93.3605 54.704V56H99.0125V32.6H93.3605V41.096C92.6045 40.232 91.0205 39.44 89.3645 39.44C84.6845 39.44 82.1285 43.22 82.1285 47.9C82.1285 52.58 84.6845 56.36 89.3645 56.36C91.0205 56.36 92.6045 55.568 93.3605 54.704ZM93.3605 45.74V50.024C92.9285 50.924 91.9925 51.536 90.8765 51.536C88.9325 51.536 87.7805 49.988 87.7805 47.9C87.7805 45.812 88.9325 44.228 90.8765 44.228C91.9565 44.228 92.9285 44.876 93.3605 45.74ZM108.095 35.408C108.095 33.536 106.619 32.348 104.891 32.348C103.163 32.348 101.687 33.536 101.687 35.408C101.687 37.244 103.163 38.432 104.891 38.432C106.619 38.432 108.095 37.244 108.095 35.408ZM107.699 56V39.8H102.047V56H107.699ZM110.766 39.8V56H116.418V46.208C116.706 45.092 117.642 44.444 118.758 44.444C120.198 44.444 120.882 45.416 120.882 46.748V56H126.498V45.38C126.498 41.78 124.374 39.44 120.774 39.44C118.902 39.44 117.318 40.196 116.418 41.204V39.8H110.766ZM139.55 53.804V54.344C139.55 56.612 137.678 57.512 135.518 57.512C133.286 57.512 131.522 56.936 129.866 55.532V60.716C131.162 61.544 133.43 62.084 135.698 62.084C140.882 62.084 145.13 59.636 145.13 53.66V39.8H139.55V41.024C138.83 40.16 137.498 39.44 135.734 39.44C131.162 39.44 128.57 42.932 128.57 47.396C128.57 51.86 131.162 55.388 135.734 55.388C137.498 55.388 138.83 54.632 139.55 53.804ZM139.55 45.272V49.556C139.118 50.276 138.218 50.888 137.138 50.888C135.266 50.888 134.15 49.448 134.15 47.396C134.15 45.344 135.266 43.904 137.138 43.904C138.218 43.904 139.118 44.552 139.55 45.272Z" fill="black"/>
<path d="M24.738 80.606V82.136C25.494 82.73 26.718 83.162 28.212 83.162C30.354 83.162 31.938 82.028 31.938 80.138C31.938 78.608 31.182 77.726 29.49 77.078L27.744 76.394C26.718 75.998 26.088 75.602 26.088 74.666C26.088 73.568 27.042 73.028 28.266 73.028C29.544 73.028 30.534 73.478 31.416 74.18V72.686C30.588 72.11 29.454 71.786 28.248 71.786C26.34 71.786 24.702 72.776 24.702 74.684C24.702 76.43 25.89 77.168 27.186 77.672L28.806 78.302C29.976 78.788 30.57 79.184 30.57 80.156C30.57 81.29 29.634 81.902 28.212 81.902C26.916 81.902 25.764 81.488 24.738 80.606ZM40.244 83V75.008H38.876V80.426C38.588 81.29 37.814 81.92 36.878 81.92C35.672 81.92 35.132 81.146 35.132 80.03V75.008H33.764V80.246C33.764 81.992 34.736 83.162 36.554 83.162C37.58 83.162 38.426 82.622 38.876 81.992V83H40.244ZM43.9935 83V82.064C44.3895 82.64 45.2535 83.162 46.2435 83.162C48.5835 83.162 49.8435 81.272 49.8435 79.004C49.8435 76.754 48.5835 74.846 46.2435 74.846C45.2535 74.846 44.3895 75.368 43.9935 75.944V71.3H42.6255V83H43.9935ZM43.9935 80.624V77.384C44.4075 76.556 45.1995 76.07 46.0455 76.07C47.5755 76.07 48.4755 77.312 48.4755 79.004C48.4755 80.696 47.5755 81.938 46.0455 81.938C45.1995 81.938 44.4075 81.452 43.9935 80.624ZM53.7876 83V76.16H55.6416V75.008H53.7876V72.902H52.4376V75.008H50.7636V76.16H52.4376V83H53.7876ZM58.8341 72.596C58.8341 72.11 58.4381 71.732 57.9521 71.732C57.4841 71.732 57.0881 72.11 57.0881 72.596C57.0881 73.064 57.4841 73.46 57.9521 73.46C58.4381 73.46 58.8341 73.064 58.8341 72.596ZM58.6361 83V75.008H57.2861V83H58.6361ZM63.2798 83V76.16H65.1338V75.008H63.2798V72.902H61.9298V75.008H60.2558V76.16H61.9298V83H63.2798ZM68.1283 83V71.3H66.7783V83H68.1283ZM71.296 79.238H76.804V78.752C76.804 76.412 75.688 74.846 73.528 74.846C71.404 74.846 69.964 76.592 69.964 79.076C69.964 81.596 71.512 83.162 73.816 83.162C74.77 83.162 75.598 82.964 76.246 82.46V81.218C75.526 81.758 74.878 81.974 73.978 81.974C72.52 81.974 71.35 81.092 71.296 79.238ZM73.546 75.998C74.842 75.998 75.436 77.006 75.49 78.176H71.368C71.62 76.7 72.484 75.998 73.546 75.998Z" fill="#444444"/>
</svg>
