<svg width="384" height="179" viewBox="0 0 384 179" fill="none" xmlns="http://www.w3.org/2000/svg">
<rect width="384" height="179" rx="12" fill="white"/>
<path d="M24 118C24 114.686 26.6863 112 30 112H120C123.314 112 126 114.686 126 118V146C126 149.314 123.314 152 120 152H30C26.6863 152 24 149.314 24 146V118Z" fill="#17EBA0"/>
<path d="M43.01 134.798H45.43C48.356 134.798 50.336 133.148 50.336 130.156C50.336 127.142 48.356 125.492 45.43 125.492H39.512V139H43.01V134.798ZM46.904 130.156C46.904 131.168 46.332 131.85 45.056 131.85H43.01V128.462H45.056C46.332 128.462 46.904 129.122 46.904 130.156ZM58.4 132.378V129.056C58.246 128.968 57.894 128.88 57.454 128.88C56.464 128.88 55.694 129.32 55.21 129.98V129.1H51.756V139H55.21V133.192C55.386 132.488 56.024 132.07 56.97 132.07C57.52 132.07 57.982 132.158 58.4 132.378ZM63.4872 126.416C63.4872 125.272 62.5852 124.546 61.5292 124.546C60.4732 124.546 59.5712 125.272 59.5712 126.416C59.5712 127.538 60.4732 128.264 61.5292 128.264C62.5852 128.264 63.4872 127.538 63.4872 126.416ZM63.2452 139V129.1H59.7912V139H63.2452ZM73.8533 130.068C73.2593 129.364 72.3793 128.88 71.1253 128.88C70.0253 128.88 69.0793 129.298 68.5733 129.914V129.1H65.1193V139H68.5733V132.972C68.7273 132.29 69.2553 131.916 69.8493 131.916C70.6193 131.916 70.9713 132.51 70.9713 133.346V139H74.4033V132.972C74.5793 132.29 75.0853 131.916 75.6793 131.916C76.4493 131.916 76.8013 132.51 76.8013 133.346V139H80.2553V132.51C80.2553 130.288 78.9793 128.88 76.9113 128.88C75.4593 128.88 74.4473 129.452 73.8533 130.068ZM87.4615 133.038V133.39C87.0655 133.104 86.1415 132.84 85.3055 132.84C83.1715 132.84 81.4995 134.072 81.4995 135.986C81.4995 138.076 83.1715 139.176 85.1295 139.176C86.1855 139.176 87.1315 138.824 87.4615 138.494V139H90.7835V132.884C90.7835 130.266 89.1115 128.88 86.1855 128.88C84.7775 128.88 83.4575 129.21 82.6435 129.65V132.422C83.4355 131.96 84.4035 131.718 85.3495 131.718C86.7575 131.718 87.4615 132.268 87.4615 133.038ZM87.4615 135.656V136.228C87.2415 136.624 86.6915 136.888 86.0755 136.888C85.3935 136.888 84.7115 136.602 84.7115 135.92C84.7115 135.26 85.3935 134.974 86.0755 134.974C86.6915 134.974 87.2415 135.238 87.4615 135.656ZM99.1989 132.378V129.056C99.0449 128.968 98.6929 128.88 98.2529 128.88C97.2629 128.88 96.4929 129.32 96.0089 129.98V129.1H92.5549V139H96.0089V133.192C96.1849 132.488 96.8229 132.07 97.7689 132.07C98.3189 132.07 98.7809 132.158 99.1989 132.378ZM102.064 142.498H105.474L110.578 129.1H107.146L105.298 134.732L103.406 129.1H99.82L103.516 138.758L102.064 142.498Z" fill="black"/>
<path d="M150.204 134.864V138.12C151.194 138.714 152.822 139.22 154.626 139.22C157.662 139.22 160.148 137.922 160.148 134.996C160.148 132.928 159.026 131.63 156.562 130.86L154.516 130.244C153.812 130.024 153.394 129.782 153.394 129.166C153.394 128.484 154.164 128.198 155.176 128.198C156.716 128.198 158.058 128.704 159.268 129.54V126.284C158.146 125.668 156.848 125.272 155.022 125.272C152.184 125.272 149.918 126.746 149.918 129.43C149.918 131.674 151.172 132.796 153.438 133.456L155.484 134.05C156.21 134.314 156.628 134.534 156.628 135.194C156.628 136.03 155.66 136.272 154.538 136.272C153.02 136.272 151.37 135.656 150.204 134.864ZM164.498 134.842H170.592V133.83C170.592 130.882 169.03 128.88 165.95 128.88C163.222 128.88 161.154 131.014 161.154 134.116C161.154 137.306 163.31 139.22 166.478 139.22C167.908 139.22 169.118 138.912 169.888 138.34V135.722C168.898 136.316 168.084 136.514 167.028 136.514C165.752 136.514 164.784 136.03 164.498 134.842ZM166.082 131.498C166.918 131.498 167.424 132.07 167.512 132.906H164.542C164.784 132.004 165.334 131.498 166.082 131.498ZM171.531 134.05C171.531 137.24 173.731 139.22 176.701 139.22C177.713 139.22 178.659 139.022 179.363 138.516V135.612C178.725 136.074 178.043 136.316 177.229 136.316C175.953 136.316 174.941 135.546 174.941 134.05C174.941 132.554 175.953 131.784 177.229 131.784C178.043 131.784 178.725 132.026 179.363 132.488V129.584C178.659 129.078 177.713 128.88 176.701 128.88C173.731 128.88 171.531 130.86 171.531 134.05ZM190.459 134.05C190.459 130.992 188.413 128.88 185.399 128.88C182.407 128.88 180.339 130.992 180.339 134.05C180.339 137.108 182.407 139.22 185.399 139.22C188.413 139.22 190.459 137.108 190.459 134.05ZM187.071 134.05C187.071 135.414 186.477 136.36 185.399 136.36C184.343 136.36 183.749 135.414 183.749 134.05C183.749 132.686 184.343 131.718 185.399 131.718C186.477 131.718 187.071 132.686 187.071 134.05ZM191.803 129.1V139H195.257V133.016C195.433 132.334 196.005 131.938 196.687 131.938C197.567 131.938 197.985 132.532 197.985 133.346V139H201.417V132.51C201.417 130.31 200.119 128.88 197.919 128.88C196.775 128.88 195.807 129.342 195.257 129.958V129.1H191.803ZM209.547 138.208V139H213.001V124.7H209.547V129.892C209.085 129.364 208.117 128.88 207.105 128.88C204.245 128.88 202.683 131.19 202.683 134.05C202.683 136.91 204.245 139.22 207.105 139.22C208.117 139.22 209.085 138.736 209.547 138.208ZM209.547 132.73V135.348C209.283 135.898 208.711 136.272 208.029 136.272C206.841 136.272 206.137 135.326 206.137 134.05C206.137 132.774 206.841 131.806 208.029 131.806C208.689 131.806 209.283 132.202 209.547 132.73ZM220.29 133.038V133.39C219.894 133.104 218.97 132.84 218.134 132.84C216 132.84 214.328 134.072 214.328 135.986C214.328 138.076 216 139.176 217.958 139.176C219.014 139.176 219.96 138.824 220.29 138.494V139H223.612V132.884C223.612 130.266 221.94 128.88 219.014 128.88C217.606 128.88 216.286 129.21 215.472 129.65V132.422C216.264 131.96 217.232 131.718 218.178 131.718C219.586 131.718 220.29 132.268 220.29 133.038ZM220.29 135.656V136.228C220.07 136.624 219.52 136.888 218.904 136.888C218.222 136.888 217.54 136.602 217.54 135.92C217.54 135.26 218.222 134.974 218.904 134.974C219.52 134.974 220.07 135.238 220.29 135.656ZM224.877 137.086C224.877 138.252 225.779 139.154 226.901 139.154C228.045 139.154 228.947 138.252 228.947 137.086C228.947 135.92 228.045 135.04 226.901 135.04C225.779 135.04 224.877 135.92 224.877 137.086ZM229.775 137.086C229.775 138.252 230.677 139.154 231.799 139.154C232.943 139.154 233.845 138.252 233.845 137.086C233.845 135.92 232.943 135.04 231.799 135.04C230.677 135.04 229.775 135.92 229.775 137.086Z" fill="black"/>
<path d="M147 113H237V111H147V113ZM242 118V146H244V118H242ZM237 151H147V153H237V151ZM142 146V118H140V146H142ZM147 151C144.239 151 142 148.761 142 146H140C140 149.866 143.134 153 147 153V151ZM242 146C242 148.761 239.761 151 237 151V153C240.866 153 244 149.866 244 146H242ZM237 113C239.761 113 242 115.239 242 118H244C244 114.134 240.866 111 237 111V113ZM147 111C143.134 111 140 114.134 140 118H142C142 115.239 144.239 113 147 113V111Z" fill="#17EBA0"/>
<path d="M267.204 134.864V138.12C268.194 138.714 269.822 139.22 271.626 139.22C274.662 139.22 277.148 137.922 277.148 134.996C277.148 132.928 276.026 131.63 273.562 130.86L271.516 130.244C270.812 130.024 270.394 129.782 270.394 129.166C270.394 128.484 271.164 128.198 272.176 128.198C273.716 128.198 275.058 128.704 276.268 129.54V126.284C275.146 125.668 273.848 125.272 272.022 125.272C269.184 125.272 266.918 126.746 266.918 129.43C266.918 131.674 268.172 132.796 270.438 133.456L272.484 134.05C273.21 134.314 273.628 134.534 273.628 135.194C273.628 136.03 272.66 136.272 271.538 136.272C270.02 136.272 268.37 135.656 267.204 134.864ZM281.498 134.842H287.592V133.83C287.592 130.882 286.03 128.88 282.95 128.88C280.222 128.88 278.154 131.014 278.154 134.116C278.154 137.306 280.31 139.22 283.478 139.22C284.908 139.22 286.118 138.912 286.888 138.34V135.722C285.898 136.316 285.084 136.514 284.028 136.514C282.752 136.514 281.784 136.03 281.498 134.842ZM283.082 131.498C283.918 131.498 284.424 132.07 284.512 132.906H281.542C281.784 132.004 282.334 131.498 283.082 131.498ZM288.531 134.05C288.531 137.24 290.731 139.22 293.701 139.22C294.713 139.22 295.659 139.022 296.363 138.516V135.612C295.725 136.074 295.043 136.316 294.229 136.316C292.953 136.316 291.941 135.546 291.941 134.05C291.941 132.554 292.953 131.784 294.229 131.784C295.043 131.784 295.725 132.026 296.363 132.488V129.584C295.659 129.078 294.713 128.88 293.701 128.88C290.731 128.88 288.531 130.86 288.531 134.05ZM307.459 134.05C307.459 130.992 305.413 128.88 302.399 128.88C299.407 128.88 297.339 130.992 297.339 134.05C297.339 137.108 299.407 139.22 302.399 139.22C305.413 139.22 307.459 137.108 307.459 134.05ZM304.071 134.05C304.071 135.414 303.477 136.36 302.399 136.36C301.343 136.36 300.749 135.414 300.749 134.05C300.749 132.686 301.343 131.718 302.399 131.718C303.477 131.718 304.071 132.686 304.071 134.05ZM308.803 129.1V139H312.257V133.016C312.433 132.334 313.005 131.938 313.687 131.938C314.567 131.938 314.985 132.532 314.985 133.346V139H318.417V132.51C318.417 130.31 317.119 128.88 314.919 128.88C313.775 128.88 312.807 129.342 312.257 129.958V129.1H308.803ZM326.547 138.208V139H330.001V124.7H326.547V129.892C326.085 129.364 325.117 128.88 324.105 128.88C321.245 128.88 319.683 131.19 319.683 134.05C319.683 136.91 321.245 139.22 324.105 139.22C325.117 139.22 326.085 138.736 326.547 138.208ZM326.547 132.73V135.348C326.283 135.898 325.711 136.272 325.029 136.272C323.841 136.272 323.137 135.326 323.137 134.05C323.137 132.774 323.841 131.806 325.029 131.806C325.689 131.806 326.283 132.202 326.547 132.73ZM337.29 133.038V133.39C336.894 133.104 335.97 132.84 335.134 132.84C333 132.84 331.328 134.072 331.328 135.986C331.328 138.076 333 139.176 334.958 139.176C336.014 139.176 336.96 138.824 337.29 138.494V139H340.612V132.884C340.612 130.266 338.94 128.88 336.014 128.88C334.606 128.88 333.286 129.21 332.472 129.65V132.422C333.264 131.96 334.232 131.718 335.178 131.718C336.586 131.718 337.29 132.268 337.29 133.038ZM337.29 135.656V136.228C337.07 136.624 336.52 136.888 335.904 136.888C335.222 136.888 334.54 136.602 334.54 135.92C334.54 135.26 335.222 134.974 335.904 134.974C336.52 134.974 337.07 135.238 337.29 135.656ZM341.877 137.086C341.877 138.252 342.779 139.154 343.901 139.154C345.045 139.154 345.947 138.252 345.947 137.086C345.947 135.92 345.045 135.04 343.901 135.04C342.779 135.04 341.877 135.92 341.877 137.086ZM346.775 137.086C346.775 138.252 347.677 139.154 348.799 139.154C349.943 139.154 350.845 138.252 350.845 137.086C350.845 135.92 349.943 135.04 348.799 135.04C347.677 135.04 346.775 135.92 346.775 137.086Z" fill="black"/>
<path d="M264 113H354V111H264V113ZM359 118V146H361V118H359ZM354 151H264V153H354V151ZM259 146V118H257V146H259ZM264 151C261.239 151 259 148.761 259 146H257C257 149.866 260.134 153 264 153V151ZM359 146C359 148.761 356.761 151 354 151V153C357.866 153 361 149.866 361 146H359ZM354 113C356.761 113 359 115.239 359 118H361C361 114.134 357.866 111 354 111V113ZM264 111C260.134 111 257 114.134 257 118H259C259 115.239 261.239 113 264 113V111Z" fill="#17EBA0"/>
<path d="M45.78 33.896H39.984V42.284H31.452V33.896H25.656V56H31.452V47.252H39.984V56H45.78V33.896ZM53.5341 49.196H63.5061V47.54C63.5061 42.716 60.9501 39.44 55.9101 39.44C51.4461 39.44 48.0621 42.932 48.0621 48.008C48.0621 53.228 51.5901 56.36 56.7741 56.36C59.1141 56.36 61.0941 55.856 62.3541 54.92V50.636C60.7341 51.608 59.4021 51.932 57.6741 51.932C55.5861 51.932 54.0021 51.14 53.5341 49.196ZM56.1261 43.724C57.4941 43.724 58.3221 44.66 58.4661 46.028H53.6061C54.0021 44.552 54.9021 43.724 56.1261 43.724ZM74.6579 46.244V46.82C74.0099 46.352 72.4979 45.92 71.1299 45.92C67.6379 45.92 64.9019 47.936 64.9019 51.068C64.9019 54.488 67.6379 56.288 70.8419 56.288C72.5699 56.288 74.1179 55.712 74.6579 55.172V56H80.0939V45.992C80.0939 41.708 77.3579 39.44 72.5699 39.44C70.2659 39.44 68.1059 39.98 66.7739 40.7V45.236C68.0699 44.48 69.6539 44.084 71.2019 44.084C73.5059 44.084 74.6579 44.984 74.6579 46.244ZM74.6579 50.528V51.464C74.2979 52.112 73.3979 52.544 72.3899 52.544C71.2739 52.544 70.1579 52.076 70.1579 50.96C70.1579 49.88 71.2739 49.412 72.3899 49.412C73.3979 49.412 74.2979 49.844 74.6579 50.528ZM93.3605 54.704V56H99.0125V32.6H93.3605V41.096C92.6045 40.232 91.0205 39.44 89.3645 39.44C84.6845 39.44 82.1285 43.22 82.1285 47.9C82.1285 52.58 84.6845 56.36 89.3645 56.36C91.0205 56.36 92.6045 55.568 93.3605 54.704ZM93.3605 45.74V50.024C92.9285 50.924 91.9925 51.536 90.8765 51.536C88.9325 51.536 87.7805 49.988 87.7805 47.9C87.7805 45.812 88.9325 44.228 90.8765 44.228C91.9565 44.228 92.9285 44.876 93.3605 45.74ZM108.095 35.408C108.095 33.536 106.619 32.348 104.891 32.348C103.163 32.348 101.687 33.536 101.687 35.408C101.687 37.244 103.163 38.432 104.891 38.432C106.619 38.432 108.095 37.244 108.095 35.408ZM107.699 56V39.8H102.047V56H107.699ZM110.766 39.8V56H116.418V46.208C116.706 45.092 117.642 44.444 118.758 44.444C120.198 44.444 120.882 45.416 120.882 46.748V56H126.498V45.38C126.498 41.78 124.374 39.44 120.774 39.44C118.902 39.44 117.318 40.196 116.418 41.204V39.8H110.766ZM139.55 53.804V54.344C139.55 56.612 137.678 57.512 135.518 57.512C133.286 57.512 131.522 56.936 129.866 55.532V60.716C131.162 61.544 133.43 62.084 135.698 62.084C140.882 62.084 145.13 59.636 145.13 53.66V39.8H139.55V41.024C138.83 40.16 137.498 39.44 135.734 39.44C131.162 39.44 128.57 42.932 128.57 47.396C128.57 51.86 131.162 55.388 135.734 55.388C137.498 55.388 138.83 54.632 139.55 53.804ZM139.55 45.272V49.556C139.118 50.276 138.218 50.888 137.138 50.888C135.266 50.888 134.15 49.448 134.15 47.396C134.15 45.344 135.266 43.904 137.138 43.904C138.218 43.904 139.118 44.552 139.55 45.272Z" fill="black"/>
<path d="M24.738 80.606V82.136C25.494 82.73 26.718 83.162 28.212 83.162C30.354 83.162 31.938 82.028 31.938 80.138C31.938 78.608 31.182 77.726 29.49 77.078L27.744 76.394C26.718 75.998 26.088 75.602 26.088 74.666C26.088 73.568 27.042 73.028 28.266 73.028C29.544 73.028 30.534 73.478 31.416 74.18V72.686C30.588 72.11 29.454 71.786 28.248 71.786C26.34 71.786 24.702 72.776 24.702 74.684C24.702 76.43 25.89 77.168 27.186 77.672L28.806 78.302C29.976 78.788 30.57 79.184 30.57 80.156C30.57 81.29 29.634 81.902 28.212 81.902C26.916 81.902 25.764 81.488 24.738 80.606ZM40.244 83V75.008H38.876V80.426C38.588 81.29 37.814 81.92 36.878 81.92C35.672 81.92 35.132 81.146 35.132 80.03V75.008H33.764V80.246C33.764 81.992 34.736 83.162 36.554 83.162C37.58 83.162 38.426 82.622 38.876 81.992V83H40.244ZM43.9935 83V82.064C44.3895 82.64 45.2535 83.162 46.2435 83.162C48.5835 83.162 49.8435 81.272 49.8435 79.004C49.8435 76.754 48.5835 74.846 46.2435 74.846C45.2535 74.846 44.3895 75.368 43.9935 75.944V71.3H42.6255V83H43.9935ZM43.9935 80.624V77.384C44.4075 76.556 45.1995 76.07 46.0455 76.07C47.5755 76.07 48.4755 77.312 48.4755 79.004C48.4755 80.696 47.5755 81.938 46.0455 81.938C45.1995 81.938 44.4075 81.452 43.9935 80.624ZM53.7876 83V76.16H55.6416V75.008H53.7876V72.902H52.4376V75.008H50.7636V76.16H52.4376V83H53.7876ZM58.8341 72.596C58.8341 72.11 58.4381 71.732 57.9521 71.732C57.4841 71.732 57.0881 72.11 57.0881 72.596C57.0881 73.064 57.4841 73.46 57.9521 73.46C58.4381 73.46 58.8341 73.064 58.8341 72.596ZM58.6361 83V75.008H57.2861V83H58.6361ZM63.2798 83V76.16H65.1338V75.008H63.2798V72.902H61.9298V75.008H60.2558V76.16H61.9298V83H63.2798ZM68.1283 83V71.3H66.7783V83H68.1283ZM71.296 79.238H76.804V78.752C76.804 76.412 75.688 74.846 73.528 74.846C71.404 74.846 69.964 76.592 69.964 79.076C69.964 81.596 71.512 83.162 73.816 83.162C74.77 83.162 75.598 82.964 76.246 82.46V81.218C75.526 81.758 74.878 81.974 73.978 81.974C72.52 81.974 71.35 81.092 71.296 79.238ZM73.546 75.998C74.842 75.998 75.436 77.006 75.49 78.176H71.368C71.62 76.7 72.484 75.998 73.546 75.998Z" fill="#444444"/>
</svg>
