<svg width="384" height="179" viewBox="0 0 384 179" fill="none" xmlns="http://www.w3.org/2000/svg">
<rect width="384" height="179" rx="12" fill="white"/>
<path d="M24 118C24 114.686 26.6863 112 30 112H120C123.314 112 126 114.686 126 118V146C126 149.314 123.314 152 120 152H30C26.6863 152 24 149.314 24 146V118Z" fill="#17EBA0"/>
<path d="M43.01 134.798H45.43C48.356 134.798 50.336 133.148 50.336 130.156C50.336 127.142 48.356 125.492 45.43 125.492H39.512V139H43.01V134.798ZM46.904 130.156C46.904 131.168 46.332 131.85 45.056 131.85H43.01V128.462H45.056C46.332 128.462 46.904 129.122 46.904 130.156ZM58.4 132.378V129.056C58.246 128.968 57.894 128.88 57.454 128.88C56.464 128.88 55.694 129.32 55.21 129.98V129.1H51.756V139H55.21V133.192C55.386 132.488 56.024 132.07 56.97 132.07C57.52 132.07 57.982 132.158 58.4 132.378ZM63.4872 126.416C63.4872 125.272 62.5852 124.546 61.5292 124.546C60.4732 124.546 59.5712 125.272 59.5712 126.416C59.5712 127.538 60.4732 128.264 61.5292 128.264C62.5852 128.264 63.4872 127.538 63.4872 126.416ZM63.2452 139V129.1H59.7912V139H63.2452ZM73.8533 130.068C73.2593 129.364 72.3793 128.88 71.1253 128.88C70.0253 128.88 69.0793 129.298 68.5733 129.914V129.1H65.1193V139H68.5733V132.972C68.7273 132.29 69.2553 131.916 69.8493 131.916C70.6193 131.916 70.9713 132.51 70.9713 133.346V139H74.4033V132.972C74.5793 132.29 75.0853 131.916 75.6793 131.916C76.4493 131.916 76.8013 132.51 76.8013 133.346V139H80.2553V132.51C80.2553 130.288 78.9793 128.88 76.9113 128.88C75.4593 128.88 74.4473 129.452 73.8533 130.068ZM87.4615 133.038V133.39C87.0655 133.104 86.1415 132.84 85.3055 132.84C83.1715 132.84 81.4995 134.072 81.4995 135.986C81.4995 138.076 83.1715 139.176 85.1295 139.176C86.1855 139.176 87.1315 138.824 87.4615 138.494V139H90.7835V132.884C90.7835 130.266 89.1115 128.88 86.1855 128.88C84.7775 128.88 83.4575 129.21 82.6435 129.65V132.422C83.4355 131.96 84.4035 131.718 85.3495 131.718C86.7575 131.718 87.4615 132.268 87.4615 133.038ZM87.4615 135.656V136.228C87.2415 136.624 86.6915 136.888 86.0755 136.888C85.3935 136.888 84.7115 136.602 84.7115 135.92C84.7115 135.26 85.3935 134.974 86.0755 134.974C86.6915 134.974 87.2415 135.238 87.4615 135.656ZM99.1989 132.378V129.056C99.0449 128.968 98.6929 128.88 98.2529 128.88C97.2629 128.88 96.4929 129.32 96.0089 129.98V129.1H92.5549V139H96.0089V133.192C96.1849 132.488 96.8229 132.07 97.7689 132.07C98.3189 132.07 98.7809 132.158 99.1989 132.378ZM102.064 142.498H105.474L110.578 129.1H107.146L105.298 134.732L103.406 129.1H99.82L103.516 138.758L102.064 142.498Z" fill="black"/>
<path d="M149.704 134.864V138.12C150.694 138.714 152.322 139.22 154.126 139.22C157.162 139.22 159.648 137.922 159.648 134.996C159.648 132.928 158.526 131.63 156.062 130.86L154.016 130.244C153.312 130.024 152.894 129.782 152.894 129.166C152.894 128.484 153.664 128.198 154.676 128.198C156.216 128.198 157.558 128.704 158.768 129.54V126.284C157.646 125.668 156.348 125.272 154.522 125.272C151.684 125.272 149.418 126.746 149.418 129.43C149.418 131.674 150.672 132.796 152.938 133.456L154.984 134.05C155.71 134.314 156.128 134.534 156.128 135.194C156.128 136.03 155.16 136.272 154.038 136.272C152.52 136.272 150.87 135.656 149.704 134.864ZM163.998 134.842H170.092V133.83C170.092 130.882 168.53 128.88 165.45 128.88C162.722 128.88 160.654 131.014 160.654 134.116C160.654 137.306 162.81 139.22 165.978 139.22C167.408 139.22 168.618 138.912 169.388 138.34V135.722C168.398 136.316 167.584 136.514 166.528 136.514C165.252 136.514 164.284 136.03 163.998 134.842ZM165.582 131.498C166.418 131.498 166.924 132.07 167.012 132.906H164.042C164.284 132.004 164.834 131.498 165.582 131.498ZM171.031 134.05C171.031 137.24 173.231 139.22 176.201 139.22C177.213 139.22 178.159 139.022 178.863 138.516V135.612C178.225 136.074 177.543 136.316 176.729 136.316C175.453 136.316 174.441 135.546 174.441 134.05C174.441 132.554 175.453 131.784 176.729 131.784C177.543 131.784 178.225 132.026 178.863 132.488V129.584C178.159 129.078 177.213 128.88 176.201 128.88C173.231 128.88 171.031 130.86 171.031 134.05ZM189.959 134.05C189.959 130.992 187.913 128.88 184.899 128.88C181.907 128.88 179.839 130.992 179.839 134.05C179.839 137.108 181.907 139.22 184.899 139.22C187.913 139.22 189.959 137.108 189.959 134.05ZM186.571 134.05C186.571 135.414 185.977 136.36 184.899 136.36C183.843 136.36 183.249 135.414 183.249 134.05C183.249 132.686 183.843 131.718 184.899 131.718C185.977 131.718 186.571 132.686 186.571 134.05ZM191.303 129.1V139H194.757V133.016C194.933 132.334 195.505 131.938 196.187 131.938C197.067 131.938 197.485 132.532 197.485 133.346V139H200.917V132.51C200.917 130.31 199.619 128.88 197.419 128.88C196.275 128.88 195.307 129.342 194.757 129.958V129.1H191.303ZM209.047 138.208V139H212.501V124.7H209.047V129.892C208.585 129.364 207.617 128.88 206.605 128.88C203.745 128.88 202.183 131.19 202.183 134.05C202.183 136.91 203.745 139.22 206.605 139.22C207.617 139.22 208.585 138.736 209.047 138.208ZM209.047 132.73V135.348C208.783 135.898 208.211 136.272 207.529 136.272C206.341 136.272 205.637 135.326 205.637 134.05C205.637 132.774 206.341 131.806 207.529 131.806C208.189 131.806 208.783 132.202 209.047 132.73ZM219.79 133.038V133.39C219.394 133.104 218.47 132.84 217.634 132.84C215.5 132.84 213.828 134.072 213.828 135.986C213.828 138.076 215.5 139.176 217.458 139.176C218.514 139.176 219.46 138.824 219.79 138.494V139H223.112V132.884C223.112 130.266 221.44 128.88 218.514 128.88C217.106 128.88 215.786 129.21 214.972 129.65V132.422C215.764 131.96 216.732 131.718 217.678 131.718C219.086 131.718 219.79 132.268 219.79 133.038ZM219.79 135.656V136.228C219.57 136.624 219.02 136.888 218.404 136.888C217.722 136.888 217.04 136.602 217.04 135.92C217.04 135.26 217.722 134.974 218.404 134.974C219.02 134.974 219.57 135.238 219.79 135.656ZM231.527 132.378V129.056C231.373 128.968 231.021 128.88 230.581 128.88C229.591 128.88 228.821 129.32 228.337 129.98V129.1H224.883V139H228.337V133.192C228.513 132.488 229.151 132.07 230.097 132.07C230.647 132.07 231.109 132.158 231.527 132.378ZM234.392 142.498H237.802L242.906 129.1H239.474L237.626 134.732L235.734 129.1H232.148L235.844 138.758L234.392 142.498Z" fill="black"/>
<path d="M144 113H249V111H144V113ZM254 118V146H256V118H254ZM249 151H144V153H249V151ZM139 146V118H137V146H139ZM144 151C141.239 151 139 148.761 139 146H137C137 149.866 140.134 153 144 153V151ZM254 146C254 148.761 251.761 151 249 151V153C252.866 153 256 149.866 256 146H254ZM249 113C251.761 113 254 115.239 254 118H256C256 114.134 252.866 111 249 111V113ZM144 111C140.134 111 137 114.134 137 118H139C139 115.239 141.239 113 144 113V111Z" fill="#17EBA0"/>
<path d="M45.78 33.896H39.984V42.284H31.452V33.896H25.656V56H31.452V47.252H39.984V56H45.78V33.896ZM53.5341 49.196H63.5061V47.54C63.5061 42.716 60.9501 39.44 55.9101 39.44C51.4461 39.44 48.0621 42.932 48.0621 48.008C48.0621 53.228 51.5901 56.36 56.7741 56.36C59.1141 56.36 61.0941 55.856 62.3541 54.92V50.636C60.7341 51.608 59.4021 51.932 57.6741 51.932C55.5861 51.932 54.0021 51.14 53.5341 49.196ZM56.1261 43.724C57.4941 43.724 58.3221 44.66 58.4661 46.028H53.6061C54.0021 44.552 54.9021 43.724 56.1261 43.724ZM74.6579 46.244V46.82C74.0099 46.352 72.4979 45.92 71.1299 45.92C67.6379 45.92 64.9019 47.936 64.9019 51.068C64.9019 54.488 67.6379 56.288 70.8419 56.288C72.5699 56.288 74.1179 55.712 74.6579 55.172V56H80.0939V45.992C80.0939 41.708 77.3579 39.44 72.5699 39.44C70.2659 39.44 68.1059 39.98 66.7739 40.7V45.236C68.0699 44.48 69.6539 44.084 71.2019 44.084C73.5059 44.084 74.6579 44.984 74.6579 46.244ZM74.6579 50.528V51.464C74.2979 52.112 73.3979 52.544 72.3899 52.544C71.2739 52.544 70.1579 52.076 70.1579 50.96C70.1579 49.88 71.2739 49.412 72.3899 49.412C73.3979 49.412 74.2979 49.844 74.6579 50.528ZM93.3605 54.704V56H99.0125V32.6H93.3605V41.096C92.6045 40.232 91.0205 39.44 89.3645 39.44C84.6845 39.44 82.1285 43.22 82.1285 47.9C82.1285 52.58 84.6845 56.36 89.3645 56.36C91.0205 56.36 92.6045 55.568 93.3605 54.704ZM93.3605 45.74V50.024C92.9285 50.924 91.9925 51.536 90.8765 51.536C88.9325 51.536 87.7805 49.988 87.7805 47.9C87.7805 45.812 88.9325 44.228 90.8765 44.228C91.9565 44.228 92.9285 44.876 93.3605 45.74ZM108.095 35.408C108.095 33.536 106.619 32.348 104.891 32.348C103.163 32.348 101.687 33.536 101.687 35.408C101.687 37.244 103.163 38.432 104.891 38.432C106.619 38.432 108.095 37.244 108.095 35.408ZM107.699 56V39.8H102.047V56H107.699ZM110.766 39.8V56H116.418V46.208C116.706 45.092 117.642 44.444 118.758 44.444C120.198 44.444 120.882 45.416 120.882 46.748V56H126.498V45.38C126.498 41.78 124.374 39.44 120.774 39.44C118.902 39.44 117.318 40.196 116.418 41.204V39.8H110.766ZM139.55 53.804V54.344C139.55 56.612 137.678 57.512 135.518 57.512C133.286 57.512 131.522 56.936 129.866 55.532V60.716C131.162 61.544 133.43 62.084 135.698 62.084C140.882 62.084 145.13 59.636 145.13 53.66V39.8H139.55V41.024C138.83 40.16 137.498 39.44 135.734 39.44C131.162 39.44 128.57 42.932 128.57 47.396C128.57 51.86 131.162 55.388 135.734 55.388C137.498 55.388 138.83 54.632 139.55 53.804ZM139.55 45.272V49.556C139.118 50.276 138.218 50.888 137.138 50.888C135.266 50.888 134.15 49.448 134.15 47.396C134.15 45.344 135.266 43.904 137.138 43.904C138.218 43.904 139.118 44.552 139.55 45.272Z" fill="black"/>
<path d="M24.738 80.606V82.136C25.494 82.73 26.718 83.162 28.212 83.162C30.354 83.162 31.938 82.028 31.938 80.138C31.938 78.608 31.182 77.726 29.49 77.078L27.744 76.394C26.718 75.998 26.088 75.602 26.088 74.666C26.088 73.568 27.042 73.028 28.266 73.028C29.544 73.028 30.534 73.478 31.416 74.18V72.686C30.588 72.11 29.454 71.786 28.248 71.786C26.34 71.786 24.702 72.776 24.702 74.684C24.702 76.43 25.89 77.168 27.186 77.672L28.806 78.302C29.976 78.788 30.57 79.184 30.57 80.156C30.57 81.29 29.634 81.902 28.212 81.902C26.916 81.902 25.764 81.488 24.738 80.606ZM40.244 83V75.008H38.876V80.426C38.588 81.29 37.814 81.92 36.878 81.92C35.672 81.92 35.132 81.146 35.132 80.03V75.008H33.764V80.246C33.764 81.992 34.736 83.162 36.554 83.162C37.58 83.162 38.426 82.622 38.876 81.992V83H40.244ZM43.9935 83V82.064C44.3895 82.64 45.2535 83.162 46.2435 83.162C48.5835 83.162 49.8435 81.272 49.8435 79.004C49.8435 76.754 48.5835 74.846 46.2435 74.846C45.2535 74.846 44.3895 75.368 43.9935 75.944V71.3H42.6255V83H43.9935ZM43.9935 80.624V77.384C44.4075 76.556 45.1995 76.07 46.0455 76.07C47.5755 76.07 48.4755 77.312 48.4755 79.004C48.4755 80.696 47.5755 81.938 46.0455 81.938C45.1995 81.938 44.4075 81.452 43.9935 80.624ZM53.7876 83V76.16H55.6416V75.008H53.7876V72.902H52.4376V75.008H50.7636V76.16H52.4376V83H53.7876ZM58.8341 72.596C58.8341 72.11 58.4381 71.732 57.9521 71.732C57.4841 71.732 57.0881 72.11 57.0881 72.596C57.0881 73.064 57.4841 73.46 57.9521 73.46C58.4381 73.46 58.8341 73.064 58.8341 72.596ZM58.6361 83V75.008H57.2861V83H58.6361ZM63.2798 83V76.16H65.1338V75.008H63.2798V72.902H61.9298V75.008H60.2558V76.16H61.9298V83H63.2798ZM68.1283 83V71.3H66.7783V83H68.1283ZM71.296 79.238H76.804V78.752C76.804 76.412 75.688 74.846 73.528 74.846C71.404 74.846 69.964 76.592 69.964 79.076C69.964 81.596 71.512 83.162 73.816 83.162C74.77 83.162 75.598 82.964 76.246 82.46V81.218C75.526 81.758 74.878 81.974 73.978 81.974C72.52 81.974 71.35 81.092 71.296 79.238ZM73.546 75.998C74.842 75.998 75.436 77.006 75.49 78.176H71.368C71.62 76.7 72.484 75.998 73.546 75.998Z" fill="#444444"/>
</svg>
