<svg width="375" height="496" viewBox="0 0 375 496" fill="none" xmlns="http://www.w3.org/2000/svg">
<rect width="375" height="496" fill="white"/>
<path d="M35.152 59.232V64.56C36.772 65.532 39.436 66.36 42.388 66.36C47.356 66.36 51.424 64.236 51.424 59.448C51.424 56.064 49.588 53.94 45.556 52.68L42.208 51.672C41.056 51.312 40.372 50.916 40.372 49.908C40.372 48.792 41.632 48.324 43.288 48.324C45.808 48.324 48.004 49.152 49.984 50.52V45.192C48.148 44.184 46.024 43.536 43.036 43.536C38.392 43.536 34.684 45.948 34.684 50.34C34.684 54.012 36.736 55.848 40.444 56.928L43.792 57.9C44.98 58.332 45.664 58.692 45.664 59.772C45.664 61.14 44.08 61.536 42.244 61.536C39.76 61.536 37.06 60.528 35.152 59.232ZM59.7006 45.408C59.7006 43.536 58.2246 42.348 56.4966 42.348C54.7686 42.348 53.2926 43.536 53.2926 45.408C53.2926 47.244 54.7686 48.432 56.4966 48.432C58.2246 48.432 59.7006 47.244 59.7006 45.408ZM59.3046 66V49.8H53.6526V66H59.3046ZM72.4874 63.804V64.344C72.4874 66.612 70.6154 67.512 68.4554 67.512C66.2234 67.512 64.4594 66.936 62.8034 65.532V70.716C64.0994 71.544 66.3674 72.084 68.6354 72.084C73.8194 72.084 78.0674 69.636 78.0674 63.66V49.8H72.4874V51.024C71.7674 50.16 70.4354 49.44 68.6714 49.44C64.0994 49.44 61.5074 52.932 61.5074 57.396C61.5074 61.86 64.0994 65.388 68.6714 65.388C70.4354 65.388 71.7674 64.632 72.4874 63.804ZM72.4874 55.272V59.556C72.0554 60.276 71.1554 60.888 70.0754 60.888C68.2034 60.888 67.0874 59.448 67.0874 57.396C67.0874 55.344 68.2034 53.904 70.0754 53.904C71.1554 53.904 72.0554 54.552 72.4874 55.272ZM81.1448 49.8V66H86.7968V56.208C87.0848 55.092 88.0208 54.444 89.1368 54.444C90.5768 54.444 91.2608 55.416 91.2608 56.748V66H96.8768V55.38C96.8768 51.78 94.7528 49.44 91.1528 49.44C89.2808 49.44 87.6968 50.196 86.7968 51.204V49.8H81.1448ZM116.56 66.36C122.392 66.36 126.172 63.048 126.172 57V43.896H120.412V56.46C120.412 59.592 118.936 61.212 116.56 61.212C114.148 61.212 112.672 59.592 112.672 56.46V43.896H106.912V56.964C106.912 63.048 110.728 66.36 116.56 66.36ZM134.75 71.724V64.704C135.506 65.568 137.09 66.36 138.746 66.36C143.426 66.36 145.982 62.508 145.982 57.9C145.982 53.256 143.426 49.44 138.746 49.44C137.09 49.44 135.506 50.232 134.75 51.096V49.8H129.098V71.724H134.75ZM134.75 60.024V55.74C135.182 54.876 136.118 54.228 137.234 54.228C139.178 54.228 140.33 55.812 140.33 57.9C140.33 59.988 139.178 61.536 137.234 61.536C136.154 61.536 135.182 60.924 134.75 60.024Z" fill="black"/>
<path d="M39.202 82.542V81.318C38.896 81.192 38.59 81.138 38.158 81.138C36.754 81.138 35.71 82.074 35.71 83.676V85.008H34.36V86.16H35.71V93H37.042V86.16H38.842V85.008H37.042V83.784C37.042 82.83 37.564 82.326 38.356 82.326C38.644 82.326 38.95 82.38 39.202 82.542ZM47.0541 89.004C47.0541 86.556 45.5601 84.846 43.3821 84.846C41.1861 84.846 39.7101 86.556 39.7101 89.004C39.7101 91.452 41.1861 93.162 43.3821 93.162C45.5601 93.162 47.0541 91.452 47.0541 89.004ZM45.6861 89.004C45.6861 90.75 44.8221 91.974 43.3821 91.974C41.9421 91.974 41.0781 90.75 41.0781 89.004C41.0781 87.258 41.9421 86.034 43.3821 86.034C44.8221 86.034 45.6861 87.258 45.6861 89.004ZM52.9858 86.358V84.972C52.8418 84.9 52.5538 84.846 52.2118 84.846C51.3298 84.846 50.5738 85.368 50.2318 86.052V85.008H48.8818V93H50.2318V87.636C50.5018 86.7 51.2398 86.142 52.0858 86.142C52.4278 86.142 52.7698 86.214 52.9858 86.358ZM63.0836 87.69V88.734C62.7416 88.428 61.9136 88.086 61.0856 88.086C59.3756 88.086 58.0436 89.094 58.0436 90.588C58.0436 92.172 59.3756 93.144 61.0136 93.144C61.9496 93.144 62.7776 92.73 63.0836 92.406V93H64.3976V87.582C64.3976 85.89 63.2816 84.846 61.3916 84.846C60.4016 84.846 59.4476 85.134 58.9076 85.512V86.79C59.5736 86.358 60.2936 86.088 61.1756 86.088C62.3456 86.088 63.0836 86.7 63.0836 87.69ZM63.0836 90.192V91.02C62.8676 91.614 62.0756 92.01 61.2296 92.01C60.2576 92.01 59.3216 91.56 59.3216 90.588C59.3216 89.634 60.2576 89.202 61.2296 89.202C62.0756 89.202 62.8676 89.598 63.0836 90.192ZM79.8767 81.948H78.4547V86.682H72.2087V81.948H70.7867V93H72.2087V87.96H78.4547V93H79.8767V81.948ZM83.1593 89.238H88.6673V88.752C88.6673 86.412 87.5513 84.846 85.3913 84.846C83.2673 84.846 81.8273 86.592 81.8273 89.076C81.8273 91.596 83.3753 93.162 85.6793 93.162C86.6333 93.162 87.4613 92.964 88.1093 92.46V91.218C87.3893 91.758 86.7413 91.974 85.8413 91.974C84.3833 91.974 83.2133 91.092 83.1593 89.238ZM85.4093 85.998C86.7053 85.998 87.2993 87.006 87.3533 88.176H83.2313C83.4833 86.7 84.3473 85.998 85.4093 85.998ZM97.2208 91.11L95.5828 85.008H94.3768L92.7388 91.11L90.9748 85.008H89.6248L91.9828 93H93.2968L94.9708 86.934L96.6268 93H97.9408L100.299 85.008H98.9848L97.2208 91.11ZM103.177 93V81.3H101.827V93H103.177ZM106.345 89.238H111.853V88.752C111.853 86.412 110.737 84.846 108.577 84.846C106.453 84.846 105.013 86.592 105.013 89.076C105.013 91.596 106.561 93.162 108.865 93.162C109.819 93.162 110.647 92.964 111.295 92.46V91.218C110.575 91.758 109.927 91.974 109.027 91.974C107.569 91.974 106.399 91.092 106.345 89.238ZM108.595 85.998C109.891 85.998 110.485 87.006 110.539 88.176H106.417C106.669 86.7 107.533 85.998 108.595 85.998ZM115.836 93V86.16H117.69V85.008H115.836V82.902H114.486V85.008H112.812V86.16H114.486V93H115.836ZM121.567 93V86.16H123.421V85.008H121.567V82.902H120.217V85.008H118.543V86.16H120.217V93H121.567ZM130.568 88.572H133.232C135.464 88.572 136.922 87.42 136.922 85.26C136.922 83.082 135.464 81.948 133.232 81.948H129.146V93H130.568V88.572ZM135.518 85.26C135.518 86.502 134.708 87.312 133.214 87.312H130.568V83.19H133.214C134.708 83.19 135.518 84 135.518 85.26ZM142.836 87.69V88.734C142.494 88.428 141.666 88.086 140.838 88.086C139.128 88.086 137.796 89.094 137.796 90.588C137.796 92.172 139.128 93.144 140.766 93.144C141.702 93.144 142.53 92.73 142.836 92.406V93H144.15V87.582C144.15 85.89 143.034 84.846 141.144 84.846C140.154 84.846 139.2 85.134 138.66 85.512V86.79C139.326 86.358 140.046 86.088 140.928 86.088C142.098 86.088 142.836 86.7 142.836 87.69ZM142.836 90.192V91.02C142.62 91.614 141.828 92.01 140.982 92.01C140.01 92.01 139.074 91.56 139.074 90.588C139.074 89.634 140.01 89.202 140.982 89.202C141.828 89.202 142.62 89.598 142.836 90.192ZM145.882 89.004C145.882 91.56 147.574 93.162 149.734 93.162C150.508 93.162 151.318 92.982 151.876 92.496V91.128C151.3 91.704 150.598 91.956 149.824 91.956C148.402 91.956 147.25 90.84 147.25 89.004C147.25 87.168 148.402 86.052 149.824 86.052C150.598 86.052 151.3 86.304 151.876 86.88V85.512C151.318 85.026 150.508 84.846 149.734 84.846C147.574 84.846 145.882 86.448 145.882 89.004ZM160.467 93L156.471 88.662L160.395 85.008H158.649L155.103 88.374V81.3H153.753V93H155.103V89.04L158.793 93H160.467ZM166.162 87.69V88.734C165.82 88.428 164.992 88.086 164.164 88.086C162.454 88.086 161.122 89.094 161.122 90.588C161.122 92.172 162.454 93.144 164.092 93.144C165.028 93.144 165.856 92.73 166.162 92.406V93H167.476V87.582C167.476 85.89 166.36 84.846 164.47 84.846C163.48 84.846 162.526 85.134 161.986 85.512V86.79C162.652 86.358 163.372 86.088 164.254 86.088C165.424 86.088 166.162 86.7 166.162 87.69ZM166.162 90.192V91.02C165.946 91.614 165.154 92.01 164.308 92.01C163.336 92.01 162.4 91.56 162.4 90.588C162.4 89.634 163.336 89.202 164.308 89.202C165.154 89.202 165.946 89.598 166.162 90.192ZM173.888 86.358V84.972C173.744 84.9 173.456 84.846 173.114 84.846C172.232 84.846 171.476 85.368 171.134 86.052V85.008H169.784V93H171.134V87.636C171.404 86.7 172.142 86.142 172.988 86.142C173.33 86.142 173.672 86.214 173.888 86.358ZM180.613 92.064V93H181.981V81.3H180.613V85.944C180.217 85.368 179.353 84.846 178.363 84.846C176.023 84.846 174.763 86.754 174.763 89.004C174.763 91.272 176.023 93.162 178.363 93.162C179.353 93.162 180.217 92.64 180.613 92.064ZM180.613 87.384V90.624C180.199 91.452 179.407 91.938 178.561 91.938C177.031 91.938 176.131 90.696 176.131 89.004C176.131 87.312 177.031 86.07 178.561 86.07C179.407 86.07 180.199 86.556 180.613 87.384ZM195.493 81.948H188.455V93H195.493V91.722H189.859V87.96H194.971V86.7H189.859V83.208H195.493V81.948ZM197.61 85.008V93H198.96V87.582C199.248 86.718 200.058 86.088 200.994 86.088C202.2 86.088 202.758 86.862 202.758 87.978V93H204.126V87.762C204.126 86.016 203.136 84.846 201.318 84.846C200.292 84.846 199.428 85.386 198.96 86.016V85.008H197.61ZM208.649 93V86.16H210.503V85.008H208.649V82.902H207.299V85.008H205.625V86.16H207.299V93H208.649ZM212.763 89.238H218.271V88.752C218.271 86.412 217.155 84.846 214.995 84.846C212.871 84.846 211.431 86.592 211.431 89.076C211.431 91.596 212.979 93.162 215.283 93.162C216.237 93.162 217.065 92.964 217.713 92.46V91.218C216.993 91.758 216.345 91.974 215.445 91.974C213.987 91.974 212.817 91.092 212.763 89.238ZM215.013 85.998C216.309 85.998 216.903 87.006 216.957 88.176H212.835C213.087 86.7 213.951 85.998 215.013 85.998ZM224.214 86.358V84.972C224.07 84.9 223.782 84.846 223.44 84.846C222.558 84.846 221.802 85.368 221.46 86.052V85.008H220.11V93H221.46V87.636C221.73 86.7 222.468 86.142 223.314 86.142C223.656 86.142 223.998 86.214 224.214 86.358ZM227.244 96.06V92.064C227.658 92.64 228.504 93.162 229.494 93.162C231.852 93.162 233.094 91.218 233.094 89.004C233.094 86.79 231.852 84.846 229.494 84.846C228.504 84.846 227.658 85.368 227.244 85.944V85.008H225.894V96.06H227.244ZM227.244 90.624V87.384C227.658 86.556 228.45 86.07 229.296 86.07C230.826 86.07 231.726 87.312 231.726 89.004C231.726 90.696 230.826 91.938 229.296 91.938C228.45 91.938 227.658 91.452 227.244 90.624ZM239.033 86.358V84.972C238.889 84.9 238.601 84.846 238.259 84.846C237.377 84.846 236.621 85.368 236.279 86.052V85.008H234.929V93H236.279V87.636C236.549 86.7 237.287 86.142 238.133 86.142C238.475 86.142 238.817 86.214 239.033 86.358ZM242.26 82.596C242.26 82.11 241.864 81.732 241.378 81.732C240.91 81.732 240.514 82.11 240.514 82.596C240.514 83.064 240.91 83.46 241.378 83.46C241.864 83.46 242.26 83.064 242.26 82.596ZM242.062 93V85.008H240.712V93H242.062ZM244.006 90.93V92.37C244.6 92.838 245.59 93.162 246.634 93.162C248.308 93.162 249.622 92.316 249.622 90.84C249.622 89.706 248.956 89.004 247.75 88.59L246.526 88.176C245.77 87.906 245.338 87.69 245.338 87.042C245.338 86.358 246.022 85.998 246.85 85.998C247.822 85.998 248.56 86.394 249.226 86.952V85.548C248.578 85.098 247.75 84.846 246.85 84.846C245.266 84.846 244.024 85.692 244.024 87.096C244.024 88.392 244.834 88.968 246.04 89.364L247.138 89.742C247.84 89.976 248.29 90.3 248.29 90.894C248.29 91.686 247.516 92.01 246.634 92.01C245.662 92.01 244.744 91.614 244.006 90.93ZM252.296 89.238H257.804V88.752C257.804 86.412 256.688 84.846 254.528 84.846C252.404 84.846 250.964 86.592 250.964 89.076C250.964 91.596 252.512 93.162 254.816 93.162C255.77 93.162 256.598 92.964 257.246 92.46V91.218C256.526 91.758 255.878 91.974 254.978 91.974C253.52 91.974 252.35 91.092 252.296 89.238ZM254.546 85.998C255.842 85.998 256.436 87.006 256.49 88.176H252.368C252.62 86.7 253.484 85.998 254.546 85.998ZM268.062 87.69V88.734C267.72 88.428 266.892 88.086 266.064 88.086C264.354 88.086 263.022 89.094 263.022 90.588C263.022 92.172 264.354 93.144 265.992 93.144C266.928 93.144 267.756 92.73 268.062 92.406V93H269.376V87.582C269.376 85.89 268.26 84.846 266.37 84.846C265.38 84.846 264.426 85.134 263.886 85.512V86.79C264.552 86.358 265.272 86.088 266.154 86.088C267.324 86.088 268.062 86.7 268.062 87.69ZM268.062 90.192V91.02C267.846 91.614 267.054 92.01 266.208 92.01C265.236 92.01 264.3 91.56 264.3 90.588C264.3 89.634 265.236 89.202 266.208 89.202C267.054 89.202 267.846 89.598 268.062 90.192ZM271.109 89.004C271.109 91.56 272.801 93.162 274.961 93.162C275.735 93.162 276.545 92.982 277.103 92.496V91.128C276.527 91.704 275.825 91.956 275.051 91.956C273.629 91.956 272.477 90.84 272.477 89.004C272.477 87.168 273.629 86.052 275.051 86.052C275.825 86.052 276.527 86.304 277.103 86.88V85.512C276.545 85.026 275.735 84.846 274.961 84.846C272.801 84.846 271.109 86.448 271.109 89.004ZM278.403 89.004C278.403 91.56 280.095 93.162 282.255 93.162C283.029 93.162 283.839 92.982 284.397 92.496V91.128C283.821 91.704 283.119 91.956 282.345 91.956C280.923 91.956 279.771 90.84 279.771 89.004C279.771 87.168 280.923 86.052 282.345 86.052C283.119 86.052 283.821 86.304 284.397 86.88V85.512C283.839 85.026 283.029 84.846 282.255 84.846C280.095 84.846 278.403 86.448 278.403 89.004ZM293.042 89.004C293.042 86.556 291.548 84.846 289.37 84.846C287.174 84.846 285.698 86.556 285.698 89.004C285.698 91.452 287.174 93.162 289.37 93.162C291.548 93.162 293.042 91.452 293.042 89.004ZM291.674 89.004C291.674 90.75 290.81 91.974 289.37 91.974C287.93 91.974 287.066 90.75 287.066 89.004C287.066 87.258 287.93 86.034 289.37 86.034C290.81 86.034 291.674 87.258 291.674 89.004ZM301.242 93V85.008H299.874V90.426C299.586 91.29 298.812 91.92 297.876 91.92C296.67 91.92 296.13 91.146 296.13 90.03V85.008H294.762V90.246C294.762 91.992 295.734 93.162 297.552 93.162C298.578 93.162 299.424 92.622 299.874 91.992V93H301.242ZM303.642 85.008V93H304.992V87.582C305.28 86.718 306.09 86.088 307.026 86.088C308.232 86.088 308.79 86.862 308.79 87.978V93H310.158V87.762C310.158 86.016 309.168 84.846 307.35 84.846C306.324 84.846 305.46 85.386 304.992 86.016V85.008H303.642ZM314.68 93V86.16H316.534V85.008H314.68V82.902H313.33V85.008H311.656V86.16H313.33V93H314.68Z" fill="#444444"/>
<rect x="34" y="148" width="307" height="36" rx="4" fill="white" stroke="#999999"/>
<path d="M46.54 168.678V170.568C47.026 170.856 47.89 171.18 48.772 171.18C51.094 171.18 52.264 169.956 52.264 167.184V159.948H50.392V167.094C50.392 168.768 49.942 169.47 48.736 169.47C47.872 169.47 47.242 169.128 46.54 168.678ZM61.4313 167.004C61.4313 164.556 59.8833 162.828 57.6333 162.828C55.3833 162.828 53.8353 164.556 53.8353 167.004C53.8353 169.452 55.3833 171.18 57.6333 171.18C59.8833 171.18 61.4313 169.452 61.4313 167.004ZM59.6313 167.004C59.6313 168.516 58.9293 169.632 57.6333 169.632C56.3373 169.632 55.6353 168.516 55.6353 167.004C55.6353 165.492 56.3373 164.376 57.6333 164.376C58.9293 164.376 59.6313 165.492 59.6313 167.004ZM63.1121 159.3V171H64.9121V165.744C65.1101 164.952 65.8121 164.466 66.5861 164.466C67.6121 164.466 68.0981 165.114 68.0981 166.104V171H69.8981V165.798C69.8981 164.034 68.8901 162.828 67.0721 162.828C66.1361 162.828 65.3441 163.26 64.9121 163.764V159.3H63.1121ZM72.0242 163.008V171H73.8242V165.744C74.0222 164.952 74.7242 164.466 75.4982 164.466C76.5242 164.466 77.0102 165.114 77.0102 166.104V171H78.8102V165.798C78.8102 164.034 77.8022 162.828 75.9842 162.828C75.0482 162.828 74.2562 163.26 73.8242 163.764V163.008H72.0242ZM85.017 159.948V171H88.743C92.001 171 94.107 168.84 94.107 165.474C94.107 162.108 92.001 159.948 88.743 159.948H85.017ZM88.671 169.326H86.889V161.604H88.671C90.993 161.604 92.235 163.098 92.235 165.474C92.235 167.832 90.993 169.326 88.671 169.326ZM102.986 167.004C102.986 164.556 101.438 162.828 99.188 162.828C96.938 162.828 95.39 164.556 95.39 167.004C95.39 169.452 96.938 171.18 99.188 171.18C101.438 171.18 102.986 169.452 102.986 167.004ZM101.186 167.004C101.186 168.516 100.484 169.632 99.188 169.632C97.892 169.632 97.19 168.516 97.19 167.004C97.19 165.492 97.892 164.376 99.188 164.376C100.484 164.376 101.186 165.492 101.186 167.004ZM105.908 167.4H111.2V166.752C111.2 164.412 110.048 162.828 107.834 162.828C105.692 162.828 104.162 164.574 104.162 167.076C104.162 169.596 105.782 171.18 108.122 171.18C109.13 171.18 109.976 170.982 110.66 170.478V168.894C109.904 169.416 109.274 169.632 108.374 169.632C107.096 169.632 106.034 168.966 105.908 167.4ZM107.852 164.34C108.878 164.34 109.436 165.06 109.49 166.032H106.016C106.286 164.808 107.06 164.34 107.852 164.34Z" fill="#444444"/>
<path d="M34.952 138H36.408V134.514H40.174V133.24H36.408V130.692H40.44V129.404H34.952V138ZM46.7606 138V131.784H45.3606V135.872C45.2066 136.488 44.6746 136.866 44.0726 136.866C43.2746 136.866 42.9106 136.362 42.9106 135.592V131.784H41.5106V135.83C41.5106 137.202 42.2806 138.14 43.6946 138.14C44.4226 138.14 45.0246 137.804 45.3606 137.412V138H46.7606ZM49.8989 138V128.9H48.4989V138H49.8989ZM53.0297 138V128.9H51.6297V138H53.0297ZM64.8504 138V129.404H63.4504V135.368L59.3064 129.404H57.9344V138H59.3344V131.742L63.7304 138H64.8504ZM70.1128 134.024V134.458C69.8608 134.276 69.2448 134.08 68.6848 134.08C67.3128 134.08 66.2628 134.906 66.2628 136.082C66.2628 137.356 67.3128 138.112 68.5868 138.112C69.2868 138.112 69.9028 137.86 70.1128 137.65V138H71.4568V133.926C71.4568 132.512 70.5468 131.644 68.9368 131.644C68.1528 131.644 67.3688 131.882 66.9628 132.176V133.464C67.4668 133.128 68.0128 132.918 68.6848 132.918C69.5528 132.918 70.1128 133.324 70.1128 134.024ZM70.1128 135.83V136.348C69.9588 136.74 69.4128 136.978 68.8528 136.978C68.2228 136.978 67.5648 136.712 67.5648 136.082C67.5648 135.466 68.2228 135.2 68.8528 135.2C69.4128 135.2 69.9588 135.438 70.1128 135.83ZM77.7002 132.47C77.3782 131.994 76.7622 131.644 76.0622 131.644C75.3622 131.644 74.8022 131.91 74.5082 132.302V131.784H73.1082V138H74.5082V133.828C74.6342 133.212 75.1102 132.904 75.6142 132.904C76.3002 132.904 76.6362 133.408 76.6362 134.178V138H78.0362V133.828C78.1622 133.212 78.6382 132.904 79.1422 132.904C79.8282 132.904 80.1642 133.408 80.1642 134.178V138H81.5642V133.954C81.5642 132.54 80.8222 131.644 79.5482 131.644C78.7082 131.644 78.1342 131.966 77.7002 132.47ZM84.1358 135.2H88.2518V134.696C88.2518 132.876 87.3558 131.644 85.6338 131.644C83.9678 131.644 82.7778 133.002 82.7778 134.948C82.7778 136.908 84.0378 138.14 85.8578 138.14C86.6418 138.14 87.2998 137.986 87.8318 137.594V136.362C87.2438 136.768 86.7538 136.936 86.0538 136.936C85.0598 136.936 84.2338 136.418 84.1358 135.2ZM85.6478 132.82C86.4458 132.82 86.8798 133.38 86.9218 134.136H84.2198C84.4298 133.184 85.0318 132.82 85.6478 132.82Z" fill="#444444"/>
<rect x="34" y="222" width="307" height="36" rx="4" fill="white" stroke="#999999"/>
<path d="M49.132 234.596C49.132 233.984 48.61 233.498 48.016 233.498C47.422 233.498 46.9 233.984 46.9 234.596C46.9 235.208 47.422 235.694 48.016 235.694C48.61 235.694 49.132 235.208 49.132 234.596ZM48.916 245.72V237.008H47.116V245.594C47.116 246.35 46.81 246.71 46.126 246.71C45.946 246.71 45.712 246.674 45.586 246.638V248.15C45.766 248.222 46.126 248.24 46.306 248.24C48.034 248.24 48.916 247.304 48.916 245.72ZM58.1442 241.004C58.1442 238.556 56.5962 236.828 54.3462 236.828C52.0962 236.828 50.5482 238.556 50.5482 241.004C50.5482 243.452 52.0962 245.18 54.3462 245.18C56.5962 245.18 58.1442 243.452 58.1442 241.004ZM56.3442 241.004C56.3442 242.516 55.6422 243.632 54.3462 243.632C53.0502 243.632 52.3482 242.516 52.3482 241.004C52.3482 239.492 53.0502 238.376 54.3462 238.376C55.6422 238.376 56.3442 239.492 56.3442 241.004ZM59.825 233.3V245H61.625V239.744C61.823 238.952 62.525 238.466 63.299 238.466C64.325 238.466 64.811 239.114 64.811 240.104V245H66.611V239.798C66.611 238.034 65.603 236.828 63.785 236.828C62.849 236.828 62.057 237.26 61.625 237.764V233.3H59.825ZM68.7371 237.008V245H70.5371V239.744C70.7351 238.952 71.4371 238.466 72.2111 238.466C73.2371 238.466 73.7231 239.114 73.7231 240.104V245H75.5231V239.798C75.5231 238.034 74.5151 236.828 72.6971 236.828C71.7611 236.828 70.9691 237.26 70.5371 237.764V237.008H68.7371ZM82.8332 244.316V245H84.6332V233.3H82.8332V237.692C82.4732 237.242 81.6812 236.828 80.7992 236.828C78.4592 236.828 77.0912 238.718 77.0912 241.004C77.0912 243.308 78.4592 245.18 80.7992 245.18C81.6812 245.18 82.4732 244.766 82.8332 244.316ZM82.8332 239.492V242.516C82.5272 243.146 81.8432 243.578 81.1052 243.578C79.7192 243.578 78.8912 242.48 78.8912 241.004C78.8912 239.528 79.7192 238.43 81.1052 238.43C81.8432 238.43 82.5272 238.862 82.8332 239.492ZM93.8981 241.004C93.8981 238.556 92.3501 236.828 90.1001 236.828C87.8501 236.828 86.3021 238.556 86.3021 241.004C86.3021 243.452 87.8501 245.18 90.1001 245.18C92.3501 245.18 93.8981 243.452 93.8981 241.004ZM92.0981 241.004C92.0981 242.516 91.3961 243.632 90.1001 243.632C88.8041 243.632 88.1021 242.516 88.1021 241.004C88.1021 239.492 88.8041 238.376 90.1001 238.376C91.3961 238.376 92.0981 239.492 92.0981 241.004ZM96.8196 241.4H102.112V240.752C102.112 238.412 100.96 236.828 98.7456 236.828C96.6036 236.828 95.0736 238.574 95.0736 241.076C95.0736 243.596 96.6936 245.18 99.0336 245.18C100.042 245.18 100.888 244.982 101.572 244.478V242.894C100.816 243.416 100.186 243.632 99.2856 243.632C98.0076 243.632 96.9456 242.966 96.8196 241.4ZM98.7636 238.34C99.7896 238.34 100.348 239.06 100.402 240.032H96.9276C97.1976 238.808 97.9716 238.34 98.7636 238.34ZM112.511 242.282L113.231 238.124H111.665L111.557 238.61C111.323 238.268 110.765 237.944 110.027 237.944C108.101 237.944 106.715 239.726 106.715 241.724C106.715 243.236 107.669 244.406 109.145 244.406C109.793 244.406 110.549 244.028 110.873 243.434C111.233 244.046 111.971 244.406 112.817 244.406C114.635 244.406 116.399 243.02 116.399 240.068C116.399 237.026 113.951 234.722 110.369 234.722C106.247 234.722 103.475 237.8 103.475 241.58C103.475 245.918 106.859 247.772 110.387 247.772C112.025 247.772 113.519 247.376 114.419 246.926V245.63C113.285 246.134 112.061 246.494 110.387 246.494C107.939 246.494 104.915 245.378 104.915 241.58C104.915 238.286 107.147 236.018 110.369 236.018C113.033 236.018 115.013 237.53 115.013 240.068C115.013 241.994 114.221 243.182 113.105 243.182C112.547 243.182 112.403 242.912 112.511 242.282ZM111.287 240.122L110.909 242.12C110.621 242.552 110.171 242.948 109.541 242.948C108.785 242.948 108.371 242.39 108.371 241.634C108.371 240.482 109.055 239.384 110.135 239.384C110.711 239.384 111.143 239.708 111.287 240.122ZM118.026 233.3V245H119.826V239.744C120.024 238.952 120.726 238.466 121.5 238.466C122.526 238.466 123.012 239.114 123.012 240.104V245H124.812V239.798C124.812 238.034 123.804 236.828 121.986 236.828C121.05 236.828 120.258 237.26 119.826 237.764V233.3H118.026ZM128.738 248.06V244.316C129.098 244.766 129.89 245.18 130.772 245.18C133.112 245.18 134.48 243.236 134.48 241.004C134.48 238.772 133.112 236.828 130.772 236.828C129.89 236.828 129.098 237.242 128.738 237.692V237.008H126.938V248.06H128.738ZM128.738 242.516V239.492C129.044 238.862 129.728 238.43 130.466 238.43C131.852 238.43 132.68 239.528 132.68 241.004C132.68 242.48 131.852 243.578 130.466 243.578C129.728 243.578 129.044 243.146 128.738 242.516ZM137.39 241.4H142.682V240.752C142.682 238.412 141.53 236.828 139.316 236.828C137.174 236.828 135.644 238.574 135.644 241.076C135.644 243.596 137.264 245.18 139.604 245.18C140.612 245.18 141.458 244.982 142.142 244.478V242.894C141.386 243.416 140.756 243.632 139.856 243.632C138.578 243.632 137.516 242.966 137.39 241.4ZM139.334 238.34C140.36 238.34 140.918 239.06 140.972 240.032H137.498C137.768 238.808 138.542 238.34 139.334 238.34ZM143.853 243.884C143.853 244.586 144.393 245.126 145.077 245.126C145.761 245.126 146.301 244.586 146.301 243.884C146.301 243.182 145.761 242.642 145.077 242.642C144.393 242.642 143.853 243.182 143.853 243.884ZM147.175 241.004C147.175 243.578 148.975 245.18 151.153 245.18C151.927 245.18 152.737 245 153.331 244.514V242.75C152.773 243.308 152.053 243.578 151.279 243.578C150.001 243.578 148.975 242.588 148.975 241.004C148.975 239.42 150.001 238.43 151.279 238.43C152.053 238.43 152.773 238.7 153.331 239.258V237.494C152.737 237.008 151.927 236.828 151.153 236.828C148.975 236.828 147.175 238.43 147.175 241.004ZM162.119 241.004C162.119 238.556 160.571 236.828 158.321 236.828C156.071 236.828 154.523 238.556 154.523 241.004C154.523 243.452 156.071 245.18 158.321 245.18C160.571 245.18 162.119 243.452 162.119 241.004ZM160.319 241.004C160.319 242.516 159.617 243.632 158.321 243.632C157.025 243.632 156.323 242.516 156.323 241.004C156.323 239.492 157.025 238.376 158.321 238.376C159.617 238.376 160.319 239.492 160.319 241.004ZM169.704 237.89C169.29 237.278 168.498 236.828 167.598 236.828C166.698 236.828 165.978 237.17 165.6 237.674V237.008H163.8V245H165.6V239.636C165.762 238.844 166.374 238.448 167.022 238.448C167.904 238.448 168.336 239.096 168.336 240.086V245H170.136V239.636C170.298 238.844 170.91 238.448 171.558 238.448C172.44 238.448 172.872 239.096 172.872 240.086V245H174.672V239.798C174.672 237.98 173.718 236.828 172.08 236.828C171 236.828 170.262 237.242 169.704 237.89Z" fill="#444444"/>
<path d="M40.566 201.404H34.952V210H40.566V208.698H36.38V206.234H40.174V204.96H36.38V202.692H40.566V201.404ZM46.6514 204.47C46.3294 203.994 45.7134 203.644 45.0134 203.644C44.3134 203.644 43.7534 203.91 43.4594 204.302V203.784H42.0594V210H43.4594V205.828C43.5854 205.212 44.0614 204.904 44.5654 204.904C45.2514 204.904 45.5874 205.408 45.5874 206.178V210H46.9874V205.828C47.1134 205.212 47.5894 204.904 48.0934 204.904C48.7794 204.904 49.1154 205.408 49.1154 206.178V210H50.5154V205.954C50.5154 204.54 49.7734 203.644 48.4994 203.644C47.6594 203.644 47.0854 203.966 46.6514 204.47ZM55.6069 206.024V206.458C55.3549 206.276 54.7389 206.08 54.1789 206.08C52.8069 206.08 51.7569 206.906 51.7569 208.082C51.7569 209.356 52.8069 210.112 54.0809 210.112C54.7809 210.112 55.3969 209.86 55.6069 209.65V210H56.9509V205.926C56.9509 204.512 56.0409 203.644 54.4309 203.644C53.6469 203.644 52.8629 203.882 52.4569 204.176V205.464C52.9609 205.128 53.5069 204.918 54.1789 204.918C55.0469 204.918 55.6069 205.324 55.6069 206.024ZM55.6069 207.83V208.348C55.4529 208.74 54.9069 208.978 54.3469 208.978C53.7169 208.978 53.0589 208.712 53.0589 208.082C53.0589 207.466 53.7169 207.2 54.3469 207.2C54.9069 207.2 55.4529 207.438 55.6069 207.83ZM60.1704 201.908C60.1704 201.432 59.7644 201.054 59.3024 201.054C58.8404 201.054 58.4344 201.432 58.4344 201.908C58.4344 202.384 58.8404 202.762 59.3024 202.762C59.7644 202.762 60.1704 202.384 60.1704 201.908ZM60.0024 210V203.784H58.6024V210H60.0024ZM63.1332 210V200.9H61.7332V210H63.1332Z" fill="#444444"/>
<rect x="34" y="294" width="307" height="36" rx="4" fill="white" stroke="#999999"/>
<path d="M51.76 312.284C51.76 310.754 50.608 309.692 49.168 309.692C47.728 309.692 46.576 310.754 46.576 312.284C46.576 313.796 47.728 314.858 49.168 314.858C50.608 314.858 51.76 313.796 51.76 312.284ZM58.0881 312.284C58.0881 310.754 56.9361 309.692 55.4961 309.692C54.0561 309.692 52.9041 310.754 52.9041 312.284C52.9041 313.796 54.0561 314.858 55.4961 314.858C56.9361 314.858 58.0881 313.796 58.0881 312.284ZM64.4163 312.284C64.4163 310.754 63.2643 309.692 61.8243 309.692C60.3843 309.692 59.2323 310.754 59.2323 312.284C59.2323 313.796 60.3843 314.858 61.8243 314.858C63.2643 314.858 64.4163 313.796 64.4163 312.284ZM70.7444 312.284C70.7444 310.754 69.5924 309.692 68.1524 309.692C66.7124 309.692 65.5604 310.754 65.5604 312.284C65.5604 313.796 66.7124 314.858 68.1524 314.858C69.5924 314.858 70.7444 313.796 70.7444 312.284ZM77.0725 312.284C77.0725 310.754 75.9205 309.692 74.4805 309.692C73.0405 309.692 71.8885 310.754 71.8885 312.284C71.8885 313.796 73.0405 314.858 74.4805 314.858C75.9205 314.858 77.0725 313.796 77.0725 312.284ZM83.4006 312.284C83.4006 310.754 82.2486 309.692 80.8086 309.692C79.3686 309.692 78.2166 310.754 78.2166 312.284C78.2166 313.796 79.3686 314.858 80.8086 314.858C82.2486 314.858 83.4006 313.796 83.4006 312.284ZM89.7288 312.284C89.7288 310.754 88.5768 309.692 87.1368 309.692C85.6968 309.692 84.5448 310.754 84.5448 312.284C84.5448 313.796 85.6968 314.858 87.1368 314.858C88.5768 314.858 89.7288 313.796 89.7288 312.284ZM96.0569 312.284C96.0569 310.754 94.9049 309.692 93.4649 309.692C92.0249 309.692 90.8729 310.754 90.8729 312.284C90.8729 313.796 92.0249 314.858 93.4649 314.858C94.9049 314.858 96.0569 313.796 96.0569 312.284ZM102.385 312.284C102.385 310.754 101.233 309.692 99.793 309.692C98.353 309.692 97.201 310.754 97.201 312.284C97.201 313.796 98.353 314.858 99.793 314.858C101.233 314.858 102.385 313.796 102.385 312.284ZM108.713 312.284C108.713 310.754 107.561 309.692 106.121 309.692C104.681 309.692 103.529 310.754 103.529 312.284C103.529 313.796 104.681 314.858 106.121 314.858C107.561 314.858 108.713 313.796 108.713 312.284ZM115.041 312.284C115.041 310.754 113.889 309.692 112.449 309.692C111.009 309.692 109.857 310.754 109.857 312.284C109.857 313.796 111.009 314.858 112.449 314.858C113.889 314.858 115.041 313.796 115.041 312.284ZM121.369 312.284C121.369 310.754 120.217 309.692 118.777 309.692C117.337 309.692 116.185 310.754 116.185 312.284C116.185 313.796 117.337 314.858 118.777 314.858C120.217 314.858 121.369 313.796 121.369 312.284ZM127.698 312.284C127.698 310.754 126.546 309.692 125.106 309.692C123.666 309.692 122.514 310.754 122.514 312.284C122.514 313.796 123.666 314.858 125.106 314.858C126.546 314.858 127.698 313.796 127.698 312.284ZM134.026 312.284C134.026 310.754 132.874 309.692 131.434 309.692C129.994 309.692 128.842 310.754 128.842 312.284C128.842 313.796 129.994 314.858 131.434 314.858C132.874 314.858 134.026 313.796 134.026 312.284ZM140.354 312.284C140.354 310.754 139.202 309.692 137.762 309.692C136.322 309.692 135.17 310.754 135.17 312.284C135.17 313.796 136.322 314.858 137.762 314.858C139.202 314.858 140.354 313.796 140.354 312.284Z" fill="#444444"/>
<path d="M36.408 280.794H38.27C40.048 280.794 41.21 279.856 41.21 278.106C41.21 276.328 40.048 275.404 38.27 275.404H34.952V284H36.408V280.794ZM39.768 278.106C39.768 278.932 39.25 279.534 38.242 279.534H36.408V276.664H38.242C39.25 276.664 39.768 277.252 39.768 278.106ZM45.6675 280.024V280.458C45.4155 280.276 44.7995 280.08 44.2395 280.08C42.8675 280.08 41.8175 280.906 41.8175 282.082C41.8175 283.356 42.8675 284.112 44.1415 284.112C44.8415 284.112 45.4575 283.86 45.6675 283.65V284H47.0115V279.926C47.0115 278.512 46.1015 277.644 44.4915 277.644C43.7075 277.644 42.9235 277.882 42.5175 278.176V279.464C43.0215 279.128 43.5675 278.918 44.2395 278.918C45.1075 278.918 45.6675 279.324 45.6675 280.024ZM45.6675 281.83V282.348C45.5135 282.74 44.9675 282.978 44.4075 282.978C43.7775 282.978 43.1195 282.712 43.1195 282.082C43.1195 281.466 43.7775 281.2 44.4075 281.2C44.9675 281.2 45.5135 281.438 45.6675 281.83ZM48.3829 282.068V283.496C48.8729 283.902 49.6849 284.14 50.4689 284.14C51.8549 284.14 52.9189 283.454 52.9189 282.25C52.9189 281.298 52.3729 280.738 51.3369 280.416L50.5249 280.164C49.9929 279.996 49.7269 279.856 49.7269 279.45C49.7269 279.03 50.1609 278.806 50.7209 278.806C51.4489 278.806 52.0509 279.142 52.5829 279.604V278.19C52.0649 277.84 51.4489 277.644 50.7209 277.644C49.3909 277.644 48.3829 278.372 48.3829 279.506C48.3829 280.57 49.0269 281.06 50.0629 281.382L50.7349 281.592C51.2249 281.746 51.5609 281.914 51.5609 282.32C51.5609 282.782 51.0709 282.978 50.4829 282.978C49.7549 282.978 48.9709 282.642 48.3829 282.068ZM54.0294 282.068V283.496C54.5194 283.902 55.3314 284.14 56.1154 284.14C57.5014 284.14 58.5654 283.454 58.5654 282.25C58.5654 281.298 58.0194 280.738 56.9834 280.416L56.1714 280.164C55.6394 279.996 55.3734 279.856 55.3734 279.45C55.3734 279.03 55.8074 278.806 56.3674 278.806C57.0954 278.806 57.6974 279.142 58.2294 279.604V278.19C57.7114 277.84 57.0954 277.644 56.3674 277.644C55.0374 277.644 54.0294 278.372 54.0294 279.506C54.0294 280.57 54.6734 281.06 55.7094 281.382L56.3814 281.592C56.8714 281.746 57.2074 281.914 57.2074 282.32C57.2074 282.782 56.7174 282.978 56.1294 282.978C55.4014 282.978 54.6174 282.642 54.0294 282.068ZM65.4019 282.194L64.3099 277.784H63.0359L61.9439 282.194L60.7399 277.784H59.3399L61.1459 284H62.5459L63.6519 279.674L64.7579 284H66.1579L67.9639 277.784H66.6059L65.4019 282.194ZM74.5627 280.892C74.5627 278.988 73.3587 277.644 71.6087 277.644C69.8587 277.644 68.6547 278.988 68.6547 280.892C68.6547 282.796 69.8587 284.14 71.6087 284.14C73.3587 284.14 74.5627 282.796 74.5627 280.892ZM73.1627 280.892C73.1627 282.068 72.6167 282.936 71.6087 282.936C70.6007 282.936 70.0547 282.068 70.0547 280.892C70.0547 279.716 70.6007 278.848 71.6087 278.848C72.6167 278.848 73.1627 279.716 73.1627 280.892ZM79.342 279.198V277.756C79.244 277.7 78.964 277.644 78.656 277.644C78.054 277.644 77.508 277.966 77.27 278.428V277.784H75.87V284H77.27V279.982C77.41 279.31 77.942 278.988 78.516 278.988C78.81 278.988 79.146 279.058 79.342 279.198ZM84.4547 283.468V284H85.8547V274.9H84.4547V278.316C84.1747 277.966 83.5587 277.644 82.8727 277.644C81.0527 277.644 79.9887 279.114 79.9887 280.892C79.9887 282.684 81.0527 284.14 82.8727 284.14C83.5587 284.14 84.1747 283.818 84.4547 283.468ZM84.4547 279.716V282.068C84.2167 282.558 83.6847 282.894 83.1107 282.894C82.0327 282.894 81.3887 282.04 81.3887 280.892C81.3887 279.744 82.0327 278.89 83.1107 278.89C83.6847 278.89 84.2167 279.226 84.4547 279.716Z" fill="#444444"/>
<path d="M34 346C34 343.791 35.7909 342 38 342H337C339.209 342 341 343.791 341 346V398C341 400.209 339.209 402 337 402H38C35.7909 402 34 400.209 34 398V346Z" fill="white"/>
<rect x="46" y="348" width="24" height="24" rx="2" fill="white" stroke="#999999"/>
<path fill-rule="evenodd" clip-rule="evenodd" d="M64.776 355.631L56.3286 366.027L51.3491 361.759L52.6507 360.241L56.0712 363.173L63.2238 354.369L64.776 355.631Z" fill="#444444"/>
<path d="M84.736 365V353.948H83.314V365H84.736ZM95.6676 359.69V360.734C95.3256 360.428 94.4976 360.086 93.6696 360.086C91.9596 360.086 90.6276 361.094 90.6276 362.588C90.6276 364.172 91.9596 365.144 93.5976 365.144C94.5336 365.144 95.3616 364.73 95.6676 364.406V365H96.9816V359.582C96.9816 357.89 95.8656 356.846 93.9756 356.846C92.9856 356.846 92.0316 357.134 91.4916 357.512V358.79C92.1576 358.358 92.8776 358.088 93.7596 358.088C94.9296 358.088 95.6676 358.7 95.6676 359.69ZM95.6676 362.192V363.02C95.4516 363.614 94.6596 364.01 93.8136 364.01C92.8416 364.01 91.9056 363.56 91.9056 362.588C91.9056 361.634 92.8416 361.202 93.8136 361.202C94.6596 361.202 95.4516 361.598 95.6676 362.192ZM98.714 361.004C98.714 363.56 100.406 365.162 102.566 365.162C103.34 365.162 104.15 364.982 104.708 364.496V363.128C104.132 363.704 103.43 363.956 102.656 363.956C101.234 363.956 100.082 362.84 100.082 361.004C100.082 359.168 101.234 358.052 102.656 358.052C103.43 358.052 104.132 358.304 104.708 358.88V357.512C104.15 357.026 103.34 356.846 102.566 356.846C100.406 356.846 98.714 358.448 98.714 361.004ZM106.009 361.004C106.009 363.56 107.701 365.162 109.861 365.162C110.635 365.162 111.445 364.982 112.003 364.496V363.128C111.427 363.704 110.725 363.956 109.951 363.956C108.529 363.956 107.377 362.84 107.377 361.004C107.377 359.168 108.529 358.052 109.951 358.052C110.725 358.052 111.427 358.304 112.003 358.88V357.512C111.445 357.026 110.635 356.846 109.861 356.846C107.701 356.846 106.009 358.448 106.009 361.004ZM114.636 361.238H120.144V360.752C120.144 358.412 119.028 356.846 116.868 356.846C114.744 356.846 113.304 358.592 113.304 361.076C113.304 363.596 114.852 365.162 117.156 365.162C118.11 365.162 118.938 364.964 119.586 364.46V363.218C118.866 363.758 118.218 363.974 117.318 363.974C115.86 363.974 114.69 363.092 114.636 361.238ZM116.886 357.998C118.182 357.998 118.776 359.006 118.83 360.176H114.708C114.96 358.7 115.824 357.998 116.886 357.998ZM123.333 368.06V364.064C123.747 364.64 124.593 365.162 125.583 365.162C127.941 365.162 129.183 363.218 129.183 361.004C129.183 358.79 127.941 356.846 125.583 356.846C124.593 356.846 123.747 357.368 123.333 357.944V357.008H121.983V368.06H123.333ZM123.333 362.624V359.384C123.747 358.556 124.539 358.07 125.385 358.07C126.915 358.07 127.815 359.312 127.815 361.004C127.815 362.696 126.915 363.938 125.385 363.938C124.539 363.938 123.747 363.452 123.333 362.624ZM133.127 365V358.16H134.981V357.008H133.127V354.902H131.777V357.008H130.103V358.16H131.777V365H133.127ZM142.831 365V358.16H144.685V357.008H142.831V354.902H141.481V357.008H139.807V358.16H141.481V365H142.831ZM146.329 353.3V365H147.679V359.582C147.967 358.718 148.777 358.088 149.713 358.088C150.919 358.088 151.477 358.862 151.477 359.978V365H152.845V359.762C152.845 358.016 151.855 356.846 150.037 356.846C149.011 356.846 148.147 357.386 147.679 358.016V353.3H146.329ZM155.892 361.238H161.4V360.752C161.4 358.412 160.284 356.846 158.124 356.846C156 356.846 154.56 358.592 154.56 361.076C154.56 363.596 156.108 365.162 158.412 365.162C159.366 365.162 160.194 364.964 160.842 364.46V363.218C160.122 363.758 159.474 363.974 158.574 363.974C157.116 363.974 155.946 363.092 155.892 361.238ZM158.142 357.998C159.438 357.998 160.032 359.006 160.086 360.176H155.964C156.216 358.7 157.08 357.998 158.142 357.998ZM176.41 353.948H174.988V358.682H168.742V353.948H167.32V365H168.742V359.96H174.988V365H176.41V353.948ZM180.466 360.572H183.13C185.362 360.572 186.82 359.42 186.82 357.26C186.82 355.082 185.362 353.948 183.13 353.948H179.044V365H180.466V360.572ZM185.416 357.26C185.416 358.502 184.606 359.312 183.112 359.312H180.466V355.19H183.112C184.606 355.19 185.416 356 185.416 357.26ZM195.75 353.948H188.712V365H195.75V363.722H190.116V359.96H195.228V358.7H190.116V355.208H195.75V353.948ZM201.175 353.948V355.604H204.847V365H206.719V355.604H210.391V353.948H201.175ZM212.062 361.4H217.354V360.752C217.354 358.412 216.202 356.828 213.988 356.828C211.846 356.828 210.316 358.574 210.316 361.076C210.316 363.596 211.936 365.18 214.276 365.18C215.284 365.18 216.13 364.982 216.814 364.478V362.894C216.058 363.416 215.428 363.632 214.528 363.632C213.25 363.632 212.188 362.966 212.062 361.4ZM214.006 358.34C215.032 358.34 215.59 359.06 215.644 360.032H212.17C212.44 358.808 213.214 358.34 214.006 358.34ZM223.529 358.826V356.972C223.403 356.9 223.043 356.828 222.647 356.828C221.873 356.828 221.171 357.242 220.865 357.836V357.008H219.065V365H220.865V359.834C221.045 358.97 221.729 358.556 222.467 358.556C222.845 358.556 223.277 358.646 223.529 358.826ZM231.086 357.89C230.672 357.278 229.88 356.828 228.98 356.828C228.08 356.828 227.36 357.17 226.982 357.674V357.008H225.182V365H226.982V359.636C227.144 358.844 227.756 358.448 228.404 358.448C229.286 358.448 229.718 359.096 229.718 360.086V365H231.518V359.636C231.68 358.844 232.292 358.448 232.94 358.448C233.822 358.448 234.254 359.096 234.254 360.086V365H236.054V359.798C236.054 357.98 235.1 356.828 233.462 356.828C232.382 356.828 231.644 357.242 231.086 357.89ZM237.813 362.516V364.352C238.443 364.874 239.487 365.18 240.495 365.18C242.277 365.18 243.645 364.298 243.645 362.75C243.645 361.526 242.943 360.806 241.611 360.392L240.567 360.068C239.883 359.852 239.541 359.672 239.541 359.15C239.541 358.61 240.099 358.322 240.819 358.322C241.755 358.322 242.529 358.754 243.213 359.348V357.53C242.547 357.08 241.755 356.828 240.819 356.828C239.109 356.828 237.813 357.764 237.813 359.222C237.813 360.59 238.641 361.22 239.973 361.634L240.837 361.904C241.467 362.102 241.899 362.318 241.899 362.84C241.899 363.434 241.269 363.686 240.513 363.686C239.577 363.686 238.569 363.254 237.813 362.516ZM256.443 361.004C256.443 358.556 254.895 356.828 252.645 356.828C250.395 356.828 248.847 358.556 248.847 361.004C248.847 363.452 250.395 365.18 252.645 365.18C254.895 365.18 256.443 363.452 256.443 361.004ZM254.643 361.004C254.643 362.516 253.941 363.632 252.645 363.632C251.349 363.632 250.647 362.516 250.647 361.004C250.647 359.492 251.349 358.376 252.645 358.376C253.941 358.376 254.643 359.492 254.643 361.004ZM262.534 354.92V353.336C262.21 353.192 261.868 353.12 261.346 353.12C259.852 353.12 258.718 354.056 258.718 355.766V357.008H257.332V358.502H258.718V365H260.482V358.502H262.228V357.008H260.482V355.892C260.482 355.1 260.932 354.668 261.652 354.668C261.94 354.668 262.264 354.74 262.534 354.92ZM272.165 365.18C274.811 365.18 276.593 363.632 276.593 360.608V353.948H274.721V360.392C274.721 362.516 273.821 363.506 272.165 363.506C270.509 363.506 269.609 362.516 269.609 360.392V353.948H267.737V360.59C267.737 363.632 269.537 365.18 272.165 365.18ZM278.401 362.516V364.352C279.031 364.874 280.075 365.18 281.083 365.18C282.865 365.18 284.233 364.298 284.233 362.75C284.233 361.526 283.531 360.806 282.199 360.392L281.155 360.068C280.471 359.852 280.129 359.672 280.129 359.15C280.129 358.61 280.687 358.322 281.407 358.322C282.343 358.322 283.117 358.754 283.801 359.348V357.53C283.135 357.08 282.343 356.828 281.407 356.828C279.697 356.828 278.401 357.764 278.401 359.222C278.401 360.59 279.229 361.22 280.561 361.634L281.425 361.904C282.055 362.102 282.487 362.318 282.487 362.84C282.487 363.434 281.857 363.686 281.101 363.686C280.165 363.686 279.157 363.254 278.401 362.516ZM287.208 361.4H292.5V360.752C292.5 358.412 291.348 356.828 289.134 356.828C286.992 356.828 285.462 358.574 285.462 361.076C285.462 363.596 287.082 365.18 289.422 365.18C290.43 365.18 291.276 364.982 291.96 364.478V362.894C291.204 363.416 290.574 363.632 289.674 363.632C288.396 363.632 287.334 362.966 287.208 361.4ZM289.152 358.34C290.178 358.34 290.736 359.06 290.79 360.032H287.316C287.586 358.808 288.36 358.34 289.152 358.34ZM302.72 359.69V360.734C302.378 360.428 301.55 360.086 300.722 360.086C299.012 360.086 297.68 361.094 297.68 362.588C297.68 364.172 299.012 365.144 300.65 365.144C301.586 365.144 302.414 364.73 302.72 364.406V365H304.034V359.582C304.034 357.89 302.918 356.846 301.028 356.846C300.038 356.846 299.084 357.134 298.544 357.512V358.79C299.21 358.358 299.93 358.088 300.812 358.088C301.982 358.088 302.72 358.7 302.72 359.69ZM302.72 362.192V363.02C302.504 363.614 301.712 364.01 300.866 364.01C299.894 364.01 298.958 363.56 298.958 362.588C298.958 361.634 299.894 361.202 300.866 361.202C301.712 361.202 302.504 361.598 302.72 362.192ZM306.343 357.008V365H307.693V359.582C307.981 358.718 308.791 358.088 309.727 358.088C310.933 358.088 311.491 358.862 311.491 359.978V365H312.859V359.762C312.859 358.016 311.869 356.846 310.051 356.846C309.025 356.846 308.161 357.386 307.693 358.016V357.008H306.343ZM320.423 364.064V365H321.791V353.3H320.423V357.944C320.027 357.368 319.163 356.846 318.173 356.846C315.833 356.846 314.573 358.754 314.573 361.004C314.573 363.272 315.833 365.162 318.173 365.162C319.163 365.162 320.027 364.64 320.423 364.064ZM320.423 359.384V362.624C320.009 363.452 319.217 363.938 318.371 363.938C316.841 363.938 315.941 362.696 315.941 361.004C315.941 359.312 316.841 358.07 318.371 358.07C319.217 358.07 320.009 358.556 320.423 359.384ZM85.096 384.878H87.49C89.776 384.878 91.27 383.672 91.27 381.422C91.27 379.136 89.776 377.948 87.49 377.948H83.224V389H85.096V384.878ZM89.416 381.422C89.416 382.484 88.75 383.258 87.454 383.258H85.096V379.568H87.454C88.75 379.568 89.416 380.324 89.416 381.422ZM97.3886 382.826V380.972C97.2626 380.9 96.9026 380.828 96.5066 380.828C95.7326 380.828 95.0306 381.242 94.7246 381.836V381.008H92.9246V389H94.7246V383.834C94.9046 382.97 95.5886 382.556 96.3266 382.556C96.7046 382.556 97.1366 382.646 97.3886 382.826ZM101.058 378.596C101.058 377.984 100.536 377.498 99.9418 377.498C99.3478 377.498 98.8258 377.984 98.8258 378.596C98.8258 379.208 99.3478 379.694 99.9418 379.694C100.536 379.694 101.058 379.208 101.058 378.596ZM100.842 389V381.008H99.0418V389H100.842ZM105.299 389H107.153L110.195 381.008H108.323L106.271 386.858L104.201 381.008H102.275L105.299 389ZM115.88 383.888V384.446C115.556 384.212 114.764 383.96 114.044 383.96C112.28 383.96 110.93 385.022 110.93 386.534C110.93 388.172 112.28 389.144 113.918 389.144C114.818 389.144 115.61 388.82 115.88 388.55V389H117.608V383.762C117.608 381.944 116.438 380.828 114.368 380.828C113.36 380.828 112.352 381.134 111.83 381.512V383.168C112.478 382.736 113.18 382.466 114.044 382.466C115.16 382.466 115.88 382.988 115.88 383.888ZM115.88 386.21V386.876C115.682 387.38 114.98 387.686 114.26 387.686C113.45 387.686 112.604 387.344 112.604 386.534C112.604 385.742 113.45 385.4 114.26 385.4C114.98 385.4 115.682 385.706 115.88 386.21ZM119.173 385.004C119.173 387.578 120.973 389.18 123.151 389.18C123.925 389.18 124.735 389 125.329 388.514V386.75C124.771 387.308 124.051 387.578 123.277 387.578C121.999 387.578 120.973 386.588 120.973 385.004C120.973 383.42 121.999 382.43 123.277 382.43C124.051 382.43 124.771 382.7 125.329 383.258V381.494C124.735 381.008 123.925 380.828 123.151 380.828C120.973 380.828 119.173 382.43 119.173 385.004ZM128.249 392.06H129.995L134.207 381.008H132.353L130.301 386.894L128.213 381.008H126.287L129.383 389.216L128.249 392.06ZM141.592 384.878H143.986C146.272 384.878 147.766 383.672 147.766 381.422C147.766 379.136 146.272 377.948 143.986 377.948H139.72V389H141.592V384.878ZM145.912 381.422C145.912 382.484 145.246 383.258 143.95 383.258H141.592V379.568H143.95C145.246 379.568 145.912 380.324 145.912 381.422ZM156.107 385.004C156.107 382.556 154.559 380.828 152.309 380.828C150.059 380.828 148.511 382.556 148.511 385.004C148.511 387.452 150.059 389.18 152.309 389.18C154.559 389.18 156.107 387.452 156.107 385.004ZM154.307 385.004C154.307 386.516 153.605 387.632 152.309 387.632C151.013 387.632 150.311 386.516 150.311 385.004C150.311 383.492 151.013 382.376 152.309 382.376C153.605 382.376 154.307 383.492 154.307 385.004ZM159.588 389V377.3H157.788V389H159.588ZM163.829 378.596C163.829 377.984 163.307 377.498 162.713 377.498C162.119 377.498 161.597 377.984 161.597 378.596C161.597 379.208 162.119 379.694 162.713 379.694C163.307 379.694 163.829 379.208 163.829 378.596ZM163.613 389V381.008H161.813V389H163.613ZM165.281 385.004C165.281 387.578 167.081 389.18 169.259 389.18C170.033 389.18 170.843 389 171.437 388.514V386.75C170.879 387.308 170.159 387.578 169.385 387.578C168.107 387.578 167.081 386.588 167.081 385.004C167.081 383.42 168.107 382.43 169.385 382.43C170.159 382.43 170.879 382.7 171.437 383.258V381.494C170.843 381.008 170.033 380.828 169.259 380.828C167.081 380.828 165.281 382.43 165.281 385.004ZM174.356 392.06H176.102L180.314 381.008H178.46L176.408 386.894L174.32 381.008H172.394L175.49 389.216L174.356 392.06ZM181.207 388.118C181.207 388.676 181.639 389.09 182.179 389.09C182.701 389.09 183.133 388.676 183.133 388.118C183.133 387.56 182.701 387.128 182.179 387.128C181.639 387.128 181.207 387.56 181.207 388.118Z" fill="#444444"/>
<path d="M200.635 366.8H293.094V367.7H200.635V366.8Z" fill="#444444"/>
<path d="M82 390.8H180.638V391.7H82V390.8Z" fill="#444444"/>
<a href="http://hpe.com/terms">
<rect fill="black" fill-opacity="0" x="118.635" y="1.2" width="92.4595" height="21.6"/>
</a>
<a href="http://hpe.com/privacy">
<rect fill="black" fill-opacity="0" y="25.2" width="98.6383" height="21.6"/>
</a>
<path d="M38 342.5H337V341.5H38V342.5ZM340.5 346V398H341.5V346H340.5ZM337 401.5H38V402.5H337V401.5ZM34.5 398V346H33.5V398H34.5ZM38 401.5C36.067 401.5 34.5 399.933 34.5 398H33.5C33.5 400.485 35.5147 402.5 38 402.5V401.5ZM340.5 398C340.5 399.933 338.933 401.5 337 401.5V402.5C339.485 402.5 341.5 400.485 341.5 398H340.5ZM337 342.5C338.933 342.5 340.5 344.067 340.5 346H341.5C341.5 343.515 339.485 341.5 337 341.5V342.5ZM38 341.5C35.5147 341.5 33.5 343.515 33.5 346H34.5C34.5 344.067 36.067 342.5 38 342.5V341.5Z" fill="#999999"/>
<path d="M33 430C33 427.791 34.7909 426 37 426H110C112.209 426 114 427.791 114 430V458C114 460.209 112.209 462 110 462H37C34.7909 462 33 460.209 33 458V430Z" fill="#17EBA0"/>
<path d="M45.576 445.616V448.28C46.386 448.766 47.718 449.18 49.194 449.18C51.678 449.18 53.712 448.118 53.712 445.724C53.712 444.032 52.794 442.97 50.778 442.34L49.104 441.836C48.528 441.656 48.186 441.458 48.186 440.954C48.186 440.396 48.816 440.162 49.644 440.162C50.904 440.162 52.002 440.576 52.992 441.26V438.596C52.074 438.092 51.012 437.768 49.518 437.768C47.196 437.768 45.342 438.974 45.342 441.17C45.342 443.006 46.368 443.924 48.222 444.464L49.896 444.95C50.49 445.166 50.832 445.346 50.832 445.886C50.832 446.57 50.04 446.768 49.122 446.768C47.88 446.768 46.53 446.264 45.576 445.616ZM57.8503 438.704C57.8503 437.768 57.1123 437.174 56.2483 437.174C55.3843 437.174 54.6463 437.768 54.6463 438.704C54.6463 439.622 55.3843 440.216 56.2483 440.216C57.1123 440.216 57.8503 439.622 57.8503 438.704ZM57.6523 449V440.9H54.8263V449H57.6523ZM64.2437 447.902V448.172C64.2437 449.306 63.3077 449.756 62.2277 449.756C61.1117 449.756 60.2297 449.468 59.4017 448.766V451.358C60.0497 451.772 61.1837 452.042 62.3177 452.042C64.9097 452.042 67.0337 450.818 67.0337 447.83V440.9H64.2437V441.512C63.8837 441.08 63.2177 440.72 62.3357 440.72C60.0497 440.72 58.7537 442.466 58.7537 444.698C58.7537 446.93 60.0497 448.694 62.3357 448.694C63.2177 448.694 63.8837 448.316 64.2437 447.902ZM64.2437 443.636V445.778C64.0277 446.138 63.5777 446.444 63.0377 446.444C62.1017 446.444 61.5437 445.724 61.5437 444.698C61.5437 443.672 62.1017 442.952 63.0377 442.952C63.5777 442.952 64.0277 443.276 64.2437 443.636ZM68.5724 440.9V449H71.3984V444.104C71.5424 443.546 72.0104 443.222 72.5684 443.222C73.2884 443.222 73.6304 443.708 73.6304 444.374V449H76.4384V443.69C76.4384 441.89 75.3764 440.72 73.5764 440.72C72.6404 440.72 71.8484 441.098 71.3984 441.602V440.9H68.5724ZM86.2799 449.18C89.1959 449.18 91.0859 447.524 91.0859 444.5V437.948H88.2059V444.23C88.2059 445.796 87.4679 446.606 86.2799 446.606C85.0739 446.606 84.3359 445.796 84.3359 444.23V437.948H81.4559V444.482C81.4559 447.524 83.3639 449.18 86.2799 449.18ZM95.375 451.862V448.352C95.753 448.784 96.545 449.18 97.373 449.18C99.713 449.18 100.991 447.254 100.991 444.95C100.991 442.628 99.713 440.72 97.373 440.72C96.545 440.72 95.753 441.116 95.375 441.548V440.9H92.549V451.862H95.375ZM95.375 446.012V443.87C95.591 443.438 96.059 443.114 96.617 443.114C97.589 443.114 98.165 443.906 98.165 444.95C98.165 445.994 97.589 446.768 96.617 446.768C96.077 446.768 95.591 446.462 95.375 446.012Z" fill="black"/>
</svg>
