<svg width="950" height="525" viewBox="0 0 950 525" fill="none" xmlns="http://www.w3.org/2000/svg">
<g clip-path="url(#clip0_7795:147869)">
<rect width="950" height="525" fill="white"/>
<rect x="42" y="250" width="998" height="36" rx="12" fill="white"/>
<rect width="48" height="36" transform="translate(42 250)" fill="white"/>
<rect x="54" y="256" width="24" height="24" rx="2" fill="white" stroke="#999999"/>
<path d="M42 285.5H90" stroke="#999999"/>
<rect x="90" y="250" width="188" height="36" fill="white"/>
<path d="M278 285.5L90 285.5" stroke="#999999"/>
<path d="M112.584 273V261.948H109.794V268.032L105.528 261.948H102.828V273H105.618V266.538L110.244 273H112.584ZM118.61 268.122V268.41C118.286 268.176 117.53 267.96 116.846 267.96C115.1 267.96 113.732 268.968 113.732 270.534C113.732 272.244 115.1 273.144 116.702 273.144C117.566 273.144 118.34 272.856 118.61 272.586V273H121.328V267.996C121.328 265.854 119.96 264.72 117.566 264.72C116.414 264.72 115.334 264.99 114.668 265.35V267.618C115.316 267.24 116.108 267.042 116.882 267.042C118.034 267.042 118.61 267.492 118.61 268.122ZM118.61 270.264V270.732C118.43 271.056 117.98 271.272 117.476 271.272C116.918 271.272 116.36 271.038 116.36 270.48C116.36 269.94 116.918 269.706 117.476 269.706C117.98 269.706 118.43 269.922 118.61 270.264ZM129.923 265.692C129.437 265.116 128.717 264.72 127.691 264.72C126.791 264.72 126.017 265.062 125.603 265.566V264.9H122.777V273H125.603V268.068C125.729 267.51 126.161 267.204 126.647 267.204C127.277 267.204 127.565 267.69 127.565 268.374V273H130.373V268.068C130.517 267.51 130.931 267.204 131.417 267.204C132.047 267.204 132.335 267.69 132.335 268.374V273H135.161V267.69C135.161 265.872 134.117 264.72 132.425 264.72C131.237 264.72 130.409 265.188 129.923 265.692ZM138.915 269.598H143.901V268.77C143.901 266.358 142.623 264.72 140.103 264.72C137.871 264.72 136.179 266.466 136.179 269.004C136.179 271.614 137.943 273.18 140.535 273.18C141.705 273.18 142.695 272.928 143.325 272.46V270.318C142.515 270.804 141.849 270.966 140.985 270.966C139.941 270.966 139.149 270.57 138.915 269.598ZM140.211 266.862C140.895 266.862 141.309 267.33 141.381 268.014H138.951C139.149 267.276 139.599 266.862 140.211 266.862Z" fill="black"/>
<rect x="278" y="250" width="198" height="36" fill="white"/>
<path d="M476 285.5L278 285.5" stroke="#999999"/>
<path d="M290.576 269.616V272.28C291.386 272.766 292.718 273.18 294.194 273.18C296.678 273.18 298.712 272.118 298.712 269.724C298.712 268.032 297.794 266.97 295.778 266.34L294.104 265.836C293.528 265.656 293.186 265.458 293.186 264.954C293.186 264.396 293.816 264.162 294.644 264.162C295.904 264.162 297.002 264.576 297.992 265.26V262.596C297.074 262.092 296.012 261.768 294.518 261.768C292.196 261.768 290.342 262.974 290.342 265.17C290.342 267.006 291.368 267.924 293.222 268.464L294.896 268.95C295.49 269.166 295.832 269.346 295.832 269.886C295.832 270.57 295.04 270.768 294.122 270.768C292.88 270.768 291.53 270.264 290.576 269.616ZM303.535 273V267.096H305.119V264.9H303.535V262.668H300.727V264.9H299.323V267.096H300.727V273H303.535ZM310.39 268.122V268.41C310.066 268.176 309.31 267.96 308.626 267.96C306.88 267.96 305.512 268.968 305.512 270.534C305.512 272.244 306.88 273.144 308.482 273.144C309.346 273.144 310.12 272.856 310.39 272.586V273H313.108V267.996C313.108 265.854 311.74 264.72 309.346 264.72C308.194 264.72 307.114 264.99 306.448 265.35V267.618C307.096 267.24 307.888 267.042 308.662 267.042C309.813 267.042 310.39 267.492 310.39 268.122ZM310.39 270.264V270.732C310.21 271.056 309.76 271.272 309.256 271.272C308.698 271.272 308.14 271.038 308.14 270.48C308.14 269.94 308.698 269.706 309.256 269.706C309.76 269.706 310.21 269.922 310.39 270.264ZM318.266 273V267.096H319.85V264.9H318.266V262.668H315.458V264.9H314.054V267.096H315.458V273H318.266ZM328.679 273V264.9H325.853V269.814C325.709 270.372 325.223 270.714 324.701 270.714C323.981 270.714 323.657 270.228 323.657 269.544V264.9H320.849V270.21C320.849 272.01 321.911 273.18 323.693 273.18C324.611 273.18 325.421 272.802 325.853 272.298V273H328.679ZM329.896 270.03V272.406C330.652 272.91 331.84 273.18 332.974 273.18C334.972 273.18 336.466 272.334 336.466 270.606C336.466 269.238 335.764 268.518 334 268.05L333.262 267.834C332.866 267.726 332.632 267.618 332.632 267.312C332.632 266.988 332.956 266.826 333.442 266.826C334.36 266.826 335.224 267.204 335.998 267.762V265.44C335.206 264.954 334.324 264.72 333.172 264.72C331.264 264.72 329.86 265.674 329.86 267.366C329.86 268.824 330.814 269.526 332.308 269.85L332.938 270.012C333.424 270.12 333.676 270.246 333.676 270.57C333.676 270.93 333.316 271.056 332.758 271.056C331.93 271.056 330.67 270.66 329.896 270.03Z" fill="black"/>
<rect x="476" y="250" width="188" height="36" fill="white"/>
<path d="M664 285.5L476 285.5" stroke="#999999"/>
<path d="M488.576 269.616V272.28C489.386 272.766 490.718 273.18 492.194 273.18C494.678 273.18 496.712 272.118 496.712 269.724C496.712 268.032 495.794 266.97 493.778 266.34L492.104 265.836C491.528 265.656 491.186 265.458 491.186 264.954C491.186 264.396 491.816 264.162 492.644 264.162C493.904 264.162 495.002 264.576 495.992 265.26V262.596C495.074 262.092 494.012 261.768 492.518 261.768C490.196 261.768 488.342 262.974 488.342 265.17C488.342 267.006 489.368 267.924 491.222 268.464L492.896 268.95C493.49 269.166 493.832 269.346 493.832 269.886C493.832 270.57 493.04 270.768 492.122 270.768C490.88 270.768 489.53 270.264 488.576 269.616ZM501.535 273V267.096H503.119V264.9H501.535V262.668H498.727V264.9H497.323V267.096H498.727V273H501.535ZM508.39 268.122V268.41C508.066 268.176 507.31 267.96 506.626 267.96C504.88 267.96 503.512 268.968 503.512 270.534C503.512 272.244 504.88 273.144 506.482 273.144C507.346 273.144 508.12 272.856 508.39 272.586V273H511.108V267.996C511.108 265.854 509.74 264.72 507.346 264.72C506.194 264.72 505.114 264.99 504.448 265.35V267.618C505.096 267.24 505.888 267.042 506.662 267.042C507.813 267.042 508.39 267.492 508.39 268.122ZM508.39 270.264V270.732C508.21 271.056 507.76 271.272 507.256 271.272C506.698 271.272 506.14 271.038 506.14 270.48C506.14 269.94 506.698 269.706 507.256 269.706C507.76 269.706 508.21 269.922 508.39 270.264ZM516.266 273V267.096H517.85V264.9H516.266V262.668H513.458V264.9H512.054V267.096H513.458V273H516.266ZM521.119 269.598H526.105V268.77C526.105 266.358 524.827 264.72 522.307 264.72C520.075 264.72 518.383 266.466 518.383 269.004C518.383 271.614 520.147 273.18 522.739 273.18C523.909 273.18 524.899 272.928 525.529 272.46V270.318C524.719 270.804 524.053 270.966 523.189 270.966C522.145 270.966 521.353 270.57 521.119 269.598ZM522.415 266.862C523.099 266.862 523.513 267.33 523.585 268.014H521.155C521.353 267.276 521.803 266.862 522.415 266.862Z" fill="black"/>
<rect x="664" y="250" width="188" height="36" fill="white"/>
<path d="M852 285.5L664 285.5" stroke="#999999"/>
<path d="M676.576 269.616V272.28C677.386 272.766 678.718 273.18 680.194 273.18C682.678 273.18 684.712 272.118 684.712 269.724C684.712 268.032 683.794 266.97 681.778 266.34L680.104 265.836C679.528 265.656 679.186 265.458 679.186 264.954C679.186 264.396 679.816 264.162 680.644 264.162C681.904 264.162 683.002 264.576 683.992 265.26V262.596C683.074 262.092 682.012 261.768 680.518 261.768C678.196 261.768 676.342 262.974 676.342 265.17C676.342 267.006 677.368 267.924 679.222 268.464L680.896 268.95C681.49 269.166 681.832 269.346 681.832 269.886C681.832 270.57 681.04 270.768 680.122 270.768C678.88 270.768 677.53 270.264 676.576 269.616ZM688.271 269.598H693.257V268.77C693.257 266.358 691.979 264.72 689.459 264.72C687.227 264.72 685.535 266.466 685.535 269.004C685.535 271.614 687.299 273.18 689.891 273.18C691.061 273.18 692.051 272.928 692.681 272.46V270.318C691.871 270.804 691.205 270.966 690.341 270.966C689.297 270.966 688.505 270.57 688.271 269.598ZM689.567 266.862C690.251 266.862 690.665 267.33 690.737 268.014H688.307C688.505 267.276 688.955 266.862 689.567 266.862ZM699.823 267.582V264.864C699.697 264.792 699.409 264.72 699.049 264.72C698.239 264.72 697.609 265.08 697.213 265.62V264.9H694.387V273H697.213V268.248C697.357 267.672 697.879 267.33 698.653 267.33C699.103 267.33 699.481 267.402 699.823 267.582ZM703.985 262.704C703.985 261.768 703.247 261.174 702.383 261.174C701.519 261.174 700.781 261.768 700.781 262.704C700.781 263.622 701.519 264.216 702.383 264.216C703.247 264.216 703.985 263.622 703.985 262.704ZM703.787 273V264.9H700.961V273H703.787ZM709.766 268.122V268.41C709.442 268.176 708.686 267.96 708.002 267.96C706.256 267.96 704.888 268.968 704.888 270.534C704.888 272.244 706.256 273.144 707.858 273.144C708.722 273.144 709.496 272.856 709.766 272.586V273H712.484V267.996C712.484 265.854 711.116 264.72 708.722 264.72C707.57 264.72 706.49 264.99 705.824 265.35V267.618C706.472 267.24 707.264 267.042 708.038 267.042C709.19 267.042 709.766 267.492 709.766 268.122ZM709.766 270.264V270.732C709.586 271.056 709.136 271.272 708.632 271.272C708.074 271.272 707.516 271.038 707.516 270.48C707.516 269.94 708.074 269.706 708.632 269.706C709.136 269.706 709.586 269.922 709.766 270.264ZM716.76 273V261.3H713.934V273H716.76Z" fill="black"/>
<rect x="852" y="250" width="188" height="36" fill="white"/>
<path d="M1040 285.5L852 285.5" stroke="#999999"/>
<path d="M867.69 269.562H869.67C872.064 269.562 873.684 268.212 873.684 265.764C873.684 263.298 872.064 261.948 869.67 261.948H864.828V273H867.69V269.562ZM870.876 265.764C870.876 266.592 870.408 267.15 869.364 267.15H867.69V264.378H869.364C870.408 264.378 870.876 264.918 870.876 265.764ZM882.395 268.95C882.395 266.448 880.721 264.72 878.255 264.72C875.807 264.72 874.115 266.448 874.115 268.95C874.115 271.452 875.807 273.18 878.255 273.18C880.721 273.18 882.395 271.452 882.395 268.95ZM879.623 268.95C879.623 270.066 879.137 270.84 878.255 270.84C877.391 270.84 876.905 270.066 876.905 268.95C876.905 267.834 877.391 267.042 878.255 267.042C879.137 267.042 879.623 267.834 879.623 268.95ZM890.952 269.292L889.746 264.9H887.946L886.722 269.292L885.444 264.9H882.636L885.246 273H887.64L888.792 268.896L889.944 273H892.338L894.948 264.9H892.248L890.952 269.292ZM897.91 269.598H902.896V268.77C902.896 266.358 901.618 264.72 899.098 264.72C896.866 264.72 895.174 266.466 895.174 269.004C895.174 271.614 896.938 273.18 899.53 273.18C900.7 273.18 901.69 272.928 902.32 272.46V270.318C901.51 270.804 900.844 270.966 899.98 270.966C898.936 270.966 898.144 270.57 897.91 269.598ZM899.206 266.862C899.89 266.862 900.304 267.33 900.376 268.014H897.946C898.144 267.276 898.594 266.862 899.206 266.862ZM909.462 267.582V264.864C909.336 264.792 909.048 264.72 908.688 264.72C907.878 264.72 907.248 265.08 906.852 265.62V264.9H904.026V273H906.852V268.248C906.996 267.672 907.518 267.33 908.292 267.33C908.742 267.33 909.12 267.402 909.462 267.582Z" fill="black"/>
<rect x="42" y="286" width="998" height="144" rx="12" fill="white"/>
<rect width="48" height="36" transform="translate(42 286)" fill="white"/>
<rect x="54" y="292" width="24" height="24" rx="2" fill="white" stroke="#999999"/>
<rect width="48" height="36" transform="translate(42 322)" fill="white"/>
<rect x="54" y="328" width="24" height="24" rx="2" fill="white" stroke="#999999"/>
<rect width="48" height="36" transform="translate(42 358)" fill="white"/>
<rect x="54" y="364" width="24" height="24" rx="2" fill="white" stroke="#999999"/>
<rect width="48" height="36" transform="translate(42 394)" fill="white"/>
<rect x="54" y="400" width="24" height="24" rx="2" fill="white" stroke="#999999"/>
<rect x="90" y="286" width="188" height="36" fill="white"/>
<path d="M112.89 297.948H109.992V302.142H105.726V297.948H102.828V309H105.726V304.626H109.992V309H112.89V297.948ZM117.397 305.562H119.377C121.771 305.562 123.391 304.212 123.391 301.764C123.391 299.298 121.771 297.948 119.377 297.948H114.535V309H117.397V305.562ZM120.583 301.764C120.583 302.592 120.115 303.15 119.071 303.15H117.397V300.378H119.071C120.115 300.378 120.583 300.918 120.583 301.764ZM132.527 297.948H124.625V309H132.527V306.498H127.469V304.59H132.095V302.16H127.469V300.432H132.527V297.948ZM133.491 309.756V311.898H139.629V309.756H133.491ZM140.562 305.616V308.28C141.372 308.766 142.704 309.18 144.18 309.18C146.664 309.18 148.698 308.118 148.698 305.724C148.698 304.032 147.78 302.97 145.764 302.34L144.09 301.836C143.514 301.656 143.172 301.458 143.172 300.954C143.172 300.396 143.802 300.162 144.63 300.162C145.89 300.162 146.988 300.576 147.978 301.26V298.596C147.06 298.092 145.998 297.768 144.504 297.768C142.182 297.768 140.328 298.974 140.328 301.17C140.328 303.006 141.354 303.924 143.208 304.464L144.882 304.95C145.476 305.166 145.818 305.346 145.818 305.886C145.818 306.57 145.026 306.768 144.108 306.768C142.866 306.768 141.516 306.264 140.562 305.616ZM155.194 306.606C153.52 306.606 152.386 305.382 152.386 303.51C152.386 301.602 153.628 300.432 155.392 300.432C156.742 300.432 157.75 300.828 158.596 301.44V298.632C157.786 298.11 156.616 297.768 155.392 297.768C151.882 297.768 149.488 300.036 149.488 303.51C149.488 306.84 151.648 309.18 155.104 309.18C156.634 309.18 158.056 308.73 159.172 307.704V302.826H155.014V305.13H156.616V306.21C156.256 306.48 155.77 306.606 155.194 306.606ZM163.523 309V297.948H160.625V309H163.523ZM169.048 309.18C171.37 309.18 173.224 307.974 173.224 305.94C173.224 304.644 172.432 303.726 171.442 303.384C172.324 302.952 172.882 302.07 172.882 300.99C172.882 298.902 171.082 297.768 169.048 297.768C167.014 297.768 165.214 298.902 165.214 300.99C165.214 302.07 165.754 302.952 166.654 303.384C165.646 303.726 164.854 304.644 164.854 305.94C164.854 307.974 166.726 309.18 169.048 309.18ZM169.048 302.196C168.346 302.196 167.788 301.746 167.788 301.08C167.788 300.378 168.346 299.928 169.048 299.928C169.75 299.928 170.308 300.378 170.308 301.08C170.308 301.746 169.75 302.196 169.048 302.196ZM169.048 306.948C168.238 306.948 167.626 306.462 167.626 305.724C167.626 304.968 168.238 304.5 169.048 304.5C169.858 304.5 170.47 304.968 170.47 305.724C170.47 306.462 169.858 306.948 169.048 306.948ZM178.381 309.18C180.811 309.18 182.593 307.434 182.593 305.076C182.593 303.042 181.171 301.404 179.011 301.242C178.921 301.242 178.813 301.26 178.741 301.278L180.631 297.948H177.553L175.231 301.962C174.457 303.276 174.187 304.14 174.187 305.076C174.187 307.434 175.969 309.18 178.381 309.18ZM179.983 305.076C179.983 305.994 179.317 306.678 178.381 306.678C177.499 306.678 176.797 305.994 176.797 305.076C176.797 304.176 177.499 303.456 178.381 303.456C179.317 303.456 179.983 304.176 179.983 305.076ZM187.733 309.18C190.451 309.18 192.053 306.84 192.053 303.474C192.053 300.108 190.451 297.768 187.733 297.768C185.015 297.768 183.413 300.108 183.413 303.474C183.413 306.84 185.015 309.18 187.733 309.18ZM187.733 300.306C188.885 300.306 189.245 301.764 189.245 303.474C189.245 305.184 188.885 306.642 187.733 306.642C186.563 306.642 186.221 305.184 186.221 303.474C186.221 301.764 186.563 300.306 187.733 300.306ZM197.084 309.18C199.802 309.18 201.404 306.84 201.404 303.474C201.404 300.108 199.802 297.768 197.084 297.768C194.366 297.768 192.764 300.108 192.764 303.474C192.764 306.84 194.366 309.18 197.084 309.18ZM197.084 300.306C198.236 300.306 198.596 301.764 198.596 303.474C198.596 305.184 198.236 306.642 197.084 306.642C195.914 306.642 195.572 305.184 195.572 303.474C195.572 301.764 195.914 300.306 197.084 300.306Z" fill="#444444"/>
<rect x="90" y="322" width="188" height="36" fill="white"/>
<path d="M112.89 333.948H109.992V338.142H105.726V333.948H102.828V345H105.726V340.626H109.992V345H112.89V333.948ZM117.397 341.562H119.377C121.771 341.562 123.391 340.212 123.391 337.764C123.391 335.298 121.771 333.948 119.377 333.948H114.535V345H117.397V341.562ZM120.583 337.764C120.583 338.592 120.115 339.15 119.071 339.15H117.397V336.378H119.071C120.115 336.378 120.583 336.918 120.583 337.764ZM132.527 333.948H124.625V345H132.527V342.498H127.469V340.59H132.095V338.16H127.469V336.432H132.527V333.948ZM133.491 345.756V347.898H139.629V345.756H133.491ZM147.276 333.948H144.324L140.112 345H142.974L143.748 342.858H147.762L148.554 345H151.488L147.276 333.948ZM144.63 340.482L145.764 337.368L146.898 340.482H144.63ZM155.313 341.562H157.293C159.687 341.562 161.307 340.212 161.307 337.764C161.307 335.298 159.687 333.948 157.293 333.948H152.451V345H155.313V341.562ZM158.499 337.764C158.499 338.592 158.031 339.15 156.987 339.15H155.313V336.378H156.987C158.031 336.378 158.499 336.918 158.499 337.764ZM172.909 339.474C172.909 336.162 170.695 333.768 167.491 333.768C164.305 333.768 162.109 336.162 162.109 339.474C162.109 342.768 164.305 345.18 167.491 345.18C170.695 345.18 172.909 342.768 172.909 339.474ZM169.993 339.474C169.993 341.382 168.985 342.642 167.491 342.642C165.997 342.642 165.025 341.382 165.025 339.474C165.025 337.566 165.997 336.306 167.491 336.306C168.985 336.306 169.993 337.566 169.993 339.474ZM174.107 333.948V345H181.955V342.498H177.005V333.948H174.107ZM183.283 333.948V345H191.131V342.498H186.181V333.948H183.283ZM202.44 339.474C202.44 336.162 200.226 333.768 197.022 333.768C193.836 333.768 191.64 336.162 191.64 339.474C191.64 342.768 193.836 345.18 197.022 345.18C200.226 345.18 202.44 342.768 202.44 339.474ZM199.524 339.474C199.524 341.382 198.516 342.642 197.022 342.642C195.528 342.642 194.556 341.382 194.556 339.474C194.556 337.566 195.528 336.306 197.022 336.306C198.516 336.306 199.524 337.566 199.524 339.474ZM207.491 345.18C209.921 345.18 211.703 343.434 211.703 341.076C211.703 339.042 210.281 337.404 208.121 337.242C208.031 337.242 207.923 337.26 207.851 337.278L209.741 333.948H206.663L204.341 337.962C203.567 339.276 203.297 340.14 203.297 341.076C203.297 343.434 205.079 345.18 207.491 345.18ZM209.093 341.076C209.093 341.994 208.427 342.678 207.491 342.678C206.609 342.678 205.907 341.994 205.907 341.076C205.907 340.176 206.609 339.456 207.491 339.456C208.427 339.456 209.093 340.176 209.093 341.076ZM216.59 337.746C216.248 337.746 215.87 337.782 215.654 337.836V336.432H220.118V333.948H213.404V340.482C214.106 340.212 215.096 340.05 215.978 340.05C217.166 340.05 218.066 340.518 218.066 341.472C218.066 342.408 217.13 342.84 216.086 342.84C214.934 342.84 213.8 342.336 213.026 341.652V344.262C213.818 344.784 214.898 345.18 216.32 345.18C218.858 345.18 220.748 343.722 220.748 341.436C220.748 339.132 218.948 337.746 216.59 337.746ZM226.194 345.18C228.912 345.18 230.514 342.84 230.514 339.474C230.514 336.108 228.912 333.768 226.194 333.768C223.476 333.768 221.874 336.108 221.874 339.474C221.874 342.84 223.476 345.18 226.194 345.18ZM226.194 336.306C227.346 336.306 227.706 337.764 227.706 339.474C227.706 341.184 227.346 342.642 226.194 342.642C225.024 342.642 224.682 341.184 224.682 339.474C224.682 337.764 225.024 336.306 226.194 336.306ZM235.545 345.18C238.263 345.18 239.865 342.84 239.865 339.474C239.865 336.108 238.263 333.768 235.545 333.768C232.827 333.768 231.225 336.108 231.225 339.474C231.225 342.84 232.827 345.18 235.545 345.18ZM235.545 336.306C236.697 336.306 237.057 337.764 237.057 339.474C237.057 341.184 236.697 342.642 235.545 342.642C234.375 342.642 234.033 341.184 234.033 339.474C234.033 337.764 234.375 336.306 235.545 336.306Z" fill="#444444"/>
<rect x="90" y="358" width="188" height="36" fill="white"/>
<path d="M112.584 381V369.948H109.794V376.032L105.528 369.948H102.828V381H105.618V374.538L110.244 381H112.584ZM122.012 376.95C122.012 374.448 120.338 372.72 117.872 372.72C115.424 372.72 113.732 374.448 113.732 376.95C113.732 379.452 115.424 381.18 117.872 381.18C120.338 381.18 122.012 379.452 122.012 376.95ZM119.24 376.95C119.24 378.066 118.754 378.84 117.872 378.84C117.008 378.84 116.522 378.066 116.522 376.95C116.522 375.834 117.008 375.042 117.872 375.042C118.754 375.042 119.24 375.834 119.24 376.95ZM126.785 381V375.096H128.369V372.9H126.785V370.668H123.977V372.9H122.573V375.096H123.977V381H126.785ZM132.72 378.03V380.406C133.476 380.91 134.664 381.18 135.798 381.18C137.796 381.18 139.29 380.334 139.29 378.606C139.29 377.238 138.588 376.518 136.824 376.05L136.086 375.834C135.69 375.726 135.456 375.618 135.456 375.312C135.456 374.988 135.78 374.826 136.266 374.826C137.184 374.826 138.048 375.204 138.822 375.762V373.44C138.03 372.954 137.148 372.72 135.996 372.72C134.088 372.72 132.684 373.674 132.684 375.366C132.684 376.824 133.638 377.526 135.132 377.85L135.762 378.012C136.248 378.12 136.5 378.246 136.5 378.57C136.5 378.93 136.14 379.056 135.582 379.056C134.754 379.056 133.494 378.66 132.72 378.03ZM142.765 377.598H147.751V376.77C147.751 374.358 146.473 372.72 143.953 372.72C141.721 372.72 140.029 374.466 140.029 377.004C140.029 379.614 141.793 381.18 144.385 381.18C145.555 381.18 146.545 380.928 147.175 380.46V378.318C146.365 378.804 145.699 378.966 144.835 378.966C143.791 378.966 142.999 378.57 142.765 377.598ZM144.061 374.862C144.745 374.862 145.159 375.33 145.231 376.014H142.801C142.999 375.276 143.449 374.862 144.061 374.862ZM152.59 381V375.096H154.174V372.9H152.59V370.668H149.782V372.9H148.378V375.096H149.782V381H152.59Z" fill="#444444"/>
<rect x="90" y="394" width="188" height="36" fill="white"/>
<path d="M112.89 405.948H109.992V410.142H105.726V405.948H102.828V417H105.726V412.626H109.992V417H112.89V405.948ZM117.397 413.562H119.377C121.771 413.562 123.391 412.212 123.391 409.764C123.391 407.298 121.771 405.948 119.377 405.948H114.535V417H117.397V413.562ZM120.583 409.764C120.583 410.592 120.115 411.15 119.071 411.15H117.397V408.378H119.071C120.115 408.378 120.583 408.918 120.583 409.764ZM132.527 405.948H124.625V417H132.527V414.498H127.469V412.59H132.095V410.16H127.469V408.432H132.527V405.948ZM133.491 417.756V419.898H139.629V417.756H133.491ZM140.562 413.616V416.28C141.372 416.766 142.704 417.18 144.18 417.18C146.664 417.18 148.698 416.118 148.698 413.724C148.698 412.032 147.78 410.97 145.764 410.34L144.09 409.836C143.514 409.656 143.172 409.458 143.172 408.954C143.172 408.396 143.802 408.162 144.63 408.162C145.89 408.162 146.988 408.576 147.978 409.26V406.596C147.06 406.092 145.998 405.768 144.504 405.768C142.182 405.768 140.328 406.974 140.328 409.17C140.328 411.006 141.354 411.924 143.208 412.464L144.882 412.95C145.476 413.166 145.818 413.346 145.818 413.886C145.818 414.57 145.026 414.768 144.108 414.768C142.866 414.768 141.516 414.264 140.562 413.616ZM154.583 417.18C157.499 417.18 159.389 415.524 159.389 412.5V405.948H156.509V412.23C156.509 413.796 155.771 414.606 154.583 414.606C153.377 414.606 152.639 413.796 152.639 412.23V405.948H149.759V412.482C149.759 415.524 151.667 417.18 154.583 417.18ZM163.786 413.562H165.766C168.16 413.562 169.78 412.212 169.78 409.764C169.78 407.298 168.16 405.948 165.766 405.948H160.924V417H163.786V413.562ZM166.972 409.764C166.972 410.592 166.504 411.15 165.46 411.15H163.786V408.378H165.46C166.504 408.378 166.972 408.918 166.972 409.764ZM178.916 405.948H171.014V417H178.916V414.498H173.858V412.59H178.484V410.16H173.858V408.432H178.916V405.948ZM183.21 413.346H184.218L186.522 417H189.726L187.134 413.04C188.484 412.536 189.33 411.384 189.33 409.71C189.33 407.298 187.692 405.948 185.316 405.948H180.348V417H183.21V413.346ZM183.21 411.042V408.378H185.01C186.036 408.378 186.504 408.9 186.504 409.71C186.504 410.52 186.036 411.042 185.01 411.042H183.21ZM190.683 405.948V417H194.859C198.333 417 200.439 414.84 200.439 411.474C200.439 408.108 198.333 405.948 194.859 405.948H190.683ZM194.715 414.498H193.527V408.432H194.715C196.551 408.432 197.577 409.602 197.577 411.474C197.577 413.328 196.551 414.498 194.715 414.498ZM212.108 411.474C212.108 408.162 209.894 405.768 206.69 405.768C203.504 405.768 201.308 408.162 201.308 411.474C201.308 414.768 203.504 417.18 206.69 417.18C209.894 417.18 212.108 414.768 212.108 411.474ZM209.192 411.474C209.192 413.382 208.184 414.642 206.69 414.642C205.196 414.642 204.224 413.382 204.224 411.474C204.224 409.566 205.196 408.306 206.69 408.306C208.184 408.306 209.192 409.566 209.192 411.474ZM218.977 414.624H219.049L221.875 410.664V417H224.719V405.948H222.055L219.013 410.448L215.989 405.948H213.307V417H216.133V410.664L218.977 414.624ZM234.269 405.948H226.367V417H234.269V414.498H229.211V412.59H233.837V410.16H229.211V408.432H234.269V405.948Z" fill="#444444"/>
<g clip-path="url(#clip1_7795:147869)">
<path d="M296 309C298.761 309 301 306.761 301 304C301 301.239 298.761 299 296 299C293.239 299 291 301.239 291 304C291 306.761 293.239 309 296 309Z" fill="#17EBA0" stroke="#17EBA0"/>
<rect x="302" y="286" width="176" height="36" fill="white"/>
<path d="M323.9 309V297.948H322.55V306.354L316.664 297.948H315.314V309H316.682V300.216L322.856 309H323.9ZM333.189 305.004C333.189 302.556 331.695 300.846 329.517 300.846C327.321 300.846 325.845 302.556 325.845 305.004C325.845 307.452 327.321 309.162 329.517 309.162C331.695 309.162 333.189 307.452 333.189 305.004ZM331.821 305.004C331.821 306.75 330.957 307.974 329.517 307.974C328.077 307.974 327.213 306.75 327.213 305.004C327.213 303.258 328.077 302.034 329.517 302.034C330.957 302.034 331.821 303.258 331.821 305.004ZM339.121 302.358V300.972C338.977 300.9 338.689 300.846 338.347 300.846C337.465 300.846 336.709 301.368 336.367 302.052V301.008H335.017V309H336.367V303.636C336.637 302.7 337.375 302.142 338.221 302.142C338.563 302.142 338.905 302.214 339.121 302.358ZM346.47 302.124C346.092 301.368 345.318 300.846 344.31 300.846C343.32 300.846 342.546 301.314 342.15 301.944V301.008H340.8V309H342.15V303.492C342.402 302.628 343.104 302.07 343.914 302.07C344.94 302.07 345.426 302.808 345.426 303.924V309H346.776V303.492C347.028 302.628 347.73 302.07 348.54 302.07C349.566 302.07 350.052 302.808 350.052 303.924V309H351.42V303.708C351.42 301.98 350.52 300.846 348.9 300.846C347.784 300.846 346.974 301.404 346.47 302.124ZM358.148 303.69V304.734C357.806 304.428 356.978 304.086 356.15 304.086C354.44 304.086 353.108 305.094 353.108 306.588C353.108 308.172 354.44 309.144 356.078 309.144C357.014 309.144 357.842 308.73 358.148 308.406V309H359.462V303.582C359.462 301.89 358.346 300.846 356.456 300.846C355.466 300.846 354.512 301.134 353.972 301.512V302.79C354.638 302.358 355.358 302.088 356.24 302.088C357.41 302.088 358.148 302.7 358.148 303.69ZM358.148 306.192V307.02C357.932 307.614 357.14 308.01 356.294 308.01C355.322 308.01 354.386 307.56 354.386 306.588C354.386 305.634 355.322 305.202 356.294 305.202C357.14 305.202 357.932 305.598 358.148 306.192ZM363.12 309V297.3H361.77V309H363.12Z" fill="#444444"/>
<path fill-rule="evenodd" clip-rule="evenodd" d="M296 335L301 344H291L296 335Z" fill="#FFBC44" stroke="#FFBC44" stroke-linejoin="round"/>
<rect x="302" y="322" width="176" height="36" fill="white"/>
<path d="M321.488 333.948H320.354L318.014 342.732L315.746 333.948H314.342L317.276 345H318.554L320.912 336.378L323.234 345H324.53L327.464 333.948H326.096L323.828 342.732L321.488 333.948ZM332.941 339.69V340.734C332.599 340.428 331.771 340.086 330.943 340.086C329.233 340.086 327.901 341.094 327.901 342.588C327.901 344.172 329.233 345.144 330.871 345.144C331.807 345.144 332.635 344.73 332.941 344.406V345H334.255V339.582C334.255 337.89 333.139 336.846 331.249 336.846C330.259 336.846 329.305 337.134 328.765 337.512V338.79C329.431 338.358 330.151 338.088 331.033 338.088C332.203 338.088 332.941 338.7 332.941 339.69ZM332.941 342.192V343.02C332.725 343.614 331.933 344.01 331.087 344.01C330.115 344.01 329.179 343.56 329.179 342.588C329.179 341.634 330.115 341.202 331.087 341.202C331.933 341.202 332.725 341.598 332.941 342.192ZM340.667 338.358V336.972C340.523 336.9 340.235 336.846 339.893 336.846C339.011 336.846 338.255 337.368 337.913 338.052V337.008H336.563V345H337.913V339.636C338.183 338.7 338.921 338.142 339.767 338.142C340.109 338.142 340.451 338.214 340.667 338.358ZM342.347 337.008V345H343.697V339.582C343.985 338.718 344.795 338.088 345.731 338.088C346.937 338.088 347.495 338.862 347.495 339.978V345H348.863V339.762C348.863 338.016 347.873 336.846 346.055 336.846C345.029 336.846 344.165 337.386 343.697 338.016V337.008H342.347ZM352.701 334.596C352.701 334.11 352.305 333.732 351.819 333.732C351.351 333.732 350.955 334.11 350.955 334.596C350.955 335.064 351.351 335.46 351.819 335.46C352.305 335.46 352.701 335.064 352.701 334.596ZM352.503 345V337.008H351.153V345H352.503ZM354.915 337.008V345H356.265V339.582C356.553 338.718 357.363 338.088 358.299 338.088C359.505 338.088 360.063 338.862 360.063 339.978V345H361.431V339.762C361.431 338.016 360.441 336.846 358.623 336.846C357.597 336.846 356.733 337.386 356.265 338.016V337.008H354.915ZM368.942 343.938V344.46C368.942 346.17 367.826 347.016 366.404 347.016C365.468 347.016 364.622 346.764 363.83 346.026V347.52C364.442 347.952 365.378 348.24 366.404 348.24C368.312 348.24 370.31 347.16 370.31 344.37V337.008H368.942V337.908C368.546 337.35 367.7 336.846 366.71 336.846C364.37 336.846 363.146 338.79 363.146 340.932C363.146 343.074 364.37 345.018 366.71 345.018C367.7 345.018 368.546 344.496 368.942 343.938ZM368.942 339.294V342.552C368.528 343.308 367.772 343.794 366.908 343.794C365.396 343.794 364.514 342.588 364.514 340.932C364.514 339.258 365.396 338.052 366.908 338.052C367.772 338.052 368.528 338.538 368.942 339.294Z" fill="#444444"/>
<path d="M300 371H292C291.448 371 291 371.448 291 372V380C291 380.552 291.448 381 292 381H300C300.552 381 301 380.552 301 380V372C301 371.448 300.552 371 300 371Z" fill="#CCCCCC" stroke="#CCCCCC"/>
<rect x="302" y="358" width="176" height="36" fill="white"/>
<path d="M319.454 381.162C321.974 381.162 323.792 379.65 323.792 376.626V369.948H322.37V376.446C322.37 378.804 321.236 379.902 319.454 379.902C317.672 379.902 316.538 378.804 316.538 376.446V369.948H315.134V376.608C315.134 379.65 316.952 381.162 319.454 381.162ZM326.14 373.008V381H327.49V375.582C327.778 374.718 328.588 374.088 329.524 374.088C330.73 374.088 331.288 374.862 331.288 375.978V381H332.656V375.762C332.656 374.016 331.666 372.846 329.848 372.846C328.822 372.846 327.958 373.386 327.49 374.016V373.008H326.14ZM341.66 381L337.664 376.662L341.588 373.008H339.842L336.296 376.374V369.3H334.946V381H336.296V377.04L339.986 381H341.66ZM342.962 373.008V381H344.312V375.582C344.6 374.718 345.41 374.088 346.346 374.088C347.552 374.088 348.11 374.862 348.11 375.978V381H349.478V375.762C349.478 374.016 348.488 372.846 346.67 372.846C345.644 372.846 344.78 373.386 344.312 374.016V373.008H342.962ZM358.537 377.004C358.537 374.556 357.043 372.846 354.865 372.846C352.669 372.846 351.193 374.556 351.193 377.004C351.193 379.452 352.669 381.162 354.865 381.162C357.043 381.162 358.537 379.452 358.537 377.004ZM357.169 377.004C357.169 378.75 356.305 379.974 354.865 379.974C353.425 379.974 352.561 378.75 352.561 377.004C352.561 375.258 353.425 374.034 354.865 374.034C356.305 374.034 357.169 375.258 357.169 377.004ZM367.078 379.11L365.44 373.008H364.234L362.596 379.11L360.832 373.008H359.482L361.84 381H363.154L364.828 374.934L366.484 381H367.798L370.156 373.008H368.842L367.078 379.11ZM371.685 373.008V381H373.035V375.582C373.323 374.718 374.133 374.088 375.069 374.088C376.275 374.088 376.833 374.862 376.833 375.978V381H378.201V375.762C378.201 374.016 377.211 372.846 375.393 372.846C374.367 372.846 373.503 373.386 373.035 374.016V373.008H371.685Z" fill="#444444"/>
<path fill-rule="evenodd" clip-rule="evenodd" d="M296.712 407.263C296.319 406.869 295.683 406.867 295.287 407.263L291.263 411.287C290.869 411.681 290.867 412.316 291.263 412.712L295.287 416.737C295.681 417.13 296.316 417.132 296.712 416.737L300.737 412.712C301.13 412.319 301.132 411.683 300.737 411.287L296.712 407.263Z" fill="#FC5A5A" stroke="#FC5A5A"/>
<rect x="302" y="394" width="176" height="36" fill="white"/>
<path d="M314.666 411.474C314.666 414.93 316.898 417.162 319.85 417.162C321.128 417.162 322.1 416.802 322.82 416.208V414.714C321.92 415.524 321.002 415.884 319.868 415.884C317.636 415.884 316.088 414.138 316.088 411.474C316.088 408.81 317.636 407.064 319.868 407.064C321.002 407.064 321.92 407.406 322.82 408.234V406.74C322.1 406.146 321.128 405.786 319.85 405.786C316.898 405.786 314.666 408.018 314.666 411.474ZM329.031 410.358V408.972C328.887 408.9 328.599 408.846 328.257 408.846C327.375 408.846 326.619 409.368 326.277 410.052V409.008H324.927V417H326.277V411.636C326.547 410.7 327.285 410.142 328.131 410.142C328.473 410.142 328.815 410.214 329.031 410.358ZM332.258 406.596C332.258 406.11 331.862 405.732 331.376 405.732C330.908 405.732 330.512 406.11 330.512 406.596C330.512 407.064 330.908 407.46 331.376 407.46C331.862 407.46 332.258 407.064 332.258 406.596ZM332.06 417V409.008H330.71V417H332.06ZM336.704 417V410.16H338.558V409.008H336.704V406.902H335.354V409.008H333.68V410.16H335.354V417H336.704ZM341.75 406.596C341.75 406.11 341.354 405.732 340.868 405.732C340.4 405.732 340.004 406.11 340.004 406.596C340.004 407.064 340.4 407.46 340.868 407.46C341.354 407.46 341.75 407.064 341.75 406.596ZM341.552 417V409.008H340.202V417H341.552ZM343.388 413.004C343.388 415.56 345.08 417.162 347.24 417.162C348.014 417.162 348.824 416.982 349.382 416.496V415.128C348.806 415.704 348.104 415.956 347.33 415.956C345.908 415.956 344.756 414.84 344.756 413.004C344.756 411.168 345.908 410.052 347.33 410.052C348.104 410.052 348.806 410.304 349.382 410.88V409.512C348.824 409.026 348.014 408.846 347.24 408.846C345.08 408.846 343.388 410.448 343.388 413.004ZM355.74 411.69V412.734C355.398 412.428 354.57 412.086 353.742 412.086C352.032 412.086 350.7 413.094 350.7 414.588C350.7 416.172 352.032 417.144 353.67 417.144C354.606 417.144 355.434 416.73 355.74 416.406V417H357.054V411.582C357.054 409.89 355.938 408.846 354.048 408.846C353.058 408.846 352.104 409.134 351.564 409.512V410.79C352.23 410.358 352.95 410.088 353.832 410.088C355.002 410.088 355.74 410.7 355.74 411.69ZM355.74 414.192V415.02C355.524 415.614 354.732 416.01 353.886 416.01C352.914 416.01 351.978 415.56 351.978 414.588C351.978 413.634 352.914 413.202 353.886 413.202C354.732 413.202 355.524 413.598 355.74 414.192ZM360.712 417V405.3H359.362V417H360.712Z" fill="#444444"/>
</g>
<rect x="476" y="286" width="188" height="36" fill="white"/>
<path d="M490.736 304.32H492.698L495.866 309H497.486L494.21 304.266C495.956 304.014 497.036 302.988 497.036 301.152C497.036 299.064 495.596 297.948 493.364 297.948H489.314V309H490.736V304.32ZM490.736 303.114V299.19H493.328C494.786 299.19 495.632 299.928 495.632 301.152C495.632 302.376 494.786 303.114 493.328 303.114H490.736ZM505.457 309V301.008H504.089V306.426C503.801 307.29 503.027 307.92 502.091 307.92C500.885 307.92 500.345 307.146 500.345 306.03V301.008H498.977V306.246C498.977 307.992 499.949 309.162 501.767 309.162C502.793 309.162 503.639 308.622 504.089 307.992V309H505.457ZM507.856 301.008V309H509.206V303.582C509.494 302.718 510.304 302.088 511.24 302.088C512.446 302.088 513.004 302.862 513.004 303.978V309H514.372V303.762C514.372 302.016 513.382 300.846 511.564 300.846C510.538 300.846 509.674 301.386 509.206 302.016V301.008H507.856ZM516.663 301.008V309H518.013V303.582C518.301 302.718 519.111 302.088 520.047 302.088C521.253 302.088 521.811 302.862 521.811 303.978V309H523.179V303.762C523.179 302.016 522.189 300.846 520.371 300.846C519.345 300.846 518.481 301.386 518.013 302.016V301.008H516.663ZM527.018 298.596C527.018 298.11 526.622 297.732 526.136 297.732C525.668 297.732 525.272 298.11 525.272 298.596C525.272 299.064 525.668 299.46 526.136 299.46C526.622 299.46 527.018 299.064 527.018 298.596ZM526.82 309V301.008H525.47V309H526.82ZM529.231 301.008V309H530.581V303.582C530.869 302.718 531.679 302.088 532.615 302.088C533.821 302.088 534.379 302.862 534.379 303.978V309H535.747V303.762C535.747 302.016 534.757 300.846 532.939 300.846C531.913 300.846 531.049 301.386 530.581 302.016V301.008H529.231ZM543.258 307.938V308.46C543.258 310.17 542.142 311.016 540.72 311.016C539.784 311.016 538.938 310.764 538.146 310.026V311.52C538.758 311.952 539.694 312.24 540.72 312.24C542.628 312.24 544.626 311.16 544.626 308.37V301.008H543.258V301.908C542.862 301.35 542.016 300.846 541.026 300.846C538.686 300.846 537.462 302.79 537.462 304.932C537.462 307.074 538.686 309.018 541.026 309.018C542.016 309.018 542.862 308.496 543.258 307.938ZM543.258 303.294V306.552C542.844 307.308 542.088 307.794 541.224 307.794C539.712 307.794 538.83 306.588 538.83 304.932C538.83 303.258 539.712 302.052 541.224 302.052C542.088 302.052 542.844 302.538 543.258 303.294Z" fill="#444444"/>
<rect x="476" y="322" width="188" height="36" fill="white"/>
<path d="M493.454 345.162C495.974 345.162 497.792 343.65 497.792 340.626V333.948H496.37V340.446C496.37 342.804 495.236 343.902 493.454 343.902C491.672 343.902 490.538 342.804 490.538 340.446V333.948H489.134V340.608C489.134 343.65 490.952 345.162 493.454 345.162ZM501.49 348.06V344.064C501.904 344.64 502.75 345.162 503.74 345.162C506.098 345.162 507.34 343.218 507.34 341.004C507.34 338.79 506.098 336.846 503.74 336.846C502.75 336.846 501.904 337.368 501.49 337.944V337.008H500.14V348.06H501.49ZM501.49 342.624V339.384C501.904 338.556 502.696 338.07 503.542 338.07C505.072 338.07 505.972 339.312 505.972 341.004C505.972 342.696 505.072 343.938 503.542 343.938C502.696 343.938 501.904 343.452 501.49 342.624ZM514.484 344.064V345H515.852V333.3H514.484V337.944C514.088 337.368 513.224 336.846 512.234 336.846C509.894 336.846 508.634 338.754 508.634 341.004C508.634 343.272 509.894 345.162 512.234 345.162C513.224 345.162 514.088 344.64 514.484 344.064ZM514.484 339.384V342.624C514.07 343.452 513.278 343.938 512.432 343.938C510.902 343.938 510.002 342.696 510.002 341.004C510.002 339.312 510.902 338.07 512.432 338.07C513.278 338.07 514.07 338.556 514.484 339.384ZM522.691 339.69V340.734C522.349 340.428 521.521 340.086 520.693 340.086C518.983 340.086 517.651 341.094 517.651 342.588C517.651 344.172 518.983 345.144 520.621 345.144C521.557 345.144 522.385 344.73 522.691 344.406V345H524.005V339.582C524.005 337.89 522.889 336.846 520.999 336.846C520.009 336.846 519.055 337.134 518.515 337.512V338.79C519.181 338.358 519.901 338.088 520.783 338.088C521.953 338.088 522.691 338.7 522.691 339.69ZM522.691 342.192V343.02C522.475 343.614 521.683 344.01 520.837 344.01C519.865 344.01 518.929 343.56 518.929 342.588C518.929 341.634 519.865 341.202 520.837 341.202C521.683 341.202 522.475 341.598 522.691 342.192ZM528.493 345V338.16H530.347V337.008H528.493V334.902H527.143V337.008H525.469V338.16H527.143V345H528.493ZM532.607 341.238H538.115V340.752C538.115 338.412 536.999 336.846 534.839 336.846C532.715 336.846 531.275 338.592 531.275 341.076C531.275 343.596 532.823 345.162 535.127 345.162C536.081 345.162 536.909 344.964 537.557 344.46V343.218C536.837 343.758 536.189 343.974 535.289 343.974C533.831 343.974 532.661 343.092 532.607 341.238ZM534.857 337.998C536.153 337.998 536.747 339.006 536.801 340.176H532.679C532.931 338.7 533.795 337.998 534.857 337.998ZM545.475 334.596C545.475 334.11 545.079 333.732 544.593 333.732C544.125 333.732 543.729 334.11 543.729 334.596C543.729 335.064 544.125 335.46 544.593 335.46C545.079 335.46 545.475 335.064 545.475 334.596ZM545.277 345V337.008H543.927V345H545.277ZM547.688 337.008V345H549.038V339.582C549.326 338.718 550.136 338.088 551.072 338.088C552.278 338.088 552.836 338.862 552.836 339.978V345H554.204V339.762C554.204 338.016 553.214 336.846 551.396 336.846C550.37 336.846 549.506 337.386 549.038 338.016V337.008H547.688ZM561.818 348.06V344.064C562.232 344.64 563.078 345.162 564.068 345.162C566.426 345.162 567.668 343.218 567.668 341.004C567.668 338.79 566.426 336.846 564.068 336.846C563.078 336.846 562.232 337.368 561.818 337.944V337.008H560.468V348.06H561.818ZM561.818 342.624V339.384C562.232 338.556 563.024 338.07 563.87 338.07C565.4 338.07 566.3 339.312 566.3 341.004C566.3 342.696 565.4 343.938 563.87 343.938C563.024 343.938 562.232 343.452 561.818 342.624ZM573.607 338.358V336.972C573.463 336.9 573.175 336.846 572.833 336.846C571.951 336.846 571.195 337.368 570.853 338.052V337.008H569.503V345H570.853V339.636C571.123 338.7 571.861 338.142 572.707 338.142C573.049 338.142 573.391 338.214 573.607 338.358ZM581.826 341.004C581.826 338.556 580.332 336.846 578.154 336.846C575.958 336.846 574.482 338.556 574.482 341.004C574.482 343.452 575.958 345.162 578.154 345.162C580.332 345.162 581.826 343.452 581.826 341.004ZM580.458 341.004C580.458 342.75 579.594 343.974 578.154 343.974C576.714 343.974 575.85 342.75 575.85 341.004C575.85 339.258 576.714 338.034 578.154 338.034C579.594 338.034 580.458 339.258 580.458 341.004ZM588.908 343.938V344.46C588.908 346.17 587.792 347.016 586.37 347.016C585.434 347.016 584.588 346.764 583.796 346.026V347.52C584.408 347.952 585.344 348.24 586.37 348.24C588.278 348.24 590.276 347.16 590.276 344.37V337.008H588.908V337.908C588.512 337.35 587.666 336.846 586.676 336.846C584.336 336.846 583.112 338.79 583.112 340.932C583.112 343.074 584.336 345.018 586.676 345.018C587.666 345.018 588.512 344.496 588.908 343.938ZM588.908 339.294V342.552C588.494 343.308 587.738 343.794 586.874 343.794C585.362 343.794 584.48 342.588 584.48 340.932C584.48 339.258 585.362 338.052 586.874 338.052C587.738 338.052 588.494 338.538 588.908 339.294ZM596.775 338.358V336.972C596.631 336.9 596.343 336.846 596.001 336.846C595.119 336.846 594.363 337.368 594.021 338.052V337.008H592.671V345H594.021V339.636C594.291 338.7 595.029 338.142 595.875 338.142C596.217 338.142 596.559 338.214 596.775 338.358ZM598.982 341.238H604.49V340.752C604.49 338.412 603.374 336.846 601.214 336.846C599.09 336.846 597.65 338.592 597.65 341.076C597.65 343.596 599.198 345.162 601.502 345.162C602.456 345.162 603.284 344.964 603.932 344.46V343.218C603.212 343.758 602.564 343.974 601.664 343.974C600.206 343.974 599.036 343.092 598.982 341.238ZM601.232 337.998C602.528 337.998 603.122 339.006 603.176 340.176H599.054C599.306 338.7 600.17 337.998 601.232 337.998ZM605.931 342.93V344.37C606.525 344.838 607.515 345.162 608.559 345.162C610.233 345.162 611.547 344.316 611.547 342.84C611.547 341.706 610.881 341.004 609.675 340.59L608.451 340.176C607.695 339.906 607.263 339.69 607.263 339.042C607.263 338.358 607.947 337.998 608.775 337.998C609.747 337.998 610.485 338.394 611.151 338.952V337.548C610.503 337.098 609.675 336.846 608.775 336.846C607.191 336.846 605.949 337.692 605.949 339.096C605.949 340.392 606.759 340.968 607.965 341.364L609.063 341.742C609.765 341.976 610.215 342.3 610.215 342.894C610.215 343.686 609.441 344.01 608.559 344.01C607.587 344.01 606.669 343.614 605.931 342.93ZM612.998 342.93V344.37C613.592 344.838 614.582 345.162 615.626 345.162C617.3 345.162 618.614 344.316 618.614 342.84C618.614 341.706 617.948 341.004 616.742 340.59L615.518 340.176C614.762 339.906 614.33 339.69 614.33 339.042C614.33 338.358 615.014 337.998 615.842 337.998C616.814 337.998 617.552 338.394 618.218 338.952V337.548C617.57 337.098 616.742 336.846 615.842 336.846C614.258 336.846 613.016 337.692 613.016 339.096C613.016 340.392 613.826 340.968 615.032 341.364L616.13 341.742C616.832 341.976 617.282 342.3 617.282 342.894C617.282 343.686 616.508 344.01 615.626 344.01C614.654 344.01 613.736 343.614 612.998 342.93Z" fill="#444444"/>
<rect x="476" y="358" width="188" height="36" fill="white"/>
<path d="M497.9 381V369.948H496.55V378.354L490.664 369.948H489.314V381H490.682V372.216L496.856 381H497.9ZM507.189 377.004C507.189 374.556 505.695 372.846 503.517 372.846C501.321 372.846 499.845 374.556 499.845 377.004C499.845 379.452 501.321 381.162 503.517 381.162C505.695 381.162 507.189 379.452 507.189 377.004ZM505.821 377.004C505.821 378.75 504.957 379.974 503.517 379.974C502.077 379.974 501.213 378.75 501.213 377.004C501.213 375.258 502.077 374.034 503.517 374.034C504.957 374.034 505.821 375.258 505.821 377.004ZM511.126 381V374.16H512.979V373.008H511.126V370.902H509.776V373.008H508.102V374.16H509.776V381H511.126ZM518.021 377.004C518.021 379.56 519.713 381.162 521.873 381.162C522.647 381.162 523.457 380.982 524.015 380.496V379.128C523.439 379.704 522.737 379.956 521.963 379.956C520.541 379.956 519.389 378.84 519.389 377.004C519.389 375.168 520.541 374.052 521.963 374.052C522.737 374.052 523.439 374.304 524.015 374.88V373.512C523.457 373.026 522.647 372.846 521.873 372.846C519.713 372.846 518.021 374.448 518.021 377.004ZM532.66 377.004C532.66 374.556 531.166 372.846 528.988 372.846C526.792 372.846 525.316 374.556 525.316 377.004C525.316 379.452 526.792 381.162 528.988 381.162C531.166 381.162 532.66 379.452 532.66 377.004ZM531.292 377.004C531.292 378.75 530.428 379.974 528.988 379.974C527.548 379.974 526.684 378.75 526.684 377.004C526.684 375.258 527.548 374.034 528.988 374.034C530.428 374.034 531.292 375.258 531.292 377.004ZM534.487 373.008V381H535.837V375.582C536.125 374.718 536.935 374.088 537.871 374.088C539.077 374.088 539.635 374.862 539.635 375.978V381H541.003V375.762C541.003 374.016 540.013 372.846 538.195 372.846C537.169 372.846 536.305 373.386 535.837 374.016V373.008H534.487ZM543.294 373.008V381H544.644V375.582C544.932 374.718 545.742 374.088 546.678 374.088C547.884 374.088 548.442 374.862 548.442 375.978V381H549.81V375.762C549.81 374.016 548.82 372.846 547.002 372.846C545.976 372.846 545.112 373.386 544.644 374.016V373.008H543.294ZM552.857 377.238H558.365V376.752C558.365 374.412 557.249 372.846 555.089 372.846C552.965 372.846 551.525 374.592 551.525 377.076C551.525 379.596 553.073 381.162 555.377 381.162C556.331 381.162 557.159 380.964 557.807 380.46V379.218C557.087 379.758 556.439 379.974 555.539 379.974C554.081 379.974 552.911 379.092 552.857 377.238ZM555.107 373.998C556.403 373.998 556.997 375.006 557.051 376.176H552.929C553.181 374.7 554.045 373.998 555.107 373.998ZM559.628 377.004C559.628 379.56 561.32 381.162 563.48 381.162C564.254 381.162 565.064 380.982 565.622 380.496V379.128C565.046 379.704 564.344 379.956 563.57 379.956C562.148 379.956 560.996 378.84 560.996 377.004C560.996 375.168 562.148 374.052 563.57 374.052C564.344 374.052 565.046 374.304 565.622 374.88V373.512C565.064 373.026 564.254 372.846 563.48 372.846C561.32 372.846 559.628 374.448 559.628 377.004ZM569.766 381V374.16H571.62V373.008H569.766V370.902H568.416V373.008H566.742V374.16H568.416V381H569.766ZM573.88 377.238H579.388V376.752C579.388 374.412 578.272 372.846 576.112 372.846C573.988 372.846 572.548 374.592 572.548 377.076C572.548 379.596 574.096 381.162 576.4 381.162C577.354 381.162 578.182 380.964 578.83 380.46V379.218C578.11 379.758 577.462 379.974 576.562 379.974C575.104 379.974 573.934 379.092 573.88 377.238ZM576.13 373.998C577.426 373.998 578.02 375.006 578.074 376.176H573.952C574.204 374.7 575.068 373.998 576.13 373.998ZM586.501 380.064V381H587.869V369.3H586.501V373.944C586.105 373.368 585.241 372.846 584.251 372.846C581.911 372.846 580.651 374.754 580.651 377.004C580.651 379.272 581.911 381.162 584.251 381.162C585.241 381.162 586.105 380.64 586.501 380.064ZM586.501 375.384V378.624C586.087 379.452 585.295 379.938 584.449 379.938C582.919 379.938 582.019 378.696 582.019 377.004C582.019 375.312 582.919 374.07 584.449 374.07C585.295 374.07 586.087 374.556 586.501 375.384Z" fill="#444444"/>
<rect x="476" y="394" width="188" height="36" fill="white"/>
<path d="M490.736 412.32H492.698L495.866 417H497.486L494.21 412.266C495.956 412.014 497.036 410.988 497.036 409.152C497.036 407.064 495.596 405.948 493.364 405.948H489.314V417H490.736V412.32ZM490.736 411.114V407.19H493.328C494.786 407.19 495.632 407.928 495.632 409.152C495.632 410.376 494.786 411.114 493.328 411.114H490.736ZM499.806 413.238H505.314V412.752C505.314 410.412 504.198 408.846 502.038 408.846C499.914 408.846 498.474 410.592 498.474 413.076C498.474 415.596 500.022 417.162 502.326 417.162C503.28 417.162 504.108 416.964 504.756 416.46V415.218C504.036 415.758 503.388 415.974 502.488 415.974C501.03 415.974 499.86 415.092 499.806 413.238ZM502.056 409.998C503.352 409.998 503.946 411.006 504 412.176H499.878C500.13 410.7 500.994 409.998 502.056 409.998ZM506.756 414.93V416.37C507.35 416.838 508.34 417.162 509.384 417.162C511.058 417.162 512.372 416.316 512.372 414.84C512.372 413.706 511.706 413.004 510.5 412.59L509.276 412.176C508.52 411.906 508.088 411.69 508.088 411.042C508.088 410.358 508.772 409.998 509.6 409.998C510.572 409.998 511.31 410.394 511.976 410.952V409.548C511.328 409.098 510.5 408.846 509.6 408.846C508.016 408.846 506.774 409.692 506.774 411.096C506.774 412.392 507.584 412.968 508.79 413.364L509.888 413.742C510.59 413.976 511.04 414.3 511.04 414.894C511.04 415.686 510.266 416.01 509.384 416.01C508.412 416.01 507.494 415.614 506.756 414.93ZM515.046 413.238H520.554V412.752C520.554 410.412 519.438 408.846 517.278 408.846C515.154 408.846 513.714 410.592 513.714 413.076C513.714 415.596 515.262 417.162 517.566 417.162C518.52 417.162 519.348 416.964 519.996 416.46V415.218C519.276 415.758 518.628 415.974 517.728 415.974C516.27 415.974 515.1 415.092 515.046 413.238ZM517.296 409.998C518.592 409.998 519.186 411.006 519.24 412.176H515.118C515.37 410.7 516.234 409.998 517.296 409.998ZM524.538 417V410.16H526.392V409.008H524.538V406.902H523.188V409.008H521.514V410.16H523.188V417H524.538ZM536.005 406.542V405.318C535.699 405.192 535.393 405.138 534.961 405.138C533.557 405.138 532.513 406.074 532.513 407.676V409.008H531.163V410.16H532.513V417H533.845V410.16H535.645V409.008H533.845V407.784C533.845 406.83 534.367 406.326 535.159 406.326C535.447 406.326 535.753 406.38 536.005 406.542ZM541.482 411.69V412.734C541.14 412.428 540.312 412.086 539.484 412.086C537.774 412.086 536.442 413.094 536.442 414.588C536.442 416.172 537.774 417.144 539.412 417.144C540.348 417.144 541.176 416.73 541.482 416.406V417H542.796V411.582C542.796 409.89 541.68 408.846 539.79 408.846C538.8 408.846 537.846 409.134 537.306 409.512V410.79C537.972 410.358 538.692 410.088 539.574 410.088C540.744 410.088 541.482 410.7 541.482 411.69ZM541.482 414.192V415.02C541.266 415.614 540.474 416.01 539.628 416.01C538.656 416.01 537.72 415.56 537.72 414.588C537.72 413.634 538.656 413.202 539.628 413.202C540.474 413.202 541.266 413.598 541.482 414.192ZM546.652 406.596C546.652 406.11 546.256 405.732 545.77 405.732C545.302 405.732 544.906 406.11 544.906 406.596C544.906 407.064 545.302 407.46 545.77 407.46C546.256 407.46 546.652 407.064 546.652 406.596ZM546.454 417V409.008H545.104V417H546.454ZM550.216 417V405.3H548.866V417H550.216ZM553.384 413.238H558.892V412.752C558.892 410.412 557.776 408.846 555.616 408.846C553.492 408.846 552.052 410.592 552.052 413.076C552.052 415.596 553.6 417.162 555.904 417.162C556.858 417.162 557.686 416.964 558.334 416.46V415.218C557.614 415.758 556.966 415.974 556.066 415.974C554.608 415.974 553.438 415.092 553.384 413.238ZM555.634 409.998C556.93 409.998 557.524 411.006 557.578 412.176H553.456C553.708 410.7 554.572 409.998 555.634 409.998ZM566.005 416.064V417H567.373V405.3H566.005V409.944C565.609 409.368 564.745 408.846 563.755 408.846C561.415 408.846 560.155 410.754 560.155 413.004C560.155 415.272 561.415 417.162 563.755 417.162C564.745 417.162 565.609 416.64 566.005 416.064ZM566.005 411.384V414.624C565.591 415.452 564.799 415.938 563.953 415.938C562.423 415.938 561.523 414.696 561.523 413.004C561.523 411.312 562.423 410.07 563.953 410.07C564.799 410.07 565.591 410.556 566.005 411.384Z" fill="#444444"/>
<rect x="664" y="286" width="188" height="36" fill="white"/>
<path d="M678.736 304.32H680.698L683.866 309H685.486L682.21 304.266C683.956 304.014 685.036 302.988 685.036 301.152C685.036 299.064 683.596 297.948 681.364 297.948H677.314V309H678.736V304.32ZM678.736 303.114V299.19H681.328C682.786 299.19 683.632 299.928 683.632 301.152C683.632 302.376 682.786 303.114 681.328 303.114H678.736ZM686.705 306.606V308.136C687.461 308.73 688.685 309.162 690.179 309.162C692.321 309.162 693.905 308.028 693.905 306.138C693.905 304.608 693.149 303.726 691.457 303.078L689.711 302.394C688.685 301.998 688.055 301.602 688.055 300.666C688.055 299.568 689.009 299.028 690.233 299.028C691.511 299.028 692.501 299.478 693.383 300.18V298.686C692.555 298.11 691.421 297.786 690.215 297.786C688.307 297.786 686.669 298.776 686.669 300.684C686.669 302.43 687.857 303.168 689.153 303.672L690.773 304.302C691.943 304.788 692.537 305.184 692.537 306.156C692.537 307.29 691.601 307.902 690.179 307.902C688.883 307.902 687.731 307.488 686.705 306.606ZM697.369 304.32H699.331L702.499 309H704.119L700.843 304.266C702.589 304.014 703.669 302.988 703.669 301.152C703.669 299.064 702.229 297.948 699.997 297.948H695.947V309H697.369V304.32ZM697.369 303.114V299.19H699.961C701.419 299.19 702.265 299.928 702.265 301.152C702.265 302.376 701.419 303.114 699.961 303.114H697.369ZM711.062 306.534H711.134L714.878 300.504V309H716.264V297.948H715.022L711.116 304.302L707.192 297.948H705.878V309H707.264V300.504L711.062 306.534ZM722.216 309H723.548L727.814 297.948H726.374L722.9 307.128L719.444 297.948H717.95L722.216 309ZM734.003 303.348L737.765 297.948H736.199L733.211 302.25L730.259 297.948H728.639L732.401 303.384L728.495 309H730.061L733.175 304.5L736.307 309H737.927L734.003 303.348ZM743.663 309.162C746.183 309.162 748.001 307.65 748.001 304.626V297.948H746.579V304.446C746.579 306.804 745.445 307.902 743.663 307.902C741.881 307.902 740.747 306.804 740.747 304.446V297.948H739.343V304.608C739.343 307.65 741.161 309.162 743.663 309.162ZM751.591 305.31L754.957 297.948H753.553L749.665 306.426V306.498H754.867V309H756.181V306.498H758.017V305.31H756.181V302.646H754.867V305.31H751.591Z" fill="#444444"/>
<rect x="664" y="322" width="188" height="36" fill="white"/>
<path d="M678.736 340.32H680.698L683.866 345H685.486L682.21 340.266C683.956 340.014 685.036 338.988 685.036 337.152C685.036 335.064 683.596 333.948 681.364 333.948H677.314V345H678.736V340.32ZM678.736 339.114V335.19H681.328C682.786 335.19 683.632 335.928 683.632 337.152C683.632 338.376 682.786 339.114 681.328 339.114H678.736ZM686.705 342.606V344.136C687.461 344.73 688.685 345.162 690.179 345.162C692.321 345.162 693.905 344.028 693.905 342.138C693.905 340.608 693.149 339.726 691.457 339.078L689.711 338.394C688.685 337.998 688.055 337.602 688.055 336.666C688.055 335.568 689.009 335.028 690.233 335.028C691.511 335.028 692.501 335.478 693.383 336.18V334.686C692.555 334.11 691.421 333.786 690.215 333.786C688.307 333.786 686.669 334.776 686.669 336.684C686.669 338.43 687.857 339.168 689.153 339.672L690.773 340.302C691.943 340.788 692.537 341.184 692.537 342.156C692.537 343.29 691.601 343.902 690.179 343.902C688.883 343.902 687.731 343.488 686.705 342.606ZM697.369 338.862V333.948H695.947V345H697.369V339.798L702.463 345H704.299L698.701 339.24L704.137 333.948H702.355L697.369 338.862ZM707.318 340.32H709.28L712.448 345H714.068L710.792 340.266C712.538 340.014 713.618 338.988 713.618 337.152C713.618 335.064 712.178 333.948 709.946 333.948H705.896V345H707.318V340.32ZM707.318 339.114V335.19H709.91C711.368 335.19 712.214 335.928 712.214 337.152C712.214 338.376 711.368 339.114 709.91 339.114H707.318ZM721.012 342.534H721.084L724.828 336.504V345H726.214V333.948H724.972L721.066 340.302L717.142 333.948H715.828V345H717.214V336.504L721.012 342.534ZM732.975 345.162C735.495 345.162 737.313 343.65 737.313 340.626V333.948H735.891V340.446C735.891 342.804 734.757 343.902 732.975 343.902C731.193 343.902 730.059 342.804 730.059 340.446V333.948H728.655V340.608C728.655 343.65 730.473 345.162 732.975 345.162ZM739.121 339.474C739.121 342.93 741.353 345.162 744.305 345.162C745.583 345.162 746.555 344.802 747.275 344.208V342.714C746.375 343.524 745.457 343.884 744.323 343.884C742.091 343.884 740.543 342.138 740.543 339.474C740.543 336.81 742.091 335.064 744.323 335.064C745.457 335.064 746.375 335.406 747.275 336.234V334.74C746.555 334.146 745.583 333.786 744.305 333.786C741.353 333.786 739.121 336.018 739.121 339.474ZM756.279 333.948L753.093 339.168L749.907 333.948H748.359L752.355 340.446V345H753.759V340.446L757.791 333.948H756.279Z" fill="#444444"/>
<rect x="664" y="358" width="188" height="36" fill="white"/>
<path d="M676.522 379.074V380.532C676.99 380.838 677.782 381.162 678.682 381.162C680.806 381.162 681.94 379.992 681.94 377.328V369.948H680.518V377.274C680.518 379.11 679.96 379.866 678.646 379.866C677.836 379.866 677.224 379.578 676.522 379.074ZM688.899 379.902C686.595 379.902 685.119 378.138 685.119 375.474C685.119 372.81 686.721 371.064 689.025 371.064C690.231 371.064 691.275 371.442 692.211 372.288V370.776C691.437 370.164 690.321 369.786 689.025 369.786C685.983 369.786 683.697 372.036 683.697 375.474C683.697 378.894 685.785 381.162 688.863 381.162C690.231 381.162 691.689 380.748 692.751 379.578V375.258H689.007V376.446H691.437V379.056C690.717 379.65 689.907 379.902 688.899 379.902ZM702.053 369.948H695.015V381H702.053V379.722H696.419V375.96H701.531V374.7H696.419V371.208H702.053V369.948ZM704.279 381H705.701V376.194H710.705V374.934H705.701V371.208H711.029V369.948H704.279V381ZM720.557 381V379.722H714.509L720.611 370.02V369.948H712.511V371.208H718.379L712.241 380.928V381H720.557ZM726.63 381.162C729.15 381.162 730.968 379.65 730.968 376.626V369.948H729.546V376.446C729.546 378.804 728.412 379.902 726.63 379.902C724.848 379.902 723.714 378.804 723.714 376.446V369.948H722.31V376.608C722.31 379.65 724.128 381.162 726.63 381.162ZM737.841 369.948H736.509L732.189 381H733.629L734.889 377.67H739.443L740.721 381H742.161L737.841 369.948ZM735.357 376.428L737.157 371.712L738.957 376.428H735.357ZM751.389 381V379.722H745.341L751.443 370.02V369.948H743.343V371.208H749.211L743.073 380.928V381H751.389Z" fill="#444444"/>
<rect x="664" y="394" width="188" height="36" fill="white"/>
<path d="M686.404 405.948H684.982V410.682H678.736V405.948H677.314V417H678.736V411.96H684.982V417H686.404V405.948ZM692.405 405.786C690.263 405.786 688.661 407.406 688.661 409.548C688.661 411.672 690.191 413.292 692.315 413.292C692.747 413.292 693.233 413.148 693.521 412.968L691.199 417H692.657L695.177 412.608C695.897 411.348 696.149 410.448 696.149 409.548C696.149 407.406 694.565 405.786 692.405 405.786ZM689.957 409.548C689.957 408.108 691.001 407.01 692.405 407.01C693.809 407.01 694.853 408.108 694.853 409.548C694.853 410.97 693.809 412.086 692.405 412.086C691.001 412.086 689.957 410.97 689.957 409.548ZM702.944 415.902C700.64 415.902 699.164 414.138 699.164 411.474C699.164 408.81 700.766 407.064 703.07 407.064C704.276 407.064 705.32 407.442 706.256 408.288V406.776C705.482 406.164 704.366 405.786 703.07 405.786C700.028 405.786 697.742 408.036 697.742 411.474C697.742 414.894 699.83 417.162 702.908 417.162C704.276 417.162 705.734 416.748 706.796 415.578V411.258H703.052V412.446H705.482V415.056C704.762 415.65 703.952 415.902 702.944 415.902ZM708.268 415.074V416.532C708.736 416.838 709.528 417.162 710.428 417.162C712.552 417.162 713.686 415.992 713.686 413.328V405.948H712.264V413.274C712.264 415.11 711.706 415.866 710.392 415.866C709.582 415.866 708.97 415.578 708.268 415.074ZM715.317 405.948V407.208H719.169V417H720.591V407.208H724.443V405.948H715.317ZM733.846 417V415.722H727.798L733.9 406.02V405.948H725.8V407.208H731.668L725.53 416.928V417H733.846ZM744.922 405.948H743.5V410.682H737.254V405.948H735.832V417H737.254V411.96H743.5V417H744.922V405.948ZM748.69 413.31L752.056 405.948H750.652L746.764 414.426V414.498H751.966V417H753.28V414.498H755.116V413.31H753.28V410.646H751.966V413.31H748.69Z" fill="#444444"/>
<rect x="852" y="286" width="188" height="36" fill="white"/>
<path d="M874.656 303.474C874.656 300.126 872.568 297.786 869.652 297.786C866.754 297.786 864.666 300.126 864.666 303.474C864.666 306.804 866.754 309.162 869.652 309.162C872.568 309.162 874.656 306.804 874.656 303.474ZM873.234 303.474C873.234 306.066 871.794 307.884 869.652 307.884C867.528 307.884 866.088 306.066 866.088 303.474C866.088 300.882 867.528 299.064 869.652 299.064C871.794 299.064 873.234 300.882 873.234 303.474ZM876.526 301.008V309H877.876V303.582C878.164 302.718 878.974 302.088 879.91 302.088C881.116 302.088 881.674 302.862 881.674 303.978V309H883.042V303.762C883.042 302.016 882.052 300.846 880.234 300.846C879.208 300.846 878.344 301.386 877.876 302.016V301.008H876.526Z" fill="#444444"/>
<rect x="852" y="322" width="188" height="36" fill="white"/>
<path d="M874.656 339.474C874.656 336.126 872.568 333.786 869.652 333.786C866.754 333.786 864.666 336.126 864.666 339.474C864.666 342.804 866.754 345.162 869.652 345.162C872.568 345.162 874.656 342.804 874.656 339.474ZM873.234 339.474C873.234 342.066 871.794 343.884 869.652 343.884C867.528 343.884 866.088 342.066 866.088 339.474C866.088 336.882 867.528 335.064 869.652 335.064C871.794 335.064 873.234 336.882 873.234 339.474ZM876.526 337.008V345H877.876V339.582C878.164 338.718 878.974 338.088 879.91 338.088C881.116 338.088 881.674 338.862 881.674 339.978V345H883.042V339.762C883.042 338.016 882.052 336.846 880.234 336.846C879.208 336.846 878.344 337.386 877.876 338.016V337.008H876.526Z" fill="#444444"/>
<rect x="44" y="162" width="384" height="36" rx="4" fill="white" stroke="#999999"/>
<path d="M92.738 182.606V184.136C93.494 184.73 94.718 185.162 96.212 185.162C98.354 185.162 99.938 184.028 99.938 182.138C99.938 180.608 99.182 179.726 97.49 179.078L95.744 178.394C94.718 177.998 94.088 177.602 94.088 176.666C94.088 175.568 95.042 175.028 96.266 175.028C97.544 175.028 98.534 175.478 99.416 176.18V174.686C98.588 174.11 97.454 173.786 96.248 173.786C94.34 173.786 92.702 174.776 92.702 176.684C92.702 178.43 93.89 179.168 95.186 179.672L96.806 180.302C97.976 180.788 98.57 181.184 98.57 182.156C98.57 183.29 97.634 183.902 96.212 183.902C94.916 183.902 93.764 183.488 92.738 182.606ZM102.716 181.238H108.224V180.752C108.224 178.412 107.108 176.846 104.948 176.846C102.824 176.846 101.384 178.592 101.384 181.076C101.384 183.596 102.932 185.162 105.236 185.162C106.19 185.162 107.018 184.964 107.666 184.46V183.218C106.946 183.758 106.298 183.974 105.398 183.974C103.94 183.974 102.77 183.092 102.716 181.238ZM104.966 177.998C106.262 177.998 106.856 179.006 106.91 180.176H102.788C103.04 178.7 103.904 177.998 104.966 177.998ZM114.509 179.69V180.734C114.167 180.428 113.339 180.086 112.511 180.086C110.801 180.086 109.469 181.094 109.469 182.588C109.469 184.172 110.801 185.144 112.439 185.144C113.375 185.144 114.203 184.73 114.509 184.406V185H115.823V179.582C115.823 177.89 114.707 176.846 112.817 176.846C111.827 176.846 110.873 177.134 110.333 177.512V178.79C110.999 178.358 111.719 178.088 112.601 178.088C113.771 178.088 114.509 178.7 114.509 179.69ZM114.509 182.192V183.02C114.293 183.614 113.501 184.01 112.655 184.01C111.683 184.01 110.747 183.56 110.747 182.588C110.747 181.634 111.683 181.202 112.655 181.202C113.501 181.202 114.293 181.598 114.509 182.192ZM122.236 178.358V176.972C122.092 176.9 121.804 176.846 121.462 176.846C120.58 176.846 119.824 177.368 119.482 178.052V177.008H118.132V185H119.482V179.636C119.752 178.7 120.49 178.142 121.336 178.142C121.678 178.142 122.02 178.214 122.236 178.358ZM123.11 181.004C123.11 183.56 124.802 185.162 126.962 185.162C127.736 185.162 128.546 184.982 129.104 184.496V183.128C128.528 183.704 127.826 183.956 127.052 183.956C125.63 183.956 124.478 182.84 124.478 181.004C124.478 179.168 125.63 178.052 127.052 178.052C127.826 178.052 128.528 178.304 129.104 178.88V177.512C128.546 177.026 127.736 176.846 126.962 176.846C124.802 176.846 123.11 178.448 123.11 181.004ZM130.981 173.3V185H132.331V179.582C132.619 178.718 133.429 178.088 134.365 178.088C135.571 178.088 136.129 178.862 136.129 179.978V185H137.497V179.762C137.497 178.016 136.507 176.846 134.689 176.846C133.663 176.846 132.799 177.386 132.331 178.016V173.3H130.981ZM145.993 185V178.16H147.847V177.008H145.993V174.902H144.643V177.008H142.969V178.16H144.643V185H145.993ZM149.491 173.3V185H150.841V179.582C151.129 178.718 151.939 178.088 152.875 178.088C154.081 178.088 154.639 178.862 154.639 179.978V185H156.007V179.762C156.007 178.016 155.017 176.846 153.199 176.846C152.173 176.846 151.309 177.386 150.841 178.016V173.3H149.491ZM159.054 181.238H164.562V180.752C164.562 178.412 163.446 176.846 161.286 176.846C159.162 176.846 157.722 178.592 157.722 181.076C157.722 183.596 159.27 185.162 161.574 185.162C162.528 185.162 163.356 184.964 164.004 184.46V183.218C163.284 183.758 162.636 183.974 161.736 183.974C160.278 183.974 159.108 183.092 159.054 181.238ZM161.304 177.998C162.6 177.998 163.194 179.006 163.248 180.176H159.126C159.378 178.7 160.242 177.998 161.304 177.998ZM170.482 173.948V185H174.028C177.268 185 179.392 182.84 179.392 179.474C179.392 176.108 177.268 173.948 174.028 173.948H170.482ZM174.01 183.722H171.904V175.208H174.01C176.512 175.208 177.988 176.882 177.988 179.474C177.988 182.066 176.512 183.722 174.01 183.722ZM185.666 179.69V180.734C185.324 180.428 184.496 180.086 183.668 180.086C181.958 180.086 180.626 181.094 180.626 182.588C180.626 184.172 181.958 185.144 183.596 185.144C184.532 185.144 185.36 184.73 185.666 184.406V185H186.98V179.582C186.98 177.89 185.864 176.846 183.974 176.846C182.984 176.846 182.03 177.134 181.49 177.512V178.79C182.156 178.358 182.876 178.088 183.758 178.088C184.928 178.088 185.666 178.7 185.666 179.69ZM185.666 182.192V183.02C185.45 183.614 184.658 184.01 183.812 184.01C182.84 184.01 181.904 183.56 181.904 182.588C181.904 181.634 182.84 181.202 183.812 181.202C184.658 181.202 185.45 181.598 185.666 182.192ZM191.467 185V178.16H193.321V177.008H191.467V174.902H190.117V177.008H188.443V178.16H190.117V185H191.467ZM199.236 179.69V180.734C198.894 180.428 198.066 180.086 197.238 180.086C195.528 180.086 194.196 181.094 194.196 182.588C194.196 184.172 195.528 185.144 197.166 185.144C198.102 185.144 198.93 184.73 199.236 184.406V185H200.55V179.582C200.55 177.89 199.434 176.846 197.544 176.846C196.554 176.846 195.6 177.134 195.06 177.512V178.79C195.726 178.358 196.446 178.088 197.328 178.088C198.498 178.088 199.236 178.7 199.236 179.69ZM199.236 182.192V183.02C199.02 183.614 198.228 184.01 197.382 184.01C196.41 184.01 195.474 183.56 195.474 182.588C195.474 181.634 196.41 181.202 197.382 181.202C198.228 181.202 199.02 181.598 199.236 182.192ZM202.192 173.948V175.208H206.044V185H207.466V175.208H211.318V173.948H202.192ZM216.164 179.69V180.734C215.822 180.428 214.994 180.086 214.166 180.086C212.456 180.086 211.124 181.094 211.124 182.588C211.124 184.172 212.456 185.144 214.094 185.144C215.03 185.144 215.858 184.73 216.164 184.406V185H217.478V179.582C217.478 177.89 216.362 176.846 214.472 176.846C213.482 176.846 212.528 177.134 211.988 177.512V178.79C212.654 178.358 213.374 178.088 214.256 178.088C215.426 178.088 216.164 178.7 216.164 179.69ZM216.164 182.192V183.02C215.948 183.614 215.156 184.01 214.31 184.01C213.338 184.01 212.402 183.56 212.402 182.588C212.402 181.634 213.338 181.202 214.31 181.202C215.156 181.202 215.948 181.598 216.164 182.192ZM221.136 185V184.064C221.532 184.64 222.396 185.162 223.386 185.162C225.726 185.162 226.986 183.272 226.986 181.004C226.986 178.754 225.726 176.846 223.386 176.846C222.396 176.846 221.532 177.368 221.136 177.944V173.3H219.768V185H221.136ZM221.136 182.624V179.384C221.55 178.556 222.342 178.07 223.188 178.07C224.718 178.07 225.618 179.312 225.618 181.004C225.618 182.696 224.718 183.938 223.188 183.938C222.342 183.938 221.55 183.452 221.136 182.624ZM230.171 185V173.3H228.821V185H230.171ZM233.339 181.238H238.847V180.752C238.847 178.412 237.731 176.846 235.571 176.846C233.447 176.846 232.007 178.592 232.007 181.076C232.007 183.596 233.555 185.162 235.859 185.162C236.813 185.162 237.641 184.964 238.289 184.46V183.218C237.569 183.758 236.921 183.974 236.021 183.974C234.563 183.974 233.393 183.092 233.339 181.238ZM235.589 177.998C236.885 177.998 237.479 179.006 237.533 180.176H233.411C233.663 178.7 234.527 177.998 235.589 177.998Z" fill="#BBBBBB"/>
<path fill-rule="evenodd" clip-rule="evenodd" d="M66 171C62.134 171 59 174.134 59 178C59 181.866 62.134 185 66 185C67.5723 185 69.0236 184.482 70.1922 183.606L75.2929 188.707L76.7071 187.293L71.6064 182.192C72.4816 181.024 73 179.572 73 178C73 174.134 69.866 171 66 171ZM61 178C61 175.239 63.2386 173 66 173C68.7614 173 71 175.239 71 178C71 180.761 68.7614 183 66 183C63.2386 183 61 180.761 61 178Z" fill="black"/>
<path d="M43.656 105.896V128H52.008C58.956 128 63.168 123.68 63.168 116.948C63.168 110.216 58.956 105.896 52.008 105.896H43.656ZM51.72 122.996H49.344V110.864H51.72C55.392 110.864 57.444 113.204 57.444 116.948C57.444 120.656 55.392 122.996 51.72 122.996ZM74.1657 118.244V118.82C73.5177 118.352 72.0057 117.92 70.6377 117.92C67.1457 117.92 64.4097 119.936 64.4097 123.068C64.4097 126.488 67.1457 128.288 70.3497 128.288C72.0777 128.288 73.6257 127.712 74.1657 127.172V128H79.6017V117.992C79.6017 113.708 76.8657 111.44 72.0777 111.44C69.7737 111.44 67.6137 111.98 66.2817 112.7V117.236C67.5777 116.48 69.1617 116.084 70.7097 116.084C73.0137 116.084 74.1657 116.984 74.1657 118.244ZM74.1657 122.528V123.464C73.8057 124.112 72.9057 124.544 71.8977 124.544C70.7817 124.544 69.6657 124.076 69.6657 122.96C69.6657 121.88 70.7817 121.412 71.8977 121.412C72.9057 121.412 73.8057 121.844 74.1657 122.528ZM89.918 128V116.192H93.086V111.8H89.918V107.336H84.302V111.8H81.494V116.192H84.302V128H89.918ZM103.627 118.244V118.82C102.979 118.352 101.467 117.92 100.099 117.92C96.6067 117.92 93.8707 119.936 93.8707 123.068C93.8707 126.488 96.6067 128.288 99.8107 128.288C101.539 128.288 103.087 127.712 103.627 127.172V128H109.063V117.992C109.063 113.708 106.327 111.44 101.539 111.44C99.2347 111.44 97.0747 111.98 95.7427 112.7V117.236C97.0387 116.48 98.6227 116.084 100.171 116.084C102.475 116.084 103.627 116.984 103.627 118.244ZM103.627 122.528V123.464C103.267 124.112 102.367 124.544 101.359 124.544C100.243 124.544 99.1267 124.076 99.1267 122.96C99.1267 121.88 100.243 121.412 101.359 121.412C102.367 121.412 103.267 121.844 103.627 122.528ZM111.169 105.896V110.864H117.973V128H123.769V110.864H130.609V105.896H111.169ZM139.697 118.244V118.82C139.049 118.352 137.537 117.92 136.169 117.92C132.677 117.92 129.941 119.936 129.941 123.068C129.941 126.488 132.677 128.288 135.881 128.288C137.609 128.288 139.157 127.712 139.697 127.172V128H145.133V117.992C145.133 113.708 142.397 111.44 137.609 111.44C135.305 111.44 133.145 111.98 131.813 112.7V117.236C133.109 116.48 134.693 116.084 136.241 116.084C138.545 116.084 139.697 116.984 139.697 118.244ZM139.697 122.528V123.464C139.337 124.112 138.437 124.544 137.429 124.544C136.313 124.544 135.197 124.076 135.197 122.96C135.197 121.88 136.313 121.412 137.429 121.412C138.437 121.412 139.337 121.844 139.697 122.528ZM153.684 128V126.704C154.44 127.568 156.024 128.36 157.68 128.36C162.36 128.36 164.916 124.58 164.916 119.9C164.916 115.22 162.36 111.44 157.68 111.44C156.024 111.44 154.44 112.232 153.684 113.096V104.6H148.032V128H153.684ZM153.684 122.024V117.74C154.116 116.876 155.088 116.228 156.168 116.228C158.112 116.228 159.264 117.812 159.264 119.9C159.264 121.988 158.112 123.536 156.168 123.536C155.052 123.536 154.116 122.924 153.684 122.024ZM172.738 128V104.6H167.086V128H172.738ZM180.413 121.196H190.385V119.54C190.385 114.716 187.829 111.44 182.789 111.44C178.325 111.44 174.941 114.932 174.941 120.008C174.941 125.228 178.469 128.36 183.653 128.36C185.993 128.36 187.973 127.856 189.233 126.92V122.636C187.613 123.608 186.281 123.932 184.553 123.932C182.465 123.932 180.881 123.14 180.413 121.196ZM183.005 115.724C184.373 115.724 185.201 116.66 185.345 118.028H180.485C180.881 116.552 181.781 115.724 183.005 115.724Z" fill="black"/>
<path d="M47.296 216.192L49.472 210.176H47.136L44.144 218.208V218.272H48.736V220H50.912V218.272H52.016V216.192H50.912V214.368H48.736V216.192H47.296ZM57.9476 220V210.176H56.6836V220H57.9476ZM62.1654 220V213.92H63.8134V212.896H62.1654V211.024H60.9654V212.896H59.4774V213.92H60.9654V220H62.1654ZM65.8221 216.656H70.7181V216.224C70.7181 214.144 69.7261 212.752 67.8061 212.752C65.9181 212.752 64.6381 214.304 64.6381 216.512C64.6381 218.752 66.0141 220.144 68.0621 220.144C68.9101 220.144 69.6461 219.968 70.2221 219.52V218.416C69.5821 218.896 69.0061 219.088 68.2061 219.088C66.9101 219.088 65.8701 218.304 65.8221 216.656ZM67.8221 213.776C68.9741 213.776 69.5021 214.672 69.5501 215.712H65.8861C66.1101 214.4 66.8781 213.776 67.8221 213.776ZM77.3933 213.888C77.0573 213.216 76.3693 212.752 75.4733 212.752C74.5933 212.752 73.9053 213.168 73.5533 213.728V212.896H72.3533V220H73.5533V215.104C73.7773 214.336 74.4013 213.84 75.1213 213.84C76.0333 213.84 76.4653 214.496 76.4653 215.488V220H77.6653V215.104C77.8893 214.336 78.5133 213.84 79.2333 213.84C80.1453 213.84 80.5773 214.496 80.5773 215.488V220H81.7933V215.296C81.7933 213.76 80.9933 212.752 79.5533 212.752C78.5613 212.752 77.8413 213.248 77.3933 213.888ZM83.406 218.16V219.44C83.934 219.856 84.814 220.144 85.742 220.144C87.23 220.144 88.398 219.392 88.398 218.08C88.398 217.072 87.806 216.448 86.734 216.08L85.646 215.712C84.974 215.472 84.59 215.28 84.59 214.704C84.59 214.096 85.198 213.776 85.934 213.776C86.798 213.776 87.454 214.128 88.046 214.624V213.376C87.47 212.976 86.734 212.752 85.934 212.752C84.526 212.752 83.422 213.504 83.422 214.752C83.422 215.904 84.142 216.416 85.214 216.768L86.19 217.104C86.814 217.312 87.214 217.6 87.214 218.128C87.214 218.832 86.526 219.12 85.742 219.12C84.878 219.12 84.062 218.768 83.406 218.16Z" fill="#444444"/>
</g>
<defs>
<clipPath id="clip0_7795:147869">
<rect width="950" height="525" fill="white"/>
</clipPath>
<clipPath id="clip1_7795:147869">
<rect width="198" height="144" fill="white" transform="translate(278 286)"/>
</clipPath>
</defs>
</svg>
