<svg width="1078" height="954" viewBox="0 0 1078 954" fill="none" xmlns="http://www.w3.org/2000/svg">
<rect width="1078" height="414" fill="white"/>
<rect x="42" y="194" width="810" height="36" rx="12" fill="white"/>
<rect width="48" height="36" transform="translate(42 194)" fill="white"/>
<rect x="54" y="200" width="24" height="24" rx="2" fill="white" stroke="#999999"/>
<path d="M42 229.5H90" stroke="#999999"/>
<rect x="90" y="194" width="188" height="36" fill="white"/>
<path d="M278 229.5L90 229.5" stroke="#999999"/>
<path d="M112.584 217V205.948H109.794V212.032L105.528 205.948H102.828V217H105.618V210.538L110.244 217H112.584ZM118.61 212.122V212.41C118.286 212.176 117.53 211.96 116.846 211.96C115.1 211.96 113.732 212.968 113.732 214.534C113.732 216.244 115.1 217.144 116.702 217.144C117.566 217.144 118.34 216.856 118.61 216.586V217H121.328V211.996C121.328 209.854 119.96 208.72 117.566 208.72C116.414 208.72 115.334 208.99 114.668 209.35V211.618C115.316 211.24 116.108 211.042 116.882 211.042C118.034 211.042 118.61 211.492 118.61 212.122ZM118.61 214.264V214.732C118.43 215.056 117.98 215.272 117.476 215.272C116.918 215.272 116.36 215.038 116.36 214.48C116.36 213.94 116.918 213.706 117.476 213.706C117.98 213.706 118.43 213.922 118.61 214.264ZM129.923 209.692C129.437 209.116 128.717 208.72 127.691 208.72C126.791 208.72 126.017 209.062 125.603 209.566V208.9H122.777V217H125.603V212.068C125.729 211.51 126.161 211.204 126.647 211.204C127.277 211.204 127.565 211.69 127.565 212.374V217H130.373V212.068C130.517 211.51 130.931 211.204 131.417 211.204C132.047 211.204 132.335 211.69 132.335 212.374V217H135.161V211.69C135.161 209.872 134.117 208.72 132.425 208.72C131.237 208.72 130.409 209.188 129.923 209.692ZM138.915 213.598H143.901V212.77C143.901 210.358 142.623 208.72 140.103 208.72C137.871 208.72 136.179 210.466 136.179 213.004C136.179 215.614 137.943 217.18 140.535 217.18C141.705 217.18 142.695 216.928 143.325 216.46V214.318C142.515 214.804 141.849 214.966 140.985 214.966C139.941 214.966 139.149 214.57 138.915 213.598ZM140.211 210.862C140.895 210.862 141.309 211.33 141.381 212.014H138.951C139.149 211.276 139.599 210.862 140.211 210.862Z" fill="black"/>
<rect x="278" y="194" width="198" height="36" fill="white"/>
<path d="M476 229.5L278 229.5" stroke="#999999"/>
<path d="M290.576 213.616V216.28C291.386 216.766 292.718 217.18 294.194 217.18C296.678 217.18 298.712 216.118 298.712 213.724C298.712 212.032 297.794 210.97 295.778 210.34L294.104 209.836C293.528 209.656 293.186 209.458 293.186 208.954C293.186 208.396 293.816 208.162 294.644 208.162C295.904 208.162 297.002 208.576 297.992 209.26V206.596C297.074 206.092 296.012 205.768 294.518 205.768C292.196 205.768 290.342 206.974 290.342 209.17C290.342 211.006 291.368 211.924 293.222 212.464L294.896 212.95C295.49 213.166 295.832 213.346 295.832 213.886C295.832 214.57 295.04 214.768 294.122 214.768C292.88 214.768 291.53 214.264 290.576 213.616ZM303.535 217V211.096H305.119V208.9H303.535V206.668H300.727V208.9H299.323V211.096H300.727V217H303.535ZM310.39 212.122V212.41C310.066 212.176 309.31 211.96 308.626 211.96C306.88 211.96 305.512 212.968 305.512 214.534C305.512 216.244 306.88 217.144 308.482 217.144C309.346 217.144 310.12 216.856 310.39 216.586V217H313.108V211.996C313.108 209.854 311.74 208.72 309.346 208.72C308.194 208.72 307.114 208.99 306.448 209.35V211.618C307.096 211.24 307.888 211.042 308.662 211.042C309.813 211.042 310.39 211.492 310.39 212.122ZM310.39 214.264V214.732C310.21 215.056 309.76 215.272 309.256 215.272C308.698 215.272 308.14 215.038 308.14 214.48C308.14 213.94 308.698 213.706 309.256 213.706C309.76 213.706 310.21 213.922 310.39 214.264ZM318.266 217V211.096H319.85V208.9H318.266V206.668H315.458V208.9H314.054V211.096H315.458V217H318.266ZM328.679 217V208.9H325.853V213.814C325.709 214.372 325.223 214.714 324.701 214.714C323.981 214.714 323.657 214.228 323.657 213.544V208.9H320.849V214.21C320.849 216.01 321.911 217.18 323.693 217.18C324.611 217.18 325.421 216.802 325.853 216.298V217H328.679ZM329.896 214.03V216.406C330.652 216.91 331.84 217.18 332.974 217.18C334.972 217.18 336.466 216.334 336.466 214.606C336.466 213.238 335.764 212.518 334 212.05L333.262 211.834C332.866 211.726 332.632 211.618 332.632 211.312C332.632 210.988 332.956 210.826 333.442 210.826C334.36 210.826 335.224 211.204 335.998 211.762V209.44C335.206 208.954 334.324 208.72 333.172 208.72C331.264 208.72 329.86 209.674 329.86 211.366C329.86 212.824 330.814 213.526 332.308 213.85L332.938 214.012C333.424 214.12 333.676 214.246 333.676 214.57C333.676 214.93 333.316 215.056 332.758 215.056C331.93 215.056 330.67 214.66 329.896 214.03Z" fill="black"/>
<rect x="476" y="194" width="188" height="36" fill="white"/>
<path d="M664 229.5L476 229.5" stroke="#999999"/>
<path d="M488.576 213.616V216.28C489.386 216.766 490.718 217.18 492.194 217.18C494.678 217.18 496.712 216.118 496.712 213.724C496.712 212.032 495.794 210.97 493.778 210.34L492.104 209.836C491.528 209.656 491.186 209.458 491.186 208.954C491.186 208.396 491.816 208.162 492.644 208.162C493.904 208.162 495.002 208.576 495.992 209.26V206.596C495.074 206.092 494.012 205.768 492.518 205.768C490.196 205.768 488.342 206.974 488.342 209.17C488.342 211.006 489.368 211.924 491.222 212.464L492.896 212.95C493.49 213.166 493.832 213.346 493.832 213.886C493.832 214.57 493.04 214.768 492.122 214.768C490.88 214.768 489.53 214.264 488.576 213.616ZM500.271 213.598H505.257V212.77C505.257 210.358 503.979 208.72 501.459 208.72C499.227 208.72 497.535 210.466 497.535 213.004C497.535 215.614 499.299 217.18 501.891 217.18C503.061 217.18 504.051 216.928 504.681 216.46V214.318C503.871 214.804 503.205 214.966 502.341 214.966C501.297 214.966 500.505 214.57 500.271 213.598ZM501.567 210.862C502.251 210.862 502.665 211.33 502.737 212.014H500.307C500.505 211.276 500.955 210.862 501.567 210.862ZM511.823 211.582V208.864C511.697 208.792 511.409 208.72 511.049 208.72C510.239 208.72 509.609 209.08 509.213 209.62V208.9H506.387V217H509.213V212.248C509.357 211.672 509.879 211.33 510.653 211.33C511.103 211.33 511.481 211.402 511.823 211.582ZM515.985 206.704C515.985 205.768 515.247 205.174 514.383 205.174C513.519 205.174 512.781 205.768 512.781 206.704C512.781 207.622 513.519 208.216 514.383 208.216C515.247 208.216 515.985 207.622 515.985 206.704ZM515.787 217V208.9H512.961V217H515.787ZM521.766 212.122V212.41C521.442 212.176 520.686 211.96 520.002 211.96C518.256 211.96 516.888 212.968 516.888 214.534C516.888 216.244 518.256 217.144 519.858 217.144C520.722 217.144 521.496 216.856 521.766 216.586V217H524.484V211.996C524.484 209.854 523.116 208.72 520.722 208.72C519.57 208.72 518.49 208.99 517.824 209.35V211.618C518.472 211.24 519.264 211.042 520.038 211.042C521.19 211.042 521.766 211.492 521.766 212.122ZM521.766 214.264V214.732C521.586 215.056 521.136 215.272 520.632 215.272C520.074 215.272 519.516 215.038 519.516 214.48C519.516 213.94 520.074 213.706 520.632 213.706C521.136 213.706 521.586 213.922 521.766 214.264ZM528.76 217V205.3H525.934V217H528.76Z" fill="black"/>
<rect x="664" y="194" width="188" height="36" fill="white"/>
<path d="M852 229.5L664 229.5" stroke="#999999"/>
<path d="M679.69 213.562H681.67C684.064 213.562 685.684 212.212 685.684 209.764C685.684 207.298 684.064 205.948 681.67 205.948H676.828V217H679.69V213.562ZM682.876 209.764C682.876 210.592 682.408 211.15 681.364 211.15H679.69V208.378H681.364C682.408 208.378 682.876 208.918 682.876 209.764ZM694.395 212.95C694.395 210.448 692.721 208.72 690.255 208.72C687.807 208.72 686.115 210.448 686.115 212.95C686.115 215.452 687.807 217.18 690.255 217.18C692.721 217.18 694.395 215.452 694.395 212.95ZM691.623 212.95C691.623 214.066 691.137 214.84 690.255 214.84C689.391 214.84 688.905 214.066 688.905 212.95C688.905 211.834 689.391 211.042 690.255 211.042C691.137 211.042 691.623 211.834 691.623 212.95ZM702.952 213.292L701.746 208.9H699.946L698.722 213.292L697.444 208.9H694.636L697.246 217H699.64L700.792 212.896L701.944 217H704.338L706.948 208.9H704.248L702.952 213.292ZM709.91 213.598H714.896V212.77C714.896 210.358 713.618 208.72 711.098 208.72C708.866 208.72 707.174 210.466 707.174 213.004C707.174 215.614 708.938 217.18 711.53 217.18C712.7 217.18 713.69 216.928 714.32 216.46V214.318C713.51 214.804 712.844 214.966 711.98 214.966C710.936 214.966 710.144 214.57 709.91 213.598ZM711.206 210.862C711.89 210.862 712.304 211.33 712.376 212.014H709.946C710.144 211.276 710.594 210.862 711.206 210.862ZM721.462 211.582V208.864C721.336 208.792 721.048 208.72 720.688 208.72C719.878 208.72 719.248 209.08 718.852 209.62V208.9H716.026V217H718.852V212.248C718.996 211.672 719.518 211.33 720.292 211.33C720.742 211.33 721.12 211.402 721.462 211.582Z" fill="black"/>
<rect x="42" y="230" width="810" height="144" rx="12" fill="white"/>
<rect width="48" height="36" transform="translate(42 230)" fill="white"/>
<rect x="54" y="236" width="24" height="24" rx="2" fill="white" stroke="#999999"/>
<rect width="48" height="36" transform="translate(42 266)" fill="white"/>
<rect x="54" y="272" width="24" height="24" rx="2" fill="white" stroke="#999999"/>
<rect width="48" height="36" transform="translate(42 302)" fill="white"/>
<rect x="54" y="308" width="24" height="24" rx="2" fill="white" stroke="#999999"/>
<rect width="48" height="36" transform="translate(42 338)" fill="white"/>
<rect x="54" y="344" width="24" height="24" rx="2" fill="white" stroke="#999999"/>
<rect x="90" y="230" width="188" height="36" fill="white"/>
<path d="M112.89 241.948H109.992V246.142H105.726V241.948H102.828V253H105.726V248.626H109.992V253H112.89V241.948ZM117.397 249.562H119.377C121.771 249.562 123.391 248.212 123.391 245.764C123.391 243.298 121.771 241.948 119.377 241.948H114.535V253H117.397V249.562ZM120.583 245.764C120.583 246.592 120.115 247.15 119.071 247.15H117.397V244.378H119.071C120.115 244.378 120.583 244.918 120.583 245.764ZM132.527 241.948H124.625V253H132.527V250.498H127.469V248.59H132.095V246.16H127.469V244.432H132.527V241.948ZM133.491 253.756V255.898H139.629V253.756H133.491ZM140.562 249.616V252.28C141.372 252.766 142.704 253.18 144.18 253.18C146.664 253.18 148.698 252.118 148.698 249.724C148.698 248.032 147.78 246.97 145.764 246.34L144.09 245.836C143.514 245.656 143.172 245.458 143.172 244.954C143.172 244.396 143.802 244.162 144.63 244.162C145.89 244.162 146.988 244.576 147.978 245.26V242.596C147.06 242.092 145.998 241.768 144.504 241.768C142.182 241.768 140.328 242.974 140.328 245.17C140.328 247.006 141.354 247.924 143.208 248.464L144.882 248.95C145.476 249.166 145.818 249.346 145.818 249.886C145.818 250.57 145.026 250.768 144.108 250.768C142.866 250.768 141.516 250.264 140.562 249.616ZM155.194 250.606C153.52 250.606 152.386 249.382 152.386 247.51C152.386 245.602 153.628 244.432 155.392 244.432C156.742 244.432 157.75 244.828 158.596 245.44V242.632C157.786 242.11 156.616 241.768 155.392 241.768C151.882 241.768 149.488 244.036 149.488 247.51C149.488 250.84 151.648 253.18 155.104 253.18C156.634 253.18 158.056 252.73 159.172 251.704V246.826H155.014V249.13H156.616V250.21C156.256 250.48 155.77 250.606 155.194 250.606ZM163.523 253V241.948H160.625V253H163.523ZM169.048 253.18C171.37 253.18 173.224 251.974 173.224 249.94C173.224 248.644 172.432 247.726 171.442 247.384C172.324 246.952 172.882 246.07 172.882 244.99C172.882 242.902 171.082 241.768 169.048 241.768C167.014 241.768 165.214 242.902 165.214 244.99C165.214 246.07 165.754 246.952 166.654 247.384C165.646 247.726 164.854 248.644 164.854 249.94C164.854 251.974 166.726 253.18 169.048 253.18ZM169.048 246.196C168.346 246.196 167.788 245.746 167.788 245.08C167.788 244.378 168.346 243.928 169.048 243.928C169.75 243.928 170.308 244.378 170.308 245.08C170.308 245.746 169.75 246.196 169.048 246.196ZM169.048 250.948C168.238 250.948 167.626 250.462 167.626 249.724C167.626 248.968 168.238 248.5 169.048 248.5C169.858 248.5 170.47 248.968 170.47 249.724C170.47 250.462 169.858 250.948 169.048 250.948ZM178.381 253.18C180.811 253.18 182.593 251.434 182.593 249.076C182.593 247.042 181.171 245.404 179.011 245.242C178.921 245.242 178.813 245.26 178.741 245.278L180.631 241.948H177.553L175.231 245.962C174.457 247.276 174.187 248.14 174.187 249.076C174.187 251.434 175.969 253.18 178.381 253.18ZM179.983 249.076C179.983 249.994 179.317 250.678 178.381 250.678C177.499 250.678 176.797 249.994 176.797 249.076C176.797 248.176 177.499 247.456 178.381 247.456C179.317 247.456 179.983 248.176 179.983 249.076ZM187.733 253.18C190.451 253.18 192.053 250.84 192.053 247.474C192.053 244.108 190.451 241.768 187.733 241.768C185.015 241.768 183.413 244.108 183.413 247.474C183.413 250.84 185.015 253.18 187.733 253.18ZM187.733 244.306C188.885 244.306 189.245 245.764 189.245 247.474C189.245 249.184 188.885 250.642 187.733 250.642C186.563 250.642 186.221 249.184 186.221 247.474C186.221 245.764 186.563 244.306 187.733 244.306ZM197.084 253.18C199.802 253.18 201.404 250.84 201.404 247.474C201.404 244.108 199.802 241.768 197.084 241.768C194.366 241.768 192.764 244.108 192.764 247.474C192.764 250.84 194.366 253.18 197.084 253.18ZM197.084 244.306C198.236 244.306 198.596 245.764 198.596 247.474C198.596 249.184 198.236 250.642 197.084 250.642C195.914 250.642 195.572 249.184 195.572 247.474C195.572 245.764 195.914 244.306 197.084 244.306Z" fill="black"/>
<rect x="90" y="266" width="188" height="36" fill="white"/>
<path d="M112.89 277.948H109.992V282.142H105.726V277.948H102.828V289H105.726V284.626H109.992V289H112.89V277.948ZM117.397 285.562H119.377C121.771 285.562 123.391 284.212 123.391 281.764C123.391 279.298 121.771 277.948 119.377 277.948H114.535V289H117.397V285.562ZM120.583 281.764C120.583 282.592 120.115 283.15 119.071 283.15H117.397V280.378H119.071C120.115 280.378 120.583 280.918 120.583 281.764ZM132.527 277.948H124.625V289H132.527V286.498H127.469V284.59H132.095V282.16H127.469V280.432H132.527V277.948ZM133.491 289.756V291.898H139.629V289.756H133.491ZM147.276 277.948H144.324L140.112 289H142.974L143.748 286.858H147.762L148.554 289H151.488L147.276 277.948ZM144.63 284.482L145.764 281.368L146.898 284.482H144.63ZM155.313 285.562H157.293C159.687 285.562 161.307 284.212 161.307 281.764C161.307 279.298 159.687 277.948 157.293 277.948H152.451V289H155.313V285.562ZM158.499 281.764C158.499 282.592 158.031 283.15 156.987 283.15H155.313V280.378H156.987C158.031 280.378 158.499 280.918 158.499 281.764ZM172.909 283.474C172.909 280.162 170.695 277.768 167.491 277.768C164.305 277.768 162.109 280.162 162.109 283.474C162.109 286.768 164.305 289.18 167.491 289.18C170.695 289.18 172.909 286.768 172.909 283.474ZM169.993 283.474C169.993 285.382 168.985 286.642 167.491 286.642C165.997 286.642 165.025 285.382 165.025 283.474C165.025 281.566 165.997 280.306 167.491 280.306C168.985 280.306 169.993 281.566 169.993 283.474ZM174.107 277.948V289H181.955V286.498H177.005V277.948H174.107ZM183.283 277.948V289H191.131V286.498H186.181V277.948H183.283ZM202.44 283.474C202.44 280.162 200.226 277.768 197.022 277.768C193.836 277.768 191.64 280.162 191.64 283.474C191.64 286.768 193.836 289.18 197.022 289.18C200.226 289.18 202.44 286.768 202.44 283.474ZM199.524 283.474C199.524 285.382 198.516 286.642 197.022 286.642C195.528 286.642 194.556 285.382 194.556 283.474C194.556 281.566 195.528 280.306 197.022 280.306C198.516 280.306 199.524 281.566 199.524 283.474ZM207.491 289.18C209.921 289.18 211.703 287.434 211.703 285.076C211.703 283.042 210.281 281.404 208.121 281.242C208.031 281.242 207.923 281.26 207.851 281.278L209.741 277.948H206.663L204.341 281.962C203.567 283.276 203.297 284.14 203.297 285.076C203.297 287.434 205.079 289.18 207.491 289.18ZM209.093 285.076C209.093 285.994 208.427 286.678 207.491 286.678C206.609 286.678 205.907 285.994 205.907 285.076C205.907 284.176 206.609 283.456 207.491 283.456C208.427 283.456 209.093 284.176 209.093 285.076ZM216.59 281.746C216.248 281.746 215.87 281.782 215.654 281.836V280.432H220.118V277.948H213.404V284.482C214.106 284.212 215.096 284.05 215.978 284.05C217.166 284.05 218.066 284.518 218.066 285.472C218.066 286.408 217.13 286.84 216.086 286.84C214.934 286.84 213.8 286.336 213.026 285.652V288.262C213.818 288.784 214.898 289.18 216.32 289.18C218.858 289.18 220.748 287.722 220.748 285.436C220.748 283.132 218.948 281.746 216.59 281.746ZM226.194 289.18C228.912 289.18 230.514 286.84 230.514 283.474C230.514 280.108 228.912 277.768 226.194 277.768C223.476 277.768 221.874 280.108 221.874 283.474C221.874 286.84 223.476 289.18 226.194 289.18ZM226.194 280.306C227.346 280.306 227.706 281.764 227.706 283.474C227.706 285.184 227.346 286.642 226.194 286.642C225.024 286.642 224.682 285.184 224.682 283.474C224.682 281.764 225.024 280.306 226.194 280.306ZM235.545 289.18C238.263 289.18 239.865 286.84 239.865 283.474C239.865 280.108 238.263 277.768 235.545 277.768C232.827 277.768 231.225 280.108 231.225 283.474C231.225 286.84 232.827 289.18 235.545 289.18ZM235.545 280.306C236.697 280.306 237.057 281.764 237.057 283.474C237.057 285.184 236.697 286.642 235.545 286.642C234.375 286.642 234.033 285.184 234.033 283.474C234.033 281.764 234.375 280.306 235.545 280.306Z" fill="black"/>
<rect x="90" y="302" width="188" height="36" fill="white"/>
<path d="M112.584 325V313.948H109.794V320.032L105.528 313.948H102.828V325H105.618V318.538L110.244 325H112.584ZM122.012 320.95C122.012 318.448 120.338 316.72 117.872 316.72C115.424 316.72 113.732 318.448 113.732 320.95C113.732 323.452 115.424 325.18 117.872 325.18C120.338 325.18 122.012 323.452 122.012 320.95ZM119.24 320.95C119.24 322.066 118.754 322.84 117.872 322.84C117.008 322.84 116.522 322.066 116.522 320.95C116.522 319.834 117.008 319.042 117.872 319.042C118.754 319.042 119.24 319.834 119.24 320.95ZM126.785 325V319.096H128.369V316.9H126.785V314.668H123.977V316.9H122.573V319.096H123.977V325H126.785ZM132.72 322.03V324.406C133.476 324.91 134.664 325.18 135.798 325.18C137.796 325.18 139.29 324.334 139.29 322.606C139.29 321.238 138.588 320.518 136.824 320.05L136.086 319.834C135.69 319.726 135.456 319.618 135.456 319.312C135.456 318.988 135.78 318.826 136.266 318.826C137.184 318.826 138.048 319.204 138.822 319.762V317.44C138.03 316.954 137.148 316.72 135.996 316.72C134.088 316.72 132.684 317.674 132.684 319.366C132.684 320.824 133.638 321.526 135.132 321.85L135.762 322.012C136.248 322.12 136.5 322.246 136.5 322.57C136.5 322.93 136.14 323.056 135.582 323.056C134.754 323.056 133.494 322.66 132.72 322.03ZM142.765 321.598H147.751V320.77C147.751 318.358 146.473 316.72 143.953 316.72C141.721 316.72 140.029 318.466 140.029 321.004C140.029 323.614 141.793 325.18 144.385 325.18C145.555 325.18 146.545 324.928 147.175 324.46V322.318C146.365 322.804 145.699 322.966 144.835 322.966C143.791 322.966 142.999 322.57 142.765 321.598ZM144.061 318.862C144.745 318.862 145.159 319.33 145.231 320.014H142.801C142.999 319.276 143.449 318.862 144.061 318.862ZM152.59 325V319.096H154.174V316.9H152.59V314.668H149.782V316.9H148.378V319.096H149.782V325H152.59Z" fill="black"/>
<rect x="90" y="338" width="188" height="36" fill="white"/>
<path d="M112.89 349.948H109.992V354.142H105.726V349.948H102.828V361H105.726V356.626H109.992V361H112.89V349.948ZM117.397 357.562H119.377C121.771 357.562 123.391 356.212 123.391 353.764C123.391 351.298 121.771 349.948 119.377 349.948H114.535V361H117.397V357.562ZM120.583 353.764C120.583 354.592 120.115 355.15 119.071 355.15H117.397V352.378H119.071C120.115 352.378 120.583 352.918 120.583 353.764ZM132.527 349.948H124.625V361H132.527V358.498H127.469V356.59H132.095V354.16H127.469V352.432H132.527V349.948ZM133.491 361.756V363.898H139.629V361.756H133.491ZM140.562 357.616V360.28C141.372 360.766 142.704 361.18 144.18 361.18C146.664 361.18 148.698 360.118 148.698 357.724C148.698 356.032 147.78 354.97 145.764 354.34L144.09 353.836C143.514 353.656 143.172 353.458 143.172 352.954C143.172 352.396 143.802 352.162 144.63 352.162C145.89 352.162 146.988 352.576 147.978 353.26V350.596C147.06 350.092 145.998 349.768 144.504 349.768C142.182 349.768 140.328 350.974 140.328 353.17C140.328 355.006 141.354 355.924 143.208 356.464L144.882 356.95C145.476 357.166 145.818 357.346 145.818 357.886C145.818 358.57 145.026 358.768 144.108 358.768C142.866 358.768 141.516 358.264 140.562 357.616ZM154.583 361.18C157.499 361.18 159.389 359.524 159.389 356.5V349.948H156.509V356.23C156.509 357.796 155.771 358.606 154.583 358.606C153.377 358.606 152.639 357.796 152.639 356.23V349.948H149.759V356.482C149.759 359.524 151.667 361.18 154.583 361.18ZM163.786 357.562H165.766C168.16 357.562 169.78 356.212 169.78 353.764C169.78 351.298 168.16 349.948 165.766 349.948H160.924V361H163.786V357.562ZM166.972 353.764C166.972 354.592 166.504 355.15 165.46 355.15H163.786V352.378H165.46C166.504 352.378 166.972 352.918 166.972 353.764ZM178.916 349.948H171.014V361H178.916V358.498H173.858V356.59H178.484V354.16H173.858V352.432H178.916V349.948ZM183.21 357.346H184.218L186.522 361H189.726L187.134 357.04C188.484 356.536 189.33 355.384 189.33 353.71C189.33 351.298 187.692 349.948 185.316 349.948H180.348V361H183.21V357.346ZM183.21 355.042V352.378H185.01C186.036 352.378 186.504 352.9 186.504 353.71C186.504 354.52 186.036 355.042 185.01 355.042H183.21ZM190.683 349.948V361H194.859C198.333 361 200.439 358.84 200.439 355.474C200.439 352.108 198.333 349.948 194.859 349.948H190.683ZM194.715 358.498H193.527V352.432H194.715C196.551 352.432 197.577 353.602 197.577 355.474C197.577 357.328 196.551 358.498 194.715 358.498ZM212.108 355.474C212.108 352.162 209.894 349.768 206.69 349.768C203.504 349.768 201.308 352.162 201.308 355.474C201.308 358.768 203.504 361.18 206.69 361.18C209.894 361.18 212.108 358.768 212.108 355.474ZM209.192 355.474C209.192 357.382 208.184 358.642 206.69 358.642C205.196 358.642 204.224 357.382 204.224 355.474C204.224 353.566 205.196 352.306 206.69 352.306C208.184 352.306 209.192 353.566 209.192 355.474ZM218.977 358.624H219.049L221.875 354.664V361H224.719V349.948H222.055L219.013 354.448L215.989 349.948H213.307V361H216.133V354.664L218.977 358.624ZM234.269 349.948H226.367V361H234.269V358.498H229.211V356.59H233.837V354.16H229.211V352.432H234.269V349.948Z" fill="black"/>
<g clip-path="url(#clip0_7821:148041)">
<path d="M296 253C298.761 253 301 250.761 301 248C301 245.239 298.761 243 296 243C293.239 243 291 245.239 291 248C291 250.761 293.239 253 296 253Z" fill="#17EBA0" stroke="#17EBA0"/>
<rect x="302" y="230" width="176" height="36" fill="white"/>
<path d="M323.9 253V241.948H322.55V250.354L316.664 241.948H315.314V253H316.682V244.216L322.856 253H323.9ZM333.189 249.004C333.189 246.556 331.695 244.846 329.517 244.846C327.321 244.846 325.845 246.556 325.845 249.004C325.845 251.452 327.321 253.162 329.517 253.162C331.695 253.162 333.189 251.452 333.189 249.004ZM331.821 249.004C331.821 250.75 330.957 251.974 329.517 251.974C328.077 251.974 327.213 250.75 327.213 249.004C327.213 247.258 328.077 246.034 329.517 246.034C330.957 246.034 331.821 247.258 331.821 249.004ZM339.121 246.358V244.972C338.977 244.9 338.689 244.846 338.347 244.846C337.465 244.846 336.709 245.368 336.367 246.052V245.008H335.017V253H336.367V247.636C336.637 246.7 337.375 246.142 338.221 246.142C338.563 246.142 338.905 246.214 339.121 246.358ZM346.47 246.124C346.092 245.368 345.318 244.846 344.31 244.846C343.32 244.846 342.546 245.314 342.15 245.944V245.008H340.8V253H342.15V247.492C342.402 246.628 343.104 246.07 343.914 246.07C344.94 246.07 345.426 246.808 345.426 247.924V253H346.776V247.492C347.028 246.628 347.73 246.07 348.54 246.07C349.566 246.07 350.052 246.808 350.052 247.924V253H351.42V247.708C351.42 245.98 350.52 244.846 348.9 244.846C347.784 244.846 346.974 245.404 346.47 246.124ZM358.148 247.69V248.734C357.806 248.428 356.978 248.086 356.15 248.086C354.44 248.086 353.108 249.094 353.108 250.588C353.108 252.172 354.44 253.144 356.078 253.144C357.014 253.144 357.842 252.73 358.148 252.406V253H359.462V247.582C359.462 245.89 358.346 244.846 356.456 244.846C355.466 244.846 354.512 245.134 353.972 245.512V246.79C354.638 246.358 355.358 246.088 356.24 246.088C357.41 246.088 358.148 246.7 358.148 247.69ZM358.148 250.192V251.02C357.932 251.614 357.14 252.01 356.294 252.01C355.322 252.01 354.386 251.56 354.386 250.588C354.386 249.634 355.322 249.202 356.294 249.202C357.14 249.202 357.932 249.598 358.148 250.192ZM363.12 253V241.3H361.77V253H363.12Z" fill="#444444"/>
<path fill-rule="evenodd" clip-rule="evenodd" d="M296 279L301 288H291L296 279Z" fill="#FFBC44" stroke="#FFBC44" stroke-linejoin="round"/>
<rect x="302" y="266" width="176" height="36" fill="white"/>
<path d="M321.488 277.948H320.354L318.014 286.732L315.746 277.948H314.342L317.276 289H318.554L320.912 280.378L323.234 289H324.53L327.464 277.948H326.096L323.828 286.732L321.488 277.948ZM332.941 283.69V284.734C332.599 284.428 331.771 284.086 330.943 284.086C329.233 284.086 327.901 285.094 327.901 286.588C327.901 288.172 329.233 289.144 330.871 289.144C331.807 289.144 332.635 288.73 332.941 288.406V289H334.255V283.582C334.255 281.89 333.139 280.846 331.249 280.846C330.259 280.846 329.305 281.134 328.765 281.512V282.79C329.431 282.358 330.151 282.088 331.033 282.088C332.203 282.088 332.941 282.7 332.941 283.69ZM332.941 286.192V287.02C332.725 287.614 331.933 288.01 331.087 288.01C330.115 288.01 329.179 287.56 329.179 286.588C329.179 285.634 330.115 285.202 331.087 285.202C331.933 285.202 332.725 285.598 332.941 286.192ZM340.667 282.358V280.972C340.523 280.9 340.235 280.846 339.893 280.846C339.011 280.846 338.255 281.368 337.913 282.052V281.008H336.563V289H337.913V283.636C338.183 282.7 338.921 282.142 339.767 282.142C340.109 282.142 340.451 282.214 340.667 282.358ZM342.347 281.008V289H343.697V283.582C343.985 282.718 344.795 282.088 345.731 282.088C346.937 282.088 347.495 282.862 347.495 283.978V289H348.863V283.762C348.863 282.016 347.873 280.846 346.055 280.846C345.029 280.846 344.165 281.386 343.697 282.016V281.008H342.347ZM352.701 278.596C352.701 278.11 352.305 277.732 351.819 277.732C351.351 277.732 350.955 278.11 350.955 278.596C350.955 279.064 351.351 279.46 351.819 279.46C352.305 279.46 352.701 279.064 352.701 278.596ZM352.503 289V281.008H351.153V289H352.503ZM354.915 281.008V289H356.265V283.582C356.553 282.718 357.363 282.088 358.299 282.088C359.505 282.088 360.063 282.862 360.063 283.978V289H361.431V283.762C361.431 282.016 360.441 280.846 358.623 280.846C357.597 280.846 356.733 281.386 356.265 282.016V281.008H354.915ZM368.942 287.938V288.46C368.942 290.17 367.826 291.016 366.404 291.016C365.468 291.016 364.622 290.764 363.83 290.026V291.52C364.442 291.952 365.378 292.24 366.404 292.24C368.312 292.24 370.31 291.16 370.31 288.37V281.008H368.942V281.908C368.546 281.35 367.7 280.846 366.71 280.846C364.37 280.846 363.146 282.79 363.146 284.932C363.146 287.074 364.37 289.018 366.71 289.018C367.7 289.018 368.546 288.496 368.942 287.938ZM368.942 283.294V286.552C368.528 287.308 367.772 287.794 366.908 287.794C365.396 287.794 364.514 286.588 364.514 284.932C364.514 283.258 365.396 282.052 366.908 282.052C367.772 282.052 368.528 282.538 368.942 283.294Z" fill="#444444"/>
<path d="M300 315H292C291.448 315 291 315.448 291 316V324C291 324.552 291.448 325 292 325H300C300.552 325 301 324.552 301 324V316C301 315.448 300.552 315 300 315Z" fill="#CCCCCC" stroke="#CCCCCC"/>
<rect x="302" y="302" width="176" height="36" fill="white"/>
<path d="M319.454 325.162C321.974 325.162 323.792 323.65 323.792 320.626V313.948H322.37V320.446C322.37 322.804 321.236 323.902 319.454 323.902C317.672 323.902 316.538 322.804 316.538 320.446V313.948H315.134V320.608C315.134 323.65 316.952 325.162 319.454 325.162ZM326.14 317.008V325H327.49V319.582C327.778 318.718 328.588 318.088 329.524 318.088C330.73 318.088 331.288 318.862 331.288 319.978V325H332.656V319.762C332.656 318.016 331.666 316.846 329.848 316.846C328.822 316.846 327.958 317.386 327.49 318.016V317.008H326.14ZM341.66 325L337.664 320.662L341.588 317.008H339.842L336.296 320.374V313.3H334.946V325H336.296V321.04L339.986 325H341.66ZM342.962 317.008V325H344.312V319.582C344.6 318.718 345.41 318.088 346.346 318.088C347.552 318.088 348.11 318.862 348.11 319.978V325H349.478V319.762C349.478 318.016 348.488 316.846 346.67 316.846C345.644 316.846 344.78 317.386 344.312 318.016V317.008H342.962ZM358.537 321.004C358.537 318.556 357.043 316.846 354.865 316.846C352.669 316.846 351.193 318.556 351.193 321.004C351.193 323.452 352.669 325.162 354.865 325.162C357.043 325.162 358.537 323.452 358.537 321.004ZM357.169 321.004C357.169 322.75 356.305 323.974 354.865 323.974C353.425 323.974 352.561 322.75 352.561 321.004C352.561 319.258 353.425 318.034 354.865 318.034C356.305 318.034 357.169 319.258 357.169 321.004ZM367.078 323.11L365.44 317.008H364.234L362.596 323.11L360.832 317.008H359.482L361.84 325H363.154L364.828 318.934L366.484 325H367.798L370.156 317.008H368.842L367.078 323.11ZM371.685 317.008V325H373.035V319.582C373.323 318.718 374.133 318.088 375.069 318.088C376.275 318.088 376.833 318.862 376.833 319.978V325H378.201V319.762C378.201 318.016 377.211 316.846 375.393 316.846C374.367 316.846 373.503 317.386 373.035 318.016V317.008H371.685Z" fill="#444444"/>
<path fill-rule="evenodd" clip-rule="evenodd" d="M296.712 351.263C296.319 350.869 295.683 350.867 295.287 351.263L291.263 355.287C290.869 355.681 290.867 356.316 291.263 356.712L295.287 360.737C295.681 361.13 296.316 361.132 296.712 360.737L300.737 356.712C301.13 356.319 301.132 355.683 300.737 355.287L296.712 351.263Z" fill="#FC5A5A" stroke="#FC5A5A"/>
<rect x="302" y="338" width="176" height="36" fill="white"/>
<path d="M314.666 355.474C314.666 358.93 316.898 361.162 319.85 361.162C321.128 361.162 322.1 360.802 322.82 360.208V358.714C321.92 359.524 321.002 359.884 319.868 359.884C317.636 359.884 316.088 358.138 316.088 355.474C316.088 352.81 317.636 351.064 319.868 351.064C321.002 351.064 321.92 351.406 322.82 352.234V350.74C322.1 350.146 321.128 349.786 319.85 349.786C316.898 349.786 314.666 352.018 314.666 355.474ZM329.031 354.358V352.972C328.887 352.9 328.599 352.846 328.257 352.846C327.375 352.846 326.619 353.368 326.277 354.052V353.008H324.927V361H326.277V355.636C326.547 354.7 327.285 354.142 328.131 354.142C328.473 354.142 328.815 354.214 329.031 354.358ZM332.258 350.596C332.258 350.11 331.862 349.732 331.376 349.732C330.908 349.732 330.512 350.11 330.512 350.596C330.512 351.064 330.908 351.46 331.376 351.46C331.862 351.46 332.258 351.064 332.258 350.596ZM332.06 361V353.008H330.71V361H332.06ZM336.704 361V354.16H338.558V353.008H336.704V350.902H335.354V353.008H333.68V354.16H335.354V361H336.704ZM341.75 350.596C341.75 350.11 341.354 349.732 340.868 349.732C340.4 349.732 340.004 350.11 340.004 350.596C340.004 351.064 340.4 351.46 340.868 351.46C341.354 351.46 341.75 351.064 341.75 350.596ZM341.552 361V353.008H340.202V361H341.552ZM343.388 357.004C343.388 359.56 345.08 361.162 347.24 361.162C348.014 361.162 348.824 360.982 349.382 360.496V359.128C348.806 359.704 348.104 359.956 347.33 359.956C345.908 359.956 344.756 358.84 344.756 357.004C344.756 355.168 345.908 354.052 347.33 354.052C348.104 354.052 348.806 354.304 349.382 354.88V353.512C348.824 353.026 348.014 352.846 347.24 352.846C345.08 352.846 343.388 354.448 343.388 357.004ZM355.74 355.69V356.734C355.398 356.428 354.57 356.086 353.742 356.086C352.032 356.086 350.7 357.094 350.7 358.588C350.7 360.172 352.032 361.144 353.67 361.144C354.606 361.144 355.434 360.73 355.74 360.406V361H357.054V355.582C357.054 353.89 355.938 352.846 354.048 352.846C353.058 352.846 352.104 353.134 351.564 353.512V354.79C352.23 354.358 352.95 354.088 353.832 354.088C355.002 354.088 355.74 354.7 355.74 355.69ZM355.74 358.192V359.02C355.524 359.614 354.732 360.01 353.886 360.01C352.914 360.01 351.978 359.56 351.978 358.588C351.978 357.634 352.914 357.202 353.886 357.202C354.732 357.202 355.524 357.598 355.74 358.192ZM360.712 361V349.3H359.362V361H360.712Z" fill="#444444"/>
</g>
<rect x="476" y="230" width="188" height="36" fill="white"/>
<path d="M490.736 248.32H492.698L495.866 253H497.486L494.21 248.266C495.956 248.014 497.036 246.988 497.036 245.152C497.036 243.064 495.596 241.948 493.364 241.948H489.314V253H490.736V248.32ZM490.736 247.114V243.19H493.328C494.786 243.19 495.632 243.928 495.632 245.152C495.632 246.376 494.786 247.114 493.328 247.114H490.736ZM498.705 250.606V252.136C499.461 252.73 500.685 253.162 502.179 253.162C504.321 253.162 505.905 252.028 505.905 250.138C505.905 248.608 505.149 247.726 503.457 247.078L501.711 246.394C500.685 245.998 500.055 245.602 500.055 244.666C500.055 243.568 501.009 243.028 502.233 243.028C503.511 243.028 504.501 243.478 505.383 244.18V242.686C504.555 242.11 503.421 241.786 502.215 241.786C500.307 241.786 498.669 242.776 498.669 244.684C498.669 246.43 499.857 247.168 501.153 247.672L502.773 248.302C503.943 248.788 504.537 249.184 504.537 250.156C504.537 251.29 503.601 251.902 502.179 251.902C500.883 251.902 499.731 251.488 498.705 250.606ZM509.369 248.32H511.331L514.499 253H516.119L512.843 248.266C514.589 248.014 515.669 246.988 515.669 245.152C515.669 243.064 514.229 241.948 511.997 241.948H507.947V253H509.369V248.32ZM509.369 247.114V243.19H511.961C513.419 243.19 514.265 243.928 514.265 245.152C514.265 246.376 513.419 247.114 511.961 247.114H509.369ZM523.062 250.534H523.134L526.878 244.504V253H528.264V241.948H527.022L523.116 248.302L519.192 241.948H517.878V253H519.264V244.504L523.062 250.534ZM534.216 253H535.548L539.814 241.948H538.374L534.9 251.128L531.444 241.948H529.95L534.216 253ZM546.003 247.348L549.765 241.948H548.199L545.211 246.25L542.259 241.948H540.639L544.401 247.384L540.495 253H542.061L545.175 248.5L548.307 253H549.927L546.003 247.348ZM555.663 253.162C558.183 253.162 560.001 251.65 560.001 248.626V241.948H558.579V248.446C558.579 250.804 557.445 251.902 555.663 251.902C553.881 251.902 552.747 250.804 552.747 248.446V241.948H551.343V248.608C551.343 251.65 553.161 253.162 555.663 253.162ZM563.591 249.31L566.957 241.948H565.553L561.665 250.426V250.498H566.867V253H568.181V250.498H570.017V249.31H568.181V246.646H566.867V249.31H563.591Z" fill="#444444"/>
<rect x="476" y="266" width="188" height="36" fill="white"/>
<path d="M490.736 284.32H492.698L495.866 289H497.486L494.21 284.266C495.956 284.014 497.036 282.988 497.036 281.152C497.036 279.064 495.596 277.948 493.364 277.948H489.314V289H490.736V284.32ZM490.736 283.114V279.19H493.328C494.786 279.19 495.632 279.928 495.632 281.152C495.632 282.376 494.786 283.114 493.328 283.114H490.736ZM498.705 286.606V288.136C499.461 288.73 500.685 289.162 502.179 289.162C504.321 289.162 505.905 288.028 505.905 286.138C505.905 284.608 505.149 283.726 503.457 283.078L501.711 282.394C500.685 281.998 500.055 281.602 500.055 280.666C500.055 279.568 501.009 279.028 502.233 279.028C503.511 279.028 504.501 279.478 505.383 280.18V278.686C504.555 278.11 503.421 277.786 502.215 277.786C500.307 277.786 498.669 278.776 498.669 280.684C498.669 282.43 499.857 283.168 501.153 283.672L502.773 284.302C503.943 284.788 504.537 285.184 504.537 286.156C504.537 287.29 503.601 287.902 502.179 287.902C500.883 287.902 499.731 287.488 498.705 286.606ZM509.369 282.862V277.948H507.947V289H509.369V283.798L514.463 289H516.299L510.701 283.24L516.137 277.948H514.355L509.369 282.862ZM519.318 284.32H521.28L524.448 289H526.068L522.792 284.266C524.538 284.014 525.618 282.988 525.618 281.152C525.618 279.064 524.178 277.948 521.946 277.948H517.896V289H519.318V284.32ZM519.318 283.114V279.19H521.91C523.368 279.19 524.214 279.928 524.214 281.152C524.214 282.376 523.368 283.114 521.91 283.114H519.318ZM533.012 286.534H533.084L536.828 280.504V289H538.214V277.948H536.972L533.066 284.302L529.142 277.948H527.828V289H529.214V280.504L533.012 286.534ZM544.975 289.162C547.495 289.162 549.313 287.65 549.313 284.626V277.948H547.891V284.446C547.891 286.804 546.757 287.902 544.975 287.902C543.193 287.902 542.059 286.804 542.059 284.446V277.948H540.655V284.608C540.655 287.65 542.473 289.162 544.975 289.162ZM551.121 283.474C551.121 286.93 553.353 289.162 556.305 289.162C557.583 289.162 558.555 288.802 559.275 288.208V286.714C558.375 287.524 557.457 287.884 556.323 287.884C554.091 287.884 552.543 286.138 552.543 283.474C552.543 280.81 554.091 279.064 556.323 279.064C557.457 279.064 558.375 279.406 559.275 280.234V278.74C558.555 278.146 557.583 277.786 556.305 277.786C553.353 277.786 551.121 280.018 551.121 283.474ZM568.279 277.948L565.093 283.168L561.907 277.948H560.359L564.355 284.446V289H565.759V284.446L569.791 277.948H568.279Z" fill="#444444"/>
<rect x="476" y="302" width="188" height="36" fill="white"/>
<path d="M488.522 323.074V324.532C488.99 324.838 489.782 325.162 490.682 325.162C492.806 325.162 493.94 323.992 493.94 321.328V313.948H492.518V321.274C492.518 323.11 491.96 323.866 490.646 323.866C489.836 323.866 489.224 323.578 488.522 323.074ZM500.899 323.902C498.595 323.902 497.119 322.138 497.119 319.474C497.119 316.81 498.721 315.064 501.025 315.064C502.231 315.064 503.275 315.442 504.211 316.288V314.776C503.437 314.164 502.321 313.786 501.025 313.786C497.983 313.786 495.697 316.036 495.697 319.474C495.697 322.894 497.785 325.162 500.863 325.162C502.231 325.162 503.689 324.748 504.751 323.578V319.258H501.007V320.446H503.437V323.056C502.717 323.65 501.907 323.902 500.899 323.902ZM514.053 313.948H507.015V325H514.053V323.722H508.419V319.96H513.531V318.7H508.419V315.208H514.053V313.948ZM516.279 325H517.701V320.194H522.705V318.934H517.701V315.208H523.029V313.948H516.279V325ZM532.557 325V323.722H526.509L532.611 314.02V313.948H524.511V315.208H530.379L524.241 324.928V325H532.557ZM538.63 325.162C541.15 325.162 542.968 323.65 542.968 320.626V313.948H541.546V320.446C541.546 322.804 540.412 323.902 538.63 323.902C536.848 323.902 535.714 322.804 535.714 320.446V313.948H534.31V320.608C534.31 323.65 536.128 325.162 538.63 325.162ZM549.841 313.948H548.509L544.189 325H545.629L546.889 321.67H551.443L552.721 325H554.161L549.841 313.948ZM547.357 320.428L549.157 315.712L550.957 320.428H547.357ZM563.389 325V323.722H557.341L563.443 314.02V313.948H555.343V315.208H561.211L555.073 324.928V325H563.389Z" fill="#444444"/>
<rect x="476" y="338" width="188" height="36" fill="white"/>
<path d="M498.404 349.948H496.982V354.682H490.736V349.948H489.314V361H490.736V355.96H496.982V361H498.404V349.948ZM504.405 349.786C502.263 349.786 500.661 351.406 500.661 353.548C500.661 355.672 502.191 357.292 504.315 357.292C504.747 357.292 505.233 357.148 505.521 356.968L503.199 361H504.657L507.177 356.608C507.897 355.348 508.149 354.448 508.149 353.548C508.149 351.406 506.565 349.786 504.405 349.786ZM501.957 353.548C501.957 352.108 503.001 351.01 504.405 351.01C505.809 351.01 506.853 352.108 506.853 353.548C506.853 354.97 505.809 356.086 504.405 356.086C503.001 356.086 501.957 354.97 501.957 353.548ZM514.944 359.902C512.64 359.902 511.164 358.138 511.164 355.474C511.164 352.81 512.766 351.064 515.07 351.064C516.276 351.064 517.32 351.442 518.256 352.288V350.776C517.482 350.164 516.366 349.786 515.07 349.786C512.028 349.786 509.742 352.036 509.742 355.474C509.742 358.894 511.83 361.162 514.908 361.162C516.276 361.162 517.734 360.748 518.796 359.578V355.258H515.052V356.446H517.482V359.056C516.762 359.65 515.952 359.902 514.944 359.902ZM520.268 359.074V360.532C520.736 360.838 521.528 361.162 522.428 361.162C524.552 361.162 525.686 359.992 525.686 357.328V349.948H524.264V357.274C524.264 359.11 523.706 359.866 522.392 359.866C521.582 359.866 520.97 359.578 520.268 359.074ZM527.317 349.948V351.208H531.169V361H532.591V351.208H536.443V349.948H527.317ZM545.846 361V359.722H539.798L545.9 350.02V349.948H537.8V351.208H543.668L537.53 360.928V361H545.846ZM556.922 349.948H555.5V354.682H549.254V349.948H547.832V361H549.254V355.96H555.5V361H556.922V349.948ZM560.69 357.31L564.056 349.948H562.652L558.764 358.426V358.498H563.966V361H565.28V358.498H567.116V357.31H565.28V354.646H563.966V357.31H560.69Z" fill="#444444"/>
<rect x="664" y="230" width="188" height="36" fill="white"/>
<path d="M686.656 247.474C686.656 244.126 684.568 241.786 681.652 241.786C678.754 241.786 676.666 244.126 676.666 247.474C676.666 250.804 678.754 253.162 681.652 253.162C684.568 253.162 686.656 250.804 686.656 247.474ZM685.234 247.474C685.234 250.066 683.794 251.884 681.652 251.884C679.528 251.884 678.088 250.066 678.088 247.474C678.088 244.882 679.528 243.064 681.652 243.064C683.794 243.064 685.234 244.882 685.234 247.474ZM688.526 245.008V253H689.876V247.582C690.164 246.718 690.974 246.088 691.91 246.088C693.116 246.088 693.674 246.862 693.674 247.978V253H695.042V247.762C695.042 246.016 694.052 244.846 692.234 244.846C691.208 244.846 690.344 245.386 689.876 246.016V245.008H688.526Z" fill="#444444"/>
<rect x="664" y="266" width="188" height="36" fill="white"/>
<path d="M686.656 283.474C686.656 280.126 684.568 277.786 681.652 277.786C678.754 277.786 676.666 280.126 676.666 283.474C676.666 286.804 678.754 289.162 681.652 289.162C684.568 289.162 686.656 286.804 686.656 283.474ZM685.234 283.474C685.234 286.066 683.794 287.884 681.652 287.884C679.528 287.884 678.088 286.066 678.088 283.474C678.088 280.882 679.528 279.064 681.652 279.064C683.794 279.064 685.234 280.882 685.234 283.474ZM688.526 281.008V289H689.876V283.582C690.164 282.718 690.974 282.088 691.91 282.088C693.116 282.088 693.674 282.862 693.674 283.978V289H695.042V283.762C695.042 282.016 694.052 280.846 692.234 280.846C691.208 280.846 690.344 281.386 689.876 282.016V281.008H688.526Z" fill="#444444"/>
<rect x="42" y="106" width="384" height="36" rx="4" fill="white" stroke="#999999"/>
<path d="M90.738 126.606V128.136C91.494 128.73 92.718 129.162 94.212 129.162C96.354 129.162 97.938 128.028 97.938 126.138C97.938 124.608 97.182 123.726 95.49 123.078L93.744 122.394C92.718 121.998 92.088 121.602 92.088 120.666C92.088 119.568 93.042 119.028 94.266 119.028C95.544 119.028 96.534 119.478 97.416 120.18V118.686C96.588 118.11 95.454 117.786 94.248 117.786C92.34 117.786 90.702 118.776 90.702 120.684C90.702 122.43 91.89 123.168 93.186 123.672L94.806 124.302C95.976 124.788 96.57 125.184 96.57 126.156C96.57 127.29 95.634 127.902 94.212 127.902C92.916 127.902 91.764 127.488 90.738 126.606ZM100.716 125.238H106.224V124.752C106.224 122.412 105.108 120.846 102.948 120.846C100.824 120.846 99.3839 122.592 99.3839 125.076C99.3839 127.596 100.932 129.162 103.236 129.162C104.19 129.162 105.018 128.964 105.666 128.46V127.218C104.946 127.758 104.298 127.974 103.398 127.974C101.94 127.974 100.77 127.092 100.716 125.238ZM102.966 121.998C104.262 121.998 104.856 123.006 104.91 124.176H100.788C101.04 122.7 101.904 121.998 102.966 121.998ZM112.509 123.69V124.734C112.167 124.428 111.339 124.086 110.511 124.086C108.801 124.086 107.469 125.094 107.469 126.588C107.469 128.172 108.801 129.144 110.439 129.144C111.375 129.144 112.203 128.73 112.509 128.406V129H113.823V123.582C113.823 121.89 112.707 120.846 110.817 120.846C109.827 120.846 108.873 121.134 108.333 121.512V122.79C108.999 122.358 109.719 122.088 110.601 122.088C111.771 122.088 112.509 122.7 112.509 123.69ZM112.509 126.192V127.02C112.293 127.614 111.501 128.01 110.655 128.01C109.683 128.01 108.747 127.56 108.747 126.588C108.747 125.634 109.683 125.202 110.655 125.202C111.501 125.202 112.293 125.598 112.509 126.192ZM120.236 122.358V120.972C120.092 120.9 119.804 120.846 119.462 120.846C118.58 120.846 117.824 121.368 117.482 122.052V121.008H116.132V129H117.482V123.636C117.752 122.7 118.49 122.142 119.336 122.142C119.678 122.142 120.02 122.214 120.236 122.358ZM121.11 125.004C121.11 127.56 122.802 129.162 124.962 129.162C125.736 129.162 126.546 128.982 127.104 128.496V127.128C126.528 127.704 125.826 127.956 125.052 127.956C123.63 127.956 122.478 126.84 122.478 125.004C122.478 123.168 123.63 122.052 125.052 122.052C125.826 122.052 126.528 122.304 127.104 122.88V121.512C126.546 121.026 125.736 120.846 124.962 120.846C122.802 120.846 121.11 122.448 121.11 125.004ZM128.981 117.3V129H130.331V123.582C130.619 122.718 131.429 122.088 132.365 122.088C133.571 122.088 134.129 122.862 134.129 123.978V129H135.497V123.762C135.497 122.016 134.507 120.846 132.689 120.846C131.663 120.846 130.799 121.386 130.331 122.016V117.3H128.981ZM143.993 129V122.16H145.847V121.008H143.993V118.902H142.643V121.008H140.969V122.16H142.643V129H143.993ZM147.491 117.3V129H148.841V123.582C149.129 122.718 149.939 122.088 150.875 122.088C152.081 122.088 152.639 122.862 152.639 123.978V129H154.007V123.762C154.007 122.016 153.017 120.846 151.199 120.846C150.173 120.846 149.309 121.386 148.841 122.016V117.3H147.491ZM157.054 125.238H162.562V124.752C162.562 122.412 161.446 120.846 159.286 120.846C157.162 120.846 155.722 122.592 155.722 125.076C155.722 127.596 157.27 129.162 159.574 129.162C160.528 129.162 161.356 128.964 162.004 128.46V127.218C161.284 127.758 160.636 127.974 159.736 127.974C158.278 127.974 157.108 127.092 157.054 125.238ZM159.304 121.998C160.6 121.998 161.194 123.006 161.248 124.176H157.126C157.378 122.7 158.242 121.998 159.304 121.998ZM168.482 117.948V129H172.028C175.268 129 177.392 126.84 177.392 123.474C177.392 120.108 175.268 117.948 172.028 117.948H168.482ZM172.01 127.722H169.904V119.208H172.01C174.512 119.208 175.988 120.882 175.988 123.474C175.988 126.066 174.512 127.722 172.01 127.722ZM183.666 123.69V124.734C183.324 124.428 182.496 124.086 181.668 124.086C179.958 124.086 178.626 125.094 178.626 126.588C178.626 128.172 179.958 129.144 181.596 129.144C182.532 129.144 183.36 128.73 183.666 128.406V129H184.98V123.582C184.98 121.89 183.864 120.846 181.974 120.846C180.984 120.846 180.03 121.134 179.49 121.512V122.79C180.156 122.358 180.876 122.088 181.758 122.088C182.928 122.088 183.666 122.7 183.666 123.69ZM183.666 126.192V127.02C183.45 127.614 182.658 128.01 181.812 128.01C180.84 128.01 179.904 127.56 179.904 126.588C179.904 125.634 180.84 125.202 181.812 125.202C182.658 125.202 183.45 125.598 183.666 126.192ZM189.467 129V122.16H191.321V121.008H189.467V118.902H188.117V121.008H186.443V122.16H188.117V129H189.467ZM197.236 123.69V124.734C196.894 124.428 196.066 124.086 195.238 124.086C193.528 124.086 192.196 125.094 192.196 126.588C192.196 128.172 193.528 129.144 195.166 129.144C196.102 129.144 196.93 128.73 197.236 128.406V129H198.55V123.582C198.55 121.89 197.434 120.846 195.544 120.846C194.554 120.846 193.6 121.134 193.06 121.512V122.79C193.726 122.358 194.446 122.088 195.328 122.088C196.498 122.088 197.236 122.7 197.236 123.69ZM197.236 126.192V127.02C197.02 127.614 196.228 128.01 195.382 128.01C194.41 128.01 193.474 127.56 193.474 126.588C193.474 125.634 194.41 125.202 195.382 125.202C196.228 125.202 197.02 125.598 197.236 126.192ZM200.192 117.948V119.208H204.044V129H205.466V119.208H209.318V117.948H200.192ZM214.164 123.69V124.734C213.822 124.428 212.994 124.086 212.166 124.086C210.456 124.086 209.124 125.094 209.124 126.588C209.124 128.172 210.456 129.144 212.094 129.144C213.03 129.144 213.858 128.73 214.164 128.406V129H215.478V123.582C215.478 121.89 214.362 120.846 212.472 120.846C211.482 120.846 210.528 121.134 209.988 121.512V122.79C210.654 122.358 211.374 122.088 212.256 122.088C213.426 122.088 214.164 122.7 214.164 123.69ZM214.164 126.192V127.02C213.948 127.614 213.156 128.01 212.31 128.01C211.338 128.01 210.402 127.56 210.402 126.588C210.402 125.634 211.338 125.202 212.31 125.202C213.156 125.202 213.948 125.598 214.164 126.192ZM219.136 129V128.064C219.532 128.64 220.396 129.162 221.386 129.162C223.726 129.162 224.986 127.272 224.986 125.004C224.986 122.754 223.726 120.846 221.386 120.846C220.396 120.846 219.532 121.368 219.136 121.944V117.3H217.768V129H219.136ZM219.136 126.624V123.384C219.55 122.556 220.342 122.07 221.188 122.07C222.718 122.07 223.618 123.312 223.618 125.004C223.618 126.696 222.718 127.938 221.188 127.938C220.342 127.938 219.55 127.452 219.136 126.624ZM228.171 129V117.3H226.821V129H228.171ZM231.339 125.238H236.847V124.752C236.847 122.412 235.731 120.846 233.571 120.846C231.447 120.846 230.007 122.592 230.007 125.076C230.007 127.596 231.555 129.162 233.859 129.162C234.813 129.162 235.641 128.964 236.289 128.46V127.218C235.569 127.758 234.921 127.974 234.021 127.974C232.563 127.974 231.393 127.092 231.339 125.238ZM233.589 121.998C234.885 121.998 235.479 123.006 235.533 124.176H231.411C231.663 122.7 232.527 121.998 233.589 121.998Z" fill="#BBBBBB"/>
<path fill-rule="evenodd" clip-rule="evenodd" d="M64 115C60.134 115 57 118.134 57 122C57 125.866 60.134 129 64 129C65.5723 129 67.0236 128.482 68.1922 127.606L73.2929 132.707L74.7071 131.293L69.6064 126.192C70.4816 125.024 71 123.572 71 122C71 118.134 67.866 115 64 115ZM59 122C59 119.239 61.2386 117 64 117C66.7614 117 69 119.239 69 122C69 124.761 66.7614 127 64 127C61.2386 127 59 124.761 59 122Z" fill="black"/>
<path d="M41.656 49.896V72H50.008C56.956 72 61.168 67.68 61.168 60.948C61.168 54.216 56.956 49.896 50.008 49.896H41.656ZM49.72 66.996H47.344V54.864H49.72C53.392 54.864 55.444 57.204 55.444 60.948C55.444 64.656 53.392 66.996 49.72 66.996ZM72.1657 62.244V62.82C71.5177 62.352 70.0057 61.92 68.6377 61.92C65.1457 61.92 62.4097 63.936 62.4097 67.068C62.4097 70.488 65.1457 72.288 68.3497 72.288C70.0777 72.288 71.6257 71.712 72.1657 71.172V72H77.6017V61.992C77.6017 57.708 74.8657 55.44 70.0777 55.44C67.7737 55.44 65.6137 55.98 64.2817 56.7V61.236C65.5777 60.48 67.1617 60.084 68.7097 60.084C71.0137 60.084 72.1657 60.984 72.1657 62.244ZM72.1657 66.528V67.464C71.8057 68.112 70.9057 68.544 69.8977 68.544C68.7817 68.544 67.6657 68.076 67.6657 66.96C67.6657 65.88 68.7817 65.412 69.8977 65.412C70.9057 65.412 71.8057 65.844 72.1657 66.528ZM87.918 72V60.192H91.086V55.8H87.918V51.336H82.302V55.8H79.494V60.192H82.302V72H87.918ZM101.627 62.244V62.82C100.979 62.352 99.4667 61.92 98.0987 61.92C94.6067 61.92 91.8707 63.936 91.8707 67.068C91.8707 70.488 94.6067 72.288 97.8107 72.288C99.5387 72.288 101.087 71.712 101.627 71.172V72H107.063V61.992C107.063 57.708 104.327 55.44 99.5387 55.44C97.2347 55.44 95.0747 55.98 93.7427 56.7V61.236C95.0387 60.48 96.6227 60.084 98.1707 60.084C100.475 60.084 101.627 60.984 101.627 62.244ZM101.627 66.528V67.464C101.267 68.112 100.367 68.544 99.3587 68.544C98.2427 68.544 97.1267 68.076 97.1267 66.96C97.1267 65.88 98.2427 65.412 99.3587 65.412C100.367 65.412 101.267 65.844 101.627 66.528ZM109.169 49.896V54.864H115.973V72H121.769V54.864H128.609V49.896H109.169ZM137.697 62.244V62.82C137.049 62.352 135.537 61.92 134.169 61.92C130.677 61.92 127.941 63.936 127.941 67.068C127.941 70.488 130.677 72.288 133.881 72.288C135.609 72.288 137.157 71.712 137.697 71.172V72H143.133V61.992C143.133 57.708 140.397 55.44 135.609 55.44C133.305 55.44 131.145 55.98 129.813 56.7V61.236C131.109 60.48 132.693 60.084 134.241 60.084C136.545 60.084 137.697 60.984 137.697 62.244ZM137.697 66.528V67.464C137.337 68.112 136.437 68.544 135.429 68.544C134.313 68.544 133.197 68.076 133.197 66.96C133.197 65.88 134.313 65.412 135.429 65.412C136.437 65.412 137.337 65.844 137.697 66.528ZM151.684 72V70.704C152.44 71.568 154.024 72.36 155.68 72.36C160.36 72.36 162.916 68.58 162.916 63.9C162.916 59.22 160.36 55.44 155.68 55.44C154.024 55.44 152.44 56.232 151.684 57.096V48.6H146.032V72H151.684ZM151.684 66.024V61.74C152.116 60.876 153.088 60.228 154.168 60.228C156.112 60.228 157.264 61.812 157.264 63.9C157.264 65.988 156.112 67.536 154.168 67.536C153.052 67.536 152.116 66.924 151.684 66.024ZM170.738 72V48.6H165.086V72H170.738ZM178.413 65.196H188.385V63.54C188.385 58.716 185.829 55.44 180.789 55.44C176.325 55.44 172.941 58.932 172.941 64.008C172.941 69.228 176.469 72.36 181.653 72.36C183.993 72.36 185.973 71.856 187.233 70.92V66.636C185.613 67.608 184.281 67.932 182.553 67.932C180.465 67.932 178.881 67.14 178.413 65.196ZM181.005 59.724C182.373 59.724 183.201 60.66 183.345 62.028H178.485C178.881 60.552 179.781 59.724 181.005 59.724Z" fill="black"/>
<path d="M45.296 160.192L47.472 154.176H45.136L42.144 162.208V162.272H46.736V164H48.912V162.272H50.016V160.192H48.912V158.368H46.736V160.192H45.296ZM55.9476 164V154.176H54.6836V164H55.9476ZM60.1654 164V157.92H61.8134V156.896H60.1654V155.024H58.9654V156.896H57.4774V157.92H58.9654V164H60.1654ZM63.8221 160.656H68.7181V160.224C68.7181 158.144 67.7261 156.752 65.8061 156.752C63.9181 156.752 62.6381 158.304 62.6381 160.512C62.6381 162.752 64.0141 164.144 66.0621 164.144C66.9101 164.144 67.6461 163.968 68.2221 163.52V162.416C67.5821 162.896 67.0061 163.088 66.2061 163.088C64.9101 163.088 63.8701 162.304 63.8221 160.656ZM65.8221 157.776C66.9741 157.776 67.5021 158.672 67.5501 159.712H63.8861C64.1101 158.4 64.8781 157.776 65.8221 157.776ZM75.3933 157.888C75.0573 157.216 74.3693 156.752 73.4733 156.752C72.5933 156.752 71.9053 157.168 71.5533 157.728V156.896H70.3533V164H71.5533V159.104C71.7773 158.336 72.4013 157.84 73.1213 157.84C74.0333 157.84 74.4653 158.496 74.4653 159.488V164H75.6653V159.104C75.8893 158.336 76.5133 157.84 77.2333 157.84C78.1453 157.84 78.5773 158.496 78.5773 159.488V164H79.7933V159.296C79.7933 157.76 78.9933 156.752 77.5533 156.752C76.5613 156.752 75.8413 157.248 75.3933 157.888ZM81.406 162.16V163.44C81.934 163.856 82.814 164.144 83.742 164.144C85.23 164.144 86.398 163.392 86.398 162.08C86.398 161.072 85.806 160.448 84.734 160.08L83.646 159.712C82.974 159.472 82.59 159.28 82.59 158.704C82.59 158.096 83.198 157.776 83.934 157.776C84.798 157.776 85.454 158.128 86.046 158.624V157.376C85.47 156.976 84.734 156.752 83.934 156.752C82.526 156.752 81.422 157.504 81.422 158.752C81.422 159.904 82.142 160.416 83.214 160.768L84.19 161.104C84.814 161.312 85.214 161.6 85.214 162.128C85.214 162.832 84.526 163.12 83.742 163.12C82.878 163.12 82.062 162.768 81.406 162.16Z" fill="#444444"/>
<rect width="1078" height="491" transform="translate(0 463)" fill="white"/>
<path d="M73.242 696.422V713H79.506C84.717 713 87.876 709.76 87.876 704.711C87.876 699.662 84.717 696.422 79.506 696.422H73.242ZM79.29 709.247H77.508V700.148H79.29C82.044 700.148 83.583 701.903 83.583 704.711C83.583 707.492 82.044 709.247 79.29 709.247ZM93.0959 707.897H100.575V706.655C100.575 703.037 98.6579 700.58 94.8779 700.58C91.5299 700.58 88.9919 703.199 88.9919 707.006C88.9919 710.921 91.6379 713.27 95.5259 713.27C97.2809 713.27 98.7659 712.892 99.7109 712.19V708.977C98.4959 709.706 97.4969 709.949 96.2009 709.949C94.6349 709.949 93.4469 709.355 93.0959 707.897ZM95.0399 703.793C96.0659 703.793 96.6869 704.495 96.7949 705.521H93.1499C93.4469 704.414 94.1219 703.793 95.0399 703.793ZM107.833 713V704.144H110.209V700.85H107.833V697.502H103.621V700.85H101.515V704.144H103.621V713H107.833ZM118.115 705.683V706.115C117.629 705.764 116.495 705.44 115.469 705.44C112.85 705.44 110.798 706.952 110.798 709.301C110.798 711.866 112.85 713.216 115.253 713.216C116.549 713.216 117.71 712.784 118.115 712.379V713H122.192V705.494C122.192 702.281 120.14 700.58 116.549 700.58C114.821 700.58 113.201 700.985 112.202 701.525V704.927C113.174 704.36 114.362 704.063 115.523 704.063C117.251 704.063 118.115 704.738 118.115 705.683ZM118.115 708.896V709.598C117.845 710.084 117.17 710.408 116.414 710.408C115.577 710.408 114.74 710.057 114.74 709.22C114.74 708.41 115.577 708.059 116.414 708.059C117.17 708.059 117.845 708.383 118.115 708.896ZM128.901 697.556C128.901 696.152 127.794 695.261 126.498 695.261C125.202 695.261 124.095 696.152 124.095 697.556C124.095 698.933 125.202 699.824 126.498 699.824C127.794 699.824 128.901 698.933 128.901 697.556ZM128.604 713V700.85H124.365V713H128.604ZM135.144 713V695.45H130.905V713H135.144ZM137.012 708.545V712.109C138.146 712.865 139.928 713.27 141.629 713.27C144.626 713.27 146.867 712.001 146.867 709.409C146.867 707.357 145.814 706.277 143.168 705.575L142.061 705.251C141.467 705.089 141.116 704.927 141.116 704.468C141.116 703.982 141.602 703.739 142.331 703.739C143.708 703.739 145.004 704.306 146.165 705.143V701.66C144.977 700.931 143.654 700.58 141.926 700.58C139.064 700.58 136.958 702.011 136.958 704.549C136.958 706.736 138.389 707.789 140.63 708.275L141.575 708.518C142.304 708.68 142.682 708.869 142.682 709.355C142.682 709.895 142.142 710.084 141.305 710.084C140.063 710.084 138.173 709.49 137.012 708.545Z" fill="black"/>
<path d="M82.584 763V751.948H79.794V758.032L75.528 751.948H72.828V763H75.618V756.538L80.244 763H82.584ZM88.6102 758.122V758.41C88.2862 758.176 87.5302 757.96 86.8462 757.96C85.1002 757.96 83.7322 758.968 83.7322 760.534C83.7322 762.244 85.1002 763.144 86.7022 763.144C87.5662 763.144 88.3402 762.856 88.6102 762.586V763H91.3282V757.996C91.3282 755.854 89.9602 754.72 87.5662 754.72C86.4142 754.72 85.3342 754.99 84.6682 755.35V757.618C85.3162 757.24 86.1082 757.042 86.8822 757.042C88.0342 757.042 88.6102 757.492 88.6102 758.122ZM88.6102 760.264V760.732C88.4302 761.056 87.9802 761.272 87.4762 761.272C86.9182 761.272 86.3602 761.038 86.3602 760.48C86.3602 759.94 86.9182 759.706 87.4762 759.706C87.9802 759.706 88.4302 759.922 88.6102 760.264ZM99.9235 755.692C99.4375 755.116 98.7175 754.72 97.6915 754.72C96.7915 754.72 96.0175 755.062 95.6035 755.566V754.9H92.7775V763H95.6035V758.068C95.7295 757.51 96.1615 757.204 96.6475 757.204C97.2775 757.204 97.5655 757.69 97.5655 758.374V763H100.373V758.068C100.517 757.51 100.931 757.204 101.417 757.204C102.047 757.204 102.335 757.69 102.335 758.374V763H105.161V757.69C105.161 755.872 104.117 754.72 102.425 754.72C101.237 754.72 100.409 755.188 99.9235 755.692ZM108.915 759.598H113.901V758.77C113.901 756.358 112.623 754.72 110.103 754.72C107.871 754.72 106.179 756.466 106.179 759.004C106.179 761.614 107.943 763.18 110.535 763.18C111.705 763.18 112.695 762.928 113.325 762.46V760.318C112.515 760.804 111.849 760.966 110.985 760.966C109.941 760.966 109.149 760.57 108.915 759.598ZM110.211 756.862C110.895 756.862 111.309 757.33 111.381 758.014H108.951C109.149 757.276 109.599 756.862 110.211 756.862Z" fill="#444444"/>
<path d="M72.576 795.616V798.28C73.386 798.766 74.718 799.18 76.194 799.18C78.678 799.18 80.712 798.118 80.712 795.724C80.712 794.032 79.794 792.97 77.778 792.34L76.104 791.836C75.528 791.656 75.186 791.458 75.186 790.954C75.186 790.396 75.816 790.162 76.644 790.162C77.904 790.162 79.002 790.576 79.992 791.26V788.596C79.074 788.092 78.012 787.768 76.518 787.768C74.196 787.768 72.342 788.974 72.342 791.17C72.342 793.006 73.368 793.924 75.222 794.464L76.896 794.95C77.49 795.166 77.832 795.346 77.832 795.886C77.832 796.57 77.04 796.768 76.122 796.768C74.88 796.768 73.53 796.264 72.576 795.616ZM85.5352 799V793.096H87.1192V790.9H85.5352V788.668H82.7272V790.9H81.3232V793.096H82.7272V799H85.5352ZM92.3895 794.122V794.41C92.0655 794.176 91.3095 793.96 90.6255 793.96C88.8795 793.96 87.5115 794.968 87.5115 796.534C87.5115 798.244 88.8795 799.144 90.4815 799.144C91.3455 799.144 92.1195 798.856 92.3895 798.586V799H95.1075V793.996C95.1075 791.854 93.7395 790.72 91.3455 790.72C90.1935 790.72 89.1135 790.99 88.4475 791.35V793.618C89.0955 793.24 89.8875 793.042 90.6615 793.042C91.8135 793.042 92.3895 793.492 92.3895 794.122ZM92.3895 796.264V796.732C92.2095 797.056 91.7595 797.272 91.2555 797.272C90.6975 797.272 90.1395 797.038 90.1395 796.48C90.1395 795.94 90.6975 795.706 91.2555 795.706C91.7595 795.706 92.2095 795.922 92.3895 796.264ZM100.266 799V793.096H101.85V790.9H100.266V788.668H97.4576V790.9H96.0536V793.096H97.4576V799H100.266ZM110.679 799V790.9H107.853V795.814C107.709 796.372 107.223 796.714 106.701 796.714C105.981 796.714 105.657 796.228 105.657 795.544V790.9H102.849V796.21C102.849 798.01 103.911 799.18 105.693 799.18C106.611 799.18 107.421 798.802 107.853 798.298V799H110.679ZM111.896 796.03V798.406C112.652 798.91 113.84 799.18 114.974 799.18C116.972 799.18 118.466 798.334 118.466 796.606C118.466 795.238 117.764 794.518 116 794.05L115.262 793.834C114.866 793.726 114.632 793.618 114.632 793.312C114.632 792.988 114.956 792.826 115.442 792.826C116.36 792.826 117.224 793.204 117.998 793.762V791.44C117.206 790.954 116.324 790.72 115.172 790.72C113.264 790.72 111.86 791.674 111.86 793.366C111.86 794.824 112.814 795.526 114.308 795.85L114.938 796.012C115.424 796.12 115.676 796.246 115.676 796.57C115.676 796.93 115.316 797.056 114.758 797.056C113.93 797.056 112.67 796.66 111.896 796.03Z" fill="#444444"/>
<path d="M72.576 831.616V834.28C73.386 834.766 74.718 835.18 76.194 835.18C78.678 835.18 80.712 834.118 80.712 831.724C80.712 830.032 79.794 828.97 77.778 828.34L76.104 827.836C75.528 827.656 75.186 827.458 75.186 826.954C75.186 826.396 75.816 826.162 76.644 826.162C77.904 826.162 79.002 826.576 79.992 827.26V824.596C79.074 824.092 78.012 823.768 76.518 823.768C74.196 823.768 72.342 824.974 72.342 827.17C72.342 829.006 73.368 829.924 75.222 830.464L76.896 830.95C77.49 831.166 77.832 831.346 77.832 831.886C77.832 832.57 77.04 832.768 76.122 832.768C74.88 832.768 73.53 832.264 72.576 831.616ZM85.5352 835V829.096H87.1192V826.9H85.5352V824.668H82.7272V826.9H81.3232V829.096H82.7272V835H85.5352ZM92.3895 830.122V830.41C92.0655 830.176 91.3095 829.96 90.6255 829.96C88.8795 829.96 87.5115 830.968 87.5115 832.534C87.5115 834.244 88.8795 835.144 90.4815 835.144C91.3455 835.144 92.1195 834.856 92.3895 834.586V835H95.1075V829.996C95.1075 827.854 93.7395 826.72 91.3455 826.72C90.1935 826.72 89.1135 826.99 88.4475 827.35V829.618C89.0955 829.24 89.8875 829.042 90.6615 829.042C91.8135 829.042 92.3895 829.492 92.3895 830.122ZM92.3895 832.264V832.732C92.2095 833.056 91.7595 833.272 91.2555 833.272C90.6975 833.272 90.1395 833.038 90.1395 832.48C90.1395 831.94 90.6975 831.706 91.2555 831.706C91.7595 831.706 92.2095 831.922 92.3895 832.264ZM100.266 835V829.096H101.85V826.9H100.266V824.668H97.4576V826.9H96.0536V829.096H97.4576V835H100.266ZM105.119 831.598H110.105V830.77C110.105 828.358 108.827 826.72 106.307 826.72C104.075 826.72 102.383 828.466 102.383 831.004C102.383 833.614 104.147 835.18 106.739 835.18C107.909 835.18 108.899 834.928 109.529 834.46V832.318C108.719 832.804 108.053 832.966 107.189 832.966C106.145 832.966 105.353 832.57 105.119 831.598ZM106.415 828.862C107.099 828.862 107.513 829.33 107.585 830.014H105.155C105.353 829.276 105.803 828.862 106.415 828.862Z" fill="#444444"/>
<path d="M75.69 867.562H77.67C80.064 867.562 81.684 866.212 81.684 863.764C81.684 861.298 80.064 859.948 77.67 859.948H72.828V871H75.69V867.562ZM78.876 863.764C78.876 864.592 78.408 865.15 77.364 865.15H75.69V862.378H77.364C78.408 862.378 78.876 862.918 78.876 863.764ZM90.395 866.95C90.395 864.448 88.721 862.72 86.255 862.72C83.807 862.72 82.115 864.448 82.115 866.95C82.115 869.452 83.807 871.18 86.255 871.18C88.721 871.18 90.395 869.452 90.395 866.95ZM87.623 866.95C87.623 868.066 87.137 868.84 86.255 868.84C85.391 868.84 84.905 868.066 84.905 866.95C84.905 865.834 85.391 865.042 86.255 865.042C87.137 865.042 87.623 865.834 87.623 866.95ZM98.9518 867.292L97.7458 862.9H95.9458L94.7218 867.292L93.4438 862.9H90.6358L93.2458 871H95.6398L96.7918 866.896L97.9438 871H100.338L102.948 862.9H100.248L98.9518 867.292ZM105.91 867.598H110.896V866.77C110.896 864.358 109.618 862.72 107.098 862.72C104.866 862.72 103.174 864.466 103.174 867.004C103.174 869.614 104.938 871.18 107.53 871.18C108.7 871.18 109.69 870.928 110.32 870.46V868.318C109.51 868.804 108.844 868.966 107.98 868.966C106.936 868.966 106.144 868.57 105.91 867.598ZM107.206 864.862C107.89 864.862 108.304 865.33 108.376 866.014H105.946C106.144 865.276 106.594 864.862 107.206 864.862ZM117.462 865.582V862.864C117.336 862.792 117.048 862.72 116.688 862.72C115.878 862.72 115.248 863.08 114.852 863.62V862.9H112.026V871H114.852V866.248C114.996 865.672 115.518 865.33 116.292 865.33C116.742 865.33 117.12 865.402 117.462 865.582Z" fill="#444444"/>
<path d="M72.576 903.616V906.28C73.386 906.766 74.718 907.18 76.194 907.18C78.678 907.18 80.712 906.118 80.712 903.724C80.712 902.032 79.794 900.97 77.778 900.34L76.104 899.836C75.528 899.656 75.186 899.458 75.186 898.954C75.186 898.396 75.816 898.162 76.644 898.162C77.904 898.162 79.002 898.576 79.992 899.26V896.596C79.074 896.092 78.012 895.768 76.518 895.768C74.196 895.768 72.342 896.974 72.342 899.17C72.342 901.006 73.368 901.924 75.222 902.464L76.896 902.95C77.49 903.166 77.832 903.346 77.832 903.886C77.832 904.57 77.04 904.768 76.122 904.768C74.88 904.768 73.53 904.264 72.576 903.616ZM84.2709 903.598H89.2569V902.77C89.2569 900.358 87.9789 898.72 85.4589 898.72C83.2269 898.72 81.5349 900.466 81.5349 903.004C81.5349 905.614 83.2989 907.18 85.8909 907.18C87.0609 907.18 88.0509 906.928 88.6809 906.46V904.318C87.8709 904.804 87.2049 904.966 86.3409 904.966C85.2969 904.966 84.5049 904.57 84.2709 903.598ZM85.5669 900.862C86.2509 900.862 86.6649 901.33 86.7369 902.014H84.3069C84.5049 901.276 84.9549 900.862 85.5669 900.862ZM95.8229 901.582V898.864C95.6969 898.792 95.4089 898.72 95.0489 898.72C94.2389 898.72 93.6089 899.08 93.2129 899.62V898.9H90.3869V907H93.2129V902.248C93.3569 901.672 93.8789 901.33 94.6529 901.33C95.1029 901.33 95.4809 901.402 95.8229 901.582ZM99.9851 896.704C99.9851 895.768 99.2471 895.174 98.3831 895.174C97.5191 895.174 96.7811 895.768 96.7811 896.704C96.7811 897.622 97.5191 898.216 98.3831 898.216C99.2471 898.216 99.9851 897.622 99.9851 896.704ZM99.7871 907V898.9H96.9611V907H99.7871ZM105.766 902.122V902.41C105.442 902.176 104.686 901.96 104.002 901.96C102.256 901.96 100.888 902.968 100.888 904.534C100.888 906.244 102.256 907.144 103.858 907.144C104.722 907.144 105.496 906.856 105.766 906.586V907H108.484V901.996C108.484 899.854 107.116 898.72 104.722 898.72C103.57 898.72 102.49 898.99 101.824 899.35V901.618C102.472 901.24 103.264 901.042 104.038 901.042C105.19 901.042 105.766 901.492 105.766 902.122ZM105.766 904.264V904.732C105.586 905.056 105.136 905.272 104.632 905.272C104.074 905.272 103.516 905.038 103.516 904.48C103.516 903.94 104.074 903.706 104.632 903.706C105.136 903.706 105.586 903.922 105.766 904.264ZM112.76 907V895.3H109.934V907H112.76Z" fill="#444444"/>
<path d="M177.404 751.948H175.982V756.682H169.736V751.948H168.314V763H169.736V757.96H175.982V763H177.404V751.948ZM181.461 758.572H184.125C186.357 758.572 187.815 757.42 187.815 755.26C187.815 753.082 186.357 751.948 184.125 751.948H180.039V763H181.461V758.572ZM186.411 755.26C186.411 756.502 185.601 757.312 184.107 757.312H181.461V753.19H184.107C185.601 753.19 186.411 754 186.411 755.26ZM196.745 751.948H189.707V763H196.745V761.722H191.111V757.96H196.223V756.7H191.111V753.208H196.745V751.948ZM198.016 763.756V764.98H203.902V763.756H198.016ZM205.004 760.606V762.136C205.76 762.73 206.984 763.162 208.478 763.162C210.62 763.162 212.204 762.028 212.204 760.138C212.204 758.608 211.448 757.726 209.756 757.078L208.01 756.394C206.984 755.998 206.354 755.602 206.354 754.666C206.354 753.568 207.308 753.028 208.532 753.028C209.81 753.028 210.8 753.478 211.682 754.18V752.686C210.854 752.11 209.72 751.786 208.514 751.786C206.606 751.786 204.968 752.776 204.968 754.684C204.968 756.43 206.156 757.168 207.452 757.672L209.072 758.302C210.242 758.788 210.836 759.184 210.836 760.156C210.836 761.29 209.9 761.902 208.478 761.902C207.182 761.902 206.03 761.488 205.004 760.606ZM218.386 763.162C220.906 763.162 222.724 761.65 222.724 758.626V751.948H221.302V758.446C221.302 760.804 220.168 761.902 218.386 761.902C216.604 761.902 215.47 760.804 215.47 758.446V751.948H214.066V758.608C214.066 761.65 215.884 763.162 218.386 763.162ZM226.601 758.572H229.265C231.497 758.572 232.955 757.42 232.955 755.26C232.955 753.082 231.497 751.948 229.265 751.948H225.179V763H226.601V758.572ZM231.551 755.26C231.551 756.502 230.741 757.312 229.247 757.312H226.601V753.19H229.247C230.741 753.19 231.551 754 231.551 755.26ZM241.885 751.948H234.847V763H241.885V761.722H236.251V757.96H241.363V756.7H236.251V753.208H241.885V751.948ZM245.533 758.32H247.495L250.663 763H252.283L249.007 758.266C250.753 758.014 251.833 756.988 251.833 755.152C251.833 753.064 250.393 751.948 248.161 751.948H244.111V763H245.533V758.32ZM245.533 757.114V753.19H248.125C249.583 753.19 250.429 753.928 250.429 755.152C250.429 756.376 249.583 757.114 248.125 757.114H245.533ZM254.043 751.948V763H257.589C260.829 763 262.953 760.84 262.953 757.474C262.953 754.108 260.829 751.948 257.589 751.948H254.043ZM257.571 761.722H255.465V753.208H257.571C260.073 753.208 261.549 754.882 261.549 757.474C261.549 760.066 260.073 761.722 257.571 761.722ZM274.371 757.474C274.371 754.126 272.283 751.786 269.367 751.786C266.469 751.786 264.381 754.126 264.381 757.474C264.381 760.804 266.469 763.162 269.367 763.162C272.283 763.162 274.371 760.804 274.371 757.474ZM272.949 757.474C272.949 760.066 271.509 761.884 269.367 761.884C267.243 761.884 265.803 760.066 265.803 757.474C265.803 754.882 267.243 753.064 269.367 753.064C271.509 753.064 272.949 754.882 272.949 757.474ZM281.533 760.534H281.605L285.349 754.504V763H286.735V751.948H285.493L281.587 758.302L277.663 751.948H276.349V763H277.735V754.504L281.533 760.534ZM296.395 751.948H289.357V763H296.395V761.722H290.761V757.96H295.873V756.7H290.761V753.208H296.395V751.948Z" fill="#263040"/>
<path d="M167.666 793.474C167.666 796.93 169.898 799.162 172.85 799.162C174.128 799.162 175.1 798.802 175.82 798.208V796.714C174.92 797.524 174.002 797.884 172.868 797.884C170.636 797.884 169.088 796.138 169.088 793.474C169.088 790.81 170.636 789.064 172.868 789.064C174.002 789.064 174.92 789.406 175.82 790.234V788.74C175.1 788.146 174.128 787.786 172.85 787.786C169.898 787.786 167.666 790.018 167.666 793.474ZM182.031 792.358V790.972C181.887 790.9 181.599 790.846 181.257 790.846C180.375 790.846 179.619 791.368 179.277 792.052V791.008H177.927V799H179.277V793.636C179.547 792.7 180.285 792.142 181.131 792.142C181.473 792.142 181.815 792.214 182.031 792.358ZM185.258 788.596C185.258 788.11 184.862 787.732 184.376 787.732C183.908 787.732 183.512 788.11 183.512 788.596C183.512 789.064 183.908 789.46 184.376 789.46C184.862 789.46 185.258 789.064 185.258 788.596ZM185.06 799V791.008H183.71V799H185.06ZM189.704 799V792.16H191.558V791.008H189.704V788.902H188.354V791.008H186.68V792.16H188.354V799H189.704ZM194.75 788.596C194.75 788.11 194.354 787.732 193.868 787.732C193.4 787.732 193.004 788.11 193.004 788.596C193.004 789.064 193.4 789.46 193.868 789.46C194.354 789.46 194.75 789.064 194.75 788.596ZM194.552 799V791.008H193.202V799H194.552ZM196.388 795.004C196.388 797.56 198.08 799.162 200.24 799.162C201.014 799.162 201.824 798.982 202.382 798.496V797.128C201.806 797.704 201.104 797.956 200.33 797.956C198.908 797.956 197.756 796.84 197.756 795.004C197.756 793.168 198.908 792.052 200.33 792.052C201.104 792.052 201.806 792.304 202.382 792.88V791.512C201.824 791.026 201.014 790.846 200.24 790.846C198.08 790.846 196.388 792.448 196.388 795.004ZM208.74 793.69V794.734C208.398 794.428 207.57 794.086 206.742 794.086C205.032 794.086 203.7 795.094 203.7 796.588C203.7 798.172 205.032 799.144 206.67 799.144C207.606 799.144 208.434 798.73 208.74 798.406V799H210.054V793.582C210.054 791.89 208.938 790.846 207.048 790.846C206.058 790.846 205.104 791.134 204.564 791.512V792.79C205.23 792.358 205.95 792.088 206.832 792.088C208.002 792.088 208.74 792.7 208.74 793.69ZM208.74 796.192V797.02C208.524 797.614 207.732 798.01 206.886 798.01C205.914 798.01 204.978 797.56 204.978 796.588C204.978 795.634 205.914 795.202 206.886 795.202C207.732 795.202 208.524 795.598 208.74 796.192ZM213.712 799V787.3H212.362V799H213.712Z" fill="#263040"/>
<path d="M172.454 835.162C174.974 835.162 176.792 833.65 176.792 830.626V823.948H175.37V830.446C175.37 832.804 174.236 833.902 172.454 833.902C170.672 833.902 169.538 832.804 169.538 830.446V823.948H168.134V830.608C168.134 833.65 169.952 835.162 172.454 835.162ZM179.14 827.008V835H180.49V829.582C180.778 828.718 181.588 828.088 182.524 828.088C183.73 828.088 184.288 828.862 184.288 829.978V835H185.656V829.762C185.656 828.016 184.666 826.846 182.848 826.846C181.822 826.846 180.958 827.386 180.49 828.016V827.008H179.14ZM187.37 831.004C187.37 833.56 189.062 835.162 191.222 835.162C191.996 835.162 192.806 834.982 193.364 834.496V833.128C192.788 833.704 192.086 833.956 191.312 833.956C189.89 833.956 188.738 832.84 188.738 831.004C188.738 829.168 189.89 828.052 191.312 828.052C192.086 828.052 192.788 828.304 193.364 828.88V827.512C192.806 827.026 191.996 826.846 191.222 826.846C189.062 826.846 187.37 828.448 187.37 831.004ZM202.009 831.004C202.009 828.556 200.515 826.846 198.337 826.846C196.141 826.846 194.665 828.556 194.665 831.004C194.665 833.452 196.141 835.162 198.337 835.162C200.515 835.162 202.009 833.452 202.009 831.004ZM200.641 831.004C200.641 832.75 199.777 833.974 198.337 833.974C196.897 833.974 196.033 832.75 196.033 831.004C196.033 829.258 196.897 828.034 198.337 828.034C199.777 828.034 200.641 829.258 200.641 831.004ZM203.837 827.008V835H205.187V829.582C205.475 828.718 206.285 828.088 207.221 828.088C208.427 828.088 208.985 828.862 208.985 829.978V835H210.353V829.762C210.353 828.016 209.363 826.846 207.545 826.846C206.519 826.846 205.655 827.386 205.187 828.016V827.008H203.837ZM216.64 824.542V823.318C216.334 823.192 216.028 823.138 215.596 823.138C214.192 823.138 213.148 824.074 213.148 825.676V827.008H211.798V828.16H213.148V835H214.48V828.16H216.28V827.008H214.48V825.784C214.48 824.83 215.002 824.326 215.794 824.326C216.082 824.326 216.388 824.38 216.64 824.542ZM219.394 824.596C219.394 824.11 218.998 823.732 218.512 823.732C218.044 823.732 217.648 824.11 217.648 824.596C217.648 825.064 218.044 825.46 218.512 825.46C218.998 825.46 219.394 825.064 219.394 824.596ZM219.196 835V827.008H217.846V835H219.196ZM226.828 833.938V834.46C226.828 836.17 225.712 837.016 224.29 837.016C223.354 837.016 222.508 836.764 221.716 836.026V837.52C222.328 837.952 223.264 838.24 224.29 838.24C226.198 838.24 228.196 837.16 228.196 834.37V827.008H226.828V827.908C226.432 827.35 225.586 826.846 224.596 826.846C222.256 826.846 221.032 828.79 221.032 830.932C221.032 833.074 222.256 835.018 224.596 835.018C225.586 835.018 226.432 834.496 226.828 833.938ZM226.828 829.294V832.552C226.414 833.308 225.658 833.794 224.794 833.794C223.282 833.794 222.4 832.588 222.4 830.932C222.4 829.258 223.282 828.052 224.794 828.052C225.658 828.052 226.414 828.538 226.828 829.294ZM236.963 835V827.008H235.595V832.426C235.307 833.29 234.533 833.92 233.597 833.92C232.391 833.92 231.851 833.146 231.851 832.03V827.008H230.483V832.246C230.483 833.992 231.455 835.162 233.273 835.162C234.299 835.162 235.145 834.622 235.595 833.992V835H236.963ZM243.466 828.358V826.972C243.322 826.9 243.034 826.846 242.692 826.846C241.81 826.846 241.054 827.368 240.712 828.052V827.008H239.362V835H240.712V829.636C240.982 828.7 241.72 828.142 242.566 828.142C242.908 828.142 243.25 828.214 243.466 828.358ZM245.673 831.238H251.181V830.752C251.181 828.412 250.065 826.846 247.905 826.846C245.781 826.846 244.341 828.592 244.341 831.076C244.341 833.596 245.889 835.162 248.193 835.162C249.147 835.162 249.975 834.964 250.623 834.46V833.218C249.903 833.758 249.255 833.974 248.355 833.974C246.897 833.974 245.727 833.092 245.673 831.238ZM247.923 827.998C249.219 827.998 249.813 829.006 249.867 830.176H245.745C245.997 828.7 246.861 827.998 247.923 827.998ZM258.294 834.064V835H259.662V823.3H258.294V827.944C257.898 827.368 257.034 826.846 256.044 826.846C253.704 826.846 252.444 828.754 252.444 831.004C252.444 833.272 253.704 835.162 256.044 835.162C257.034 835.162 257.898 834.64 258.294 834.064ZM258.294 829.384V832.624C257.88 833.452 257.088 833.938 256.242 833.938C254.712 833.938 253.812 832.696 253.812 831.004C253.812 829.312 254.712 828.07 256.242 828.07C257.088 828.07 257.88 828.556 258.294 829.384Z" fill="#263040"/>
<path d="M177.404 895.948H175.982V900.682H169.736V895.948H168.314V907H169.736V901.96H175.982V907H177.404V895.948ZM183.405 895.786C181.263 895.786 179.661 897.406 179.661 899.548C179.661 901.672 181.191 903.292 183.315 903.292C183.747 903.292 184.233 903.148 184.521 902.968L182.199 907H183.657L186.177 902.608C186.897 901.348 187.149 900.448 187.149 899.548C187.149 897.406 185.565 895.786 183.405 895.786ZM180.957 899.548C180.957 898.108 182.001 897.01 183.405 897.01C184.809 897.01 185.853 898.108 185.853 899.548C185.853 900.97 184.809 902.086 183.405 902.086C182.001 902.086 180.957 900.97 180.957 899.548ZM193.944 905.902C191.64 905.902 190.164 904.138 190.164 901.474C190.164 898.81 191.766 897.064 194.07 897.064C195.276 897.064 196.32 897.442 197.256 898.288V896.776C196.482 896.164 195.366 895.786 194.07 895.786C191.028 895.786 188.742 898.036 188.742 901.474C188.742 904.894 190.83 907.162 193.908 907.162C195.276 907.162 196.734 906.748 197.796 905.578V901.258H194.052V902.446H196.482V905.056C195.762 905.65 194.952 905.902 193.944 905.902ZM199.268 905.074V906.532C199.736 906.838 200.528 907.162 201.428 907.162C203.552 907.162 204.686 905.992 204.686 903.328V895.948H203.264V903.274C203.264 905.11 202.706 905.866 201.392 905.866C200.582 905.866 199.97 905.578 199.268 905.074ZM206.317 895.948V897.208H210.169V907H211.591V897.208H215.443V895.948H206.317ZM224.846 907V905.722H218.798L224.9 896.02V895.948H216.8V897.208H222.668L216.53 906.928V907H224.846ZM235.922 895.948H234.5V900.682H228.254V895.948H226.832V907H228.254V901.96H234.5V907H235.922V895.948ZM239.69 903.31L243.056 895.948H241.652L237.764 904.426V904.498H242.966V907H244.28V904.498H246.116V903.31H244.28V900.646H242.966V903.31H239.69Z" fill="#263040"/>
<path fill-rule="evenodd" clip-rule="evenodd" d="M47.0115 515L53.0889 508.923L51.9104 507.744L44.6544 515L51.9104 522.256L53.0889 521.077L47.0115 515Z" fill="black"/>
<path d="M70.576 516.616V519.28C71.386 519.766 72.718 520.18 74.194 520.18C76.678 520.18 78.712 519.118 78.712 516.724C78.712 515.032 77.794 513.97 75.778 513.34L74.104 512.836C73.528 512.656 73.186 512.458 73.186 511.954C73.186 511.396 73.816 511.162 74.644 511.162C75.904 511.162 77.002 511.576 77.992 512.26V509.596C77.074 509.092 76.012 508.768 74.518 508.768C72.196 508.768 70.342 509.974 70.342 512.17C70.342 514.006 71.368 514.924 73.222 515.464L74.896 515.95C75.49 516.166 75.832 516.346 75.832 516.886C75.832 517.57 75.04 517.768 74.122 517.768C72.88 517.768 71.53 517.264 70.576 516.616ZM82.2709 516.598H87.2569V515.77C87.2569 513.358 85.9789 511.72 83.4589 511.72C81.2269 511.72 79.5349 513.466 79.5349 516.004C79.5349 518.614 81.2989 520.18 83.8909 520.18C85.0609 520.18 86.0509 519.928 86.6809 519.46V517.318C85.8709 517.804 85.2049 517.966 84.3409 517.966C83.2969 517.966 82.5049 517.57 82.2709 516.598ZM83.5669 513.862C84.2509 513.862 84.6649 514.33 84.7369 515.014H82.3069C82.5049 514.276 82.9549 513.862 83.5669 513.862ZM93.8229 514.582V511.864C93.6969 511.792 93.4089 511.72 93.0489 511.72C92.2389 511.72 91.6089 512.08 91.2129 512.62V511.9H88.3869V520H91.2129V515.248C91.3569 514.672 91.8789 514.33 92.6529 514.33C93.1029 514.33 93.4809 514.402 93.8229 514.582ZM97.4091 520H99.9471L103.043 511.9H100.271L98.7591 516.544L97.2111 511.9H94.3311L97.4091 520ZM105.878 516.598H110.864V515.77C110.864 513.358 109.586 511.72 107.066 511.72C104.834 511.72 103.142 513.466 103.142 516.004C103.142 518.614 104.906 520.18 107.498 520.18C108.668 520.18 109.658 519.928 110.288 519.46V517.318C109.478 517.804 108.812 517.966 107.948 517.966C106.904 517.966 106.112 517.57 105.878 516.598ZM107.174 513.862C107.858 513.862 108.272 514.33 108.344 515.014H105.914C106.112 514.276 106.562 513.862 107.174 513.862ZM117.43 514.582V511.864C117.304 511.792 117.016 511.72 116.656 511.72C115.846 511.72 115.216 512.08 114.82 512.62V511.9H111.994V520H114.82V515.248C114.964 514.672 115.486 514.33 116.26 514.33C116.71 514.33 117.088 514.402 117.43 514.582ZM118.245 517.03V519.406C119.001 519.91 120.189 520.18 121.323 520.18C123.321 520.18 124.815 519.334 124.815 517.606C124.815 516.238 124.113 515.518 122.349 515.05L121.611 514.834C121.215 514.726 120.981 514.618 120.981 514.312C120.981 513.988 121.305 513.826 121.791 513.826C122.709 513.826 123.573 514.204 124.347 514.762V512.44C123.555 511.954 122.673 511.72 121.521 511.72C119.613 511.72 118.209 512.674 118.209 514.366C118.209 515.824 119.163 516.526 120.657 516.85L121.287 517.012C121.773 517.12 122.025 517.246 122.025 517.57C122.025 517.93 121.665 518.056 121.107 518.056C120.279 518.056 119.019 517.66 118.245 517.03Z" fill="black"/>
<path d="M93.168 595V572.896H87.588V585.064L79.056 572.896H73.656V595H79.236V582.076L88.488 595H93.168ZM105.22 585.244V585.82C104.572 585.352 103.06 584.92 101.692 584.92C98.2004 584.92 95.4644 586.936 95.4644 590.068C95.4644 593.488 98.2004 595.288 101.404 595.288C103.132 595.288 104.68 594.712 105.22 594.172V595H110.656V584.992C110.656 580.708 107.92 578.44 103.132 578.44C100.828 578.44 98.6684 578.98 97.3364 579.7V584.236C98.6324 583.48 100.216 583.084 101.764 583.084C104.068 583.084 105.22 583.984 105.22 585.244ZM105.22 589.528V590.464C104.86 591.112 103.96 591.544 102.952 591.544C101.836 591.544 100.72 591.076 100.72 589.96C100.72 588.88 101.836 588.412 102.952 588.412C103.96 588.412 104.86 588.844 105.22 589.528ZM127.847 580.384C126.875 579.232 125.435 578.44 123.383 578.44C121.583 578.44 120.035 579.124 119.207 580.132V578.8H113.555V595H119.207V585.136C119.459 584.02 120.323 583.408 121.295 583.408C122.555 583.408 123.131 584.38 123.131 585.748V595H128.747V585.136C129.035 584.02 129.863 583.408 130.835 583.408C132.095 583.408 132.671 584.38 132.671 585.748V595H138.323V584.38C138.323 580.744 136.235 578.44 132.851 578.44C130.475 578.44 128.819 579.376 127.847 580.384ZM145.831 588.196H155.803V586.54C155.803 581.716 153.247 578.44 148.207 578.44C143.743 578.44 140.359 581.932 140.359 587.008C140.359 592.228 143.887 595.36 149.071 595.36C151.411 595.36 153.391 594.856 154.651 593.92V589.636C153.031 590.608 151.699 590.932 149.971 590.932C147.883 590.932 146.299 590.14 145.831 588.196ZM148.423 582.724C149.791 582.724 150.619 583.66 150.763 585.028H145.903C146.299 583.552 147.199 582.724 148.423 582.724ZM157.235 582.328C157.235 584.236 158.711 585.712 160.547 585.712C162.419 585.712 163.895 584.236 163.895 582.328C163.895 580.42 162.419 578.98 160.547 578.98C158.711 578.98 157.235 580.42 157.235 582.328ZM157.235 591.868C157.235 593.776 158.711 595.252 160.547 595.252C162.419 595.252 163.895 593.776 163.895 591.868C163.895 589.96 162.419 588.52 160.547 588.52C158.711 588.52 157.235 589.96 157.235 591.868ZM193.553 572.896H187.757V581.284H179.225V572.896H173.429V595H179.225V586.252H187.757V595H193.553V572.896ZM202.568 588.124H206.528C211.316 588.124 214.556 585.424 214.556 580.528C214.556 575.596 211.316 572.896 206.528 572.896H196.844V595H202.568V588.124ZM208.94 580.528C208.94 582.184 208.004 583.3 205.916 583.3H202.568V577.756H205.916C208.004 577.756 208.94 578.836 208.94 580.528ZM232.827 572.896H217.023V595H232.827V589.996H222.711V586.18H231.963V581.32H222.711V577.864H232.827V572.896ZM234.755 596.512V600.796H247.031V596.512H234.755ZM248.898 588.232V593.56C250.518 594.532 253.182 595.36 256.134 595.36C261.102 595.36 265.17 593.236 265.17 588.448C265.17 585.064 263.334 582.94 259.302 581.68L255.954 580.672C254.802 580.312 254.118 579.916 254.118 578.908C254.118 577.792 255.378 577.324 257.034 577.324C259.554 577.324 261.75 578.152 263.73 579.52V574.192C261.894 573.184 259.77 572.536 256.782 572.536C252.138 572.536 248.43 574.948 248.43 579.34C248.43 583.012 250.482 584.848 254.19 585.928L257.538 586.9C258.726 587.332 259.41 587.692 259.41 588.772C259.41 590.14 257.826 590.536 255.99 590.536C253.506 590.536 250.806 589.528 248.898 588.232ZM276.939 595.36C282.771 595.36 286.551 592.048 286.551 586V572.896H280.791V585.46C280.791 588.592 279.315 590.212 276.939 590.212C274.527 590.212 273.051 588.592 273.051 585.46V572.896H267.291V585.964C267.291 592.048 271.107 595.36 276.939 595.36ZM295.345 588.124H299.305C304.093 588.124 307.333 585.424 307.333 580.528C307.333 575.596 304.093 572.896 299.305 572.896H289.621V595H295.345V588.124ZM301.717 580.528C301.717 582.184 300.781 583.3 298.693 583.3H295.345V577.756H298.693C300.781 577.756 301.717 578.836 301.717 580.528ZM325.605 572.896H309.801V595H325.605V589.996H315.489V586.18H324.741V581.32H315.489V577.864H325.605V572.896ZM334.193 587.692H336.209L340.817 595H347.225L342.041 587.08C344.741 586.072 346.433 583.768 346.433 580.42C346.433 575.596 343.157 572.896 338.405 572.896H328.469V595H334.193V587.692ZM334.193 583.084V577.756H337.793C339.845 577.756 340.781 578.8 340.781 580.42C340.781 582.04 339.845 583.084 337.793 583.084H334.193ZM349.14 572.896V595H357.492C364.44 595 368.652 590.68 368.652 583.948C368.652 577.216 364.44 572.896 357.492 572.896H349.14ZM357.204 589.996H354.828V577.864H357.204C360.876 577.864 362.928 580.204 362.928 583.948C362.928 587.656 360.876 589.996 357.204 589.996ZM391.99 583.948C391.99 577.324 387.562 572.536 381.154 572.536C374.782 572.536 370.39 577.324 370.39 583.948C370.39 590.536 374.782 595.36 381.154 595.36C387.562 595.36 391.99 590.536 391.99 583.948ZM386.158 583.948C386.158 587.764 384.142 590.284 381.154 590.284C378.166 590.284 376.222 587.764 376.222 583.948C376.222 580.132 378.166 577.612 381.154 577.612C384.142 577.612 386.158 580.132 386.158 583.948ZM405.726 590.248H405.87L411.522 582.328V595H417.21V572.896H411.882L405.798 581.896L399.75 572.896H394.386V595H400.038V582.328L405.726 590.248ZM436.312 572.896H420.508V595H436.312V589.996H426.196V586.18H435.448V581.32H426.196V577.864H436.312V572.896Z" fill="black"/>
<line x1="72" y1="640.5" x2="760" y2="640.5" stroke="#999999"/>
<path d="M312.293 806.293C311.902 806.683 311.902 807.317 312.293 807.707L318.657 814.071C319.047 814.462 319.681 814.462 320.071 814.071C320.462 813.681 320.462 813.047 320.071 812.657L314.414 807L320.071 801.343C320.462 800.953 320.462 800.319 320.071 799.929C319.681 799.538 319.047 799.538 318.657 799.929L312.293 806.293ZM850 353H851V352H850V353ZM850 807V808H851V807H850ZM679 354H850V352H679V354ZM849 353V807H851V353H849ZM850 806H313V808H850V806Z" fill="#FC5A5A"/>
<defs>
<clipPath id="clip0_7821:148041">
<rect width="198" height="144" fill="white" transform="translate(278 230)"/>
</clipPath>
</defs>
</svg>
