<svg width="950" height="911" viewBox="0 0 950 911" fill="none" xmlns="http://www.w3.org/2000/svg">
<rect width="950" height="911" fill="white"/>
<rect x="44" y="190" width="810" height="36" rx="12" fill="white"/>
<rect width="48" height="36" transform="translate(44 190)" fill="white"/>
<rect x="56" y="196" width="24" height="24" rx="2" fill="white" stroke="#999999"/>
<path d="M44 225.5H92" stroke="#999999"/>
<rect x="92" y="190" width="188" height="36" fill="white"/>
<path d="M280 225.5L92 225.5" stroke="#999999"/>
<path d="M114.584 213V201.948H111.794V208.032L107.528 201.948H104.828V213H107.618V206.538L112.244 213H114.584ZM120.61 208.122V208.41C120.286 208.176 119.53 207.96 118.846 207.96C117.1 207.96 115.732 208.968 115.732 210.534C115.732 212.244 117.1 213.144 118.702 213.144C119.566 213.144 120.34 212.856 120.61 212.586V213H123.328V207.996C123.328 205.854 121.96 204.72 119.566 204.72C118.414 204.72 117.334 204.99 116.668 205.35V207.618C117.316 207.24 118.108 207.042 118.882 207.042C120.034 207.042 120.61 207.492 120.61 208.122ZM120.61 210.264V210.732C120.43 211.056 119.98 211.272 119.476 211.272C118.918 211.272 118.36 211.038 118.36 210.48C118.36 209.94 118.918 209.706 119.476 209.706C119.98 209.706 120.43 209.922 120.61 210.264ZM131.923 205.692C131.437 205.116 130.717 204.72 129.691 204.72C128.791 204.72 128.017 205.062 127.603 205.566V204.9H124.777V213H127.603V208.068C127.729 207.51 128.161 207.204 128.647 207.204C129.277 207.204 129.565 207.69 129.565 208.374V213H132.373V208.068C132.517 207.51 132.931 207.204 133.417 207.204C134.047 207.204 134.335 207.69 134.335 208.374V213H137.161V207.69C137.161 205.872 136.117 204.72 134.425 204.72C133.237 204.72 132.409 205.188 131.923 205.692ZM140.915 209.598H145.901V208.77C145.901 206.358 144.623 204.72 142.103 204.72C139.871 204.72 138.179 206.466 138.179 209.004C138.179 211.614 139.943 213.18 142.535 213.18C143.705 213.18 144.695 212.928 145.325 212.46V210.318C144.515 210.804 143.849 210.966 142.985 210.966C141.941 210.966 141.149 210.57 140.915 209.598ZM142.211 206.862C142.895 206.862 143.309 207.33 143.381 208.014H140.951C141.149 207.276 141.599 206.862 142.211 206.862Z" fill="black"/>
<rect x="280" y="190" width="198" height="36" fill="white"/>
<path d="M478 225.5L280 225.5" stroke="#999999"/>
<path d="M292.576 209.616V212.28C293.386 212.766 294.718 213.18 296.194 213.18C298.678 213.18 300.712 212.118 300.712 209.724C300.712 208.032 299.794 206.97 297.778 206.34L296.104 205.836C295.528 205.656 295.186 205.458 295.186 204.954C295.186 204.396 295.816 204.162 296.644 204.162C297.904 204.162 299.002 204.576 299.992 205.26V202.596C299.074 202.092 298.012 201.768 296.518 201.768C294.196 201.768 292.342 202.974 292.342 205.17C292.342 207.006 293.368 207.924 295.222 208.464L296.896 208.95C297.49 209.166 297.832 209.346 297.832 209.886C297.832 210.57 297.04 210.768 296.122 210.768C294.88 210.768 293.53 210.264 292.576 209.616ZM305.535 213V207.096H307.119V204.9H305.535V202.668H302.727V204.9H301.323V207.096H302.727V213H305.535ZM312.39 208.122V208.41C312.066 208.176 311.31 207.96 310.626 207.96C308.88 207.96 307.512 208.968 307.512 210.534C307.512 212.244 308.88 213.144 310.482 213.144C311.346 213.144 312.12 212.856 312.39 212.586V213H315.108V207.996C315.108 205.854 313.74 204.72 311.346 204.72C310.194 204.72 309.114 204.99 308.448 205.35V207.618C309.096 207.24 309.888 207.042 310.662 207.042C311.813 207.042 312.39 207.492 312.39 208.122ZM312.39 210.264V210.732C312.21 211.056 311.76 211.272 311.256 211.272C310.698 211.272 310.14 211.038 310.14 210.48C310.14 209.94 310.698 209.706 311.256 209.706C311.76 209.706 312.21 209.922 312.39 210.264ZM320.266 213V207.096H321.85V204.9H320.266V202.668H317.458V204.9H316.054V207.096H317.458V213H320.266ZM330.679 213V204.9H327.853V209.814C327.709 210.372 327.223 210.714 326.701 210.714C325.981 210.714 325.657 210.228 325.657 209.544V204.9H322.849V210.21C322.849 212.01 323.911 213.18 325.693 213.18C326.611 213.18 327.421 212.802 327.853 212.298V213H330.679ZM331.896 210.03V212.406C332.652 212.91 333.84 213.18 334.974 213.18C336.972 213.18 338.466 212.334 338.466 210.606C338.466 209.238 337.764 208.518 336 208.05L335.262 207.834C334.866 207.726 334.632 207.618 334.632 207.312C334.632 206.988 334.956 206.826 335.442 206.826C336.36 206.826 337.224 207.204 337.998 207.762V205.44C337.206 204.954 336.324 204.72 335.172 204.72C333.264 204.72 331.86 205.674 331.86 207.366C331.86 208.824 332.814 209.526 334.308 209.85L334.938 210.012C335.424 210.12 335.676 210.246 335.676 210.57C335.676 210.93 335.316 211.056 334.758 211.056C333.93 211.056 332.67 210.66 331.896 210.03Z" fill="black"/>
<rect x="478" y="190" width="188" height="36" fill="white"/>
<path d="M666 225.5L478 225.5" stroke="#999999"/>
<path d="M490.576 209.616V212.28C491.386 212.766 492.718 213.18 494.194 213.18C496.678 213.18 498.712 212.118 498.712 209.724C498.712 208.032 497.794 206.97 495.778 206.34L494.104 205.836C493.528 205.656 493.186 205.458 493.186 204.954C493.186 204.396 493.816 204.162 494.644 204.162C495.904 204.162 497.002 204.576 497.992 205.26V202.596C497.074 202.092 496.012 201.768 494.518 201.768C492.196 201.768 490.342 202.974 490.342 205.17C490.342 207.006 491.368 207.924 493.222 208.464L494.896 208.95C495.49 209.166 495.832 209.346 495.832 209.886C495.832 210.57 495.04 210.768 494.122 210.768C492.88 210.768 491.53 210.264 490.576 209.616ZM502.271 209.598H507.257V208.77C507.257 206.358 505.979 204.72 503.459 204.72C501.227 204.72 499.535 206.466 499.535 209.004C499.535 211.614 501.299 213.18 503.891 213.18C505.061 213.18 506.051 212.928 506.681 212.46V210.318C505.871 210.804 505.205 210.966 504.341 210.966C503.297 210.966 502.505 210.57 502.271 209.598ZM503.567 206.862C504.251 206.862 504.665 207.33 504.737 208.014H502.307C502.505 207.276 502.955 206.862 503.567 206.862ZM513.823 207.582V204.864C513.697 204.792 513.409 204.72 513.049 204.72C512.239 204.72 511.609 205.08 511.213 205.62V204.9H508.387V213H511.213V208.248C511.357 207.672 511.879 207.33 512.653 207.33C513.103 207.33 513.481 207.402 513.823 207.582ZM517.985 202.704C517.985 201.768 517.247 201.174 516.383 201.174C515.519 201.174 514.781 201.768 514.781 202.704C514.781 203.622 515.519 204.216 516.383 204.216C517.247 204.216 517.985 203.622 517.985 202.704ZM517.787 213V204.9H514.961V213H517.787ZM523.766 208.122V208.41C523.442 208.176 522.686 207.96 522.002 207.96C520.256 207.96 518.888 208.968 518.888 210.534C518.888 212.244 520.256 213.144 521.858 213.144C522.722 213.144 523.496 212.856 523.766 212.586V213H526.484V207.996C526.484 205.854 525.116 204.72 522.722 204.72C521.57 204.72 520.49 204.99 519.824 205.35V207.618C520.472 207.24 521.264 207.042 522.038 207.042C523.19 207.042 523.766 207.492 523.766 208.122ZM523.766 210.264V210.732C523.586 211.056 523.136 211.272 522.632 211.272C522.074 211.272 521.516 211.038 521.516 210.48C521.516 209.94 522.074 209.706 522.632 209.706C523.136 209.706 523.586 209.922 523.766 210.264ZM530.76 213V201.3H527.934V213H530.76Z" fill="black"/>
<rect x="666" y="190" width="188" height="36" fill="white"/>
<path d="M854 225.5L666 225.5" stroke="#999999"/>
<path d="M681.69 209.562H683.67C686.064 209.562 687.684 208.212 687.684 205.764C687.684 203.298 686.064 201.948 683.67 201.948H678.828V213H681.69V209.562ZM684.876 205.764C684.876 206.592 684.408 207.15 683.364 207.15H681.69V204.378H683.364C684.408 204.378 684.876 204.918 684.876 205.764ZM696.395 208.95C696.395 206.448 694.721 204.72 692.255 204.72C689.807 204.72 688.115 206.448 688.115 208.95C688.115 211.452 689.807 213.18 692.255 213.18C694.721 213.18 696.395 211.452 696.395 208.95ZM693.623 208.95C693.623 210.066 693.137 210.84 692.255 210.84C691.391 210.84 690.905 210.066 690.905 208.95C690.905 207.834 691.391 207.042 692.255 207.042C693.137 207.042 693.623 207.834 693.623 208.95ZM704.952 209.292L703.746 204.9H701.946L700.722 209.292L699.444 204.9H696.636L699.246 213H701.64L702.792 208.896L703.944 213H706.338L708.948 204.9H706.248L704.952 209.292ZM711.91 209.598H716.896V208.77C716.896 206.358 715.618 204.72 713.098 204.72C710.866 204.72 709.174 206.466 709.174 209.004C709.174 211.614 710.938 213.18 713.53 213.18C714.7 213.18 715.69 212.928 716.32 212.46V210.318C715.51 210.804 714.844 210.966 713.98 210.966C712.936 210.966 712.144 210.57 711.91 209.598ZM713.206 206.862C713.89 206.862 714.304 207.33 714.376 208.014H711.946C712.144 207.276 712.594 206.862 713.206 206.862ZM723.462 207.582V204.864C723.336 204.792 723.048 204.72 722.688 204.72C721.878 204.72 721.248 205.08 720.852 205.62V204.9H718.026V213H720.852V208.248C720.996 207.672 721.518 207.33 722.292 207.33C722.742 207.33 723.12 207.402 723.462 207.582Z" fill="black"/>
<rect x="44" y="226" width="810" height="144" rx="12" fill="white"/>
<rect width="48" height="36" transform="translate(44 226)" fill="white"/>
<rect x="56" y="232" width="24" height="24" rx="2" fill="white" stroke="#999999"/>
<rect width="48" height="36" transform="translate(44 262)" fill="white"/>
<rect x="56" y="268" width="24" height="24" rx="2" fill="white" stroke="#999999"/>
<rect width="48" height="36" transform="translate(44 298)" fill="white"/>
<rect x="56" y="304" width="24" height="24" rx="2" fill="white" stroke="#999999"/>
<rect width="48" height="36" transform="translate(44 334)" fill="white"/>
<rect x="56" y="340" width="24" height="24" rx="2" fill="white" stroke="#999999"/>
<rect x="92" y="226" width="188" height="36" fill="white"/>
<path d="M114.89 237.948H111.992V242.142H107.726V237.948H104.828V249H107.726V244.626H111.992V249H114.89V237.948ZM119.397 245.562H121.377C123.771 245.562 125.391 244.212 125.391 241.764C125.391 239.298 123.771 237.948 121.377 237.948H116.535V249H119.397V245.562ZM122.583 241.764C122.583 242.592 122.115 243.15 121.071 243.15H119.397V240.378H121.071C122.115 240.378 122.583 240.918 122.583 241.764ZM134.527 237.948H126.625V249H134.527V246.498H129.469V244.59H134.095V242.16H129.469V240.432H134.527V237.948ZM135.491 249.756V251.898H141.629V249.756H135.491ZM142.562 245.616V248.28C143.372 248.766 144.704 249.18 146.18 249.18C148.664 249.18 150.698 248.118 150.698 245.724C150.698 244.032 149.78 242.97 147.764 242.34L146.09 241.836C145.514 241.656 145.172 241.458 145.172 240.954C145.172 240.396 145.802 240.162 146.63 240.162C147.89 240.162 148.988 240.576 149.978 241.26V238.596C149.06 238.092 147.998 237.768 146.504 237.768C144.182 237.768 142.328 238.974 142.328 241.17C142.328 243.006 143.354 243.924 145.208 244.464L146.882 244.95C147.476 245.166 147.818 245.346 147.818 245.886C147.818 246.57 147.026 246.768 146.108 246.768C144.866 246.768 143.516 246.264 142.562 245.616ZM157.194 246.606C155.52 246.606 154.386 245.382 154.386 243.51C154.386 241.602 155.628 240.432 157.392 240.432C158.742 240.432 159.75 240.828 160.596 241.44V238.632C159.786 238.11 158.616 237.768 157.392 237.768C153.882 237.768 151.488 240.036 151.488 243.51C151.488 246.84 153.648 249.18 157.104 249.18C158.634 249.18 160.056 248.73 161.172 247.704V242.826H157.014V245.13H158.616V246.21C158.256 246.48 157.77 246.606 157.194 246.606ZM165.523 249V237.948H162.625V249H165.523ZM171.048 249.18C173.37 249.18 175.224 247.974 175.224 245.94C175.224 244.644 174.432 243.726 173.442 243.384C174.324 242.952 174.882 242.07 174.882 240.99C174.882 238.902 173.082 237.768 171.048 237.768C169.014 237.768 167.214 238.902 167.214 240.99C167.214 242.07 167.754 242.952 168.654 243.384C167.646 243.726 166.854 244.644 166.854 245.94C166.854 247.974 168.726 249.18 171.048 249.18ZM171.048 242.196C170.346 242.196 169.788 241.746 169.788 241.08C169.788 240.378 170.346 239.928 171.048 239.928C171.75 239.928 172.308 240.378 172.308 241.08C172.308 241.746 171.75 242.196 171.048 242.196ZM171.048 246.948C170.238 246.948 169.626 246.462 169.626 245.724C169.626 244.968 170.238 244.5 171.048 244.5C171.858 244.5 172.47 244.968 172.47 245.724C172.47 246.462 171.858 246.948 171.048 246.948ZM180.381 249.18C182.811 249.18 184.593 247.434 184.593 245.076C184.593 243.042 183.171 241.404 181.011 241.242C180.921 241.242 180.813 241.26 180.741 241.278L182.631 237.948H179.553L177.231 241.962C176.457 243.276 176.187 244.14 176.187 245.076C176.187 247.434 177.969 249.18 180.381 249.18ZM181.983 245.076C181.983 245.994 181.317 246.678 180.381 246.678C179.499 246.678 178.797 245.994 178.797 245.076C178.797 244.176 179.499 243.456 180.381 243.456C181.317 243.456 181.983 244.176 181.983 245.076ZM189.733 249.18C192.451 249.18 194.053 246.84 194.053 243.474C194.053 240.108 192.451 237.768 189.733 237.768C187.015 237.768 185.413 240.108 185.413 243.474C185.413 246.84 187.015 249.18 189.733 249.18ZM189.733 240.306C190.885 240.306 191.245 241.764 191.245 243.474C191.245 245.184 190.885 246.642 189.733 246.642C188.563 246.642 188.221 245.184 188.221 243.474C188.221 241.764 188.563 240.306 189.733 240.306ZM199.084 249.18C201.802 249.18 203.404 246.84 203.404 243.474C203.404 240.108 201.802 237.768 199.084 237.768C196.366 237.768 194.764 240.108 194.764 243.474C194.764 246.84 196.366 249.18 199.084 249.18ZM199.084 240.306C200.236 240.306 200.596 241.764 200.596 243.474C200.596 245.184 200.236 246.642 199.084 246.642C197.914 246.642 197.572 245.184 197.572 243.474C197.572 241.764 197.914 240.306 199.084 240.306Z" fill="#444444"/>
<rect x="92" y="262" width="188" height="36" fill="white"/>
<path d="M114.89 273.948H111.992V278.142H107.726V273.948H104.828V285H107.726V280.626H111.992V285H114.89V273.948ZM119.397 281.562H121.377C123.771 281.562 125.391 280.212 125.391 277.764C125.391 275.298 123.771 273.948 121.377 273.948H116.535V285H119.397V281.562ZM122.583 277.764C122.583 278.592 122.115 279.15 121.071 279.15H119.397V276.378H121.071C122.115 276.378 122.583 276.918 122.583 277.764ZM134.527 273.948H126.625V285H134.527V282.498H129.469V280.59H134.095V278.16H129.469V276.432H134.527V273.948ZM135.491 285.756V287.898H141.629V285.756H135.491ZM149.276 273.948H146.324L142.112 285H144.974L145.748 282.858H149.762L150.554 285H153.488L149.276 273.948ZM146.63 280.482L147.764 277.368L148.898 280.482H146.63ZM157.313 281.562H159.293C161.687 281.562 163.307 280.212 163.307 277.764C163.307 275.298 161.687 273.948 159.293 273.948H154.451V285H157.313V281.562ZM160.499 277.764C160.499 278.592 160.031 279.15 158.987 279.15H157.313V276.378H158.987C160.031 276.378 160.499 276.918 160.499 277.764ZM174.909 279.474C174.909 276.162 172.695 273.768 169.491 273.768C166.305 273.768 164.109 276.162 164.109 279.474C164.109 282.768 166.305 285.18 169.491 285.18C172.695 285.18 174.909 282.768 174.909 279.474ZM171.993 279.474C171.993 281.382 170.985 282.642 169.491 282.642C167.997 282.642 167.025 281.382 167.025 279.474C167.025 277.566 167.997 276.306 169.491 276.306C170.985 276.306 171.993 277.566 171.993 279.474ZM176.107 273.948V285H183.955V282.498H179.005V273.948H176.107ZM185.283 273.948V285H193.131V282.498H188.181V273.948H185.283ZM204.44 279.474C204.44 276.162 202.226 273.768 199.022 273.768C195.836 273.768 193.64 276.162 193.64 279.474C193.64 282.768 195.836 285.18 199.022 285.18C202.226 285.18 204.44 282.768 204.44 279.474ZM201.524 279.474C201.524 281.382 200.516 282.642 199.022 282.642C197.528 282.642 196.556 281.382 196.556 279.474C196.556 277.566 197.528 276.306 199.022 276.306C200.516 276.306 201.524 277.566 201.524 279.474ZM209.491 285.18C211.921 285.18 213.703 283.434 213.703 281.076C213.703 279.042 212.281 277.404 210.121 277.242C210.031 277.242 209.923 277.26 209.851 277.278L211.741 273.948H208.663L206.341 277.962C205.567 279.276 205.297 280.14 205.297 281.076C205.297 283.434 207.079 285.18 209.491 285.18ZM211.093 281.076C211.093 281.994 210.427 282.678 209.491 282.678C208.609 282.678 207.907 281.994 207.907 281.076C207.907 280.176 208.609 279.456 209.491 279.456C210.427 279.456 211.093 280.176 211.093 281.076ZM218.59 277.746C218.248 277.746 217.87 277.782 217.654 277.836V276.432H222.118V273.948H215.404V280.482C216.106 280.212 217.096 280.05 217.978 280.05C219.166 280.05 220.066 280.518 220.066 281.472C220.066 282.408 219.13 282.84 218.086 282.84C216.934 282.84 215.8 282.336 215.026 281.652V284.262C215.818 284.784 216.898 285.18 218.32 285.18C220.858 285.18 222.748 283.722 222.748 281.436C222.748 279.132 220.948 277.746 218.59 277.746ZM228.194 285.18C230.912 285.18 232.514 282.84 232.514 279.474C232.514 276.108 230.912 273.768 228.194 273.768C225.476 273.768 223.874 276.108 223.874 279.474C223.874 282.84 225.476 285.18 228.194 285.18ZM228.194 276.306C229.346 276.306 229.706 277.764 229.706 279.474C229.706 281.184 229.346 282.642 228.194 282.642C227.024 282.642 226.682 281.184 226.682 279.474C226.682 277.764 227.024 276.306 228.194 276.306ZM237.545 285.18C240.263 285.18 241.865 282.84 241.865 279.474C241.865 276.108 240.263 273.768 237.545 273.768C234.827 273.768 233.225 276.108 233.225 279.474C233.225 282.84 234.827 285.18 237.545 285.18ZM237.545 276.306C238.697 276.306 239.057 277.764 239.057 279.474C239.057 281.184 238.697 282.642 237.545 282.642C236.375 282.642 236.033 281.184 236.033 279.474C236.033 277.764 236.375 276.306 237.545 276.306Z" fill="#444444"/>
<rect x="92" y="298" width="188" height="36" fill="white"/>
<path d="M114.584 321V309.948H111.794V316.032L107.528 309.948H104.828V321H107.618V314.538L112.244 321H114.584ZM124.012 316.95C124.012 314.448 122.338 312.72 119.872 312.72C117.424 312.72 115.732 314.448 115.732 316.95C115.732 319.452 117.424 321.18 119.872 321.18C122.338 321.18 124.012 319.452 124.012 316.95ZM121.24 316.95C121.24 318.066 120.754 318.84 119.872 318.84C119.008 318.84 118.522 318.066 118.522 316.95C118.522 315.834 119.008 315.042 119.872 315.042C120.754 315.042 121.24 315.834 121.24 316.95ZM128.785 321V315.096H130.369V312.9H128.785V310.668H125.977V312.9H124.573V315.096H125.977V321H128.785ZM134.72 318.03V320.406C135.476 320.91 136.664 321.18 137.798 321.18C139.796 321.18 141.29 320.334 141.29 318.606C141.29 317.238 140.588 316.518 138.824 316.05L138.086 315.834C137.69 315.726 137.456 315.618 137.456 315.312C137.456 314.988 137.78 314.826 138.266 314.826C139.184 314.826 140.048 315.204 140.822 315.762V313.44C140.03 312.954 139.148 312.72 137.996 312.72C136.088 312.72 134.684 313.674 134.684 315.366C134.684 316.824 135.638 317.526 137.132 317.85L137.762 318.012C138.248 318.12 138.5 318.246 138.5 318.57C138.5 318.93 138.14 319.056 137.582 319.056C136.754 319.056 135.494 318.66 134.72 318.03ZM144.765 317.598H149.751V316.77C149.751 314.358 148.473 312.72 145.953 312.72C143.721 312.72 142.029 314.466 142.029 317.004C142.029 319.614 143.793 321.18 146.385 321.18C147.555 321.18 148.545 320.928 149.175 320.46V318.318C148.365 318.804 147.699 318.966 146.835 318.966C145.791 318.966 144.999 318.57 144.765 317.598ZM146.061 314.862C146.745 314.862 147.159 315.33 147.231 316.014H144.801C144.999 315.276 145.449 314.862 146.061 314.862ZM154.59 321V315.096H156.174V312.9H154.59V310.668H151.782V312.9H150.378V315.096H151.782V321H154.59Z" fill="#444444"/>
<rect x="92" y="334" width="188" height="36" fill="white"/>
<path d="M114.89 345.948H111.992V350.142H107.726V345.948H104.828V357H107.726V352.626H111.992V357H114.89V345.948ZM119.397 353.562H121.377C123.771 353.562 125.391 352.212 125.391 349.764C125.391 347.298 123.771 345.948 121.377 345.948H116.535V357H119.397V353.562ZM122.583 349.764C122.583 350.592 122.115 351.15 121.071 351.15H119.397V348.378H121.071C122.115 348.378 122.583 348.918 122.583 349.764ZM134.527 345.948H126.625V357H134.527V354.498H129.469V352.59H134.095V350.16H129.469V348.432H134.527V345.948ZM135.491 357.756V359.898H141.629V357.756H135.491ZM142.562 353.616V356.28C143.372 356.766 144.704 357.18 146.18 357.18C148.664 357.18 150.698 356.118 150.698 353.724C150.698 352.032 149.78 350.97 147.764 350.34L146.09 349.836C145.514 349.656 145.172 349.458 145.172 348.954C145.172 348.396 145.802 348.162 146.63 348.162C147.89 348.162 148.988 348.576 149.978 349.26V346.596C149.06 346.092 147.998 345.768 146.504 345.768C144.182 345.768 142.328 346.974 142.328 349.17C142.328 351.006 143.354 351.924 145.208 352.464L146.882 352.95C147.476 353.166 147.818 353.346 147.818 353.886C147.818 354.57 147.026 354.768 146.108 354.768C144.866 354.768 143.516 354.264 142.562 353.616ZM156.583 357.18C159.499 357.18 161.389 355.524 161.389 352.5V345.948H158.509V352.23C158.509 353.796 157.771 354.606 156.583 354.606C155.377 354.606 154.639 353.796 154.639 352.23V345.948H151.759V352.482C151.759 355.524 153.667 357.18 156.583 357.18ZM165.786 353.562H167.766C170.16 353.562 171.78 352.212 171.78 349.764C171.78 347.298 170.16 345.948 167.766 345.948H162.924V357H165.786V353.562ZM168.972 349.764C168.972 350.592 168.504 351.15 167.46 351.15H165.786V348.378H167.46C168.504 348.378 168.972 348.918 168.972 349.764ZM180.916 345.948H173.014V357H180.916V354.498H175.858V352.59H180.484V350.16H175.858V348.432H180.916V345.948ZM185.21 353.346H186.218L188.522 357H191.726L189.134 353.04C190.484 352.536 191.33 351.384 191.33 349.71C191.33 347.298 189.692 345.948 187.316 345.948H182.348V357H185.21V353.346ZM185.21 351.042V348.378H187.01C188.036 348.378 188.504 348.9 188.504 349.71C188.504 350.52 188.036 351.042 187.01 351.042H185.21ZM192.683 345.948V357H196.859C200.333 357 202.439 354.84 202.439 351.474C202.439 348.108 200.333 345.948 196.859 345.948H192.683ZM196.715 354.498H195.527V348.432H196.715C198.551 348.432 199.577 349.602 199.577 351.474C199.577 353.328 198.551 354.498 196.715 354.498ZM214.108 351.474C214.108 348.162 211.894 345.768 208.69 345.768C205.504 345.768 203.308 348.162 203.308 351.474C203.308 354.768 205.504 357.18 208.69 357.18C211.894 357.18 214.108 354.768 214.108 351.474ZM211.192 351.474C211.192 353.382 210.184 354.642 208.69 354.642C207.196 354.642 206.224 353.382 206.224 351.474C206.224 349.566 207.196 348.306 208.69 348.306C210.184 348.306 211.192 349.566 211.192 351.474ZM220.977 354.624H221.049L223.875 350.664V357H226.719V345.948H224.055L221.013 350.448L217.989 345.948H215.307V357H218.133V350.664L220.977 354.624ZM236.269 345.948H228.367V357H236.269V354.498H231.211V352.59H235.837V350.16H231.211V348.432H236.269V345.948Z" fill="#444444"/>
<g clip-path="url(#clip0_7795:148151)">
<path d="M298 249C300.761 249 303 246.761 303 244C303 241.239 300.761 239 298 239C295.239 239 293 241.239 293 244C293 246.761 295.239 249 298 249Z" fill="#17EBA0" stroke="#17EBA0"/>
<rect x="304" y="226" width="176" height="36" fill="white"/>
<path d="M325.9 249V237.948H324.55V246.354L318.664 237.948H317.314V249H318.682V240.216L324.856 249H325.9ZM335.189 245.004C335.189 242.556 333.695 240.846 331.517 240.846C329.321 240.846 327.845 242.556 327.845 245.004C327.845 247.452 329.321 249.162 331.517 249.162C333.695 249.162 335.189 247.452 335.189 245.004ZM333.821 245.004C333.821 246.75 332.957 247.974 331.517 247.974C330.077 247.974 329.213 246.75 329.213 245.004C329.213 243.258 330.077 242.034 331.517 242.034C332.957 242.034 333.821 243.258 333.821 245.004ZM341.121 242.358V240.972C340.977 240.9 340.689 240.846 340.347 240.846C339.465 240.846 338.709 241.368 338.367 242.052V241.008H337.017V249H338.367V243.636C338.637 242.7 339.375 242.142 340.221 242.142C340.563 242.142 340.905 242.214 341.121 242.358ZM348.47 242.124C348.092 241.368 347.318 240.846 346.31 240.846C345.32 240.846 344.546 241.314 344.15 241.944V241.008H342.8V249H344.15V243.492C344.402 242.628 345.104 242.07 345.914 242.07C346.94 242.07 347.426 242.808 347.426 243.924V249H348.776V243.492C349.028 242.628 349.73 242.07 350.54 242.07C351.566 242.07 352.052 242.808 352.052 243.924V249H353.42V243.708C353.42 241.98 352.52 240.846 350.9 240.846C349.784 240.846 348.974 241.404 348.47 242.124ZM360.148 243.69V244.734C359.806 244.428 358.978 244.086 358.15 244.086C356.44 244.086 355.108 245.094 355.108 246.588C355.108 248.172 356.44 249.144 358.078 249.144C359.014 249.144 359.842 248.73 360.148 248.406V249H361.462V243.582C361.462 241.89 360.346 240.846 358.456 240.846C357.466 240.846 356.512 241.134 355.972 241.512V242.79C356.638 242.358 357.358 242.088 358.24 242.088C359.41 242.088 360.148 242.7 360.148 243.69ZM360.148 246.192V247.02C359.932 247.614 359.14 248.01 358.294 248.01C357.322 248.01 356.386 247.56 356.386 246.588C356.386 245.634 357.322 245.202 358.294 245.202C359.14 245.202 359.932 245.598 360.148 246.192ZM365.12 249V237.3H363.77V249H365.12Z" fill="#444444"/>
<path fill-rule="evenodd" clip-rule="evenodd" d="M298 275L303 284H293L298 275Z" fill="#FFBC44" stroke="#FFBC44" stroke-linejoin="round"/>
<rect x="304" y="262" width="176" height="36" fill="white"/>
<path d="M323.488 273.948H322.354L320.014 282.732L317.746 273.948H316.342L319.276 285H320.554L322.912 276.378L325.234 285H326.53L329.464 273.948H328.096L325.828 282.732L323.488 273.948ZM334.941 279.69V280.734C334.599 280.428 333.771 280.086 332.943 280.086C331.233 280.086 329.901 281.094 329.901 282.588C329.901 284.172 331.233 285.144 332.871 285.144C333.807 285.144 334.635 284.73 334.941 284.406V285H336.255V279.582C336.255 277.89 335.139 276.846 333.249 276.846C332.259 276.846 331.305 277.134 330.765 277.512V278.79C331.431 278.358 332.151 278.088 333.033 278.088C334.203 278.088 334.941 278.7 334.941 279.69ZM334.941 282.192V283.02C334.725 283.614 333.933 284.01 333.087 284.01C332.115 284.01 331.179 283.56 331.179 282.588C331.179 281.634 332.115 281.202 333.087 281.202C333.933 281.202 334.725 281.598 334.941 282.192ZM342.667 278.358V276.972C342.523 276.9 342.235 276.846 341.893 276.846C341.011 276.846 340.255 277.368 339.913 278.052V277.008H338.563V285H339.913V279.636C340.183 278.7 340.921 278.142 341.767 278.142C342.109 278.142 342.451 278.214 342.667 278.358ZM344.347 277.008V285H345.697V279.582C345.985 278.718 346.795 278.088 347.731 278.088C348.937 278.088 349.495 278.862 349.495 279.978V285H350.863V279.762C350.863 278.016 349.873 276.846 348.055 276.846C347.029 276.846 346.165 277.386 345.697 278.016V277.008H344.347ZM354.701 274.596C354.701 274.11 354.305 273.732 353.819 273.732C353.351 273.732 352.955 274.11 352.955 274.596C352.955 275.064 353.351 275.46 353.819 275.46C354.305 275.46 354.701 275.064 354.701 274.596ZM354.503 285V277.008H353.153V285H354.503ZM356.915 277.008V285H358.265V279.582C358.553 278.718 359.363 278.088 360.299 278.088C361.505 278.088 362.063 278.862 362.063 279.978V285H363.431V279.762C363.431 278.016 362.441 276.846 360.623 276.846C359.597 276.846 358.733 277.386 358.265 278.016V277.008H356.915ZM370.942 283.938V284.46C370.942 286.17 369.826 287.016 368.404 287.016C367.468 287.016 366.622 286.764 365.83 286.026V287.52C366.442 287.952 367.378 288.24 368.404 288.24C370.312 288.24 372.31 287.16 372.31 284.37V277.008H370.942V277.908C370.546 277.35 369.7 276.846 368.71 276.846C366.37 276.846 365.146 278.79 365.146 280.932C365.146 283.074 366.37 285.018 368.71 285.018C369.7 285.018 370.546 284.496 370.942 283.938ZM370.942 279.294V282.552C370.528 283.308 369.772 283.794 368.908 283.794C367.396 283.794 366.514 282.588 366.514 280.932C366.514 279.258 367.396 278.052 368.908 278.052C369.772 278.052 370.528 278.538 370.942 279.294Z" fill="#444444"/>
<path d="M302 311H294C293.448 311 293 311.448 293 312V320C293 320.552 293.448 321 294 321H302C302.552 321 303 320.552 303 320V312C303 311.448 302.552 311 302 311Z" fill="#CCCCCC" stroke="#CCCCCC"/>
<rect x="304" y="298" width="176" height="36" fill="white"/>
<path d="M321.454 321.162C323.974 321.162 325.792 319.65 325.792 316.626V309.948H324.37V316.446C324.37 318.804 323.236 319.902 321.454 319.902C319.672 319.902 318.538 318.804 318.538 316.446V309.948H317.134V316.608C317.134 319.65 318.952 321.162 321.454 321.162ZM328.14 313.008V321H329.49V315.582C329.778 314.718 330.588 314.088 331.524 314.088C332.73 314.088 333.288 314.862 333.288 315.978V321H334.656V315.762C334.656 314.016 333.666 312.846 331.848 312.846C330.822 312.846 329.958 313.386 329.49 314.016V313.008H328.14ZM343.66 321L339.664 316.662L343.588 313.008H341.842L338.296 316.374V309.3H336.946V321H338.296V317.04L341.986 321H343.66ZM344.962 313.008V321H346.312V315.582C346.6 314.718 347.41 314.088 348.346 314.088C349.552 314.088 350.11 314.862 350.11 315.978V321H351.478V315.762C351.478 314.016 350.488 312.846 348.67 312.846C347.644 312.846 346.78 313.386 346.312 314.016V313.008H344.962ZM360.537 317.004C360.537 314.556 359.043 312.846 356.865 312.846C354.669 312.846 353.193 314.556 353.193 317.004C353.193 319.452 354.669 321.162 356.865 321.162C359.043 321.162 360.537 319.452 360.537 317.004ZM359.169 317.004C359.169 318.75 358.305 319.974 356.865 319.974C355.425 319.974 354.561 318.75 354.561 317.004C354.561 315.258 355.425 314.034 356.865 314.034C358.305 314.034 359.169 315.258 359.169 317.004ZM369.078 319.11L367.44 313.008H366.234L364.596 319.11L362.832 313.008H361.482L363.84 321H365.154L366.828 314.934L368.484 321H369.798L372.156 313.008H370.842L369.078 319.11ZM373.685 313.008V321H375.035V315.582C375.323 314.718 376.133 314.088 377.069 314.088C378.275 314.088 378.833 314.862 378.833 315.978V321H380.201V315.762C380.201 314.016 379.211 312.846 377.393 312.846C376.367 312.846 375.503 313.386 375.035 314.016V313.008H373.685Z" fill="#444444"/>
<path fill-rule="evenodd" clip-rule="evenodd" d="M298.712 347.263C298.319 346.869 297.683 346.867 297.287 347.263L293.263 351.287C292.869 351.681 292.867 352.316 293.263 352.712L297.287 356.737C297.681 357.13 298.316 357.132 298.712 356.737L302.737 352.712C303.13 352.319 303.132 351.683 302.737 351.287L298.712 347.263Z" fill="#FC5A5A" stroke="#FC5A5A"/>
<rect x="304" y="334" width="176" height="36" fill="white"/>
<path d="M316.666 351.474C316.666 354.93 318.898 357.162 321.85 357.162C323.128 357.162 324.1 356.802 324.82 356.208V354.714C323.92 355.524 323.002 355.884 321.868 355.884C319.636 355.884 318.088 354.138 318.088 351.474C318.088 348.81 319.636 347.064 321.868 347.064C323.002 347.064 323.92 347.406 324.82 348.234V346.74C324.1 346.146 323.128 345.786 321.85 345.786C318.898 345.786 316.666 348.018 316.666 351.474ZM331.031 350.358V348.972C330.887 348.9 330.599 348.846 330.257 348.846C329.375 348.846 328.619 349.368 328.277 350.052V349.008H326.927V357H328.277V351.636C328.547 350.7 329.285 350.142 330.131 350.142C330.473 350.142 330.815 350.214 331.031 350.358ZM334.258 346.596C334.258 346.11 333.862 345.732 333.376 345.732C332.908 345.732 332.512 346.11 332.512 346.596C332.512 347.064 332.908 347.46 333.376 347.46C333.862 347.46 334.258 347.064 334.258 346.596ZM334.06 357V349.008H332.71V357H334.06ZM338.704 357V350.16H340.558V349.008H338.704V346.902H337.354V349.008H335.68V350.16H337.354V357H338.704ZM343.75 346.596C343.75 346.11 343.354 345.732 342.868 345.732C342.4 345.732 342.004 346.11 342.004 346.596C342.004 347.064 342.4 347.46 342.868 347.46C343.354 347.46 343.75 347.064 343.75 346.596ZM343.552 357V349.008H342.202V357H343.552ZM345.388 353.004C345.388 355.56 347.08 357.162 349.24 357.162C350.014 357.162 350.824 356.982 351.382 356.496V355.128C350.806 355.704 350.104 355.956 349.33 355.956C347.908 355.956 346.756 354.84 346.756 353.004C346.756 351.168 347.908 350.052 349.33 350.052C350.104 350.052 350.806 350.304 351.382 350.88V349.512C350.824 349.026 350.014 348.846 349.24 348.846C347.08 348.846 345.388 350.448 345.388 353.004ZM357.74 351.69V352.734C357.398 352.428 356.57 352.086 355.742 352.086C354.032 352.086 352.7 353.094 352.7 354.588C352.7 356.172 354.032 357.144 355.67 357.144C356.606 357.144 357.434 356.73 357.74 356.406V357H359.054V351.582C359.054 349.89 357.938 348.846 356.048 348.846C355.058 348.846 354.104 349.134 353.564 349.512V350.79C354.23 350.358 354.95 350.088 355.832 350.088C357.002 350.088 357.74 350.7 357.74 351.69ZM357.74 354.192V355.02C357.524 355.614 356.732 356.01 355.886 356.01C354.914 356.01 353.978 355.56 353.978 354.588C353.978 353.634 354.914 353.202 355.886 353.202C356.732 353.202 357.524 353.598 357.74 354.192ZM362.712 357V345.3H361.362V357H362.712Z" fill="#444444"/>
</g>
<rect x="478" y="226" width="188" height="36" fill="white"/>
<path d="M492.736 244.32H494.698L497.866 249H499.486L496.21 244.266C497.956 244.014 499.036 242.988 499.036 241.152C499.036 239.064 497.596 237.948 495.364 237.948H491.314V249H492.736V244.32ZM492.736 243.114V239.19H495.328C496.786 239.19 497.632 239.928 497.632 241.152C497.632 242.376 496.786 243.114 495.328 243.114H492.736ZM500.705 246.606V248.136C501.461 248.73 502.685 249.162 504.179 249.162C506.321 249.162 507.905 248.028 507.905 246.138C507.905 244.608 507.149 243.726 505.457 243.078L503.711 242.394C502.685 241.998 502.055 241.602 502.055 240.666C502.055 239.568 503.009 239.028 504.233 239.028C505.511 239.028 506.501 239.478 507.383 240.18V238.686C506.555 238.11 505.421 237.786 504.215 237.786C502.307 237.786 500.669 238.776 500.669 240.684C500.669 242.43 501.857 243.168 503.153 243.672L504.773 244.302C505.943 244.788 506.537 245.184 506.537 246.156C506.537 247.29 505.601 247.902 504.179 247.902C502.883 247.902 501.731 247.488 500.705 246.606ZM511.369 244.32H513.331L516.499 249H518.119L514.843 244.266C516.589 244.014 517.669 242.988 517.669 241.152C517.669 239.064 516.229 237.948 513.997 237.948H509.947V249H511.369V244.32ZM511.369 243.114V239.19H513.961C515.419 239.19 516.265 239.928 516.265 241.152C516.265 242.376 515.419 243.114 513.961 243.114H511.369ZM525.062 246.534H525.134L528.878 240.504V249H530.264V237.948H529.022L525.116 244.302L521.192 237.948H519.878V249H521.264V240.504L525.062 246.534ZM536.216 249H537.548L541.814 237.948H540.374L536.9 247.128L533.444 237.948H531.95L536.216 249ZM548.003 243.348L551.765 237.948H550.199L547.211 242.25L544.259 237.948H542.639L546.401 243.384L542.495 249H544.061L547.175 244.5L550.307 249H551.927L548.003 243.348ZM557.663 249.162C560.183 249.162 562.001 247.65 562.001 244.626V237.948H560.579V244.446C560.579 246.804 559.445 247.902 557.663 247.902C555.881 247.902 554.747 246.804 554.747 244.446V237.948H553.343V244.608C553.343 247.65 555.161 249.162 557.663 249.162ZM565.591 245.31L568.957 237.948H567.553L563.665 246.426V246.498H568.867V249H570.181V246.498H572.017V245.31H570.181V242.646H568.867V245.31H565.591Z" fill="#444444"/>
<rect x="478" y="262" width="188" height="36" fill="white"/>
<path d="M492.736 280.32H494.698L497.866 285H499.486L496.21 280.266C497.956 280.014 499.036 278.988 499.036 277.152C499.036 275.064 497.596 273.948 495.364 273.948H491.314V285H492.736V280.32ZM492.736 279.114V275.19H495.328C496.786 275.19 497.632 275.928 497.632 277.152C497.632 278.376 496.786 279.114 495.328 279.114H492.736ZM500.705 282.606V284.136C501.461 284.73 502.685 285.162 504.179 285.162C506.321 285.162 507.905 284.028 507.905 282.138C507.905 280.608 507.149 279.726 505.457 279.078L503.711 278.394C502.685 277.998 502.055 277.602 502.055 276.666C502.055 275.568 503.009 275.028 504.233 275.028C505.511 275.028 506.501 275.478 507.383 276.18V274.686C506.555 274.11 505.421 273.786 504.215 273.786C502.307 273.786 500.669 274.776 500.669 276.684C500.669 278.43 501.857 279.168 503.153 279.672L504.773 280.302C505.943 280.788 506.537 281.184 506.537 282.156C506.537 283.29 505.601 283.902 504.179 283.902C502.883 283.902 501.731 283.488 500.705 282.606ZM511.369 278.862V273.948H509.947V285H511.369V279.798L516.463 285H518.299L512.701 279.24L518.137 273.948H516.355L511.369 278.862ZM521.318 280.32H523.28L526.448 285H528.068L524.792 280.266C526.538 280.014 527.618 278.988 527.618 277.152C527.618 275.064 526.178 273.948 523.946 273.948H519.896V285H521.318V280.32ZM521.318 279.114V275.19H523.91C525.368 275.19 526.214 275.928 526.214 277.152C526.214 278.376 525.368 279.114 523.91 279.114H521.318ZM535.012 282.534H535.084L538.828 276.504V285H540.214V273.948H538.972L535.066 280.302L531.142 273.948H529.828V285H531.214V276.504L535.012 282.534ZM546.975 285.162C549.495 285.162 551.313 283.65 551.313 280.626V273.948H549.891V280.446C549.891 282.804 548.757 283.902 546.975 283.902C545.193 283.902 544.059 282.804 544.059 280.446V273.948H542.655V280.608C542.655 283.65 544.473 285.162 546.975 285.162ZM553.121 279.474C553.121 282.93 555.353 285.162 558.305 285.162C559.583 285.162 560.555 284.802 561.275 284.208V282.714C560.375 283.524 559.457 283.884 558.323 283.884C556.091 283.884 554.543 282.138 554.543 279.474C554.543 276.81 556.091 275.064 558.323 275.064C559.457 275.064 560.375 275.406 561.275 276.234V274.74C560.555 274.146 559.583 273.786 558.305 273.786C555.353 273.786 553.121 276.018 553.121 279.474ZM570.279 273.948L567.093 279.168L563.907 273.948H562.359L566.355 280.446V285H567.759V280.446L571.791 273.948H570.279Z" fill="#444444"/>
<rect x="478" y="298" width="188" height="36" fill="white"/>
<path d="M490.522 319.074V320.532C490.99 320.838 491.782 321.162 492.682 321.162C494.806 321.162 495.94 319.992 495.94 317.328V309.948H494.518V317.274C494.518 319.11 493.96 319.866 492.646 319.866C491.836 319.866 491.224 319.578 490.522 319.074ZM502.899 319.902C500.595 319.902 499.119 318.138 499.119 315.474C499.119 312.81 500.721 311.064 503.025 311.064C504.231 311.064 505.275 311.442 506.211 312.288V310.776C505.437 310.164 504.321 309.786 503.025 309.786C499.983 309.786 497.697 312.036 497.697 315.474C497.697 318.894 499.785 321.162 502.863 321.162C504.231 321.162 505.689 320.748 506.751 319.578V315.258H503.007V316.446H505.437V319.056C504.717 319.65 503.907 319.902 502.899 319.902ZM516.053 309.948H509.015V321H516.053V319.722H510.419V315.96H515.531V314.7H510.419V311.208H516.053V309.948ZM518.279 321H519.701V316.194H524.705V314.934H519.701V311.208H525.029V309.948H518.279V321ZM534.557 321V319.722H528.509L534.611 310.02V309.948H526.511V311.208H532.379L526.241 320.928V321H534.557ZM540.63 321.162C543.15 321.162 544.968 319.65 544.968 316.626V309.948H543.546V316.446C543.546 318.804 542.412 319.902 540.63 319.902C538.848 319.902 537.714 318.804 537.714 316.446V309.948H536.31V316.608C536.31 319.65 538.128 321.162 540.63 321.162ZM551.841 309.948H550.509L546.189 321H547.629L548.889 317.67H553.443L554.721 321H556.161L551.841 309.948ZM549.357 316.428L551.157 311.712L552.957 316.428H549.357ZM565.389 321V319.722H559.341L565.443 310.02V309.948H557.343V311.208H563.211L557.073 320.928V321H565.389Z" fill="#444444"/>
<rect x="478" y="334" width="188" height="36" fill="white"/>
<path d="M500.404 345.948H498.982V350.682H492.736V345.948H491.314V357H492.736V351.96H498.982V357H500.404V345.948ZM506.405 345.786C504.263 345.786 502.661 347.406 502.661 349.548C502.661 351.672 504.191 353.292 506.315 353.292C506.747 353.292 507.233 353.148 507.521 352.968L505.199 357H506.657L509.177 352.608C509.897 351.348 510.149 350.448 510.149 349.548C510.149 347.406 508.565 345.786 506.405 345.786ZM503.957 349.548C503.957 348.108 505.001 347.01 506.405 347.01C507.809 347.01 508.853 348.108 508.853 349.548C508.853 350.97 507.809 352.086 506.405 352.086C505.001 352.086 503.957 350.97 503.957 349.548ZM516.944 355.902C514.64 355.902 513.164 354.138 513.164 351.474C513.164 348.81 514.766 347.064 517.07 347.064C518.276 347.064 519.32 347.442 520.256 348.288V346.776C519.482 346.164 518.366 345.786 517.07 345.786C514.028 345.786 511.742 348.036 511.742 351.474C511.742 354.894 513.83 357.162 516.908 357.162C518.276 357.162 519.734 356.748 520.796 355.578V351.258H517.052V352.446H519.482V355.056C518.762 355.65 517.952 355.902 516.944 355.902ZM522.268 355.074V356.532C522.736 356.838 523.528 357.162 524.428 357.162C526.552 357.162 527.686 355.992 527.686 353.328V345.948H526.264V353.274C526.264 355.11 525.706 355.866 524.392 355.866C523.582 355.866 522.97 355.578 522.268 355.074ZM529.317 345.948V347.208H533.169V357H534.591V347.208H538.443V345.948H529.317ZM547.846 357V355.722H541.798L547.9 346.02V345.948H539.8V347.208H545.668L539.53 356.928V357H547.846ZM558.922 345.948H557.5V350.682H551.254V345.948H549.832V357H551.254V351.96H557.5V357H558.922V345.948ZM562.69 353.31L566.056 345.948H564.652L560.764 354.426V354.498H565.966V357H567.28V354.498H569.116V353.31H567.28V350.646H565.966V353.31H562.69Z" fill="#444444"/>
<rect x="666" y="226" width="188" height="36" fill="white"/>
<path d="M688.656 243.474C688.656 240.126 686.568 237.786 683.652 237.786C680.754 237.786 678.666 240.126 678.666 243.474C678.666 246.804 680.754 249.162 683.652 249.162C686.568 249.162 688.656 246.804 688.656 243.474ZM687.234 243.474C687.234 246.066 685.794 247.884 683.652 247.884C681.528 247.884 680.088 246.066 680.088 243.474C680.088 240.882 681.528 239.064 683.652 239.064C685.794 239.064 687.234 240.882 687.234 243.474ZM690.526 241.008V249H691.876V243.582C692.164 242.718 692.974 242.088 693.91 242.088C695.116 242.088 695.674 242.862 695.674 243.978V249H697.042V243.762C697.042 242.016 696.052 240.846 694.234 240.846C693.208 240.846 692.344 241.386 691.876 242.016V241.008H690.526Z" fill="#444444"/>
<rect x="666" y="262" width="188" height="36" fill="white"/>
<path d="M688.656 279.474C688.656 276.126 686.568 273.786 683.652 273.786C680.754 273.786 678.666 276.126 678.666 279.474C678.666 282.804 680.754 285.162 683.652 285.162C686.568 285.162 688.656 282.804 688.656 279.474ZM687.234 279.474C687.234 282.066 685.794 283.884 683.652 283.884C681.528 283.884 680.088 282.066 680.088 279.474C680.088 276.882 681.528 275.064 683.652 275.064C685.794 275.064 687.234 276.882 687.234 279.474ZM690.526 277.008V285H691.876V279.582C692.164 278.718 692.974 278.088 693.91 278.088C695.116 278.088 695.674 278.862 695.674 279.978V285H697.042V279.762C697.042 278.016 696.052 276.846 694.234 276.846C693.208 276.846 692.344 277.386 691.876 278.016V277.008H690.526Z" fill="#444444"/>
<rect x="44" y="102" width="384" height="36" rx="4" fill="white" stroke="#999999"/>
<path d="M92.738 122.606V124.136C93.494 124.73 94.718 125.162 96.212 125.162C98.354 125.162 99.938 124.028 99.938 122.138C99.938 120.608 99.182 119.726 97.49 119.078L95.744 118.394C94.718 117.998 94.088 117.602 94.088 116.666C94.088 115.568 95.042 115.028 96.266 115.028C97.544 115.028 98.534 115.478 99.416 116.18V114.686C98.588 114.11 97.454 113.786 96.248 113.786C94.34 113.786 92.702 114.776 92.702 116.684C92.702 118.43 93.89 119.168 95.186 119.672L96.806 120.302C97.976 120.788 98.57 121.184 98.57 122.156C98.57 123.29 97.634 123.902 96.212 123.902C94.916 123.902 93.764 123.488 92.738 122.606ZM102.716 121.238H108.224V120.752C108.224 118.412 107.108 116.846 104.948 116.846C102.824 116.846 101.384 118.592 101.384 121.076C101.384 123.596 102.932 125.162 105.236 125.162C106.19 125.162 107.018 124.964 107.666 124.46V123.218C106.946 123.758 106.298 123.974 105.398 123.974C103.94 123.974 102.77 123.092 102.716 121.238ZM104.966 117.998C106.262 117.998 106.856 119.006 106.91 120.176H102.788C103.04 118.7 103.904 117.998 104.966 117.998ZM114.509 119.69V120.734C114.167 120.428 113.339 120.086 112.511 120.086C110.801 120.086 109.469 121.094 109.469 122.588C109.469 124.172 110.801 125.144 112.439 125.144C113.375 125.144 114.203 124.73 114.509 124.406V125H115.823V119.582C115.823 117.89 114.707 116.846 112.817 116.846C111.827 116.846 110.873 117.134 110.333 117.512V118.79C110.999 118.358 111.719 118.088 112.601 118.088C113.771 118.088 114.509 118.7 114.509 119.69ZM114.509 122.192V123.02C114.293 123.614 113.501 124.01 112.655 124.01C111.683 124.01 110.747 123.56 110.747 122.588C110.747 121.634 111.683 121.202 112.655 121.202C113.501 121.202 114.293 121.598 114.509 122.192ZM122.236 118.358V116.972C122.092 116.9 121.804 116.846 121.462 116.846C120.58 116.846 119.824 117.368 119.482 118.052V117.008H118.132V125H119.482V119.636C119.752 118.7 120.49 118.142 121.336 118.142C121.678 118.142 122.02 118.214 122.236 118.358ZM123.11 121.004C123.11 123.56 124.802 125.162 126.962 125.162C127.736 125.162 128.546 124.982 129.104 124.496V123.128C128.528 123.704 127.826 123.956 127.052 123.956C125.63 123.956 124.478 122.84 124.478 121.004C124.478 119.168 125.63 118.052 127.052 118.052C127.826 118.052 128.528 118.304 129.104 118.88V117.512C128.546 117.026 127.736 116.846 126.962 116.846C124.802 116.846 123.11 118.448 123.11 121.004ZM130.981 113.3V125H132.331V119.582C132.619 118.718 133.429 118.088 134.365 118.088C135.571 118.088 136.129 118.862 136.129 119.978V125H137.497V119.762C137.497 118.016 136.507 116.846 134.689 116.846C133.663 116.846 132.799 117.386 132.331 118.016V113.3H130.981ZM145.993 125V118.16H147.847V117.008H145.993V114.902H144.643V117.008H142.969V118.16H144.643V125H145.993ZM149.491 113.3V125H150.841V119.582C151.129 118.718 151.939 118.088 152.875 118.088C154.081 118.088 154.639 118.862 154.639 119.978V125H156.007V119.762C156.007 118.016 155.017 116.846 153.199 116.846C152.173 116.846 151.309 117.386 150.841 118.016V113.3H149.491ZM159.054 121.238H164.562V120.752C164.562 118.412 163.446 116.846 161.286 116.846C159.162 116.846 157.722 118.592 157.722 121.076C157.722 123.596 159.27 125.162 161.574 125.162C162.528 125.162 163.356 124.964 164.004 124.46V123.218C163.284 123.758 162.636 123.974 161.736 123.974C160.278 123.974 159.108 123.092 159.054 121.238ZM161.304 117.998C162.6 117.998 163.194 119.006 163.248 120.176H159.126C159.378 118.7 160.242 117.998 161.304 117.998ZM170.482 113.948V125H174.028C177.268 125 179.392 122.84 179.392 119.474C179.392 116.108 177.268 113.948 174.028 113.948H170.482ZM174.01 123.722H171.904V115.208H174.01C176.512 115.208 177.988 116.882 177.988 119.474C177.988 122.066 176.512 123.722 174.01 123.722ZM185.666 119.69V120.734C185.324 120.428 184.496 120.086 183.668 120.086C181.958 120.086 180.626 121.094 180.626 122.588C180.626 124.172 181.958 125.144 183.596 125.144C184.532 125.144 185.36 124.73 185.666 124.406V125H186.98V119.582C186.98 117.89 185.864 116.846 183.974 116.846C182.984 116.846 182.03 117.134 181.49 117.512V118.79C182.156 118.358 182.876 118.088 183.758 118.088C184.928 118.088 185.666 118.7 185.666 119.69ZM185.666 122.192V123.02C185.45 123.614 184.658 124.01 183.812 124.01C182.84 124.01 181.904 123.56 181.904 122.588C181.904 121.634 182.84 121.202 183.812 121.202C184.658 121.202 185.45 121.598 185.666 122.192ZM191.467 125V118.16H193.321V117.008H191.467V114.902H190.117V117.008H188.443V118.16H190.117V125H191.467ZM199.236 119.69V120.734C198.894 120.428 198.066 120.086 197.238 120.086C195.528 120.086 194.196 121.094 194.196 122.588C194.196 124.172 195.528 125.144 197.166 125.144C198.102 125.144 198.93 124.73 199.236 124.406V125H200.55V119.582C200.55 117.89 199.434 116.846 197.544 116.846C196.554 116.846 195.6 117.134 195.06 117.512V118.79C195.726 118.358 196.446 118.088 197.328 118.088C198.498 118.088 199.236 118.7 199.236 119.69ZM199.236 122.192V123.02C199.02 123.614 198.228 124.01 197.382 124.01C196.41 124.01 195.474 123.56 195.474 122.588C195.474 121.634 196.41 121.202 197.382 121.202C198.228 121.202 199.02 121.598 199.236 122.192ZM202.192 113.948V115.208H206.044V125H207.466V115.208H211.318V113.948H202.192ZM216.164 119.69V120.734C215.822 120.428 214.994 120.086 214.166 120.086C212.456 120.086 211.124 121.094 211.124 122.588C211.124 124.172 212.456 125.144 214.094 125.144C215.03 125.144 215.858 124.73 216.164 124.406V125H217.478V119.582C217.478 117.89 216.362 116.846 214.472 116.846C213.482 116.846 212.528 117.134 211.988 117.512V118.79C212.654 118.358 213.374 118.088 214.256 118.088C215.426 118.088 216.164 118.7 216.164 119.69ZM216.164 122.192V123.02C215.948 123.614 215.156 124.01 214.31 124.01C213.338 124.01 212.402 123.56 212.402 122.588C212.402 121.634 213.338 121.202 214.31 121.202C215.156 121.202 215.948 121.598 216.164 122.192ZM221.136 125V124.064C221.532 124.64 222.396 125.162 223.386 125.162C225.726 125.162 226.986 123.272 226.986 121.004C226.986 118.754 225.726 116.846 223.386 116.846C222.396 116.846 221.532 117.368 221.136 117.944V113.3H219.768V125H221.136ZM221.136 122.624V119.384C221.55 118.556 222.342 118.07 223.188 118.07C224.718 118.07 225.618 119.312 225.618 121.004C225.618 122.696 224.718 123.938 223.188 123.938C222.342 123.938 221.55 123.452 221.136 122.624ZM230.171 125V113.3H228.821V125H230.171ZM233.339 121.238H238.847V120.752C238.847 118.412 237.731 116.846 235.571 116.846C233.447 116.846 232.007 118.592 232.007 121.076C232.007 123.596 233.555 125.162 235.859 125.162C236.813 125.162 237.641 124.964 238.289 124.46V123.218C237.569 123.758 236.921 123.974 236.021 123.974C234.563 123.974 233.393 123.092 233.339 121.238ZM235.589 117.998C236.885 117.998 237.479 119.006 237.533 120.176H233.411C233.663 118.7 234.527 117.998 235.589 117.998Z" fill="#BBBBBB"/>
<path fill-rule="evenodd" clip-rule="evenodd" d="M66 111C62.134 111 59 114.134 59 118C59 121.866 62.134 125 66 125C67.5723 125 69.0236 124.482 70.1922 123.606L75.2929 128.707L76.7071 127.293L71.6064 122.192C72.4816 121.024 73 119.572 73 118C73 114.134 69.866 111 66 111ZM61 118C61 115.239 63.2386 113 66 113C68.7614 113 71 115.239 71 118C71 120.761 68.7614 123 66 123C63.2386 123 61 120.761 61 118Z" fill="black"/>
<path d="M43.656 45.896V68H52.008C58.956 68 63.168 63.68 63.168 56.948C63.168 50.216 58.956 45.896 52.008 45.896H43.656ZM51.72 62.996H49.344V50.864H51.72C55.392 50.864 57.444 53.204 57.444 56.948C57.444 60.656 55.392 62.996 51.72 62.996ZM74.1657 58.244V58.82C73.5177 58.352 72.0057 57.92 70.6377 57.92C67.1457 57.92 64.4097 59.936 64.4097 63.068C64.4097 66.488 67.1457 68.288 70.3497 68.288C72.0777 68.288 73.6257 67.712 74.1657 67.172V68H79.6017V57.992C79.6017 53.708 76.8657 51.44 72.0777 51.44C69.7737 51.44 67.6137 51.98 66.2817 52.7V57.236C67.5777 56.48 69.1617 56.084 70.7097 56.084C73.0137 56.084 74.1657 56.984 74.1657 58.244ZM74.1657 62.528V63.464C73.8057 64.112 72.9057 64.544 71.8977 64.544C70.7817 64.544 69.6657 64.076 69.6657 62.96C69.6657 61.88 70.7817 61.412 71.8977 61.412C72.9057 61.412 73.8057 61.844 74.1657 62.528ZM89.918 68V56.192H93.086V51.8H89.918V47.336H84.302V51.8H81.494V56.192H84.302V68H89.918ZM103.627 58.244V58.82C102.979 58.352 101.467 57.92 100.099 57.92C96.6067 57.92 93.8707 59.936 93.8707 63.068C93.8707 66.488 96.6067 68.288 99.8107 68.288C101.539 68.288 103.087 67.712 103.627 67.172V68H109.063V57.992C109.063 53.708 106.327 51.44 101.539 51.44C99.2347 51.44 97.0747 51.98 95.7427 52.7V57.236C97.0387 56.48 98.6227 56.084 100.171 56.084C102.475 56.084 103.627 56.984 103.627 58.244ZM103.627 62.528V63.464C103.267 64.112 102.367 64.544 101.359 64.544C100.243 64.544 99.1267 64.076 99.1267 62.96C99.1267 61.88 100.243 61.412 101.359 61.412C102.367 61.412 103.267 61.844 103.627 62.528ZM111.169 45.896V50.864H117.973V68H123.769V50.864H130.609V45.896H111.169ZM139.697 58.244V58.82C139.049 58.352 137.537 57.92 136.169 57.92C132.677 57.92 129.941 59.936 129.941 63.068C129.941 66.488 132.677 68.288 135.881 68.288C137.609 68.288 139.157 67.712 139.697 67.172V68H145.133V57.992C145.133 53.708 142.397 51.44 137.609 51.44C135.305 51.44 133.145 51.98 131.813 52.7V57.236C133.109 56.48 134.693 56.084 136.241 56.084C138.545 56.084 139.697 56.984 139.697 58.244ZM139.697 62.528V63.464C139.337 64.112 138.437 64.544 137.429 64.544C136.313 64.544 135.197 64.076 135.197 62.96C135.197 61.88 136.313 61.412 137.429 61.412C138.437 61.412 139.337 61.844 139.697 62.528ZM153.684 68V66.704C154.44 67.568 156.024 68.36 157.68 68.36C162.36 68.36 164.916 64.58 164.916 59.9C164.916 55.22 162.36 51.44 157.68 51.44C156.024 51.44 154.44 52.232 153.684 53.096V44.6H148.032V68H153.684ZM153.684 62.024V57.74C154.116 56.876 155.088 56.228 156.168 56.228C158.112 56.228 159.264 57.812 159.264 59.9C159.264 61.988 158.112 63.536 156.168 63.536C155.052 63.536 154.116 62.924 153.684 62.024ZM172.738 68V44.6H167.086V68H172.738ZM180.413 61.196H190.385V59.54C190.385 54.716 187.829 51.44 182.789 51.44C178.325 51.44 174.941 54.932 174.941 60.008C174.941 65.228 178.469 68.36 183.653 68.36C185.993 68.36 187.973 67.856 189.233 66.92V62.636C187.613 63.608 186.281 63.932 184.553 63.932C182.465 63.932 180.881 63.14 180.413 61.196ZM183.005 55.724C184.373 55.724 185.201 56.66 185.345 58.028H180.485C180.881 56.552 181.781 55.724 183.005 55.724Z" fill="black"/>
<path d="M47.296 156.192L49.472 150.176H47.136L44.144 158.208V158.272H48.736V160H50.912V158.272H52.016V156.192H50.912V154.368H48.736V156.192H47.296ZM57.9476 160V150.176H56.6836V160H57.9476ZM62.1654 160V153.92H63.8134V152.896H62.1654V151.024H60.9654V152.896H59.4774V153.92H60.9654V160H62.1654ZM65.8221 156.656H70.7181V156.224C70.7181 154.144 69.7261 152.752 67.8061 152.752C65.9181 152.752 64.6381 154.304 64.6381 156.512C64.6381 158.752 66.0141 160.144 68.0621 160.144C68.9101 160.144 69.6461 159.968 70.2221 159.52V158.416C69.5821 158.896 69.0061 159.088 68.2061 159.088C66.9101 159.088 65.8701 158.304 65.8221 156.656ZM67.8221 153.776C68.9741 153.776 69.5021 154.672 69.5501 155.712H65.8861C66.1101 154.4 66.8781 153.776 67.8221 153.776ZM77.3933 153.888C77.0573 153.216 76.3693 152.752 75.4733 152.752C74.5933 152.752 73.9053 153.168 73.5533 153.728V152.896H72.3533V160H73.5533V155.104C73.7773 154.336 74.4013 153.84 75.1213 153.84C76.0333 153.84 76.4653 154.496 76.4653 155.488V160H77.6653V155.104C77.8893 154.336 78.5133 153.84 79.2333 153.84C80.1453 153.84 80.5773 154.496 80.5773 155.488V160H81.7933V155.296C81.7933 153.76 80.9933 152.752 79.5533 152.752C78.5613 152.752 77.8413 153.248 77.3933 153.888ZM83.406 158.16V159.44C83.934 159.856 84.814 160.144 85.742 160.144C87.23 160.144 88.398 159.392 88.398 158.08C88.398 157.072 87.806 156.448 86.734 156.08L85.646 155.712C84.974 155.472 84.59 155.28 84.59 154.704C84.59 154.096 85.198 153.776 85.934 153.776C86.798 153.776 87.454 154.128 88.046 154.624V153.376C87.47 152.976 86.734 152.752 85.934 152.752C84.526 152.752 83.422 153.504 83.422 154.752C83.422 155.904 84.142 156.416 85.214 156.768L86.19 157.104C86.814 157.312 87.214 157.6 87.214 158.128C87.214 158.832 86.526 159.12 85.742 159.12C84.878 159.12 84.062 158.768 83.406 158.16Z" fill="#444444"/>
<path d="M89.242 643.422V660H95.506C100.717 660 103.876 656.76 103.876 651.711C103.876 646.662 100.717 643.422 95.506 643.422H89.242ZM95.29 656.247H93.508V647.148H95.29C98.044 647.148 99.583 648.903 99.583 651.711C99.583 654.492 98.044 656.247 95.29 656.247ZM109.096 654.897H116.575V653.655C116.575 650.037 114.658 647.58 110.878 647.58C107.53 647.58 104.992 650.199 104.992 654.006C104.992 657.921 107.638 660.27 111.526 660.27C113.281 660.27 114.766 659.892 115.711 659.19V655.977C114.496 656.706 113.497 656.949 112.201 656.949C110.635 656.949 109.447 656.355 109.096 654.897ZM111.04 650.793C112.066 650.793 112.687 651.495 112.795 652.521H109.15C109.447 651.414 110.122 650.793 111.04 650.793ZM123.833 660V651.144H126.209V647.85H123.833V644.502H119.621V647.85H117.515V651.144H119.621V660H123.833ZM134.115 652.683V653.115C133.629 652.764 132.495 652.44 131.469 652.44C128.85 652.44 126.798 653.952 126.798 656.301C126.798 658.866 128.85 660.216 131.253 660.216C132.549 660.216 133.71 659.784 134.115 659.379V660H138.192V652.494C138.192 649.281 136.14 647.58 132.549 647.58C130.821 647.58 129.201 647.985 128.202 648.525V651.927C129.174 651.36 130.362 651.063 131.523 651.063C133.251 651.063 134.115 651.738 134.115 652.683ZM134.115 655.896V656.598C133.845 657.084 133.17 657.408 132.414 657.408C131.577 657.408 130.74 657.057 130.74 656.22C130.74 655.41 131.577 655.059 132.414 655.059C133.17 655.059 133.845 655.383 134.115 655.896ZM144.901 644.556C144.901 643.152 143.794 642.261 142.498 642.261C141.202 642.261 140.095 643.152 140.095 644.556C140.095 645.933 141.202 646.824 142.498 646.824C143.794 646.824 144.901 645.933 144.901 644.556ZM144.604 660V647.85H140.365V660H144.604ZM151.144 660V642.45H146.905V660H151.144ZM153.012 655.545V659.109C154.146 659.865 155.928 660.27 157.629 660.27C160.626 660.27 162.867 659.001 162.867 656.409C162.867 654.357 161.814 653.277 159.168 652.575L158.061 652.251C157.467 652.089 157.116 651.927 157.116 651.468C157.116 650.982 157.602 650.739 158.331 650.739C159.708 650.739 161.004 651.306 162.165 652.143V648.66C160.977 647.931 159.654 647.58 157.926 647.58C155.064 647.58 152.958 649.011 152.958 651.549C152.958 653.736 154.389 654.789 156.63 655.275L157.575 655.518C158.304 655.68 158.682 655.869 158.682 656.355C158.682 656.895 158.142 657.084 157.305 657.084C156.063 657.084 154.173 656.49 153.012 655.545Z" fill="black"/>
<path d="M98.584 710V698.948H95.794V705.032L91.528 698.948H88.828V710H91.618V703.538L96.244 710H98.584ZM104.61 705.122V705.41C104.286 705.176 103.53 704.96 102.846 704.96C101.1 704.96 99.7322 705.968 99.7322 707.534C99.7322 709.244 101.1 710.144 102.702 710.144C103.566 710.144 104.34 709.856 104.61 709.586V710H107.328V704.996C107.328 702.854 105.96 701.72 103.566 701.72C102.414 701.72 101.334 701.99 100.668 702.35V704.618C101.316 704.24 102.108 704.042 102.882 704.042C104.034 704.042 104.61 704.492 104.61 705.122ZM104.61 707.264V707.732C104.43 708.056 103.98 708.272 103.476 708.272C102.918 708.272 102.36 708.038 102.36 707.48C102.36 706.94 102.918 706.706 103.476 706.706C103.98 706.706 104.43 706.922 104.61 707.264ZM115.923 702.692C115.437 702.116 114.717 701.72 113.691 701.72C112.791 701.72 112.017 702.062 111.603 702.566V701.9H108.777V710H111.603V705.068C111.729 704.51 112.161 704.204 112.647 704.204C113.277 704.204 113.565 704.69 113.565 705.374V710H116.373V705.068C116.517 704.51 116.931 704.204 117.417 704.204C118.047 704.204 118.335 704.69 118.335 705.374V710H121.161V704.69C121.161 702.872 120.117 701.72 118.425 701.72C117.237 701.72 116.409 702.188 115.923 702.692ZM124.915 706.598H129.901V705.77C129.901 703.358 128.623 701.72 126.103 701.72C123.871 701.72 122.179 703.466 122.179 706.004C122.179 708.614 123.943 710.18 126.535 710.18C127.705 710.18 128.695 709.928 129.325 709.46V707.318C128.515 707.804 127.849 707.966 126.985 707.966C125.941 707.966 125.149 707.57 124.915 706.598ZM126.211 703.862C126.895 703.862 127.309 704.33 127.381 705.014H124.951C125.149 704.276 125.599 703.862 126.211 703.862Z" fill="black"/>
<path d="M88.576 742.616V745.28C89.386 745.766 90.718 746.18 92.194 746.18C94.678 746.18 96.712 745.118 96.712 742.724C96.712 741.032 95.794 739.97 93.778 739.34L92.104 738.836C91.528 738.656 91.186 738.458 91.186 737.954C91.186 737.396 91.816 737.162 92.644 737.162C93.904 737.162 95.002 737.576 95.992 738.26V735.596C95.074 735.092 94.012 734.768 92.518 734.768C90.196 734.768 88.342 735.974 88.342 738.17C88.342 740.006 89.368 740.924 91.222 741.464L92.896 741.95C93.49 742.166 93.832 742.346 93.832 742.886C93.832 743.57 93.04 743.768 92.122 743.768C90.88 743.768 89.53 743.264 88.576 742.616ZM101.535 746V740.096H103.119V737.9H101.535V735.668H98.7272V737.9H97.3232V740.096H98.7272V746H101.535ZM108.39 741.122V741.41C108.066 741.176 107.31 740.96 106.626 740.96C104.88 740.96 103.512 741.968 103.512 743.534C103.512 745.244 104.88 746.144 106.482 746.144C107.346 746.144 108.12 745.856 108.39 745.586V746H111.108V740.996C111.108 738.854 109.74 737.72 107.346 737.72C106.194 737.72 105.114 737.99 104.448 738.35V740.618C105.096 740.24 105.888 740.042 106.662 740.042C107.813 740.042 108.39 740.492 108.39 741.122ZM108.39 743.264V743.732C108.21 744.056 107.76 744.272 107.256 744.272C106.698 744.272 106.14 744.038 106.14 743.48C106.14 742.94 106.698 742.706 107.256 742.706C107.76 742.706 108.21 742.922 108.39 743.264ZM116.266 746V740.096H117.85V737.9H116.266V735.668H113.458V737.9H112.054V740.096H113.458V746H116.266ZM126.679 746V737.9H123.853V742.814C123.709 743.372 123.223 743.714 122.701 743.714C121.981 743.714 121.657 743.228 121.657 742.544V737.9H118.849V743.21C118.849 745.01 119.911 746.18 121.693 746.18C122.611 746.18 123.421 745.802 123.853 745.298V746H126.679ZM127.896 743.03V745.406C128.652 745.91 129.84 746.18 130.974 746.18C132.972 746.18 134.466 745.334 134.466 743.606C134.466 742.238 133.764 741.518 132 741.05L131.262 740.834C130.866 740.726 130.632 740.618 130.632 740.312C130.632 739.988 130.956 739.826 131.442 739.826C132.36 739.826 133.224 740.204 133.998 740.762V738.44C133.206 737.954 132.324 737.72 131.172 737.72C129.264 737.72 127.86 738.674 127.86 740.366C127.86 741.824 128.814 742.526 130.308 742.85L130.938 743.012C131.424 743.12 131.676 743.246 131.676 743.57C131.676 743.93 131.316 744.056 130.758 744.056C129.93 744.056 128.67 743.66 127.896 743.03Z" fill="black"/>
<path d="M88.576 778.616V781.28C89.386 781.766 90.718 782.18 92.194 782.18C94.678 782.18 96.712 781.118 96.712 778.724C96.712 777.032 95.794 775.97 93.778 775.34L92.104 774.836C91.528 774.656 91.186 774.458 91.186 773.954C91.186 773.396 91.816 773.162 92.644 773.162C93.904 773.162 95.002 773.576 95.992 774.26V771.596C95.074 771.092 94.012 770.768 92.518 770.768C90.196 770.768 88.342 771.974 88.342 774.17C88.342 776.006 89.368 776.924 91.222 777.464L92.896 777.95C93.49 778.166 93.832 778.346 93.832 778.886C93.832 779.57 93.04 779.768 92.122 779.768C90.88 779.768 89.53 779.264 88.576 778.616ZM101.535 782V776.096H103.119V773.9H101.535V771.668H98.7272V773.9H97.3232V776.096H98.7272V782H101.535ZM108.39 777.122V777.41C108.066 777.176 107.31 776.96 106.626 776.96C104.88 776.96 103.512 777.968 103.512 779.534C103.512 781.244 104.88 782.144 106.482 782.144C107.346 782.144 108.12 781.856 108.39 781.586V782H111.108V776.996C111.108 774.854 109.74 773.72 107.346 773.72C106.194 773.72 105.114 773.99 104.448 774.35V776.618C105.096 776.24 105.888 776.042 106.662 776.042C107.813 776.042 108.39 776.492 108.39 777.122ZM108.39 779.264V779.732C108.21 780.056 107.76 780.272 107.256 780.272C106.698 780.272 106.14 780.038 106.14 779.48C106.14 778.94 106.698 778.706 107.256 778.706C107.76 778.706 108.21 778.922 108.39 779.264ZM116.266 782V776.096H117.85V773.9H116.266V771.668H113.458V773.9H112.054V776.096H113.458V782H116.266ZM121.119 778.598H126.105V777.77C126.105 775.358 124.827 773.72 122.307 773.72C120.075 773.72 118.383 775.466 118.383 778.004C118.383 780.614 120.147 782.18 122.739 782.18C123.909 782.18 124.899 781.928 125.529 781.46V779.318C124.719 779.804 124.053 779.966 123.189 779.966C122.145 779.966 121.353 779.57 121.119 778.598ZM122.415 775.862C123.099 775.862 123.513 776.33 123.585 777.014H121.155C121.353 776.276 121.803 775.862 122.415 775.862Z" fill="black"/>
<path d="M91.69 814.562H93.67C96.064 814.562 97.684 813.212 97.684 810.764C97.684 808.298 96.064 806.948 93.67 806.948H88.828V818H91.69V814.562ZM94.876 810.764C94.876 811.592 94.408 812.15 93.364 812.15H91.69V809.378H93.364C94.408 809.378 94.876 809.918 94.876 810.764ZM106.395 813.95C106.395 811.448 104.721 809.72 102.255 809.72C99.807 809.72 98.115 811.448 98.115 813.95C98.115 816.452 99.807 818.18 102.255 818.18C104.721 818.18 106.395 816.452 106.395 813.95ZM103.623 813.95C103.623 815.066 103.137 815.84 102.255 815.84C101.391 815.84 100.905 815.066 100.905 813.95C100.905 812.834 101.391 812.042 102.255 812.042C103.137 812.042 103.623 812.834 103.623 813.95ZM114.952 814.292L113.746 809.9H111.946L110.722 814.292L109.444 809.9H106.636L109.246 818H111.64L112.792 813.896L113.944 818H116.338L118.948 809.9H116.248L114.952 814.292ZM121.91 814.598H126.896V813.77C126.896 811.358 125.618 809.72 123.098 809.72C120.866 809.72 119.174 811.466 119.174 814.004C119.174 816.614 120.938 818.18 123.53 818.18C124.7 818.18 125.69 817.928 126.32 817.46V815.318C125.51 815.804 124.844 815.966 123.98 815.966C122.936 815.966 122.144 815.57 121.91 814.598ZM123.206 811.862C123.89 811.862 124.304 812.33 124.376 813.014H121.946C122.144 812.276 122.594 811.862 123.206 811.862ZM133.462 812.582V809.864C133.336 809.792 133.048 809.72 132.688 809.72C131.878 809.72 131.248 810.08 130.852 810.62V809.9H128.026V818H130.852V813.248C130.996 812.672 131.518 812.33 132.292 812.33C132.742 812.33 133.12 812.402 133.462 812.582Z" fill="black"/>
<path d="M88.576 850.616V853.28C89.386 853.766 90.718 854.18 92.194 854.18C94.678 854.18 96.712 853.118 96.712 850.724C96.712 849.032 95.794 847.97 93.778 847.34L92.104 846.836C91.528 846.656 91.186 846.458 91.186 845.954C91.186 845.396 91.816 845.162 92.644 845.162C93.904 845.162 95.002 845.576 95.992 846.26V843.596C95.074 843.092 94.012 842.768 92.518 842.768C90.196 842.768 88.342 843.974 88.342 846.17C88.342 848.006 89.368 848.924 91.222 849.464L92.896 849.95C93.49 850.166 93.832 850.346 93.832 850.886C93.832 851.57 93.04 851.768 92.122 851.768C90.88 851.768 89.53 851.264 88.576 850.616ZM100.271 850.598H105.257V849.77C105.257 847.358 103.979 845.72 101.459 845.72C99.2269 845.72 97.5349 847.466 97.5349 850.004C97.5349 852.614 99.2989 854.18 101.891 854.18C103.061 854.18 104.051 853.928 104.681 853.46V851.318C103.871 851.804 103.205 851.966 102.341 851.966C101.297 851.966 100.505 851.57 100.271 850.598ZM101.567 847.862C102.251 847.862 102.665 848.33 102.737 849.014H100.307C100.505 848.276 100.955 847.862 101.567 847.862ZM111.823 848.582V845.864C111.697 845.792 111.409 845.72 111.049 845.72C110.239 845.72 109.609 846.08 109.213 846.62V845.9H106.387V854H109.213V849.248C109.357 848.672 109.879 848.33 110.653 848.33C111.103 848.33 111.481 848.402 111.823 848.582ZM115.985 843.704C115.985 842.768 115.247 842.174 114.383 842.174C113.519 842.174 112.781 842.768 112.781 843.704C112.781 844.622 113.519 845.216 114.383 845.216C115.247 845.216 115.985 844.622 115.985 843.704ZM115.787 854V845.9H112.961V854H115.787ZM121.766 849.122V849.41C121.442 849.176 120.686 848.96 120.002 848.96C118.256 848.96 116.888 849.968 116.888 851.534C116.888 853.244 118.256 854.144 119.858 854.144C120.722 854.144 121.496 853.856 121.766 853.586V854H124.484V848.996C124.484 846.854 123.116 845.72 120.722 845.72C119.57 845.72 118.49 845.99 117.824 846.35V848.618C118.472 848.24 119.264 848.042 120.038 848.042C121.19 848.042 121.766 848.492 121.766 849.122ZM121.766 851.264V851.732C121.586 852.056 121.136 852.272 120.632 852.272C120.074 852.272 119.516 852.038 119.516 851.48C119.516 850.94 120.074 850.706 120.632 850.706C121.136 850.706 121.586 850.922 121.766 851.264ZM128.76 854V842.3H125.934V854H128.76Z" fill="black"/>
<path d="M193.404 698.948H191.982V703.682H185.736V698.948H184.314V710H185.736V704.96H191.982V710H193.404V698.948ZM197.461 705.572H200.125C202.357 705.572 203.815 704.42 203.815 702.26C203.815 700.082 202.357 698.948 200.125 698.948H196.039V710H197.461V705.572ZM202.411 702.26C202.411 703.502 201.601 704.312 200.107 704.312H197.461V700.19H200.107C201.601 700.19 202.411 701 202.411 702.26ZM212.745 698.948H205.707V710H212.745V708.722H207.111V704.96H212.223V703.7H207.111V700.208H212.745V698.948ZM214.016 710.756V711.98H219.902V710.756H214.016ZM221.004 707.606V709.136C221.76 709.73 222.984 710.162 224.478 710.162C226.62 710.162 228.204 709.028 228.204 707.138C228.204 705.608 227.448 704.726 225.756 704.078L224.01 703.394C222.984 702.998 222.354 702.602 222.354 701.666C222.354 700.568 223.308 700.028 224.532 700.028C225.81 700.028 226.8 700.478 227.682 701.18V699.686C226.854 699.11 225.72 698.786 224.514 698.786C222.606 698.786 220.968 699.776 220.968 701.684C220.968 703.43 222.156 704.168 223.452 704.672L225.072 705.302C226.242 705.788 226.836 706.184 226.836 707.156C226.836 708.29 225.9 708.902 224.478 708.902C223.182 708.902 222.03 708.488 221.004 707.606ZM234.386 710.162C236.906 710.162 238.724 708.65 238.724 705.626V698.948H237.302V705.446C237.302 707.804 236.168 708.902 234.386 708.902C232.604 708.902 231.47 707.804 231.47 705.446V698.948H230.066V705.608C230.066 708.65 231.884 710.162 234.386 710.162ZM242.601 705.572H245.265C247.497 705.572 248.955 704.42 248.955 702.26C248.955 700.082 247.497 698.948 245.265 698.948H241.179V710H242.601V705.572ZM247.551 702.26C247.551 703.502 246.741 704.312 245.247 704.312H242.601V700.19H245.247C246.741 700.19 247.551 701 247.551 702.26ZM257.885 698.948H250.847V710H257.885V708.722H252.251V704.96H257.363V703.7H252.251V700.208H257.885V698.948ZM261.533 705.32H263.495L266.663 710H268.283L265.007 705.266C266.753 705.014 267.833 703.988 267.833 702.152C267.833 700.064 266.393 698.948 264.161 698.948H260.111V710H261.533V705.32ZM261.533 704.114V700.19H264.125C265.583 700.19 266.429 700.928 266.429 702.152C266.429 703.376 265.583 704.114 264.125 704.114H261.533ZM270.043 698.948V710H273.589C276.829 710 278.953 707.84 278.953 704.474C278.953 701.108 276.829 698.948 273.589 698.948H270.043ZM273.571 708.722H271.465V700.208H273.571C276.073 700.208 277.549 701.882 277.549 704.474C277.549 707.066 276.073 708.722 273.571 708.722ZM290.371 704.474C290.371 701.126 288.283 698.786 285.367 698.786C282.469 698.786 280.381 701.126 280.381 704.474C280.381 707.804 282.469 710.162 285.367 710.162C288.283 710.162 290.371 707.804 290.371 704.474ZM288.949 704.474C288.949 707.066 287.509 708.884 285.367 708.884C283.243 708.884 281.803 707.066 281.803 704.474C281.803 701.882 283.243 700.064 285.367 700.064C287.509 700.064 288.949 701.882 288.949 704.474ZM297.533 707.534H297.605L301.349 701.504V710H302.735V698.948H301.493L297.587 705.302L293.663 698.948H292.349V710H293.735V701.504L297.533 707.534ZM312.395 698.948H305.357V710H312.395V708.722H306.761V704.96H311.873V703.7H306.761V700.208H312.395V698.948Z" fill="#263040"/>
<path d="M183.666 740.474C183.666 743.93 185.898 746.162 188.85 746.162C190.128 746.162 191.1 745.802 191.82 745.208V743.714C190.92 744.524 190.002 744.884 188.868 744.884C186.636 744.884 185.088 743.138 185.088 740.474C185.088 737.81 186.636 736.064 188.868 736.064C190.002 736.064 190.92 736.406 191.82 737.234V735.74C191.1 735.146 190.128 734.786 188.85 734.786C185.898 734.786 183.666 737.018 183.666 740.474ZM198.031 739.358V737.972C197.887 737.9 197.599 737.846 197.257 737.846C196.375 737.846 195.619 738.368 195.277 739.052V738.008H193.927V746H195.277V740.636C195.547 739.7 196.285 739.142 197.131 739.142C197.473 739.142 197.815 739.214 198.031 739.358ZM201.258 735.596C201.258 735.11 200.862 734.732 200.376 734.732C199.908 734.732 199.512 735.11 199.512 735.596C199.512 736.064 199.908 736.46 200.376 736.46C200.862 736.46 201.258 736.064 201.258 735.596ZM201.06 746V738.008H199.71V746H201.06ZM205.704 746V739.16H207.558V738.008H205.704V735.902H204.354V738.008H202.68V739.16H204.354V746H205.704ZM210.75 735.596C210.75 735.11 210.354 734.732 209.868 734.732C209.4 734.732 209.004 735.11 209.004 735.596C209.004 736.064 209.4 736.46 209.868 736.46C210.354 736.46 210.75 736.064 210.75 735.596ZM210.552 746V738.008H209.202V746H210.552ZM212.388 742.004C212.388 744.56 214.08 746.162 216.24 746.162C217.014 746.162 217.824 745.982 218.382 745.496V744.128C217.806 744.704 217.104 744.956 216.33 744.956C214.908 744.956 213.756 743.84 213.756 742.004C213.756 740.168 214.908 739.052 216.33 739.052C217.104 739.052 217.806 739.304 218.382 739.88V738.512C217.824 738.026 217.014 737.846 216.24 737.846C214.08 737.846 212.388 739.448 212.388 742.004ZM224.74 740.69V741.734C224.398 741.428 223.57 741.086 222.742 741.086C221.032 741.086 219.7 742.094 219.7 743.588C219.7 745.172 221.032 746.144 222.67 746.144C223.606 746.144 224.434 745.73 224.74 745.406V746H226.054V740.582C226.054 738.89 224.938 737.846 223.048 737.846C222.058 737.846 221.104 738.134 220.564 738.512V739.79C221.23 739.358 221.95 739.088 222.832 739.088C224.002 739.088 224.74 739.7 224.74 740.69ZM224.74 743.192V744.02C224.524 744.614 223.732 745.01 222.886 745.01C221.914 745.01 220.978 744.56 220.978 743.588C220.978 742.634 221.914 742.202 222.886 742.202C223.732 742.202 224.524 742.598 224.74 743.192ZM229.712 746V734.3H228.362V746H229.712Z" fill="#263040"/>
<path d="M188.454 782.162C190.974 782.162 192.792 780.65 192.792 777.626V770.948H191.37V777.446C191.37 779.804 190.236 780.902 188.454 780.902C186.672 780.902 185.538 779.804 185.538 777.446V770.948H184.134V777.608C184.134 780.65 185.952 782.162 188.454 782.162ZM195.14 774.008V782H196.49V776.582C196.778 775.718 197.588 775.088 198.524 775.088C199.73 775.088 200.288 775.862 200.288 776.978V782H201.656V776.762C201.656 775.016 200.666 773.846 198.848 773.846C197.822 773.846 196.958 774.386 196.49 775.016V774.008H195.14ZM203.37 778.004C203.37 780.56 205.062 782.162 207.222 782.162C207.996 782.162 208.806 781.982 209.364 781.496V780.128C208.788 780.704 208.086 780.956 207.312 780.956C205.89 780.956 204.738 779.84 204.738 778.004C204.738 776.168 205.89 775.052 207.312 775.052C208.086 775.052 208.788 775.304 209.364 775.88V774.512C208.806 774.026 207.996 773.846 207.222 773.846C205.062 773.846 203.37 775.448 203.37 778.004ZM218.009 778.004C218.009 775.556 216.515 773.846 214.337 773.846C212.141 773.846 210.665 775.556 210.665 778.004C210.665 780.452 212.141 782.162 214.337 782.162C216.515 782.162 218.009 780.452 218.009 778.004ZM216.641 778.004C216.641 779.75 215.777 780.974 214.337 780.974C212.897 780.974 212.033 779.75 212.033 778.004C212.033 776.258 212.897 775.034 214.337 775.034C215.777 775.034 216.641 776.258 216.641 778.004ZM219.837 774.008V782H221.187V776.582C221.475 775.718 222.285 775.088 223.221 775.088C224.427 775.088 224.985 775.862 224.985 776.978V782H226.353V776.762C226.353 775.016 225.363 773.846 223.545 773.846C222.519 773.846 221.655 774.386 221.187 775.016V774.008H219.837ZM232.64 771.542V770.318C232.334 770.192 232.028 770.138 231.596 770.138C230.192 770.138 229.148 771.074 229.148 772.676V774.008H227.798V775.16H229.148V782H230.48V775.16H232.28V774.008H230.48V772.784C230.48 771.83 231.002 771.326 231.794 771.326C232.082 771.326 232.388 771.38 232.64 771.542ZM235.394 771.596C235.394 771.11 234.998 770.732 234.512 770.732C234.044 770.732 233.648 771.11 233.648 771.596C233.648 772.064 234.044 772.46 234.512 772.46C234.998 772.46 235.394 772.064 235.394 771.596ZM235.196 782V774.008H233.846V782H235.196ZM242.828 780.938V781.46C242.828 783.17 241.712 784.016 240.29 784.016C239.354 784.016 238.508 783.764 237.716 783.026V784.52C238.328 784.952 239.264 785.24 240.29 785.24C242.198 785.24 244.196 784.16 244.196 781.37V774.008H242.828V774.908C242.432 774.35 241.586 773.846 240.596 773.846C238.256 773.846 237.032 775.79 237.032 777.932C237.032 780.074 238.256 782.018 240.596 782.018C241.586 782.018 242.432 781.496 242.828 780.938ZM242.828 776.294V779.552C242.414 780.308 241.658 780.794 240.794 780.794C239.282 780.794 238.4 779.588 238.4 777.932C238.4 776.258 239.282 775.052 240.794 775.052C241.658 775.052 242.414 775.538 242.828 776.294ZM252.963 782V774.008H251.595V779.426C251.307 780.29 250.533 780.92 249.597 780.92C248.391 780.92 247.851 780.146 247.851 779.03V774.008H246.483V779.246C246.483 780.992 247.455 782.162 249.273 782.162C250.299 782.162 251.145 781.622 251.595 780.992V782H252.963ZM259.466 775.358V773.972C259.322 773.9 259.034 773.846 258.692 773.846C257.81 773.846 257.054 774.368 256.712 775.052V774.008H255.362V782H256.712V776.636C256.982 775.7 257.72 775.142 258.566 775.142C258.908 775.142 259.25 775.214 259.466 775.358ZM261.673 778.238H267.181V777.752C267.181 775.412 266.065 773.846 263.905 773.846C261.781 773.846 260.341 775.592 260.341 778.076C260.341 780.596 261.889 782.162 264.193 782.162C265.147 782.162 265.975 781.964 266.623 781.46V780.218C265.903 780.758 265.255 780.974 264.355 780.974C262.897 780.974 261.727 780.092 261.673 778.238ZM263.923 774.998C265.219 774.998 265.813 776.006 265.867 777.176H261.745C261.997 775.7 262.861 774.998 263.923 774.998ZM274.294 781.064V782H275.662V770.3H274.294V774.944C273.898 774.368 273.034 773.846 272.044 773.846C269.704 773.846 268.444 775.754 268.444 778.004C268.444 780.272 269.704 782.162 272.044 782.162C273.034 782.162 273.898 781.64 274.294 781.064ZM274.294 776.384V779.624C273.88 780.452 273.088 780.938 272.242 780.938C270.712 780.938 269.812 779.696 269.812 778.004C269.812 776.312 270.712 775.07 272.242 775.07C273.088 775.07 273.88 775.556 274.294 776.384Z" fill="#263040"/>
<path d="M193.404 842.948H191.982V847.682H185.736V842.948H184.314V854H185.736V848.96H191.982V854H193.404V842.948ZM199.405 842.786C197.263 842.786 195.661 844.406 195.661 846.548C195.661 848.672 197.191 850.292 199.315 850.292C199.747 850.292 200.233 850.148 200.521 849.968L198.199 854H199.657L202.177 849.608C202.897 848.348 203.149 847.448 203.149 846.548C203.149 844.406 201.565 842.786 199.405 842.786ZM196.957 846.548C196.957 845.108 198.001 844.01 199.405 844.01C200.809 844.01 201.853 845.108 201.853 846.548C201.853 847.97 200.809 849.086 199.405 849.086C198.001 849.086 196.957 847.97 196.957 846.548ZM209.944 852.902C207.64 852.902 206.164 851.138 206.164 848.474C206.164 845.81 207.766 844.064 210.07 844.064C211.276 844.064 212.32 844.442 213.256 845.288V843.776C212.482 843.164 211.366 842.786 210.07 842.786C207.028 842.786 204.742 845.036 204.742 848.474C204.742 851.894 206.83 854.162 209.908 854.162C211.276 854.162 212.734 853.748 213.796 852.578V848.258H210.052V849.446H212.482V852.056C211.762 852.65 210.952 852.902 209.944 852.902ZM215.268 852.074V853.532C215.736 853.838 216.528 854.162 217.428 854.162C219.552 854.162 220.686 852.992 220.686 850.328V842.948H219.264V850.274C219.264 852.11 218.706 852.866 217.392 852.866C216.582 852.866 215.97 852.578 215.268 852.074ZM222.317 842.948V844.208H226.169V854H227.591V844.208H231.443V842.948H222.317ZM240.846 854V852.722H234.798L240.9 843.02V842.948H232.8V844.208H238.668L232.53 853.928V854H240.846ZM251.922 842.948H250.5V847.682H244.254V842.948H242.832V854H244.254V848.96H250.5V854H251.922V842.948ZM255.69 850.31L259.056 842.948H257.652L253.764 851.426V851.498H258.966V854H260.28V851.498H262.116V850.31H260.28V847.646H258.966V850.31H255.69Z" fill="#263040"/>
<path fill-rule="evenodd" clip-rule="evenodd" d="M63.0115 462L69.0889 455.923L67.9104 454.744L60.6544 462L67.9104 469.256L69.0889 468.077L63.0115 462Z" fill="black"/>
<path d="M86.576 463.616V466.28C87.386 466.766 88.718 467.18 90.194 467.18C92.678 467.18 94.712 466.118 94.712 463.724C94.712 462.032 93.794 460.97 91.778 460.34L90.104 459.836C89.528 459.656 89.186 459.458 89.186 458.954C89.186 458.396 89.816 458.162 90.644 458.162C91.904 458.162 93.002 458.576 93.992 459.26V456.596C93.074 456.092 92.012 455.768 90.518 455.768C88.196 455.768 86.342 456.974 86.342 459.17C86.342 461.006 87.368 461.924 89.222 462.464L90.896 462.95C91.49 463.166 91.832 463.346 91.832 463.886C91.832 464.57 91.04 464.768 90.122 464.768C88.88 464.768 87.53 464.264 86.576 463.616ZM98.2709 463.598H103.257V462.77C103.257 460.358 101.979 458.72 99.4589 458.72C97.2269 458.72 95.5349 460.466 95.5349 463.004C95.5349 465.614 97.2989 467.18 99.8909 467.18C101.061 467.18 102.051 466.928 102.681 466.46V464.318C101.871 464.804 101.205 464.966 100.341 464.966C99.2969 464.966 98.5049 464.57 98.2709 463.598ZM99.5669 460.862C100.251 460.862 100.665 461.33 100.737 462.014H98.3069C98.5049 461.276 98.9549 460.862 99.5669 460.862ZM109.823 461.582V458.864C109.697 458.792 109.409 458.72 109.049 458.72C108.239 458.72 107.609 459.08 107.213 459.62V458.9H104.387V467H107.213V462.248C107.357 461.672 107.879 461.33 108.653 461.33C109.103 461.33 109.481 461.402 109.823 461.582ZM113.409 467H115.947L119.043 458.9H116.271L114.759 463.544L113.211 458.9H110.331L113.409 467ZM121.878 463.598H126.864V462.77C126.864 460.358 125.586 458.72 123.066 458.72C120.834 458.72 119.142 460.466 119.142 463.004C119.142 465.614 120.906 467.18 123.498 467.18C124.668 467.18 125.658 466.928 126.288 466.46V464.318C125.478 464.804 124.812 464.966 123.948 464.966C122.904 464.966 122.112 464.57 121.878 463.598ZM123.174 460.862C123.858 460.862 124.272 461.33 124.344 462.014H121.914C122.112 461.276 122.562 460.862 123.174 460.862ZM133.43 461.582V458.864C133.304 458.792 133.016 458.72 132.656 458.72C131.846 458.72 131.216 459.08 130.82 459.62V458.9H127.994V467H130.82V462.248C130.964 461.672 131.486 461.33 132.26 461.33C132.71 461.33 133.088 461.402 133.43 461.582ZM134.245 464.03V466.406C135.001 466.91 136.189 467.18 137.323 467.18C139.321 467.18 140.815 466.334 140.815 464.606C140.815 463.238 140.113 462.518 138.349 462.05L137.611 461.834C137.215 461.726 136.981 461.618 136.981 461.312C136.981 460.988 137.305 460.826 137.791 460.826C138.709 460.826 139.573 461.204 140.347 461.762V459.44C139.555 458.954 138.673 458.72 137.521 458.72C135.613 458.72 134.209 459.674 134.209 461.366C134.209 462.824 135.163 463.526 136.657 463.85L137.287 464.012C137.773 464.12 138.025 464.246 138.025 464.57C138.025 464.93 137.665 465.056 137.107 465.056C136.279 465.056 135.019 464.66 134.245 464.03Z" fill="black"/>
<path d="M109.168 542V519.896H103.588V532.064L95.056 519.896H89.656V542H95.236V529.076L104.488 542H109.168ZM121.22 532.244V532.82C120.572 532.352 119.06 531.92 117.692 531.92C114.2 531.92 111.464 533.936 111.464 537.068C111.464 540.488 114.2 542.288 117.404 542.288C119.132 542.288 120.68 541.712 121.22 541.172V542H126.656V531.992C126.656 527.708 123.92 525.44 119.132 525.44C116.828 525.44 114.668 525.98 113.336 526.7V531.236C114.632 530.48 116.216 530.084 117.764 530.084C120.068 530.084 121.22 530.984 121.22 532.244ZM121.22 536.528V537.464C120.86 538.112 119.96 538.544 118.952 538.544C117.836 538.544 116.72 538.076 116.72 536.96C116.72 535.88 117.836 535.412 118.952 535.412C119.96 535.412 120.86 535.844 121.22 536.528ZM143.847 527.384C142.875 526.232 141.435 525.44 139.383 525.44C137.583 525.44 136.035 526.124 135.207 527.132V525.8H129.555V542H135.207V532.136C135.459 531.02 136.323 530.408 137.295 530.408C138.555 530.408 139.131 531.38 139.131 532.748V542H144.747V532.136C145.035 531.02 145.863 530.408 146.835 530.408C148.095 530.408 148.671 531.38 148.671 532.748V542H154.323V531.38C154.323 527.744 152.235 525.44 148.851 525.44C146.475 525.44 144.819 526.376 143.847 527.384ZM161.831 535.196H171.803V533.54C171.803 528.716 169.247 525.44 164.207 525.44C159.743 525.44 156.359 528.932 156.359 534.008C156.359 539.228 159.887 542.36 165.071 542.36C167.411 542.36 169.391 541.856 170.651 540.92V536.636C169.031 537.608 167.699 537.932 165.971 537.932C163.883 537.932 162.299 537.14 161.831 535.196ZM164.423 529.724C165.791 529.724 166.619 530.66 166.763 532.028H161.903C162.299 530.552 163.199 529.724 164.423 529.724ZM173.235 529.328C173.235 531.236 174.711 532.712 176.547 532.712C178.419 532.712 179.895 531.236 179.895 529.328C179.895 527.42 178.419 525.98 176.547 525.98C174.711 525.98 173.235 527.42 173.235 529.328ZM173.235 538.868C173.235 540.776 174.711 542.252 176.547 542.252C178.419 542.252 179.895 540.776 179.895 538.868C179.895 536.96 178.419 535.52 176.547 535.52C174.711 535.52 173.235 536.96 173.235 538.868ZM209.553 519.896H203.757V528.284H195.225V519.896H189.429V542H195.225V533.252H203.757V542H209.553V519.896ZM218.568 535.124H222.528C227.316 535.124 230.556 532.424 230.556 527.528C230.556 522.596 227.316 519.896 222.528 519.896H212.844V542H218.568V535.124ZM224.94 527.528C224.94 529.184 224.004 530.3 221.916 530.3H218.568V524.756H221.916C224.004 524.756 224.94 525.836 224.94 527.528ZM248.827 519.896H233.023V542H248.827V536.996H238.711V533.18H247.963V528.32H238.711V524.864H248.827V519.896ZM250.755 543.512V547.796H263.031V543.512H250.755ZM264.898 535.232V540.56C266.518 541.532 269.182 542.36 272.134 542.36C277.102 542.36 281.17 540.236 281.17 535.448C281.17 532.064 279.334 529.94 275.302 528.68L271.954 527.672C270.802 527.312 270.118 526.916 270.118 525.908C270.118 524.792 271.378 524.324 273.034 524.324C275.554 524.324 277.75 525.152 279.73 526.52V521.192C277.894 520.184 275.77 519.536 272.782 519.536C268.138 519.536 264.43 521.948 264.43 526.34C264.43 530.012 266.482 531.848 270.19 532.928L273.538 533.9C274.726 534.332 275.41 534.692 275.41 535.772C275.41 537.14 273.826 537.536 271.99 537.536C269.506 537.536 266.806 536.528 264.898 535.232ZM292.939 542.36C298.771 542.36 302.551 539.048 302.551 533V519.896H296.791V532.46C296.791 535.592 295.315 537.212 292.939 537.212C290.527 537.212 289.051 535.592 289.051 532.46V519.896H283.291V532.964C283.291 539.048 287.107 542.36 292.939 542.36ZM311.345 535.124H315.305C320.093 535.124 323.333 532.424 323.333 527.528C323.333 522.596 320.093 519.896 315.305 519.896H305.621V542H311.345V535.124ZM317.717 527.528C317.717 529.184 316.781 530.3 314.693 530.3H311.345V524.756H314.693C316.781 524.756 317.717 525.836 317.717 527.528ZM341.605 519.896H325.801V542H341.605V536.996H331.489V533.18H340.741V528.32H331.489V524.864H341.605V519.896ZM350.193 534.692H352.209L356.817 542H363.225L358.041 534.08C360.741 533.072 362.433 530.768 362.433 527.42C362.433 522.596 359.157 519.896 354.405 519.896H344.469V542H350.193V534.692ZM350.193 530.084V524.756H353.793C355.845 524.756 356.781 525.8 356.781 527.42C356.781 529.04 355.845 530.084 353.793 530.084H350.193ZM365.14 519.896V542H373.492C380.44 542 384.652 537.68 384.652 530.948C384.652 524.216 380.44 519.896 373.492 519.896H365.14ZM373.204 536.996H370.828V524.864H373.204C376.876 524.864 378.928 527.204 378.928 530.948C378.928 534.656 376.876 536.996 373.204 536.996ZM407.99 530.948C407.99 524.324 403.562 519.536 397.154 519.536C390.782 519.536 386.39 524.324 386.39 530.948C386.39 537.536 390.782 542.36 397.154 542.36C403.562 542.36 407.99 537.536 407.99 530.948ZM402.158 530.948C402.158 534.764 400.142 537.284 397.154 537.284C394.166 537.284 392.222 534.764 392.222 530.948C392.222 527.132 394.166 524.612 397.154 524.612C400.142 524.612 402.158 527.132 402.158 530.948ZM421.726 537.248H421.87L427.522 529.328V542H433.21V519.896H427.882L421.798 528.896L415.75 519.896H410.386V542H416.038V529.328L421.726 537.248ZM452.312 519.896H436.508V542H452.312V536.996H442.196V533.18H451.448V528.32H442.196V524.864H452.312V519.896Z" fill="black"/>
<line x1="88" y1="587.5" x2="776" y2="587.5" stroke="#999999"/>
<path d="M312.293 755.293C311.902 755.683 311.902 756.317 312.293 756.707L318.657 763.071C319.047 763.462 319.681 763.462 320.071 763.071C320.462 762.681 320.462 762.047 320.071 761.657L314.414 756L320.071 750.343C320.462 749.953 320.462 749.319 320.071 748.929C319.681 748.538 319.047 748.538 318.657 748.929L312.293 755.293ZM850 352H851V351H850V352ZM850 756V757H851V756H850ZM679 353H850V351H679V353ZM849 352V756H851V352H849ZM850 755H313V757H850V755Z" fill="#FC5A5A"/>
<defs>
<clipPath id="clip0_7795:148151">
<rect width="198" height="144" fill="white" transform="translate(280 226)"/>
</clipPath>
</defs>
</svg>
