<svg width="1078" height="414" viewBox="0 0 1078 414" fill="none" xmlns="http://www.w3.org/2000/svg">
<rect width="1078" height="414" fill="white"/>
<rect x="42" y="194" width="810" height="36" rx="12" fill="white"/>
<rect width="48" height="36" transform="translate(42 194)" fill="white"/>
<rect x="54" y="200" width="24" height="24" rx="2" fill="white" stroke="#999999"/>
<path d="M42 229.5H90" stroke="#999999"/>
<rect x="90" y="194" width="188" height="36" fill="white"/>
<path d="M278 229.5L90 229.5" stroke="#999999"/>
<path d="M112.584 217V205.948H109.794V212.032L105.528 205.948H102.828V217H105.618V210.538L110.244 217H112.584ZM118.61 212.122V212.41C118.286 212.176 117.53 211.96 116.846 211.96C115.1 211.96 113.732 212.968 113.732 214.534C113.732 216.244 115.1 217.144 116.702 217.144C117.566 217.144 118.34 216.856 118.61 216.586V217H121.328V211.996C121.328 209.854 119.96 208.72 117.566 208.72C116.414 208.72 115.334 208.99 114.668 209.35V211.618C115.316 211.24 116.108 211.042 116.882 211.042C118.034 211.042 118.61 211.492 118.61 212.122ZM118.61 214.264V214.732C118.43 215.056 117.98 215.272 117.476 215.272C116.918 215.272 116.36 215.038 116.36 214.48C116.36 213.94 116.918 213.706 117.476 213.706C117.98 213.706 118.43 213.922 118.61 214.264ZM129.923 209.692C129.437 209.116 128.717 208.72 127.691 208.72C126.791 208.72 126.017 209.062 125.603 209.566V208.9H122.777V217H125.603V212.068C125.729 211.51 126.161 211.204 126.647 211.204C127.277 211.204 127.565 211.69 127.565 212.374V217H130.373V212.068C130.517 211.51 130.931 211.204 131.417 211.204C132.047 211.204 132.335 211.69 132.335 212.374V217H135.161V211.69C135.161 209.872 134.117 208.72 132.425 208.72C131.237 208.72 130.409 209.188 129.923 209.692ZM138.915 213.598H143.901V212.77C143.901 210.358 142.623 208.72 140.103 208.72C137.871 208.72 136.179 210.466 136.179 213.004C136.179 215.614 137.943 217.18 140.535 217.18C141.705 217.18 142.695 216.928 143.325 216.46V214.318C142.515 214.804 141.849 214.966 140.985 214.966C139.941 214.966 139.149 214.57 138.915 213.598ZM140.211 210.862C140.895 210.862 141.309 211.33 141.381 212.014H138.951C139.149 211.276 139.599 210.862 140.211 210.862Z" fill="black"/>
<rect x="278" y="194" width="198" height="36" fill="white"/>
<path d="M476 229.5L278 229.5" stroke="#999999"/>
<path d="M290.576 213.616V216.28C291.386 216.766 292.718 217.18 294.194 217.18C296.678 217.18 298.712 216.118 298.712 213.724C298.712 212.032 297.794 210.97 295.778 210.34L294.104 209.836C293.528 209.656 293.186 209.458 293.186 208.954C293.186 208.396 293.816 208.162 294.644 208.162C295.904 208.162 297.002 208.576 297.992 209.26V206.596C297.074 206.092 296.012 205.768 294.518 205.768C292.196 205.768 290.342 206.974 290.342 209.17C290.342 211.006 291.368 211.924 293.222 212.464L294.896 212.95C295.49 213.166 295.832 213.346 295.832 213.886C295.832 214.57 295.04 214.768 294.122 214.768C292.88 214.768 291.53 214.264 290.576 213.616ZM303.535 217V211.096H305.119V208.9H303.535V206.668H300.727V208.9H299.323V211.096H300.727V217H303.535ZM310.39 212.122V212.41C310.066 212.176 309.31 211.96 308.626 211.96C306.88 211.96 305.512 212.968 305.512 214.534C305.512 216.244 306.88 217.144 308.482 217.144C309.346 217.144 310.12 216.856 310.39 216.586V217H313.108V211.996C313.108 209.854 311.74 208.72 309.346 208.72C308.194 208.72 307.114 208.99 306.448 209.35V211.618C307.096 211.24 307.888 211.042 308.662 211.042C309.813 211.042 310.39 211.492 310.39 212.122ZM310.39 214.264V214.732C310.21 215.056 309.76 215.272 309.256 215.272C308.698 215.272 308.14 215.038 308.14 214.48C308.14 213.94 308.698 213.706 309.256 213.706C309.76 213.706 310.21 213.922 310.39 214.264ZM318.266 217V211.096H319.85V208.9H318.266V206.668H315.458V208.9H314.054V211.096H315.458V217H318.266ZM328.679 217V208.9H325.853V213.814C325.709 214.372 325.223 214.714 324.701 214.714C323.981 214.714 323.657 214.228 323.657 213.544V208.9H320.849V214.21C320.849 216.01 321.911 217.18 323.693 217.18C324.611 217.18 325.421 216.802 325.853 216.298V217H328.679ZM329.896 214.03V216.406C330.652 216.91 331.84 217.18 332.974 217.18C334.972 217.18 336.466 216.334 336.466 214.606C336.466 213.238 335.764 212.518 334 212.05L333.262 211.834C332.866 211.726 332.632 211.618 332.632 211.312C332.632 210.988 332.956 210.826 333.442 210.826C334.36 210.826 335.224 211.204 335.998 211.762V209.44C335.206 208.954 334.324 208.72 333.172 208.72C331.264 208.72 329.86 209.674 329.86 211.366C329.86 212.824 330.814 213.526 332.308 213.85L332.938 214.012C333.424 214.12 333.676 214.246 333.676 214.57C333.676 214.93 333.316 215.056 332.758 215.056C331.93 215.056 330.67 214.66 329.896 214.03Z" fill="black"/>
<rect x="476" y="194" width="188" height="36" fill="white"/>
<path d="M664 229.5L476 229.5" stroke="#999999"/>
<path d="M488.576 213.616V216.28C489.386 216.766 490.718 217.18 492.194 217.18C494.678 217.18 496.712 216.118 496.712 213.724C496.712 212.032 495.794 210.97 493.778 210.34L492.104 209.836C491.528 209.656 491.186 209.458 491.186 208.954C491.186 208.396 491.816 208.162 492.644 208.162C493.904 208.162 495.002 208.576 495.992 209.26V206.596C495.074 206.092 494.012 205.768 492.518 205.768C490.196 205.768 488.342 206.974 488.342 209.17C488.342 211.006 489.368 211.924 491.222 212.464L492.896 212.95C493.49 213.166 493.832 213.346 493.832 213.886C493.832 214.57 493.04 214.768 492.122 214.768C490.88 214.768 489.53 214.264 488.576 213.616ZM500.271 213.598H505.257V212.77C505.257 210.358 503.979 208.72 501.459 208.72C499.227 208.72 497.535 210.466 497.535 213.004C497.535 215.614 499.299 217.18 501.891 217.18C503.061 217.18 504.051 216.928 504.681 216.46V214.318C503.871 214.804 503.205 214.966 502.341 214.966C501.297 214.966 500.505 214.57 500.271 213.598ZM501.567 210.862C502.251 210.862 502.665 211.33 502.737 212.014H500.307C500.505 211.276 500.955 210.862 501.567 210.862ZM511.823 211.582V208.864C511.697 208.792 511.409 208.72 511.049 208.72C510.239 208.72 509.609 209.08 509.213 209.62V208.9H506.387V217H509.213V212.248C509.357 211.672 509.879 211.33 510.653 211.33C511.103 211.33 511.481 211.402 511.823 211.582ZM515.985 206.704C515.985 205.768 515.247 205.174 514.383 205.174C513.519 205.174 512.781 205.768 512.781 206.704C512.781 207.622 513.519 208.216 514.383 208.216C515.247 208.216 515.985 207.622 515.985 206.704ZM515.787 217V208.9H512.961V217H515.787ZM521.766 212.122V212.41C521.442 212.176 520.686 211.96 520.002 211.96C518.256 211.96 516.888 212.968 516.888 214.534C516.888 216.244 518.256 217.144 519.858 217.144C520.722 217.144 521.496 216.856 521.766 216.586V217H524.484V211.996C524.484 209.854 523.116 208.72 520.722 208.72C519.57 208.72 518.49 208.99 517.824 209.35V211.618C518.472 211.24 519.264 211.042 520.038 211.042C521.19 211.042 521.766 211.492 521.766 212.122ZM521.766 214.264V214.732C521.586 215.056 521.136 215.272 520.632 215.272C520.074 215.272 519.516 215.038 519.516 214.48C519.516 213.94 520.074 213.706 520.632 213.706C521.136 213.706 521.586 213.922 521.766 214.264ZM528.76 217V205.3H525.934V217H528.76Z" fill="black"/>
<rect x="664" y="194" width="188" height="36" fill="white"/>
<path d="M852 229.5L664 229.5" stroke="#999999"/>
<path d="M679.69 213.562H681.67C684.064 213.562 685.684 212.212 685.684 209.764C685.684 207.298 684.064 205.948 681.67 205.948H676.828V217H679.69V213.562ZM682.876 209.764C682.876 210.592 682.408 211.15 681.364 211.15H679.69V208.378H681.364C682.408 208.378 682.876 208.918 682.876 209.764ZM694.395 212.95C694.395 210.448 692.721 208.72 690.255 208.72C687.807 208.72 686.115 210.448 686.115 212.95C686.115 215.452 687.807 217.18 690.255 217.18C692.721 217.18 694.395 215.452 694.395 212.95ZM691.623 212.95C691.623 214.066 691.137 214.84 690.255 214.84C689.391 214.84 688.905 214.066 688.905 212.95C688.905 211.834 689.391 211.042 690.255 211.042C691.137 211.042 691.623 211.834 691.623 212.95ZM702.952 213.292L701.746 208.9H699.946L698.722 213.292L697.444 208.9H694.636L697.246 217H699.64L700.792 212.896L701.944 217H704.338L706.948 208.9H704.248L702.952 213.292ZM709.91 213.598H714.896V212.77C714.896 210.358 713.618 208.72 711.098 208.72C708.866 208.72 707.174 210.466 707.174 213.004C707.174 215.614 708.938 217.18 711.53 217.18C712.7 217.18 713.69 216.928 714.32 216.46V214.318C713.51 214.804 712.844 214.966 711.98 214.966C710.936 214.966 710.144 214.57 709.91 213.598ZM711.206 210.862C711.89 210.862 712.304 211.33 712.376 212.014H709.946C710.144 211.276 710.594 210.862 711.206 210.862ZM721.462 211.582V208.864C721.336 208.792 721.048 208.72 720.688 208.72C719.878 208.72 719.248 209.08 718.852 209.62V208.9H716.026V217H718.852V212.248C718.996 211.672 719.518 211.33 720.292 211.33C720.742 211.33 721.12 211.402 721.462 211.582Z" fill="black"/>
<rect x="42" y="230" width="810" height="144" rx="12" fill="white"/>
<rect width="48" height="36" transform="translate(42 230)" fill="white"/>
<rect x="54" y="236" width="24" height="24" rx="2" fill="white" stroke="#999999"/>
<rect width="48" height="36" transform="translate(42 266)" fill="white"/>
<rect x="54" y="272" width="24" height="24" rx="2" fill="white" stroke="#999999"/>
<rect width="48" height="36" transform="translate(42 302)" fill="white"/>
<rect x="54" y="308" width="24" height="24" rx="2" fill="white" stroke="#999999"/>
<rect width="48" height="36" transform="translate(42 338)" fill="white"/>
<rect x="54" y="344" width="24" height="24" rx="2" fill="white" stroke="#999999"/>
<rect x="90" y="230" width="188" height="36" fill="white"/>
<path d="M112.89 241.948H109.992V246.142H105.726V241.948H102.828V253H105.726V248.626H109.992V253H112.89V241.948ZM117.397 249.562H119.377C121.771 249.562 123.391 248.212 123.391 245.764C123.391 243.298 121.771 241.948 119.377 241.948H114.535V253H117.397V249.562ZM120.583 245.764C120.583 246.592 120.115 247.15 119.071 247.15H117.397V244.378H119.071C120.115 244.378 120.583 244.918 120.583 245.764ZM132.527 241.948H124.625V253H132.527V250.498H127.469V248.59H132.095V246.16H127.469V244.432H132.527V241.948ZM133.491 253.756V255.898H139.629V253.756H133.491ZM140.562 249.616V252.28C141.372 252.766 142.704 253.18 144.18 253.18C146.664 253.18 148.698 252.118 148.698 249.724C148.698 248.032 147.78 246.97 145.764 246.34L144.09 245.836C143.514 245.656 143.172 245.458 143.172 244.954C143.172 244.396 143.802 244.162 144.63 244.162C145.89 244.162 146.988 244.576 147.978 245.26V242.596C147.06 242.092 145.998 241.768 144.504 241.768C142.182 241.768 140.328 242.974 140.328 245.17C140.328 247.006 141.354 247.924 143.208 248.464L144.882 248.95C145.476 249.166 145.818 249.346 145.818 249.886C145.818 250.57 145.026 250.768 144.108 250.768C142.866 250.768 141.516 250.264 140.562 249.616ZM155.194 250.606C153.52 250.606 152.386 249.382 152.386 247.51C152.386 245.602 153.628 244.432 155.392 244.432C156.742 244.432 157.75 244.828 158.596 245.44V242.632C157.786 242.11 156.616 241.768 155.392 241.768C151.882 241.768 149.488 244.036 149.488 247.51C149.488 250.84 151.648 253.18 155.104 253.18C156.634 253.18 158.056 252.73 159.172 251.704V246.826H155.014V249.13H156.616V250.21C156.256 250.48 155.77 250.606 155.194 250.606ZM163.523 253V241.948H160.625V253H163.523ZM169.048 253.18C171.37 253.18 173.224 251.974 173.224 249.94C173.224 248.644 172.432 247.726 171.442 247.384C172.324 246.952 172.882 246.07 172.882 244.99C172.882 242.902 171.082 241.768 169.048 241.768C167.014 241.768 165.214 242.902 165.214 244.99C165.214 246.07 165.754 246.952 166.654 247.384C165.646 247.726 164.854 248.644 164.854 249.94C164.854 251.974 166.726 253.18 169.048 253.18ZM169.048 246.196C168.346 246.196 167.788 245.746 167.788 245.08C167.788 244.378 168.346 243.928 169.048 243.928C169.75 243.928 170.308 244.378 170.308 245.08C170.308 245.746 169.75 246.196 169.048 246.196ZM169.048 250.948C168.238 250.948 167.626 250.462 167.626 249.724C167.626 248.968 168.238 248.5 169.048 248.5C169.858 248.5 170.47 248.968 170.47 249.724C170.47 250.462 169.858 250.948 169.048 250.948ZM178.381 253.18C180.811 253.18 182.593 251.434 182.593 249.076C182.593 247.042 181.171 245.404 179.011 245.242C178.921 245.242 178.813 245.26 178.741 245.278L180.631 241.948H177.553L175.231 245.962C174.457 247.276 174.187 248.14 174.187 249.076C174.187 251.434 175.969 253.18 178.381 253.18ZM179.983 249.076C179.983 249.994 179.317 250.678 178.381 250.678C177.499 250.678 176.797 249.994 176.797 249.076C176.797 248.176 177.499 247.456 178.381 247.456C179.317 247.456 179.983 248.176 179.983 249.076ZM187.733 253.18C190.451 253.18 192.053 250.84 192.053 247.474C192.053 244.108 190.451 241.768 187.733 241.768C185.015 241.768 183.413 244.108 183.413 247.474C183.413 250.84 185.015 253.18 187.733 253.18ZM187.733 244.306C188.885 244.306 189.245 245.764 189.245 247.474C189.245 249.184 188.885 250.642 187.733 250.642C186.563 250.642 186.221 249.184 186.221 247.474C186.221 245.764 186.563 244.306 187.733 244.306ZM197.084 253.18C199.802 253.18 201.404 250.84 201.404 247.474C201.404 244.108 199.802 241.768 197.084 241.768C194.366 241.768 192.764 244.108 192.764 247.474C192.764 250.84 194.366 253.18 197.084 253.18ZM197.084 244.306C198.236 244.306 198.596 245.764 198.596 247.474C198.596 249.184 198.236 250.642 197.084 250.642C195.914 250.642 195.572 249.184 195.572 247.474C195.572 245.764 195.914 244.306 197.084 244.306Z" fill="#444444"/>
<rect x="90" y="266" width="188" height="36" fill="white"/>
<path d="M112.89 277.948H109.992V282.142H105.726V277.948H102.828V289H105.726V284.626H109.992V289H112.89V277.948ZM117.397 285.562H119.377C121.771 285.562 123.391 284.212 123.391 281.764C123.391 279.298 121.771 277.948 119.377 277.948H114.535V289H117.397V285.562ZM120.583 281.764C120.583 282.592 120.115 283.15 119.071 283.15H117.397V280.378H119.071C120.115 280.378 120.583 280.918 120.583 281.764ZM132.527 277.948H124.625V289H132.527V286.498H127.469V284.59H132.095V282.16H127.469V280.432H132.527V277.948ZM133.491 289.756V291.898H139.629V289.756H133.491ZM147.276 277.948H144.324L140.112 289H142.974L143.748 286.858H147.762L148.554 289H151.488L147.276 277.948ZM144.63 284.482L145.764 281.368L146.898 284.482H144.63ZM155.313 285.562H157.293C159.687 285.562 161.307 284.212 161.307 281.764C161.307 279.298 159.687 277.948 157.293 277.948H152.451V289H155.313V285.562ZM158.499 281.764C158.499 282.592 158.031 283.15 156.987 283.15H155.313V280.378H156.987C158.031 280.378 158.499 280.918 158.499 281.764ZM172.909 283.474C172.909 280.162 170.695 277.768 167.491 277.768C164.305 277.768 162.109 280.162 162.109 283.474C162.109 286.768 164.305 289.18 167.491 289.18C170.695 289.18 172.909 286.768 172.909 283.474ZM169.993 283.474C169.993 285.382 168.985 286.642 167.491 286.642C165.997 286.642 165.025 285.382 165.025 283.474C165.025 281.566 165.997 280.306 167.491 280.306C168.985 280.306 169.993 281.566 169.993 283.474ZM174.107 277.948V289H181.955V286.498H177.005V277.948H174.107ZM183.283 277.948V289H191.131V286.498H186.181V277.948H183.283ZM202.44 283.474C202.44 280.162 200.226 277.768 197.022 277.768C193.836 277.768 191.64 280.162 191.64 283.474C191.64 286.768 193.836 289.18 197.022 289.18C200.226 289.18 202.44 286.768 202.44 283.474ZM199.524 283.474C199.524 285.382 198.516 286.642 197.022 286.642C195.528 286.642 194.556 285.382 194.556 283.474C194.556 281.566 195.528 280.306 197.022 280.306C198.516 280.306 199.524 281.566 199.524 283.474ZM207.491 289.18C209.921 289.18 211.703 287.434 211.703 285.076C211.703 283.042 210.281 281.404 208.121 281.242C208.031 281.242 207.923 281.26 207.851 281.278L209.741 277.948H206.663L204.341 281.962C203.567 283.276 203.297 284.14 203.297 285.076C203.297 287.434 205.079 289.18 207.491 289.18ZM209.093 285.076C209.093 285.994 208.427 286.678 207.491 286.678C206.609 286.678 205.907 285.994 205.907 285.076C205.907 284.176 206.609 283.456 207.491 283.456C208.427 283.456 209.093 284.176 209.093 285.076ZM216.59 281.746C216.248 281.746 215.87 281.782 215.654 281.836V280.432H220.118V277.948H213.404V284.482C214.106 284.212 215.096 284.05 215.978 284.05C217.166 284.05 218.066 284.518 218.066 285.472C218.066 286.408 217.13 286.84 216.086 286.84C214.934 286.84 213.8 286.336 213.026 285.652V288.262C213.818 288.784 214.898 289.18 216.32 289.18C218.858 289.18 220.748 287.722 220.748 285.436C220.748 283.132 218.948 281.746 216.59 281.746ZM226.194 289.18C228.912 289.18 230.514 286.84 230.514 283.474C230.514 280.108 228.912 277.768 226.194 277.768C223.476 277.768 221.874 280.108 221.874 283.474C221.874 286.84 223.476 289.18 226.194 289.18ZM226.194 280.306C227.346 280.306 227.706 281.764 227.706 283.474C227.706 285.184 227.346 286.642 226.194 286.642C225.024 286.642 224.682 285.184 224.682 283.474C224.682 281.764 225.024 280.306 226.194 280.306ZM235.545 289.18C238.263 289.18 239.865 286.84 239.865 283.474C239.865 280.108 238.263 277.768 235.545 277.768C232.827 277.768 231.225 280.108 231.225 283.474C231.225 286.84 232.827 289.18 235.545 289.18ZM235.545 280.306C236.697 280.306 237.057 281.764 237.057 283.474C237.057 285.184 236.697 286.642 235.545 286.642C234.375 286.642 234.033 285.184 234.033 283.474C234.033 281.764 234.375 280.306 235.545 280.306Z" fill="#444444"/>
<rect x="90" y="302" width="188" height="36" fill="white"/>
<path d="M112.584 325V313.948H109.794V320.032L105.528 313.948H102.828V325H105.618V318.538L110.244 325H112.584ZM122.012 320.95C122.012 318.448 120.338 316.72 117.872 316.72C115.424 316.72 113.732 318.448 113.732 320.95C113.732 323.452 115.424 325.18 117.872 325.18C120.338 325.18 122.012 323.452 122.012 320.95ZM119.24 320.95C119.24 322.066 118.754 322.84 117.872 322.84C117.008 322.84 116.522 322.066 116.522 320.95C116.522 319.834 117.008 319.042 117.872 319.042C118.754 319.042 119.24 319.834 119.24 320.95ZM126.785 325V319.096H128.369V316.9H126.785V314.668H123.977V316.9H122.573V319.096H123.977V325H126.785ZM132.72 322.03V324.406C133.476 324.91 134.664 325.18 135.798 325.18C137.796 325.18 139.29 324.334 139.29 322.606C139.29 321.238 138.588 320.518 136.824 320.05L136.086 319.834C135.69 319.726 135.456 319.618 135.456 319.312C135.456 318.988 135.78 318.826 136.266 318.826C137.184 318.826 138.048 319.204 138.822 319.762V317.44C138.03 316.954 137.148 316.72 135.996 316.72C134.088 316.72 132.684 317.674 132.684 319.366C132.684 320.824 133.638 321.526 135.132 321.85L135.762 322.012C136.248 322.12 136.5 322.246 136.5 322.57C136.5 322.93 136.14 323.056 135.582 323.056C134.754 323.056 133.494 322.66 132.72 322.03ZM142.765 321.598H147.751V320.77C147.751 318.358 146.473 316.72 143.953 316.72C141.721 316.72 140.029 318.466 140.029 321.004C140.029 323.614 141.793 325.18 144.385 325.18C145.555 325.18 146.545 324.928 147.175 324.46V322.318C146.365 322.804 145.699 322.966 144.835 322.966C143.791 322.966 142.999 322.57 142.765 321.598ZM144.061 318.862C144.745 318.862 145.159 319.33 145.231 320.014H142.801C142.999 319.276 143.449 318.862 144.061 318.862ZM152.59 325V319.096H154.174V316.9H152.59V314.668H149.782V316.9H148.378V319.096H149.782V325H152.59Z" fill="#444444"/>
<rect x="90" y="338" width="188" height="36" fill="white"/>
<path d="M112.89 349.948H109.992V354.142H105.726V349.948H102.828V361H105.726V356.626H109.992V361H112.89V349.948ZM117.397 357.562H119.377C121.771 357.562 123.391 356.212 123.391 353.764C123.391 351.298 121.771 349.948 119.377 349.948H114.535V361H117.397V357.562ZM120.583 353.764C120.583 354.592 120.115 355.15 119.071 355.15H117.397V352.378H119.071C120.115 352.378 120.583 352.918 120.583 353.764ZM132.527 349.948H124.625V361H132.527V358.498H127.469V356.59H132.095V354.16H127.469V352.432H132.527V349.948ZM133.491 361.756V363.898H139.629V361.756H133.491ZM140.562 357.616V360.28C141.372 360.766 142.704 361.18 144.18 361.18C146.664 361.18 148.698 360.118 148.698 357.724C148.698 356.032 147.78 354.97 145.764 354.34L144.09 353.836C143.514 353.656 143.172 353.458 143.172 352.954C143.172 352.396 143.802 352.162 144.63 352.162C145.89 352.162 146.988 352.576 147.978 353.26V350.596C147.06 350.092 145.998 349.768 144.504 349.768C142.182 349.768 140.328 350.974 140.328 353.17C140.328 355.006 141.354 355.924 143.208 356.464L144.882 356.95C145.476 357.166 145.818 357.346 145.818 357.886C145.818 358.57 145.026 358.768 144.108 358.768C142.866 358.768 141.516 358.264 140.562 357.616ZM154.583 361.18C157.499 361.18 159.389 359.524 159.389 356.5V349.948H156.509V356.23C156.509 357.796 155.771 358.606 154.583 358.606C153.377 358.606 152.639 357.796 152.639 356.23V349.948H149.759V356.482C149.759 359.524 151.667 361.18 154.583 361.18ZM163.786 357.562H165.766C168.16 357.562 169.78 356.212 169.78 353.764C169.78 351.298 168.16 349.948 165.766 349.948H160.924V361H163.786V357.562ZM166.972 353.764C166.972 354.592 166.504 355.15 165.46 355.15H163.786V352.378H165.46C166.504 352.378 166.972 352.918 166.972 353.764ZM178.916 349.948H171.014V361H178.916V358.498H173.858V356.59H178.484V354.16H173.858V352.432H178.916V349.948ZM183.21 357.346H184.218L186.522 361H189.726L187.134 357.04C188.484 356.536 189.33 355.384 189.33 353.71C189.33 351.298 187.692 349.948 185.316 349.948H180.348V361H183.21V357.346ZM183.21 355.042V352.378H185.01C186.036 352.378 186.504 352.9 186.504 353.71C186.504 354.52 186.036 355.042 185.01 355.042H183.21ZM190.683 349.948V361H194.859C198.333 361 200.439 358.84 200.439 355.474C200.439 352.108 198.333 349.948 194.859 349.948H190.683ZM194.715 358.498H193.527V352.432H194.715C196.551 352.432 197.577 353.602 197.577 355.474C197.577 357.328 196.551 358.498 194.715 358.498ZM212.108 355.474C212.108 352.162 209.894 349.768 206.69 349.768C203.504 349.768 201.308 352.162 201.308 355.474C201.308 358.768 203.504 361.18 206.69 361.18C209.894 361.18 212.108 358.768 212.108 355.474ZM209.192 355.474C209.192 357.382 208.184 358.642 206.69 358.642C205.196 358.642 204.224 357.382 204.224 355.474C204.224 353.566 205.196 352.306 206.69 352.306C208.184 352.306 209.192 353.566 209.192 355.474ZM218.977 358.624H219.049L221.875 354.664V361H224.719V349.948H222.055L219.013 354.448L215.989 349.948H213.307V361H216.133V354.664L218.977 358.624ZM234.269 349.948H226.367V361H234.269V358.498H229.211V356.59H233.837V354.16H229.211V352.432H234.269V349.948Z" fill="#444444"/>
<g clip-path="url(#clip0_7795:147870)">
<path d="M296 253C298.761 253 301 250.761 301 248C301 245.239 298.761 243 296 243C293.239 243 291 245.239 291 248C291 250.761 293.239 253 296 253Z" fill="#17EBA0" stroke="#17EBA0"/>
<rect x="302" y="230" width="176" height="36" fill="white"/>
<path d="M316.736 248.32H318.698L321.866 253H323.486L320.21 248.266C321.956 248.014 323.036 246.988 323.036 245.152C323.036 243.064 321.596 241.948 319.364 241.948H315.314V253H316.736V248.32ZM316.736 247.114V243.19H319.328C320.786 243.19 321.632 243.928 321.632 245.152C321.632 246.376 320.786 247.114 319.328 247.114H316.736ZM331.457 253V245.008H330.089V250.426C329.801 251.29 329.027 251.92 328.091 251.92C326.885 251.92 326.345 251.146 326.345 250.03V245.008H324.977V250.246C324.977 251.992 325.949 253.162 327.767 253.162C328.793 253.162 329.639 252.622 330.089 251.992V253H331.457ZM333.856 245.008V253H335.206V247.582C335.494 246.718 336.304 246.088 337.24 246.088C338.446 246.088 339.004 246.862 339.004 247.978V253H340.372V247.762C340.372 246.016 339.382 244.846 337.564 244.846C336.538 244.846 335.674 245.386 335.206 246.016V245.008H333.856ZM342.663 245.008V253H344.013V247.582C344.301 246.718 345.111 246.088 346.047 246.088C347.253 246.088 347.811 246.862 347.811 247.978V253H349.179V247.762C349.179 246.016 348.189 244.846 346.371 244.846C345.345 244.846 344.481 245.386 344.013 246.016V245.008H342.663ZM353.018 242.596C353.018 242.11 352.622 241.732 352.136 241.732C351.668 241.732 351.272 242.11 351.272 242.596C351.272 243.064 351.668 243.46 352.136 243.46C352.622 243.46 353.018 243.064 353.018 242.596ZM352.82 253V245.008H351.47V253H352.82ZM355.231 245.008V253H356.581V247.582C356.869 246.718 357.679 246.088 358.615 246.088C359.821 246.088 360.379 246.862 360.379 247.978V253H361.747V247.762C361.747 246.016 360.757 244.846 358.939 244.846C357.913 244.846 357.049 245.386 356.581 246.016V245.008H355.231ZM369.258 251.938V252.46C369.258 254.17 368.142 255.016 366.72 255.016C365.784 255.016 364.938 254.764 364.146 254.026V255.52C364.758 255.952 365.694 256.24 366.72 256.24C368.628 256.24 370.626 255.16 370.626 252.37V245.008H369.258V245.908C368.862 245.35 368.016 244.846 367.026 244.846C364.686 244.846 363.462 246.79 363.462 248.932C363.462 251.074 364.686 253.018 367.026 253.018C368.016 253.018 368.862 252.496 369.258 251.938ZM369.258 247.294V250.552C368.844 251.308 368.088 251.794 367.224 251.794C365.712 251.794 364.83 250.588 364.83 248.932C364.83 247.258 365.712 246.052 367.224 246.052C368.088 246.052 368.844 246.538 369.258 247.294Z" fill="#444444"/>
<path d="M296 289C298.761 289 301 286.761 301 284C301 281.239 298.761 279 296 279C293.239 279 291 281.239 291 284C291 286.761 293.239 289 296 289Z" fill="#17EBA0" stroke="#17EBA0"/>
<rect x="302" y="266" width="176" height="36" fill="white"/>
<path d="M316.736 284.32H318.698L321.866 289H323.486L320.21 284.266C321.956 284.014 323.036 282.988 323.036 281.152C323.036 279.064 321.596 277.948 319.364 277.948H315.314V289H316.736V284.32ZM316.736 283.114V279.19H319.328C320.786 279.19 321.632 279.928 321.632 281.152C321.632 282.376 320.786 283.114 319.328 283.114H316.736ZM331.457 289V281.008H330.089V286.426C329.801 287.29 329.027 287.92 328.091 287.92C326.885 287.92 326.345 287.146 326.345 286.03V281.008H324.977V286.246C324.977 287.992 325.949 289.162 327.767 289.162C328.793 289.162 329.639 288.622 330.089 287.992V289H331.457ZM333.856 281.008V289H335.206V283.582C335.494 282.718 336.304 282.088 337.24 282.088C338.446 282.088 339.004 282.862 339.004 283.978V289H340.372V283.762C340.372 282.016 339.382 280.846 337.564 280.846C336.538 280.846 335.674 281.386 335.206 282.016V281.008H333.856ZM342.663 281.008V289H344.013V283.582C344.301 282.718 345.111 282.088 346.047 282.088C347.253 282.088 347.811 282.862 347.811 283.978V289H349.179V283.762C349.179 282.016 348.189 280.846 346.371 280.846C345.345 280.846 344.481 281.386 344.013 282.016V281.008H342.663ZM353.018 278.596C353.018 278.11 352.622 277.732 352.136 277.732C351.668 277.732 351.272 278.11 351.272 278.596C351.272 279.064 351.668 279.46 352.136 279.46C352.622 279.46 353.018 279.064 353.018 278.596ZM352.82 289V281.008H351.47V289H352.82ZM355.231 281.008V289H356.581V283.582C356.869 282.718 357.679 282.088 358.615 282.088C359.821 282.088 360.379 282.862 360.379 283.978V289H361.747V283.762C361.747 282.016 360.757 280.846 358.939 280.846C357.913 280.846 357.049 281.386 356.581 282.016V281.008H355.231ZM369.258 287.938V288.46C369.258 290.17 368.142 291.016 366.72 291.016C365.784 291.016 364.938 290.764 364.146 290.026V291.52C364.758 291.952 365.694 292.24 366.72 292.24C368.628 292.24 370.626 291.16 370.626 288.37V281.008H369.258V281.908C368.862 281.35 368.016 280.846 367.026 280.846C364.686 280.846 363.462 282.79 363.462 284.932C363.462 287.074 364.686 289.018 367.026 289.018C368.016 289.018 368.862 288.496 369.258 287.938ZM369.258 283.294V286.552C368.844 287.308 368.088 287.794 367.224 287.794C365.712 287.794 364.83 286.588 364.83 284.932C364.83 283.258 365.712 282.052 367.224 282.052C368.088 282.052 368.844 282.538 369.258 283.294Z" fill="#444444"/>
<path d="M300 315H292C291.448 315 291 315.448 291 316V324C291 324.552 291.448 325 292 325H300C300.552 325 301 324.552 301 324V316C301 315.448 300.552 315 300 315Z" fill="#CCCCCC" stroke="#CCCCCC"/>
<rect x="302" y="302" width="176" height="36" fill="white"/>
<path d="M323.9 325V313.948H322.55V322.354L316.664 313.948H315.314V325H316.682V316.216L322.856 325H323.9ZM333.189 321.004C333.189 318.556 331.695 316.846 329.517 316.846C327.321 316.846 325.845 318.556 325.845 321.004C325.845 323.452 327.321 325.162 329.517 325.162C331.695 325.162 333.189 323.452 333.189 321.004ZM331.821 321.004C331.821 322.75 330.957 323.974 329.517 323.974C328.077 323.974 327.213 322.75 327.213 321.004C327.213 319.258 328.077 318.034 329.517 318.034C330.957 318.034 331.821 319.258 331.821 321.004ZM337.126 325V318.16H338.979V317.008H337.126V314.902H335.776V317.008H334.102V318.16H335.776V325H337.126ZM344.021 321.004C344.021 323.56 345.713 325.162 347.873 325.162C348.647 325.162 349.457 324.982 350.015 324.496V323.128C349.439 323.704 348.737 323.956 347.963 323.956C346.541 323.956 345.389 322.84 345.389 321.004C345.389 319.168 346.541 318.052 347.963 318.052C348.737 318.052 349.439 318.304 350.015 318.88V317.512C349.457 317.026 348.647 316.846 347.873 316.846C345.713 316.846 344.021 318.448 344.021 321.004ZM358.66 321.004C358.66 318.556 357.166 316.846 354.988 316.846C352.792 316.846 351.316 318.556 351.316 321.004C351.316 323.452 352.792 325.162 354.988 325.162C357.166 325.162 358.66 323.452 358.66 321.004ZM357.292 321.004C357.292 322.75 356.428 323.974 354.988 323.974C353.548 323.974 352.684 322.75 352.684 321.004C352.684 319.258 353.548 318.034 354.988 318.034C356.428 318.034 357.292 319.258 357.292 321.004ZM360.487 317.008V325H361.837V319.582C362.125 318.718 362.935 318.088 363.871 318.088C365.077 318.088 365.635 318.862 365.635 319.978V325H367.003V319.762C367.003 318.016 366.013 316.846 364.195 316.846C363.169 316.846 362.305 317.386 361.837 318.016V317.008H360.487ZM369.294 317.008V325H370.644V319.582C370.932 318.718 371.742 318.088 372.678 318.088C373.884 318.088 374.442 318.862 374.442 319.978V325H375.81V319.762C375.81 318.016 374.82 316.846 373.002 316.846C371.976 316.846 371.112 317.386 370.644 318.016V317.008H369.294ZM378.857 321.238H384.365V320.752C384.365 318.412 383.249 316.846 381.089 316.846C378.965 316.846 377.525 318.592 377.525 321.076C377.525 323.596 379.073 325.162 381.377 325.162C382.331 325.162 383.159 324.964 383.807 324.46V323.218C383.087 323.758 382.439 323.974 381.539 323.974C380.081 323.974 378.911 323.092 378.857 321.238ZM381.107 317.998C382.403 317.998 382.997 319.006 383.051 320.176H378.929C379.181 318.7 380.045 317.998 381.107 317.998ZM385.628 321.004C385.628 323.56 387.32 325.162 389.48 325.162C390.254 325.162 391.064 324.982 391.622 324.496V323.128C391.046 323.704 390.344 323.956 389.57 323.956C388.148 323.956 386.996 322.84 386.996 321.004C386.996 319.168 388.148 318.052 389.57 318.052C390.344 318.052 391.046 318.304 391.622 318.88V317.512C391.064 317.026 390.254 316.846 389.48 316.846C387.32 316.846 385.628 318.448 385.628 321.004ZM395.766 325V318.16H397.62V317.008H395.766V314.902H394.416V317.008H392.742V318.16H394.416V325H395.766ZM399.88 321.238H405.388V320.752C405.388 318.412 404.272 316.846 402.112 316.846C399.988 316.846 398.548 318.592 398.548 321.076C398.548 323.596 400.096 325.162 402.4 325.162C403.354 325.162 404.182 324.964 404.83 324.46V323.218C404.11 323.758 403.462 323.974 402.562 323.974C401.104 323.974 399.934 323.092 399.88 321.238ZM402.13 317.998C403.426 317.998 404.02 319.006 404.074 320.176H399.952C400.204 318.7 401.068 317.998 402.13 317.998ZM412.501 324.064V325H413.869V313.3H412.501V317.944C412.105 317.368 411.241 316.846 410.251 316.846C407.911 316.846 406.651 318.754 406.651 321.004C406.651 323.272 407.911 325.162 410.251 325.162C411.241 325.162 412.105 324.64 412.501 324.064ZM412.501 319.384V322.624C412.087 323.452 411.295 323.938 410.449 323.938C408.919 323.938 408.019 322.696 408.019 321.004C408.019 319.312 408.919 318.07 410.449 318.07C411.295 318.07 412.087 318.556 412.501 319.384Z" fill="#444444"/>
<path fill-rule="evenodd" clip-rule="evenodd" d="M296.712 351.263C296.319 350.869 295.683 350.867 295.287 351.263L291.263 355.287C290.869 355.681 290.867 356.316 291.263 356.712L295.287 360.737C295.681 361.13 296.316 361.132 296.712 360.737L300.737 356.712C301.13 356.319 301.132 355.683 300.737 355.287L296.712 351.263Z" fill="#FC5A5A" stroke="#FC5A5A"/>
<rect x="302" y="338" width="176" height="36" fill="white"/>
<path d="M319.454 361.162C321.974 361.162 323.792 359.65 323.792 356.626V349.948H322.37V356.446C322.37 358.804 321.236 359.902 319.454 359.902C317.672 359.902 316.538 358.804 316.538 356.446V349.948H315.134V356.608C315.134 359.65 316.952 361.162 319.454 361.162ZM326.14 353.008V361H327.49V355.582C327.778 354.718 328.588 354.088 329.524 354.088C330.73 354.088 331.288 354.862 331.288 355.978V361H332.656V355.762C332.656 354.016 331.666 352.846 329.848 352.846C328.822 352.846 327.958 353.386 327.49 354.016V353.008H326.14ZM334.37 357.004C334.37 359.56 336.062 361.162 338.222 361.162C338.996 361.162 339.806 360.982 340.364 360.496V359.128C339.788 359.704 339.086 359.956 338.312 359.956C336.89 359.956 335.738 358.84 335.738 357.004C335.738 355.168 336.89 354.052 338.312 354.052C339.086 354.052 339.788 354.304 340.364 354.88V353.512C339.806 353.026 338.996 352.846 338.222 352.846C336.062 352.846 334.37 354.448 334.37 357.004ZM349.009 357.004C349.009 354.556 347.515 352.846 345.337 352.846C343.141 352.846 341.665 354.556 341.665 357.004C341.665 359.452 343.141 361.162 345.337 361.162C347.515 361.162 349.009 359.452 349.009 357.004ZM347.641 357.004C347.641 358.75 346.777 359.974 345.337 359.974C343.897 359.974 343.033 358.75 343.033 357.004C343.033 355.258 343.897 354.034 345.337 354.034C346.777 354.034 347.641 355.258 347.641 357.004ZM350.837 353.008V361H352.187V355.582C352.475 354.718 353.285 354.088 354.221 354.088C355.427 354.088 355.985 354.862 355.985 355.978V361H357.353V355.762C357.353 354.016 356.363 352.846 354.545 352.846C353.519 352.846 352.655 353.386 352.187 354.016V353.008H350.837ZM363.64 350.542V349.318C363.334 349.192 363.028 349.138 362.596 349.138C361.192 349.138 360.148 350.074 360.148 351.676V353.008H358.798V354.16H360.148V361H361.48V354.16H363.28V353.008H361.48V351.784C361.48 350.83 362.002 350.326 362.794 350.326C363.082 350.326 363.388 350.38 363.64 350.542ZM366.394 350.596C366.394 350.11 365.998 349.732 365.512 349.732C365.044 349.732 364.648 350.11 364.648 350.596C364.648 351.064 365.044 351.46 365.512 351.46C365.998 351.46 366.394 351.064 366.394 350.596ZM366.196 361V353.008H364.846V361H366.196ZM373.828 359.938V360.46C373.828 362.17 372.712 363.016 371.29 363.016C370.354 363.016 369.508 362.764 368.716 362.026V363.52C369.328 363.952 370.264 364.24 371.29 364.24C373.198 364.24 375.196 363.16 375.196 360.37V353.008H373.828V353.908C373.432 353.35 372.586 352.846 371.596 352.846C369.256 352.846 368.032 354.79 368.032 356.932C368.032 359.074 369.256 361.018 371.596 361.018C372.586 361.018 373.432 360.496 373.828 359.938ZM373.828 355.294V358.552C373.414 359.308 372.658 359.794 371.794 359.794C370.282 359.794 369.4 358.588 369.4 356.932C369.4 355.258 370.282 354.052 371.794 354.052C372.658 354.052 373.414 354.538 373.828 355.294ZM383.963 361V353.008H382.595V358.426C382.307 359.29 381.533 359.92 380.597 359.92C379.391 359.92 378.851 359.146 378.851 358.03V353.008H377.483V358.246C377.483 359.992 378.455 361.162 380.273 361.162C381.299 361.162 382.145 360.622 382.595 359.992V361H383.963ZM390.466 354.358V352.972C390.322 352.9 390.034 352.846 389.692 352.846C388.81 352.846 388.054 353.368 387.712 354.052V353.008H386.362V361H387.712V355.636C387.982 354.7 388.72 354.142 389.566 354.142C389.908 354.142 390.25 354.214 390.466 354.358ZM392.673 357.238H398.181V356.752C398.181 354.412 397.065 352.846 394.905 352.846C392.781 352.846 391.341 354.592 391.341 357.076C391.341 359.596 392.889 361.162 395.193 361.162C396.147 361.162 396.975 360.964 397.623 360.46V359.218C396.903 359.758 396.255 359.974 395.355 359.974C393.897 359.974 392.727 359.092 392.673 357.238ZM394.923 353.998C396.219 353.998 396.813 355.006 396.867 356.176H392.745C392.997 354.7 393.861 353.998 394.923 353.998ZM405.294 360.064V361H406.662V349.3H405.294V353.944C404.898 353.368 404.034 352.846 403.044 352.846C400.704 352.846 399.444 354.754 399.444 357.004C399.444 359.272 400.704 361.162 403.044 361.162C404.034 361.162 404.898 360.64 405.294 360.064ZM405.294 355.384V358.624C404.88 359.452 404.088 359.938 403.242 359.938C401.712 359.938 400.812 358.696 400.812 357.004C400.812 355.312 401.712 354.07 403.242 354.07C404.088 354.07 404.88 354.556 405.294 355.384Z" fill="#444444"/>
</g>
<rect x="476" y="230" width="188" height="36" fill="white"/>
<path d="M490.736 248.32H492.698L495.866 253H497.486L494.21 248.266C495.956 248.014 497.036 246.988 497.036 245.152C497.036 243.064 495.596 241.948 493.364 241.948H489.314V253H490.736V248.32ZM490.736 247.114V243.19H493.328C494.786 243.19 495.632 243.928 495.632 245.152C495.632 246.376 494.786 247.114 493.328 247.114H490.736ZM498.705 250.606V252.136C499.461 252.73 500.685 253.162 502.179 253.162C504.321 253.162 505.905 252.028 505.905 250.138C505.905 248.608 505.149 247.726 503.457 247.078L501.711 246.394C500.685 245.998 500.055 245.602 500.055 244.666C500.055 243.568 501.009 243.028 502.233 243.028C503.511 243.028 504.501 243.478 505.383 244.18V242.686C504.555 242.11 503.421 241.786 502.215 241.786C500.307 241.786 498.669 242.776 498.669 244.684C498.669 246.43 499.857 247.168 501.153 247.672L502.773 248.302C503.943 248.788 504.537 249.184 504.537 250.156C504.537 251.29 503.601 251.902 502.179 251.902C500.883 251.902 499.731 251.488 498.705 250.606ZM509.369 248.32H511.331L514.499 253H516.119L512.843 248.266C514.589 248.014 515.669 246.988 515.669 245.152C515.669 243.064 514.229 241.948 511.997 241.948H507.947V253H509.369V248.32ZM509.369 247.114V243.19H511.961C513.419 243.19 514.265 243.928 514.265 245.152C514.265 246.376 513.419 247.114 511.961 247.114H509.369ZM523.062 250.534H523.134L526.878 244.504V253H528.264V241.948H527.022L523.116 248.302L519.192 241.948H517.878V253H519.264V244.504L523.062 250.534ZM534.216 253H535.548L539.814 241.948H538.374L534.9 251.128L531.444 241.948H529.95L534.216 253ZM546.003 247.348L549.765 241.948H548.199L545.211 246.25L542.259 241.948H540.639L544.401 247.384L540.495 253H542.061L545.175 248.5L548.307 253H549.927L546.003 247.348ZM555.663 253.162C558.183 253.162 560.001 251.65 560.001 248.626V241.948H558.579V248.446C558.579 250.804 557.445 251.902 555.663 251.902C553.881 251.902 552.747 250.804 552.747 248.446V241.948H551.343V248.608C551.343 251.65 553.161 253.162 555.663 253.162ZM563.591 249.31L566.957 241.948H565.553L561.665 250.426V250.498H566.867V253H568.181V250.498H570.017V249.31H568.181V246.646H566.867V249.31H563.591Z" fill="#444444"/>
<rect x="476" y="266" width="188" height="36" fill="white"/>
<path d="M490.736 284.32H492.698L495.866 289H497.486L494.21 284.266C495.956 284.014 497.036 282.988 497.036 281.152C497.036 279.064 495.596 277.948 493.364 277.948H489.314V289H490.736V284.32ZM490.736 283.114V279.19H493.328C494.786 279.19 495.632 279.928 495.632 281.152C495.632 282.376 494.786 283.114 493.328 283.114H490.736ZM498.705 286.606V288.136C499.461 288.73 500.685 289.162 502.179 289.162C504.321 289.162 505.905 288.028 505.905 286.138C505.905 284.608 505.149 283.726 503.457 283.078L501.711 282.394C500.685 281.998 500.055 281.602 500.055 280.666C500.055 279.568 501.009 279.028 502.233 279.028C503.511 279.028 504.501 279.478 505.383 280.18V278.686C504.555 278.11 503.421 277.786 502.215 277.786C500.307 277.786 498.669 278.776 498.669 280.684C498.669 282.43 499.857 283.168 501.153 283.672L502.773 284.302C503.943 284.788 504.537 285.184 504.537 286.156C504.537 287.29 503.601 287.902 502.179 287.902C500.883 287.902 499.731 287.488 498.705 286.606ZM509.369 282.862V277.948H507.947V289H509.369V283.798L514.463 289H516.299L510.701 283.24L516.137 277.948H514.355L509.369 282.862ZM519.318 284.32H521.28L524.448 289H526.068L522.792 284.266C524.538 284.014 525.618 282.988 525.618 281.152C525.618 279.064 524.178 277.948 521.946 277.948H517.896V289H519.318V284.32ZM519.318 283.114V279.19H521.91C523.368 279.19 524.214 279.928 524.214 281.152C524.214 282.376 523.368 283.114 521.91 283.114H519.318ZM533.012 286.534H533.084L536.828 280.504V289H538.214V277.948H536.972L533.066 284.302L529.142 277.948H527.828V289H529.214V280.504L533.012 286.534ZM544.975 289.162C547.495 289.162 549.313 287.65 549.313 284.626V277.948H547.891V284.446C547.891 286.804 546.757 287.902 544.975 287.902C543.193 287.902 542.059 286.804 542.059 284.446V277.948H540.655V284.608C540.655 287.65 542.473 289.162 544.975 289.162ZM551.121 283.474C551.121 286.93 553.353 289.162 556.305 289.162C557.583 289.162 558.555 288.802 559.275 288.208V286.714C558.375 287.524 557.457 287.884 556.323 287.884C554.091 287.884 552.543 286.138 552.543 283.474C552.543 280.81 554.091 279.064 556.323 279.064C557.457 279.064 558.375 279.406 559.275 280.234V278.74C558.555 278.146 557.583 277.786 556.305 277.786C553.353 277.786 551.121 280.018 551.121 283.474ZM568.279 277.948L565.093 283.168L561.907 277.948H560.359L564.355 284.446V289H565.759V284.446L569.791 277.948H568.279Z" fill="#444444"/>
<rect x="476" y="302" width="188" height="36" fill="white"/>
<path d="M488.522 323.074V324.532C488.99 324.838 489.782 325.162 490.682 325.162C492.806 325.162 493.94 323.992 493.94 321.328V313.948H492.518V321.274C492.518 323.11 491.96 323.866 490.646 323.866C489.836 323.866 489.224 323.578 488.522 323.074ZM500.899 323.902C498.595 323.902 497.119 322.138 497.119 319.474C497.119 316.81 498.721 315.064 501.025 315.064C502.231 315.064 503.275 315.442 504.211 316.288V314.776C503.437 314.164 502.321 313.786 501.025 313.786C497.983 313.786 495.697 316.036 495.697 319.474C495.697 322.894 497.785 325.162 500.863 325.162C502.231 325.162 503.689 324.748 504.751 323.578V319.258H501.007V320.446H503.437V323.056C502.717 323.65 501.907 323.902 500.899 323.902ZM514.053 313.948H507.015V325H514.053V323.722H508.419V319.96H513.531V318.7H508.419V315.208H514.053V313.948ZM516.279 325H517.701V320.194H522.705V318.934H517.701V315.208H523.029V313.948H516.279V325ZM532.557 325V323.722H526.509L532.611 314.02V313.948H524.511V315.208H530.379L524.241 324.928V325H532.557ZM538.63 325.162C541.15 325.162 542.968 323.65 542.968 320.626V313.948H541.546V320.446C541.546 322.804 540.412 323.902 538.63 323.902C536.848 323.902 535.714 322.804 535.714 320.446V313.948H534.31V320.608C534.31 323.65 536.128 325.162 538.63 325.162ZM549.841 313.948H548.509L544.189 325H545.629L546.889 321.67H551.443L552.721 325H554.161L549.841 313.948ZM547.357 320.428L549.157 315.712L550.957 320.428H547.357ZM563.389 325V323.722H557.341L563.443 314.02V313.948H555.343V315.208H561.211L555.073 324.928V325H563.389Z" fill="#444444"/>
<rect x="476" y="338" width="188" height="36" fill="white"/>
<path d="M498.404 349.948H496.982V354.682H490.736V349.948H489.314V361H490.736V355.96H496.982V361H498.404V349.948ZM504.405 349.786C502.263 349.786 500.661 351.406 500.661 353.548C500.661 355.672 502.191 357.292 504.315 357.292C504.747 357.292 505.233 357.148 505.521 356.968L503.199 361H504.657L507.177 356.608C507.897 355.348 508.149 354.448 508.149 353.548C508.149 351.406 506.565 349.786 504.405 349.786ZM501.957 353.548C501.957 352.108 503.001 351.01 504.405 351.01C505.809 351.01 506.853 352.108 506.853 353.548C506.853 354.97 505.809 356.086 504.405 356.086C503.001 356.086 501.957 354.97 501.957 353.548ZM514.944 359.902C512.64 359.902 511.164 358.138 511.164 355.474C511.164 352.81 512.766 351.064 515.07 351.064C516.276 351.064 517.32 351.442 518.256 352.288V350.776C517.482 350.164 516.366 349.786 515.07 349.786C512.028 349.786 509.742 352.036 509.742 355.474C509.742 358.894 511.83 361.162 514.908 361.162C516.276 361.162 517.734 360.748 518.796 359.578V355.258H515.052V356.446H517.482V359.056C516.762 359.65 515.952 359.902 514.944 359.902ZM520.268 359.074V360.532C520.736 360.838 521.528 361.162 522.428 361.162C524.552 361.162 525.686 359.992 525.686 357.328V349.948H524.264V357.274C524.264 359.11 523.706 359.866 522.392 359.866C521.582 359.866 520.97 359.578 520.268 359.074ZM527.317 349.948V351.208H531.169V361H532.591V351.208H536.443V349.948H527.317ZM545.846 361V359.722H539.798L545.9 350.02V349.948H537.8V351.208H543.668L537.53 360.928V361H545.846ZM556.922 349.948H555.5V354.682H549.254V349.948H547.832V361H549.254V355.96H555.5V361H556.922V349.948ZM560.69 357.31L564.056 349.948H562.652L558.764 358.426V358.498H563.966V361H565.28V358.498H567.116V357.31H565.28V354.646H563.966V357.31H560.69Z" fill="#444444"/>
<rect x="664" y="230" width="188" height="36" fill="white"/>
<path d="M686.656 247.474C686.656 244.126 684.568 241.786 681.652 241.786C678.754 241.786 676.666 244.126 676.666 247.474C676.666 250.804 678.754 253.162 681.652 253.162C684.568 253.162 686.656 250.804 686.656 247.474ZM685.234 247.474C685.234 250.066 683.794 251.884 681.652 251.884C679.528 251.884 678.088 250.066 678.088 247.474C678.088 244.882 679.528 243.064 681.652 243.064C683.794 243.064 685.234 244.882 685.234 247.474ZM688.526 245.008V253H689.876V247.582C690.164 246.718 690.974 246.088 691.91 246.088C693.116 246.088 693.674 246.862 693.674 247.978V253H695.042V247.762C695.042 246.016 694.052 244.846 692.234 244.846C691.208 244.846 690.344 245.386 689.876 246.016V245.008H688.526Z" fill="#444444"/>
<rect x="664" y="266" width="188" height="36" fill="white"/>
<path d="M686.656 283.474C686.656 280.126 684.568 277.786 681.652 277.786C678.754 277.786 676.666 280.126 676.666 283.474C676.666 286.804 678.754 289.162 681.652 289.162C684.568 289.162 686.656 286.804 686.656 283.474ZM685.234 283.474C685.234 286.066 683.794 287.884 681.652 287.884C679.528 287.884 678.088 286.066 678.088 283.474C678.088 280.882 679.528 279.064 681.652 279.064C683.794 279.064 685.234 280.882 685.234 283.474ZM688.526 281.008V289H689.876V283.582C690.164 282.718 690.974 282.088 691.91 282.088C693.116 282.088 693.674 282.862 693.674 283.978V289H695.042V283.762C695.042 282.016 694.052 280.846 692.234 280.846C691.208 280.846 690.344 281.386 689.876 282.016V281.008H688.526Z" fill="#444444"/>
<rect x="42" y="106" width="384" height="36" rx="4" fill="white" stroke="#999999"/>
<path d="M90.738 126.606V128.136C91.494 128.73 92.718 129.162 94.212 129.162C96.354 129.162 97.938 128.028 97.938 126.138C97.938 124.608 97.182 123.726 95.49 123.078L93.744 122.394C92.718 121.998 92.088 121.602 92.088 120.666C92.088 119.568 93.042 119.028 94.266 119.028C95.544 119.028 96.534 119.478 97.416 120.18V118.686C96.588 118.11 95.454 117.786 94.248 117.786C92.34 117.786 90.702 118.776 90.702 120.684C90.702 122.43 91.89 123.168 93.186 123.672L94.806 124.302C95.976 124.788 96.57 125.184 96.57 126.156C96.57 127.29 95.634 127.902 94.212 127.902C92.916 127.902 91.764 127.488 90.738 126.606ZM100.716 125.238H106.224V124.752C106.224 122.412 105.108 120.846 102.948 120.846C100.824 120.846 99.3839 122.592 99.3839 125.076C99.3839 127.596 100.932 129.162 103.236 129.162C104.19 129.162 105.018 128.964 105.666 128.46V127.218C104.946 127.758 104.298 127.974 103.398 127.974C101.94 127.974 100.77 127.092 100.716 125.238ZM102.966 121.998C104.262 121.998 104.856 123.006 104.91 124.176H100.788C101.04 122.7 101.904 121.998 102.966 121.998ZM112.509 123.69V124.734C112.167 124.428 111.339 124.086 110.511 124.086C108.801 124.086 107.469 125.094 107.469 126.588C107.469 128.172 108.801 129.144 110.439 129.144C111.375 129.144 112.203 128.73 112.509 128.406V129H113.823V123.582C113.823 121.89 112.707 120.846 110.817 120.846C109.827 120.846 108.873 121.134 108.333 121.512V122.79C108.999 122.358 109.719 122.088 110.601 122.088C111.771 122.088 112.509 122.7 112.509 123.69ZM112.509 126.192V127.02C112.293 127.614 111.501 128.01 110.655 128.01C109.683 128.01 108.747 127.56 108.747 126.588C108.747 125.634 109.683 125.202 110.655 125.202C111.501 125.202 112.293 125.598 112.509 126.192ZM120.236 122.358V120.972C120.092 120.9 119.804 120.846 119.462 120.846C118.58 120.846 117.824 121.368 117.482 122.052V121.008H116.132V129H117.482V123.636C117.752 122.7 118.49 122.142 119.336 122.142C119.678 122.142 120.02 122.214 120.236 122.358ZM121.11 125.004C121.11 127.56 122.802 129.162 124.962 129.162C125.736 129.162 126.546 128.982 127.104 128.496V127.128C126.528 127.704 125.826 127.956 125.052 127.956C123.63 127.956 122.478 126.84 122.478 125.004C122.478 123.168 123.63 122.052 125.052 122.052C125.826 122.052 126.528 122.304 127.104 122.88V121.512C126.546 121.026 125.736 120.846 124.962 120.846C122.802 120.846 121.11 122.448 121.11 125.004ZM128.981 117.3V129H130.331V123.582C130.619 122.718 131.429 122.088 132.365 122.088C133.571 122.088 134.129 122.862 134.129 123.978V129H135.497V123.762C135.497 122.016 134.507 120.846 132.689 120.846C131.663 120.846 130.799 121.386 130.331 122.016V117.3H128.981ZM143.993 129V122.16H145.847V121.008H143.993V118.902H142.643V121.008H140.969V122.16H142.643V129H143.993ZM147.491 117.3V129H148.841V123.582C149.129 122.718 149.939 122.088 150.875 122.088C152.081 122.088 152.639 122.862 152.639 123.978V129H154.007V123.762C154.007 122.016 153.017 120.846 151.199 120.846C150.173 120.846 149.309 121.386 148.841 122.016V117.3H147.491ZM157.054 125.238H162.562V124.752C162.562 122.412 161.446 120.846 159.286 120.846C157.162 120.846 155.722 122.592 155.722 125.076C155.722 127.596 157.27 129.162 159.574 129.162C160.528 129.162 161.356 128.964 162.004 128.46V127.218C161.284 127.758 160.636 127.974 159.736 127.974C158.278 127.974 157.108 127.092 157.054 125.238ZM159.304 121.998C160.6 121.998 161.194 123.006 161.248 124.176H157.126C157.378 122.7 158.242 121.998 159.304 121.998ZM168.482 117.948V129H172.028C175.268 129 177.392 126.84 177.392 123.474C177.392 120.108 175.268 117.948 172.028 117.948H168.482ZM172.01 127.722H169.904V119.208H172.01C174.512 119.208 175.988 120.882 175.988 123.474C175.988 126.066 174.512 127.722 172.01 127.722ZM183.666 123.69V124.734C183.324 124.428 182.496 124.086 181.668 124.086C179.958 124.086 178.626 125.094 178.626 126.588C178.626 128.172 179.958 129.144 181.596 129.144C182.532 129.144 183.36 128.73 183.666 128.406V129H184.98V123.582C184.98 121.89 183.864 120.846 181.974 120.846C180.984 120.846 180.03 121.134 179.49 121.512V122.79C180.156 122.358 180.876 122.088 181.758 122.088C182.928 122.088 183.666 122.7 183.666 123.69ZM183.666 126.192V127.02C183.45 127.614 182.658 128.01 181.812 128.01C180.84 128.01 179.904 127.56 179.904 126.588C179.904 125.634 180.84 125.202 181.812 125.202C182.658 125.202 183.45 125.598 183.666 126.192ZM189.467 129V122.16H191.321V121.008H189.467V118.902H188.117V121.008H186.443V122.16H188.117V129H189.467ZM197.236 123.69V124.734C196.894 124.428 196.066 124.086 195.238 124.086C193.528 124.086 192.196 125.094 192.196 126.588C192.196 128.172 193.528 129.144 195.166 129.144C196.102 129.144 196.93 128.73 197.236 128.406V129H198.55V123.582C198.55 121.89 197.434 120.846 195.544 120.846C194.554 120.846 193.6 121.134 193.06 121.512V122.79C193.726 122.358 194.446 122.088 195.328 122.088C196.498 122.088 197.236 122.7 197.236 123.69ZM197.236 126.192V127.02C197.02 127.614 196.228 128.01 195.382 128.01C194.41 128.01 193.474 127.56 193.474 126.588C193.474 125.634 194.41 125.202 195.382 125.202C196.228 125.202 197.02 125.598 197.236 126.192ZM200.192 117.948V119.208H204.044V129H205.466V119.208H209.318V117.948H200.192ZM214.164 123.69V124.734C213.822 124.428 212.994 124.086 212.166 124.086C210.456 124.086 209.124 125.094 209.124 126.588C209.124 128.172 210.456 129.144 212.094 129.144C213.03 129.144 213.858 128.73 214.164 128.406V129H215.478V123.582C215.478 121.89 214.362 120.846 212.472 120.846C211.482 120.846 210.528 121.134 209.988 121.512V122.79C210.654 122.358 211.374 122.088 212.256 122.088C213.426 122.088 214.164 122.7 214.164 123.69ZM214.164 126.192V127.02C213.948 127.614 213.156 128.01 212.31 128.01C211.338 128.01 210.402 127.56 210.402 126.588C210.402 125.634 211.338 125.202 212.31 125.202C213.156 125.202 213.948 125.598 214.164 126.192ZM219.136 129V128.064C219.532 128.64 220.396 129.162 221.386 129.162C223.726 129.162 224.986 127.272 224.986 125.004C224.986 122.754 223.726 120.846 221.386 120.846C220.396 120.846 219.532 121.368 219.136 121.944V117.3H217.768V129H219.136ZM219.136 126.624V123.384C219.55 122.556 220.342 122.07 221.188 122.07C222.718 122.07 223.618 123.312 223.618 125.004C223.618 126.696 222.718 127.938 221.188 127.938C220.342 127.938 219.55 127.452 219.136 126.624ZM228.171 129V117.3H226.821V129H228.171ZM231.339 125.238H236.847V124.752C236.847 122.412 235.731 120.846 233.571 120.846C231.447 120.846 230.007 122.592 230.007 125.076C230.007 127.596 231.555 129.162 233.859 129.162C234.813 129.162 235.641 128.964 236.289 128.46V127.218C235.569 127.758 234.921 127.974 234.021 127.974C232.563 127.974 231.393 127.092 231.339 125.238ZM233.589 121.998C234.885 121.998 235.479 123.006 235.533 124.176H231.411C231.663 122.7 232.527 121.998 233.589 121.998Z" fill="#BBBBBB"/>
<path fill-rule="evenodd" clip-rule="evenodd" d="M64 115C60.134 115 57 118.134 57 122C57 125.866 60.134 129 64 129C65.5723 129 67.0236 128.482 68.1922 127.606L73.2929 132.707L74.7071 131.293L69.6064 126.192C70.4816 125.024 71 123.572 71 122C71 118.134 67.866 115 64 115ZM59 122C59 119.239 61.2386 117 64 117C66.7614 117 69 119.239 69 122C69 124.761 66.7614 127 64 127C61.2386 127 59 124.761 59 122Z" fill="black"/>
<path d="M41.656 49.896V72H50.008C56.956 72 61.168 67.68 61.168 60.948C61.168 54.216 56.956 49.896 50.008 49.896H41.656ZM49.72 66.996H47.344V54.864H49.72C53.392 54.864 55.444 57.204 55.444 60.948C55.444 64.656 53.392 66.996 49.72 66.996ZM72.1657 62.244V62.82C71.5177 62.352 70.0057 61.92 68.6377 61.92C65.1457 61.92 62.4097 63.936 62.4097 67.068C62.4097 70.488 65.1457 72.288 68.3497 72.288C70.0777 72.288 71.6257 71.712 72.1657 71.172V72H77.6017V61.992C77.6017 57.708 74.8657 55.44 70.0777 55.44C67.7737 55.44 65.6137 55.98 64.2817 56.7V61.236C65.5777 60.48 67.1617 60.084 68.7097 60.084C71.0137 60.084 72.1657 60.984 72.1657 62.244ZM72.1657 66.528V67.464C71.8057 68.112 70.9057 68.544 69.8977 68.544C68.7817 68.544 67.6657 68.076 67.6657 66.96C67.6657 65.88 68.7817 65.412 69.8977 65.412C70.9057 65.412 71.8057 65.844 72.1657 66.528ZM87.918 72V60.192H91.086V55.8H87.918V51.336H82.302V55.8H79.494V60.192H82.302V72H87.918ZM101.627 62.244V62.82C100.979 62.352 99.4667 61.92 98.0987 61.92C94.6067 61.92 91.8707 63.936 91.8707 67.068C91.8707 70.488 94.6067 72.288 97.8107 72.288C99.5387 72.288 101.087 71.712 101.627 71.172V72H107.063V61.992C107.063 57.708 104.327 55.44 99.5387 55.44C97.2347 55.44 95.0747 55.98 93.7427 56.7V61.236C95.0387 60.48 96.6227 60.084 98.1707 60.084C100.475 60.084 101.627 60.984 101.627 62.244ZM101.627 66.528V67.464C101.267 68.112 100.367 68.544 99.3587 68.544C98.2427 68.544 97.1267 68.076 97.1267 66.96C97.1267 65.88 98.2427 65.412 99.3587 65.412C100.367 65.412 101.267 65.844 101.627 66.528ZM109.169 49.896V54.864H115.973V72H121.769V54.864H128.609V49.896H109.169ZM137.697 62.244V62.82C137.049 62.352 135.537 61.92 134.169 61.92C130.677 61.92 127.941 63.936 127.941 67.068C127.941 70.488 130.677 72.288 133.881 72.288C135.609 72.288 137.157 71.712 137.697 71.172V72H143.133V61.992C143.133 57.708 140.397 55.44 135.609 55.44C133.305 55.44 131.145 55.98 129.813 56.7V61.236C131.109 60.48 132.693 60.084 134.241 60.084C136.545 60.084 137.697 60.984 137.697 62.244ZM137.697 66.528V67.464C137.337 68.112 136.437 68.544 135.429 68.544C134.313 68.544 133.197 68.076 133.197 66.96C133.197 65.88 134.313 65.412 135.429 65.412C136.437 65.412 137.337 65.844 137.697 66.528ZM151.684 72V70.704C152.44 71.568 154.024 72.36 155.68 72.36C160.36 72.36 162.916 68.58 162.916 63.9C162.916 59.22 160.36 55.44 155.68 55.44C154.024 55.44 152.44 56.232 151.684 57.096V48.6H146.032V72H151.684ZM151.684 66.024V61.74C152.116 60.876 153.088 60.228 154.168 60.228C156.112 60.228 157.264 61.812 157.264 63.9C157.264 65.988 156.112 67.536 154.168 67.536C153.052 67.536 152.116 66.924 151.684 66.024ZM170.738 72V48.6H165.086V72H170.738ZM178.413 65.196H188.385V63.54C188.385 58.716 185.829 55.44 180.789 55.44C176.325 55.44 172.941 58.932 172.941 64.008C172.941 69.228 176.469 72.36 181.653 72.36C183.993 72.36 185.973 71.856 187.233 70.92V66.636C185.613 67.608 184.281 67.932 182.553 67.932C180.465 67.932 178.881 67.14 178.413 65.196ZM181.005 59.724C182.373 59.724 183.201 60.66 183.345 62.028H178.485C178.881 60.552 179.781 59.724 181.005 59.724Z" fill="black"/>
<path d="M45.296 160.192L47.472 154.176H45.136L42.144 162.208V162.272H46.736V164H48.912V162.272H50.016V160.192H48.912V158.368H46.736V160.192H45.296ZM55.9476 164V154.176H54.6836V164H55.9476ZM60.1654 164V157.92H61.8134V156.896H60.1654V155.024H58.9654V156.896H57.4774V157.92H58.9654V164H60.1654ZM63.8221 160.656H68.7181V160.224C68.7181 158.144 67.7261 156.752 65.8061 156.752C63.9181 156.752 62.6381 158.304 62.6381 160.512C62.6381 162.752 64.0141 164.144 66.0621 164.144C66.9101 164.144 67.6461 163.968 68.2221 163.52V162.416C67.5821 162.896 67.0061 163.088 66.2061 163.088C64.9101 163.088 63.8701 162.304 63.8221 160.656ZM65.8221 157.776C66.9741 157.776 67.5021 158.672 67.5501 159.712H63.8861C64.1101 158.4 64.8781 157.776 65.8221 157.776ZM75.3933 157.888C75.0573 157.216 74.3693 156.752 73.4733 156.752C72.5933 156.752 71.9053 157.168 71.5533 157.728V156.896H70.3533V164H71.5533V159.104C71.7773 158.336 72.4013 157.84 73.1213 157.84C74.0333 157.84 74.4653 158.496 74.4653 159.488V164H75.6653V159.104C75.8893 158.336 76.5133 157.84 77.2333 157.84C78.1453 157.84 78.5773 158.496 78.5773 159.488V164H79.7933V159.296C79.7933 157.76 78.9933 156.752 77.5533 156.752C76.5613 156.752 75.8413 157.248 75.3933 157.888ZM81.406 162.16V163.44C81.934 163.856 82.814 164.144 83.742 164.144C85.23 164.144 86.398 163.392 86.398 162.08C86.398 161.072 85.806 160.448 84.734 160.08L83.646 159.712C82.974 159.472 82.59 159.28 82.59 158.704C82.59 158.096 83.198 157.776 83.934 157.776C84.798 157.776 85.454 158.128 86.046 158.624V157.376C85.47 156.976 84.734 156.752 83.934 156.752C82.526 156.752 81.422 157.504 81.422 158.752C81.422 159.904 82.142 160.416 83.214 160.768L84.19 161.104C84.814 161.312 85.214 161.6 85.214 162.128C85.214 162.832 84.526 163.12 83.742 163.12C82.878 163.12 82.062 162.768 81.406 162.16Z" fill="#444444"/>
<defs>
<clipPath id="clip0_7795:147870">
<rect width="198" height="144" fill="white" transform="translate(278 230)"/>
</clipPath>
</defs>
</svg>
