<svg width="950" height="525" viewBox="0 0 950 525" fill="none" xmlns="http://www.w3.org/2000/svg">
<rect width="950" height="525" fill="white"/>
<rect x="44" y="250" width="810" height="36" rx="12" fill="white"/>
<rect width="48" height="36" transform="translate(44 250)" fill="white"/>
<rect x="56" y="256" width="24" height="24" rx="2" fill="white" stroke="#999999"/>
<path d="M44 285.5H92" stroke="#999999"/>
<rect x="92" y="250" width="188" height="36" fill="white"/>
<path d="M280 285.5L92 285.5" stroke="#999999"/>
<path d="M114.584 273V261.948H111.794V268.032L107.528 261.948H104.828V273H107.618V266.538L112.244 273H114.584ZM120.61 268.122V268.41C120.286 268.176 119.53 267.96 118.846 267.96C117.1 267.96 115.732 268.968 115.732 270.534C115.732 272.244 117.1 273.144 118.702 273.144C119.566 273.144 120.34 272.856 120.61 272.586V273H123.328V267.996C123.328 265.854 121.96 264.72 119.566 264.72C118.414 264.72 117.334 264.99 116.668 265.35V267.618C117.316 267.24 118.108 267.042 118.882 267.042C120.034 267.042 120.61 267.492 120.61 268.122ZM120.61 270.264V270.732C120.43 271.056 119.98 271.272 119.476 271.272C118.918 271.272 118.36 271.038 118.36 270.48C118.36 269.94 118.918 269.706 119.476 269.706C119.98 269.706 120.43 269.922 120.61 270.264ZM131.923 265.692C131.437 265.116 130.717 264.72 129.691 264.72C128.791 264.72 128.017 265.062 127.603 265.566V264.9H124.777V273H127.603V268.068C127.729 267.51 128.161 267.204 128.647 267.204C129.277 267.204 129.565 267.69 129.565 268.374V273H132.373V268.068C132.517 267.51 132.931 267.204 133.417 267.204C134.047 267.204 134.335 267.69 134.335 268.374V273H137.161V267.69C137.161 265.872 136.117 264.72 134.425 264.72C133.237 264.72 132.409 265.188 131.923 265.692ZM140.915 269.598H145.901V268.77C145.901 266.358 144.623 264.72 142.103 264.72C139.871 264.72 138.179 266.466 138.179 269.004C138.179 271.614 139.943 273.18 142.535 273.18C143.705 273.18 144.695 272.928 145.325 272.46V270.318C144.515 270.804 143.849 270.966 142.985 270.966C141.941 270.966 141.149 270.57 140.915 269.598ZM142.211 266.862C142.895 266.862 143.309 267.33 143.381 268.014H140.951C141.149 267.276 141.599 266.862 142.211 266.862Z" fill="black"/>
<rect x="280" y="250" width="198" height="36" fill="white"/>
<path d="M478 285.5L280 285.5" stroke="#999999"/>
<path d="M292.576 269.616V272.28C293.386 272.766 294.718 273.18 296.194 273.18C298.678 273.18 300.712 272.118 300.712 269.724C300.712 268.032 299.794 266.97 297.778 266.34L296.104 265.836C295.528 265.656 295.186 265.458 295.186 264.954C295.186 264.396 295.816 264.162 296.644 264.162C297.904 264.162 299.002 264.576 299.992 265.26V262.596C299.074 262.092 298.012 261.768 296.518 261.768C294.196 261.768 292.342 262.974 292.342 265.17C292.342 267.006 293.368 267.924 295.222 268.464L296.896 268.95C297.49 269.166 297.832 269.346 297.832 269.886C297.832 270.57 297.04 270.768 296.122 270.768C294.88 270.768 293.53 270.264 292.576 269.616ZM305.535 273V267.096H307.119V264.9H305.535V262.668H302.727V264.9H301.323V267.096H302.727V273H305.535ZM312.39 268.122V268.41C312.066 268.176 311.31 267.96 310.626 267.96C308.88 267.96 307.512 268.968 307.512 270.534C307.512 272.244 308.88 273.144 310.482 273.144C311.346 273.144 312.12 272.856 312.39 272.586V273H315.108V267.996C315.108 265.854 313.74 264.72 311.346 264.72C310.194 264.72 309.114 264.99 308.448 265.35V267.618C309.096 267.24 309.888 267.042 310.662 267.042C311.813 267.042 312.39 267.492 312.39 268.122ZM312.39 270.264V270.732C312.21 271.056 311.76 271.272 311.256 271.272C310.698 271.272 310.14 271.038 310.14 270.48C310.14 269.94 310.698 269.706 311.256 269.706C311.76 269.706 312.21 269.922 312.39 270.264ZM320.266 273V267.096H321.85V264.9H320.266V262.668H317.458V264.9H316.054V267.096H317.458V273H320.266ZM330.679 273V264.9H327.853V269.814C327.709 270.372 327.223 270.714 326.701 270.714C325.981 270.714 325.657 270.228 325.657 269.544V264.9H322.849V270.21C322.849 272.01 323.911 273.18 325.693 273.18C326.611 273.18 327.421 272.802 327.853 272.298V273H330.679ZM331.896 270.03V272.406C332.652 272.91 333.84 273.18 334.974 273.18C336.972 273.18 338.466 272.334 338.466 270.606C338.466 269.238 337.764 268.518 336 268.05L335.262 267.834C334.866 267.726 334.632 267.618 334.632 267.312C334.632 266.988 334.956 266.826 335.442 266.826C336.36 266.826 337.224 267.204 337.998 267.762V265.44C337.206 264.954 336.324 264.72 335.172 264.72C333.264 264.72 331.86 265.674 331.86 267.366C331.86 268.824 332.814 269.526 334.308 269.85L334.938 270.012C335.424 270.12 335.676 270.246 335.676 270.57C335.676 270.93 335.316 271.056 334.758 271.056C333.93 271.056 332.67 270.66 331.896 270.03Z" fill="black"/>
<rect x="478" y="250" width="188" height="36" fill="white"/>
<path d="M666 285.5L478 285.5" stroke="#999999"/>
<path d="M490.576 269.616V272.28C491.386 272.766 492.718 273.18 494.194 273.18C496.678 273.18 498.712 272.118 498.712 269.724C498.712 268.032 497.794 266.97 495.778 266.34L494.104 265.836C493.528 265.656 493.186 265.458 493.186 264.954C493.186 264.396 493.816 264.162 494.644 264.162C495.904 264.162 497.002 264.576 497.992 265.26V262.596C497.074 262.092 496.012 261.768 494.518 261.768C492.196 261.768 490.342 262.974 490.342 265.17C490.342 267.006 491.368 267.924 493.222 268.464L494.896 268.95C495.49 269.166 495.832 269.346 495.832 269.886C495.832 270.57 495.04 270.768 494.122 270.768C492.88 270.768 491.53 270.264 490.576 269.616ZM502.271 269.598H507.257V268.77C507.257 266.358 505.979 264.72 503.459 264.72C501.227 264.72 499.535 266.466 499.535 269.004C499.535 271.614 501.299 273.18 503.891 273.18C505.061 273.18 506.051 272.928 506.681 272.46V270.318C505.871 270.804 505.205 270.966 504.341 270.966C503.297 270.966 502.505 270.57 502.271 269.598ZM503.567 266.862C504.251 266.862 504.665 267.33 504.737 268.014H502.307C502.505 267.276 502.955 266.862 503.567 266.862ZM513.823 267.582V264.864C513.697 264.792 513.409 264.72 513.049 264.72C512.239 264.72 511.609 265.08 511.213 265.62V264.9H508.387V273H511.213V268.248C511.357 267.672 511.879 267.33 512.653 267.33C513.103 267.33 513.481 267.402 513.823 267.582ZM517.985 262.704C517.985 261.768 517.247 261.174 516.383 261.174C515.519 261.174 514.781 261.768 514.781 262.704C514.781 263.622 515.519 264.216 516.383 264.216C517.247 264.216 517.985 263.622 517.985 262.704ZM517.787 273V264.9H514.961V273H517.787ZM523.766 268.122V268.41C523.442 268.176 522.686 267.96 522.002 267.96C520.256 267.96 518.888 268.968 518.888 270.534C518.888 272.244 520.256 273.144 521.858 273.144C522.722 273.144 523.496 272.856 523.766 272.586V273H526.484V267.996C526.484 265.854 525.116 264.72 522.722 264.72C521.57 264.72 520.49 264.99 519.824 265.35V267.618C520.472 267.24 521.264 267.042 522.038 267.042C523.19 267.042 523.766 267.492 523.766 268.122ZM523.766 270.264V270.732C523.586 271.056 523.136 271.272 522.632 271.272C522.074 271.272 521.516 271.038 521.516 270.48C521.516 269.94 522.074 269.706 522.632 269.706C523.136 269.706 523.586 269.922 523.766 270.264ZM530.76 273V261.3H527.934V273H530.76Z" fill="black"/>
<rect x="666" y="250" width="188" height="36" fill="white"/>
<path d="M854 285.5L666 285.5" stroke="#999999"/>
<path d="M681.69 269.562H683.67C686.064 269.562 687.684 268.212 687.684 265.764C687.684 263.298 686.064 261.948 683.67 261.948H678.828V273H681.69V269.562ZM684.876 265.764C684.876 266.592 684.408 267.15 683.364 267.15H681.69V264.378H683.364C684.408 264.378 684.876 264.918 684.876 265.764ZM696.395 268.95C696.395 266.448 694.721 264.72 692.255 264.72C689.807 264.72 688.115 266.448 688.115 268.95C688.115 271.452 689.807 273.18 692.255 273.18C694.721 273.18 696.395 271.452 696.395 268.95ZM693.623 268.95C693.623 270.066 693.137 270.84 692.255 270.84C691.391 270.84 690.905 270.066 690.905 268.95C690.905 267.834 691.391 267.042 692.255 267.042C693.137 267.042 693.623 267.834 693.623 268.95ZM704.952 269.292L703.746 264.9H701.946L700.722 269.292L699.444 264.9H696.636L699.246 273H701.64L702.792 268.896L703.944 273H706.338L708.948 264.9H706.248L704.952 269.292ZM711.91 269.598H716.896V268.77C716.896 266.358 715.618 264.72 713.098 264.72C710.866 264.72 709.174 266.466 709.174 269.004C709.174 271.614 710.938 273.18 713.53 273.18C714.7 273.18 715.69 272.928 716.32 272.46V270.318C715.51 270.804 714.844 270.966 713.98 270.966C712.936 270.966 712.144 270.57 711.91 269.598ZM713.206 266.862C713.89 266.862 714.304 267.33 714.376 268.014H711.946C712.144 267.276 712.594 266.862 713.206 266.862ZM723.462 267.582V264.864C723.336 264.792 723.048 264.72 722.688 264.72C721.878 264.72 721.248 265.08 720.852 265.62V264.9H718.026V273H720.852V268.248C720.996 267.672 721.518 267.33 722.292 267.33C722.742 267.33 723.12 267.402 723.462 267.582Z" fill="black"/>
<rect x="44" y="286" width="810" height="144" rx="12" fill="white"/>
<rect width="48" height="36" transform="translate(44 286)" fill="white"/>
<rect x="56" y="292" width="24" height="24" rx="2" fill="white" stroke="#999999"/>
<rect width="48" height="36" transform="translate(44 322)" fill="white"/>
<rect x="56" y="328" width="24" height="24" rx="2" fill="white" stroke="#999999"/>
<rect width="48" height="36" transform="translate(44 358)" fill="white"/>
<rect x="56" y="364" width="24" height="24" rx="2" fill="white" stroke="#999999"/>
<rect width="48" height="36" transform="translate(44 394)" fill="white"/>
<rect x="56" y="400" width="24" height="24" rx="2" fill="white" stroke="#999999"/>
<rect x="92" y="286" width="188" height="36" fill="white"/>
<path d="M114.89 297.948H111.992V302.142H107.726V297.948H104.828V309H107.726V304.626H111.992V309H114.89V297.948ZM119.397 305.562H121.377C123.771 305.562 125.391 304.212 125.391 301.764C125.391 299.298 123.771 297.948 121.377 297.948H116.535V309H119.397V305.562ZM122.583 301.764C122.583 302.592 122.115 303.15 121.071 303.15H119.397V300.378H121.071C122.115 300.378 122.583 300.918 122.583 301.764ZM134.527 297.948H126.625V309H134.527V306.498H129.469V304.59H134.095V302.16H129.469V300.432H134.527V297.948ZM135.491 309.756V311.898H141.629V309.756H135.491ZM142.562 305.616V308.28C143.372 308.766 144.704 309.18 146.18 309.18C148.664 309.18 150.698 308.118 150.698 305.724C150.698 304.032 149.78 302.97 147.764 302.34L146.09 301.836C145.514 301.656 145.172 301.458 145.172 300.954C145.172 300.396 145.802 300.162 146.63 300.162C147.89 300.162 148.988 300.576 149.978 301.26V298.596C149.06 298.092 147.998 297.768 146.504 297.768C144.182 297.768 142.328 298.974 142.328 301.17C142.328 303.006 143.354 303.924 145.208 304.464L146.882 304.95C147.476 305.166 147.818 305.346 147.818 305.886C147.818 306.57 147.026 306.768 146.108 306.768C144.866 306.768 143.516 306.264 142.562 305.616ZM157.194 306.606C155.52 306.606 154.386 305.382 154.386 303.51C154.386 301.602 155.628 300.432 157.392 300.432C158.742 300.432 159.75 300.828 160.596 301.44V298.632C159.786 298.11 158.616 297.768 157.392 297.768C153.882 297.768 151.488 300.036 151.488 303.51C151.488 306.84 153.648 309.18 157.104 309.18C158.634 309.18 160.056 308.73 161.172 307.704V302.826H157.014V305.13H158.616V306.21C158.256 306.48 157.77 306.606 157.194 306.606ZM165.523 309V297.948H162.625V309H165.523ZM171.048 309.18C173.37 309.18 175.224 307.974 175.224 305.94C175.224 304.644 174.432 303.726 173.442 303.384C174.324 302.952 174.882 302.07 174.882 300.99C174.882 298.902 173.082 297.768 171.048 297.768C169.014 297.768 167.214 298.902 167.214 300.99C167.214 302.07 167.754 302.952 168.654 303.384C167.646 303.726 166.854 304.644 166.854 305.94C166.854 307.974 168.726 309.18 171.048 309.18ZM171.048 302.196C170.346 302.196 169.788 301.746 169.788 301.08C169.788 300.378 170.346 299.928 171.048 299.928C171.75 299.928 172.308 300.378 172.308 301.08C172.308 301.746 171.75 302.196 171.048 302.196ZM171.048 306.948C170.238 306.948 169.626 306.462 169.626 305.724C169.626 304.968 170.238 304.5 171.048 304.5C171.858 304.5 172.47 304.968 172.47 305.724C172.47 306.462 171.858 306.948 171.048 306.948ZM180.381 309.18C182.811 309.18 184.593 307.434 184.593 305.076C184.593 303.042 183.171 301.404 181.011 301.242C180.921 301.242 180.813 301.26 180.741 301.278L182.631 297.948H179.553L177.231 301.962C176.457 303.276 176.187 304.14 176.187 305.076C176.187 307.434 177.969 309.18 180.381 309.18ZM181.983 305.076C181.983 305.994 181.317 306.678 180.381 306.678C179.499 306.678 178.797 305.994 178.797 305.076C178.797 304.176 179.499 303.456 180.381 303.456C181.317 303.456 181.983 304.176 181.983 305.076ZM189.733 309.18C192.451 309.18 194.053 306.84 194.053 303.474C194.053 300.108 192.451 297.768 189.733 297.768C187.015 297.768 185.413 300.108 185.413 303.474C185.413 306.84 187.015 309.18 189.733 309.18ZM189.733 300.306C190.885 300.306 191.245 301.764 191.245 303.474C191.245 305.184 190.885 306.642 189.733 306.642C188.563 306.642 188.221 305.184 188.221 303.474C188.221 301.764 188.563 300.306 189.733 300.306ZM199.084 309.18C201.802 309.18 203.404 306.84 203.404 303.474C203.404 300.108 201.802 297.768 199.084 297.768C196.366 297.768 194.764 300.108 194.764 303.474C194.764 306.84 196.366 309.18 199.084 309.18ZM199.084 300.306C200.236 300.306 200.596 301.764 200.596 303.474C200.596 305.184 200.236 306.642 199.084 306.642C197.914 306.642 197.572 305.184 197.572 303.474C197.572 301.764 197.914 300.306 199.084 300.306Z" fill="#444444"/>
<rect x="92" y="322" width="188" height="36" fill="white"/>
<path d="M114.89 333.948H111.992V338.142H107.726V333.948H104.828V345H107.726V340.626H111.992V345H114.89V333.948ZM119.397 341.562H121.377C123.771 341.562 125.391 340.212 125.391 337.764C125.391 335.298 123.771 333.948 121.377 333.948H116.535V345H119.397V341.562ZM122.583 337.764C122.583 338.592 122.115 339.15 121.071 339.15H119.397V336.378H121.071C122.115 336.378 122.583 336.918 122.583 337.764ZM134.527 333.948H126.625V345H134.527V342.498H129.469V340.59H134.095V338.16H129.469V336.432H134.527V333.948ZM135.491 345.756V347.898H141.629V345.756H135.491ZM149.276 333.948H146.324L142.112 345H144.974L145.748 342.858H149.762L150.554 345H153.488L149.276 333.948ZM146.63 340.482L147.764 337.368L148.898 340.482H146.63ZM157.313 341.562H159.293C161.687 341.562 163.307 340.212 163.307 337.764C163.307 335.298 161.687 333.948 159.293 333.948H154.451V345H157.313V341.562ZM160.499 337.764C160.499 338.592 160.031 339.15 158.987 339.15H157.313V336.378H158.987C160.031 336.378 160.499 336.918 160.499 337.764ZM174.909 339.474C174.909 336.162 172.695 333.768 169.491 333.768C166.305 333.768 164.109 336.162 164.109 339.474C164.109 342.768 166.305 345.18 169.491 345.18C172.695 345.18 174.909 342.768 174.909 339.474ZM171.993 339.474C171.993 341.382 170.985 342.642 169.491 342.642C167.997 342.642 167.025 341.382 167.025 339.474C167.025 337.566 167.997 336.306 169.491 336.306C170.985 336.306 171.993 337.566 171.993 339.474ZM176.107 333.948V345H183.955V342.498H179.005V333.948H176.107ZM185.283 333.948V345H193.131V342.498H188.181V333.948H185.283ZM204.44 339.474C204.44 336.162 202.226 333.768 199.022 333.768C195.836 333.768 193.64 336.162 193.64 339.474C193.64 342.768 195.836 345.18 199.022 345.18C202.226 345.18 204.44 342.768 204.44 339.474ZM201.524 339.474C201.524 341.382 200.516 342.642 199.022 342.642C197.528 342.642 196.556 341.382 196.556 339.474C196.556 337.566 197.528 336.306 199.022 336.306C200.516 336.306 201.524 337.566 201.524 339.474ZM209.491 345.18C211.921 345.18 213.703 343.434 213.703 341.076C213.703 339.042 212.281 337.404 210.121 337.242C210.031 337.242 209.923 337.26 209.851 337.278L211.741 333.948H208.663L206.341 337.962C205.567 339.276 205.297 340.14 205.297 341.076C205.297 343.434 207.079 345.18 209.491 345.18ZM211.093 341.076C211.093 341.994 210.427 342.678 209.491 342.678C208.609 342.678 207.907 341.994 207.907 341.076C207.907 340.176 208.609 339.456 209.491 339.456C210.427 339.456 211.093 340.176 211.093 341.076ZM218.59 337.746C218.248 337.746 217.87 337.782 217.654 337.836V336.432H222.118V333.948H215.404V340.482C216.106 340.212 217.096 340.05 217.978 340.05C219.166 340.05 220.066 340.518 220.066 341.472C220.066 342.408 219.13 342.84 218.086 342.84C216.934 342.84 215.8 342.336 215.026 341.652V344.262C215.818 344.784 216.898 345.18 218.32 345.18C220.858 345.18 222.748 343.722 222.748 341.436C222.748 339.132 220.948 337.746 218.59 337.746ZM228.194 345.18C230.912 345.18 232.514 342.84 232.514 339.474C232.514 336.108 230.912 333.768 228.194 333.768C225.476 333.768 223.874 336.108 223.874 339.474C223.874 342.84 225.476 345.18 228.194 345.18ZM228.194 336.306C229.346 336.306 229.706 337.764 229.706 339.474C229.706 341.184 229.346 342.642 228.194 342.642C227.024 342.642 226.682 341.184 226.682 339.474C226.682 337.764 227.024 336.306 228.194 336.306ZM237.545 345.18C240.263 345.18 241.865 342.84 241.865 339.474C241.865 336.108 240.263 333.768 237.545 333.768C234.827 333.768 233.225 336.108 233.225 339.474C233.225 342.84 234.827 345.18 237.545 345.18ZM237.545 336.306C238.697 336.306 239.057 337.764 239.057 339.474C239.057 341.184 238.697 342.642 237.545 342.642C236.375 342.642 236.033 341.184 236.033 339.474C236.033 337.764 236.375 336.306 237.545 336.306Z" fill="#444444"/>
<rect x="92" y="358" width="188" height="36" fill="white"/>
<path d="M114.584 381V369.948H111.794V376.032L107.528 369.948H104.828V381H107.618V374.538L112.244 381H114.584ZM124.012 376.95C124.012 374.448 122.338 372.72 119.872 372.72C117.424 372.72 115.732 374.448 115.732 376.95C115.732 379.452 117.424 381.18 119.872 381.18C122.338 381.18 124.012 379.452 124.012 376.95ZM121.24 376.95C121.24 378.066 120.754 378.84 119.872 378.84C119.008 378.84 118.522 378.066 118.522 376.95C118.522 375.834 119.008 375.042 119.872 375.042C120.754 375.042 121.24 375.834 121.24 376.95ZM128.785 381V375.096H130.369V372.9H128.785V370.668H125.977V372.9H124.573V375.096H125.977V381H128.785ZM134.72 378.03V380.406C135.476 380.91 136.664 381.18 137.798 381.18C139.796 381.18 141.29 380.334 141.29 378.606C141.29 377.238 140.588 376.518 138.824 376.05L138.086 375.834C137.69 375.726 137.456 375.618 137.456 375.312C137.456 374.988 137.78 374.826 138.266 374.826C139.184 374.826 140.048 375.204 140.822 375.762V373.44C140.03 372.954 139.148 372.72 137.996 372.72C136.088 372.72 134.684 373.674 134.684 375.366C134.684 376.824 135.638 377.526 137.132 377.85L137.762 378.012C138.248 378.12 138.5 378.246 138.5 378.57C138.5 378.93 138.14 379.056 137.582 379.056C136.754 379.056 135.494 378.66 134.72 378.03ZM144.765 377.598H149.751V376.77C149.751 374.358 148.473 372.72 145.953 372.72C143.721 372.72 142.029 374.466 142.029 377.004C142.029 379.614 143.793 381.18 146.385 381.18C147.555 381.18 148.545 380.928 149.175 380.46V378.318C148.365 378.804 147.699 378.966 146.835 378.966C145.791 378.966 144.999 378.57 144.765 377.598ZM146.061 374.862C146.745 374.862 147.159 375.33 147.231 376.014H144.801C144.999 375.276 145.449 374.862 146.061 374.862ZM154.59 381V375.096H156.174V372.9H154.59V370.668H151.782V372.9H150.378V375.096H151.782V381H154.59Z" fill="#444444"/>
<rect x="92" y="394" width="188" height="36" fill="white"/>
<path d="M114.89 405.948H111.992V410.142H107.726V405.948H104.828V417H107.726V412.626H111.992V417H114.89V405.948ZM119.397 413.562H121.377C123.771 413.562 125.391 412.212 125.391 409.764C125.391 407.298 123.771 405.948 121.377 405.948H116.535V417H119.397V413.562ZM122.583 409.764C122.583 410.592 122.115 411.15 121.071 411.15H119.397V408.378H121.071C122.115 408.378 122.583 408.918 122.583 409.764ZM134.527 405.948H126.625V417H134.527V414.498H129.469V412.59H134.095V410.16H129.469V408.432H134.527V405.948ZM135.491 417.756V419.898H141.629V417.756H135.491ZM142.562 413.616V416.28C143.372 416.766 144.704 417.18 146.18 417.18C148.664 417.18 150.698 416.118 150.698 413.724C150.698 412.032 149.78 410.97 147.764 410.34L146.09 409.836C145.514 409.656 145.172 409.458 145.172 408.954C145.172 408.396 145.802 408.162 146.63 408.162C147.89 408.162 148.988 408.576 149.978 409.26V406.596C149.06 406.092 147.998 405.768 146.504 405.768C144.182 405.768 142.328 406.974 142.328 409.17C142.328 411.006 143.354 411.924 145.208 412.464L146.882 412.95C147.476 413.166 147.818 413.346 147.818 413.886C147.818 414.57 147.026 414.768 146.108 414.768C144.866 414.768 143.516 414.264 142.562 413.616ZM156.583 417.18C159.499 417.18 161.389 415.524 161.389 412.5V405.948H158.509V412.23C158.509 413.796 157.771 414.606 156.583 414.606C155.377 414.606 154.639 413.796 154.639 412.23V405.948H151.759V412.482C151.759 415.524 153.667 417.18 156.583 417.18ZM165.786 413.562H167.766C170.16 413.562 171.78 412.212 171.78 409.764C171.78 407.298 170.16 405.948 167.766 405.948H162.924V417H165.786V413.562ZM168.972 409.764C168.972 410.592 168.504 411.15 167.46 411.15H165.786V408.378H167.46C168.504 408.378 168.972 408.918 168.972 409.764ZM180.916 405.948H173.014V417H180.916V414.498H175.858V412.59H180.484V410.16H175.858V408.432H180.916V405.948ZM185.21 413.346H186.218L188.522 417H191.726L189.134 413.04C190.484 412.536 191.33 411.384 191.33 409.71C191.33 407.298 189.692 405.948 187.316 405.948H182.348V417H185.21V413.346ZM185.21 411.042V408.378H187.01C188.036 408.378 188.504 408.9 188.504 409.71C188.504 410.52 188.036 411.042 187.01 411.042H185.21ZM192.683 405.948V417H196.859C200.333 417 202.439 414.84 202.439 411.474C202.439 408.108 200.333 405.948 196.859 405.948H192.683ZM196.715 414.498H195.527V408.432H196.715C198.551 408.432 199.577 409.602 199.577 411.474C199.577 413.328 198.551 414.498 196.715 414.498ZM214.108 411.474C214.108 408.162 211.894 405.768 208.69 405.768C205.504 405.768 203.308 408.162 203.308 411.474C203.308 414.768 205.504 417.18 208.69 417.18C211.894 417.18 214.108 414.768 214.108 411.474ZM211.192 411.474C211.192 413.382 210.184 414.642 208.69 414.642C207.196 414.642 206.224 413.382 206.224 411.474C206.224 409.566 207.196 408.306 208.69 408.306C210.184 408.306 211.192 409.566 211.192 411.474ZM220.977 414.624H221.049L223.875 410.664V417H226.719V405.948H224.055L221.013 410.448L217.989 405.948H215.307V417H218.133V410.664L220.977 414.624ZM236.269 405.948H228.367V417H236.269V414.498H231.211V412.59H235.837V410.16H231.211V408.432H236.269V405.948Z" fill="#444444"/>
<g clip-path="url(#clip0_7795:147870)">
<path d="M298 309C300.761 309 303 306.761 303 304C303 301.239 300.761 299 298 299C295.239 299 293 301.239 293 304C293 306.761 295.239 309 298 309Z" fill="#17EBA0" stroke="#17EBA0"/>
<rect x="304" y="286" width="176" height="36" fill="white"/>
<path d="M318.736 304.32H320.698L323.866 309H325.486L322.21 304.266C323.956 304.014 325.036 302.988 325.036 301.152C325.036 299.064 323.596 297.948 321.364 297.948H317.314V309H318.736V304.32ZM318.736 303.114V299.19H321.328C322.786 299.19 323.632 299.928 323.632 301.152C323.632 302.376 322.786 303.114 321.328 303.114H318.736ZM333.457 309V301.008H332.089V306.426C331.801 307.29 331.027 307.92 330.091 307.92C328.885 307.92 328.345 307.146 328.345 306.03V301.008H326.977V306.246C326.977 307.992 327.949 309.162 329.767 309.162C330.793 309.162 331.639 308.622 332.089 307.992V309H333.457ZM335.856 301.008V309H337.206V303.582C337.494 302.718 338.304 302.088 339.24 302.088C340.446 302.088 341.004 302.862 341.004 303.978V309H342.372V303.762C342.372 302.016 341.382 300.846 339.564 300.846C338.538 300.846 337.674 301.386 337.206 302.016V301.008H335.856ZM344.663 301.008V309H346.013V303.582C346.301 302.718 347.111 302.088 348.047 302.088C349.253 302.088 349.811 302.862 349.811 303.978V309H351.179V303.762C351.179 302.016 350.189 300.846 348.371 300.846C347.345 300.846 346.481 301.386 346.013 302.016V301.008H344.663ZM355.018 298.596C355.018 298.11 354.622 297.732 354.136 297.732C353.668 297.732 353.272 298.11 353.272 298.596C353.272 299.064 353.668 299.46 354.136 299.46C354.622 299.46 355.018 299.064 355.018 298.596ZM354.82 309V301.008H353.47V309H354.82ZM357.231 301.008V309H358.581V303.582C358.869 302.718 359.679 302.088 360.615 302.088C361.821 302.088 362.379 302.862 362.379 303.978V309H363.747V303.762C363.747 302.016 362.757 300.846 360.939 300.846C359.913 300.846 359.049 301.386 358.581 302.016V301.008H357.231ZM371.258 307.938V308.46C371.258 310.17 370.142 311.016 368.72 311.016C367.784 311.016 366.938 310.764 366.146 310.026V311.52C366.758 311.952 367.694 312.24 368.72 312.24C370.628 312.24 372.626 311.16 372.626 308.37V301.008H371.258V301.908C370.862 301.35 370.016 300.846 369.026 300.846C366.686 300.846 365.462 302.79 365.462 304.932C365.462 307.074 366.686 309.018 369.026 309.018C370.016 309.018 370.862 308.496 371.258 307.938ZM371.258 303.294V306.552C370.844 307.308 370.088 307.794 369.224 307.794C367.712 307.794 366.83 306.588 366.83 304.932C366.83 303.258 367.712 302.052 369.224 302.052C370.088 302.052 370.844 302.538 371.258 303.294Z" fill="#444444"/>
<path d="M298 345C300.761 345 303 342.761 303 340C303 337.239 300.761 335 298 335C295.239 335 293 337.239 293 340C293 342.761 295.239 345 298 345Z" fill="#17EBA0" stroke="#17EBA0"/>
<rect x="304" y="322" width="176" height="36" fill="white"/>
<path d="M318.736 340.32H320.698L323.866 345H325.486L322.21 340.266C323.956 340.014 325.036 338.988 325.036 337.152C325.036 335.064 323.596 333.948 321.364 333.948H317.314V345H318.736V340.32ZM318.736 339.114V335.19H321.328C322.786 335.19 323.632 335.928 323.632 337.152C323.632 338.376 322.786 339.114 321.328 339.114H318.736ZM333.457 345V337.008H332.089V342.426C331.801 343.29 331.027 343.92 330.091 343.92C328.885 343.92 328.345 343.146 328.345 342.03V337.008H326.977V342.246C326.977 343.992 327.949 345.162 329.767 345.162C330.793 345.162 331.639 344.622 332.089 343.992V345H333.457ZM335.856 337.008V345H337.206V339.582C337.494 338.718 338.304 338.088 339.24 338.088C340.446 338.088 341.004 338.862 341.004 339.978V345H342.372V339.762C342.372 338.016 341.382 336.846 339.564 336.846C338.538 336.846 337.674 337.386 337.206 338.016V337.008H335.856ZM344.663 337.008V345H346.013V339.582C346.301 338.718 347.111 338.088 348.047 338.088C349.253 338.088 349.811 338.862 349.811 339.978V345H351.179V339.762C351.179 338.016 350.189 336.846 348.371 336.846C347.345 336.846 346.481 337.386 346.013 338.016V337.008H344.663ZM355.018 334.596C355.018 334.11 354.622 333.732 354.136 333.732C353.668 333.732 353.272 334.11 353.272 334.596C353.272 335.064 353.668 335.46 354.136 335.46C354.622 335.46 355.018 335.064 355.018 334.596ZM354.82 345V337.008H353.47V345H354.82ZM357.231 337.008V345H358.581V339.582C358.869 338.718 359.679 338.088 360.615 338.088C361.821 338.088 362.379 338.862 362.379 339.978V345H363.747V339.762C363.747 338.016 362.757 336.846 360.939 336.846C359.913 336.846 359.049 337.386 358.581 338.016V337.008H357.231ZM371.258 343.938V344.46C371.258 346.17 370.142 347.016 368.72 347.016C367.784 347.016 366.938 346.764 366.146 346.026V347.52C366.758 347.952 367.694 348.24 368.72 348.24C370.628 348.24 372.626 347.16 372.626 344.37V337.008H371.258V337.908C370.862 337.35 370.016 336.846 369.026 336.846C366.686 336.846 365.462 338.79 365.462 340.932C365.462 343.074 366.686 345.018 369.026 345.018C370.016 345.018 370.862 344.496 371.258 343.938ZM371.258 339.294V342.552C370.844 343.308 370.088 343.794 369.224 343.794C367.712 343.794 366.83 342.588 366.83 340.932C366.83 339.258 367.712 338.052 369.224 338.052C370.088 338.052 370.844 338.538 371.258 339.294Z" fill="#444444"/>
<path d="M302 371H294C293.448 371 293 371.448 293 372V380C293 380.552 293.448 381 294 381H302C302.552 381 303 380.552 303 380V372C303 371.448 302.552 371 302 371Z" fill="#CCCCCC" stroke="#CCCCCC"/>
<rect x="304" y="358" width="176" height="36" fill="white"/>
<path d="M325.9 381V369.948H324.55V378.354L318.664 369.948H317.314V381H318.682V372.216L324.856 381H325.9ZM335.189 377.004C335.189 374.556 333.695 372.846 331.517 372.846C329.321 372.846 327.845 374.556 327.845 377.004C327.845 379.452 329.321 381.162 331.517 381.162C333.695 381.162 335.189 379.452 335.189 377.004ZM333.821 377.004C333.821 378.75 332.957 379.974 331.517 379.974C330.077 379.974 329.213 378.75 329.213 377.004C329.213 375.258 330.077 374.034 331.517 374.034C332.957 374.034 333.821 375.258 333.821 377.004ZM339.126 381V374.16H340.979V373.008H339.126V370.902H337.776V373.008H336.102V374.16H337.776V381H339.126ZM346.021 377.004C346.021 379.56 347.713 381.162 349.873 381.162C350.647 381.162 351.457 380.982 352.015 380.496V379.128C351.439 379.704 350.737 379.956 349.963 379.956C348.541 379.956 347.389 378.84 347.389 377.004C347.389 375.168 348.541 374.052 349.963 374.052C350.737 374.052 351.439 374.304 352.015 374.88V373.512C351.457 373.026 350.647 372.846 349.873 372.846C347.713 372.846 346.021 374.448 346.021 377.004ZM360.66 377.004C360.66 374.556 359.166 372.846 356.988 372.846C354.792 372.846 353.316 374.556 353.316 377.004C353.316 379.452 354.792 381.162 356.988 381.162C359.166 381.162 360.66 379.452 360.66 377.004ZM359.292 377.004C359.292 378.75 358.428 379.974 356.988 379.974C355.548 379.974 354.684 378.75 354.684 377.004C354.684 375.258 355.548 374.034 356.988 374.034C358.428 374.034 359.292 375.258 359.292 377.004ZM362.487 373.008V381H363.837V375.582C364.125 374.718 364.935 374.088 365.871 374.088C367.077 374.088 367.635 374.862 367.635 375.978V381H369.003V375.762C369.003 374.016 368.013 372.846 366.195 372.846C365.169 372.846 364.305 373.386 363.837 374.016V373.008H362.487ZM371.294 373.008V381H372.644V375.582C372.932 374.718 373.742 374.088 374.678 374.088C375.884 374.088 376.442 374.862 376.442 375.978V381H377.81V375.762C377.81 374.016 376.82 372.846 375.002 372.846C373.976 372.846 373.112 373.386 372.644 374.016V373.008H371.294ZM380.857 377.238H386.365V376.752C386.365 374.412 385.249 372.846 383.089 372.846C380.965 372.846 379.525 374.592 379.525 377.076C379.525 379.596 381.073 381.162 383.377 381.162C384.331 381.162 385.159 380.964 385.807 380.46V379.218C385.087 379.758 384.439 379.974 383.539 379.974C382.081 379.974 380.911 379.092 380.857 377.238ZM383.107 373.998C384.403 373.998 384.997 375.006 385.051 376.176H380.929C381.181 374.7 382.045 373.998 383.107 373.998ZM387.628 377.004C387.628 379.56 389.32 381.162 391.48 381.162C392.254 381.162 393.064 380.982 393.622 380.496V379.128C393.046 379.704 392.344 379.956 391.57 379.956C390.148 379.956 388.996 378.84 388.996 377.004C388.996 375.168 390.148 374.052 391.57 374.052C392.344 374.052 393.046 374.304 393.622 374.88V373.512C393.064 373.026 392.254 372.846 391.48 372.846C389.32 372.846 387.628 374.448 387.628 377.004ZM397.766 381V374.16H399.62V373.008H397.766V370.902H396.416V373.008H394.742V374.16H396.416V381H397.766ZM401.88 377.238H407.388V376.752C407.388 374.412 406.272 372.846 404.112 372.846C401.988 372.846 400.548 374.592 400.548 377.076C400.548 379.596 402.096 381.162 404.4 381.162C405.354 381.162 406.182 380.964 406.83 380.46V379.218C406.11 379.758 405.462 379.974 404.562 379.974C403.104 379.974 401.934 379.092 401.88 377.238ZM404.13 373.998C405.426 373.998 406.02 375.006 406.074 376.176H401.952C402.204 374.7 403.068 373.998 404.13 373.998ZM414.501 380.064V381H415.869V369.3H414.501V373.944C414.105 373.368 413.241 372.846 412.251 372.846C409.911 372.846 408.651 374.754 408.651 377.004C408.651 379.272 409.911 381.162 412.251 381.162C413.241 381.162 414.105 380.64 414.501 380.064ZM414.501 375.384V378.624C414.087 379.452 413.295 379.938 412.449 379.938C410.919 379.938 410.019 378.696 410.019 377.004C410.019 375.312 410.919 374.07 412.449 374.07C413.295 374.07 414.087 374.556 414.501 375.384Z" fill="#444444"/>
<path fill-rule="evenodd" clip-rule="evenodd" d="M298.712 407.263C298.319 406.869 297.683 406.867 297.287 407.263L293.263 411.287C292.869 411.681 292.867 412.316 293.263 412.712L297.287 416.737C297.681 417.13 298.316 417.132 298.712 416.737L302.737 412.712C303.13 412.319 303.132 411.683 302.737 411.287L298.712 407.263Z" fill="#FC5A5A" stroke="#FC5A5A"/>
<rect x="304" y="394" width="176" height="36" fill="white"/>
<path d="M321.454 417.162C323.974 417.162 325.792 415.65 325.792 412.626V405.948H324.37V412.446C324.37 414.804 323.236 415.902 321.454 415.902C319.672 415.902 318.538 414.804 318.538 412.446V405.948H317.134V412.608C317.134 415.65 318.952 417.162 321.454 417.162ZM328.14 409.008V417H329.49V411.582C329.778 410.718 330.588 410.088 331.524 410.088C332.73 410.088 333.288 410.862 333.288 411.978V417H334.656V411.762C334.656 410.016 333.666 408.846 331.848 408.846C330.822 408.846 329.958 409.386 329.49 410.016V409.008H328.14ZM336.37 413.004C336.37 415.56 338.062 417.162 340.222 417.162C340.996 417.162 341.806 416.982 342.364 416.496V415.128C341.788 415.704 341.086 415.956 340.312 415.956C338.89 415.956 337.738 414.84 337.738 413.004C337.738 411.168 338.89 410.052 340.312 410.052C341.086 410.052 341.788 410.304 342.364 410.88V409.512C341.806 409.026 340.996 408.846 340.222 408.846C338.062 408.846 336.37 410.448 336.37 413.004ZM351.009 413.004C351.009 410.556 349.515 408.846 347.337 408.846C345.141 408.846 343.665 410.556 343.665 413.004C343.665 415.452 345.141 417.162 347.337 417.162C349.515 417.162 351.009 415.452 351.009 413.004ZM349.641 413.004C349.641 414.75 348.777 415.974 347.337 415.974C345.897 415.974 345.033 414.75 345.033 413.004C345.033 411.258 345.897 410.034 347.337 410.034C348.777 410.034 349.641 411.258 349.641 413.004ZM352.837 409.008V417H354.187V411.582C354.475 410.718 355.285 410.088 356.221 410.088C357.427 410.088 357.985 410.862 357.985 411.978V417H359.353V411.762C359.353 410.016 358.363 408.846 356.545 408.846C355.519 408.846 354.655 409.386 354.187 410.016V409.008H352.837ZM365.64 406.542V405.318C365.334 405.192 365.028 405.138 364.596 405.138C363.192 405.138 362.148 406.074 362.148 407.676V409.008H360.798V410.16H362.148V417H363.48V410.16H365.28V409.008H363.48V407.784C363.48 406.83 364.002 406.326 364.794 406.326C365.082 406.326 365.388 406.38 365.64 406.542ZM368.394 406.596C368.394 406.11 367.998 405.732 367.512 405.732C367.044 405.732 366.648 406.11 366.648 406.596C366.648 407.064 367.044 407.46 367.512 407.46C367.998 407.46 368.394 407.064 368.394 406.596ZM368.196 417V409.008H366.846V417H368.196ZM375.828 415.938V416.46C375.828 418.17 374.712 419.016 373.29 419.016C372.354 419.016 371.508 418.764 370.716 418.026V419.52C371.328 419.952 372.264 420.24 373.29 420.24C375.198 420.24 377.196 419.16 377.196 416.37V409.008H375.828V409.908C375.432 409.35 374.586 408.846 373.596 408.846C371.256 408.846 370.032 410.79 370.032 412.932C370.032 415.074 371.256 417.018 373.596 417.018C374.586 417.018 375.432 416.496 375.828 415.938ZM375.828 411.294V414.552C375.414 415.308 374.658 415.794 373.794 415.794C372.282 415.794 371.4 414.588 371.4 412.932C371.4 411.258 372.282 410.052 373.794 410.052C374.658 410.052 375.414 410.538 375.828 411.294ZM385.963 417V409.008H384.595V414.426C384.307 415.29 383.533 415.92 382.597 415.92C381.391 415.92 380.851 415.146 380.851 414.03V409.008H379.483V414.246C379.483 415.992 380.455 417.162 382.273 417.162C383.299 417.162 384.145 416.622 384.595 415.992V417H385.963ZM392.466 410.358V408.972C392.322 408.9 392.034 408.846 391.692 408.846C390.81 408.846 390.054 409.368 389.712 410.052V409.008H388.362V417H389.712V411.636C389.982 410.7 390.72 410.142 391.566 410.142C391.908 410.142 392.25 410.214 392.466 410.358ZM394.673 413.238H400.181V412.752C400.181 410.412 399.065 408.846 396.905 408.846C394.781 408.846 393.341 410.592 393.341 413.076C393.341 415.596 394.889 417.162 397.193 417.162C398.147 417.162 398.975 416.964 399.623 416.46V415.218C398.903 415.758 398.255 415.974 397.355 415.974C395.897 415.974 394.727 415.092 394.673 413.238ZM396.923 409.998C398.219 409.998 398.813 411.006 398.867 412.176H394.745C394.997 410.7 395.861 409.998 396.923 409.998ZM407.294 416.064V417H408.662V405.3H407.294V409.944C406.898 409.368 406.034 408.846 405.044 408.846C402.704 408.846 401.444 410.754 401.444 413.004C401.444 415.272 402.704 417.162 405.044 417.162C406.034 417.162 406.898 416.64 407.294 416.064ZM407.294 411.384V414.624C406.88 415.452 406.088 415.938 405.242 415.938C403.712 415.938 402.812 414.696 402.812 413.004C402.812 411.312 403.712 410.07 405.242 410.07C406.088 410.07 406.88 410.556 407.294 411.384Z" fill="#444444"/>
</g>
<rect x="478" y="286" width="188" height="36" fill="white"/>
<path d="M492.736 304.32H494.698L497.866 309H499.486L496.21 304.266C497.956 304.014 499.036 302.988 499.036 301.152C499.036 299.064 497.596 297.948 495.364 297.948H491.314V309H492.736V304.32ZM492.736 303.114V299.19H495.328C496.786 299.19 497.632 299.928 497.632 301.152C497.632 302.376 496.786 303.114 495.328 303.114H492.736ZM500.705 306.606V308.136C501.461 308.73 502.685 309.162 504.179 309.162C506.321 309.162 507.905 308.028 507.905 306.138C507.905 304.608 507.149 303.726 505.457 303.078L503.711 302.394C502.685 301.998 502.055 301.602 502.055 300.666C502.055 299.568 503.009 299.028 504.233 299.028C505.511 299.028 506.501 299.478 507.383 300.18V298.686C506.555 298.11 505.421 297.786 504.215 297.786C502.307 297.786 500.669 298.776 500.669 300.684C500.669 302.43 501.857 303.168 503.153 303.672L504.773 304.302C505.943 304.788 506.537 305.184 506.537 306.156C506.537 307.29 505.601 307.902 504.179 307.902C502.883 307.902 501.731 307.488 500.705 306.606ZM511.369 304.32H513.331L516.499 309H518.119L514.843 304.266C516.589 304.014 517.669 302.988 517.669 301.152C517.669 299.064 516.229 297.948 513.997 297.948H509.947V309H511.369V304.32ZM511.369 303.114V299.19H513.961C515.419 299.19 516.265 299.928 516.265 301.152C516.265 302.376 515.419 303.114 513.961 303.114H511.369ZM525.062 306.534H525.134L528.878 300.504V309H530.264V297.948H529.022L525.116 304.302L521.192 297.948H519.878V309H521.264V300.504L525.062 306.534ZM536.216 309H537.548L541.814 297.948H540.374L536.9 307.128L533.444 297.948H531.95L536.216 309ZM548.003 303.348L551.765 297.948H550.199L547.211 302.25L544.259 297.948H542.639L546.401 303.384L542.495 309H544.061L547.175 304.5L550.307 309H551.927L548.003 303.348ZM557.663 309.162C560.183 309.162 562.001 307.65 562.001 304.626V297.948H560.579V304.446C560.579 306.804 559.445 307.902 557.663 307.902C555.881 307.902 554.747 306.804 554.747 304.446V297.948H553.343V304.608C553.343 307.65 555.161 309.162 557.663 309.162ZM565.591 305.31L568.957 297.948H567.553L563.665 306.426V306.498H568.867V309H570.181V306.498H572.017V305.31H570.181V302.646H568.867V305.31H565.591Z" fill="#444444"/>
<rect x="478" y="322" width="188" height="36" fill="white"/>
<path d="M492.736 340.32H494.698L497.866 345H499.486L496.21 340.266C497.956 340.014 499.036 338.988 499.036 337.152C499.036 335.064 497.596 333.948 495.364 333.948H491.314V345H492.736V340.32ZM492.736 339.114V335.19H495.328C496.786 335.19 497.632 335.928 497.632 337.152C497.632 338.376 496.786 339.114 495.328 339.114H492.736ZM500.705 342.606V344.136C501.461 344.73 502.685 345.162 504.179 345.162C506.321 345.162 507.905 344.028 507.905 342.138C507.905 340.608 507.149 339.726 505.457 339.078L503.711 338.394C502.685 337.998 502.055 337.602 502.055 336.666C502.055 335.568 503.009 335.028 504.233 335.028C505.511 335.028 506.501 335.478 507.383 336.18V334.686C506.555 334.11 505.421 333.786 504.215 333.786C502.307 333.786 500.669 334.776 500.669 336.684C500.669 338.43 501.857 339.168 503.153 339.672L504.773 340.302C505.943 340.788 506.537 341.184 506.537 342.156C506.537 343.29 505.601 343.902 504.179 343.902C502.883 343.902 501.731 343.488 500.705 342.606ZM511.369 338.862V333.948H509.947V345H511.369V339.798L516.463 345H518.299L512.701 339.24L518.137 333.948H516.355L511.369 338.862ZM521.318 340.32H523.28L526.448 345H528.068L524.792 340.266C526.538 340.014 527.618 338.988 527.618 337.152C527.618 335.064 526.178 333.948 523.946 333.948H519.896V345H521.318V340.32ZM521.318 339.114V335.19H523.91C525.368 335.19 526.214 335.928 526.214 337.152C526.214 338.376 525.368 339.114 523.91 339.114H521.318ZM535.012 342.534H535.084L538.828 336.504V345H540.214V333.948H538.972L535.066 340.302L531.142 333.948H529.828V345H531.214V336.504L535.012 342.534ZM546.975 345.162C549.495 345.162 551.313 343.65 551.313 340.626V333.948H549.891V340.446C549.891 342.804 548.757 343.902 546.975 343.902C545.193 343.902 544.059 342.804 544.059 340.446V333.948H542.655V340.608C542.655 343.65 544.473 345.162 546.975 345.162ZM553.121 339.474C553.121 342.93 555.353 345.162 558.305 345.162C559.583 345.162 560.555 344.802 561.275 344.208V342.714C560.375 343.524 559.457 343.884 558.323 343.884C556.091 343.884 554.543 342.138 554.543 339.474C554.543 336.81 556.091 335.064 558.323 335.064C559.457 335.064 560.375 335.406 561.275 336.234V334.74C560.555 334.146 559.583 333.786 558.305 333.786C555.353 333.786 553.121 336.018 553.121 339.474ZM570.279 333.948L567.093 339.168L563.907 333.948H562.359L566.355 340.446V345H567.759V340.446L571.791 333.948H570.279Z" fill="#444444"/>
<rect x="478" y="358" width="188" height="36" fill="white"/>
<path d="M490.522 379.074V380.532C490.99 380.838 491.782 381.162 492.682 381.162C494.806 381.162 495.94 379.992 495.94 377.328V369.948H494.518V377.274C494.518 379.11 493.96 379.866 492.646 379.866C491.836 379.866 491.224 379.578 490.522 379.074ZM502.899 379.902C500.595 379.902 499.119 378.138 499.119 375.474C499.119 372.81 500.721 371.064 503.025 371.064C504.231 371.064 505.275 371.442 506.211 372.288V370.776C505.437 370.164 504.321 369.786 503.025 369.786C499.983 369.786 497.697 372.036 497.697 375.474C497.697 378.894 499.785 381.162 502.863 381.162C504.231 381.162 505.689 380.748 506.751 379.578V375.258H503.007V376.446H505.437V379.056C504.717 379.65 503.907 379.902 502.899 379.902ZM516.053 369.948H509.015V381H516.053V379.722H510.419V375.96H515.531V374.7H510.419V371.208H516.053V369.948ZM518.279 381H519.701V376.194H524.705V374.934H519.701V371.208H525.029V369.948H518.279V381ZM534.557 381V379.722H528.509L534.611 370.02V369.948H526.511V371.208H532.379L526.241 380.928V381H534.557ZM540.63 381.162C543.15 381.162 544.968 379.65 544.968 376.626V369.948H543.546V376.446C543.546 378.804 542.412 379.902 540.63 379.902C538.848 379.902 537.714 378.804 537.714 376.446V369.948H536.31V376.608C536.31 379.65 538.128 381.162 540.63 381.162ZM551.841 369.948H550.509L546.189 381H547.629L548.889 377.67H553.443L554.721 381H556.161L551.841 369.948ZM549.357 376.428L551.157 371.712L552.957 376.428H549.357ZM565.389 381V379.722H559.341L565.443 370.02V369.948H557.343V371.208H563.211L557.073 380.928V381H565.389Z" fill="#444444"/>
<rect x="478" y="394" width="188" height="36" fill="white"/>
<path d="M500.404 405.948H498.982V410.682H492.736V405.948H491.314V417H492.736V411.96H498.982V417H500.404V405.948ZM506.405 405.786C504.263 405.786 502.661 407.406 502.661 409.548C502.661 411.672 504.191 413.292 506.315 413.292C506.747 413.292 507.233 413.148 507.521 412.968L505.199 417H506.657L509.177 412.608C509.897 411.348 510.149 410.448 510.149 409.548C510.149 407.406 508.565 405.786 506.405 405.786ZM503.957 409.548C503.957 408.108 505.001 407.01 506.405 407.01C507.809 407.01 508.853 408.108 508.853 409.548C508.853 410.97 507.809 412.086 506.405 412.086C505.001 412.086 503.957 410.97 503.957 409.548ZM516.944 415.902C514.64 415.902 513.164 414.138 513.164 411.474C513.164 408.81 514.766 407.064 517.07 407.064C518.276 407.064 519.32 407.442 520.256 408.288V406.776C519.482 406.164 518.366 405.786 517.07 405.786C514.028 405.786 511.742 408.036 511.742 411.474C511.742 414.894 513.83 417.162 516.908 417.162C518.276 417.162 519.734 416.748 520.796 415.578V411.258H517.052V412.446H519.482V415.056C518.762 415.65 517.952 415.902 516.944 415.902ZM522.268 415.074V416.532C522.736 416.838 523.528 417.162 524.428 417.162C526.552 417.162 527.686 415.992 527.686 413.328V405.948H526.264V413.274C526.264 415.11 525.706 415.866 524.392 415.866C523.582 415.866 522.97 415.578 522.268 415.074ZM529.317 405.948V407.208H533.169V417H534.591V407.208H538.443V405.948H529.317ZM547.846 417V415.722H541.798L547.9 406.02V405.948H539.8V407.208H545.668L539.53 416.928V417H547.846ZM558.922 405.948H557.5V410.682H551.254V405.948H549.832V417H551.254V411.96H557.5V417H558.922V405.948ZM562.69 413.31L566.056 405.948H564.652L560.764 414.426V414.498H565.966V417H567.28V414.498H569.116V413.31H567.28V410.646H565.966V413.31H562.69Z" fill="#444444"/>
<rect x="666" y="286" width="188" height="36" fill="white"/>
<path d="M688.656 303.474C688.656 300.126 686.568 297.786 683.652 297.786C680.754 297.786 678.666 300.126 678.666 303.474C678.666 306.804 680.754 309.162 683.652 309.162C686.568 309.162 688.656 306.804 688.656 303.474ZM687.234 303.474C687.234 306.066 685.794 307.884 683.652 307.884C681.528 307.884 680.088 306.066 680.088 303.474C680.088 300.882 681.528 299.064 683.652 299.064C685.794 299.064 687.234 300.882 687.234 303.474ZM690.526 301.008V309H691.876V303.582C692.164 302.718 692.974 302.088 693.91 302.088C695.116 302.088 695.674 302.862 695.674 303.978V309H697.042V303.762C697.042 302.016 696.052 300.846 694.234 300.846C693.208 300.846 692.344 301.386 691.876 302.016V301.008H690.526Z" fill="#444444"/>
<rect x="666" y="322" width="188" height="36" fill="white"/>
<path d="M688.656 339.474C688.656 336.126 686.568 333.786 683.652 333.786C680.754 333.786 678.666 336.126 678.666 339.474C678.666 342.804 680.754 345.162 683.652 345.162C686.568 345.162 688.656 342.804 688.656 339.474ZM687.234 339.474C687.234 342.066 685.794 343.884 683.652 343.884C681.528 343.884 680.088 342.066 680.088 339.474C680.088 336.882 681.528 335.064 683.652 335.064C685.794 335.064 687.234 336.882 687.234 339.474ZM690.526 337.008V345H691.876V339.582C692.164 338.718 692.974 338.088 693.91 338.088C695.116 338.088 695.674 338.862 695.674 339.978V345H697.042V339.762C697.042 338.016 696.052 336.846 694.234 336.846C693.208 336.846 692.344 337.386 691.876 338.016V337.008H690.526Z" fill="#444444"/>
<rect x="44" y="162" width="384" height="36" rx="4" fill="white" stroke="#999999"/>
<path d="M92.738 182.606V184.136C93.494 184.73 94.718 185.162 96.212 185.162C98.354 185.162 99.938 184.028 99.938 182.138C99.938 180.608 99.182 179.726 97.49 179.078L95.744 178.394C94.718 177.998 94.088 177.602 94.088 176.666C94.088 175.568 95.042 175.028 96.266 175.028C97.544 175.028 98.534 175.478 99.416 176.18V174.686C98.588 174.11 97.454 173.786 96.248 173.786C94.34 173.786 92.702 174.776 92.702 176.684C92.702 178.43 93.89 179.168 95.186 179.672L96.806 180.302C97.976 180.788 98.57 181.184 98.57 182.156C98.57 183.29 97.634 183.902 96.212 183.902C94.916 183.902 93.764 183.488 92.738 182.606ZM102.716 181.238H108.224V180.752C108.224 178.412 107.108 176.846 104.948 176.846C102.824 176.846 101.384 178.592 101.384 181.076C101.384 183.596 102.932 185.162 105.236 185.162C106.19 185.162 107.018 184.964 107.666 184.46V183.218C106.946 183.758 106.298 183.974 105.398 183.974C103.94 183.974 102.77 183.092 102.716 181.238ZM104.966 177.998C106.262 177.998 106.856 179.006 106.91 180.176H102.788C103.04 178.7 103.904 177.998 104.966 177.998ZM114.509 179.69V180.734C114.167 180.428 113.339 180.086 112.511 180.086C110.801 180.086 109.469 181.094 109.469 182.588C109.469 184.172 110.801 185.144 112.439 185.144C113.375 185.144 114.203 184.73 114.509 184.406V185H115.823V179.582C115.823 177.89 114.707 176.846 112.817 176.846C111.827 176.846 110.873 177.134 110.333 177.512V178.79C110.999 178.358 111.719 178.088 112.601 178.088C113.771 178.088 114.509 178.7 114.509 179.69ZM114.509 182.192V183.02C114.293 183.614 113.501 184.01 112.655 184.01C111.683 184.01 110.747 183.56 110.747 182.588C110.747 181.634 111.683 181.202 112.655 181.202C113.501 181.202 114.293 181.598 114.509 182.192ZM122.236 178.358V176.972C122.092 176.9 121.804 176.846 121.462 176.846C120.58 176.846 119.824 177.368 119.482 178.052V177.008H118.132V185H119.482V179.636C119.752 178.7 120.49 178.142 121.336 178.142C121.678 178.142 122.02 178.214 122.236 178.358ZM123.11 181.004C123.11 183.56 124.802 185.162 126.962 185.162C127.736 185.162 128.546 184.982 129.104 184.496V183.128C128.528 183.704 127.826 183.956 127.052 183.956C125.63 183.956 124.478 182.84 124.478 181.004C124.478 179.168 125.63 178.052 127.052 178.052C127.826 178.052 128.528 178.304 129.104 178.88V177.512C128.546 177.026 127.736 176.846 126.962 176.846C124.802 176.846 123.11 178.448 123.11 181.004ZM130.981 173.3V185H132.331V179.582C132.619 178.718 133.429 178.088 134.365 178.088C135.571 178.088 136.129 178.862 136.129 179.978V185H137.497V179.762C137.497 178.016 136.507 176.846 134.689 176.846C133.663 176.846 132.799 177.386 132.331 178.016V173.3H130.981ZM145.993 185V178.16H147.847V177.008H145.993V174.902H144.643V177.008H142.969V178.16H144.643V185H145.993ZM149.491 173.3V185H150.841V179.582C151.129 178.718 151.939 178.088 152.875 178.088C154.081 178.088 154.639 178.862 154.639 179.978V185H156.007V179.762C156.007 178.016 155.017 176.846 153.199 176.846C152.173 176.846 151.309 177.386 150.841 178.016V173.3H149.491ZM159.054 181.238H164.562V180.752C164.562 178.412 163.446 176.846 161.286 176.846C159.162 176.846 157.722 178.592 157.722 181.076C157.722 183.596 159.27 185.162 161.574 185.162C162.528 185.162 163.356 184.964 164.004 184.46V183.218C163.284 183.758 162.636 183.974 161.736 183.974C160.278 183.974 159.108 183.092 159.054 181.238ZM161.304 177.998C162.6 177.998 163.194 179.006 163.248 180.176H159.126C159.378 178.7 160.242 177.998 161.304 177.998ZM170.482 173.948V185H174.028C177.268 185 179.392 182.84 179.392 179.474C179.392 176.108 177.268 173.948 174.028 173.948H170.482ZM174.01 183.722H171.904V175.208H174.01C176.512 175.208 177.988 176.882 177.988 179.474C177.988 182.066 176.512 183.722 174.01 183.722ZM185.666 179.69V180.734C185.324 180.428 184.496 180.086 183.668 180.086C181.958 180.086 180.626 181.094 180.626 182.588C180.626 184.172 181.958 185.144 183.596 185.144C184.532 185.144 185.36 184.73 185.666 184.406V185H186.98V179.582C186.98 177.89 185.864 176.846 183.974 176.846C182.984 176.846 182.03 177.134 181.49 177.512V178.79C182.156 178.358 182.876 178.088 183.758 178.088C184.928 178.088 185.666 178.7 185.666 179.69ZM185.666 182.192V183.02C185.45 183.614 184.658 184.01 183.812 184.01C182.84 184.01 181.904 183.56 181.904 182.588C181.904 181.634 182.84 181.202 183.812 181.202C184.658 181.202 185.45 181.598 185.666 182.192ZM191.467 185V178.16H193.321V177.008H191.467V174.902H190.117V177.008H188.443V178.16H190.117V185H191.467ZM199.236 179.69V180.734C198.894 180.428 198.066 180.086 197.238 180.086C195.528 180.086 194.196 181.094 194.196 182.588C194.196 184.172 195.528 185.144 197.166 185.144C198.102 185.144 198.93 184.73 199.236 184.406V185H200.55V179.582C200.55 177.89 199.434 176.846 197.544 176.846C196.554 176.846 195.6 177.134 195.06 177.512V178.79C195.726 178.358 196.446 178.088 197.328 178.088C198.498 178.088 199.236 178.7 199.236 179.69ZM199.236 182.192V183.02C199.02 183.614 198.228 184.01 197.382 184.01C196.41 184.01 195.474 183.56 195.474 182.588C195.474 181.634 196.41 181.202 197.382 181.202C198.228 181.202 199.02 181.598 199.236 182.192ZM202.192 173.948V175.208H206.044V185H207.466V175.208H211.318V173.948H202.192ZM216.164 179.69V180.734C215.822 180.428 214.994 180.086 214.166 180.086C212.456 180.086 211.124 181.094 211.124 182.588C211.124 184.172 212.456 185.144 214.094 185.144C215.03 185.144 215.858 184.73 216.164 184.406V185H217.478V179.582C217.478 177.89 216.362 176.846 214.472 176.846C213.482 176.846 212.528 177.134 211.988 177.512V178.79C212.654 178.358 213.374 178.088 214.256 178.088C215.426 178.088 216.164 178.7 216.164 179.69ZM216.164 182.192V183.02C215.948 183.614 215.156 184.01 214.31 184.01C213.338 184.01 212.402 183.56 212.402 182.588C212.402 181.634 213.338 181.202 214.31 181.202C215.156 181.202 215.948 181.598 216.164 182.192ZM221.136 185V184.064C221.532 184.64 222.396 185.162 223.386 185.162C225.726 185.162 226.986 183.272 226.986 181.004C226.986 178.754 225.726 176.846 223.386 176.846C222.396 176.846 221.532 177.368 221.136 177.944V173.3H219.768V185H221.136ZM221.136 182.624V179.384C221.55 178.556 222.342 178.07 223.188 178.07C224.718 178.07 225.618 179.312 225.618 181.004C225.618 182.696 224.718 183.938 223.188 183.938C222.342 183.938 221.55 183.452 221.136 182.624ZM230.171 185V173.3H228.821V185H230.171ZM233.339 181.238H238.847V180.752C238.847 178.412 237.731 176.846 235.571 176.846C233.447 176.846 232.007 178.592 232.007 181.076C232.007 183.596 233.555 185.162 235.859 185.162C236.813 185.162 237.641 184.964 238.289 184.46V183.218C237.569 183.758 236.921 183.974 236.021 183.974C234.563 183.974 233.393 183.092 233.339 181.238ZM235.589 177.998C236.885 177.998 237.479 179.006 237.533 180.176H233.411C233.663 178.7 234.527 177.998 235.589 177.998Z" fill="#BBBBBB"/>
<path fill-rule="evenodd" clip-rule="evenodd" d="M66 171C62.134 171 59 174.134 59 178C59 181.866 62.134 185 66 185C67.5723 185 69.0236 184.482 70.1922 183.606L75.2929 188.707L76.7071 187.293L71.6064 182.192C72.4816 181.024 73 179.572 73 178C73 174.134 69.866 171 66 171ZM61 178C61 175.239 63.2386 173 66 173C68.7614 173 71 175.239 71 178C71 180.761 68.7614 183 66 183C63.2386 183 61 180.761 61 178Z" fill="black"/>
<path d="M43.656 105.896V128H52.008C58.956 128 63.168 123.68 63.168 116.948C63.168 110.216 58.956 105.896 52.008 105.896H43.656ZM51.72 122.996H49.344V110.864H51.72C55.392 110.864 57.444 113.204 57.444 116.948C57.444 120.656 55.392 122.996 51.72 122.996ZM74.1657 118.244V118.82C73.5177 118.352 72.0057 117.92 70.6377 117.92C67.1457 117.92 64.4097 119.936 64.4097 123.068C64.4097 126.488 67.1457 128.288 70.3497 128.288C72.0777 128.288 73.6257 127.712 74.1657 127.172V128H79.6017V117.992C79.6017 113.708 76.8657 111.44 72.0777 111.44C69.7737 111.44 67.6137 111.98 66.2817 112.7V117.236C67.5777 116.48 69.1617 116.084 70.7097 116.084C73.0137 116.084 74.1657 116.984 74.1657 118.244ZM74.1657 122.528V123.464C73.8057 124.112 72.9057 124.544 71.8977 124.544C70.7817 124.544 69.6657 124.076 69.6657 122.96C69.6657 121.88 70.7817 121.412 71.8977 121.412C72.9057 121.412 73.8057 121.844 74.1657 122.528ZM89.918 128V116.192H93.086V111.8H89.918V107.336H84.302V111.8H81.494V116.192H84.302V128H89.918ZM103.627 118.244V118.82C102.979 118.352 101.467 117.92 100.099 117.92C96.6067 117.92 93.8707 119.936 93.8707 123.068C93.8707 126.488 96.6067 128.288 99.8107 128.288C101.539 128.288 103.087 127.712 103.627 127.172V128H109.063V117.992C109.063 113.708 106.327 111.44 101.539 111.44C99.2347 111.44 97.0747 111.98 95.7427 112.7V117.236C97.0387 116.48 98.6227 116.084 100.171 116.084C102.475 116.084 103.627 116.984 103.627 118.244ZM103.627 122.528V123.464C103.267 124.112 102.367 124.544 101.359 124.544C100.243 124.544 99.1267 124.076 99.1267 122.96C99.1267 121.88 100.243 121.412 101.359 121.412C102.367 121.412 103.267 121.844 103.627 122.528ZM111.169 105.896V110.864H117.973V128H123.769V110.864H130.609V105.896H111.169ZM139.697 118.244V118.82C139.049 118.352 137.537 117.92 136.169 117.92C132.677 117.92 129.941 119.936 129.941 123.068C129.941 126.488 132.677 128.288 135.881 128.288C137.609 128.288 139.157 127.712 139.697 127.172V128H145.133V117.992C145.133 113.708 142.397 111.44 137.609 111.44C135.305 111.44 133.145 111.98 131.813 112.7V117.236C133.109 116.48 134.693 116.084 136.241 116.084C138.545 116.084 139.697 116.984 139.697 118.244ZM139.697 122.528V123.464C139.337 124.112 138.437 124.544 137.429 124.544C136.313 124.544 135.197 124.076 135.197 122.96C135.197 121.88 136.313 121.412 137.429 121.412C138.437 121.412 139.337 121.844 139.697 122.528ZM153.684 128V126.704C154.44 127.568 156.024 128.36 157.68 128.36C162.36 128.36 164.916 124.58 164.916 119.9C164.916 115.22 162.36 111.44 157.68 111.44C156.024 111.44 154.44 112.232 153.684 113.096V104.6H148.032V128H153.684ZM153.684 122.024V117.74C154.116 116.876 155.088 116.228 156.168 116.228C158.112 116.228 159.264 117.812 159.264 119.9C159.264 121.988 158.112 123.536 156.168 123.536C155.052 123.536 154.116 122.924 153.684 122.024ZM172.738 128V104.6H167.086V128H172.738ZM180.413 121.196H190.385V119.54C190.385 114.716 187.829 111.44 182.789 111.44C178.325 111.44 174.941 114.932 174.941 120.008C174.941 125.228 178.469 128.36 183.653 128.36C185.993 128.36 187.973 127.856 189.233 126.92V122.636C187.613 123.608 186.281 123.932 184.553 123.932C182.465 123.932 180.881 123.14 180.413 121.196ZM183.005 115.724C184.373 115.724 185.201 116.66 185.345 118.028H180.485C180.881 116.552 181.781 115.724 183.005 115.724Z" fill="black"/>
<path d="M47.296 216.192L49.472 210.176H47.136L44.144 218.208V218.272H48.736V220H50.912V218.272H52.016V216.192H50.912V214.368H48.736V216.192H47.296ZM57.9476 220V210.176H56.6836V220H57.9476ZM62.1654 220V213.92H63.8134V212.896H62.1654V211.024H60.9654V212.896H59.4774V213.92H60.9654V220H62.1654ZM65.8221 216.656H70.7181V216.224C70.7181 214.144 69.7261 212.752 67.8061 212.752C65.9181 212.752 64.6381 214.304 64.6381 216.512C64.6381 218.752 66.0141 220.144 68.0621 220.144C68.9101 220.144 69.6461 219.968 70.2221 219.52V218.416C69.5821 218.896 69.0061 219.088 68.2061 219.088C66.9101 219.088 65.8701 218.304 65.8221 216.656ZM67.8221 213.776C68.9741 213.776 69.5021 214.672 69.5501 215.712H65.8861C66.1101 214.4 66.8781 213.776 67.8221 213.776ZM77.3933 213.888C77.0573 213.216 76.3693 212.752 75.4733 212.752C74.5933 212.752 73.9053 213.168 73.5533 213.728V212.896H72.3533V220H73.5533V215.104C73.7773 214.336 74.4013 213.84 75.1213 213.84C76.0333 213.84 76.4653 214.496 76.4653 215.488V220H77.6653V215.104C77.8893 214.336 78.5133 213.84 79.2333 213.84C80.1453 213.84 80.5773 214.496 80.5773 215.488V220H81.7933V215.296C81.7933 213.76 80.9933 212.752 79.5533 212.752C78.5613 212.752 77.8413 213.248 77.3933 213.888ZM83.406 218.16V219.44C83.934 219.856 84.814 220.144 85.742 220.144C87.23 220.144 88.398 219.392 88.398 218.08C88.398 217.072 87.806 216.448 86.734 216.08L85.646 215.712C84.974 215.472 84.59 215.28 84.59 214.704C84.59 214.096 85.198 213.776 85.934 213.776C86.798 213.776 87.454 214.128 88.046 214.624V213.376C87.47 212.976 86.734 212.752 85.934 212.752C84.526 212.752 83.422 213.504 83.422 214.752C83.422 215.904 84.142 216.416 85.214 216.768L86.19 217.104C86.814 217.312 87.214 217.6 87.214 218.128C87.214 218.832 86.526 219.12 85.742 219.12C84.878 219.12 84.062 218.768 83.406 218.16Z" fill="#444444"/>
<defs>
<clipPath id="clip0_7795:147870">
<rect width="198" height="144" fill="white" transform="translate(280 286)"/>
</clipPath>
</defs>
</svg>
