<svg width="1078" height="916" viewBox="0 0 1078 916" fill="none" xmlns="http://www.w3.org/2000/svg">
<rect width="1078" height="414" fill="white"/>
<rect x="74" y="194" width="810" height="36" rx="12" fill="white"/>
<rect width="48" height="36" transform="translate(74 194)" fill="white"/>
<rect x="86" y="200" width="24" height="24" rx="2" fill="white" stroke="#999999"/>
<path d="M74 229.5H122" stroke="#999999"/>
<rect x="122" y="194" width="188" height="36" fill="white"/>
<path d="M310 229.5L122 229.5" stroke="#999999"/>
<path d="M144.584 217V205.948H141.794V212.032L137.528 205.948H134.828V217H137.618V210.538L142.244 217H144.584ZM150.61 212.122V212.41C150.286 212.176 149.53 211.96 148.846 211.96C147.1 211.96 145.732 212.968 145.732 214.534C145.732 216.244 147.1 217.144 148.702 217.144C149.566 217.144 150.34 216.856 150.61 216.586V217H153.328V211.996C153.328 209.854 151.96 208.72 149.566 208.72C148.414 208.72 147.334 208.99 146.668 209.35V211.618C147.316 211.24 148.108 211.042 148.882 211.042C150.034 211.042 150.61 211.492 150.61 212.122ZM150.61 214.264V214.732C150.43 215.056 149.98 215.272 149.476 215.272C148.918 215.272 148.36 215.038 148.36 214.48C148.36 213.94 148.918 213.706 149.476 213.706C149.98 213.706 150.43 213.922 150.61 214.264ZM161.923 209.692C161.437 209.116 160.717 208.72 159.691 208.72C158.791 208.72 158.017 209.062 157.603 209.566V208.9H154.777V217H157.603V212.068C157.729 211.51 158.161 211.204 158.647 211.204C159.277 211.204 159.565 211.69 159.565 212.374V217H162.373V212.068C162.517 211.51 162.931 211.204 163.417 211.204C164.047 211.204 164.335 211.69 164.335 212.374V217H167.161V211.69C167.161 209.872 166.117 208.72 164.425 208.72C163.237 208.72 162.409 209.188 161.923 209.692ZM170.915 213.598H175.901V212.77C175.901 210.358 174.623 208.72 172.103 208.72C169.871 208.72 168.179 210.466 168.179 213.004C168.179 215.614 169.943 217.18 172.535 217.18C173.705 217.18 174.695 216.928 175.325 216.46V214.318C174.515 214.804 173.849 214.966 172.985 214.966C171.941 214.966 171.149 214.57 170.915 213.598ZM172.211 210.862C172.895 210.862 173.309 211.33 173.381 212.014H170.951C171.149 211.276 171.599 210.862 172.211 210.862Z" fill="black"/>
<rect x="310" y="194" width="198" height="36" fill="white"/>
<path d="M508 229.5L310 229.5" stroke="#999999"/>
<path d="M322.576 213.616V216.28C323.386 216.766 324.718 217.18 326.194 217.18C328.678 217.18 330.712 216.118 330.712 213.724C330.712 212.032 329.794 210.97 327.778 210.34L326.104 209.836C325.528 209.656 325.186 209.458 325.186 208.954C325.186 208.396 325.816 208.162 326.644 208.162C327.904 208.162 329.002 208.576 329.992 209.26V206.596C329.074 206.092 328.012 205.768 326.518 205.768C324.196 205.768 322.342 206.974 322.342 209.17C322.342 211.006 323.368 211.924 325.222 212.464L326.896 212.95C327.49 213.166 327.832 213.346 327.832 213.886C327.832 214.57 327.04 214.768 326.122 214.768C324.88 214.768 323.53 214.264 322.576 213.616ZM335.535 217V211.096H337.119V208.9H335.535V206.668H332.727V208.9H331.323V211.096H332.727V217H335.535ZM342.39 212.122V212.41C342.066 212.176 341.31 211.96 340.626 211.96C338.88 211.96 337.512 212.968 337.512 214.534C337.512 216.244 338.88 217.144 340.482 217.144C341.346 217.144 342.12 216.856 342.39 216.586V217H345.108V211.996C345.108 209.854 343.74 208.72 341.346 208.72C340.194 208.72 339.114 208.99 338.448 209.35V211.618C339.096 211.24 339.888 211.042 340.662 211.042C341.813 211.042 342.39 211.492 342.39 212.122ZM342.39 214.264V214.732C342.21 215.056 341.76 215.272 341.256 215.272C340.698 215.272 340.14 215.038 340.14 214.48C340.14 213.94 340.698 213.706 341.256 213.706C341.76 213.706 342.21 213.922 342.39 214.264ZM350.266 217V211.096H351.85V208.9H350.266V206.668H347.458V208.9H346.054V211.096H347.458V217H350.266ZM360.679 217V208.9H357.853V213.814C357.709 214.372 357.223 214.714 356.701 214.714C355.981 214.714 355.657 214.228 355.657 213.544V208.9H352.849V214.21C352.849 216.01 353.911 217.18 355.693 217.18C356.611 217.18 357.421 216.802 357.853 216.298V217H360.679ZM361.896 214.03V216.406C362.652 216.91 363.84 217.18 364.974 217.18C366.972 217.18 368.466 216.334 368.466 214.606C368.466 213.238 367.764 212.518 366 212.05L365.262 211.834C364.866 211.726 364.632 211.618 364.632 211.312C364.632 210.988 364.956 210.826 365.442 210.826C366.36 210.826 367.224 211.204 367.998 211.762V209.44C367.206 208.954 366.324 208.72 365.172 208.72C363.264 208.72 361.86 209.674 361.86 211.366C361.86 212.824 362.814 213.526 364.308 213.85L364.938 214.012C365.424 214.12 365.676 214.246 365.676 214.57C365.676 214.93 365.316 215.056 364.758 215.056C363.93 215.056 362.67 214.66 361.896 214.03Z" fill="black"/>
<rect x="508" y="194" width="188" height="36" fill="white"/>
<path d="M696 229.5L508 229.5" stroke="#999999"/>
<path d="M520.576 213.616V216.28C521.386 216.766 522.718 217.18 524.194 217.18C526.678 217.18 528.712 216.118 528.712 213.724C528.712 212.032 527.794 210.97 525.778 210.34L524.104 209.836C523.528 209.656 523.186 209.458 523.186 208.954C523.186 208.396 523.816 208.162 524.644 208.162C525.904 208.162 527.002 208.576 527.992 209.26V206.596C527.074 206.092 526.012 205.768 524.518 205.768C522.196 205.768 520.342 206.974 520.342 209.17C520.342 211.006 521.368 211.924 523.222 212.464L524.896 212.95C525.49 213.166 525.832 213.346 525.832 213.886C525.832 214.57 525.04 214.768 524.122 214.768C522.88 214.768 521.53 214.264 520.576 213.616ZM532.271 213.598H537.257V212.77C537.257 210.358 535.979 208.72 533.459 208.72C531.227 208.72 529.535 210.466 529.535 213.004C529.535 215.614 531.299 217.18 533.891 217.18C535.061 217.18 536.051 216.928 536.681 216.46V214.318C535.871 214.804 535.205 214.966 534.341 214.966C533.297 214.966 532.505 214.57 532.271 213.598ZM533.567 210.862C534.251 210.862 534.665 211.33 534.737 212.014H532.307C532.505 211.276 532.955 210.862 533.567 210.862ZM543.823 211.582V208.864C543.697 208.792 543.409 208.72 543.049 208.72C542.239 208.72 541.609 209.08 541.213 209.62V208.9H538.387V217H541.213V212.248C541.357 211.672 541.879 211.33 542.653 211.33C543.103 211.33 543.481 211.402 543.823 211.582ZM547.985 206.704C547.985 205.768 547.247 205.174 546.383 205.174C545.519 205.174 544.781 205.768 544.781 206.704C544.781 207.622 545.519 208.216 546.383 208.216C547.247 208.216 547.985 207.622 547.985 206.704ZM547.787 217V208.9H544.961V217H547.787ZM553.766 212.122V212.41C553.442 212.176 552.686 211.96 552.002 211.96C550.256 211.96 548.888 212.968 548.888 214.534C548.888 216.244 550.256 217.144 551.858 217.144C552.722 217.144 553.496 216.856 553.766 216.586V217H556.484V211.996C556.484 209.854 555.116 208.72 552.722 208.72C551.57 208.72 550.49 208.99 549.824 209.35V211.618C550.472 211.24 551.264 211.042 552.038 211.042C553.19 211.042 553.766 211.492 553.766 212.122ZM553.766 214.264V214.732C553.586 215.056 553.136 215.272 552.632 215.272C552.074 215.272 551.516 215.038 551.516 214.48C551.516 213.94 552.074 213.706 552.632 213.706C553.136 213.706 553.586 213.922 553.766 214.264ZM560.76 217V205.3H557.934V217H560.76Z" fill="black"/>
<rect x="696" y="194" width="188" height="36" fill="white"/>
<path d="M884 229.5L696 229.5" stroke="#999999"/>
<path d="M711.69 213.562H713.67C716.064 213.562 717.684 212.212 717.684 209.764C717.684 207.298 716.064 205.948 713.67 205.948H708.828V217H711.69V213.562ZM714.876 209.764C714.876 210.592 714.408 211.15 713.364 211.15H711.69V208.378H713.364C714.408 208.378 714.876 208.918 714.876 209.764ZM726.395 212.95C726.395 210.448 724.721 208.72 722.255 208.72C719.807 208.72 718.115 210.448 718.115 212.95C718.115 215.452 719.807 217.18 722.255 217.18C724.721 217.18 726.395 215.452 726.395 212.95ZM723.623 212.95C723.623 214.066 723.137 214.84 722.255 214.84C721.391 214.84 720.905 214.066 720.905 212.95C720.905 211.834 721.391 211.042 722.255 211.042C723.137 211.042 723.623 211.834 723.623 212.95ZM734.952 213.292L733.746 208.9H731.946L730.722 213.292L729.444 208.9H726.636L729.246 217H731.64L732.792 212.896L733.944 217H736.338L738.948 208.9H736.248L734.952 213.292ZM741.91 213.598H746.896V212.77C746.896 210.358 745.618 208.72 743.098 208.72C740.866 208.72 739.174 210.466 739.174 213.004C739.174 215.614 740.938 217.18 743.53 217.18C744.7 217.18 745.69 216.928 746.32 216.46V214.318C745.51 214.804 744.844 214.966 743.98 214.966C742.936 214.966 742.144 214.57 741.91 213.598ZM743.206 210.862C743.89 210.862 744.304 211.33 744.376 212.014H741.946C742.144 211.276 742.594 210.862 743.206 210.862ZM753.462 211.582V208.864C753.336 208.792 753.048 208.72 752.688 208.72C751.878 208.72 751.248 209.08 750.852 209.62V208.9H748.026V217H750.852V212.248C750.996 211.672 751.518 211.33 752.292 211.33C752.742 211.33 753.12 211.402 753.462 211.582Z" fill="black"/>
<rect x="74" y="230" width="810" height="144" rx="12" fill="white"/>
<rect width="48" height="36" transform="translate(74 230)" fill="white"/>
<rect x="86" y="236" width="24" height="24" rx="2" fill="white" stroke="#999999"/>
<rect width="48" height="36" transform="translate(74 266)" fill="white"/>
<rect x="86" y="272" width="24" height="24" rx="2" fill="white" stroke="#999999"/>
<rect width="48" height="36" transform="translate(74 302)" fill="white"/>
<rect x="86" y="308" width="24" height="24" rx="2" fill="white" stroke="#999999"/>
<rect width="48" height="36" transform="translate(74 338)" fill="white"/>
<rect x="86" y="344" width="24" height="24" rx="2" fill="white" stroke="#999999"/>
<rect x="122" y="230" width="188" height="36" fill="white"/>
<path d="M144.89 241.948H141.992V246.142H137.726V241.948H134.828V253H137.726V248.626H141.992V253H144.89V241.948ZM149.397 249.562H151.377C153.771 249.562 155.391 248.212 155.391 245.764C155.391 243.298 153.771 241.948 151.377 241.948H146.535V253H149.397V249.562ZM152.583 245.764C152.583 246.592 152.115 247.15 151.071 247.15H149.397V244.378H151.071C152.115 244.378 152.583 244.918 152.583 245.764ZM164.527 241.948H156.625V253H164.527V250.498H159.469V248.59H164.095V246.16H159.469V244.432H164.527V241.948ZM165.491 253.756V255.898H171.629V253.756H165.491ZM172.562 249.616V252.28C173.372 252.766 174.704 253.18 176.18 253.18C178.664 253.18 180.698 252.118 180.698 249.724C180.698 248.032 179.78 246.97 177.764 246.34L176.09 245.836C175.514 245.656 175.172 245.458 175.172 244.954C175.172 244.396 175.802 244.162 176.63 244.162C177.89 244.162 178.988 244.576 179.978 245.26V242.596C179.06 242.092 177.998 241.768 176.504 241.768C174.182 241.768 172.328 242.974 172.328 245.17C172.328 247.006 173.354 247.924 175.208 248.464L176.882 248.95C177.476 249.166 177.818 249.346 177.818 249.886C177.818 250.57 177.026 250.768 176.108 250.768C174.866 250.768 173.516 250.264 172.562 249.616ZM187.194 250.606C185.52 250.606 184.386 249.382 184.386 247.51C184.386 245.602 185.628 244.432 187.392 244.432C188.742 244.432 189.75 244.828 190.596 245.44V242.632C189.786 242.11 188.616 241.768 187.392 241.768C183.882 241.768 181.488 244.036 181.488 247.51C181.488 250.84 183.648 253.18 187.104 253.18C188.634 253.18 190.056 252.73 191.172 251.704V246.826H187.014V249.13H188.616V250.21C188.256 250.48 187.77 250.606 187.194 250.606ZM195.523 253V241.948H192.625V253H195.523ZM201.048 253.18C203.37 253.18 205.224 251.974 205.224 249.94C205.224 248.644 204.432 247.726 203.442 247.384C204.324 246.952 204.882 246.07 204.882 244.99C204.882 242.902 203.082 241.768 201.048 241.768C199.014 241.768 197.214 242.902 197.214 244.99C197.214 246.07 197.754 246.952 198.654 247.384C197.646 247.726 196.854 248.644 196.854 249.94C196.854 251.974 198.726 253.18 201.048 253.18ZM201.048 246.196C200.346 246.196 199.788 245.746 199.788 245.08C199.788 244.378 200.346 243.928 201.048 243.928C201.75 243.928 202.308 244.378 202.308 245.08C202.308 245.746 201.75 246.196 201.048 246.196ZM201.048 250.948C200.238 250.948 199.626 250.462 199.626 249.724C199.626 248.968 200.238 248.5 201.048 248.5C201.858 248.5 202.47 248.968 202.47 249.724C202.47 250.462 201.858 250.948 201.048 250.948ZM210.381 253.18C212.811 253.18 214.593 251.434 214.593 249.076C214.593 247.042 213.171 245.404 211.011 245.242C210.921 245.242 210.813 245.26 210.741 245.278L212.631 241.948H209.553L207.231 245.962C206.457 247.276 206.187 248.14 206.187 249.076C206.187 251.434 207.969 253.18 210.381 253.18ZM211.983 249.076C211.983 249.994 211.317 250.678 210.381 250.678C209.499 250.678 208.797 249.994 208.797 249.076C208.797 248.176 209.499 247.456 210.381 247.456C211.317 247.456 211.983 248.176 211.983 249.076ZM219.733 253.18C222.451 253.18 224.053 250.84 224.053 247.474C224.053 244.108 222.451 241.768 219.733 241.768C217.015 241.768 215.413 244.108 215.413 247.474C215.413 250.84 217.015 253.18 219.733 253.18ZM219.733 244.306C220.885 244.306 221.245 245.764 221.245 247.474C221.245 249.184 220.885 250.642 219.733 250.642C218.563 250.642 218.221 249.184 218.221 247.474C218.221 245.764 218.563 244.306 219.733 244.306ZM229.084 253.18C231.802 253.18 233.404 250.84 233.404 247.474C233.404 244.108 231.802 241.768 229.084 241.768C226.366 241.768 224.764 244.108 224.764 247.474C224.764 250.84 226.366 253.18 229.084 253.18ZM229.084 244.306C230.236 244.306 230.596 245.764 230.596 247.474C230.596 249.184 230.236 250.642 229.084 250.642C227.914 250.642 227.572 249.184 227.572 247.474C227.572 245.764 227.914 244.306 229.084 244.306Z" fill="black"/>
<rect x="122" y="266" width="188" height="36" fill="white"/>
<path d="M144.89 277.948H141.992V282.142H137.726V277.948H134.828V289H137.726V284.626H141.992V289H144.89V277.948ZM149.397 285.562H151.377C153.771 285.562 155.391 284.212 155.391 281.764C155.391 279.298 153.771 277.948 151.377 277.948H146.535V289H149.397V285.562ZM152.583 281.764C152.583 282.592 152.115 283.15 151.071 283.15H149.397V280.378H151.071C152.115 280.378 152.583 280.918 152.583 281.764ZM164.527 277.948H156.625V289H164.527V286.498H159.469V284.59H164.095V282.16H159.469V280.432H164.527V277.948ZM165.491 289.756V291.898H171.629V289.756H165.491ZM179.276 277.948H176.324L172.112 289H174.974L175.748 286.858H179.762L180.554 289H183.488L179.276 277.948ZM176.63 284.482L177.764 281.368L178.898 284.482H176.63ZM187.313 285.562H189.293C191.687 285.562 193.307 284.212 193.307 281.764C193.307 279.298 191.687 277.948 189.293 277.948H184.451V289H187.313V285.562ZM190.499 281.764C190.499 282.592 190.031 283.15 188.987 283.15H187.313V280.378H188.987C190.031 280.378 190.499 280.918 190.499 281.764ZM204.909 283.474C204.909 280.162 202.695 277.768 199.491 277.768C196.305 277.768 194.109 280.162 194.109 283.474C194.109 286.768 196.305 289.18 199.491 289.18C202.695 289.18 204.909 286.768 204.909 283.474ZM201.993 283.474C201.993 285.382 200.985 286.642 199.491 286.642C197.997 286.642 197.025 285.382 197.025 283.474C197.025 281.566 197.997 280.306 199.491 280.306C200.985 280.306 201.993 281.566 201.993 283.474ZM206.107 277.948V289H213.955V286.498H209.005V277.948H206.107ZM215.283 277.948V289H223.131V286.498H218.181V277.948H215.283ZM234.44 283.474C234.44 280.162 232.226 277.768 229.022 277.768C225.836 277.768 223.64 280.162 223.64 283.474C223.64 286.768 225.836 289.18 229.022 289.18C232.226 289.18 234.44 286.768 234.44 283.474ZM231.524 283.474C231.524 285.382 230.516 286.642 229.022 286.642C227.528 286.642 226.556 285.382 226.556 283.474C226.556 281.566 227.528 280.306 229.022 280.306C230.516 280.306 231.524 281.566 231.524 283.474ZM239.491 289.18C241.921 289.18 243.703 287.434 243.703 285.076C243.703 283.042 242.281 281.404 240.121 281.242C240.031 281.242 239.923 281.26 239.851 281.278L241.741 277.948H238.663L236.341 281.962C235.567 283.276 235.297 284.14 235.297 285.076C235.297 287.434 237.079 289.18 239.491 289.18ZM241.093 285.076C241.093 285.994 240.427 286.678 239.491 286.678C238.609 286.678 237.907 285.994 237.907 285.076C237.907 284.176 238.609 283.456 239.491 283.456C240.427 283.456 241.093 284.176 241.093 285.076ZM248.59 281.746C248.248 281.746 247.87 281.782 247.654 281.836V280.432H252.118V277.948H245.404V284.482C246.106 284.212 247.096 284.05 247.978 284.05C249.166 284.05 250.066 284.518 250.066 285.472C250.066 286.408 249.13 286.84 248.086 286.84C246.934 286.84 245.8 286.336 245.026 285.652V288.262C245.818 288.784 246.898 289.18 248.32 289.18C250.858 289.18 252.748 287.722 252.748 285.436C252.748 283.132 250.948 281.746 248.59 281.746ZM258.194 289.18C260.912 289.18 262.514 286.84 262.514 283.474C262.514 280.108 260.912 277.768 258.194 277.768C255.476 277.768 253.874 280.108 253.874 283.474C253.874 286.84 255.476 289.18 258.194 289.18ZM258.194 280.306C259.346 280.306 259.706 281.764 259.706 283.474C259.706 285.184 259.346 286.642 258.194 286.642C257.024 286.642 256.682 285.184 256.682 283.474C256.682 281.764 257.024 280.306 258.194 280.306ZM267.545 289.18C270.263 289.18 271.865 286.84 271.865 283.474C271.865 280.108 270.263 277.768 267.545 277.768C264.827 277.768 263.225 280.108 263.225 283.474C263.225 286.84 264.827 289.18 267.545 289.18ZM267.545 280.306C268.697 280.306 269.057 281.764 269.057 283.474C269.057 285.184 268.697 286.642 267.545 286.642C266.375 286.642 266.033 285.184 266.033 283.474C266.033 281.764 266.375 280.306 267.545 280.306Z" fill="black"/>
<rect x="122" y="302" width="188" height="36" fill="white"/>
<path d="M144.584 325V313.948H141.794V320.032L137.528 313.948H134.828V325H137.618V318.538L142.244 325H144.584ZM154.012 320.95C154.012 318.448 152.338 316.72 149.872 316.72C147.424 316.72 145.732 318.448 145.732 320.95C145.732 323.452 147.424 325.18 149.872 325.18C152.338 325.18 154.012 323.452 154.012 320.95ZM151.24 320.95C151.24 322.066 150.754 322.84 149.872 322.84C149.008 322.84 148.522 322.066 148.522 320.95C148.522 319.834 149.008 319.042 149.872 319.042C150.754 319.042 151.24 319.834 151.24 320.95ZM158.785 325V319.096H160.369V316.9H158.785V314.668H155.977V316.9H154.573V319.096H155.977V325H158.785ZM164.72 322.03V324.406C165.476 324.91 166.664 325.18 167.798 325.18C169.796 325.18 171.29 324.334 171.29 322.606C171.29 321.238 170.588 320.518 168.824 320.05L168.086 319.834C167.69 319.726 167.456 319.618 167.456 319.312C167.456 318.988 167.78 318.826 168.266 318.826C169.184 318.826 170.048 319.204 170.822 319.762V317.44C170.03 316.954 169.148 316.72 167.996 316.72C166.088 316.72 164.684 317.674 164.684 319.366C164.684 320.824 165.638 321.526 167.132 321.85L167.762 322.012C168.248 322.12 168.5 322.246 168.5 322.57C168.5 322.93 168.14 323.056 167.582 323.056C166.754 323.056 165.494 322.66 164.72 322.03ZM174.765 321.598H179.751V320.77C179.751 318.358 178.473 316.72 175.953 316.72C173.721 316.72 172.029 318.466 172.029 321.004C172.029 323.614 173.793 325.18 176.385 325.18C177.555 325.18 178.545 324.928 179.175 324.46V322.318C178.365 322.804 177.699 322.966 176.835 322.966C175.791 322.966 174.999 322.57 174.765 321.598ZM176.061 318.862C176.745 318.862 177.159 319.33 177.231 320.014H174.801C174.999 319.276 175.449 318.862 176.061 318.862ZM184.59 325V319.096H186.174V316.9H184.59V314.668H181.782V316.9H180.378V319.096H181.782V325H184.59Z" fill="black"/>
<rect x="122" y="338" width="188" height="36" fill="white"/>
<path d="M144.89 349.948H141.992V354.142H137.726V349.948H134.828V361H137.726V356.626H141.992V361H144.89V349.948ZM149.397 357.562H151.377C153.771 357.562 155.391 356.212 155.391 353.764C155.391 351.298 153.771 349.948 151.377 349.948H146.535V361H149.397V357.562ZM152.583 353.764C152.583 354.592 152.115 355.15 151.071 355.15H149.397V352.378H151.071C152.115 352.378 152.583 352.918 152.583 353.764ZM164.527 349.948H156.625V361H164.527V358.498H159.469V356.59H164.095V354.16H159.469V352.432H164.527V349.948ZM165.491 361.756V363.898H171.629V361.756H165.491ZM172.562 357.616V360.28C173.372 360.766 174.704 361.18 176.18 361.18C178.664 361.18 180.698 360.118 180.698 357.724C180.698 356.032 179.78 354.97 177.764 354.34L176.09 353.836C175.514 353.656 175.172 353.458 175.172 352.954C175.172 352.396 175.802 352.162 176.63 352.162C177.89 352.162 178.988 352.576 179.978 353.26V350.596C179.06 350.092 177.998 349.768 176.504 349.768C174.182 349.768 172.328 350.974 172.328 353.17C172.328 355.006 173.354 355.924 175.208 356.464L176.882 356.95C177.476 357.166 177.818 357.346 177.818 357.886C177.818 358.57 177.026 358.768 176.108 358.768C174.866 358.768 173.516 358.264 172.562 357.616ZM186.583 361.18C189.499 361.18 191.389 359.524 191.389 356.5V349.948H188.509V356.23C188.509 357.796 187.771 358.606 186.583 358.606C185.377 358.606 184.639 357.796 184.639 356.23V349.948H181.759V356.482C181.759 359.524 183.667 361.18 186.583 361.18ZM195.786 357.562H197.766C200.16 357.562 201.78 356.212 201.78 353.764C201.78 351.298 200.16 349.948 197.766 349.948H192.924V361H195.786V357.562ZM198.972 353.764C198.972 354.592 198.504 355.15 197.46 355.15H195.786V352.378H197.46C198.504 352.378 198.972 352.918 198.972 353.764ZM210.916 349.948H203.014V361H210.916V358.498H205.858V356.59H210.484V354.16H205.858V352.432H210.916V349.948ZM215.21 357.346H216.218L218.522 361H221.726L219.134 357.04C220.484 356.536 221.33 355.384 221.33 353.71C221.33 351.298 219.692 349.948 217.316 349.948H212.348V361H215.21V357.346ZM215.21 355.042V352.378H217.01C218.036 352.378 218.504 352.9 218.504 353.71C218.504 354.52 218.036 355.042 217.01 355.042H215.21ZM222.683 349.948V361H226.859C230.333 361 232.439 358.84 232.439 355.474C232.439 352.108 230.333 349.948 226.859 349.948H222.683ZM226.715 358.498H225.527V352.432H226.715C228.551 352.432 229.577 353.602 229.577 355.474C229.577 357.328 228.551 358.498 226.715 358.498ZM244.108 355.474C244.108 352.162 241.894 349.768 238.69 349.768C235.504 349.768 233.308 352.162 233.308 355.474C233.308 358.768 235.504 361.18 238.69 361.18C241.894 361.18 244.108 358.768 244.108 355.474ZM241.192 355.474C241.192 357.382 240.184 358.642 238.69 358.642C237.196 358.642 236.224 357.382 236.224 355.474C236.224 353.566 237.196 352.306 238.69 352.306C240.184 352.306 241.192 353.566 241.192 355.474ZM250.977 358.624H251.049L253.875 354.664V361H256.719V349.948H254.055L251.013 354.448L247.989 349.948H245.307V361H248.133V354.664L250.977 358.624ZM266.269 349.948H258.367V361H266.269V358.498H261.211V356.59H265.837V354.16H261.211V352.432H266.269V349.948Z" fill="black"/>
<g clip-path="url(#clip0_2_64)">
<path d="M328 253C330.761 253 333 250.761 333 248C333 245.239 330.761 243 328 243C325.239 243 323 245.239 323 248C323 250.761 325.239 253 328 253Z" fill="#17EBA0" stroke="#17EBA0"/>
<rect x="334" y="230" width="176" height="36" fill="white"/>
<path d="M355.9 253V241.948H354.55V250.354L348.664 241.948H347.314V253H348.682V244.216L354.856 253H355.9ZM365.189 249.004C365.189 246.556 363.695 244.846 361.517 244.846C359.321 244.846 357.845 246.556 357.845 249.004C357.845 251.452 359.321 253.162 361.517 253.162C363.695 253.162 365.189 251.452 365.189 249.004ZM363.821 249.004C363.821 250.75 362.957 251.974 361.517 251.974C360.077 251.974 359.213 250.75 359.213 249.004C359.213 247.258 360.077 246.034 361.517 246.034C362.957 246.034 363.821 247.258 363.821 249.004ZM371.121 246.358V244.972C370.977 244.9 370.689 244.846 370.347 244.846C369.465 244.846 368.709 245.368 368.367 246.052V245.008H367.017V253H368.367V247.636C368.637 246.7 369.375 246.142 370.221 246.142C370.563 246.142 370.905 246.214 371.121 246.358ZM378.47 246.124C378.092 245.368 377.318 244.846 376.31 244.846C375.32 244.846 374.546 245.314 374.15 245.944V245.008H372.8V253H374.15V247.492C374.402 246.628 375.104 246.07 375.914 246.07C376.94 246.07 377.426 246.808 377.426 247.924V253H378.776V247.492C379.028 246.628 379.73 246.07 380.54 246.07C381.566 246.07 382.052 246.808 382.052 247.924V253H383.42V247.708C383.42 245.98 382.52 244.846 380.9 244.846C379.784 244.846 378.974 245.404 378.47 246.124ZM390.148 247.69V248.734C389.806 248.428 388.978 248.086 388.15 248.086C386.44 248.086 385.108 249.094 385.108 250.588C385.108 252.172 386.44 253.144 388.078 253.144C389.014 253.144 389.842 252.73 390.148 252.406V253H391.462V247.582C391.462 245.89 390.346 244.846 388.456 244.846C387.466 244.846 386.512 245.134 385.972 245.512V246.79C386.638 246.358 387.358 246.088 388.24 246.088C389.41 246.088 390.148 246.7 390.148 247.69ZM390.148 250.192V251.02C389.932 251.614 389.14 252.01 388.294 252.01C387.322 252.01 386.386 251.56 386.386 250.588C386.386 249.634 387.322 249.202 388.294 249.202C389.14 249.202 389.932 249.598 390.148 250.192ZM395.12 253V241.3H393.77V253H395.12Z" fill="#444444"/>
<path fill-rule="evenodd" clip-rule="evenodd" d="M328 279L333 288H323L328 279Z" fill="#FFBC44" stroke="#FFBC44" stroke-linejoin="round"/>
<rect x="334" y="266" width="176" height="36" fill="white"/>
<path d="M353.488 277.948H352.354L350.014 286.732L347.746 277.948H346.342L349.276 289H350.554L352.912 280.378L355.234 289H356.53L359.464 277.948H358.096L355.828 286.732L353.488 277.948ZM364.941 283.69V284.734C364.599 284.428 363.771 284.086 362.943 284.086C361.233 284.086 359.901 285.094 359.901 286.588C359.901 288.172 361.233 289.144 362.871 289.144C363.807 289.144 364.635 288.73 364.941 288.406V289H366.255V283.582C366.255 281.89 365.139 280.846 363.249 280.846C362.259 280.846 361.305 281.134 360.765 281.512V282.79C361.431 282.358 362.151 282.088 363.033 282.088C364.203 282.088 364.941 282.7 364.941 283.69ZM364.941 286.192V287.02C364.725 287.614 363.933 288.01 363.087 288.01C362.115 288.01 361.179 287.56 361.179 286.588C361.179 285.634 362.115 285.202 363.087 285.202C363.933 285.202 364.725 285.598 364.941 286.192ZM372.667 282.358V280.972C372.523 280.9 372.235 280.846 371.893 280.846C371.011 280.846 370.255 281.368 369.913 282.052V281.008H368.563V289H369.913V283.636C370.183 282.7 370.921 282.142 371.767 282.142C372.109 282.142 372.451 282.214 372.667 282.358ZM374.347 281.008V289H375.697V283.582C375.985 282.718 376.795 282.088 377.731 282.088C378.937 282.088 379.495 282.862 379.495 283.978V289H380.863V283.762C380.863 282.016 379.873 280.846 378.055 280.846C377.029 280.846 376.165 281.386 375.697 282.016V281.008H374.347ZM384.701 278.596C384.701 278.11 384.305 277.732 383.819 277.732C383.351 277.732 382.955 278.11 382.955 278.596C382.955 279.064 383.351 279.46 383.819 279.46C384.305 279.46 384.701 279.064 384.701 278.596ZM384.503 289V281.008H383.153V289H384.503ZM386.915 281.008V289H388.265V283.582C388.553 282.718 389.363 282.088 390.299 282.088C391.505 282.088 392.063 282.862 392.063 283.978V289H393.431V283.762C393.431 282.016 392.441 280.846 390.623 280.846C389.597 280.846 388.733 281.386 388.265 282.016V281.008H386.915ZM400.942 287.938V288.46C400.942 290.17 399.826 291.016 398.404 291.016C397.468 291.016 396.622 290.764 395.83 290.026V291.52C396.442 291.952 397.378 292.24 398.404 292.24C400.312 292.24 402.31 291.16 402.31 288.37V281.008H400.942V281.908C400.546 281.35 399.7 280.846 398.71 280.846C396.37 280.846 395.146 282.79 395.146 284.932C395.146 287.074 396.37 289.018 398.71 289.018C399.7 289.018 400.546 288.496 400.942 287.938ZM400.942 283.294V286.552C400.528 287.308 399.772 287.794 398.908 287.794C397.396 287.794 396.514 286.588 396.514 284.932C396.514 283.258 397.396 282.052 398.908 282.052C399.772 282.052 400.528 282.538 400.942 283.294Z" fill="#444444"/>
<path d="M332 315H324C323.448 315 323 315.448 323 316V324C323 324.552 323.448 325 324 325H332C332.552 325 333 324.552 333 324V316C333 315.448 332.552 315 332 315Z" fill="#CCCCCC" stroke="#CCCCCC"/>
<rect x="334" y="302" width="176" height="36" fill="white"/>
<path d="M351.454 325.162C353.974 325.162 355.792 323.65 355.792 320.626V313.948H354.37V320.446C354.37 322.804 353.236 323.902 351.454 323.902C349.672 323.902 348.538 322.804 348.538 320.446V313.948H347.134V320.608C347.134 323.65 348.952 325.162 351.454 325.162ZM358.14 317.008V325H359.49V319.582C359.778 318.718 360.588 318.088 361.524 318.088C362.73 318.088 363.288 318.862 363.288 319.978V325H364.656V319.762C364.656 318.016 363.666 316.846 361.848 316.846C360.822 316.846 359.958 317.386 359.49 318.016V317.008H358.14ZM373.66 325L369.664 320.662L373.588 317.008H371.842L368.296 320.374V313.3H366.946V325H368.296V321.04L371.986 325H373.66ZM374.962 317.008V325H376.312V319.582C376.6 318.718 377.41 318.088 378.346 318.088C379.552 318.088 380.11 318.862 380.11 319.978V325H381.478V319.762C381.478 318.016 380.488 316.846 378.67 316.846C377.644 316.846 376.78 317.386 376.312 318.016V317.008H374.962ZM390.537 321.004C390.537 318.556 389.043 316.846 386.865 316.846C384.669 316.846 383.193 318.556 383.193 321.004C383.193 323.452 384.669 325.162 386.865 325.162C389.043 325.162 390.537 323.452 390.537 321.004ZM389.169 321.004C389.169 322.75 388.305 323.974 386.865 323.974C385.425 323.974 384.561 322.75 384.561 321.004C384.561 319.258 385.425 318.034 386.865 318.034C388.305 318.034 389.169 319.258 389.169 321.004ZM399.078 323.11L397.44 317.008H396.234L394.596 323.11L392.832 317.008H391.482L393.84 325H395.154L396.828 318.934L398.484 325H399.798L402.156 317.008H400.842L399.078 323.11ZM403.685 317.008V325H405.035V319.582C405.323 318.718 406.133 318.088 407.069 318.088C408.275 318.088 408.833 318.862 408.833 319.978V325H410.201V319.762C410.201 318.016 409.211 316.846 407.393 316.846C406.367 316.846 405.503 317.386 405.035 318.016V317.008H403.685Z" fill="#444444"/>
<path fill-rule="evenodd" clip-rule="evenodd" d="M328.712 351.263C328.319 350.87 327.683 350.867 327.288 351.263L323.263 355.288C322.87 355.681 322.867 356.317 323.263 356.712L327.288 360.737C327.681 361.13 328.316 361.133 328.712 360.737L332.737 356.712C333.13 356.319 333.133 355.683 332.737 355.288L328.712 351.263Z" fill="#FC5A5A" stroke="#FC5A5A"/>
<rect x="334" y="338" width="176" height="36" fill="white"/>
<path d="M346.666 355.474C346.666 358.93 348.898 361.162 351.85 361.162C353.128 361.162 354.1 360.802 354.82 360.208V358.714C353.92 359.524 353.002 359.884 351.868 359.884C349.636 359.884 348.088 358.138 348.088 355.474C348.088 352.81 349.636 351.064 351.868 351.064C353.002 351.064 353.92 351.406 354.82 352.234V350.74C354.1 350.146 353.128 349.786 351.85 349.786C348.898 349.786 346.666 352.018 346.666 355.474ZM361.031 354.358V352.972C360.887 352.9 360.599 352.846 360.257 352.846C359.375 352.846 358.619 353.368 358.277 354.052V353.008H356.927V361H358.277V355.636C358.547 354.7 359.285 354.142 360.131 354.142C360.473 354.142 360.815 354.214 361.031 354.358ZM364.258 350.596C364.258 350.11 363.862 349.732 363.376 349.732C362.908 349.732 362.512 350.11 362.512 350.596C362.512 351.064 362.908 351.46 363.376 351.46C363.862 351.46 364.258 351.064 364.258 350.596ZM364.06 361V353.008H362.71V361H364.06ZM368.704 361V354.16H370.558V353.008H368.704V350.902H367.354V353.008H365.68V354.16H367.354V361H368.704ZM373.75 350.596C373.75 350.11 373.354 349.732 372.868 349.732C372.4 349.732 372.004 350.11 372.004 350.596C372.004 351.064 372.4 351.46 372.868 351.46C373.354 351.46 373.75 351.064 373.75 350.596ZM373.552 361V353.008H372.202V361H373.552ZM375.388 357.004C375.388 359.56 377.08 361.162 379.24 361.162C380.014 361.162 380.824 360.982 381.382 360.496V359.128C380.806 359.704 380.104 359.956 379.33 359.956C377.908 359.956 376.756 358.84 376.756 357.004C376.756 355.168 377.908 354.052 379.33 354.052C380.104 354.052 380.806 354.304 381.382 354.88V353.512C380.824 353.026 380.014 352.846 379.24 352.846C377.08 352.846 375.388 354.448 375.388 357.004ZM387.74 355.69V356.734C387.398 356.428 386.57 356.086 385.742 356.086C384.032 356.086 382.7 357.094 382.7 358.588C382.7 360.172 384.032 361.144 385.67 361.144C386.606 361.144 387.434 360.73 387.74 360.406V361H389.054V355.582C389.054 353.89 387.938 352.846 386.048 352.846C385.058 352.846 384.104 353.134 383.564 353.512V354.79C384.23 354.358 384.95 354.088 385.832 354.088C387.002 354.088 387.74 354.7 387.74 355.69ZM387.74 358.192V359.02C387.524 359.614 386.732 360.01 385.886 360.01C384.914 360.01 383.978 359.56 383.978 358.588C383.978 357.634 384.914 357.202 385.886 357.202C386.732 357.202 387.524 357.598 387.74 358.192ZM392.712 361V349.3H391.362V361H392.712Z" fill="#444444"/>
</g>
<rect x="508" y="230" width="188" height="36" fill="white"/>
<path d="M522.736 248.32H524.698L527.866 253H529.486L526.21 248.266C527.956 248.014 529.036 246.988 529.036 245.152C529.036 243.064 527.596 241.948 525.364 241.948H521.314V253H522.736V248.32ZM522.736 247.114V243.19H525.328C526.786 243.19 527.632 243.928 527.632 245.152C527.632 246.376 526.786 247.114 525.328 247.114H522.736ZM530.705 250.606V252.136C531.461 252.73 532.685 253.162 534.179 253.162C536.321 253.162 537.905 252.028 537.905 250.138C537.905 248.608 537.149 247.726 535.457 247.078L533.711 246.394C532.685 245.998 532.055 245.602 532.055 244.666C532.055 243.568 533.009 243.028 534.233 243.028C535.511 243.028 536.501 243.478 537.383 244.18V242.686C536.555 242.11 535.421 241.786 534.215 241.786C532.307 241.786 530.669 242.776 530.669 244.684C530.669 246.43 531.857 247.168 533.153 247.672L534.773 248.302C535.943 248.788 536.537 249.184 536.537 250.156C536.537 251.29 535.601 251.902 534.179 251.902C532.883 251.902 531.731 251.488 530.705 250.606ZM541.369 248.32H543.331L546.499 253H548.119L544.843 248.266C546.589 248.014 547.669 246.988 547.669 245.152C547.669 243.064 546.229 241.948 543.997 241.948H539.947V253H541.369V248.32ZM541.369 247.114V243.19H543.961C545.419 243.19 546.265 243.928 546.265 245.152C546.265 246.376 545.419 247.114 543.961 247.114H541.369ZM555.062 250.534H555.134L558.878 244.504V253H560.264V241.948H559.022L555.116 248.302L551.192 241.948H549.878V253H551.264V244.504L555.062 250.534ZM566.216 253H567.548L571.814 241.948H570.374L566.9 251.128L563.444 241.948H561.95L566.216 253ZM578.003 247.348L581.765 241.948H580.199L577.211 246.25L574.259 241.948H572.639L576.401 247.384L572.495 253H574.061L577.175 248.5L580.307 253H581.927L578.003 247.348ZM587.663 253.162C590.183 253.162 592.001 251.65 592.001 248.626V241.948H590.579V248.446C590.579 250.804 589.445 251.902 587.663 251.902C585.881 251.902 584.747 250.804 584.747 248.446V241.948H583.343V248.608C583.343 251.65 585.161 253.162 587.663 253.162ZM595.591 249.31L598.957 241.948H597.553L593.665 250.426V250.498H598.867V253H600.181V250.498H602.017V249.31H600.181V246.646H598.867V249.31H595.591Z" fill="#444444"/>
<rect x="508" y="266" width="188" height="36" fill="white"/>
<path d="M522.736 284.32H524.698L527.866 289H529.486L526.21 284.266C527.956 284.014 529.036 282.988 529.036 281.152C529.036 279.064 527.596 277.948 525.364 277.948H521.314V289H522.736V284.32ZM522.736 283.114V279.19H525.328C526.786 279.19 527.632 279.928 527.632 281.152C527.632 282.376 526.786 283.114 525.328 283.114H522.736ZM530.705 286.606V288.136C531.461 288.73 532.685 289.162 534.179 289.162C536.321 289.162 537.905 288.028 537.905 286.138C537.905 284.608 537.149 283.726 535.457 283.078L533.711 282.394C532.685 281.998 532.055 281.602 532.055 280.666C532.055 279.568 533.009 279.028 534.233 279.028C535.511 279.028 536.501 279.478 537.383 280.18V278.686C536.555 278.11 535.421 277.786 534.215 277.786C532.307 277.786 530.669 278.776 530.669 280.684C530.669 282.43 531.857 283.168 533.153 283.672L534.773 284.302C535.943 284.788 536.537 285.184 536.537 286.156C536.537 287.29 535.601 287.902 534.179 287.902C532.883 287.902 531.731 287.488 530.705 286.606ZM541.369 282.862V277.948H539.947V289H541.369V283.798L546.463 289H548.299L542.701 283.24L548.137 277.948H546.355L541.369 282.862ZM551.318 284.32H553.28L556.448 289H558.068L554.792 284.266C556.538 284.014 557.618 282.988 557.618 281.152C557.618 279.064 556.178 277.948 553.946 277.948H549.896V289H551.318V284.32ZM551.318 283.114V279.19H553.91C555.368 279.19 556.214 279.928 556.214 281.152C556.214 282.376 555.368 283.114 553.91 283.114H551.318ZM565.012 286.534H565.084L568.828 280.504V289H570.214V277.948H568.972L565.066 284.302L561.142 277.948H559.828V289H561.214V280.504L565.012 286.534ZM576.975 289.162C579.495 289.162 581.313 287.65 581.313 284.626V277.948H579.891V284.446C579.891 286.804 578.757 287.902 576.975 287.902C575.193 287.902 574.059 286.804 574.059 284.446V277.948H572.655V284.608C572.655 287.65 574.473 289.162 576.975 289.162ZM583.121 283.474C583.121 286.93 585.353 289.162 588.305 289.162C589.583 289.162 590.555 288.802 591.275 288.208V286.714C590.375 287.524 589.457 287.884 588.323 287.884C586.091 287.884 584.543 286.138 584.543 283.474C584.543 280.81 586.091 279.064 588.323 279.064C589.457 279.064 590.375 279.406 591.275 280.234V278.74C590.555 278.146 589.583 277.786 588.305 277.786C585.353 277.786 583.121 280.018 583.121 283.474ZM600.279 277.948L597.093 283.168L593.907 277.948H592.359L596.355 284.446V289H597.759V284.446L601.791 277.948H600.279Z" fill="#444444"/>
<rect x="508" y="302" width="188" height="36" fill="white"/>
<path d="M520.522 323.074V324.532C520.99 324.838 521.782 325.162 522.682 325.162C524.806 325.162 525.94 323.992 525.94 321.328V313.948H524.518V321.274C524.518 323.11 523.96 323.866 522.646 323.866C521.836 323.866 521.224 323.578 520.522 323.074ZM532.899 323.902C530.595 323.902 529.119 322.138 529.119 319.474C529.119 316.81 530.721 315.064 533.025 315.064C534.231 315.064 535.275 315.442 536.211 316.288V314.776C535.437 314.164 534.321 313.786 533.025 313.786C529.983 313.786 527.697 316.036 527.697 319.474C527.697 322.894 529.785 325.162 532.863 325.162C534.231 325.162 535.689 324.748 536.751 323.578V319.258H533.007V320.446H535.437V323.056C534.717 323.65 533.907 323.902 532.899 323.902ZM546.053 313.948H539.015V325H546.053V323.722H540.419V319.96H545.531V318.7H540.419V315.208H546.053V313.948ZM548.279 325H549.701V320.194H554.705V318.934H549.701V315.208H555.029V313.948H548.279V325ZM564.557 325V323.722H558.509L564.611 314.02V313.948H556.511V315.208H562.379L556.241 324.928V325H564.557ZM570.63 325.162C573.15 325.162 574.968 323.65 574.968 320.626V313.948H573.546V320.446C573.546 322.804 572.412 323.902 570.63 323.902C568.848 323.902 567.714 322.804 567.714 320.446V313.948H566.31V320.608C566.31 323.65 568.128 325.162 570.63 325.162ZM581.841 313.948H580.509L576.189 325H577.629L578.889 321.67H583.443L584.721 325H586.161L581.841 313.948ZM579.357 320.428L581.157 315.712L582.957 320.428H579.357ZM595.389 325V323.722H589.341L595.443 314.02V313.948H587.343V315.208H593.211L587.073 324.928V325H595.389Z" fill="#444444"/>
<rect x="508" y="338" width="188" height="36" fill="white"/>
<path d="M530.404 349.948H528.982V354.682H522.736V349.948H521.314V361H522.736V355.96H528.982V361H530.404V349.948ZM536.405 349.786C534.263 349.786 532.661 351.406 532.661 353.548C532.661 355.672 534.191 357.292 536.315 357.292C536.747 357.292 537.233 357.148 537.521 356.968L535.199 361H536.657L539.177 356.608C539.897 355.348 540.149 354.448 540.149 353.548C540.149 351.406 538.565 349.786 536.405 349.786ZM533.957 353.548C533.957 352.108 535.001 351.01 536.405 351.01C537.809 351.01 538.853 352.108 538.853 353.548C538.853 354.97 537.809 356.086 536.405 356.086C535.001 356.086 533.957 354.97 533.957 353.548ZM546.944 359.902C544.64 359.902 543.164 358.138 543.164 355.474C543.164 352.81 544.766 351.064 547.07 351.064C548.276 351.064 549.32 351.442 550.256 352.288V350.776C549.482 350.164 548.366 349.786 547.07 349.786C544.028 349.786 541.742 352.036 541.742 355.474C541.742 358.894 543.83 361.162 546.908 361.162C548.276 361.162 549.734 360.748 550.796 359.578V355.258H547.052V356.446H549.482V359.056C548.762 359.65 547.952 359.902 546.944 359.902ZM552.268 359.074V360.532C552.736 360.838 553.528 361.162 554.428 361.162C556.552 361.162 557.686 359.992 557.686 357.328V349.948H556.264V357.274C556.264 359.11 555.706 359.866 554.392 359.866C553.582 359.866 552.97 359.578 552.268 359.074ZM559.317 349.948V351.208H563.169V361H564.591V351.208H568.443V349.948H559.317ZM577.846 361V359.722H571.798L577.9 350.02V349.948H569.8V351.208H575.668L569.53 360.928V361H577.846ZM588.922 349.948H587.5V354.682H581.254V349.948H579.832V361H581.254V355.96H587.5V361H588.922V349.948ZM592.69 357.31L596.056 349.948H594.652L590.764 358.426V358.498H595.966V361H597.28V358.498H599.116V357.31H597.28V354.646H595.966V357.31H592.69Z" fill="#444444"/>
<rect x="696" y="230" width="188" height="36" fill="white"/>
<path d="M718.656 247.474C718.656 244.126 716.568 241.786 713.652 241.786C710.754 241.786 708.666 244.126 708.666 247.474C708.666 250.804 710.754 253.162 713.652 253.162C716.568 253.162 718.656 250.804 718.656 247.474ZM717.234 247.474C717.234 250.066 715.794 251.884 713.652 251.884C711.528 251.884 710.088 250.066 710.088 247.474C710.088 244.882 711.528 243.064 713.652 243.064C715.794 243.064 717.234 244.882 717.234 247.474ZM720.526 245.008V253H721.876V247.582C722.164 246.718 722.974 246.088 723.91 246.088C725.116 246.088 725.674 246.862 725.674 247.978V253H727.042V247.762C727.042 246.016 726.052 244.846 724.234 244.846C723.208 244.846 722.344 245.386 721.876 246.016V245.008H720.526Z" fill="#444444"/>
<rect x="696" y="266" width="188" height="36" fill="white"/>
<path d="M718.656 283.474C718.656 280.126 716.568 277.786 713.652 277.786C710.754 277.786 708.666 280.126 708.666 283.474C708.666 286.804 710.754 289.162 713.652 289.162C716.568 289.162 718.656 286.804 718.656 283.474ZM717.234 283.474C717.234 286.066 715.794 287.884 713.652 287.884C711.528 287.884 710.088 286.066 710.088 283.474C710.088 280.882 711.528 279.064 713.652 279.064C715.794 279.064 717.234 280.882 717.234 283.474ZM720.526 281.008V289H721.876V283.582C722.164 282.718 722.974 282.088 723.91 282.088C725.116 282.088 725.674 282.862 725.674 283.978V289H727.042V283.762C727.042 282.016 726.052 280.846 724.234 280.846C723.208 280.846 722.344 281.386 721.876 282.016V281.008H720.526Z" fill="#444444"/>
<rect x="74" y="106" width="384" height="36" rx="4" fill="white" stroke="#999999"/>
<path d="M122.738 126.606V128.136C123.494 128.73 124.718 129.162 126.212 129.162C128.354 129.162 129.938 128.028 129.938 126.138C129.938 124.608 129.182 123.726 127.49 123.078L125.744 122.394C124.718 121.998 124.088 121.602 124.088 120.666C124.088 119.568 125.042 119.028 126.266 119.028C127.544 119.028 128.534 119.478 129.416 120.18V118.686C128.588 118.11 127.454 117.786 126.248 117.786C124.34 117.786 122.702 118.776 122.702 120.684C122.702 122.43 123.89 123.168 125.186 123.672L126.806 124.302C127.976 124.788 128.57 125.184 128.57 126.156C128.57 127.29 127.634 127.902 126.212 127.902C124.916 127.902 123.764 127.488 122.738 126.606ZM132.716 125.238H138.224V124.752C138.224 122.412 137.108 120.846 134.948 120.846C132.824 120.846 131.384 122.592 131.384 125.076C131.384 127.596 132.932 129.162 135.236 129.162C136.19 129.162 137.018 128.964 137.666 128.46V127.218C136.946 127.758 136.298 127.974 135.398 127.974C133.94 127.974 132.77 127.092 132.716 125.238ZM134.966 121.998C136.262 121.998 136.856 123.006 136.91 124.176H132.788C133.04 122.7 133.904 121.998 134.966 121.998ZM144.509 123.69V124.734C144.167 124.428 143.339 124.086 142.511 124.086C140.801 124.086 139.469 125.094 139.469 126.588C139.469 128.172 140.801 129.144 142.439 129.144C143.375 129.144 144.203 128.73 144.509 128.406V129H145.823V123.582C145.823 121.89 144.707 120.846 142.817 120.846C141.827 120.846 140.873 121.134 140.333 121.512V122.79C140.999 122.358 141.719 122.088 142.601 122.088C143.771 122.088 144.509 122.7 144.509 123.69ZM144.509 126.192V127.02C144.293 127.614 143.501 128.01 142.655 128.01C141.683 128.01 140.747 127.56 140.747 126.588C140.747 125.634 141.683 125.202 142.655 125.202C143.501 125.202 144.293 125.598 144.509 126.192ZM152.236 122.358V120.972C152.092 120.9 151.804 120.846 151.462 120.846C150.58 120.846 149.824 121.368 149.482 122.052V121.008H148.132V129H149.482V123.636C149.752 122.7 150.49 122.142 151.336 122.142C151.678 122.142 152.02 122.214 152.236 122.358ZM153.11 125.004C153.11 127.56 154.802 129.162 156.962 129.162C157.736 129.162 158.546 128.982 159.104 128.496V127.128C158.528 127.704 157.826 127.956 157.052 127.956C155.63 127.956 154.478 126.84 154.478 125.004C154.478 123.168 155.63 122.052 157.052 122.052C157.826 122.052 158.528 122.304 159.104 122.88V121.512C158.546 121.026 157.736 120.846 156.962 120.846C154.802 120.846 153.11 122.448 153.11 125.004ZM160.981 117.3V129H162.331V123.582C162.619 122.718 163.429 122.088 164.365 122.088C165.571 122.088 166.129 122.862 166.129 123.978V129H167.497V123.762C167.497 122.016 166.507 120.846 164.689 120.846C163.663 120.846 162.799 121.386 162.331 122.016V117.3H160.981ZM175.993 129V122.16H177.847V121.008H175.993V118.902H174.643V121.008H172.969V122.16H174.643V129H175.993ZM179.491 117.3V129H180.841V123.582C181.129 122.718 181.939 122.088 182.875 122.088C184.081 122.088 184.639 122.862 184.639 123.978V129H186.007V123.762C186.007 122.016 185.017 120.846 183.199 120.846C182.173 120.846 181.309 121.386 180.841 122.016V117.3H179.491ZM189.054 125.238H194.562V124.752C194.562 122.412 193.446 120.846 191.286 120.846C189.162 120.846 187.722 122.592 187.722 125.076C187.722 127.596 189.27 129.162 191.574 129.162C192.528 129.162 193.356 128.964 194.004 128.46V127.218C193.284 127.758 192.636 127.974 191.736 127.974C190.278 127.974 189.108 127.092 189.054 125.238ZM191.304 121.998C192.6 121.998 193.194 123.006 193.248 124.176H189.126C189.378 122.7 190.242 121.998 191.304 121.998ZM200.482 117.948V129H204.028C207.268 129 209.392 126.84 209.392 123.474C209.392 120.108 207.268 117.948 204.028 117.948H200.482ZM204.01 127.722H201.904V119.208H204.01C206.512 119.208 207.988 120.882 207.988 123.474C207.988 126.066 206.512 127.722 204.01 127.722ZM215.666 123.69V124.734C215.324 124.428 214.496 124.086 213.668 124.086C211.958 124.086 210.626 125.094 210.626 126.588C210.626 128.172 211.958 129.144 213.596 129.144C214.532 129.144 215.36 128.73 215.666 128.406V129H216.98V123.582C216.98 121.89 215.864 120.846 213.974 120.846C212.984 120.846 212.03 121.134 211.49 121.512V122.79C212.156 122.358 212.876 122.088 213.758 122.088C214.928 122.088 215.666 122.7 215.666 123.69ZM215.666 126.192V127.02C215.45 127.614 214.658 128.01 213.812 128.01C212.84 128.01 211.904 127.56 211.904 126.588C211.904 125.634 212.84 125.202 213.812 125.202C214.658 125.202 215.45 125.598 215.666 126.192ZM221.467 129V122.16H223.321V121.008H221.467V118.902H220.117V121.008H218.443V122.16H220.117V129H221.467ZM229.236 123.69V124.734C228.894 124.428 228.066 124.086 227.238 124.086C225.528 124.086 224.196 125.094 224.196 126.588C224.196 128.172 225.528 129.144 227.166 129.144C228.102 129.144 228.93 128.73 229.236 128.406V129H230.55V123.582C230.55 121.89 229.434 120.846 227.544 120.846C226.554 120.846 225.6 121.134 225.06 121.512V122.79C225.726 122.358 226.446 122.088 227.328 122.088C228.498 122.088 229.236 122.7 229.236 123.69ZM229.236 126.192V127.02C229.02 127.614 228.228 128.01 227.382 128.01C226.41 128.01 225.474 127.56 225.474 126.588C225.474 125.634 226.41 125.202 227.382 125.202C228.228 125.202 229.02 125.598 229.236 126.192ZM232.192 117.948V119.208H236.044V129H237.466V119.208H241.318V117.948H232.192ZM246.164 123.69V124.734C245.822 124.428 244.994 124.086 244.166 124.086C242.456 124.086 241.124 125.094 241.124 126.588C241.124 128.172 242.456 129.144 244.094 129.144C245.03 129.144 245.858 128.73 246.164 128.406V129H247.478V123.582C247.478 121.89 246.362 120.846 244.472 120.846C243.482 120.846 242.528 121.134 241.988 121.512V122.79C242.654 122.358 243.374 122.088 244.256 122.088C245.426 122.088 246.164 122.7 246.164 123.69ZM246.164 126.192V127.02C245.948 127.614 245.156 128.01 244.31 128.01C243.338 128.01 242.402 127.56 242.402 126.588C242.402 125.634 243.338 125.202 244.31 125.202C245.156 125.202 245.948 125.598 246.164 126.192ZM251.136 129V128.064C251.532 128.64 252.396 129.162 253.386 129.162C255.726 129.162 256.986 127.272 256.986 125.004C256.986 122.754 255.726 120.846 253.386 120.846C252.396 120.846 251.532 121.368 251.136 121.944V117.3H249.768V129H251.136ZM251.136 126.624V123.384C251.55 122.556 252.342 122.07 253.188 122.07C254.718 122.07 255.618 123.312 255.618 125.004C255.618 126.696 254.718 127.938 253.188 127.938C252.342 127.938 251.55 127.452 251.136 126.624ZM260.171 129V117.3H258.821V129H260.171ZM263.339 125.238H268.847V124.752C268.847 122.412 267.731 120.846 265.571 120.846C263.447 120.846 262.007 122.592 262.007 125.076C262.007 127.596 263.555 129.162 265.859 129.162C266.813 129.162 267.641 128.964 268.289 128.46V127.218C267.569 127.758 266.921 127.974 266.021 127.974C264.563 127.974 263.393 127.092 263.339 125.238ZM265.589 121.998C266.885 121.998 267.479 123.006 267.533 124.176H263.411C263.663 122.7 264.527 121.998 265.589 121.998Z" fill="#BBBBBB"/>
<path fill-rule="evenodd" clip-rule="evenodd" d="M96.0001 115C92.1341 115 89.0001 118.134 89.0001 122C89.0001 125.866 92.1341 129 96.0001 129C97.5725 129 99.0237 128.482 100.192 127.606L105.293 132.707L106.707 131.293L101.607 126.192C102.482 125.024 103 123.572 103 122C103 118.134 99.8661 115 96.0001 115ZM91.0001 122C91.0001 119.239 93.2387 117 96.0001 117C98.7615 117 101 119.239 101 122C101 124.761 98.7615 127 96.0001 127C93.2387 127 91.0001 124.761 91.0001 122Z" fill="black"/>
<path d="M73.152 65.232V70.56C74.772 71.532 77.436 72.36 80.388 72.36C85.356 72.36 89.424 70.236 89.424 65.448C89.424 62.064 87.588 59.94 83.556 58.68L80.208 57.672C79.056 57.312 78.372 56.916 78.372 55.908C78.372 54.792 79.632 54.324 81.288 54.324C83.808 54.324 86.004 55.152 87.984 56.52V51.192C86.148 50.184 84.024 49.536 81.036 49.536C76.392 49.536 72.684 51.948 72.684 56.34C72.684 60.012 74.736 61.848 78.444 62.928L81.792 63.9C82.98 64.332 83.664 64.692 83.664 65.772C83.664 67.14 82.08 67.536 80.244 67.536C77.76 67.536 75.06 66.528 73.152 65.232ZM96.5419 65.196H106.514V63.54C106.514 58.716 103.958 55.44 98.9179 55.44C94.4539 55.44 91.0699 58.932 91.0699 64.008C91.0699 69.228 94.5979 72.36 99.7819 72.36C102.122 72.36 104.102 71.856 105.362 70.92V66.636C103.742 67.608 102.41 67.932 100.682 67.932C98.5939 67.932 97.0099 67.14 96.5419 65.196ZM99.1339 59.724C100.502 59.724 101.33 60.66 101.474 62.028H96.6139C97.0099 60.552 97.9099 59.724 99.1339 59.724ZM119.646 61.164V55.728C119.394 55.584 118.818 55.44 118.098 55.44C116.478 55.44 115.218 56.16 114.426 57.24V55.8H108.774V72H114.426V62.496C114.714 61.344 115.758 60.66 117.306 60.66C118.206 60.66 118.962 60.804 119.646 61.164ZM126.818 72H131.894L138.086 55.8H132.542L129.518 65.088L126.422 55.8H120.662L126.818 72ZM143.757 65.196H153.729V63.54C153.729 58.716 151.173 55.44 146.133 55.44C141.669 55.44 138.285 58.932 138.285 64.008C138.285 69.228 141.813 72.36 146.997 72.36C149.337 72.36 151.317 71.856 152.577 70.92V66.636C150.957 67.608 149.625 67.932 147.897 67.932C145.809 67.932 144.225 67.14 143.757 65.196ZM146.349 59.724C147.717 59.724 148.545 60.66 148.689 62.028H143.829C144.225 60.552 145.125 59.724 146.349 59.724ZM166.861 61.164V55.728C166.609 55.584 166.033 55.44 165.313 55.44C163.693 55.44 162.433 56.16 161.641 57.24V55.8H155.989V72H161.641V62.496C161.929 61.344 162.973 60.66 164.521 60.66C165.421 60.66 166.177 60.804 166.861 61.164ZM168.491 66.06V70.812C170.003 71.82 172.379 72.36 174.647 72.36C178.643 72.36 181.631 70.668 181.631 67.212C181.631 64.476 180.227 63.036 176.699 62.1L175.223 61.668C174.431 61.452 173.963 61.236 173.963 60.624C173.963 59.976 174.611 59.652 175.583 59.652C177.419 59.652 179.147 60.408 180.695 61.524V56.88C179.111 55.908 177.347 55.44 175.043 55.44C171.227 55.44 168.419 57.348 168.419 60.732C168.419 63.648 170.327 65.052 173.315 65.7L174.575 66.024C175.547 66.24 176.051 66.492 176.051 67.14C176.051 67.86 175.331 68.112 174.215 68.112C172.559 68.112 170.039 67.32 168.491 66.06Z" fill="black"/>
<path d="M77.296 160.192L79.472 154.176H77.136L74.144 162.208V162.272H78.736V164H80.912V162.272H82.016V160.192H80.912V158.368H78.736V160.192H77.296ZM87.9476 164V154.176H86.6836V164H87.9476ZM92.1654 164V157.92H93.8134V156.896H92.1654V155.024H90.9654V156.896H89.4774V157.92H90.9654V164H92.1654ZM95.8221 160.656H100.718V160.224C100.718 158.144 99.7261 156.752 97.8061 156.752C95.9181 156.752 94.6381 158.304 94.6381 160.512C94.6381 162.752 96.0141 164.144 98.0621 164.144C98.9101 164.144 99.6461 163.968 100.222 163.52V162.416C99.5821 162.896 99.0061 163.088 98.2061 163.088C96.9101 163.088 95.8701 162.304 95.8221 160.656ZM97.8221 157.776C98.9741 157.776 99.5021 158.672 99.5501 159.712H95.8861C96.1101 158.4 96.8781 157.776 97.8221 157.776ZM107.393 157.888C107.057 157.216 106.369 156.752 105.473 156.752C104.593 156.752 103.905 157.168 103.553 157.728V156.896H102.353V164H103.553V159.104C103.777 158.336 104.401 157.84 105.121 157.84C106.033 157.84 106.465 158.496 106.465 159.488V164H107.665V159.104C107.889 158.336 108.513 157.84 109.233 157.84C110.145 157.84 110.577 158.496 110.577 159.488V164H111.793V159.296C111.793 157.76 110.993 156.752 109.553 156.752C108.561 156.752 107.841 157.248 107.393 157.888ZM113.406 162.16V163.44C113.934 163.856 114.814 164.144 115.742 164.144C117.23 164.144 118.398 163.392 118.398 162.08C118.398 161.072 117.806 160.448 116.734 160.08L115.646 159.712C114.974 159.472 114.59 159.28 114.59 158.704C114.59 158.096 115.198 157.776 115.934 157.776C116.798 157.776 117.454 158.128 118.046 158.624V157.376C117.47 156.976 116.734 156.752 115.934 156.752C114.526 156.752 113.422 157.504 113.422 158.752C113.422 159.904 114.142 160.416 115.214 160.768L116.19 161.104C116.814 161.312 117.214 161.6 117.214 162.128C117.214 162.832 116.526 163.12 115.742 163.12C114.878 163.12 114.062 162.768 113.406 162.16Z" fill="#444444"/>
<g clip-path="url(#clip1_2_64)">
<rect width="1078" height="453" transform="translate(0 463)" fill="white"/>
<rect width="84" height="24" transform="translate(80 551)" fill="white"/>
<path fill-rule="evenodd" clip-rule="evenodd" d="M90.4143 563L95.7072 557.707L94.2929 556.293L87.5858 563L94.2929 569.707L95.7072 568.293L90.4143 563Z" fill="#444444"/>
<path d="M110.774 565.246V567.208C111.548 567.748 112.808 568.18 114.284 568.18C116.534 568.18 118.244 567.064 118.244 565.048C118.244 563.446 117.452 562.474 115.724 561.844L113.942 561.196C113.024 560.872 112.502 560.548 112.502 559.738C112.502 558.838 113.33 558.406 114.446 558.406C115.742 558.406 116.75 558.892 117.668 559.594V557.668C116.786 557.092 115.652 556.768 114.41 556.768C112.376 556.768 110.684 557.83 110.684 559.774C110.684 561.592 111.8 562.384 113.276 562.924L114.878 563.5C115.868 563.878 116.426 564.22 116.426 565.084C116.426 566.074 115.544 566.524 114.284 566.524C112.988 566.524 111.782 566.056 110.774 565.246ZM121.322 564.4H126.614V563.752C126.614 561.412 125.462 559.828 123.248 559.828C121.106 559.828 119.576 561.574 119.576 564.076C119.576 566.596 121.196 568.18 123.536 568.18C124.544 568.18 125.39 567.982 126.074 567.478V565.894C125.318 566.416 124.688 566.632 123.788 566.632C122.51 566.632 121.448 565.966 121.322 564.4ZM123.266 561.34C124.292 561.34 124.85 562.06 124.904 563.032H121.43C121.7 561.808 122.474 561.34 123.266 561.34ZM132.789 561.826V559.972C132.663 559.9 132.303 559.828 131.907 559.828C131.133 559.828 130.431 560.242 130.125 560.836V560.008H128.325V568H130.125V562.834C130.305 561.97 130.989 561.556 131.727 561.556C132.105 561.556 132.537 561.646 132.789 561.826ZM136.674 568H138.528L141.57 560.008H139.698L137.646 565.858L135.576 560.008H133.65L136.674 568ZM144.015 564.4H149.307V563.752C149.307 561.412 148.155 559.828 145.941 559.828C143.799 559.828 142.269 561.574 142.269 564.076C142.269 566.596 143.889 568.18 146.229 568.18C147.237 568.18 148.083 567.982 148.767 567.478V565.894C148.011 566.416 147.381 566.632 146.481 566.632C145.203 566.632 144.141 565.966 144.015 564.4ZM145.959 561.34C146.985 561.34 147.543 562.06 147.597 563.032H144.123C144.393 561.808 145.167 561.34 145.959 561.34ZM155.482 561.826V559.972C155.356 559.9 154.996 559.828 154.6 559.828C153.826 559.828 153.124 560.242 152.818 560.836V560.008H151.018V568H152.818V562.834C152.998 561.97 153.682 561.556 154.42 561.556C154.798 561.556 155.23 561.646 155.482 561.826ZM156.688 565.516V567.352C157.318 567.874 158.362 568.18 159.37 568.18C161.152 568.18 162.52 567.298 162.52 565.75C162.52 564.526 161.818 563.806 160.486 563.392L159.442 563.068C158.758 562.852 158.416 562.672 158.416 562.15C158.416 561.61 158.974 561.322 159.694 561.322C160.63 561.322 161.404 561.754 162.088 562.348V560.53C161.422 560.08 160.63 559.828 159.694 559.828C157.984 559.828 156.688 560.764 156.688 562.222C156.688 563.59 157.516 564.22 158.848 564.634L159.712 564.904C160.342 565.102 160.774 565.318 160.774 565.84C160.774 566.434 160.144 566.686 159.388 566.686C158.452 566.686 157.444 566.254 156.688 565.516Z" fill="#444444"/>
<path d="M101.78 590.896H95.984V599.284H87.452V590.896H81.656V613H87.452V604.252H95.984V613H101.78V590.896ZM110.794 606.124H114.754C119.542 606.124 122.782 603.424 122.782 598.528C122.782 593.596 119.542 590.896 114.754 590.896H105.07V613H110.794V606.124ZM117.166 598.528C117.166 600.184 116.23 601.3 114.142 601.3H110.794V595.756H114.142C116.23 595.756 117.166 596.836 117.166 598.528ZM141.054 590.896H125.25V613H141.054V607.996H130.938V604.18H140.19V599.32H130.938V595.864H141.054V590.896ZM142.982 614.512V618.796H155.258V614.512H142.982ZM157.125 606.232V611.56C158.745 612.532 161.409 613.36 164.361 613.36C169.329 613.36 173.397 611.236 173.397 606.448C173.397 603.064 171.561 600.94 167.529 599.68L164.181 598.672C163.029 598.312 162.345 597.916 162.345 596.908C162.345 595.792 163.605 595.324 165.261 595.324C167.781 595.324 169.977 596.152 171.957 597.52V592.192C170.121 591.184 167.997 590.536 165.009 590.536C160.365 590.536 156.657 592.948 156.657 597.34C156.657 601.012 158.709 602.848 162.417 603.928L165.765 604.9C166.953 605.332 167.637 605.692 167.637 606.772C167.637 608.14 166.053 608.536 164.217 608.536C161.733 608.536 159.033 607.528 157.125 606.232ZM185.165 613.36C190.997 613.36 194.777 610.048 194.777 604V590.896H189.017V603.46C189.017 606.592 187.541 608.212 185.165 608.212C182.753 608.212 181.277 606.592 181.277 603.46V590.896H175.517V603.964C175.517 610.048 179.333 613.36 185.165 613.36ZM203.571 606.124H207.531C212.319 606.124 215.559 603.424 215.559 598.528C215.559 593.596 212.319 590.896 207.531 590.896H197.847V613H203.571V606.124ZM209.943 598.528C209.943 600.184 209.007 601.3 206.919 601.3H203.571V595.756H206.919C209.007 595.756 209.943 596.836 209.943 598.528ZM233.831 590.896H218.027V613H233.831V607.996H223.715V604.18H232.967V599.32H223.715V595.864H233.831V590.896ZM242.419 605.692H244.435L249.043 613H255.451L250.267 605.08C252.967 604.072 254.659 601.768 254.659 598.42C254.659 593.596 251.383 590.896 246.631 590.896H236.695V613H242.419V605.692ZM242.419 601.084V595.756H246.019C248.071 595.756 249.007 596.8 249.007 598.42C249.007 600.04 248.071 601.084 246.019 601.084H242.419ZM257.367 590.896V613H265.719C272.667 613 276.879 608.68 276.879 601.948C276.879 595.216 272.667 590.896 265.719 590.896H257.367ZM265.431 607.996H263.055V595.864H265.431C269.103 595.864 271.155 598.204 271.155 601.948C271.155 605.656 269.103 607.996 265.431 607.996ZM300.216 601.948C300.216 595.324 295.788 590.536 289.38 590.536C283.008 590.536 278.616 595.324 278.616 601.948C278.616 608.536 283.008 613.36 289.38 613.36C295.788 613.36 300.216 608.536 300.216 601.948ZM294.384 601.948C294.384 605.764 292.368 608.284 289.38 608.284C286.392 608.284 284.448 605.764 284.448 601.948C284.448 598.132 286.392 595.612 289.38 595.612C292.368 595.612 294.384 598.132 294.384 601.948ZM313.953 608.248H314.097L319.749 600.328V613H325.437V590.896H320.109L314.025 599.896L307.977 590.896H302.613V613H308.265V600.328L313.953 608.248ZM344.538 590.896H328.734V613H344.538V607.996H334.422V604.18H343.674V599.32H334.422V595.864H344.538V590.896Z" fill="black"/>
<path d="M81.426 655.966V675H88.618C94.601 675 98.228 671.28 98.228 665.483C98.228 659.686 94.601 655.966 88.618 655.966H81.426ZM88.37 670.691H86.324V660.244H88.37C91.532 660.244 93.299 662.259 93.299 665.483C93.299 668.676 91.532 670.691 88.37 670.691ZM104.221 669.141H112.808V667.715C112.808 663.561 110.607 660.74 106.267 660.74C102.423 660.74 99.5092 663.747 99.5092 668.118C99.5092 672.613 102.547 675.31 107.011 675.31C109.026 675.31 110.731 674.876 111.816 674.07V670.381C110.421 671.218 109.274 671.497 107.786 671.497C105.988 671.497 104.624 670.815 104.221 669.141ZM106.453 664.429C107.631 664.429 108.344 665.235 108.468 666.413H104.283C104.624 665.142 105.399 664.429 106.453 664.429ZM121.142 675V664.832H123.87V661.05H121.142V657.206H116.306V661.05H113.888V664.832H116.306V675H121.142ZM132.946 666.599V667.095C132.388 666.692 131.086 666.32 129.908 666.32C126.901 666.32 124.545 668.056 124.545 670.753C124.545 673.698 126.901 675.248 129.66 675.248C131.148 675.248 132.481 674.752 132.946 674.287V675H137.627V666.382C137.627 662.693 135.271 660.74 131.148 660.74C129.164 660.74 127.304 661.205 126.157 661.825V665.731C127.273 665.08 128.637 664.739 129.97 664.739C131.954 664.739 132.946 665.514 132.946 666.599ZM132.946 670.288V671.094C132.636 671.652 131.861 672.024 130.993 672.024C130.032 672.024 129.071 671.621 129.071 670.66C129.071 669.73 130.032 669.327 130.993 669.327C131.861 669.327 132.636 669.699 132.946 670.288ZM145.331 657.268C145.331 655.656 144.06 654.633 142.572 654.633C141.084 654.633 139.813 655.656 139.813 657.268C139.813 658.849 141.084 659.872 142.572 659.872C144.06 659.872 145.331 658.849 145.331 657.268ZM144.99 675V661.05H140.123V675H144.99ZM152.498 675V654.85H147.631V675H152.498ZM154.643 669.885V673.977C155.945 674.845 157.991 675.31 159.944 675.31C163.385 675.31 165.958 673.853 165.958 670.877C165.958 668.521 164.749 667.281 161.711 666.475L160.44 666.103C159.758 665.917 159.355 665.731 159.355 665.204C159.355 664.646 159.913 664.367 160.75 664.367C162.331 664.367 163.819 665.018 165.152 665.979V661.98C163.788 661.143 162.269 660.74 160.285 660.74C156.999 660.74 154.581 662.383 154.581 665.297C154.581 667.808 156.224 669.017 158.797 669.575L159.882 669.854C160.719 670.04 161.153 670.257 161.153 670.815C161.153 671.435 160.533 671.652 159.572 671.652C158.146 671.652 155.976 670.97 154.643 669.885Z" fill="black"/>
<path d="M90.584 725V713.948H87.794V720.032L83.528 713.948H80.828V725H83.618V718.538L88.244 725H90.584ZM96.6102 720.122V720.41C96.2862 720.176 95.5302 719.96 94.8462 719.96C93.1002 719.96 91.7322 720.968 91.7322 722.534C91.7322 724.244 93.1002 725.144 94.7022 725.144C95.5662 725.144 96.3402 724.856 96.6102 724.586V725H99.3282V719.996C99.3282 717.854 97.9602 716.72 95.5662 716.72C94.4142 716.72 93.3342 716.99 92.6682 717.35V719.618C93.3162 719.24 94.1082 719.042 94.8822 719.042C96.0342 719.042 96.6102 719.492 96.6102 720.122ZM96.6102 722.264V722.732C96.4302 723.056 95.9802 723.272 95.4762 723.272C94.9182 723.272 94.3602 723.038 94.3602 722.48C94.3602 721.94 94.9182 721.706 95.4762 721.706C95.9802 721.706 96.4302 721.922 96.6102 722.264ZM107.923 717.692C107.437 717.116 106.717 716.72 105.691 716.72C104.791 716.72 104.017 717.062 103.603 717.566V716.9H100.777V725H103.603V720.068C103.729 719.51 104.161 719.204 104.647 719.204C105.277 719.204 105.565 719.69 105.565 720.374V725H108.373V720.068C108.517 719.51 108.931 719.204 109.417 719.204C110.047 719.204 110.335 719.69 110.335 720.374V725H113.161V719.69C113.161 717.872 112.117 716.72 110.425 716.72C109.237 716.72 108.409 717.188 107.923 717.692ZM116.915 721.598H121.901V720.77C121.901 718.358 120.623 716.72 118.103 716.72C115.871 716.72 114.179 718.466 114.179 721.004C114.179 723.614 115.943 725.18 118.535 725.18C119.705 725.18 120.695 724.928 121.325 724.46V722.318C120.515 722.804 119.849 722.966 118.985 722.966C117.941 722.966 117.149 722.57 116.915 721.598ZM118.211 718.862C118.895 718.862 119.309 719.33 119.381 720.014H116.951C117.149 719.276 117.599 718.862 118.211 718.862Z" fill="#444444"/>
<path d="M80.576 757.616V760.28C81.386 760.766 82.718 761.18 84.194 761.18C86.678 761.18 88.712 760.118 88.712 757.724C88.712 756.032 87.794 754.97 85.778 754.34L84.104 753.836C83.528 753.656 83.186 753.458 83.186 752.954C83.186 752.396 83.816 752.162 84.644 752.162C85.904 752.162 87.002 752.576 87.992 753.26V750.596C87.074 750.092 86.012 749.768 84.518 749.768C82.196 749.768 80.342 750.974 80.342 753.17C80.342 755.006 81.368 755.924 83.222 756.464L84.896 756.95C85.49 757.166 85.832 757.346 85.832 757.886C85.832 758.57 85.04 758.768 84.122 758.768C82.88 758.768 81.53 758.264 80.576 757.616ZM93.5352 761V755.096H95.1192V752.9H93.5352V750.668H90.7272V752.9H89.3232V755.096H90.7272V761H93.5352ZM100.39 756.122V756.41C100.066 756.176 99.3095 755.96 98.6255 755.96C96.8795 755.96 95.5115 756.968 95.5115 758.534C95.5115 760.244 96.8795 761.144 98.4815 761.144C99.3455 761.144 100.12 760.856 100.39 760.586V761H103.108V755.996C103.108 753.854 101.74 752.72 99.3455 752.72C98.1935 752.72 97.1135 752.99 96.4475 753.35V755.618C97.0955 755.24 97.8875 755.042 98.6615 755.042C99.8135 755.042 100.39 755.492 100.39 756.122ZM100.39 758.264V758.732C100.21 759.056 99.7595 759.272 99.2555 759.272C98.6975 759.272 98.1395 759.038 98.1395 758.48C98.1395 757.94 98.6975 757.706 99.2555 757.706C99.7595 757.706 100.21 757.922 100.39 758.264ZM108.266 761V755.096H109.85V752.9H108.266V750.668H105.458V752.9H104.054V755.096H105.458V761H108.266ZM118.679 761V752.9H115.853V757.814C115.709 758.372 115.223 758.714 114.701 758.714C113.981 758.714 113.657 758.228 113.657 757.544V752.9H110.849V758.21C110.849 760.01 111.911 761.18 113.693 761.18C114.611 761.18 115.421 760.802 115.853 760.298V761H118.679ZM119.896 758.03V760.406C120.652 760.91 121.84 761.18 122.974 761.18C124.972 761.18 126.466 760.334 126.466 758.606C126.466 757.238 125.764 756.518 124 756.05L123.262 755.834C122.866 755.726 122.632 755.618 122.632 755.312C122.632 754.988 122.956 754.826 123.442 754.826C124.36 754.826 125.224 755.204 125.998 755.762V753.44C125.206 752.954 124.324 752.72 123.172 752.72C121.264 752.72 119.86 753.674 119.86 755.366C119.86 756.824 120.814 757.526 122.308 757.85L122.938 758.012C123.424 758.12 123.676 758.246 123.676 758.57C123.676 758.93 123.316 759.056 122.758 759.056C121.93 759.056 120.67 758.66 119.896 758.03Z" fill="#444444"/>
<path d="M80.576 793.616V796.28C81.386 796.766 82.718 797.18 84.194 797.18C86.678 797.18 88.712 796.118 88.712 793.724C88.712 792.032 87.794 790.97 85.778 790.34L84.104 789.836C83.528 789.656 83.186 789.458 83.186 788.954C83.186 788.396 83.816 788.162 84.644 788.162C85.904 788.162 87.002 788.576 87.992 789.26V786.596C87.074 786.092 86.012 785.768 84.518 785.768C82.196 785.768 80.342 786.974 80.342 789.17C80.342 791.006 81.368 791.924 83.222 792.464L84.896 792.95C85.49 793.166 85.832 793.346 85.832 793.886C85.832 794.57 85.04 794.768 84.122 794.768C82.88 794.768 81.53 794.264 80.576 793.616ZM93.5352 797V791.096H95.1192V788.9H93.5352V786.668H90.7272V788.9H89.3232V791.096H90.7272V797H93.5352ZM100.39 792.122V792.41C100.066 792.176 99.3095 791.96 98.6255 791.96C96.8795 791.96 95.5115 792.968 95.5115 794.534C95.5115 796.244 96.8795 797.144 98.4815 797.144C99.3455 797.144 100.12 796.856 100.39 796.586V797H103.108V791.996C103.108 789.854 101.74 788.72 99.3455 788.72C98.1935 788.72 97.1135 788.99 96.4475 789.35V791.618C97.0955 791.24 97.8875 791.042 98.6615 791.042C99.8135 791.042 100.39 791.492 100.39 792.122ZM100.39 794.264V794.732C100.21 795.056 99.7595 795.272 99.2555 795.272C98.6975 795.272 98.1395 795.038 98.1395 794.48C98.1395 793.94 98.6975 793.706 99.2555 793.706C99.7595 793.706 100.21 793.922 100.39 794.264ZM108.266 797V791.096H109.85V788.9H108.266V786.668H105.458V788.9H104.054V791.096H105.458V797H108.266ZM113.119 793.598H118.105V792.77C118.105 790.358 116.827 788.72 114.307 788.72C112.075 788.72 110.383 790.466 110.383 793.004C110.383 795.614 112.147 797.18 114.739 797.18C115.909 797.18 116.899 796.928 117.529 796.46V794.318C116.719 794.804 116.053 794.966 115.189 794.966C114.145 794.966 113.353 794.57 113.119 793.598ZM114.415 790.862C115.099 790.862 115.513 791.33 115.585 792.014H113.155C113.353 791.276 113.803 790.862 114.415 790.862Z" fill="#444444"/>
<path d="M83.69 829.562H85.67C88.064 829.562 89.684 828.212 89.684 825.764C89.684 823.298 88.064 821.948 85.67 821.948H80.828V833H83.69V829.562ZM86.876 825.764C86.876 826.592 86.408 827.15 85.364 827.15H83.69V824.378H85.364C86.408 824.378 86.876 824.918 86.876 825.764ZM98.395 828.95C98.395 826.448 96.721 824.72 94.255 824.72C91.807 824.72 90.115 826.448 90.115 828.95C90.115 831.452 91.807 833.18 94.255 833.18C96.721 833.18 98.395 831.452 98.395 828.95ZM95.623 828.95C95.623 830.066 95.137 830.84 94.255 830.84C93.391 830.84 92.905 830.066 92.905 828.95C92.905 827.834 93.391 827.042 94.255 827.042C95.137 827.042 95.623 827.834 95.623 828.95ZM106.952 829.292L105.746 824.9H103.946L102.722 829.292L101.444 824.9H98.6358L101.246 833H103.64L104.792 828.896L105.944 833H108.338L110.948 824.9H108.248L106.952 829.292ZM113.91 829.598H118.896V828.77C118.896 826.358 117.618 824.72 115.098 824.72C112.866 824.72 111.174 826.466 111.174 829.004C111.174 831.614 112.938 833.18 115.53 833.18C116.7 833.18 117.69 832.928 118.32 832.46V830.318C117.51 830.804 116.844 830.966 115.98 830.966C114.936 830.966 114.144 830.57 113.91 829.598ZM115.206 826.862C115.89 826.862 116.304 827.33 116.376 828.014H113.946C114.144 827.276 114.594 826.862 115.206 826.862ZM125.462 827.582V824.864C125.336 824.792 125.048 824.72 124.688 824.72C123.878 824.72 123.248 825.08 122.852 825.62V824.9H120.026V833H122.852V828.248C122.996 827.672 123.518 827.33 124.292 827.33C124.742 827.33 125.12 827.402 125.462 827.582Z" fill="#444444"/>
<path d="M80.576 865.616V868.28C81.386 868.766 82.718 869.18 84.194 869.18C86.678 869.18 88.712 868.118 88.712 865.724C88.712 864.032 87.794 862.97 85.778 862.34L84.104 861.836C83.528 861.656 83.186 861.458 83.186 860.954C83.186 860.396 83.816 860.162 84.644 860.162C85.904 860.162 87.002 860.576 87.992 861.26V858.596C87.074 858.092 86.012 857.768 84.518 857.768C82.196 857.768 80.342 858.974 80.342 861.17C80.342 863.006 81.368 863.924 83.222 864.464L84.896 864.95C85.49 865.166 85.832 865.346 85.832 865.886C85.832 866.57 85.04 866.768 84.122 866.768C82.88 866.768 81.53 866.264 80.576 865.616ZM92.2709 865.598H97.2569V864.77C97.2569 862.358 95.9789 860.72 93.4589 860.72C91.2269 860.72 89.5349 862.466 89.5349 865.004C89.5349 867.614 91.2989 869.18 93.8909 869.18C95.0609 869.18 96.0509 868.928 96.6809 868.46V866.318C95.8709 866.804 95.2049 866.966 94.3409 866.966C93.2969 866.966 92.5049 866.57 92.2709 865.598ZM93.5669 862.862C94.2509 862.862 94.6649 863.33 94.7369 864.014H92.3069C92.5049 863.276 92.9549 862.862 93.5669 862.862ZM103.823 863.582V860.864C103.697 860.792 103.409 860.72 103.049 860.72C102.239 860.72 101.609 861.08 101.213 861.62V860.9H98.3869V869H101.213V864.248C101.357 863.672 101.879 863.33 102.653 863.33C103.103 863.33 103.481 863.402 103.823 863.582ZM107.985 858.704C107.985 857.768 107.247 857.174 106.383 857.174C105.519 857.174 104.781 857.768 104.781 858.704C104.781 859.622 105.519 860.216 106.383 860.216C107.247 860.216 107.985 859.622 107.985 858.704ZM107.787 869V860.9H104.961V869H107.787ZM113.766 864.122V864.41C113.442 864.176 112.686 863.96 112.002 863.96C110.256 863.96 108.888 864.968 108.888 866.534C108.888 868.244 110.256 869.144 111.858 869.144C112.722 869.144 113.496 868.856 113.766 868.586V869H116.484V863.996C116.484 861.854 115.116 860.72 112.722 860.72C111.57 860.72 110.49 860.99 109.824 861.35V863.618C110.472 863.24 111.264 863.042 112.038 863.042C113.19 863.042 113.766 863.492 113.766 864.122ZM113.766 866.264V866.732C113.586 867.056 113.136 867.272 112.632 867.272C112.074 867.272 111.516 867.038 111.516 866.48C111.516 865.94 112.074 865.706 112.632 865.706C113.136 865.706 113.586 865.922 113.766 866.264ZM120.76 869V857.3H117.934V869H120.76Z" fill="#444444"/>
<path d="M185.404 713.948H183.982V718.682H177.736V713.948H176.314V725H177.736V719.96H183.982V725H185.404V713.948ZM189.461 720.572H192.125C194.357 720.572 195.815 719.42 195.815 717.26C195.815 715.082 194.357 713.948 192.125 713.948H188.039V725H189.461V720.572ZM194.411 717.26C194.411 718.502 193.601 719.312 192.107 719.312H189.461V715.19H192.107C193.601 715.19 194.411 716 194.411 717.26ZM204.745 713.948H197.707V725H204.745V723.722H199.111V719.96H204.223V718.7H199.111V715.208H204.745V713.948ZM206.016 725.756V726.98H211.902V725.756H206.016ZM213.004 722.606V724.136C213.76 724.73 214.984 725.162 216.478 725.162C218.62 725.162 220.204 724.028 220.204 722.138C220.204 720.608 219.448 719.726 217.756 719.078L216.01 718.394C214.984 717.998 214.354 717.602 214.354 716.666C214.354 715.568 215.308 715.028 216.532 715.028C217.81 715.028 218.8 715.478 219.682 716.18V714.686C218.854 714.11 217.72 713.786 216.514 713.786C214.606 713.786 212.968 714.776 212.968 716.684C212.968 718.43 214.156 719.168 215.452 719.672L217.072 720.302C218.242 720.788 218.836 721.184 218.836 722.156C218.836 723.29 217.9 723.902 216.478 723.902C215.182 723.902 214.03 723.488 213.004 722.606ZM226.386 725.162C228.906 725.162 230.724 723.65 230.724 720.626V713.948H229.302V720.446C229.302 722.804 228.168 723.902 226.386 723.902C224.604 723.902 223.47 722.804 223.47 720.446V713.948H222.066V720.608C222.066 723.65 223.884 725.162 226.386 725.162ZM234.601 720.572H237.265C239.497 720.572 240.955 719.42 240.955 717.26C240.955 715.082 239.497 713.948 237.265 713.948H233.179V725H234.601V720.572ZM239.551 717.26C239.551 718.502 238.741 719.312 237.247 719.312H234.601V715.19H237.247C238.741 715.19 239.551 716 239.551 717.26ZM249.885 713.948H242.847V725H249.885V723.722H244.251V719.96H249.363V718.7H244.251V715.208H249.885V713.948ZM253.533 720.32H255.495L258.663 725H260.283L257.007 720.266C258.753 720.014 259.833 718.988 259.833 717.152C259.833 715.064 258.393 713.948 256.161 713.948H252.111V725H253.533V720.32ZM253.533 719.114V715.19H256.125C257.583 715.19 258.429 715.928 258.429 717.152C258.429 718.376 257.583 719.114 256.125 719.114H253.533ZM262.043 713.948V725H265.589C268.829 725 270.953 722.84 270.953 719.474C270.953 716.108 268.829 713.948 265.589 713.948H262.043ZM265.571 723.722H263.465V715.208H265.571C268.073 715.208 269.549 716.882 269.549 719.474C269.549 722.066 268.073 723.722 265.571 723.722ZM282.371 719.474C282.371 716.126 280.283 713.786 277.367 713.786C274.469 713.786 272.381 716.126 272.381 719.474C272.381 722.804 274.469 725.162 277.367 725.162C280.283 725.162 282.371 722.804 282.371 719.474ZM280.949 719.474C280.949 722.066 279.509 723.884 277.367 723.884C275.243 723.884 273.803 722.066 273.803 719.474C273.803 716.882 275.243 715.064 277.367 715.064C279.509 715.064 280.949 716.882 280.949 719.474ZM289.533 722.534H289.605L293.349 716.504V725H294.735V713.948H293.493L289.587 720.302L285.663 713.948H284.349V725H285.735V716.504L289.533 722.534ZM304.395 713.948H297.357V725H304.395V723.722H298.761V719.96H303.873V718.7H298.761V715.208H304.395V713.948Z" fill="#263040"/>
<path fill-rule="evenodd" clip-rule="evenodd" d="M181.712 751.263C181.319 750.87 180.683 750.867 180.288 751.263L176.263 755.288C175.87 755.681 175.867 756.317 176.263 756.712L180.288 760.737C180.681 761.13 181.317 761.133 181.712 760.737L185.737 756.712C186.13 756.319 186.133 755.683 185.737 755.288L181.712 751.263Z" fill="#FC5A5A" stroke="#FC5A5A"/>
<path d="M199.666 755.474C199.666 758.93 201.898 761.162 204.85 761.162C206.128 761.162 207.1 760.802 207.82 760.208V758.714C206.92 759.524 206.002 759.884 204.868 759.884C202.636 759.884 201.088 758.138 201.088 755.474C201.088 752.81 202.636 751.064 204.868 751.064C206.002 751.064 206.92 751.406 207.82 752.234V750.74C207.1 750.146 206.128 749.786 204.85 749.786C201.898 749.786 199.666 752.018 199.666 755.474ZM214.031 754.358V752.972C213.887 752.9 213.599 752.846 213.257 752.846C212.375 752.846 211.619 753.368 211.277 754.052V753.008H209.927V761H211.277V755.636C211.547 754.7 212.285 754.142 213.131 754.142C213.473 754.142 213.815 754.214 214.031 754.358ZM217.258 750.596C217.258 750.11 216.862 749.732 216.376 749.732C215.908 749.732 215.512 750.11 215.512 750.596C215.512 751.064 215.908 751.46 216.376 751.46C216.862 751.46 217.258 751.064 217.258 750.596ZM217.06 761V753.008H215.71V761H217.06ZM221.704 761V754.16H223.558V753.008H221.704V750.902H220.354V753.008H218.68V754.16H220.354V761H221.704ZM226.75 750.596C226.75 750.11 226.354 749.732 225.868 749.732C225.4 749.732 225.004 750.11 225.004 750.596C225.004 751.064 225.4 751.46 225.868 751.46C226.354 751.46 226.75 751.064 226.75 750.596ZM226.552 761V753.008H225.202V761H226.552ZM228.388 757.004C228.388 759.56 230.08 761.162 232.24 761.162C233.014 761.162 233.824 760.982 234.382 760.496V759.128C233.806 759.704 233.104 759.956 232.33 759.956C230.908 759.956 229.756 758.84 229.756 757.004C229.756 755.168 230.908 754.052 232.33 754.052C233.104 754.052 233.806 754.304 234.382 754.88V753.512C233.824 753.026 233.014 752.846 232.24 752.846C230.08 752.846 228.388 754.448 228.388 757.004ZM240.74 755.69V756.734C240.398 756.428 239.57 756.086 238.742 756.086C237.032 756.086 235.7 757.094 235.7 758.588C235.7 760.172 237.032 761.144 238.67 761.144C239.606 761.144 240.434 760.73 240.74 760.406V761H242.054V755.582C242.054 753.89 240.938 752.846 239.048 752.846C238.058 752.846 237.104 753.134 236.564 753.512V754.79C237.23 754.358 237.95 754.088 238.832 754.088C240.002 754.088 240.74 754.7 240.74 755.69ZM240.74 758.192V759.02C240.524 759.614 239.732 760.01 238.886 760.01C237.914 760.01 236.978 759.56 236.978 758.588C236.978 757.634 237.914 757.202 238.886 757.202C239.732 757.202 240.524 757.598 240.74 758.192ZM245.712 761V749.3H244.362V761H245.712Z" fill="#444444"/>
<path d="M180.454 797.162C182.974 797.162 184.792 795.65 184.792 792.626V785.948H183.37V792.446C183.37 794.804 182.236 795.902 180.454 795.902C178.672 795.902 177.538 794.804 177.538 792.446V785.948H176.134V792.608C176.134 795.65 177.952 797.162 180.454 797.162ZM187.14 789.008V797H188.49V791.582C188.778 790.718 189.588 790.088 190.524 790.088C191.73 790.088 192.288 790.862 192.288 791.978V797H193.656V791.762C193.656 790.016 192.666 788.846 190.848 788.846C189.822 788.846 188.958 789.386 188.49 790.016V789.008H187.14ZM195.37 793.004C195.37 795.56 197.062 797.162 199.222 797.162C199.996 797.162 200.806 796.982 201.364 796.496V795.128C200.788 795.704 200.086 795.956 199.312 795.956C197.89 795.956 196.738 794.84 196.738 793.004C196.738 791.168 197.89 790.052 199.312 790.052C200.086 790.052 200.788 790.304 201.364 790.88V789.512C200.806 789.026 199.996 788.846 199.222 788.846C197.062 788.846 195.37 790.448 195.37 793.004ZM210.009 793.004C210.009 790.556 208.515 788.846 206.337 788.846C204.141 788.846 202.665 790.556 202.665 793.004C202.665 795.452 204.141 797.162 206.337 797.162C208.515 797.162 210.009 795.452 210.009 793.004ZM208.641 793.004C208.641 794.75 207.777 795.974 206.337 795.974C204.897 795.974 204.033 794.75 204.033 793.004C204.033 791.258 204.897 790.034 206.337 790.034C207.777 790.034 208.641 791.258 208.641 793.004ZM211.837 789.008V797H213.187V791.582C213.475 790.718 214.285 790.088 215.221 790.088C216.427 790.088 216.985 790.862 216.985 791.978V797H218.353V791.762C218.353 790.016 217.363 788.846 215.545 788.846C214.519 788.846 213.655 789.386 213.187 790.016V789.008H211.837ZM224.64 786.542V785.318C224.334 785.192 224.028 785.138 223.596 785.138C222.192 785.138 221.148 786.074 221.148 787.676V789.008H219.798V790.16H221.148V797H222.48V790.16H224.28V789.008H222.48V787.784C222.48 786.83 223.002 786.326 223.794 786.326C224.082 786.326 224.388 786.38 224.64 786.542ZM227.394 786.596C227.394 786.11 226.998 785.732 226.512 785.732C226.044 785.732 225.648 786.11 225.648 786.596C225.648 787.064 226.044 787.46 226.512 787.46C226.998 787.46 227.394 787.064 227.394 786.596ZM227.196 797V789.008H225.846V797H227.196ZM234.828 795.938V796.46C234.828 798.17 233.712 799.016 232.29 799.016C231.354 799.016 230.508 798.764 229.716 798.026V799.52C230.328 799.952 231.264 800.24 232.29 800.24C234.198 800.24 236.196 799.16 236.196 796.37V789.008H234.828V789.908C234.432 789.35 233.586 788.846 232.596 788.846C230.256 788.846 229.032 790.79 229.032 792.932C229.032 795.074 230.256 797.018 232.596 797.018C233.586 797.018 234.432 796.496 234.828 795.938ZM234.828 791.294V794.552C234.414 795.308 233.658 795.794 232.794 795.794C231.282 795.794 230.4 794.588 230.4 792.932C230.4 791.258 231.282 790.052 232.794 790.052C233.658 790.052 234.414 790.538 234.828 791.294ZM244.963 797V789.008H243.595V794.426C243.307 795.29 242.533 795.92 241.597 795.92C240.391 795.92 239.851 795.146 239.851 794.03V789.008H238.483V794.246C238.483 795.992 239.455 797.162 241.273 797.162C242.299 797.162 243.145 796.622 243.595 795.992V797H244.963ZM251.466 790.358V788.972C251.322 788.9 251.034 788.846 250.692 788.846C249.81 788.846 249.054 789.368 248.712 790.052V789.008H247.362V797H248.712V791.636C248.982 790.7 249.72 790.142 250.566 790.142C250.908 790.142 251.25 790.214 251.466 790.358ZM253.673 793.238H259.181V792.752C259.181 790.412 258.065 788.846 255.905 788.846C253.781 788.846 252.341 790.592 252.341 793.076C252.341 795.596 253.889 797.162 256.193 797.162C257.147 797.162 257.975 796.964 258.623 796.46V795.218C257.903 795.758 257.255 795.974 256.355 795.974C254.897 795.974 253.727 795.092 253.673 793.238ZM255.923 789.998C257.219 789.998 257.813 791.006 257.867 792.176H253.745C253.997 790.7 254.861 789.998 255.923 789.998ZM266.294 796.064V797H267.662V785.3H266.294V789.944C265.898 789.368 265.034 788.846 264.044 788.846C261.704 788.846 260.444 790.754 260.444 793.004C260.444 795.272 261.704 797.162 264.044 797.162C265.034 797.162 265.898 796.64 266.294 796.064ZM266.294 791.384V794.624C265.88 795.452 265.088 795.938 264.242 795.938C262.712 795.938 261.812 794.696 261.812 793.004C261.812 791.312 262.712 790.07 264.242 790.07C265.088 790.07 265.88 790.556 266.294 791.384Z" fill="#263040"/>
<path d="M175.72 827.672V828.932H180.058V827.672H175.72ZM181.503 827.672V828.932H185.841V827.672H181.503Z" fill="#263040"/>
<path d="M185.404 857.948H183.982V862.682H177.736V857.948H176.314V869H177.736V863.96H183.982V869H185.404V857.948ZM191.405 857.786C189.263 857.786 187.661 859.406 187.661 861.548C187.661 863.672 189.191 865.292 191.315 865.292C191.747 865.292 192.233 865.148 192.521 864.968L190.199 869H191.657L194.177 864.608C194.897 863.348 195.149 862.448 195.149 861.548C195.149 859.406 193.565 857.786 191.405 857.786ZM188.957 861.548C188.957 860.108 190.001 859.01 191.405 859.01C192.809 859.01 193.853 860.108 193.853 861.548C193.853 862.97 192.809 864.086 191.405 864.086C190.001 864.086 188.957 862.97 188.957 861.548ZM201.944 867.902C199.64 867.902 198.164 866.138 198.164 863.474C198.164 860.81 199.766 859.064 202.07 859.064C203.276 859.064 204.32 859.442 205.256 860.288V858.776C204.482 858.164 203.366 857.786 202.07 857.786C199.028 857.786 196.742 860.036 196.742 863.474C196.742 866.894 198.83 869.162 201.908 869.162C203.276 869.162 204.734 868.748 205.796 867.578V863.258H202.052V864.446H204.482V867.056C203.762 867.65 202.952 867.902 201.944 867.902ZM207.268 867.074V868.532C207.736 868.838 208.528 869.162 209.428 869.162C211.552 869.162 212.686 867.992 212.686 865.328V857.948H211.264V865.274C211.264 867.11 210.706 867.866 209.392 867.866C208.582 867.866 207.97 867.578 207.268 867.074ZM214.317 857.948V859.208H218.169V869H219.591V859.208H223.443V857.948H214.317ZM232.846 869V867.722H226.798L232.9 858.02V857.948H224.8V859.208H230.668L224.53 868.928V869H232.846ZM243.922 857.948H242.5V862.682H236.254V857.948H234.832V869H236.254V863.96H242.5V869H243.922V857.948ZM247.69 865.31L251.056 857.948H249.652L245.764 866.426V866.498H250.966V869H252.28V866.498H254.116V865.31H252.28V862.646H250.966V865.31H247.69Z" fill="#263040"/>
</g>
<rect x="124.197" y="339" width="726.803" height="34" stroke="#FC5A5A" stroke-width="2"/>
<path d="M69.4224 790.293C69.813 790.683 69.813 791.317 69.4224 791.707L63.0585 798.071C62.6679 798.462 62.0348 798.462 61.6443 798.071C61.2537 797.681 61.2537 797.047 61.6443 796.657L67.3011 791L61.6443 785.343C61.2537 784.953 61.2537 784.319 61.6443 783.929C62.0348 783.538 62.6679 783.538 63.0585 783.929L69.4224 790.293ZM12 356H11V355H12V356ZM12 791V792H11V791H12ZM123 357H12V355H123V357ZM13 356V791H11V356H13ZM12 790H68.7153V792H12V790Z" fill="#FC5A5A"/>
<defs>
<clipPath id="clip0_2_64">
<rect width="198" height="144" fill="white" transform="translate(310 230)"/>
</clipPath>
<clipPath id="clip1_2_64">
<rect width="1078" height="453" fill="white" transform="translate(0 463)"/>
</clipPath>
</defs>
</svg>
