<svg width="1078" height="414" viewBox="0 0 1078 414" fill="none" xmlns="http://www.w3.org/2000/svg">
<rect width="1078" height="414" fill="white"/>
<rect x="40" y="194" width="998" height="36" rx="12" fill="white"/>
<rect width="48" height="36" transform="translate(40 194)" fill="white"/>
<rect x="52" y="200" width="24" height="24" rx="2" fill="white" stroke="#999999"/>
<path d="M40 229.5H88" stroke="#999999"/>
<rect x="88" y="194" width="188" height="36" fill="white"/>
<path d="M276 229.5L88 229.5" stroke="#999999"/>
<path d="M110.584 217V205.948H107.794V212.032L103.528 205.948H100.828V217H103.618V210.538L108.244 217H110.584ZM116.61 212.122V212.41C116.286 212.176 115.53 211.96 114.846 211.96C113.1 211.96 111.732 212.968 111.732 214.534C111.732 216.244 113.1 217.144 114.702 217.144C115.566 217.144 116.34 216.856 116.61 216.586V217H119.328V211.996C119.328 209.854 117.96 208.72 115.566 208.72C114.414 208.72 113.334 208.99 112.668 209.35V211.618C113.316 211.24 114.108 211.042 114.882 211.042C116.034 211.042 116.61 211.492 116.61 212.122ZM116.61 214.264V214.732C116.43 215.056 115.98 215.272 115.476 215.272C114.918 215.272 114.36 215.038 114.36 214.48C114.36 213.94 114.918 213.706 115.476 213.706C115.98 213.706 116.43 213.922 116.61 214.264ZM127.923 209.692C127.437 209.116 126.717 208.72 125.691 208.72C124.791 208.72 124.017 209.062 123.603 209.566V208.9H120.777V217H123.603V212.068C123.729 211.51 124.161 211.204 124.647 211.204C125.277 211.204 125.565 211.69 125.565 212.374V217H128.373V212.068C128.517 211.51 128.931 211.204 129.417 211.204C130.047 211.204 130.335 211.69 130.335 212.374V217H133.161V211.69C133.161 209.872 132.117 208.72 130.425 208.72C129.237 208.72 128.409 209.188 127.923 209.692ZM136.915 213.598H141.901V212.77C141.901 210.358 140.623 208.72 138.103 208.72C135.871 208.72 134.179 210.466 134.179 213.004C134.179 215.614 135.943 217.18 138.535 217.18C139.705 217.18 140.695 216.928 141.325 216.46V214.318C140.515 214.804 139.849 214.966 138.985 214.966C137.941 214.966 137.149 214.57 136.915 213.598ZM138.211 210.862C138.895 210.862 139.309 211.33 139.381 212.014H136.951C137.149 211.276 137.599 210.862 138.211 210.862Z" fill="black"/>
<rect x="276" y="194" width="198" height="36" fill="white"/>
<path d="M474 229.5L276 229.5" stroke="#999999"/>
<path d="M288.576 213.616V216.28C289.386 216.766 290.718 217.18 292.194 217.18C294.678 217.18 296.712 216.118 296.712 213.724C296.712 212.032 295.794 210.97 293.778 210.34L292.104 209.836C291.528 209.656 291.186 209.458 291.186 208.954C291.186 208.396 291.816 208.162 292.644 208.162C293.904 208.162 295.002 208.576 295.992 209.26V206.596C295.074 206.092 294.012 205.768 292.518 205.768C290.196 205.768 288.342 206.974 288.342 209.17C288.342 211.006 289.368 211.924 291.222 212.464L292.896 212.95C293.49 213.166 293.832 213.346 293.832 213.886C293.832 214.57 293.04 214.768 292.122 214.768C290.88 214.768 289.53 214.264 288.576 213.616ZM301.535 217V211.096H303.119V208.9H301.535V206.668H298.727V208.9H297.323V211.096H298.727V217H301.535ZM308.39 212.122V212.41C308.066 212.176 307.31 211.96 306.626 211.96C304.88 211.96 303.512 212.968 303.512 214.534C303.512 216.244 304.88 217.144 306.482 217.144C307.346 217.144 308.12 216.856 308.39 216.586V217H311.108V211.996C311.108 209.854 309.74 208.72 307.346 208.72C306.194 208.72 305.114 208.99 304.448 209.35V211.618C305.096 211.24 305.888 211.042 306.662 211.042C307.813 211.042 308.39 211.492 308.39 212.122ZM308.39 214.264V214.732C308.21 215.056 307.76 215.272 307.256 215.272C306.698 215.272 306.14 215.038 306.14 214.48C306.14 213.94 306.698 213.706 307.256 213.706C307.76 213.706 308.21 213.922 308.39 214.264ZM316.266 217V211.096H317.85V208.9H316.266V206.668H313.458V208.9H312.054V211.096H313.458V217H316.266ZM326.679 217V208.9H323.853V213.814C323.709 214.372 323.223 214.714 322.701 214.714C321.981 214.714 321.657 214.228 321.657 213.544V208.9H318.849V214.21C318.849 216.01 319.911 217.18 321.693 217.18C322.611 217.18 323.421 216.802 323.853 216.298V217H326.679ZM327.896 214.03V216.406C328.652 216.91 329.84 217.18 330.974 217.18C332.972 217.18 334.466 216.334 334.466 214.606C334.466 213.238 333.764 212.518 332 212.05L331.262 211.834C330.866 211.726 330.632 211.618 330.632 211.312C330.632 210.988 330.956 210.826 331.442 210.826C332.36 210.826 333.224 211.204 333.998 211.762V209.44C333.206 208.954 332.324 208.72 331.172 208.72C329.264 208.72 327.86 209.674 327.86 211.366C327.86 212.824 328.814 213.526 330.308 213.85L330.938 214.012C331.424 214.12 331.676 214.246 331.676 214.57C331.676 214.93 331.316 215.056 330.758 215.056C329.93 215.056 328.67 214.66 327.896 214.03Z" fill="black"/>
<rect x="474" y="194" width="188" height="36" fill="white"/>
<path d="M662 229.5L474 229.5" stroke="#999999"/>
<path d="M486.576 213.616V216.28C487.386 216.766 488.718 217.18 490.194 217.18C492.678 217.18 494.712 216.118 494.712 213.724C494.712 212.032 493.794 210.97 491.778 210.34L490.104 209.836C489.528 209.656 489.186 209.458 489.186 208.954C489.186 208.396 489.816 208.162 490.644 208.162C491.904 208.162 493.002 208.576 493.992 209.26V206.596C493.074 206.092 492.012 205.768 490.518 205.768C488.196 205.768 486.342 206.974 486.342 209.17C486.342 211.006 487.368 211.924 489.222 212.464L490.896 212.95C491.49 213.166 491.832 213.346 491.832 213.886C491.832 214.57 491.04 214.768 490.122 214.768C488.88 214.768 487.53 214.264 486.576 213.616ZM499.535 217V211.096H501.119V208.9H499.535V206.668H496.727V208.9H495.323V211.096H496.727V217H499.535ZM506.39 212.122V212.41C506.066 212.176 505.31 211.96 504.626 211.96C502.88 211.96 501.512 212.968 501.512 214.534C501.512 216.244 502.88 217.144 504.482 217.144C505.346 217.144 506.12 216.856 506.39 216.586V217H509.108V211.996C509.108 209.854 507.74 208.72 505.346 208.72C504.194 208.72 503.114 208.99 502.448 209.35V211.618C503.096 211.24 503.888 211.042 504.662 211.042C505.813 211.042 506.39 211.492 506.39 212.122ZM506.39 214.264V214.732C506.21 215.056 505.76 215.272 505.256 215.272C504.698 215.272 504.14 215.038 504.14 214.48C504.14 213.94 504.698 213.706 505.256 213.706C505.76 213.706 506.21 213.922 506.39 214.264ZM514.266 217V211.096H515.85V208.9H514.266V206.668H511.458V208.9H510.054V211.096H511.458V217H514.266ZM519.119 213.598H524.105V212.77C524.105 210.358 522.827 208.72 520.307 208.72C518.075 208.72 516.383 210.466 516.383 213.004C516.383 215.614 518.147 217.18 520.739 217.18C521.909 217.18 522.899 216.928 523.529 216.46V214.318C522.719 214.804 522.053 214.966 521.189 214.966C520.145 214.966 519.353 214.57 519.119 213.598ZM520.415 210.862C521.099 210.862 521.513 211.33 521.585 212.014H519.155C519.353 211.276 519.803 210.862 520.415 210.862Z" fill="black"/>
<rect x="662" y="194" width="188" height="36" fill="white"/>
<path d="M850 229.5L662 229.5" stroke="#999999"/>
<path d="M674.576 213.616V216.28C675.386 216.766 676.718 217.18 678.194 217.18C680.678 217.18 682.712 216.118 682.712 213.724C682.712 212.032 681.794 210.97 679.778 210.34L678.104 209.836C677.528 209.656 677.186 209.458 677.186 208.954C677.186 208.396 677.816 208.162 678.644 208.162C679.904 208.162 681.002 208.576 681.992 209.26V206.596C681.074 206.092 680.012 205.768 678.518 205.768C676.196 205.768 674.342 206.974 674.342 209.17C674.342 211.006 675.368 211.924 677.222 212.464L678.896 212.95C679.49 213.166 679.832 213.346 679.832 213.886C679.832 214.57 679.04 214.768 678.122 214.768C676.88 214.768 675.53 214.264 674.576 213.616ZM686.271 213.598H691.257V212.77C691.257 210.358 689.979 208.72 687.459 208.72C685.227 208.72 683.535 210.466 683.535 213.004C683.535 215.614 685.299 217.18 687.891 217.18C689.061 217.18 690.051 216.928 690.681 216.46V214.318C689.871 214.804 689.205 214.966 688.341 214.966C687.297 214.966 686.505 214.57 686.271 213.598ZM687.567 210.862C688.251 210.862 688.665 211.33 688.737 212.014H686.307C686.505 211.276 686.955 210.862 687.567 210.862ZM697.823 211.582V208.864C697.697 208.792 697.409 208.72 697.049 208.72C696.239 208.72 695.609 209.08 695.213 209.62V208.9H692.387V217H695.213V212.248C695.357 211.672 695.879 211.33 696.653 211.33C697.103 211.33 697.481 211.402 697.823 211.582ZM701.985 206.704C701.985 205.768 701.247 205.174 700.383 205.174C699.519 205.174 698.781 205.768 698.781 206.704C698.781 207.622 699.519 208.216 700.383 208.216C701.247 208.216 701.985 207.622 701.985 206.704ZM701.787 217V208.9H698.961V217H701.787ZM707.766 212.122V212.41C707.442 212.176 706.686 211.96 706.002 211.96C704.256 211.96 702.888 212.968 702.888 214.534C702.888 216.244 704.256 217.144 705.858 217.144C706.722 217.144 707.496 216.856 707.766 216.586V217H710.484V211.996C710.484 209.854 709.116 208.72 706.722 208.72C705.57 208.72 704.49 208.99 703.824 209.35V211.618C704.472 211.24 705.264 211.042 706.038 211.042C707.19 211.042 707.766 211.492 707.766 212.122ZM707.766 214.264V214.732C707.586 215.056 707.136 215.272 706.632 215.272C706.074 215.272 705.516 215.038 705.516 214.48C705.516 213.94 706.074 213.706 706.632 213.706C707.136 213.706 707.586 213.922 707.766 214.264ZM714.76 217V205.3H711.934V217H714.76Z" fill="black"/>
<rect x="850" y="194" width="188" height="36" fill="white"/>
<path d="M1038 229.5L850 229.5" stroke="#999999"/>
<path d="M865.69 213.562H867.67C870.064 213.562 871.684 212.212 871.684 209.764C871.684 207.298 870.064 205.948 867.67 205.948H862.828V217H865.69V213.562ZM868.876 209.764C868.876 210.592 868.408 211.15 867.364 211.15H865.69V208.378H867.364C868.408 208.378 868.876 208.918 868.876 209.764ZM880.395 212.95C880.395 210.448 878.721 208.72 876.255 208.72C873.807 208.72 872.115 210.448 872.115 212.95C872.115 215.452 873.807 217.18 876.255 217.18C878.721 217.18 880.395 215.452 880.395 212.95ZM877.623 212.95C877.623 214.066 877.137 214.84 876.255 214.84C875.391 214.84 874.905 214.066 874.905 212.95C874.905 211.834 875.391 211.042 876.255 211.042C877.137 211.042 877.623 211.834 877.623 212.95ZM888.952 213.292L887.746 208.9H885.946L884.722 213.292L883.444 208.9H880.636L883.246 217H885.64L886.792 212.896L887.944 217H890.338L892.948 208.9H890.248L888.952 213.292ZM895.91 213.598H900.896V212.77C900.896 210.358 899.618 208.72 897.098 208.72C894.866 208.72 893.174 210.466 893.174 213.004C893.174 215.614 894.938 217.18 897.53 217.18C898.7 217.18 899.69 216.928 900.32 216.46V214.318C899.51 214.804 898.844 214.966 897.98 214.966C896.936 214.966 896.144 214.57 895.91 213.598ZM897.206 210.862C897.89 210.862 898.304 211.33 898.376 212.014H895.946C896.144 211.276 896.594 210.862 897.206 210.862ZM907.462 211.582V208.864C907.336 208.792 907.048 208.72 906.688 208.72C905.878 208.72 905.248 209.08 904.852 209.62V208.9H902.026V217H904.852V212.248C904.996 211.672 905.518 211.33 906.292 211.33C906.742 211.33 907.12 211.402 907.462 211.582Z" fill="black"/>
<rect x="40" y="230" width="998" height="144" rx="12" fill="white"/>
<rect width="48" height="36" transform="translate(40 230)" fill="white"/>
<rect x="52" y="236" width="24" height="24" rx="2" fill="white" stroke="#999999"/>
<rect width="48" height="36" transform="translate(40 266)" fill="white"/>
<rect x="52" y="272" width="24" height="24" rx="2" fill="white" stroke="#999999"/>
<rect width="48" height="36" transform="translate(40 302)" fill="white"/>
<rect x="52" y="308" width="24" height="24" rx="2" fill="white" stroke="#999999"/>
<rect width="48" height="36" transform="translate(40 338)" fill="white"/>
<rect x="52" y="344" width="24" height="24" rx="2" fill="white" stroke="#999999"/>
<rect x="88" y="230" width="188" height="36" fill="white"/>
<path d="M110.89 241.948H107.992V246.142H103.726V241.948H100.828V253H103.726V248.626H107.992V253H110.89V241.948ZM115.397 249.562H117.377C119.771 249.562 121.391 248.212 121.391 245.764C121.391 243.298 119.771 241.948 117.377 241.948H112.535V253H115.397V249.562ZM118.583 245.764C118.583 246.592 118.115 247.15 117.071 247.15H115.397V244.378H117.071C118.115 244.378 118.583 244.918 118.583 245.764ZM130.527 241.948H122.625V253H130.527V250.498H125.469V248.59H130.095V246.16H125.469V244.432H130.527V241.948ZM131.491 253.756V255.898H137.629V253.756H131.491ZM138.562 249.616V252.28C139.372 252.766 140.704 253.18 142.18 253.18C144.664 253.18 146.698 252.118 146.698 249.724C146.698 248.032 145.78 246.97 143.764 246.34L142.09 245.836C141.514 245.656 141.172 245.458 141.172 244.954C141.172 244.396 141.802 244.162 142.63 244.162C143.89 244.162 144.988 244.576 145.978 245.26V242.596C145.06 242.092 143.998 241.768 142.504 241.768C140.182 241.768 138.328 242.974 138.328 245.17C138.328 247.006 139.354 247.924 141.208 248.464L142.882 248.95C143.476 249.166 143.818 249.346 143.818 249.886C143.818 250.57 143.026 250.768 142.108 250.768C140.866 250.768 139.516 250.264 138.562 249.616ZM153.194 250.606C151.52 250.606 150.386 249.382 150.386 247.51C150.386 245.602 151.628 244.432 153.392 244.432C154.742 244.432 155.75 244.828 156.596 245.44V242.632C155.786 242.11 154.616 241.768 153.392 241.768C149.882 241.768 147.488 244.036 147.488 247.51C147.488 250.84 149.648 253.18 153.104 253.18C154.634 253.18 156.056 252.73 157.172 251.704V246.826H153.014V249.13H154.616V250.21C154.256 250.48 153.77 250.606 153.194 250.606ZM161.523 253V241.948H158.625V253H161.523ZM167.048 253.18C169.37 253.18 171.224 251.974 171.224 249.94C171.224 248.644 170.432 247.726 169.442 247.384C170.324 246.952 170.882 246.07 170.882 244.99C170.882 242.902 169.082 241.768 167.048 241.768C165.014 241.768 163.214 242.902 163.214 244.99C163.214 246.07 163.754 246.952 164.654 247.384C163.646 247.726 162.854 248.644 162.854 249.94C162.854 251.974 164.726 253.18 167.048 253.18ZM167.048 246.196C166.346 246.196 165.788 245.746 165.788 245.08C165.788 244.378 166.346 243.928 167.048 243.928C167.75 243.928 168.308 244.378 168.308 245.08C168.308 245.746 167.75 246.196 167.048 246.196ZM167.048 250.948C166.238 250.948 165.626 250.462 165.626 249.724C165.626 248.968 166.238 248.5 167.048 248.5C167.858 248.5 168.47 248.968 168.47 249.724C168.47 250.462 167.858 250.948 167.048 250.948ZM176.381 253.18C178.811 253.18 180.593 251.434 180.593 249.076C180.593 247.042 179.171 245.404 177.011 245.242C176.921 245.242 176.813 245.26 176.741 245.278L178.631 241.948H175.553L173.231 245.962C172.457 247.276 172.187 248.14 172.187 249.076C172.187 251.434 173.969 253.18 176.381 253.18ZM177.983 249.076C177.983 249.994 177.317 250.678 176.381 250.678C175.499 250.678 174.797 249.994 174.797 249.076C174.797 248.176 175.499 247.456 176.381 247.456C177.317 247.456 177.983 248.176 177.983 249.076ZM185.733 253.18C188.451 253.18 190.053 250.84 190.053 247.474C190.053 244.108 188.451 241.768 185.733 241.768C183.015 241.768 181.413 244.108 181.413 247.474C181.413 250.84 183.015 253.18 185.733 253.18ZM185.733 244.306C186.885 244.306 187.245 245.764 187.245 247.474C187.245 249.184 186.885 250.642 185.733 250.642C184.563 250.642 184.221 249.184 184.221 247.474C184.221 245.764 184.563 244.306 185.733 244.306ZM195.084 253.18C197.802 253.18 199.404 250.84 199.404 247.474C199.404 244.108 197.802 241.768 195.084 241.768C192.366 241.768 190.764 244.108 190.764 247.474C190.764 250.84 192.366 253.18 195.084 253.18ZM195.084 244.306C196.236 244.306 196.596 245.764 196.596 247.474C196.596 249.184 196.236 250.642 195.084 250.642C193.914 250.642 193.572 249.184 193.572 247.474C193.572 245.764 193.914 244.306 195.084 244.306Z" fill="#444444"/>
<rect x="88" y="266" width="188" height="36" fill="white"/>
<path d="M110.89 277.948H107.992V282.142H103.726V277.948H100.828V289H103.726V284.626H107.992V289H110.89V277.948ZM115.397 285.562H117.377C119.771 285.562 121.391 284.212 121.391 281.764C121.391 279.298 119.771 277.948 117.377 277.948H112.535V289H115.397V285.562ZM118.583 281.764C118.583 282.592 118.115 283.15 117.071 283.15H115.397V280.378H117.071C118.115 280.378 118.583 280.918 118.583 281.764ZM130.527 277.948H122.625V289H130.527V286.498H125.469V284.59H130.095V282.16H125.469V280.432H130.527V277.948ZM131.491 289.756V291.898H137.629V289.756H131.491ZM145.276 277.948H142.324L138.112 289H140.974L141.748 286.858H145.762L146.554 289H149.488L145.276 277.948ZM142.63 284.482L143.764 281.368L144.898 284.482H142.63ZM153.313 285.562H155.293C157.687 285.562 159.307 284.212 159.307 281.764C159.307 279.298 157.687 277.948 155.293 277.948H150.451V289H153.313V285.562ZM156.499 281.764C156.499 282.592 156.031 283.15 154.987 283.15H153.313V280.378H154.987C156.031 280.378 156.499 280.918 156.499 281.764ZM170.909 283.474C170.909 280.162 168.695 277.768 165.491 277.768C162.305 277.768 160.109 280.162 160.109 283.474C160.109 286.768 162.305 289.18 165.491 289.18C168.695 289.18 170.909 286.768 170.909 283.474ZM167.993 283.474C167.993 285.382 166.985 286.642 165.491 286.642C163.997 286.642 163.025 285.382 163.025 283.474C163.025 281.566 163.997 280.306 165.491 280.306C166.985 280.306 167.993 281.566 167.993 283.474ZM172.107 277.948V289H179.955V286.498H175.005V277.948H172.107ZM181.283 277.948V289H189.131V286.498H184.181V277.948H181.283ZM200.44 283.474C200.44 280.162 198.226 277.768 195.022 277.768C191.836 277.768 189.64 280.162 189.64 283.474C189.64 286.768 191.836 289.18 195.022 289.18C198.226 289.18 200.44 286.768 200.44 283.474ZM197.524 283.474C197.524 285.382 196.516 286.642 195.022 286.642C193.528 286.642 192.556 285.382 192.556 283.474C192.556 281.566 193.528 280.306 195.022 280.306C196.516 280.306 197.524 281.566 197.524 283.474ZM205.491 289.18C207.921 289.18 209.703 287.434 209.703 285.076C209.703 283.042 208.281 281.404 206.121 281.242C206.031 281.242 205.923 281.26 205.851 281.278L207.741 277.948H204.663L202.341 281.962C201.567 283.276 201.297 284.14 201.297 285.076C201.297 287.434 203.079 289.18 205.491 289.18ZM207.093 285.076C207.093 285.994 206.427 286.678 205.491 286.678C204.609 286.678 203.907 285.994 203.907 285.076C203.907 284.176 204.609 283.456 205.491 283.456C206.427 283.456 207.093 284.176 207.093 285.076ZM214.59 281.746C214.248 281.746 213.87 281.782 213.654 281.836V280.432H218.118V277.948H211.404V284.482C212.106 284.212 213.096 284.05 213.978 284.05C215.166 284.05 216.066 284.518 216.066 285.472C216.066 286.408 215.13 286.84 214.086 286.84C212.934 286.84 211.8 286.336 211.026 285.652V288.262C211.818 288.784 212.898 289.18 214.32 289.18C216.858 289.18 218.748 287.722 218.748 285.436C218.748 283.132 216.948 281.746 214.59 281.746ZM224.194 289.18C226.912 289.18 228.514 286.84 228.514 283.474C228.514 280.108 226.912 277.768 224.194 277.768C221.476 277.768 219.874 280.108 219.874 283.474C219.874 286.84 221.476 289.18 224.194 289.18ZM224.194 280.306C225.346 280.306 225.706 281.764 225.706 283.474C225.706 285.184 225.346 286.642 224.194 286.642C223.024 286.642 222.682 285.184 222.682 283.474C222.682 281.764 223.024 280.306 224.194 280.306ZM233.545 289.18C236.263 289.18 237.865 286.84 237.865 283.474C237.865 280.108 236.263 277.768 233.545 277.768C230.827 277.768 229.225 280.108 229.225 283.474C229.225 286.84 230.827 289.18 233.545 289.18ZM233.545 280.306C234.697 280.306 235.057 281.764 235.057 283.474C235.057 285.184 234.697 286.642 233.545 286.642C232.375 286.642 232.033 285.184 232.033 283.474C232.033 281.764 232.375 280.306 233.545 280.306Z" fill="#444444"/>
<rect x="88" y="302" width="188" height="36" fill="white"/>
<path d="M110.584 325V313.948H107.794V320.032L103.528 313.948H100.828V325H103.618V318.538L108.244 325H110.584ZM120.012 320.95C120.012 318.448 118.338 316.72 115.872 316.72C113.424 316.72 111.732 318.448 111.732 320.95C111.732 323.452 113.424 325.18 115.872 325.18C118.338 325.18 120.012 323.452 120.012 320.95ZM117.24 320.95C117.24 322.066 116.754 322.84 115.872 322.84C115.008 322.84 114.522 322.066 114.522 320.95C114.522 319.834 115.008 319.042 115.872 319.042C116.754 319.042 117.24 319.834 117.24 320.95ZM124.785 325V319.096H126.369V316.9H124.785V314.668H121.977V316.9H120.573V319.096H121.977V325H124.785ZM130.72 322.03V324.406C131.476 324.91 132.664 325.18 133.798 325.18C135.796 325.18 137.29 324.334 137.29 322.606C137.29 321.238 136.588 320.518 134.824 320.05L134.086 319.834C133.69 319.726 133.456 319.618 133.456 319.312C133.456 318.988 133.78 318.826 134.266 318.826C135.184 318.826 136.048 319.204 136.822 319.762V317.44C136.03 316.954 135.148 316.72 133.996 316.72C132.088 316.72 130.684 317.674 130.684 319.366C130.684 320.824 131.638 321.526 133.132 321.85L133.762 322.012C134.248 322.12 134.5 322.246 134.5 322.57C134.5 322.93 134.14 323.056 133.582 323.056C132.754 323.056 131.494 322.66 130.72 322.03ZM140.765 321.598H145.751V320.77C145.751 318.358 144.473 316.72 141.953 316.72C139.721 316.72 138.029 318.466 138.029 321.004C138.029 323.614 139.793 325.18 142.385 325.18C143.555 325.18 144.545 324.928 145.175 324.46V322.318C144.365 322.804 143.699 322.966 142.835 322.966C141.791 322.966 140.999 322.57 140.765 321.598ZM142.061 318.862C142.745 318.862 143.159 319.33 143.231 320.014H140.801C140.999 319.276 141.449 318.862 142.061 318.862ZM150.59 325V319.096H152.174V316.9H150.59V314.668H147.782V316.9H146.378V319.096H147.782V325H150.59Z" fill="#444444"/>
<rect x="88" y="338" width="188" height="36" fill="white"/>
<path d="M110.89 349.948H107.992V354.142H103.726V349.948H100.828V361H103.726V356.626H107.992V361H110.89V349.948ZM115.397 357.562H117.377C119.771 357.562 121.391 356.212 121.391 353.764C121.391 351.298 119.771 349.948 117.377 349.948H112.535V361H115.397V357.562ZM118.583 353.764C118.583 354.592 118.115 355.15 117.071 355.15H115.397V352.378H117.071C118.115 352.378 118.583 352.918 118.583 353.764ZM130.527 349.948H122.625V361H130.527V358.498H125.469V356.59H130.095V354.16H125.469V352.432H130.527V349.948ZM131.491 361.756V363.898H137.629V361.756H131.491ZM138.562 357.616V360.28C139.372 360.766 140.704 361.18 142.18 361.18C144.664 361.18 146.698 360.118 146.698 357.724C146.698 356.032 145.78 354.97 143.764 354.34L142.09 353.836C141.514 353.656 141.172 353.458 141.172 352.954C141.172 352.396 141.802 352.162 142.63 352.162C143.89 352.162 144.988 352.576 145.978 353.26V350.596C145.06 350.092 143.998 349.768 142.504 349.768C140.182 349.768 138.328 350.974 138.328 353.17C138.328 355.006 139.354 355.924 141.208 356.464L142.882 356.95C143.476 357.166 143.818 357.346 143.818 357.886C143.818 358.57 143.026 358.768 142.108 358.768C140.866 358.768 139.516 358.264 138.562 357.616ZM152.583 361.18C155.499 361.18 157.389 359.524 157.389 356.5V349.948H154.509V356.23C154.509 357.796 153.771 358.606 152.583 358.606C151.377 358.606 150.639 357.796 150.639 356.23V349.948H147.759V356.482C147.759 359.524 149.667 361.18 152.583 361.18ZM161.786 357.562H163.766C166.16 357.562 167.78 356.212 167.78 353.764C167.78 351.298 166.16 349.948 163.766 349.948H158.924V361H161.786V357.562ZM164.972 353.764C164.972 354.592 164.504 355.15 163.46 355.15H161.786V352.378H163.46C164.504 352.378 164.972 352.918 164.972 353.764ZM176.916 349.948H169.014V361H176.916V358.498H171.858V356.59H176.484V354.16H171.858V352.432H176.916V349.948ZM181.21 357.346H182.218L184.522 361H187.726L185.134 357.04C186.484 356.536 187.33 355.384 187.33 353.71C187.33 351.298 185.692 349.948 183.316 349.948H178.348V361H181.21V357.346ZM181.21 355.042V352.378H183.01C184.036 352.378 184.504 352.9 184.504 353.71C184.504 354.52 184.036 355.042 183.01 355.042H181.21ZM188.683 349.948V361H192.859C196.333 361 198.439 358.84 198.439 355.474C198.439 352.108 196.333 349.948 192.859 349.948H188.683ZM192.715 358.498H191.527V352.432H192.715C194.551 352.432 195.577 353.602 195.577 355.474C195.577 357.328 194.551 358.498 192.715 358.498ZM210.108 355.474C210.108 352.162 207.894 349.768 204.69 349.768C201.504 349.768 199.308 352.162 199.308 355.474C199.308 358.768 201.504 361.18 204.69 361.18C207.894 361.18 210.108 358.768 210.108 355.474ZM207.192 355.474C207.192 357.382 206.184 358.642 204.69 358.642C203.196 358.642 202.224 357.382 202.224 355.474C202.224 353.566 203.196 352.306 204.69 352.306C206.184 352.306 207.192 353.566 207.192 355.474ZM216.977 358.624H217.049L219.875 354.664V361H222.719V349.948H220.055L217.013 354.448L213.989 349.948H211.307V361H214.133V354.664L216.977 358.624ZM232.269 349.948H224.367V361H232.269V358.498H227.211V356.59H231.837V354.16H227.211V352.432H232.269V349.948Z" fill="#444444"/>
<g clip-path="url(#clip0_7795:147869)">
<path d="M294 253C296.761 253 299 250.761 299 248C299 245.239 296.761 243 294 243C291.239 243 289 245.239 289 248C289 250.761 291.239 253 294 253Z" fill="#17EBA0" stroke="#17EBA0"/>
<rect x="300" y="230" width="176" height="36" fill="white"/>
<path d="M321.9 253V241.948H320.55V250.354L314.664 241.948H313.314V253H314.682V244.216L320.856 253H321.9ZM331.189 249.004C331.189 246.556 329.695 244.846 327.517 244.846C325.321 244.846 323.845 246.556 323.845 249.004C323.845 251.452 325.321 253.162 327.517 253.162C329.695 253.162 331.189 251.452 331.189 249.004ZM329.821 249.004C329.821 250.75 328.957 251.974 327.517 251.974C326.077 251.974 325.213 250.75 325.213 249.004C325.213 247.258 326.077 246.034 327.517 246.034C328.957 246.034 329.821 247.258 329.821 249.004ZM337.121 246.358V244.972C336.977 244.9 336.689 244.846 336.347 244.846C335.465 244.846 334.709 245.368 334.367 246.052V245.008H333.017V253H334.367V247.636C334.637 246.7 335.375 246.142 336.221 246.142C336.563 246.142 336.905 246.214 337.121 246.358ZM344.47 246.124C344.092 245.368 343.318 244.846 342.31 244.846C341.32 244.846 340.546 245.314 340.15 245.944V245.008H338.8V253H340.15V247.492C340.402 246.628 341.104 246.07 341.914 246.07C342.94 246.07 343.426 246.808 343.426 247.924V253H344.776V247.492C345.028 246.628 345.73 246.07 346.54 246.07C347.566 246.07 348.052 246.808 348.052 247.924V253H349.42V247.708C349.42 245.98 348.52 244.846 346.9 244.846C345.784 244.846 344.974 245.404 344.47 246.124ZM356.148 247.69V248.734C355.806 248.428 354.978 248.086 354.15 248.086C352.44 248.086 351.108 249.094 351.108 250.588C351.108 252.172 352.44 253.144 354.078 253.144C355.014 253.144 355.842 252.73 356.148 252.406V253H357.462V247.582C357.462 245.89 356.346 244.846 354.456 244.846C353.466 244.846 352.512 245.134 351.972 245.512V246.79C352.638 246.358 353.358 246.088 354.24 246.088C355.41 246.088 356.148 246.7 356.148 247.69ZM356.148 250.192V251.02C355.932 251.614 355.14 252.01 354.294 252.01C353.322 252.01 352.386 251.56 352.386 250.588C352.386 249.634 353.322 249.202 354.294 249.202C355.14 249.202 355.932 249.598 356.148 250.192ZM361.12 253V241.3H359.77V253H361.12Z" fill="#444444"/>
<path fill-rule="evenodd" clip-rule="evenodd" d="M294 279L299 288H289L294 279Z" fill="#FFBC44" stroke="#FFBC44" stroke-linejoin="round"/>
<rect x="300" y="266" width="176" height="36" fill="white"/>
<path d="M319.488 277.948H318.354L316.014 286.732L313.746 277.948H312.342L315.276 289H316.554L318.912 280.378L321.234 289H322.53L325.464 277.948H324.096L321.828 286.732L319.488 277.948ZM330.941 283.69V284.734C330.599 284.428 329.771 284.086 328.943 284.086C327.233 284.086 325.901 285.094 325.901 286.588C325.901 288.172 327.233 289.144 328.871 289.144C329.807 289.144 330.635 288.73 330.941 288.406V289H332.255V283.582C332.255 281.89 331.139 280.846 329.249 280.846C328.259 280.846 327.305 281.134 326.765 281.512V282.79C327.431 282.358 328.151 282.088 329.033 282.088C330.203 282.088 330.941 282.7 330.941 283.69ZM330.941 286.192V287.02C330.725 287.614 329.933 288.01 329.087 288.01C328.115 288.01 327.179 287.56 327.179 286.588C327.179 285.634 328.115 285.202 329.087 285.202C329.933 285.202 330.725 285.598 330.941 286.192ZM338.667 282.358V280.972C338.523 280.9 338.235 280.846 337.893 280.846C337.011 280.846 336.255 281.368 335.913 282.052V281.008H334.563V289H335.913V283.636C336.183 282.7 336.921 282.142 337.767 282.142C338.109 282.142 338.451 282.214 338.667 282.358ZM340.347 281.008V289H341.697V283.582C341.985 282.718 342.795 282.088 343.731 282.088C344.937 282.088 345.495 282.862 345.495 283.978V289H346.863V283.762C346.863 282.016 345.873 280.846 344.055 280.846C343.029 280.846 342.165 281.386 341.697 282.016V281.008H340.347ZM350.701 278.596C350.701 278.11 350.305 277.732 349.819 277.732C349.351 277.732 348.955 278.11 348.955 278.596C348.955 279.064 349.351 279.46 349.819 279.46C350.305 279.46 350.701 279.064 350.701 278.596ZM350.503 289V281.008H349.153V289H350.503ZM352.915 281.008V289H354.265V283.582C354.553 282.718 355.363 282.088 356.299 282.088C357.505 282.088 358.063 282.862 358.063 283.978V289H359.431V283.762C359.431 282.016 358.441 280.846 356.623 280.846C355.597 280.846 354.733 281.386 354.265 282.016V281.008H352.915ZM366.942 287.938V288.46C366.942 290.17 365.826 291.016 364.404 291.016C363.468 291.016 362.622 290.764 361.83 290.026V291.52C362.442 291.952 363.378 292.24 364.404 292.24C366.312 292.24 368.31 291.16 368.31 288.37V281.008H366.942V281.908C366.546 281.35 365.7 280.846 364.71 280.846C362.37 280.846 361.146 282.79 361.146 284.932C361.146 287.074 362.37 289.018 364.71 289.018C365.7 289.018 366.546 288.496 366.942 287.938ZM366.942 283.294V286.552C366.528 287.308 365.772 287.794 364.908 287.794C363.396 287.794 362.514 286.588 362.514 284.932C362.514 283.258 363.396 282.052 364.908 282.052C365.772 282.052 366.528 282.538 366.942 283.294Z" fill="#444444"/>
<path d="M298 315H290C289.448 315 289 315.448 289 316V324C289 324.552 289.448 325 290 325H298C298.552 325 299 324.552 299 324V316C299 315.448 298.552 315 298 315Z" fill="#CCCCCC" stroke="#CCCCCC"/>
<rect x="300" y="302" width="176" height="36" fill="white"/>
<path d="M317.454 325.162C319.974 325.162 321.792 323.65 321.792 320.626V313.948H320.37V320.446C320.37 322.804 319.236 323.902 317.454 323.902C315.672 323.902 314.538 322.804 314.538 320.446V313.948H313.134V320.608C313.134 323.65 314.952 325.162 317.454 325.162ZM324.14 317.008V325H325.49V319.582C325.778 318.718 326.588 318.088 327.524 318.088C328.73 318.088 329.288 318.862 329.288 319.978V325H330.656V319.762C330.656 318.016 329.666 316.846 327.848 316.846C326.822 316.846 325.958 317.386 325.49 318.016V317.008H324.14ZM339.66 325L335.664 320.662L339.588 317.008H337.842L334.296 320.374V313.3H332.946V325H334.296V321.04L337.986 325H339.66ZM340.962 317.008V325H342.312V319.582C342.6 318.718 343.41 318.088 344.346 318.088C345.552 318.088 346.11 318.862 346.11 319.978V325H347.478V319.762C347.478 318.016 346.488 316.846 344.67 316.846C343.644 316.846 342.78 317.386 342.312 318.016V317.008H340.962ZM356.537 321.004C356.537 318.556 355.043 316.846 352.865 316.846C350.669 316.846 349.193 318.556 349.193 321.004C349.193 323.452 350.669 325.162 352.865 325.162C355.043 325.162 356.537 323.452 356.537 321.004ZM355.169 321.004C355.169 322.75 354.305 323.974 352.865 323.974C351.425 323.974 350.561 322.75 350.561 321.004C350.561 319.258 351.425 318.034 352.865 318.034C354.305 318.034 355.169 319.258 355.169 321.004ZM365.078 323.11L363.44 317.008H362.234L360.596 323.11L358.832 317.008H357.482L359.84 325H361.154L362.828 318.934L364.484 325H365.798L368.156 317.008H366.842L365.078 323.11ZM369.685 317.008V325H371.035V319.582C371.323 318.718 372.133 318.088 373.069 318.088C374.275 318.088 374.833 318.862 374.833 319.978V325H376.201V319.762C376.201 318.016 375.211 316.846 373.393 316.846C372.367 316.846 371.503 317.386 371.035 318.016V317.008H369.685Z" fill="#444444"/>
<path fill-rule="evenodd" clip-rule="evenodd" d="M294.712 351.263C294.319 350.869 293.683 350.867 293.287 351.263L289.263 355.287C288.869 355.681 288.867 356.316 289.263 356.712L293.287 360.737C293.681 361.13 294.316 361.132 294.712 360.737L298.737 356.712C299.13 356.319 299.132 355.683 298.737 355.287L294.712 351.263Z" fill="#FC5A5A" stroke="#FC5A5A"/>
<rect x="300" y="338" width="176" height="36" fill="white"/>
<path d="M312.666 355.474C312.666 358.93 314.898 361.162 317.85 361.162C319.128 361.162 320.1 360.802 320.82 360.208V358.714C319.92 359.524 319.002 359.884 317.868 359.884C315.636 359.884 314.088 358.138 314.088 355.474C314.088 352.81 315.636 351.064 317.868 351.064C319.002 351.064 319.92 351.406 320.82 352.234V350.74C320.1 350.146 319.128 349.786 317.85 349.786C314.898 349.786 312.666 352.018 312.666 355.474ZM327.031 354.358V352.972C326.887 352.9 326.599 352.846 326.257 352.846C325.375 352.846 324.619 353.368 324.277 354.052V353.008H322.927V361H324.277V355.636C324.547 354.7 325.285 354.142 326.131 354.142C326.473 354.142 326.815 354.214 327.031 354.358ZM330.258 350.596C330.258 350.11 329.862 349.732 329.376 349.732C328.908 349.732 328.512 350.11 328.512 350.596C328.512 351.064 328.908 351.46 329.376 351.46C329.862 351.46 330.258 351.064 330.258 350.596ZM330.06 361V353.008H328.71V361H330.06ZM334.704 361V354.16H336.558V353.008H334.704V350.902H333.354V353.008H331.68V354.16H333.354V361H334.704ZM339.75 350.596C339.75 350.11 339.354 349.732 338.868 349.732C338.4 349.732 338.004 350.11 338.004 350.596C338.004 351.064 338.4 351.46 338.868 351.46C339.354 351.46 339.75 351.064 339.75 350.596ZM339.552 361V353.008H338.202V361H339.552ZM341.388 357.004C341.388 359.56 343.08 361.162 345.24 361.162C346.014 361.162 346.824 360.982 347.382 360.496V359.128C346.806 359.704 346.104 359.956 345.33 359.956C343.908 359.956 342.756 358.84 342.756 357.004C342.756 355.168 343.908 354.052 345.33 354.052C346.104 354.052 346.806 354.304 347.382 354.88V353.512C346.824 353.026 346.014 352.846 345.24 352.846C343.08 352.846 341.388 354.448 341.388 357.004ZM353.74 355.69V356.734C353.398 356.428 352.57 356.086 351.742 356.086C350.032 356.086 348.7 357.094 348.7 358.588C348.7 360.172 350.032 361.144 351.67 361.144C352.606 361.144 353.434 360.73 353.74 360.406V361H355.054V355.582C355.054 353.89 353.938 352.846 352.048 352.846C351.058 352.846 350.104 353.134 349.564 353.512V354.79C350.23 354.358 350.95 354.088 351.832 354.088C353.002 354.088 353.74 354.7 353.74 355.69ZM353.74 358.192V359.02C353.524 359.614 352.732 360.01 351.886 360.01C350.914 360.01 349.978 359.56 349.978 358.588C349.978 357.634 350.914 357.202 351.886 357.202C352.732 357.202 353.524 357.598 353.74 358.192ZM358.712 361V349.3H357.362V361H358.712Z" fill="#444444"/>
</g>
<rect x="474" y="230" width="188" height="36" fill="white"/>
<path d="M488.736 248.32H490.698L493.866 253H495.486L492.21 248.266C493.956 248.014 495.036 246.988 495.036 245.152C495.036 243.064 493.596 241.948 491.364 241.948H487.314V253H488.736V248.32ZM488.736 247.114V243.19H491.328C492.786 243.19 493.632 243.928 493.632 245.152C493.632 246.376 492.786 247.114 491.328 247.114H488.736ZM503.457 253V245.008H502.089V250.426C501.801 251.29 501.027 251.92 500.091 251.92C498.885 251.92 498.345 251.146 498.345 250.03V245.008H496.977V250.246C496.977 251.992 497.949 253.162 499.767 253.162C500.793 253.162 501.639 252.622 502.089 251.992V253H503.457ZM505.856 245.008V253H507.206V247.582C507.494 246.718 508.304 246.088 509.24 246.088C510.446 246.088 511.004 246.862 511.004 247.978V253H512.372V247.762C512.372 246.016 511.382 244.846 509.564 244.846C508.538 244.846 507.674 245.386 507.206 246.016V245.008H505.856ZM514.663 245.008V253H516.013V247.582C516.301 246.718 517.111 246.088 518.047 246.088C519.253 246.088 519.811 246.862 519.811 247.978V253H521.179V247.762C521.179 246.016 520.189 244.846 518.371 244.846C517.345 244.846 516.481 245.386 516.013 246.016V245.008H514.663ZM525.018 242.596C525.018 242.11 524.622 241.732 524.136 241.732C523.668 241.732 523.272 242.11 523.272 242.596C523.272 243.064 523.668 243.46 524.136 243.46C524.622 243.46 525.018 243.064 525.018 242.596ZM524.82 253V245.008H523.47V253H524.82ZM527.231 245.008V253H528.581V247.582C528.869 246.718 529.679 246.088 530.615 246.088C531.821 246.088 532.379 246.862 532.379 247.978V253H533.747V247.762C533.747 246.016 532.757 244.846 530.939 244.846C529.913 244.846 529.049 245.386 528.581 246.016V245.008H527.231ZM541.258 251.938V252.46C541.258 254.17 540.142 255.016 538.72 255.016C537.784 255.016 536.938 254.764 536.146 254.026V255.52C536.758 255.952 537.694 256.24 538.72 256.24C540.628 256.24 542.626 255.16 542.626 252.37V245.008H541.258V245.908C540.862 245.35 540.016 244.846 539.026 244.846C536.686 244.846 535.462 246.79 535.462 248.932C535.462 251.074 536.686 253.018 539.026 253.018C540.016 253.018 540.862 252.496 541.258 251.938ZM541.258 247.294V250.552C540.844 251.308 540.088 251.794 539.224 251.794C537.712 251.794 536.83 250.588 536.83 248.932C536.83 247.258 537.712 246.052 539.224 246.052C540.088 246.052 540.844 246.538 541.258 247.294Z" fill="#444444"/>
<rect x="474" y="266" width="188" height="36" fill="white"/>
<path d="M491.454 289.162C493.974 289.162 495.792 287.65 495.792 284.626V277.948H494.37V284.446C494.37 286.804 493.236 287.902 491.454 287.902C489.672 287.902 488.538 286.804 488.538 284.446V277.948H487.134V284.608C487.134 287.65 488.952 289.162 491.454 289.162ZM499.49 292.06V288.064C499.904 288.64 500.75 289.162 501.74 289.162C504.098 289.162 505.34 287.218 505.34 285.004C505.34 282.79 504.098 280.846 501.74 280.846C500.75 280.846 499.904 281.368 499.49 281.944V281.008H498.14V292.06H499.49ZM499.49 286.624V283.384C499.904 282.556 500.696 282.07 501.542 282.07C503.072 282.07 503.972 283.312 503.972 285.004C503.972 286.696 503.072 287.938 501.542 287.938C500.696 287.938 499.904 287.452 499.49 286.624ZM512.484 288.064V289H513.852V277.3H512.484V281.944C512.088 281.368 511.224 280.846 510.234 280.846C507.894 280.846 506.634 282.754 506.634 285.004C506.634 287.272 507.894 289.162 510.234 289.162C511.224 289.162 512.088 288.64 512.484 288.064ZM512.484 283.384V286.624C512.07 287.452 511.278 287.938 510.432 287.938C508.902 287.938 508.002 286.696 508.002 285.004C508.002 283.312 508.902 282.07 510.432 282.07C511.278 282.07 512.07 282.556 512.484 283.384ZM520.691 283.69V284.734C520.349 284.428 519.521 284.086 518.693 284.086C516.983 284.086 515.651 285.094 515.651 286.588C515.651 288.172 516.983 289.144 518.621 289.144C519.557 289.144 520.385 288.73 520.691 288.406V289H522.005V283.582C522.005 281.89 520.889 280.846 518.999 280.846C518.009 280.846 517.055 281.134 516.515 281.512V282.79C517.181 282.358 517.901 282.088 518.783 282.088C519.953 282.088 520.691 282.7 520.691 283.69ZM520.691 286.192V287.02C520.475 287.614 519.683 288.01 518.837 288.01C517.865 288.01 516.929 287.56 516.929 286.588C516.929 285.634 517.865 285.202 518.837 285.202C519.683 285.202 520.475 285.598 520.691 286.192ZM526.493 289V282.16H528.347V281.008H526.493V278.902H525.143V281.008H523.469V282.16H525.143V289H526.493ZM530.607 285.238H536.115V284.752C536.115 282.412 534.999 280.846 532.839 280.846C530.715 280.846 529.275 282.592 529.275 285.076C529.275 287.596 530.823 289.162 533.127 289.162C534.081 289.162 534.909 288.964 535.557 288.46V287.218C534.837 287.758 534.189 287.974 533.289 287.974C531.831 287.974 530.661 287.092 530.607 285.238ZM532.857 281.998C534.153 281.998 534.747 283.006 534.801 284.176H530.679C530.931 282.7 531.795 281.998 532.857 281.998ZM543.475 278.596C543.475 278.11 543.079 277.732 542.593 277.732C542.125 277.732 541.729 278.11 541.729 278.596C541.729 279.064 542.125 279.46 542.593 279.46C543.079 279.46 543.475 279.064 543.475 278.596ZM543.277 289V281.008H541.927V289H543.277ZM545.688 281.008V289H547.038V283.582C547.326 282.718 548.136 282.088 549.072 282.088C550.278 282.088 550.836 282.862 550.836 283.978V289H552.204V283.762C552.204 282.016 551.214 280.846 549.396 280.846C548.37 280.846 547.506 281.386 547.038 282.016V281.008H545.688ZM559.818 292.06V288.064C560.232 288.64 561.078 289.162 562.068 289.162C564.426 289.162 565.668 287.218 565.668 285.004C565.668 282.79 564.426 280.846 562.068 280.846C561.078 280.846 560.232 281.368 559.818 281.944V281.008H558.468V292.06H559.818ZM559.818 286.624V283.384C560.232 282.556 561.024 282.07 561.87 282.07C563.4 282.07 564.3 283.312 564.3 285.004C564.3 286.696 563.4 287.938 561.87 287.938C561.024 287.938 560.232 287.452 559.818 286.624ZM571.607 282.358V280.972C571.463 280.9 571.175 280.846 570.833 280.846C569.951 280.846 569.195 281.368 568.853 282.052V281.008H567.503V289H568.853V283.636C569.123 282.7 569.861 282.142 570.707 282.142C571.049 282.142 571.391 282.214 571.607 282.358ZM579.826 285.004C579.826 282.556 578.332 280.846 576.154 280.846C573.958 280.846 572.482 282.556 572.482 285.004C572.482 287.452 573.958 289.162 576.154 289.162C578.332 289.162 579.826 287.452 579.826 285.004ZM578.458 285.004C578.458 286.75 577.594 287.974 576.154 287.974C574.714 287.974 573.85 286.75 573.85 285.004C573.85 283.258 574.714 282.034 576.154 282.034C577.594 282.034 578.458 283.258 578.458 285.004ZM586.908 287.938V288.46C586.908 290.17 585.792 291.016 584.37 291.016C583.434 291.016 582.588 290.764 581.796 290.026V291.52C582.408 291.952 583.344 292.24 584.37 292.24C586.278 292.24 588.276 291.16 588.276 288.37V281.008H586.908V281.908C586.512 281.35 585.666 280.846 584.676 280.846C582.336 280.846 581.112 282.79 581.112 284.932C581.112 287.074 582.336 289.018 584.676 289.018C585.666 289.018 586.512 288.496 586.908 287.938ZM586.908 283.294V286.552C586.494 287.308 585.738 287.794 584.874 287.794C583.362 287.794 582.48 286.588 582.48 284.932C582.48 283.258 583.362 282.052 584.874 282.052C585.738 282.052 586.494 282.538 586.908 283.294ZM594.775 282.358V280.972C594.631 280.9 594.343 280.846 594.001 280.846C593.119 280.846 592.363 281.368 592.021 282.052V281.008H590.671V289H592.021V283.636C592.291 282.7 593.029 282.142 593.875 282.142C594.217 282.142 594.559 282.214 594.775 282.358ZM596.982 285.238H602.49V284.752C602.49 282.412 601.374 280.846 599.214 280.846C597.09 280.846 595.65 282.592 595.65 285.076C595.65 287.596 597.198 289.162 599.502 289.162C600.456 289.162 601.284 288.964 601.932 288.46V287.218C601.212 287.758 600.564 287.974 599.664 287.974C598.206 287.974 597.036 287.092 596.982 285.238ZM599.232 281.998C600.528 281.998 601.122 283.006 601.176 284.176H597.054C597.306 282.7 598.17 281.998 599.232 281.998ZM603.931 286.93V288.37C604.525 288.838 605.515 289.162 606.559 289.162C608.233 289.162 609.547 288.316 609.547 286.84C609.547 285.706 608.881 285.004 607.675 284.59L606.451 284.176C605.695 283.906 605.263 283.69 605.263 283.042C605.263 282.358 605.947 281.998 606.775 281.998C607.747 281.998 608.485 282.394 609.151 282.952V281.548C608.503 281.098 607.675 280.846 606.775 280.846C605.191 280.846 603.949 281.692 603.949 283.096C603.949 284.392 604.759 284.968 605.965 285.364L607.063 285.742C607.765 285.976 608.215 286.3 608.215 286.894C608.215 287.686 607.441 288.01 606.559 288.01C605.587 288.01 604.669 287.614 603.931 286.93ZM610.998 286.93V288.37C611.592 288.838 612.582 289.162 613.626 289.162C615.3 289.162 616.614 288.316 616.614 286.84C616.614 285.706 615.948 285.004 614.742 284.59L613.518 284.176C612.762 283.906 612.33 283.69 612.33 283.042C612.33 282.358 613.014 281.998 613.842 281.998C614.814 281.998 615.552 282.394 616.218 282.952V281.548C615.57 281.098 614.742 280.846 613.842 280.846C612.258 280.846 611.016 281.692 611.016 283.096C611.016 284.392 611.826 284.968 613.032 285.364L614.13 285.742C614.832 285.976 615.282 286.3 615.282 286.894C615.282 287.686 614.508 288.01 613.626 288.01C612.654 288.01 611.736 287.614 610.998 286.93Z" fill="#444444"/>
<rect x="474" y="302" width="188" height="36" fill="white"/>
<path d="M495.9 325V313.948H494.55V322.354L488.664 313.948H487.314V325H488.682V316.216L494.856 325H495.9ZM505.189 321.004C505.189 318.556 503.695 316.846 501.517 316.846C499.321 316.846 497.845 318.556 497.845 321.004C497.845 323.452 499.321 325.162 501.517 325.162C503.695 325.162 505.189 323.452 505.189 321.004ZM503.821 321.004C503.821 322.75 502.957 323.974 501.517 323.974C500.077 323.974 499.213 322.75 499.213 321.004C499.213 319.258 500.077 318.034 501.517 318.034C502.957 318.034 503.821 319.258 503.821 321.004ZM509.126 325V318.16H510.979V317.008H509.126V314.902H507.776V317.008H506.102V318.16H507.776V325H509.126ZM516.021 321.004C516.021 323.56 517.713 325.162 519.873 325.162C520.647 325.162 521.457 324.982 522.015 324.496V323.128C521.439 323.704 520.737 323.956 519.963 323.956C518.541 323.956 517.389 322.84 517.389 321.004C517.389 319.168 518.541 318.052 519.963 318.052C520.737 318.052 521.439 318.304 522.015 318.88V317.512C521.457 317.026 520.647 316.846 519.873 316.846C517.713 316.846 516.021 318.448 516.021 321.004ZM530.66 321.004C530.66 318.556 529.166 316.846 526.988 316.846C524.792 316.846 523.316 318.556 523.316 321.004C523.316 323.452 524.792 325.162 526.988 325.162C529.166 325.162 530.66 323.452 530.66 321.004ZM529.292 321.004C529.292 322.75 528.428 323.974 526.988 323.974C525.548 323.974 524.684 322.75 524.684 321.004C524.684 319.258 525.548 318.034 526.988 318.034C528.428 318.034 529.292 319.258 529.292 321.004ZM532.487 317.008V325H533.837V319.582C534.125 318.718 534.935 318.088 535.871 318.088C537.077 318.088 537.635 318.862 537.635 319.978V325H539.003V319.762C539.003 318.016 538.013 316.846 536.195 316.846C535.169 316.846 534.305 317.386 533.837 318.016V317.008H532.487ZM541.294 317.008V325H542.644V319.582C542.932 318.718 543.742 318.088 544.678 318.088C545.884 318.088 546.442 318.862 546.442 319.978V325H547.81V319.762C547.81 318.016 546.82 316.846 545.002 316.846C543.976 316.846 543.112 317.386 542.644 318.016V317.008H541.294ZM550.857 321.238H556.365V320.752C556.365 318.412 555.249 316.846 553.089 316.846C550.965 316.846 549.525 318.592 549.525 321.076C549.525 323.596 551.073 325.162 553.377 325.162C554.331 325.162 555.159 324.964 555.807 324.46V323.218C555.087 323.758 554.439 323.974 553.539 323.974C552.081 323.974 550.911 323.092 550.857 321.238ZM553.107 317.998C554.403 317.998 554.997 319.006 555.051 320.176H550.929C551.181 318.7 552.045 317.998 553.107 317.998ZM557.628 321.004C557.628 323.56 559.32 325.162 561.48 325.162C562.254 325.162 563.064 324.982 563.622 324.496V323.128C563.046 323.704 562.344 323.956 561.57 323.956C560.148 323.956 558.996 322.84 558.996 321.004C558.996 319.168 560.148 318.052 561.57 318.052C562.344 318.052 563.046 318.304 563.622 318.88V317.512C563.064 317.026 562.254 316.846 561.48 316.846C559.32 316.846 557.628 318.448 557.628 321.004ZM567.766 325V318.16H569.62V317.008H567.766V314.902H566.416V317.008H564.742V318.16H566.416V325H567.766ZM571.88 321.238H577.388V320.752C577.388 318.412 576.272 316.846 574.112 316.846C571.988 316.846 570.548 318.592 570.548 321.076C570.548 323.596 572.096 325.162 574.4 325.162C575.354 325.162 576.182 324.964 576.83 324.46V323.218C576.11 323.758 575.462 323.974 574.562 323.974C573.104 323.974 571.934 323.092 571.88 321.238ZM574.13 317.998C575.426 317.998 576.02 319.006 576.074 320.176H571.952C572.204 318.7 573.068 317.998 574.13 317.998ZM584.501 324.064V325H585.869V313.3H584.501V317.944C584.105 317.368 583.241 316.846 582.251 316.846C579.911 316.846 578.651 318.754 578.651 321.004C578.651 323.272 579.911 325.162 582.251 325.162C583.241 325.162 584.105 324.64 584.501 324.064ZM584.501 319.384V322.624C584.087 323.452 583.295 323.938 582.449 323.938C580.919 323.938 580.019 322.696 580.019 321.004C580.019 319.312 580.919 318.07 582.449 318.07C583.295 318.07 584.087 318.556 584.501 319.384Z" fill="#444444"/>
<rect x="474" y="338" width="188" height="36" fill="white"/>
<path d="M488.736 356.32H490.698L493.866 361H495.486L492.21 356.266C493.956 356.014 495.036 354.988 495.036 353.152C495.036 351.064 493.596 349.948 491.364 349.948H487.314V361H488.736V356.32ZM488.736 355.114V351.19H491.328C492.786 351.19 493.632 351.928 493.632 353.152C493.632 354.376 492.786 355.114 491.328 355.114H488.736ZM497.806 357.238H503.314V356.752C503.314 354.412 502.198 352.846 500.038 352.846C497.914 352.846 496.474 354.592 496.474 357.076C496.474 359.596 498.022 361.162 500.326 361.162C501.28 361.162 502.108 360.964 502.756 360.46V359.218C502.036 359.758 501.388 359.974 500.488 359.974C499.03 359.974 497.86 359.092 497.806 357.238ZM500.056 353.998C501.352 353.998 501.946 355.006 502 356.176H497.878C498.13 354.7 498.994 353.998 500.056 353.998ZM504.756 358.93V360.37C505.35 360.838 506.34 361.162 507.384 361.162C509.058 361.162 510.372 360.316 510.372 358.84C510.372 357.706 509.706 357.004 508.5 356.59L507.276 356.176C506.52 355.906 506.088 355.69 506.088 355.042C506.088 354.358 506.772 353.998 507.6 353.998C508.572 353.998 509.31 354.394 509.976 354.952V353.548C509.328 353.098 508.5 352.846 507.6 352.846C506.016 352.846 504.774 353.692 504.774 355.096C504.774 356.392 505.584 356.968 506.79 357.364L507.888 357.742C508.59 357.976 509.04 358.3 509.04 358.894C509.04 359.686 508.266 360.01 507.384 360.01C506.412 360.01 505.494 359.614 504.756 358.93ZM513.046 357.238H518.554V356.752C518.554 354.412 517.438 352.846 515.278 352.846C513.154 352.846 511.714 354.592 511.714 357.076C511.714 359.596 513.262 361.162 515.566 361.162C516.52 361.162 517.348 360.964 517.996 360.46V359.218C517.276 359.758 516.628 359.974 515.728 359.974C514.27 359.974 513.1 359.092 513.046 357.238ZM515.296 353.998C516.592 353.998 517.186 355.006 517.24 356.176H513.118C513.37 354.7 514.234 353.998 515.296 353.998ZM522.538 361V354.16H524.392V353.008H522.538V350.902H521.188V353.008H519.514V354.16H521.188V361H522.538ZM534.005 350.542V349.318C533.699 349.192 533.393 349.138 532.961 349.138C531.557 349.138 530.513 350.074 530.513 351.676V353.008H529.163V354.16H530.513V361H531.845V354.16H533.645V353.008H531.845V351.784C531.845 350.83 532.367 350.326 533.159 350.326C533.447 350.326 533.753 350.38 534.005 350.542ZM539.482 355.69V356.734C539.14 356.428 538.312 356.086 537.484 356.086C535.774 356.086 534.442 357.094 534.442 358.588C534.442 360.172 535.774 361.144 537.412 361.144C538.348 361.144 539.176 360.73 539.482 360.406V361H540.796V355.582C540.796 353.89 539.68 352.846 537.79 352.846C536.8 352.846 535.846 353.134 535.306 353.512V354.79C535.972 354.358 536.692 354.088 537.574 354.088C538.744 354.088 539.482 354.7 539.482 355.69ZM539.482 358.192V359.02C539.266 359.614 538.474 360.01 537.628 360.01C536.656 360.01 535.72 359.56 535.72 358.588C535.72 357.634 536.656 357.202 537.628 357.202C538.474 357.202 539.266 357.598 539.482 358.192ZM544.652 350.596C544.652 350.11 544.256 349.732 543.77 349.732C543.302 349.732 542.906 350.11 542.906 350.596C542.906 351.064 543.302 351.46 543.77 351.46C544.256 351.46 544.652 351.064 544.652 350.596ZM544.454 361V353.008H543.104V361H544.454ZM548.216 361V349.3H546.866V361H548.216ZM551.384 357.238H556.892V356.752C556.892 354.412 555.776 352.846 553.616 352.846C551.492 352.846 550.052 354.592 550.052 357.076C550.052 359.596 551.6 361.162 553.904 361.162C554.858 361.162 555.686 360.964 556.334 360.46V359.218C555.614 359.758 554.966 359.974 554.066 359.974C552.608 359.974 551.438 359.092 551.384 357.238ZM553.634 353.998C554.93 353.998 555.524 355.006 555.578 356.176H551.456C551.708 354.7 552.572 353.998 553.634 353.998ZM564.005 360.064V361H565.373V349.3H564.005V353.944C563.609 353.368 562.745 352.846 561.755 352.846C559.415 352.846 558.155 354.754 558.155 357.004C558.155 359.272 559.415 361.162 561.755 361.162C562.745 361.162 563.609 360.64 564.005 360.064ZM564.005 355.384V358.624C563.591 359.452 562.799 359.938 561.953 359.938C560.423 359.938 559.523 358.696 559.523 357.004C559.523 355.312 560.423 354.07 561.953 354.07C562.799 354.07 563.591 354.556 564.005 355.384Z" fill="#444444"/>
<rect x="662" y="230" width="188" height="36" fill="white"/>
<path d="M676.736 248.32H678.698L681.866 253H683.486L680.21 248.266C681.956 248.014 683.036 246.988 683.036 245.152C683.036 243.064 681.596 241.948 679.364 241.948H675.314V253H676.736V248.32ZM676.736 247.114V243.19H679.328C680.786 243.19 681.632 243.928 681.632 245.152C681.632 246.376 680.786 247.114 679.328 247.114H676.736ZM684.705 250.606V252.136C685.461 252.73 686.685 253.162 688.179 253.162C690.321 253.162 691.905 252.028 691.905 250.138C691.905 248.608 691.149 247.726 689.457 247.078L687.711 246.394C686.685 245.998 686.055 245.602 686.055 244.666C686.055 243.568 687.009 243.028 688.233 243.028C689.511 243.028 690.501 243.478 691.383 244.18V242.686C690.555 242.11 689.421 241.786 688.215 241.786C686.307 241.786 684.669 242.776 684.669 244.684C684.669 246.43 685.857 247.168 687.153 247.672L688.773 248.302C689.943 248.788 690.537 249.184 690.537 250.156C690.537 251.29 689.601 251.902 688.179 251.902C686.883 251.902 685.731 251.488 684.705 250.606ZM695.369 248.32H697.331L700.499 253H702.119L698.843 248.266C700.589 248.014 701.669 246.988 701.669 245.152C701.669 243.064 700.229 241.948 697.997 241.948H693.947V253H695.369V248.32ZM695.369 247.114V243.19H697.961C699.419 243.19 700.265 243.928 700.265 245.152C700.265 246.376 699.419 247.114 697.961 247.114H695.369ZM709.062 250.534H709.134L712.878 244.504V253H714.264V241.948H713.022L709.116 248.302L705.192 241.948H703.878V253H705.264V244.504L709.062 250.534ZM720.216 253H721.548L725.814 241.948H724.374L720.9 251.128L717.444 241.948H715.95L720.216 253ZM732.003 247.348L735.765 241.948H734.199L731.211 246.25L728.259 241.948H726.639L730.401 247.384L726.495 253H728.061L731.175 248.5L734.307 253H735.927L732.003 247.348ZM741.663 253.162C744.183 253.162 746.001 251.65 746.001 248.626V241.948H744.579V248.446C744.579 250.804 743.445 251.902 741.663 251.902C739.881 251.902 738.747 250.804 738.747 248.446V241.948H737.343V248.608C737.343 251.65 739.161 253.162 741.663 253.162ZM749.591 249.31L752.957 241.948H751.553L747.665 250.426V250.498H752.867V253H754.181V250.498H756.017V249.31H754.181V246.646H752.867V249.31H749.591Z" fill="#444444"/>
<rect x="662" y="266" width="188" height="36" fill="white"/>
<path d="M676.736 284.32H678.698L681.866 289H683.486L680.21 284.266C681.956 284.014 683.036 282.988 683.036 281.152C683.036 279.064 681.596 277.948 679.364 277.948H675.314V289H676.736V284.32ZM676.736 283.114V279.19H679.328C680.786 279.19 681.632 279.928 681.632 281.152C681.632 282.376 680.786 283.114 679.328 283.114H676.736ZM684.705 286.606V288.136C685.461 288.73 686.685 289.162 688.179 289.162C690.321 289.162 691.905 288.028 691.905 286.138C691.905 284.608 691.149 283.726 689.457 283.078L687.711 282.394C686.685 281.998 686.055 281.602 686.055 280.666C686.055 279.568 687.009 279.028 688.233 279.028C689.511 279.028 690.501 279.478 691.383 280.18V278.686C690.555 278.11 689.421 277.786 688.215 277.786C686.307 277.786 684.669 278.776 684.669 280.684C684.669 282.43 685.857 283.168 687.153 283.672L688.773 284.302C689.943 284.788 690.537 285.184 690.537 286.156C690.537 287.29 689.601 287.902 688.179 287.902C686.883 287.902 685.731 287.488 684.705 286.606ZM695.369 282.862V277.948H693.947V289H695.369V283.798L700.463 289H702.299L696.701 283.24L702.137 277.948H700.355L695.369 282.862ZM705.318 284.32H707.28L710.448 289H712.068L708.792 284.266C710.538 284.014 711.618 282.988 711.618 281.152C711.618 279.064 710.178 277.948 707.946 277.948H703.896V289H705.318V284.32ZM705.318 283.114V279.19H707.91C709.368 279.19 710.214 279.928 710.214 281.152C710.214 282.376 709.368 283.114 707.91 283.114H705.318ZM719.012 286.534H719.084L722.828 280.504V289H724.214V277.948H722.972L719.066 284.302L715.142 277.948H713.828V289H715.214V280.504L719.012 286.534ZM730.975 289.162C733.495 289.162 735.313 287.65 735.313 284.626V277.948H733.891V284.446C733.891 286.804 732.757 287.902 730.975 287.902C729.193 287.902 728.059 286.804 728.059 284.446V277.948H726.655V284.608C726.655 287.65 728.473 289.162 730.975 289.162ZM737.121 283.474C737.121 286.93 739.353 289.162 742.305 289.162C743.583 289.162 744.555 288.802 745.275 288.208V286.714C744.375 287.524 743.457 287.884 742.323 287.884C740.091 287.884 738.543 286.138 738.543 283.474C738.543 280.81 740.091 279.064 742.323 279.064C743.457 279.064 744.375 279.406 745.275 280.234V278.74C744.555 278.146 743.583 277.786 742.305 277.786C739.353 277.786 737.121 280.018 737.121 283.474ZM754.279 277.948L751.093 283.168L747.907 277.948H746.359L750.355 284.446V289H751.759V284.446L755.791 277.948H754.279Z" fill="#444444"/>
<rect x="662" y="302" width="188" height="36" fill="white"/>
<path d="M674.522 323.074V324.532C674.99 324.838 675.782 325.162 676.682 325.162C678.806 325.162 679.94 323.992 679.94 321.328V313.948H678.518V321.274C678.518 323.11 677.96 323.866 676.646 323.866C675.836 323.866 675.224 323.578 674.522 323.074ZM686.899 323.902C684.595 323.902 683.119 322.138 683.119 319.474C683.119 316.81 684.721 315.064 687.025 315.064C688.231 315.064 689.275 315.442 690.211 316.288V314.776C689.437 314.164 688.321 313.786 687.025 313.786C683.983 313.786 681.697 316.036 681.697 319.474C681.697 322.894 683.785 325.162 686.863 325.162C688.231 325.162 689.689 324.748 690.751 323.578V319.258H687.007V320.446H689.437V323.056C688.717 323.65 687.907 323.902 686.899 323.902ZM700.053 313.948H693.015V325H700.053V323.722H694.419V319.96H699.531V318.7H694.419V315.208H700.053V313.948ZM702.279 325H703.701V320.194H708.705V318.934H703.701V315.208H709.029V313.948H702.279V325ZM718.557 325V323.722H712.509L718.611 314.02V313.948H710.511V315.208H716.379L710.241 324.928V325H718.557ZM724.63 325.162C727.15 325.162 728.968 323.65 728.968 320.626V313.948H727.546V320.446C727.546 322.804 726.412 323.902 724.63 323.902C722.848 323.902 721.714 322.804 721.714 320.446V313.948H720.31V320.608C720.31 323.65 722.128 325.162 724.63 325.162ZM735.841 313.948H734.509L730.189 325H731.629L732.889 321.67H737.443L738.721 325H740.161L735.841 313.948ZM733.357 320.428L735.157 315.712L736.957 320.428H733.357ZM749.389 325V323.722H743.341L749.443 314.02V313.948H741.343V315.208H747.211L741.073 324.928V325H749.389Z" fill="#444444"/>
<rect x="662" y="338" width="188" height="36" fill="white"/>
<path d="M684.404 349.948H682.982V354.682H676.736V349.948H675.314V361H676.736V355.96H682.982V361H684.404V349.948ZM690.405 349.786C688.263 349.786 686.661 351.406 686.661 353.548C686.661 355.672 688.191 357.292 690.315 357.292C690.747 357.292 691.233 357.148 691.521 356.968L689.199 361H690.657L693.177 356.608C693.897 355.348 694.149 354.448 694.149 353.548C694.149 351.406 692.565 349.786 690.405 349.786ZM687.957 353.548C687.957 352.108 689.001 351.01 690.405 351.01C691.809 351.01 692.853 352.108 692.853 353.548C692.853 354.97 691.809 356.086 690.405 356.086C689.001 356.086 687.957 354.97 687.957 353.548ZM700.944 359.902C698.64 359.902 697.164 358.138 697.164 355.474C697.164 352.81 698.766 351.064 701.07 351.064C702.276 351.064 703.32 351.442 704.256 352.288V350.776C703.482 350.164 702.366 349.786 701.07 349.786C698.028 349.786 695.742 352.036 695.742 355.474C695.742 358.894 697.83 361.162 700.908 361.162C702.276 361.162 703.734 360.748 704.796 359.578V355.258H701.052V356.446H703.482V359.056C702.762 359.65 701.952 359.902 700.944 359.902ZM706.268 359.074V360.532C706.736 360.838 707.528 361.162 708.428 361.162C710.552 361.162 711.686 359.992 711.686 357.328V349.948H710.264V357.274C710.264 359.11 709.706 359.866 708.392 359.866C707.582 359.866 706.97 359.578 706.268 359.074ZM713.317 349.948V351.208H717.169V361H718.591V351.208H722.443V349.948H713.317ZM731.846 361V359.722H725.798L731.9 350.02V349.948H723.8V351.208H729.668L723.53 360.928V361H731.846ZM742.922 349.948H741.5V354.682H735.254V349.948H733.832V361H735.254V355.96H741.5V361H742.922V349.948ZM746.69 357.31L750.056 349.948H748.652L744.764 358.426V358.498H749.966V361H751.28V358.498H753.116V357.31H751.28V354.646H749.966V357.31H746.69Z" fill="#444444"/>
<rect x="850" y="230" width="188" height="36" fill="white"/>
<path d="M872.656 247.474C872.656 244.126 870.568 241.786 867.652 241.786C864.754 241.786 862.666 244.126 862.666 247.474C862.666 250.804 864.754 253.162 867.652 253.162C870.568 253.162 872.656 250.804 872.656 247.474ZM871.234 247.474C871.234 250.066 869.794 251.884 867.652 251.884C865.528 251.884 864.088 250.066 864.088 247.474C864.088 244.882 865.528 243.064 867.652 243.064C869.794 243.064 871.234 244.882 871.234 247.474ZM874.526 245.008V253H875.876V247.582C876.164 246.718 876.974 246.088 877.91 246.088C879.116 246.088 879.674 246.862 879.674 247.978V253H881.042V247.762C881.042 246.016 880.052 244.846 878.234 244.846C877.208 244.846 876.344 245.386 875.876 246.016V245.008H874.526Z" fill="#444444"/>
<rect x="850" y="266" width="188" height="36" fill="white"/>
<path d="M872.656 283.474C872.656 280.126 870.568 277.786 867.652 277.786C864.754 277.786 862.666 280.126 862.666 283.474C862.666 286.804 864.754 289.162 867.652 289.162C870.568 289.162 872.656 286.804 872.656 283.474ZM871.234 283.474C871.234 286.066 869.794 287.884 867.652 287.884C865.528 287.884 864.088 286.066 864.088 283.474C864.088 280.882 865.528 279.064 867.652 279.064C869.794 279.064 871.234 280.882 871.234 283.474ZM874.526 281.008V289H875.876V283.582C876.164 282.718 876.974 282.088 877.91 282.088C879.116 282.088 879.674 282.862 879.674 283.978V289H881.042V283.762C881.042 282.016 880.052 280.846 878.234 280.846C877.208 280.846 876.344 281.386 875.876 282.016V281.008H874.526Z" fill="#444444"/>
<rect x="42" y="106" width="384" height="36" rx="4" fill="white" stroke="#999999"/>
<path d="M90.738 126.606V128.136C91.494 128.73 92.718 129.162 94.212 129.162C96.354 129.162 97.938 128.028 97.938 126.138C97.938 124.608 97.182 123.726 95.49 123.078L93.744 122.394C92.718 121.998 92.088 121.602 92.088 120.666C92.088 119.568 93.042 119.028 94.266 119.028C95.544 119.028 96.534 119.478 97.416 120.18V118.686C96.588 118.11 95.454 117.786 94.248 117.786C92.34 117.786 90.702 118.776 90.702 120.684C90.702 122.43 91.89 123.168 93.186 123.672L94.806 124.302C95.976 124.788 96.57 125.184 96.57 126.156C96.57 127.29 95.634 127.902 94.212 127.902C92.916 127.902 91.764 127.488 90.738 126.606ZM100.716 125.238H106.224V124.752C106.224 122.412 105.108 120.846 102.948 120.846C100.824 120.846 99.3839 122.592 99.3839 125.076C99.3839 127.596 100.932 129.162 103.236 129.162C104.19 129.162 105.018 128.964 105.666 128.46V127.218C104.946 127.758 104.298 127.974 103.398 127.974C101.94 127.974 100.77 127.092 100.716 125.238ZM102.966 121.998C104.262 121.998 104.856 123.006 104.91 124.176H100.788C101.04 122.7 101.904 121.998 102.966 121.998ZM112.509 123.69V124.734C112.167 124.428 111.339 124.086 110.511 124.086C108.801 124.086 107.469 125.094 107.469 126.588C107.469 128.172 108.801 129.144 110.439 129.144C111.375 129.144 112.203 128.73 112.509 128.406V129H113.823V123.582C113.823 121.89 112.707 120.846 110.817 120.846C109.827 120.846 108.873 121.134 108.333 121.512V122.79C108.999 122.358 109.719 122.088 110.601 122.088C111.771 122.088 112.509 122.7 112.509 123.69ZM112.509 126.192V127.02C112.293 127.614 111.501 128.01 110.655 128.01C109.683 128.01 108.747 127.56 108.747 126.588C108.747 125.634 109.683 125.202 110.655 125.202C111.501 125.202 112.293 125.598 112.509 126.192ZM120.236 122.358V120.972C120.092 120.9 119.804 120.846 119.462 120.846C118.58 120.846 117.824 121.368 117.482 122.052V121.008H116.132V129H117.482V123.636C117.752 122.7 118.49 122.142 119.336 122.142C119.678 122.142 120.02 122.214 120.236 122.358ZM121.11 125.004C121.11 127.56 122.802 129.162 124.962 129.162C125.736 129.162 126.546 128.982 127.104 128.496V127.128C126.528 127.704 125.826 127.956 125.052 127.956C123.63 127.956 122.478 126.84 122.478 125.004C122.478 123.168 123.63 122.052 125.052 122.052C125.826 122.052 126.528 122.304 127.104 122.88V121.512C126.546 121.026 125.736 120.846 124.962 120.846C122.802 120.846 121.11 122.448 121.11 125.004ZM128.981 117.3V129H130.331V123.582C130.619 122.718 131.429 122.088 132.365 122.088C133.571 122.088 134.129 122.862 134.129 123.978V129H135.497V123.762C135.497 122.016 134.507 120.846 132.689 120.846C131.663 120.846 130.799 121.386 130.331 122.016V117.3H128.981ZM143.993 129V122.16H145.847V121.008H143.993V118.902H142.643V121.008H140.969V122.16H142.643V129H143.993ZM147.491 117.3V129H148.841V123.582C149.129 122.718 149.939 122.088 150.875 122.088C152.081 122.088 152.639 122.862 152.639 123.978V129H154.007V123.762C154.007 122.016 153.017 120.846 151.199 120.846C150.173 120.846 149.309 121.386 148.841 122.016V117.3H147.491ZM157.054 125.238H162.562V124.752C162.562 122.412 161.446 120.846 159.286 120.846C157.162 120.846 155.722 122.592 155.722 125.076C155.722 127.596 157.27 129.162 159.574 129.162C160.528 129.162 161.356 128.964 162.004 128.46V127.218C161.284 127.758 160.636 127.974 159.736 127.974C158.278 127.974 157.108 127.092 157.054 125.238ZM159.304 121.998C160.6 121.998 161.194 123.006 161.248 124.176H157.126C157.378 122.7 158.242 121.998 159.304 121.998ZM168.482 117.948V129H172.028C175.268 129 177.392 126.84 177.392 123.474C177.392 120.108 175.268 117.948 172.028 117.948H168.482ZM172.01 127.722H169.904V119.208H172.01C174.512 119.208 175.988 120.882 175.988 123.474C175.988 126.066 174.512 127.722 172.01 127.722ZM183.666 123.69V124.734C183.324 124.428 182.496 124.086 181.668 124.086C179.958 124.086 178.626 125.094 178.626 126.588C178.626 128.172 179.958 129.144 181.596 129.144C182.532 129.144 183.36 128.73 183.666 128.406V129H184.98V123.582C184.98 121.89 183.864 120.846 181.974 120.846C180.984 120.846 180.03 121.134 179.49 121.512V122.79C180.156 122.358 180.876 122.088 181.758 122.088C182.928 122.088 183.666 122.7 183.666 123.69ZM183.666 126.192V127.02C183.45 127.614 182.658 128.01 181.812 128.01C180.84 128.01 179.904 127.56 179.904 126.588C179.904 125.634 180.84 125.202 181.812 125.202C182.658 125.202 183.45 125.598 183.666 126.192ZM189.467 129V122.16H191.321V121.008H189.467V118.902H188.117V121.008H186.443V122.16H188.117V129H189.467ZM197.236 123.69V124.734C196.894 124.428 196.066 124.086 195.238 124.086C193.528 124.086 192.196 125.094 192.196 126.588C192.196 128.172 193.528 129.144 195.166 129.144C196.102 129.144 196.93 128.73 197.236 128.406V129H198.55V123.582C198.55 121.89 197.434 120.846 195.544 120.846C194.554 120.846 193.6 121.134 193.06 121.512V122.79C193.726 122.358 194.446 122.088 195.328 122.088C196.498 122.088 197.236 122.7 197.236 123.69ZM197.236 126.192V127.02C197.02 127.614 196.228 128.01 195.382 128.01C194.41 128.01 193.474 127.56 193.474 126.588C193.474 125.634 194.41 125.202 195.382 125.202C196.228 125.202 197.02 125.598 197.236 126.192ZM200.192 117.948V119.208H204.044V129H205.466V119.208H209.318V117.948H200.192ZM214.164 123.69V124.734C213.822 124.428 212.994 124.086 212.166 124.086C210.456 124.086 209.124 125.094 209.124 126.588C209.124 128.172 210.456 129.144 212.094 129.144C213.03 129.144 213.858 128.73 214.164 128.406V129H215.478V123.582C215.478 121.89 214.362 120.846 212.472 120.846C211.482 120.846 210.528 121.134 209.988 121.512V122.79C210.654 122.358 211.374 122.088 212.256 122.088C213.426 122.088 214.164 122.7 214.164 123.69ZM214.164 126.192V127.02C213.948 127.614 213.156 128.01 212.31 128.01C211.338 128.01 210.402 127.56 210.402 126.588C210.402 125.634 211.338 125.202 212.31 125.202C213.156 125.202 213.948 125.598 214.164 126.192ZM219.136 129V128.064C219.532 128.64 220.396 129.162 221.386 129.162C223.726 129.162 224.986 127.272 224.986 125.004C224.986 122.754 223.726 120.846 221.386 120.846C220.396 120.846 219.532 121.368 219.136 121.944V117.3H217.768V129H219.136ZM219.136 126.624V123.384C219.55 122.556 220.342 122.07 221.188 122.07C222.718 122.07 223.618 123.312 223.618 125.004C223.618 126.696 222.718 127.938 221.188 127.938C220.342 127.938 219.55 127.452 219.136 126.624ZM228.171 129V117.3H226.821V129H228.171ZM231.339 125.238H236.847V124.752C236.847 122.412 235.731 120.846 233.571 120.846C231.447 120.846 230.007 122.592 230.007 125.076C230.007 127.596 231.555 129.162 233.859 129.162C234.813 129.162 235.641 128.964 236.289 128.46V127.218C235.569 127.758 234.921 127.974 234.021 127.974C232.563 127.974 231.393 127.092 231.339 125.238ZM233.589 121.998C234.885 121.998 235.479 123.006 235.533 124.176H231.411C231.663 122.7 232.527 121.998 233.589 121.998Z" fill="#BBBBBB"/>
<path fill-rule="evenodd" clip-rule="evenodd" d="M64 115C60.134 115 57 118.134 57 122C57 125.866 60.134 129 64 129C65.5723 129 67.0236 128.482 68.1922 127.606L73.2929 132.707L74.7071 131.293L69.6064 126.192C70.4816 125.024 71 123.572 71 122C71 118.134 67.866 115 64 115ZM59 122C59 119.239 61.2386 117 64 117C66.7614 117 69 119.239 69 122C69 124.761 66.7614 127 64 127C61.2386 127 59 124.761 59 122Z" fill="black"/>
<path d="M41.656 49.896V72H50.008C56.956 72 61.168 67.68 61.168 60.948C61.168 54.216 56.956 49.896 50.008 49.896H41.656ZM49.72 66.996H47.344V54.864H49.72C53.392 54.864 55.444 57.204 55.444 60.948C55.444 64.656 53.392 66.996 49.72 66.996ZM72.1657 62.244V62.82C71.5177 62.352 70.0057 61.92 68.6377 61.92C65.1457 61.92 62.4097 63.936 62.4097 67.068C62.4097 70.488 65.1457 72.288 68.3497 72.288C70.0777 72.288 71.6257 71.712 72.1657 71.172V72H77.6017V61.992C77.6017 57.708 74.8657 55.44 70.0777 55.44C67.7737 55.44 65.6137 55.98 64.2817 56.7V61.236C65.5777 60.48 67.1617 60.084 68.7097 60.084C71.0137 60.084 72.1657 60.984 72.1657 62.244ZM72.1657 66.528V67.464C71.8057 68.112 70.9057 68.544 69.8977 68.544C68.7817 68.544 67.6657 68.076 67.6657 66.96C67.6657 65.88 68.7817 65.412 69.8977 65.412C70.9057 65.412 71.8057 65.844 72.1657 66.528ZM87.918 72V60.192H91.086V55.8H87.918V51.336H82.302V55.8H79.494V60.192H82.302V72H87.918ZM101.627 62.244V62.82C100.979 62.352 99.4667 61.92 98.0987 61.92C94.6067 61.92 91.8707 63.936 91.8707 67.068C91.8707 70.488 94.6067 72.288 97.8107 72.288C99.5387 72.288 101.087 71.712 101.627 71.172V72H107.063V61.992C107.063 57.708 104.327 55.44 99.5387 55.44C97.2347 55.44 95.0747 55.98 93.7427 56.7V61.236C95.0387 60.48 96.6227 60.084 98.1707 60.084C100.475 60.084 101.627 60.984 101.627 62.244ZM101.627 66.528V67.464C101.267 68.112 100.367 68.544 99.3587 68.544C98.2427 68.544 97.1267 68.076 97.1267 66.96C97.1267 65.88 98.2427 65.412 99.3587 65.412C100.367 65.412 101.267 65.844 101.627 66.528ZM109.169 49.896V54.864H115.973V72H121.769V54.864H128.609V49.896H109.169ZM137.697 62.244V62.82C137.049 62.352 135.537 61.92 134.169 61.92C130.677 61.92 127.941 63.936 127.941 67.068C127.941 70.488 130.677 72.288 133.881 72.288C135.609 72.288 137.157 71.712 137.697 71.172V72H143.133V61.992C143.133 57.708 140.397 55.44 135.609 55.44C133.305 55.44 131.145 55.98 129.813 56.7V61.236C131.109 60.48 132.693 60.084 134.241 60.084C136.545 60.084 137.697 60.984 137.697 62.244ZM137.697 66.528V67.464C137.337 68.112 136.437 68.544 135.429 68.544C134.313 68.544 133.197 68.076 133.197 66.96C133.197 65.88 134.313 65.412 135.429 65.412C136.437 65.412 137.337 65.844 137.697 66.528ZM151.684 72V70.704C152.44 71.568 154.024 72.36 155.68 72.36C160.36 72.36 162.916 68.58 162.916 63.9C162.916 59.22 160.36 55.44 155.68 55.44C154.024 55.44 152.44 56.232 151.684 57.096V48.6H146.032V72H151.684ZM151.684 66.024V61.74C152.116 60.876 153.088 60.228 154.168 60.228C156.112 60.228 157.264 61.812 157.264 63.9C157.264 65.988 156.112 67.536 154.168 67.536C153.052 67.536 152.116 66.924 151.684 66.024ZM170.738 72V48.6H165.086V72H170.738ZM178.413 65.196H188.385V63.54C188.385 58.716 185.829 55.44 180.789 55.44C176.325 55.44 172.941 58.932 172.941 64.008C172.941 69.228 176.469 72.36 181.653 72.36C183.993 72.36 185.973 71.856 187.233 70.92V66.636C185.613 67.608 184.281 67.932 182.553 67.932C180.465 67.932 178.881 67.14 178.413 65.196ZM181.005 59.724C182.373 59.724 183.201 60.66 183.345 62.028H178.485C178.881 60.552 179.781 59.724 181.005 59.724Z" fill="black"/>
<path d="M45.296 160.192L47.472 154.176H45.136L42.144 162.208V162.272H46.736V164H48.912V162.272H50.016V160.192H48.912V158.368H46.736V160.192H45.296ZM55.9476 164V154.176H54.6836V164H55.9476ZM60.1654 164V157.92H61.8134V156.896H60.1654V155.024H58.9654V156.896H57.4774V157.92H58.9654V164H60.1654ZM63.8221 160.656H68.7181V160.224C68.7181 158.144 67.7261 156.752 65.8061 156.752C63.9181 156.752 62.6381 158.304 62.6381 160.512C62.6381 162.752 64.0141 164.144 66.0621 164.144C66.9101 164.144 67.6461 163.968 68.2221 163.52V162.416C67.5821 162.896 67.0061 163.088 66.2061 163.088C64.9101 163.088 63.8701 162.304 63.8221 160.656ZM65.8221 157.776C66.9741 157.776 67.5021 158.672 67.5501 159.712H63.8861C64.1101 158.4 64.8781 157.776 65.8221 157.776ZM75.3933 157.888C75.0573 157.216 74.3693 156.752 73.4733 156.752C72.5933 156.752 71.9053 157.168 71.5533 157.728V156.896H70.3533V164H71.5533V159.104C71.7773 158.336 72.4013 157.84 73.1213 157.84C74.0333 157.84 74.4653 158.496 74.4653 159.488V164H75.6653V159.104C75.8893 158.336 76.5133 157.84 77.2333 157.84C78.1453 157.84 78.5773 158.496 78.5773 159.488V164H79.7933V159.296C79.7933 157.76 78.9933 156.752 77.5533 156.752C76.5613 156.752 75.8413 157.248 75.3933 157.888ZM81.406 162.16V163.44C81.934 163.856 82.814 164.144 83.742 164.144C85.23 164.144 86.398 163.392 86.398 162.08C86.398 161.072 85.806 160.448 84.734 160.08L83.646 159.712C82.974 159.472 82.59 159.28 82.59 158.704C82.59 158.096 83.198 157.776 83.934 157.776C84.798 157.776 85.454 158.128 86.046 158.624V157.376C85.47 156.976 84.734 156.752 83.934 156.752C82.526 156.752 81.422 157.504 81.422 158.752C81.422 159.904 82.142 160.416 83.214 160.768L84.19 161.104C84.814 161.312 85.214 161.6 85.214 162.128C85.214 162.832 84.526 163.12 83.742 163.12C82.878 163.12 82.062 162.768 81.406 162.16Z" fill="#444444"/>
<defs>
<clipPath id="clip0_7795:147869">
<rect width="198" height="144" fill="white" transform="translate(276 230)"/>
</clipPath>
</defs>
</svg>
