<svg fill="none" height="37" viewBox="0 0 52 37" width="52" xmlns="http://www.w3.org/2000/svg"><g fill="#01a982"><path d="m24.9963 25.1621c0 6.3513-4.5966 11.5-11.5002 11.5-6.90357 0-11.50001-5.1487-11.50001-11.5s4.59644-10.5 11.50001-10.5c6.9036 0 11.5002 4.1487 11.5002 10.5z"/><path d="m13.4961.662109-7.50001 11.499991 9.00001 6 11-17.499991z"/><ellipse cx="8.95364" cy="13.1391" rx="3" ry="13.3085" transform="matrix(.88035486 .47431563 -.47431563 .88035486 7.30334 -2.674822)"/><path d="m50.9963 25.1621c0 6.3513-4.5966 11.5-11.5002 11.5s-11.5-5.1487-11.5-11.5 4.5964-10.5 11.5-10.5 11.5002 4.1487 11.5002 10.5z"/><path d="m39.4961.662109-7.5 11.499991 9 6 11-17.499991z"/><ellipse cx="34.9536" cy="13.1391" rx="3" ry="13.3085" transform="matrix(.88035486 .47431563 -.47431563 .88035486 10.414109 -15.007009)"/></g></svg>