<?xml version="1.0" encoding="UTF-8"?>
<svg width="22px" height="22px" viewBox="0 0 22 22" version="1.1" xmlns="http://www.w3.org/2000/svg" xmlns:xlink="http://www.w3.org/1999/xlink">
    <title>sun</title>
    <g id="Dark" stroke="none" stroke-width="1" fill="none" fill-rule="evenodd">
        <g id="aries-home" transform="translate(-109.000000, -2375.000000)">
            <g id="Group-9" transform="translate(96.000000, 2362.000000)">
                <g id="sun" transform="translate(12.000000, 12.000000)">
                    <rect id="Rectangle" x="0" y="0" width="24" height="24"></rect>
                    <circle id="Oval" fill="#FFFFFF" cx="12" cy="12" r="5"></circle>
                    <line x1="12" y1="4" x2="12" y2="2" id="Path-5" stroke="#FFFFFF" stroke-width="2" stroke-linecap="round"></line>
                    <line x1="12" y1="22" x2="12" y2="20" id="Path-5-Copy" stroke="#FFFFFF" stroke-width="2" stroke-linecap="round"></line>
                    <line x1="21" y1="13" x2="21" y2="11" id="Path-5" stroke="#FFFFFF" stroke-width="2" stroke-linecap="round" transform="translate(21.000000, 12.000000) rotate(90.000000) translate(-21.000000, -12.000000) "></line>
                    <line x1="3" y1="13" x2="3" y2="11" id="Path-5-Copy" stroke="#FFFFFF" stroke-width="2" stroke-linecap="round" transform="translate(3.000000, 12.000000) rotate(90.000000) translate(-3.000000, -12.000000) "></line>
                    <line x1="5.63603897" y1="6.63603897" x2="5.63603897" y2="4.63603897" id="Path-5" stroke="#FFFFFF" stroke-width="2" stroke-linecap="round" transform="translate(5.636039, 5.636039) rotate(-45.000000) translate(-5.636039, -5.636039) "></line>
                    <line x1="18.363961" y1="19.363961" x2="18.363961" y2="17.363961" id="Path-5-Copy" stroke="#FFFFFF" stroke-width="2" stroke-linecap="round" transform="translate(18.363961, 18.363961) rotate(-45.000000) translate(-18.363961, -18.363961) "></line>
                    <line x1="18.363961" y1="6.63603897" x2="18.363961" y2="4.63603897" id="Path-5" stroke="#FFFFFF" stroke-width="2" stroke-linecap="round" transform="translate(18.363961, 5.636039) rotate(45.000000) translate(-18.363961, -5.636039) "></line>
                    <line x1="5.63603897" y1="19.363961" x2="5.63603897" y2="17.363961" id="Path-5-Copy" stroke="#FFFFFF" stroke-width="2" stroke-linecap="round" transform="translate(5.636039, 18.363961) rotate(45.000000) translate(-5.636039, -18.363961) "></line>
                </g>
            </g>
        </g>
    </g>
</svg>