<svg width="185" height="48" viewBox="0 0 185 48" fill="none" xmlns="http://www.w3.org/2000/svg">
<g clip-path="url(#clip0_1477_256530)">
<path d="M174.794 40.0424V42.8087H183.601V44.9362H172.546V37.9149H183.601V40.0424H174.794ZM22.895 40.0341H0.442871V44.9362H22.895V40.0341Z" fill="#01A982"/>
<path d="M165.852 33.16H158.884V44.3453H161.132V41.5018H165.818C168.778 41.5018 170.478 39.8248 170.478 37.3543C170.478 34.8677 168.778 33.16 165.852 33.16ZM165.705 39.3579H161.132V35.2782H165.705C167.476 35.2782 168.148 36.0925 168.148 37.3543C168.148 38.6033 167.476 39.3579 165.705 39.3579ZM174.794 36.3159H172.546V33.16H183.601V35.2782H174.794V36.3159ZM156.056 33.16V44.3453H153.807V39.7612H146.499V44.3453H144.251V33.16H146.499V37.6173H153.807V33.16H156.056ZM122.148 42.8744V44.3453H120.916V33.16H122.164V37.5271C122.826 36.5159 124.058 35.9028 125.29 35.9028C127.6 35.9028 129.51 37.6803 129.51 40.2084C129.51 42.7364 127.631 44.5137 125.275 44.5137C124.058 44.5137 122.811 43.9163 122.148 42.8744ZM128.216 40.193C128.216 38.431 126.892 37.0521 125.167 37.0521C123.396 37.0521 122.056 38.4771 122.056 40.193C122.056 41.9397 123.396 43.334 125.167 43.334C126.892 43.334 128.216 42.0011 128.216 40.193ZM129.432 46.6605L130.23 45.6581C130.533 45.9701 130.911 46.2007 131.45 46.2007C132.328 46.2007 132.728 45.7088 133.344 44.3453L133.529 43.9469L130.048 36.0715H131.419L134.206 42.4759L136.855 36.0715H138.226L134.453 44.713C133.652 46.567 132.913 47.3958 131.465 47.3958C130.649 47.3958 129.925 47.1047 129.432 46.6605ZM39.9444 7.90921L38.633 13.1037C38.2971 12.964 36.9815 12.4866 35.5702 12.4866C33.6296 12.4866 31.5044 13.3891 31.5044 17.3182V28.0758H26.2425V7.73888H31.4666V10.8647C32.4508 8.4544 34.4193 7.32843 37.0314 7.32843C38.1369 7.32843 39.1392 7.57534 39.9444 7.90921ZM22.895 4.75614V9.76688C21.7688 9.76688 20.2567 9.92911 19.2491 10.5236C20.9159 12.258 21.932 14.598 21.932 17.2932C21.932 23.097 17.2251 27.258 11.4394 27.258C9.67243 27.258 8.00719 26.8682 6.54485 26.1637C4.73399 27.8503 4.73334 30.3743 7.93952 30.3743H14.2484C19.4914 30.3743 22.895 32.7639 22.895 37.4307H17.5665C17.4136 36.0786 16.6197 35.2616 13.2532 35.2616H6.2365C1.57255 35.2616 0 32.7956 0 30.0734C0 27.4014 1.49692 25.1735 3.31669 23.7217C1.83658 22.0267 0.946811 19.8154 0.946811 17.2932C0.946811 11.4894 5.65371 7.32843 11.4394 7.32843C13.1556 7.32843 14.7753 7.69703 16.2069 8.36353C17.0169 6.31224 19.5571 4.75614 22.895 4.75614ZM16.683 17.2932C16.683 14.393 14.5927 12.0336 11.4394 12.0336C8.28614 12.0336 6.19586 14.393 6.19586 17.2932C6.19586 20.1934 8.28614 22.5528 11.4394 22.5528C14.5927 22.5528 16.683 20.1934 16.683 17.2932ZM84.6489 17.7566C84.6489 17.7566 84.6576 18.9424 84.5264 19.715H68.5469C69.2282 22.3513 71.317 24.0084 74.3454 24.0084C76.7682 24.0084 78.2808 23.0369 79.5628 21.42L83.6268 23.7824C81.5826 26.6447 78.7746 28.49 74.2699 28.49C67.6828 28.49 63.512 23.8577 63.512 17.945C63.512 12.0322 68.0615 7.32458 74.1562 7.32458C80.2888 7.32458 84.6489 11.7309 84.6489 17.7566ZM79.4627 15.6476C78.7812 13.1244 76.8819 11.7309 74.1562 11.7309C71.5064 11.7309 69.5311 13.275 68.6982 15.6476H79.4627ZM185 17.7566C185 17.7566 185.009 18.9424 184.877 19.715H168.898C169.579 22.3513 171.668 24.0084 174.696 24.0084C177.119 24.0084 178.632 23.0369 179.914 21.42L183.978 23.7824C181.934 26.6447 179.126 28.49 174.621 28.49C168.034 28.49 163.863 23.8577 163.863 17.945C163.863 12.0322 168.412 7.32458 174.507 7.32458C180.64 7.32458 185 11.7309 185 17.7566ZM179.814 15.6476C179.132 13.1244 177.233 11.7309 174.507 11.7309C171.857 11.7309 169.882 13.275 169.049 15.6476H179.814ZM99.4308 7.32458C96.8946 7.32458 94.7747 8.45439 93.4497 10.2998V7.73888H88.2256V28.0758H93.4876V16.8528C93.4876 13.6893 95.3804 11.8816 97.8409 11.8816C100.604 11.8816 102.005 13.6893 102.005 16.5892V28.0758H107.343V15.7983C107.343 10.4881 104.276 7.32458 99.4308 7.32458ZM111.729 28.0758H116.953V-0.395874H111.729V28.0758ZM139.864 15.5724V28.0758H134.829V24.9499C133.353 27.0589 130.552 28.49 127.334 28.49C122.867 28.49 120.217 26.0044 120.217 22.4266C120.217 18.2086 123.738 15.61 129.416 15.61H134.791V15.3463C134.791 13.1621 133.315 11.6555 130.362 11.6555C127.965 11.6555 126.312 12.8803 125.263 14.4036L120.986 11.8567C122.952 9.08592 125.82 7.32458 130.4 7.32458C136.419 7.32458 139.864 10.4504 139.864 15.5724ZM134.829 19.4138H129.925C126.821 19.4138 125.668 20.5211 125.668 21.9747C125.668 23.4434 126.69 24.1967 128.848 24.1967C132.157 24.1967 134.567 22.0706 134.829 19.4138ZM60.7117 17.7566C60.7117 17.7566 60.7204 18.9424 60.5892 19.715H44.6097C45.291 22.3513 47.3798 24.0084 50.4082 24.0084C52.831 24.0084 54.3437 23.0369 55.6256 21.42L59.6896 23.7824C57.6455 26.6447 54.8374 28.49 50.3327 28.49C43.7457 28.49 39.5748 23.8577 39.5748 17.945C39.5748 12.0322 44.1243 7.32458 50.219 7.32458C56.3516 7.32458 60.7117 11.7309 60.7117 17.7566ZM55.5255 15.6476C54.8441 13.1244 52.9446 11.7309 50.219 11.7309C47.5692 11.7309 45.5939 13.275 44.7611 15.6476H55.5255ZM164.08 7.73888H157.795L149.475 16.8277V-0.395874H144.251V28.0758H149.475V18.3592L157.87 28.0758H164.346L154.974 17.4159L164.08 7.73888Z" fill="black"/>
</g>
<defs>
<clipPath id="clip0_1477_256530">
<rect width="185" height="48" fill="white"/>
</clipPath>
</defs>
</svg>
