<svg id="Layer_1" data-name="Layer 1" xmlns="http://www.w3.org/2000/svg" width="280.4019" height="100" viewBox="0 0 280.4019 100">
  <defs>
    <style>
      .cls-1 {
        fill: #01a982;
      }
    </style>
  </defs>
  <g>
    <path id="_Compound_Path_" data-name="&lt;Compound Path&gt;" class="cls-1" d="M270.94715,33.99719H138.58744V9.45465H270.94715V33.99719ZM129.13145,0V43.45H280.40191V0Z"/>
    <path d="M25.68429,89.2974V85.40414h-5.772V77.10187H34.8959V94.67972A21.09991,21.09991,0,0,1,20.23605,100C7.78264,100,0,91.56589,0,79.56812c0-12.52127,8.62607-20.6917,21.2753-20.6917a21.9599,21.9599,0,0,1,11.54407,3.11384V72.10732a18.8431,18.8431,0,0,0-11.54407-3.63346c-6.35758,0-10.83251,4.219-10.83251,11.09426,0,6.74341,4.08522,11.15629,10.119,11.15629A8.40079,8.40079,0,0,0,25.68429,89.2974Zm33.80044-9.46947a8.7484,8.7484,0,0,0-4.21706-.91128c-2.7881,0-4.66881,1.23313-5.18843,3.30773V99.34854h-10.183V70.16069h10.183V72.7549a7.96984,7.96984,0,0,1,6.61545-3.2418,6.35492,6.35492,0,0,1,2.79.51962Zm12.00165,7.263c.84341,3.50161,3.69744,4.92862,7.45886,4.92862a14.97124,14.97124,0,0,0,8.43217-2.3344v7.71673C85.107,99.08873,81.53945,100,77.32434,100c-9.33957,0-15.69715-5.646-15.69715-15.04956,0-9.14374,6.09777-15.43734,14.14023-15.43734C84.84718,69.5131,89.454,75.415,89.454,84.109v2.982Zm.1299-5.708h8.756c-.25981-2.46626-1.75081-4.15308-4.21512-4.15308C73.95069,77.22983,72.32979,78.72277,71.61628,81.38291ZM102.10512,87.091c.84341,3.50161,3.69744,4.92862,7.45886,4.92862a14.97124,14.97124,0,0,0,8.43217-2.3344v7.71673C115.72573,99.08873,112.1582,100,107.94308,100c-9.33957,0-15.69715-5.646-15.69715-15.04956,0-9.14374,6.09777-15.43734,14.14023-15.43734,9.07976,0,13.68653,5.90194,13.68653,14.59587v2.982Zm.1299-5.708h8.756c-.25981-2.46626-1.7508-4.15308-4.21512-4.15308C104.56943,77.22983,102.94853,78.72277,102.235,81.38291Zm32.10974-11.22222v2.53217a10.57665,10.57665,0,0,1,7.84857-3.17976c6.48555,0,10.31289,4.21512,10.31289,10.7026V99.34854h-10.119V82.682c0-2.40033-1.23118-4.15307-3.8254-4.15307a4.182,4.182,0,0,0-4.21706,3.17976v17.6399h-10.183V70.16069ZM168.533,59.524V90.33276H186.3687v9.01578H158.09019V59.524Zm38.40333,22.24667c0-2.26848-2.07654-3.88939-6.22768-3.88939a16.08525,16.08525,0,0,0-7.97653,2.0746v-8.1743a23.31982,23.31982,0,0,1,10.44279-2.26849c8.62606,0,13.55468,4.08715,13.55468,11.80388V99.34854h-9.79326V97.85948c-.97332.96944-3.76142,2.00868-6.87526,2.00868-5.772,0-10.7026-3.24181-10.7026-9.40356,0-5.64213,4.93056-9.27558,11.22222-9.27558a12.66211,12.66211,0,0,1,6.35564,1.6209Zm0,7.72061a4.54446,4.54446,0,0,0-4.08716-2.01256c-2.01061,0-4.02123.84535-4.02123,2.792,0,2.00867,2.01062,2.854,4.02123,2.854a4.65087,4.65087,0,0,0,4.08716-1.94663Zm34.05831,9.85725-8.82189-12.7772v12.7772h-10.183V57.1896h10.183V81.189L240.475,70.16069h11.67591l-10.8325,13.4907,11.09231,15.69715ZM262.27379,87.091c.84341,3.50161,3.69744,4.92862,7.45886,4.92862a14.97124,14.97124,0,0,0,8.43217-2.3344v7.71673C275.8944,99.08873,272.32686,100,268.11175,100c-9.33957,0-15.69715-5.646-15.69715-15.04956,0-9.14374,6.09777-15.43734,14.14023-15.43734,9.07976,0,13.68653,5.90194,13.68653,14.59587v2.982Zm.1299-5.708h8.756c-.25981-2.46626-1.75081-4.15308-4.21512-4.15308C264.7381,77.22983,263.1172,78.72277,262.40369,81.38291ZM41.36787,43.44975h-11.389V26.25967H13.21344V43.44975H1.82448V.017h11.389V16.49743H29.97891V.017h11.389Zm17.68837,0H47.80882V.017H66.83889c9.40743,0,15.7747,5.30477,15.7747,14.99528,0,9.6207-6.36727,14.92547-15.7747,14.92547H59.05624ZM65.63485,9.56594H59.05624V20.46049h6.57861c4.10266,0,5.94266-2.19287,5.94266-5.44824C71.57751,11.689,69.73751,9.56594,65.63485,9.56594Zm52.91776.21134H98.67525v6.79188h18.1789v9.549H98.67525v7.49958h19.87736v9.832h-31.055V.017h31.055Z"/>
  </g>
</svg>
