<svg width="24" height="24" viewBox="0 0 24 24" fill="none" xmlns="http://www.w3.org/2000/svg">
<path d="M12.5 1C12.7761 1 13 1.22386 13 1.5V2.60888C13 2.86375 13.1921 3.07632 13.4437 3.11689C14.8521 3.34396 16.1508 3.89758 17.2601 4.6981C17.4666 4.84714 17.7525 4.83257 17.9326 4.65252L19.0107 3.57504C19.206 3.37987 19.5225 3.37991 19.7177 3.57513L20.4248 4.28219C20.62 4.47745 20.62 4.79403 20.4248 4.9893L19.3467 6.06736C19.1666 6.24751 19.1519 6.53344 19.3011 6.74001C20.1018 7.84933 20.6559 9.14776 20.8831 10.5563C20.9237 10.8079 21.1362 11 21.3911 11H22.5C22.7761 11 23 11.2239 23 11.5V12.5C23 12.7761 22.7761 13 22.5 13H21.3911C21.1362 13 20.9237 13.1921 20.8831 13.4437C20.6559 14.852 20.1015 16.15 19.3009 17.2591C19.1519 17.4656 19.1665 17.7515 19.3465 17.9316L20.425 19.0107C20.6201 19.206 20.6201 19.5225 20.4249 19.7177L19.7178 20.4248C19.5225 20.62 19.206 20.62 19.0107 20.4248L17.9326 19.3467C17.7525 19.1666 17.4666 19.1519 17.26 19.301C16.1507 20.1016 14.8522 20.6551 13.4437 20.8821C13.1921 20.9227 13 21.1353 13 21.3901V22.5C13 22.7761 12.7761 23 12.5 23H11.5C11.2239 23 11 22.7761 11 22.5V21.3901C11 21.1353 10.8079 20.9227 10.5563 20.8821C9.14754 20.6551 7.84863 20.1019 6.73916 19.3012C6.53252 19.152 6.2465 19.1667 6.06636 19.3469L4.9893 20.4246C4.79405 20.6199 4.47739 20.62 4.28209 20.4247L3.57504 19.7176C3.37985 19.5224 3.37976 19.206 3.57484 19.0107L4.65273 17.9316C4.83267 17.7515 4.84722 17.4657 4.69822 17.2592C3.89782 16.1501 3.344 14.8519 3.1169 13.4437C3.07632 13.1921 2.86375 13 2.60888 13H1.5C1.22386 13 1 12.7761 1 12.5V11.5C1 11.2239 1.22386 11 1.5 11H2.60888C2.86375 11 3.07632 10.8079 3.11689 10.5563C3.34396 9.14785 3.89758 7.84922 4.6981 6.73991C4.84714 6.53337 4.83257 6.24753 4.65252 6.06738L3.57504 4.9893C3.37987 4.79402 3.37991 4.47751 3.57513 4.28229L4.28219 3.57523C4.47745 3.37997 4.79403 3.37997 4.9893 3.57523L6.06638 4.65232C6.24653 4.83247 6.53246 4.84707 6.73905 4.69799C7.84852 3.89734 9.14759 3.34392 10.5563 3.11688C10.8079 3.07632 11 2.86375 11 2.60888V1.5C11 1.22386 11.2239 1 11.5 1H12.5ZM12 5C8.13401 5 5 8.13401 5 12C5 15.866 8.13401 19 12 19C15.866 19 19 15.866 19 12C19 8.13401 15.866 5 12 5Z" fill="#000"/>
<path d="M13.9895 12.0002C13.9895 10.9014 13.0991 10.0101 12.0002 10.01C10.9013 10.01 10.01 10.9013 10.01 12.0002C10.0102 13.099 10.9014 13.9895 12.0002 13.9895C13.099 13.9894 13.9894 13.099 13.9895 12.0002ZM15.9895 12.0002C15.9895 12.6007 15.856 13.1695 15.6181 13.6801C15.5218 13.8868 15.5504 14.1354 15.7116 14.2966L16.3701 14.955C16.5654 15.1504 16.5653 15.4672 16.3698 15.6624L16.0159 16.0159L15.6625 16.3697C15.4673 16.5652 15.1504 16.5653 14.955 16.3698L14.2976 15.7119C14.1364 15.5505 13.8876 15.5219 13.6809 15.6182C13.1701 15.8562 12.6009 15.9895 12.0002 15.9895C11.3993 15.9895 10.8296 15.8563 10.3185 15.6182C10.1118 15.5218 9.86313 15.5504 9.70186 15.7117L9.04423 16.3693C8.84896 16.5646 8.53238 16.5646 8.33712 16.3693L7.63003 15.6623C7.43482 15.467 7.43476 15.1506 7.6299 14.9553L8.28812 14.2966C8.44923 14.1353 8.4778 13.8868 8.38153 13.6802C8.1436 13.1697 8.01005 12.6007 8.01001 12.0002C8.01001 11.3994 8.14331 10.8296 8.38138 10.3185C8.47768 10.1118 8.44908 9.86314 8.28782 9.70188L7.63016 9.04423C7.4349 8.84896 7.4349 8.53238 7.63016 8.33712L8.33712 7.63016C8.53238 7.4349 8.84897 7.4349 9.04423 7.63016L9.70188 8.28782C9.86314 8.44908 10.1118 8.47768 10.3185 8.38137C10.8296 8.1433 11.3994 8.01001 12.0002 8.01001C12.6009 8.01005 13.1702 8.14342 13.681 8.3814C13.8877 8.47771 14.1364 8.44909 14.2976 8.28785L14.9554 7.63004C15.1506 7.43483 15.4671 7.43477 15.6624 7.62992L16.3699 8.33699C16.5654 8.53228 16.5654 8.84906 16.3699 9.04435L15.7119 9.70186C15.5505 9.86312 15.5219 10.1119 15.6182 10.3187C15.8563 10.8297 15.9895 11.3994 15.9895 12.0002Z" fill="#000"/>
</svg>
