<svg width="24" height="24" viewBox="0 0 24 24" fill="none" xmlns="http://www.w3.org/2000/svg">
<path d="M12.5 1C12.7761 1 13 1.22386 13 1.5V2.60888C13 2.86375 13.1921 3.07632 13.4437 3.11689C14.8521 3.34396 16.1508 3.89758 17.2601 4.6981C17.4666 4.84714 17.7525 4.83257 17.9326 4.65252L19.0107 3.57504C19.206 3.37987 19.5225 3.37991 19.7177 3.57513L20.4248 4.28219C20.62 4.47745 20.62 4.79403 20.4248 4.9893L19.3467 6.06736C19.1666 6.24751 19.1519 6.53344 19.3011 6.74001C20.1018 7.84933 20.6559 9.14776 20.8831 10.5563C20.9237 10.8079 21.1362 11 21.3911 11H22.5C22.7761 11 23 11.2239 23 11.5V12.5C23 12.7761 22.7761 13 22.5 13H21.3911C21.1362 13 20.9237 13.1921 20.8831 13.4437C20.6559 14.852 20.1015 16.15 19.3009 17.2591C19.1519 17.4656 19.1665 17.7515 19.3465 17.9316L20.425 19.0107C20.6201 19.206 20.6201 19.5225 20.4249 19.7177L19.7178 20.4248C19.5225 20.62 19.206 20.62 19.0107 20.4248L17.9326 19.3467C17.7525 19.1666 17.4666 19.1519 17.26 19.301C16.1507 20.1016 14.8522 20.6551 13.4437 20.8821C13.1921 20.9227 13 21.1353 13 21.3901V22.5C13 22.7761 12.7761 23 12.5 23H11.5C11.2239 23 11 22.7761 11 22.5V21.3901C11 21.1353 10.8079 20.9227 10.5563 20.8821C9.14754 20.6551 7.84863 20.1019 6.73916 19.3012C6.53252 19.152 6.2465 19.1667 6.06636 19.3469L4.9893 20.4246C4.79405 20.6199 4.47739 20.62 4.28209 20.4247L3.57504 19.7176C3.37985 19.5224 3.37976 19.206 3.57484 19.0107L4.65273 17.9316C4.83267 17.7515 4.84722 17.4657 4.69822 17.2592C3.89782 16.1501 3.344 14.8519 3.1169 13.4437C3.07632 13.1921 2.86375 13 2.60888 13H1.5C1.22386 13 1 12.7761 1 12.5V11.5C1 11.2239 1.22386 11 1.5 11H2.60888C2.86375 11 3.07632 10.8079 3.11689 10.5563C3.34396 9.14785 3.89758 7.84922 4.6981 6.73991C4.84714 6.53337 4.83257 6.24753 4.65252 6.06738L3.57504 4.9893C3.37987 4.79402 3.37991 4.47751 3.57513 4.28229L4.28219 3.57523C4.47745 3.37997 4.79403 3.37997 4.9893 3.57523L6.06638 4.65232C6.24653 4.83247 6.53246 4.84707 6.73905 4.69799C7.84852 3.89734 9.14759 3.34392 10.5563 3.11688C10.8079 3.07632 11 2.86375 11 2.60888V1.5C11 1.22386 11.2239 1 11.5 1H12.5ZM12 5C8.13401 5 5 8.13401 5 12C5 15.866 8.13401 19 12 19C15.866 19 19 15.866 19 12C19 8.13401 15.866 5 12 5Z" fill="#000"/>
</svg>
