<svg width="24" height="24" viewBox="0 0 24 24" fill="none" xmlns="http://www.w3.org/2000/svg">
<path fill-rule="evenodd" clip-rule="evenodd" d="M5.99992 13C6.86545 13 7.49437 12.9918 8.03507 13.1367C9.4154 13.5065 10.4933 14.5845 10.8632 15.9648C11.0081 16.5055 10.9999 17.1345 10.9999 18C10.9999 18.8655 11.0081 19.4944 10.8632 20.0351C10.4933 21.4154 9.41541 22.4934 8.03507 22.8632C7.49437 23.0081 6.86546 23 5.99992 23C5.13438 23 4.50546 23.0081 3.96476 22.8632C2.58446 22.4934 1.50651 21.4154 1.13663 20.0351C0.991787 19.4944 0.999915 18.8654 0.999915 18C0.999915 17.1345 0.991777 16.5055 1.13663 15.9648C1.50652 14.5845 2.58445 13.5066 3.96476 13.1367C4.50546 12.9918 5.13438 13 5.99992 13ZM5.99992 15C5.00564 15 4.70461 15.0088 4.48234 15.0683C3.79222 15.2533 3.25322 15.7923 3.06827 16.4824C3.00874 16.7046 2.99992 17.0058 2.99992 18C2.99992 18.9941 3.00875 19.2953 3.06827 19.5175C3.25322 20.2077 3.79222 20.7466 4.48234 20.9316C4.70461 20.9912 5.00565 21 5.99992 21C6.99415 21 7.29522 20.9911 7.51749 20.9316C8.20765 20.7467 8.7466 20.2077 8.93156 19.5175C8.99109 19.2953 8.99992 18.9941 8.99992 18C8.99991 17.0058 8.9911 16.7046 8.93156 16.4824C8.74659 15.7923 8.20764 15.2532 7.51749 15.0683C7.29523 15.0088 6.99412 15 5.99992 15Z" fill="#000"/>
<path fill-rule="evenodd" clip-rule="evenodd" d="M17.9999 13C18.8654 13 19.4944 12.9918 20.0351 13.1367C21.4154 13.5065 22.4933 14.5845 22.8632 15.9648C23.0081 16.5055 22.9999 17.1345 22.9999 18C22.9999 18.8655 23.0081 19.4944 22.8632 20.0351C22.4933 21.4154 21.4154 22.4934 20.0351 22.8632C19.4944 23.0081 18.8655 23 17.9999 23C17.1344 23 16.5055 23.0081 15.9648 22.8632C14.5845 22.4934 13.5065 21.4154 13.1366 20.0351C12.9918 19.4944 12.9999 18.8654 12.9999 18C12.9999 17.1345 12.9918 16.5055 13.1366 15.9648C13.5065 14.5845 14.5845 13.5066 15.9648 13.1367C16.5055 12.9918 17.1344 13 17.9999 13ZM17.9999 15C17.0056 15 16.7046 15.0088 16.4823 15.0683C15.7922 15.2533 15.2532 15.7923 15.0683 16.4824C15.0087 16.7046 14.9999 17.0058 14.9999 18C14.9999 18.9941 15.0087 19.2953 15.0683 19.5175C15.2532 20.2077 15.7922 20.7466 16.4823 20.9316C16.7046 20.9912 17.0056 21 17.9999 21C18.9942 21 19.2952 20.9911 19.5175 20.9316C20.2077 20.7467 20.7466 20.2077 20.9316 19.5175C20.9911 19.2953 20.9999 18.9941 20.9999 18C20.9999 17.0058 20.9911 16.7046 20.9316 16.4824C20.7466 15.7923 20.2076 15.2532 19.5175 15.0683C19.2952 15.0088 18.9941 15 17.9999 15Z" fill="#000"/>
<path fill-rule="evenodd" clip-rule="evenodd" d="M5.99992 0.999962C6.86545 0.999962 7.49437 0.991824 8.03507 1.13668C9.4154 1.50654 10.4933 2.5845 10.8632 3.96481C11.0081 4.50549 10.9999 5.13447 10.9999 5.99996C10.9999 6.86547 11.0081 7.49443 10.8632 8.03512C10.4933 9.41545 9.41541 10.4934 8.03507 10.8632C7.49437 11.0081 6.86546 11 5.99992 11C5.13438 11 4.50546 11.0081 3.96476 10.8632C2.58446 10.4934 1.50651 9.41542 1.13663 8.03512C0.991787 7.49444 0.999915 6.86545 0.999915 5.99996C0.999915 5.13447 0.991777 4.50549 1.13663 3.96481C1.50652 2.5845 2.58445 1.50656 3.96476 1.13668C4.50546 0.991801 5.13438 0.999961 5.99992 0.999962ZM5.99992 2.99996C5.00564 2.99996 4.70461 3.00876 4.48234 3.06832C3.79222 3.25327 3.25322 3.79226 3.06827 4.48238C3.00874 4.70465 2.99992 5.00581 2.99992 5.99996C2.99992 6.99407 3.00875 7.29528 3.06827 7.51754C3.25322 8.20766 3.79222 8.74665 4.48234 8.9316C4.70461 8.99116 5.00565 8.99996 5.99992 8.99996C6.99415 8.99996 7.29522 8.99114 7.51749 8.9316C8.20765 8.74667 8.7466 8.20769 8.93156 7.51754C8.99109 7.29528 8.99992 6.99413 8.99992 5.99996C8.99991 5.0058 8.9911 4.70465 8.93156 4.48238C8.74659 3.79226 8.20764 3.25325 7.51749 3.06832C7.29523 3.00879 6.99412 2.99996 5.99992 2.99996Z" fill="#000"/>
<path fill-rule="evenodd" clip-rule="evenodd" d="M17.9999 0.999962C18.8655 0.999962 19.4944 0.991824 20.0351 1.13668C21.4154 1.50654 22.4933 2.5845 22.8632 3.96481C23.0081 4.50549 22.9999 5.13447 22.9999 5.99996C22.9999 6.86547 23.0081 7.49443 22.8632 8.03512C22.4933 9.41545 21.4154 10.4934 20.0351 10.8632C19.4944 11.0081 18.8655 11 17.9999 11C17.1344 11 16.5055 11.0081 15.9648 10.8632C14.5845 10.4934 13.5065 9.41542 13.1366 8.03512C12.9918 7.49444 12.9999 6.86545 12.9999 5.99996C12.9999 5.13447 12.9918 4.50549 13.1366 3.96481C13.5065 2.5845 14.5845 1.50656 15.9648 1.13668C16.5055 0.991801 17.1344 0.999961 17.9999 0.999962ZM17.9999 2.99996C17.0056 2.99996 16.7046 3.00876 16.4823 3.06832C15.7922 3.25327 15.2532 3.79226 15.0683 4.48238C15.0087 4.70465 14.9999 5.00581 14.9999 5.99996C14.9999 6.99407 15.0087 7.29528 15.0683 7.51754C15.2532 8.20766 15.7922 8.74665 16.4823 8.9316C16.7046 8.99116 17.0056 8.99996 17.9999 8.99996C18.9942 8.99996 19.2952 8.99114 19.5175 8.9316C20.2077 8.74667 20.7466 8.20769 20.9316 7.51754C20.9911 7.29528 20.9999 6.99413 20.9999 5.99996C20.9999 5.0058 20.9911 4.70465 20.9316 4.48238C20.7466 3.79226 20.2076 3.25325 19.5175 3.06832C19.2952 3.00879 18.9941 2.99996 17.9999 2.99996Z" fill="#000"/>
</svg>
