<svg width="24" height="24" viewBox="0 0 24 24" fill="none" xmlns="http://www.w3.org/2000/svg">
<path d="M21.0002 20C21.5524 20.0001 22.0002 20.4478 22.0002 21C22.0002 21.5522 21.5524 21.9999 21.0002 22H7.00022C6.44794 22 6.00022 21.5523 6.00022 21C6.00024 20.4477 6.44795 20 7.00022 20H21.0002Z" fill="currentColor"/>
<path d="M21.0002 16C21.5524 16.0001 22.0002 16.4478 22.0002 17C22.0002 17.5522 21.5524 17.9999 21.0002 18H11.0002C10.4479 18 10.0002 17.5523 10.0002 17C10.0002 16.4477 10.448 16 11.0002 16H21.0002Z" fill="currentColor"/>
<path d="M6.96116 2.00001C7.19311 1.99905 7.41742 2.07869 7.59593 2.22364L7.66917 2.29005L11.7043 6.29005C12.0963 6.67886 12.0988 7.31197 11.7102 7.70411C11.3214 8.09616 10.6883 8.09867 10.2961 7.70997L8.00022 5.43263V13C8.00022 13.5522 7.55241 13.9999 7.00022 14C6.44794 14 6.00022 13.5523 6.00022 13V5.39356L3.71018 7.70411C3.32138 8.09615 2.6883 8.09865 2.29612 7.70997C1.90405 7.32114 1.90149 6.68808 2.29026 6.29591L6.25511 2.29591C6.4418 2.10765 6.69603 2.00118 6.96116 2.00001Z" fill="currentColor"/>
<path d="M21.0002 12C21.5524 12.0001 22.0002 12.4478 22.0002 13C22.0002 13.5522 21.5524 13.9999 21.0002 14H15.0002C14.4479 14 14.0002 13.5523 14.0002 13C14.0002 12.4477 14.448 12 15.0002 12H21.0002Z" fill="currentColor"/>
<path d="M21.0002 8.00001C21.5524 8.00013 22.0002 8.44781 22.0002 9.00001C22.0002 9.55222 21.5524 9.99989 21.0002 10H19.0002C18.4479 10 18.0002 9.55229 18.0002 9.00001C18.0002 8.44774 18.448 8.00001 19.0002 8.00001H21.0002Z" fill="currentColor"/>
</svg>
