<svg width="24" height="24" viewBox="0 0 24 24" fill="none" xmlns="http://www.w3.org/2000/svg">
<path d="M8.50015 1C11.7127 1.00007 14.4285 3.17735 15.4962 5.95312C16.5937 8.80645 15.9587 12.2805 12.5998 14.7998C11.6985 15.4758 11.4068 15.9883 11.3332 16.4229C11.2534 16.8937 11.3827 17.5287 11.8947 18.5527C12.6887 20.1408 11.8277 21.8788 10.5998 22.7998C9.3251 23.7557 7.44351 24.0642 5.62125 22.9453L5.44547 22.832C4.91715 22.4798 4.39547 22.0882 4.0109 21.7891C3.81777 21.6389 3.65657 21.5098 3.54312 21.418C3.48651 21.3721 3.44141 21.3351 3.41031 21.3096C3.39481 21.2968 3.38259 21.2863 3.37418 21.2793C3.37013 21.2759 3.36672 21.2734 3.36441 21.2715L3.36148 21.2695L3.36051 21.2686C2.93632 20.915 2.87806 20.2836 3.2316 19.8594C3.58519 19.4353 4.21656 19.3779 4.64078 19.7314L4.64176 19.7334C4.64176 19.7334 4.64627 19.7365 4.64957 19.7393C4.65626 19.7448 4.66635 19.7536 4.67984 19.7646C4.70729 19.7872 4.74854 19.8209 4.80094 19.8633C4.90615 19.9485 5.05792 20.0698 5.23941 20.2109C5.60477 20.4951 6.08339 20.8537 6.55484 21.168L6.7648 21.2979C7.80681 21.8903 8.75923 21.6812 9.40055 21.2002C10.1723 20.6212 10.3115 19.8591 10.1056 19.4473C9.54275 18.3215 9.17261 17.2063 9.36148 16.0898C9.55664 14.937 10.3022 14.024 11.4005 13.2002C14.0411 11.2196 14.4064 8.6934 13.6291 6.67188C12.8217 4.57286 10.7874 3.00007 8.50015 3C7.07314 3 5.77091 3.5338 4.75894 4.25293C3.71802 4.99278 3.10824 5.83695 2.9484 6.31641C2.77365 6.84011 2.20755 7.12276 1.68375 6.94824C1.15999 6.77348 0.877297 6.20744 1.05191 5.68359C1.39218 4.66319 2.35547 3.50702 3.60074 2.62207C4.87536 1.71631 6.57381 1 8.50015 1Z" fill="#000"/>
<path d="M4.66812 7.44531C5.8394 5.68839 7.64247 4.86873 9.31656 5.42676C10.9833 5.98259 12.0001 7.72982 12.0002 10C12.0002 10.5522 11.5524 10.9999 11.0002 11C10.4479 11 10.0002 10.5523 10.0002 10C10.0001 8.27055 9.26673 7.51765 8.68375 7.32324C8.10783 7.13143 7.16068 7.31195 6.33219 8.55469C6.0722 8.94468 5.96051 9.39978 5.82144 10.0498C6.44898 10.1844 7.05067 10.5249 7.49136 11.0303C8.21009 11.8546 8.45756 13.049 7.92886 14.3711C7.48627 15.4776 6.93075 16.3123 6.48062 16.875C6.25556 17.1563 6.05573 17.3712 5.90738 17.5195C5.83316 17.5938 5.77125 17.652 5.72574 17.6934C5.70313 17.7139 5.68441 17.7307 5.67008 17.7432C5.66296 17.7494 5.65645 17.7546 5.65152 17.7588C5.64916 17.7608 5.64653 17.7631 5.64469 17.7646L5.64176 17.7676C5.63932 17.7651 5.60161 17.7217 5.00015 17L5.64078 17.7686C5.21655 18.1221 4.58519 18.0648 4.2316 17.6406C3.87806 17.2164 3.93532 16.585 4.35953 16.2314C4.36369 16.2278 4.37145 16.2216 4.38101 16.2129C4.40429 16.1917 4.44293 16.1559 4.49332 16.1055C4.59488 16.0039 4.74449 15.8433 4.9191 15.625C5.2689 15.1877 5.71414 14.5221 6.07144 13.6289C6.34245 12.9513 6.173 12.562 5.98355 12.3447C5.79237 12.1256 5.52336 12.0119 5.30484 11.9893C5.0784 12.5706 4.74687 13.1673 4.20719 13.707C3.81669 14.0975 3.18365 14.0975 2.79312 13.707C2.40261 13.3165 2.4026 12.6835 2.79312 12.293C3.33001 11.756 3.54586 11.1011 3.73258 10.252C3.90082 9.48679 4.06381 8.35181 4.66812 7.44531Z" fill="#000"/>
<path d="M16.5675 12.793C16.9581 12.4025 17.5911 12.4025 17.9816 12.793L19.4816 14.293C19.872 14.6835 19.872 15.3165 19.4816 15.707C19.0911 16.0975 18.4581 16.0975 18.0675 15.707L16.5675 14.207C16.177 13.8165 16.177 13.1835 16.5675 12.793Z" fill="#000"/>
<path d="M21.2746 7.5C21.8268 7.50008 22.2746 7.94777 22.2746 8.5C22.2746 9.05223 21.8268 9.49992 21.2746 9.5H18.3332C17.7809 9.5 17.3332 9.05228 17.3332 8.5C17.3332 7.94772 17.7809 7.5 18.3332 7.5H21.2746Z" fill="#000"/>
<path d="M18.675 1.2002C19.1168 0.869046 19.7431 0.958635 20.0744 1.40039C20.4055 1.84218 20.3159 2.46848 19.8742 2.7998L17.8742 4.2998C17.4324 4.63102 16.8061 4.54133 16.4748 4.09961C16.1435 3.65778 16.2332 3.03153 16.675 2.7002L18.675 1.2002Z" fill="#000"/>
</svg>
