<svg width="24" height="24" viewBox="0 0 24 24" fill="none" xmlns="http://www.w3.org/2000/svg">
<path d="M13.9998 14C14.2336 14 14.4608 14.0818 14.6404 14.2314L17.6404 16.7314C17.8561 16.9113 17.9861 17.1745 17.9988 17.4551C18.0114 17.7356 17.9053 18.0085 17.7068 18.207L15.2068 20.707C14.8163 21.0973 14.1832 21.0974 13.7928 20.707C13.4025 20.3166 13.4025 19.6834 13.7928 19.293L15.5174 17.5674L14.1277 16.4092C14.1125 16.4248 14.0975 16.4414 14.0818 16.457C13.8603 16.6785 13.5769 16.9261 13.2488 17.123C12.9259 17.3167 12.4954 17.5 11.9998 17.5C11.5041 17.4999 11.0736 17.3168 10.7508 17.123C10.4502 16.9426 10.1877 16.7191 9.97537 16.5127L8.9158 17.6787L10.6687 19.2568C11.0791 19.6263 11.1123 20.2585 10.743 20.6689C10.3735 21.0792 9.74127 21.1124 9.33084 20.7432L6.83084 18.4932C6.63323 18.3152 6.51408 18.0654 6.50076 17.7998C6.48753 17.5343 6.58078 17.2739 6.75955 17.0771L9.25955 14.3271L9.33475 14.2529C9.51683 14.0909 9.75361 14.0001 9.99979 14H13.9998ZM13.9998 8C14.2267 8.00004 14.4476 8.07706 14.6248 8.21875L19.6248 12.2188C20.0559 12.5638 20.1259 13.1938 19.781 13.625C19.436 14.0561 18.806 14.1261 18.3748 13.7812L14.9998 11.0811V12C14.9998 12.5522 14.552 12.9999 13.9998 13H9.99979C9.44768 12.9998 8.99979 12.5522 8.99979 12V11.0811L5.62479 13.7812C5.19356 14.126 4.5635 14.0561 4.21854 13.625C3.87376 13.1938 3.94379 12.5637 4.37479 12.2188L9.37479 8.21875L9.51541 8.125C9.6627 8.0435 9.82963 8.00006 9.99979 8H13.9998ZM11.9998 3C13.1043 3.00011 13.9998 3.8955 13.9998 5C13.9998 6.1045 13.1043 6.99989 11.9998 7C10.8954 6.99979 9.99979 6.10444 9.99979 5C9.99979 3.89556 10.8954 3.00021 11.9998 3Z" fill="#000"/>
</svg>
