<svg width="24" height="24" viewBox="0 0 24 24" fill="none" xmlns="http://www.w3.org/2000/svg">
<path fill-rule="evenodd" clip-rule="evenodd" d="M15 1C16.1046 1 17 1.89543 17 3V3.03516C18.1743 3.1142 19.1901 3.3727 19.9102 4.09277C20.8277 5.01055 21 6.40856 21 8.00293V18.0029C21 19.5972 20.8278 20.9954 19.9102 21.9131C18.9924 22.8306 17.5944 23.0029 16 23.0029H8C6.40563 23.0029 5.00762 22.8306 4.08984 21.9131C3.17217 20.9954 3.00004 19.5972 3 18.0029V8.00293C3 6.40856 3.17229 5.01055 4.08984 4.09277C4.80992 3.3727 5.82574 3.1142 7 3.03516V3C7 1.89543 7.89543 1 9 1H15ZM16.9971 5.03906C16.9762 6.12558 16.0915 7 15 7H9C7.90849 7 7.02278 6.12559 7.00195 5.03906C6.11487 5.11346 5.71658 5.29416 5.50391 5.50684C5.22408 5.78689 5 6.38877 5 8.00293V18.0029C5.00005 19.6172 5.22399 20.2191 5.50391 20.499C5.78396 20.7789 6.38584 21.0029 8 21.0029H16C17.6142 21.0029 18.216 20.7789 18.4961 20.499C18.776 20.2191 19 19.6172 19 18.0029V8.00293C19 6.38877 18.7759 5.78689 18.4961 5.50684C18.2833 5.29408 17.8848 5.11341 16.9971 5.03906ZM9 5H15V3H9V5Z" fill="#000"/>
</svg>
