<svg width="24" height="24" viewBox="0 0 24 24" fill="none" xmlns="http://www.w3.org/2000/svg">
<path fill-rule="evenodd" clip-rule="evenodd" d="M10.7334 1.05867C11.5933 0.658102 12.5971 0.686822 13.4365 1.14461L16.9365 3.05379C17.9002 3.57947 18.4999 4.58987 18.5 5.68758V9.31258C18.5 9.52185 18.4775 9.72864 18.4355 9.92879C18.607 9.98509 18.775 10.0565 18.9365 10.1446L22.4365 12.0538C23.4002 12.5795 23.9999 13.5899 24 14.6876V18.3126C23.9999 19.4102 23.4001 20.4207 22.4365 20.9464L18.9365 22.8555C18.7285 22.969 18.5097 23.0546 18.2861 23.1153C18.1031 23.3489 17.8197 23.5001 17.5 23.5001C17.18 23.5001 16.8959 23.3491 16.7129 23.1153C16.4897 23.0546 16.2713 22.9689 16.0635 22.8555L12.5635 20.9464C12.3581 20.8343 12.17 20.6991 12 20.547C11.83 20.6991 11.6419 20.8343 11.4365 20.9464L7.93652 22.8555C7.72846 22.969 7.50968 23.0546 7.28613 23.1153C7.10308 23.3489 6.81974 23.5001 6.5 23.5001C6.18004 23.5001 5.89593 23.3491 5.71289 23.1153C5.54976 23.0709 5.38895 23.014 5.2334 22.9415L5.06348 22.8555L1.56348 20.9464C0.599873 20.4207 9.01109e-05 19.4102 0 18.3126V14.6876C7.9215e-05 13.5899 0.599818 12.5795 1.56348 12.0538L5.06348 10.1446C5.2247 10.0567 5.39233 9.98505 5.56348 9.92879C5.52154 9.7287 5.50002 9.52178 5.5 9.31258V5.68758C5.50008 4.58987 6.09982 3.57947 7.06348 3.05379L10.5635 1.14461L10.7334 1.05867ZM2 18.3126C2.00009 18.6784 2.20035 19.0153 2.52148 19.1905L5.5 20.8145V17.088L2 15.1436V18.3126ZM7.5 17.088V20.8145L10.4785 19.1905C10.7997 19.0153 10.9999 18.6784 11 18.3126V15.1436L7.5 17.088ZM13 18.3126C13.0001 18.6784 13.2003 19.0153 13.5215 19.1905L16.5 20.8145V17.088L13 15.1436V18.3126ZM18.5 17.088V20.8145L21.4785 19.1905C21.7997 19.0153 21.9999 18.6784 22 18.3126V15.1436L18.5 17.088ZM6.97852 11.9005C6.68023 11.7379 6.31977 11.7379 6.02148 11.9005L3.12402 13.4805L6.5 15.3555L9.875 13.4805L6.97852 11.9005ZM17.9785 11.9005C17.6802 11.7379 17.3198 11.7379 17.0215 11.9005L14.124 13.4805L17.5 15.3555L20.875 13.4805L17.9785 11.9005ZM7.5 9.31258C7.50009 9.67839 7.70035 10.0153 8.02148 10.1905L11 11.8145V8.11824L7.5 6.36824V9.31258ZM13 8.11824V11.8145L15.9785 10.1905L16.0938 10.1182C16.3471 9.93144 16.4999 9.63265 16.5 9.31258V6.36824L13 8.11824ZM12.4785 2.90047C12.1802 2.73793 11.8198 2.73793 11.5215 2.90047L8.41992 4.59187L12 6.38191L15.5791 4.59187L12.4785 2.90047Z" fill="#000"/>
</svg>
