<svg width="24" height="24" viewBox="0 0 24 24" fill="none" xmlns="http://www.w3.org/2000/svg">
<path d="M21 4C22.1046 4 23 4.89543 23 6V18C23 19.1046 22.1046 20 21 20H3C1.89543 20 1 19.1046 1 18V6C1 4.89543 1.89543 4 3 4H21ZM3 18H4.73047C4.38454 17.4027 3.73993 17 3 17V18ZM6.87402 6C6.42998 7.72523 4.86384 9 3 9V15C4.86384 15 6.42998 16.2748 6.87402 18H17.126C17.57 16.2748 19.1362 15 21 15V9C19.1362 9 17.57 7.72523 17.126 6H6.87402ZM21 17C20.2601 17 19.6155 17.4027 19.2695 18H21V17ZM12 7C13.2136 7 14.2359 7.65821 14.9209 8.57129C15.6056 9.48426 16 10.7 16 12C16 13.3 15.6056 14.5157 14.9209 15.4287C14.2359 16.3418 13.2136 17 12 17C10.7864 17 9.76406 16.3418 9.0791 15.4287C8.39437 14.5157 8 13.3 8 12C8 10.7 8.39437 9.48426 9.0791 8.57129C9.76406 7.65821 10.7864 7 12 7ZM12 9C11.5569 9 11.0795 9.2371 10.6787 9.77148C10.2777 10.3062 10 11.0909 10 12C10 12.9091 10.2777 13.6938 10.6787 14.2285C11.0795 14.7629 11.5569 15 12 15C12.4431 15 12.9205 14.7629 13.3213 14.2285C13.7223 13.6938 14 12.9091 14 12C14 11.0909 13.7223 10.3062 13.3213 9.77148C12.9205 9.2371 12.4431 9 12 9ZM3 7C3.73993 7 4.38454 6.59733 4.73047 6H3V7ZM19.2695 6C19.6155 6.59733 20.2601 7 21 7V6H19.2695Z" fill="#000"/>
</svg>
