<svg width="24" height="24" viewBox="0 0 24 24" fill="none" xmlns="http://www.w3.org/2000/svg">
<path fill-rule="evenodd" clip-rule="evenodd" d="M17.0059 1.00488C17.8308 1.05388 18.5859 1.46565 19.0957 2.11816L22.3448 6.27637C23.1772 7.34188 23.2196 8.85647 22.4541 9.96973L14.3653 21.7334C13.2041 23.422 10.796 23.422 9.63481 21.7334L1.54594 9.96973C0.780512 8.85646 0.822876 7.34189 1.65531 6.27637L4.90434 2.11816C5.44822 1.42211 6.2712 1.00008 7.1602 1H16.8399L17.0059 1.00488ZM12 18.8867L15.3838 9.11719H8.61625L12 18.8867ZM9.65824 18.2383L6.55082 9.26367L6.54691 9.25391C6.53185 9.20892 6.52082 9.16267 6.50785 9.11719H3.38773L9.65824 18.2383ZM17.4532 9.25391L17.4502 9.26367L14.3409 18.2383L20.6123 9.11719H17.4922C17.4793 9.16267 17.4682 9.20891 17.4532 9.25391ZM7.0684 3.00586C6.85302 3.03118 6.63922 3.14522 6.47953 3.34961L3.53617 7.11719H6.59672C6.62298 7.04901 6.64954 6.98053 6.6807 6.91406L8.51469 3H7.1602L7.0684 3.00586ZM8.79398 7.11719H15.2061L13.2754 3H10.7246L8.79398 7.11719ZM17.3194 6.91406C17.3505 6.98054 17.3771 7.04901 17.4034 7.11719H20.4639L17.5205 3.34961C17.3609 3.14522 17.1471 3.03118 16.9317 3.00586L16.8399 3H15.4854L17.3194 6.91406Z" fill="#000"/>
</svg>
