<svg width="24" height="24" viewBox="0 0 24 24" fill="none" xmlns="http://www.w3.org/2000/svg">
<path d="M18.2969 1.28929C18.6896 0.901062 19.3227 0.904493 19.711 1.2971L22.711 4.33226L22.7774 4.4055C22.922 4.58416 23.0013 4.8084 23 5.04026C22.9984 5.30539 22.8917 5.55993 22.7031 5.74632L19.7031 8.71116C19.3104 9.09915 18.6773 9.09578 18.2891 8.70335C17.9009 8.31068 17.9045 7.67757 18.2969 7.28929L19.6006 6.00022H18C15.2386 6.00026 13 8.23882 13 11.0002V22.0002H11V17.0002C11 14.2388 8.76144 12.0002 6.00001 12.0002H4.39943L5.70314 13.2893C6.09563 13.6776 6.0991 14.3107 5.71095 14.7033C5.3227 15.0957 4.68956 15.0992 4.29689 14.7112L1.29689 11.7463C1.10832 11.5599 1.00161 11.3054 1.00001 11.0403C0.998588 10.7753 1.10286 10.5208 1.28908 10.3323L4.28908 7.2971C4.67737 6.90449 5.31043 6.90106 5.70314 7.28929C6.09565 7.67758 6.09914 8.31067 5.71095 8.70335L4.42873 10.0002H6.00001C7.95884 10.0002 9.72948 10.8051 11 12.1018V11.0002C11 7.13425 14.134 4.00026 18 4.00022H19.5713L18.2891 2.70335C17.9009 2.31069 17.9044 1.67759 18.2969 1.28929Z" fill="#000"/>
</svg>
