<svg width="24" height="24" viewBox="0 0 24 24" fill="none" xmlns="http://www.w3.org/2000/svg">
<path fill-rule="evenodd" clip-rule="evenodd" d="M12.5083 2C12.9169 2.00005 13.3248 2.05031 13.7212 2.14941L16.8335 2.92871C17.3797 2.35757 18.1478 2 19.0005 2H22.0005C22.5525 2.00026 23.0005 2.44787 23.0005 3C23.0005 3.55213 22.5525 3.99974 22.0005 4H19.0005C18.4482 4 18.0005 4.44772 18.0005 5V13C18.0005 13.5523 18.4482 14 19.0005 14H22.0005C22.5525 14.0003 23.0005 14.4479 23.0005 15C23.0005 15.5521 22.5525 15.9997 22.0005 16H19.0005C18.3696 16 17.7844 15.8043 17.3013 15.4717L14.7681 17.3145C14.4719 17.5299 14.1927 17.7686 13.9341 18.0273L13.6821 18.293L10.478 21.8525C9.81027 22.5944 8.78971 22.8994 7.83251 22.6572L7.64208 22.6016C6.03045 22.0643 5.32025 20.1803 6.17626 18.7129L7.75927 16H4.36181C2.50802 16 1.09714 14.3354 1.40185 12.5068L2.45654 6.17773L2.49951 5.9541C2.98944 3.65849 5.0213 2 7.38915 2H12.5083ZM7.38915 4C6.01436 4 4.8284 4.93192 4.48681 6.24023L4.43017 6.50684L3.37451 12.8359C3.27319 13.4453 3.74401 14 4.36181 14H11.2417L7.9038 19.7207C7.68737 20.0917 7.8674 20.5683 8.2749 20.7041L8.37158 20.7285C8.59888 20.7684 8.83422 20.6896 8.99169 20.5146L12.1958 16.9551L12.519 16.6133C12.8516 16.2805 13.2104 15.9743 13.5913 15.6973L16.1245 13.8535C16.0443 13.5829 16.0005 13.2966 16.0005 13V5C16.0005 4.92676 16.0031 4.85415 16.0083 4.78223L13.2358 4.08984C12.9981 4.03041 12.7534 4.00005 12.5083 4H7.38915Z" fill="#000"/>
<path d="M20.0005 5C20.5525 5.00026 21.0005 5.44787 21.0005 6C21.0005 6.55213 20.5525 6.99974 20.0005 7H19.9009C19.3486 7 18.9009 6.55228 18.9009 6C18.9009 5.44772 19.3486 5 19.9009 5H20.0005Z" fill="#000"/>
</svg>
