<svg width="24" height="24" viewBox="0 0 24 24" fill="none" xmlns="http://www.w3.org/2000/svg">
<path fill-rule="evenodd" clip-rule="evenodd" d="M13.5206 1C14.714 1.00008 15.8684 1.42742 16.7745 2.2041L21.253 6.04297C22.3612 6.99288 23.0001 8.38026 23.0001 9.83984V18C23.0001 20.7614 20.7615 22.9999 18.0001 23H17.5001C16.9478 23 16.5001 22.5523 16.5001 22C16.5001 21.4477 16.9478 21 17.5001 21H18.0001C19.6569 20.9999 21.0001 19.6568 21.0001 18V9.83984C21.0001 9.55256 20.9578 9.27016 20.879 9H17.0001C15.3433 9 14.0001 7.65685 14.0001 6V3.04004C13.8424 3.01448 13.6822 3.00002 13.5206 3H6.00011C4.34325 3 3.00011 4.34315 3.00011 6V8C3.00011 8.55224 2.55233 8.99992 2.00011 9C1.44782 9 1.00011 8.55228 1.00011 8V6C1.00011 3.23858 3.23868 1 6.00011 1H13.5206ZM16.0001 6C16.0001 6.55228 16.4478 7 17.0001 7H19.297L16.0001 4.17383V6Z" fill="#000"/>
<path d="M16.0001 17C16.0001 17.5522 15.5523 17.9999 15.0001 18C14.4478 18 14.0001 17.5523 14.0001 17V15.4141L8.00011 21.4141L4.00011 17.4141L1.70714 19.707C1.31664 20.0975 0.683606 20.0975 0.293076 19.707C-0.0974478 19.3165 -0.0974478 18.6835 0.293076 18.293L4.00011 14.5859L8.00011 18.5859L12.586 14H11.0001C10.4478 14 10.0001 13.5523 10.0001 13C10.0001 12.4477 10.4478 12 11.0001 12H16.0001V17Z" fill="#000"/>
</svg>
