<svg width="24" height="24" viewBox="0 0 24 24" fill="none" xmlns="http://www.w3.org/2000/svg">
<path d="M1 18V6C1 3.23858 3.23858 1 6 1H13.5205C14.714 1.00005 15.8682 1.42739 16.7744 2.2041L21.2539 6.04297C22.3621 6.99288 23 8.38022 23 9.83984V18C23 20.7614 20.7614 23 18 23H6C3.23858 23 1 20.7614 1 18ZM7.5 18V14.4141L6.70703 15.207C6.31651 15.5976 5.68349 15.5976 5.29297 15.207C4.90244 14.8165 4.90244 14.1835 5.29297 13.793L7.79297 11.293L7.86914 11.2246C8.26191 10.9043 8.84092 10.9269 9.20703 11.293L11.707 13.793C12.0976 14.1835 12.0976 14.8165 11.707 15.207C11.3165 15.5976 10.6835 15.5976 10.293 15.207L9.5 14.4141V18C9.5 18.5523 9.05229 19 8.5 19C7.94772 19 7.5 18.5523 7.5 18ZM15 7C15 7.55228 15.4477 8 16 8H20.3682C20.2453 7.8419 20.1067 7.69403 19.9521 7.56152L15.4727 3.72266C15.3254 3.59641 15.1666 3.48613 15 3.3916V7ZM3 18C3 19.6569 4.34315 21 6 21H18C19.6569 21 21 19.6569 21 18V10H16C14.3431 10 13 8.65685 13 7V3H6C4.34315 3 3 4.34315 3 6V18Z" fill="#3E4550"/>
</svg>
