<svg width="24" height="24" viewBox="0 0 24 24" fill="none" xmlns="http://www.w3.org/2000/svg">
<path fill-rule="evenodd" clip-rule="evenodd" d="M14.0632 1C14.6331 1 15.0954 1.44772 15.0954 2V6.80371L19.3884 4.40234L19.4792 4.35645C19.6954 4.2617 19.9404 4.24181 20.1716 4.30176C20.4356 4.37041 20.6608 4.53826 20.7976 4.76758L22.862 8.23242C23.1466 8.7106 22.9774 9.32154 22.4841 9.59766L18.1911 12L22.4841 14.4023C22.9773 14.6785 23.1466 15.2894 22.862 15.7676L20.7976 19.2324C20.6608 19.4618 20.4356 19.6296 20.1716 19.6982C19.9074 19.7668 19.6253 19.7302 19.3884 19.5977L15.0954 17.1953V22C15.0954 22.5523 14.6331 23 14.0632 23H9.93624C9.36645 22.9999 8.90402 22.5522 8.90402 22V17.1953L4.61202 19.5977C4.11854 19.8738 3.48685 19.7106 3.20187 19.2324L1.13839 15.7676C1.00175 15.538 0.965062 15.2648 1.03585 15.0088C1.10673 14.7529 1.27959 14.5349 1.51632 14.4023L5.80734 12L1.51632 9.59766C1.02305 9.32153 0.853787 8.7106 1.13839 8.23242L3.20187 4.76758C3.33871 4.53799 3.56455 4.37038 3.82882 4.30176C4.09309 4.2332 4.37509 4.26978 4.61202 4.40234L8.90402 6.80371V2C8.90402 1.44778 9.36645 1.00011 9.93624 1H14.0632ZM10.9685 8.53613C10.9684 8.89333 10.7711 9.22374 10.4519 9.40234C10.1328 9.58063 9.73965 9.58073 9.42062 9.40234L4.47237 6.63379L3.44112 8.36621L8.38839 11.1338C8.70764 11.3124 8.90401 11.6427 8.90402 12C8.90402 12.3573 8.70765 12.6876 8.38839 12.8662L3.44112 15.6328L4.47237 17.3652L9.42062 14.5977C9.73964 14.4193 10.1328 14.4194 10.4519 14.5977C10.7711 14.7762 10.9684 15.1067 10.9685 15.4639V21H13.0319V15.4639C13.0321 15.1068 13.2285 14.7763 13.5476 14.5977C13.8667 14.4191 14.2606 14.4192 14.5798 14.5977L19.5261 17.3652L20.5583 15.6328L15.611 12.8662C15.292 12.6875 15.0954 12.3571 15.0954 12C15.0954 11.6429 15.292 11.3125 15.611 11.1338L20.5583 8.36621L19.5261 6.63379L14.5798 9.40234C14.2606 9.58078 13.8667 9.58089 13.5476 9.40234C13.2285 9.22373 13.032 8.89326 13.0319 8.53613V3H10.9685V8.53613Z" fill="currentColor"/>
</svg>
