<svg width="24" height="24" viewBox="0 0 24 24" fill="none" xmlns="http://www.w3.org/2000/svg">
<path d="M14.1025 1.00488C14.6066 1.05617 14.9999 1.48229 14.9999 2V6.80371L19.1601 4.40234L19.248 4.35645C19.4575 4.26165 19.6948 4.2418 19.9189 4.30176C20.1749 4.37038 20.3937 4.53809 20.5263 4.76758L22.5263 8.23242C22.785 8.68091 22.6573 9.24663 22.246 9.54297L22.1601 9.59766L17.9989 12L22.1601 14.4023C22.6382 14.6785 22.8022 15.2894 22.5263 15.7676L20.5263 19.2324C20.3937 19.4619 20.1749 19.6296 19.9189 19.6982C19.6948 19.7582 19.4575 19.7383 19.248 19.6436L19.1601 19.5977L14.9999 17.1953V22C14.9999 22.5523 14.5522 22.9999 13.9999 23H9.99992C9.44773 22.9999 8.99992 22.5522 8.99992 22V17.1953L4.83976 19.5977C4.39143 19.8565 3.82573 19.7293 3.52922 19.3184L3.47355 19.2324L1.47355 15.7676C1.34113 15.538 1.30534 15.2648 1.37394 15.0088C1.44262 14.7529 1.61031 14.5349 1.83976 14.4023L5.99992 12L1.83976 9.59766C1.36173 9.32153 1.19774 8.7106 1.47355 8.23242L3.47355 4.76758L3.52726 4.68457C3.66141 4.49775 3.85687 4.36181 4.08098 4.30176C4.3371 4.23318 4.61013 4.26977 4.83976 4.40234L8.99992 6.80371V2L9.0048 1.89746C9.05612 1.39339 9.48233 1.0001 9.99992 1H13.9999L14.1025 1.00488Z" fill="currentColor"/>
</svg>
