<svg width="24" height="24" viewBox="0 0 24 24" fill="none" xmlns="http://www.w3.org/2000/svg">
<path fill-rule="evenodd" clip-rule="evenodd" d="M1.9152 3.90824C4.54682 1.32723 8.53058 1.38409 11.0656 3.96L11.297 4.20707C11.5633 4.50453 11.7974 4.81958 12.0021 5.14653C12.2644 4.72763 12.5766 4.32895 12.9396 3.96L13.1818 3.7266C15.7244 1.38315 19.5506 1.4208 22.0636 3.97465L22.298 4.22465C24.5677 6.76179 24.5675 10.414 22.298 12.9512L22.0636 13.2012L22.006 13.2588C21.9687 13.2968 21.9141 13.3535 21.8429 13.4258C21.7005 13.5706 21.4937 13.7807 21.2365 14.042C20.722 14.5648 20.0051 15.2925 19.1974 16.1133C17.582 17.755 15.6014 19.7686 14.1398 21.2539C12.9644 22.4485 11.0422 22.4478 9.8654 21.2579C8.39999 19.776 6.40981 17.7696 4.7863 16.1329C3.97469 15.3146 3.25464 14.5885 2.73747 14.0674C2.47911 13.8071 2.27129 13.5974 2.12809 13.4532C2.05656 13.3811 2.00059 13.325 1.96305 13.2872L1.90641 13.2305C1.90132 13.2254 1.89578 13.2192 1.89079 13.2139C-0.63096 10.5585 -0.632735 6.49772 1.90251 3.92094L1.9152 3.90824ZM9.63981 5.36332C7.88202 3.57709 5.16674 3.52552 3.32145 5.32914C1.56869 7.11706 1.54407 9.94278 3.34001 11.835L3.38298 11.878C3.42052 11.9158 3.4756 11.972 3.54704 12.044C3.69028 12.1883 3.89881 12.3977 4.15739 12.6582C4.67461 13.1794 5.39455 13.9054 6.20622 14.7237C7.82981 16.3605 9.82068 18.3686 11.2873 19.8516C11.6816 20.2502 12.3224 20.2496 12.714 19.8516C14.1756 18.3663 16.1561 16.3528 17.7716 14.711C18.5794 13.8901 19.2962 13.1616 19.8107 12.6387C20.0678 12.3774 20.2748 12.1672 20.4172 12.0225C20.4883 11.9502 20.5439 11.8944 20.5812 11.8565C20.5997 11.8377 20.6137 11.8232 20.6232 11.8135L20.6379 11.7989L20.8029 11.6231C22.3993 9.8424 22.3992 7.33451 20.8029 5.55375L20.6379 5.37797C18.8893 3.60095 16.2917 3.57606 14.5324 5.20121L14.3654 5.36332C13.4547 6.28884 13.0056 7.43213 13.0021 8.59086C13.0005 9.14193 12.5532 9.58785 12.0021 9.58793C11.4512 9.58768 11.0038 9.14183 11.0021 8.59086C10.9989 7.50456 10.6053 6.43149 9.80583 5.5391L9.63981 5.36332Z" fill="#000"/>
</svg>
