<svg width="24" height="24" viewBox="0 0 24 24" fill="none" xmlns="http://www.w3.org/2000/svg">
<path fill-rule="evenodd" clip-rule="evenodd" d="M15.0467 1.10818C15.3539 0.95196 15.7257 0.963909 16.0252 1.14822L22.5252 5.14822C22.8101 5.32387 22.9883 5.63109 22.9998 5.9656C23.0113 6.30018 22.8541 6.61847 22.5819 6.81326L19.8699 8.74978L22.5819 10.6863C22.8542 10.881 23.0112 11.1994 22.9998 11.534C22.9883 11.8685 22.81 12.1756 22.5252 12.3513L20.0008 13.9041V16.408C20.0008 17.4285 19.4811 18.3794 18.6229 18.9314L13.6229 22.1453C12.6967 22.7407 11.5243 22.7783 10.5672 22.2576L10.3787 22.1453L5.37873 18.9314C4.52009 18.3794 4.00084 17.4287 4.0008 16.408V13.9041L1.47639 12.3513C1.19117 12.1757 1.01326 11.8687 1.00178 11.534C0.990395 11.1992 1.14717 10.881 1.41975 10.6863L4.13068 8.74978L1.41975 6.81326C1.14711 6.61851 0.990321 6.30045 1.00178 5.9656C1.01335 5.63093 1.19125 5.32381 1.47639 5.14822L7.97639 1.14822L8.1092 1.07986C8.42634 0.945072 8.7957 0.981906 9.08186 1.1863L12.0008 3.27126L14.9197 1.1863L15.0467 1.10818ZM9.08186 16.3133C8.75471 16.5469 8.31886 16.5618 7.97639 16.3513L6.0008 15.1355V16.408C6.00084 16.7481 6.17377 17.0648 6.45978 17.2488L11.0008 20.1677V14.9422L9.08186 16.3133ZM13.0008 20.1677L17.5418 17.2488L17.6434 17.1736C17.8678 16.9851 18.0008 16.7053 18.0008 16.408V15.1355L16.0252 16.3513C15.6828 16.562 15.247 16.5468 14.9197 16.3133L13.0008 14.9422V20.1677ZM3.80744 11.4373L8.45978 14.2996L10.2625 13.0125L5.86408 9.96755L3.80744 11.4373ZM13.7381 13.0125L15.5408 14.2996L20.1932 11.4373L18.1365 9.96755L13.7381 13.0125ZM7.32893 8.54861L12.0008 11.783L16.6717 8.54861L12.0008 5.67361L7.32893 8.54861ZM3.80744 6.0613L5.54084 7.29958L10.1932 4.43728L8.45978 3.199L3.80744 6.0613ZM13.8074 4.43728L18.4598 7.29958L20.1932 6.0613L15.5408 3.199L13.8074 4.43728Z" fill="#000"/>
</svg>
