<svg width="24" height="24" viewBox="0 0 24 24" fill="none" xmlns="http://www.w3.org/2000/svg">
<path fill-rule="evenodd" clip-rule="evenodd" d="M15.7349 1C17.4828 1.00029 18.848 2.48453 18.7281 4.20508L18.7115 4.37207L18.6177 5.11621C19.9228 5.4896 20.8522 6.72212 20.7876 8.13379L20.775 8.29883L20.5884 10.165C21.9393 10.6335 22.828 12.0368 22.5552 13.5371L21.2828 20.5371C21.0232 21.9633 19.7802 22.9999 18.3306 23H5.66948C4.21978 23 2.97685 21.9634 2.71733 20.5371L1.44487 13.5371C1.17209 12.0368 2.06087 10.6335 3.41167 10.165L3.22515 8.29883C3.07721 6.81948 4.02615 5.50335 5.3814 5.11523L5.28862 4.37207C5.06485 2.58156 6.46171 1.00002 8.26616 1H15.7349ZM4.39702 12C3.7732 12 3.30118 12.565 3.41265 13.1787L4.68511 20.1787C4.77157 20.6542 5.18623 21 5.66948 21H18.3306C18.8138 20.9999 19.2285 20.6541 19.315 20.1787L20.5875 13.1787C20.6989 12.5651 20.2276 12.0003 19.6041 12H4.39702ZM6.2105 7C5.6189 7.00002 5.15651 7.51094 5.21538 8.09961L5.40581 10H18.5953L18.7857 8.09961L18.7906 7.99023C18.7862 7.4492 18.345 7.00032 17.7906 7H6.2105ZM8.26616 3C7.66471 3.00002 7.19844 3.52721 7.273 4.12402L7.38335 5H16.6177L16.7271 4.12402L16.7349 4.0127C16.7428 3.46331 16.2984 3.00028 15.7349 3H8.26616Z" fill="currentColor"/>
</svg>
