<svg width="24" height="24" viewBox="0 0 24 24" fill="none" xmlns="http://www.w3.org/2000/svg">
<path fill-rule="evenodd" clip-rule="evenodd" d="M9.65095 3.981C11.1726 3.14556 12.9182 2.9152 14.4752 3.02592C16.1209 3.14306 17.7005 3.65205 18.7164 4.39995C19.0235 4.6262 19.1748 5.00794 19.107 5.38335C19.039 5.75867 18.763 6.06323 18.3961 6.16753L18.1568 6.23979C15.6996 7.03281 13.9904 9.075 13.8814 11.6617C13.7274 15.3265 16.4402 17.3164 18.3677 17.8033C18.7488 17.8997 19.0381 18.2102 19.107 18.5972C19.1757 18.9842 19.0115 19.3763 18.6871 19.5982C16.7106 20.9495 14.4033 21.0637 13.1959 20.98L12.7496 20.9351C8.76982 20.3859 4.99929 17.0963 4.87946 12.2583C4.76086 7.45343 7.80677 5.10694 9.35017 4.15678L9.65095 3.981ZM14.3336 5.02007C12.9632 4.92258 11.5359 5.15945 10.398 5.85991C9.09763 6.66054 6.78693 8.45837 6.87946 12.2085C6.97144 15.9259 9.86747 18.5193 13.023 18.9546L13.3687 18.9878C13.9189 19.0234 14.7637 19.0006 15.6636 18.7749C13.6367 17.507 11.7335 15.1443 11.8834 11.5777C11.9995 8.81928 13.4703 6.55848 15.6314 5.21928C15.2295 5.12481 14.7929 5.05276 14.3336 5.02007Z" fill="#000"/>
</svg>
