<svg width="24" height="24" viewBox="0 0 24 24" fill="none" xmlns="http://www.w3.org/2000/svg">
<path d="M19.0403 1.00001C19.3054 1.0016 19.56 1.10831 19.7464 1.29689L22.7112 4.29689C23.0993 4.68957 23.0958 5.3227 22.7034 5.71095C22.3107 6.09911 21.6776 6.09564 21.2893 5.70314L20.0003 4.39845V9.50001C20.0003 11.9852 17.9854 13.9999 15.5003 14C14.1196 14 13.0003 15.1193 13.0003 16.5V22H11.0003C11.0002 20.6194 9.88085 19.5001 8.50026 19.5C6.01498 19.5 4.00026 17.4853 4.00026 15V10.3985L2.7112 11.7031C2.32296 12.0957 1.68986 12.0991 1.29714 11.711C0.904551 11.3227 0.901142 10.6896 1.28932 10.2969L4.25417 7.29689L4.32741 7.23048C4.50451 7.08366 4.72817 7.00135 4.96022 7.00001C5.22518 6.99865 5.47977 7.10282 5.66823 7.28908L8.70339 10.2891C9.09586 10.6773 9.09926 11.3104 8.7112 11.7031C8.32294 12.0957 7.68985 12.0991 7.29714 11.711L6.00026 10.4277V15C6.00026 16.3807 7.11955 17.5 8.50026 17.5C9.42526 17.5001 10.2853 17.7792 11.0003 18.2578V16.5C11.0003 14.0148 13.015 12 15.5003 12C16.7945 11.9999 17.8594 11.0163 17.9876 9.75587L18.0003 9.50001V4.42775L16.7034 5.71095C16.3107 6.09915 15.6776 6.09566 15.2893 5.70314C14.9011 5.31043 14.9045 4.67737 15.2971 4.28908L18.3323 1.28908L18.4055 1.22267C18.5842 1.07807 18.8085 0.998766 19.0403 1.00001Z" fill="currentColor"/>
</svg>
