<svg width="24" height="24" viewBox="0 0 24 24" fill="none" xmlns="http://www.w3.org/2000/svg">
<path fill-rule="evenodd" clip-rule="evenodd" d="M10.1426 1.1657C11.3346 0.688907 12.6654 0.688907 13.8574 1.1657L19.8574 3.56609C20.4778 3.81433 21.0272 4.17933 21.4873 4.62762L21.6289 4.57195L21.7725 4.93133C22.5461 5.82239 23 6.97756 23 8.20867V15.7917C22.9998 17.8359 21.7553 19.6749 19.8574 20.4343L13.8574 22.8346C12.6654 23.3114 11.3346 23.3114 10.1426 22.8346L4.14258 20.4343C2.24469 19.6749 1.00016 17.8359 1 15.7917V8.20867C1.00004 6.97778 1.45321 5.82233 2.22656 4.93133L2.37109 4.57195L2.51172 4.62762C2.97192 4.1791 3.52199 3.81442 4.14258 3.56609L10.1426 1.1657ZM3.22559 7.06707C3.07948 7.42217 3.00002 7.80928 3 8.20867V15.7917C3.00016 17.0182 3.74692 18.1223 4.88574 18.5778L10.8857 20.9772C10.9231 20.9922 10.9622 21.0029 11 21.0163V10.1706C10.9622 10.1572 10.9231 10.1465 10.8857 10.1315L3.22559 7.06707ZM13.1143 10.1315C13.0769 10.1465 13.0378 10.1572 13 10.1706V21.0163C13.0378 21.0029 13.0769 20.9922 13.1143 20.9772L19.1143 18.5778C20.2531 18.1223 20.9998 17.0182 21 15.7917V8.20867C21 7.80915 20.9196 7.42226 20.7734 7.06707L13.1143 10.1315ZM4.88574 5.42254C4.8231 5.4476 4.76138 5.4747 4.70117 5.50359L11.6289 8.2741C11.8672 8.36934 12.1328 8.36934 12.3711 8.2741L14.5566 7.3991L7.25 4.47625L4.88574 5.42254ZM13.1143 3.02312C12.4883 2.77276 11.799 2.7415 11.1572 2.92937L10.8857 3.02312L9.94141 3.40008L17.249 6.32293L19.2979 5.50359L19.1143 5.42254L13.1143 3.02312Z" fill="#000"/>
</svg>
