<svg width="24" height="24" viewBox="0 0 24 24" fill="none" xmlns="http://www.w3.org/2000/svg">
<path d="M4.63574 1C4.90092 1 5.15524 1.10548 5.34277 1.29297L10.8174 6.76758L12.0693 5.51562C12.0255 5.35101 12 5.17844 12 5C12 3.89532 12.8953 3 14 3C15.1047 3 16 3.89532 16 5C15.9998 6.10456 15.1046 7 14 7C13.8211 7 13.6484 6.97373 13.4834 6.92969L12.2314 8.18164L18.0713 14.0205C18.4616 14.4109 18.4615 15.0441 18.0713 15.4346C16.2641 17.2418 13.9368 18.2111 11.5713 18.3457L15.0547 20.668L15.1367 20.7285C15.2309 20.8061 15.3069 20.8989 15.3652 21H17L17.1025 21.0049C17.6067 21.0562 18 21.4823 18 22C17.9999 22.5176 17.6066 22.9438 17.1025 22.9951L17 23H2C1.44781 23 1.00015 22.5522 1 22C1 21.4477 1.44772 21 2 21H2.9082L1.42285 11.6572L1.41113 11.5547C1.40585 11.4605 1.41452 11.3679 1.43457 11.2793C0.39585 7.86071 1.22593 3.99596 3.92871 1.29297L4.00195 1.22656C4.17987 1.08066 4.40365 1.00007 4.63574 1ZM4.93262 21H11.9473L6.44531 17.332L6.36328 17.2705C6.32475 17.2388 6.28947 17.2042 6.25684 17.168C5.47504 16.7464 4.73812 16.2132 4.06836 15.5684L4.93262 21ZM4.68066 3.45898C2.23856 6.5973 2.45843 11.1359 5.34277 14.0205C8.22751 16.9052 12.7659 17.1241 15.9043 14.6816L4.68066 3.45898ZM22.0947 1.06152C22.6747 2.2521 23 3.5898 23 5C22.9999 7.28218 22.1498 9.36819 20.75 10.9541C20.3845 11.3681 19.7519 11.4074 19.3379 11.042C18.9241 10.6766 18.885 10.0449 19.25 9.63086C20.3396 8.39646 20.9999 6.77654 21 5C21 3.89978 20.7468 2.86111 20.2969 1.9375L21.1963 1.5L22.0947 1.06152ZM16.7861 0.728516C17.1485 0.359077 17.7272 0.330387 18.123 0.646484L18.2002 0.714844L18.4033 0.923828C19.3934 1.99315 20 3.42654 20 5C19.9999 6.35001 19.5528 7.59801 18.7998 8.60059C18.4682 9.04202 17.841 9.13126 17.3994 8.7998C16.9579 8.46819 16.8688 7.84099 17.2002 7.39941C17.7024 6.73084 17.9999 5.90154 18 5C18 3.95026 17.5971 2.99636 16.9355 2.28223L16.7998 2.14258L16.7305 2.06738C16.4064 1.67786 16.4238 1.09822 16.7861 0.728516ZM20.7578 0.600586C21.2542 0.358796 21.8527 0.565368 22.0947 1.06152L20.2969 1.9375C20.0553 1.44114 20.2616 0.842476 20.7578 0.600586Z" fill="#000"/>
</svg>
