<svg width="24" height="24" viewBox="0 0 24 24" fill="none" xmlns="http://www.w3.org/2000/svg">
<path d="M21.2931 1.29346C21.6837 0.903144 22.3167 0.903003 22.7072 1.29346C23.0974 1.68393 23.0974 2.31706 22.7072 2.70752L2.7072 22.7075C2.31674 23.0978 1.68361 23.0977 1.29314 22.7075C0.902681 22.3171 0.902818 21.684 1.29314 21.2935L3.34978 19.2358C-0.514639 14.8759 0.13407 8.38143 4.22185 4.29346C4.61238 3.90303 5.24542 3.90297 5.63591 4.29346C6.02628 4.68396 6.02629 5.31703 5.63591 5.70752C2.22284 9.12078 1.78428 14.3412 4.76872 17.8169L6.14079 16.4448C4.0877 13.6352 4.60347 9.56829 7.04997 7.12158C7.44043 6.7312 8.07352 6.73129 8.46404 7.12158C8.85447 7.51209 8.85447 8.14514 8.46404 8.53564C6.71159 10.2883 6.37521 13.0639 7.58122 15.0044L9.22478 13.3608C9.04602 12.9272 9.0002 12.4826 9.00017 12.0718C9.00017 10.415 10.3434 9.07188 12.0002 9.07178C12.3574 9.07178 12.847 9.07022 13.34 9.24561L21.2931 1.29346ZM20.7297 7.0874C21.234 6.86283 21.8252 7.08904 22.05 7.59326C23.8483 11.6316 23.0925 16.5351 19.7775 19.8501C19.387 20.24 18.7538 20.2403 18.3634 19.8501C17.973 19.4596 17.9731 18.8256 18.3634 18.4351C21.0735 15.7249 21.6953 11.7147 20.2228 8.40771C19.9982 7.90336 20.2255 7.31224 20.7297 7.0874ZM17.7267 10.0161C18.27 9.91831 18.7897 10.2795 18.8879 10.8228C19.2809 13.0009 18.6359 15.3345 16.9494 17.021C16.5589 17.4113 15.9258 17.4114 15.5353 17.021C15.145 16.6305 15.1451 15.9974 15.5353 15.6069C16.7389 14.4034 17.2017 12.739 16.9201 11.1782C16.822 10.6348 17.1833 10.1143 17.7267 10.0161Z" fill="currentColor"/>
</svg>
