<svg width="24" height="24" viewBox="0 0 24 24" fill="none" xmlns="http://www.w3.org/2000/svg">
<path d="M19 11C19.9965 11 20.8354 11.3497 21.376 12.1064C21.8685 12.796 22 13.6733 22 14.5V15.1738C23.1647 15.5859 24 16.6942 24 18V20C24 21.6568 22.6568 23 21 23H17C15.3432 22.9999 14 21.6568 14 20V18C14 16.6942 14.8354 15.586 16 15.1738V14.5C16 13.6733 16.1315 12.796 16.624 12.1064C17.1646 11.3497 18.0035 11 19 11ZM17 17C16.4478 17.0001 16 17.4478 16 18V20C16 20.5522 16.4478 20.9999 17 21H21C21.5523 21 22 20.5523 22 20V18C22 17.4477 21.5523 17 21 17H17ZM5.63574 5.70703C2.12135 9.22162 2.12153 14.9199 5.63574 18.4346L4.22168 19.8496C-0.0739598 15.5539 -0.0738869 8.58873 4.22168 4.29297L5.63574 5.70703ZM8.46484 8.53516C6.51231 10.4878 6.51231 13.6538 8.46484 15.6064L7.0498 17.0205C4.31662 14.2869 4.31648 9.85464 7.0498 7.12109L8.46484 8.53516ZM12 9.07129C13.6568 9.0713 15 10.4144 15 12.0713C14.9999 13.728 13.6568 15.0713 12 15.0713C10.3433 15.0712 9.00013 13.728 9 12.0713C9 10.4145 10.3432 9.07136 12 9.07129ZM19 13C18.4967 13 18.3354 13.1504 18.251 13.2686C18.1186 13.454 18 13.8268 18 14.5V15H20V14.5C20 13.8267 19.8815 13.454 19.749 13.2686C19.6646 13.1504 19.5033 13 19 13ZM12 11.0713C11.4478 11.0714 11 11.519 11 12.0713C11.0001 12.6234 11.4479 13.0712 12 13.0713C12.5522 13.0713 12.9999 12.6235 13 12.0713C13 11.519 12.5523 11.0713 12 11.0713ZM19.7783 4.29297C20.7587 5.2734 21.5171 6.39465 22.0508 7.59277L22.167 7.86523C22.2797 8.13793 22.3809 8.41426 22.4707 8.69336C22.6399 9.21909 22.3509 9.78297 21.8252 9.95215C21.2997 10.121 20.7367 9.83202 20.5674 9.30664C20.5184 9.15434 20.4655 9.00253 20.4082 8.85254L20.2236 8.40723C19.7881 7.4293 19.1688 6.5116 18.3643 5.70703L19.7783 4.29297ZM16.9502 7.12109C17.3686 7.53953 17.7234 7.99935 18.0146 8.4873C18.2976 8.96145 18.1429 9.5753 17.6689 9.8584C17.1948 10.1413 16.5809 9.98666 16.2979 9.5127C16.0905 9.16522 15.836 8.83602 15.5352 8.53516L16.9502 7.12109Z" fill="#000"/>
</svg>
