<svg width="24" height="24" viewBox="0 0 24 24" fill="none" xmlns="http://www.w3.org/2000/svg">
<path d="M10.8857 0.368652C11.6009 0.0826435 12.3991 0.0826434 13.1143 0.368652L21.1143 3.56885C22.2529 4.02446 22.9998 5.12758 23 6.354V10.9995C22.9999 14.3401 21.0098 16.9909 18.8906 18.8735C16.7573 20.7686 14.3413 22.0246 13.1523 22.5825C12.4184 22.9269 11.5816 22.9269 10.8477 22.5825C9.6587 22.0246 7.24274 20.7686 5.10938 18.8735C2.99018 16.9909 1.00008 14.3401 1 10.9995V6.354C1.00019 5.12758 1.74708 4.02446 2.88574 3.56885L10.8857 0.368652ZM12.3711 2.2251C12.133 2.13 11.867 2.13 11.6289 2.2251L3.62891 5.42529C3.24943 5.57712 3.00019 5.94531 3 6.354V10.9995C3.00008 13.5031 4.496 15.6526 6.4375 17.3774C8.36454 19.0893 10.5848 20.25 11.6973 20.772C11.893 20.8638 12.107 20.8638 12.3027 20.772C13.4152 20.25 15.6355 19.0893 17.5625 17.3774C19.504 15.6526 20.9999 13.5031 21 10.9995V6.354C20.9998 5.94531 20.7506 5.57712 20.3711 5.42529L12.3711 2.2251ZM12 4.99951C12.5521 4.99951 12.9996 5.44754 13 5.99951V7.12549C13.3667 7.21987 13.7132 7.36538 14.0312 7.55322L14.8281 6.75732C15.2186 6.36714 15.8517 6.36722 16.2422 6.75732C16.6325 7.14778 16.6324 7.78088 16.2422 8.17139L15.4453 8.96729C15.6335 9.28557 15.7795 9.6325 15.874 9.99951H17C17.5521 9.99951 17.9996 10.4475 18 10.9995C17.9999 11.5517 17.5522 11.9995 17 11.9995H15.874C15.7796 12.3665 15.6324 12.7125 15.4443 13.0308L16.2422 13.8286C16.6325 14.2191 16.6324 14.8522 16.2422 15.2427C15.8517 15.6328 15.2185 15.633 14.8281 15.2427L14.0303 14.4448C13.7122 14.6326 13.3666 14.7792 13 14.8735V15.9995C12.9999 16.5517 12.5522 16.9995 12 16.9995C11.4478 16.9995 11.0001 16.5517 11 15.9995V14.8735C10.6331 14.7791 10.287 14.6328 9.96875 14.4448L9.17188 15.2427C8.78148 15.633 8.14834 15.6328 7.75781 15.2427C7.36755 14.8522 7.36747 14.2191 7.75781 13.8286L8.55469 13.0308C8.36678 12.7126 8.22038 12.3663 8.12598 11.9995H7C6.44778 11.9995 6.00011 11.5517 6 10.9995C6.00037 10.4475 6.44795 9.99951 7 9.99951H8.12598C8.22046 9.63266 8.36568 9.28546 8.55371 8.96729L7.75781 8.17139C7.36755 7.78088 7.36747 7.14778 7.75781 6.75732C8.14829 6.36722 8.78145 6.36714 9.17188 6.75732L9.96777 7.55322C10.286 7.36517 10.633 7.21994 11 7.12549V5.99951C11.0004 5.44754 11.4479 4.99951 12 4.99951ZM12 8.99951C10.8957 8.99951 10.0004 9.89526 10 10.9995C10.0001 12.104 10.8955 12.9995 12 12.9995C13.1045 12.9995 13.9999 12.104 14 10.9995C13.9996 9.89526 13.1043 8.99951 12 8.99951Z" fill="currentColor"/>
</svg>
