<svg width="24" height="24" viewBox="0 0 24 24" fill="none" xmlns="http://www.w3.org/2000/svg">
<path d="M16 2.00488L20.9141 2L21.0137 2.00488C21.4751 2.046 21.8624 2.37313 21.9795 2.82129L22 2.91895L22.9863 8.83398L23 8.91504V8.99805C23 10.0121 22.6216 10.9372 22 11.6426V21.5C22 22.3284 21.3284 23 20.5 23H3.5C2.67157 23 2 22.3284 2 21.5V11.6426C1.37835 10.9372 1 10.0121 1 8.99805V8.91504L2 2.9248C2.0884 2.39512 2.54604 2.00669 3.08301 2.00586L9 1.99902V2.00586L16 1.99902V2.00488ZM15.5 10.9355C14.8179 12.1663 13.5068 13 12 13C10.4932 13 9.18209 12.1663 8.5 10.9355C7.81791 12.1663 6.50678 13 5 13C4.65469 13 4.31959 12.9563 4 12.874V21H8.5V15.0996C8.50021 14.4924 8.99241 14.0002 9.59961 14H14.4004C15.0076 14.0002 15.4998 14.4924 15.5 15.0996V21H20V12.874C19.6804 12.9563 19.3453 13 19 13C17.4932 13 16.1821 12.1663 15.5 10.9355ZM10.5 21H13.5V16H10.5V21ZM3.84668 4.00488L3.00293 9.06055C3.03595 10.1378 3.91693 11 5 11C6.10396 11 7 10.1043 7 8.99805V4.00098L3.84668 4.00488ZM10 4.00488V8.99805C10 10.1043 10.896 11 12 11C13.104 11 14 10.1043 14 8.99805V4.00098L10 4.00488ZM17 4.00391V8.99805C17 10.1043 17.896 11 19 11C20.0834 11 20.9636 10.1373 20.9961 9.05957L20.1523 4L17 4.00391Z" fill="#000"/>
</svg>
