<svg width="24" height="24" viewBox="0 0 24 24" fill="none" xmlns="http://www.w3.org/2000/svg">
<path fill-rule="evenodd" clip-rule="evenodd" d="M12.0004 1C12.4306 1.00019 12.8125 1.27555 12.9487 1.68359L15.2211 8.5H22.0004C22.4306 8.50019 22.8125 8.77555 22.9487 9.18359C23.0847 9.59179 22.9441 10.0415 22.6 10.2998L17.1996 14.3496L19.9369 21.6484C20.0933 22.0656 19.9545 22.5368 19.5971 22.8027C19.2395 23.0685 18.7485 23.0658 18.394 22.7959L12.0004 17.9248L5.60687 22.7959C5.25247 23.0659 4.76138 23.0684 4.40375 22.8027C4.04608 22.5368 3.90742 22.0657 4.0639 21.6484L6.80023 14.3496L1.40082 10.2998C1.05647 10.0415 0.916069 9.59194 1.05218 9.18359C1.18842 8.77549 1.57014 8.5 2.00042 8.5H8.77972L11.0522 1.68359L11.1137 1.53711C11.2839 1.2109 11.6238 1 12.0004 1ZM10.4487 9.81641C10.3125 10.2244 9.93057 10.4998 9.50043 10.5H4.99945L8.60003 13.2002C8.95506 13.4667 9.09275 13.9359 8.93695 14.3516L7.1557 19.0986L11.394 15.8711L11.5346 15.7822C11.8742 15.6034 12.2937 15.6325 12.6069 15.8711L16.8442 19.0986L15.0639 14.3516C14.908 13.9357 15.0455 13.4667 15.4008 13.2002L19.0014 10.5H14.5004C14.0701 10.5 13.6884 10.2245 13.5522 9.81641L12.0004 5.16113L10.4487 9.81641Z" fill="#000"/>
</svg>
