<svg width="24" height="24" viewBox="0 0 24 24" fill="none" xmlns="http://www.w3.org/2000/svg">
<path d="M6.29214 12.293C6.68254 11.9026 7.31565 11.9028 7.70621 12.293L11.7062 16.293L10.2921 17.707L6.29214 13.707C5.90214 13.3166 5.90214 12.6834 6.29214 12.293Z" fill="#000"/>
<path d="M9.29214 9.29297C9.68254 8.90257 10.3157 8.90283 10.7062 9.29297L14.7062 13.293L13.2921 14.707L9.29214 10.707C8.90214 10.3166 8.90214 9.68339 9.29214 9.29297Z" fill="#000"/>
<path d="M17.9992 4C19.104 4 19.9992 4.89522 19.9992 6C19.9992 7.10478 19.104 8 17.9992 8C16.8947 7.99958 15.9992 7.10453 15.9992 6C15.9992 4.89547 16.8947 4.00042 17.9992 4Z" fill="#000"/>
<path fill-rule="evenodd" clip-rule="evenodd" d="M20.9992 0C22.656 0 23.9992 1.34315 23.9992 3V10.1719C23.9991 10.9673 23.6837 11.7304 23.1212 12.293L14.5353 20.8789C12.6436 22.7704 9.61323 22.8291 7.65054 21.0557L7.46402 20.8789L3.12125 16.5352C1.16889 14.5826 1.1689 11.4174 3.12125 9.46484L11.7062 0.878906L11.9269 0.679688C12.4606 0.242359 13.1322 9.3706e-05 13.8283 0H20.9992ZM13.8283 2C13.5633 2.00011 13.3087 2.10562 13.1212 2.29297L4.53531 10.8789C3.364 12.0504 3.36401 13.9496 4.53531 15.1211L8.87808 19.4648L8.99039 19.5713C10.168 20.6349 11.9864 20.5995 13.1212 19.4648L21.7062 10.8789C21.8937 10.6914 21.9991 10.437 21.9992 10.1719V3C21.9992 2.44772 21.5515 2 20.9992 2H13.8283Z" fill="#000"/>
</svg>
