<svg width="336" height="192" viewBox="0 0 336 192" fill="none" xmlns="http://www.w3.org/2000/svg">
<rect width="240" height="128" transform="translate(48 32)" fill="white"/>
<path d="M48 36C48 33.7909 49.7909 32 52 32H284C286.209 32 288 33.7909 288 36V156C288 158.209 286.209 160 284 160H52C49.7909 160 48 158.209 48 156V36Z" fill="white"/>
<path d="M137.119 52C137.119 50.8954 136.224 50 135.119 50H69.1191C68.0146 50 67.1191 50.8954 67.1191 52V60C67.1191 61.1046 68.0146 62 69.1191 62H135.119C136.224 62 137.119 61.1046 137.119 60V52Z" fill="#F7F7F7"/>
<path d="M227.119 52C227.119 50.8954 226.224 50 225.119 50H199.119C198.015 50 197.119 50.8954 197.119 52V60C197.119 61.1046 198.015 62 199.119 62H225.119C226.224 62 227.119 61.1046 227.119 60V52Z" fill="#F7F7F7"/>
<path d="M269.119 52C269.119 50.8954 268.224 50 267.119 50H241.119C240.015 50 239.119 50.8954 239.119 52V60C239.119 61.1046 240.015 62 241.119 62H267.119C268.224 62 269.119 61.1046 269.119 60V52Z" fill="#F7F7F7"/>
<path d="M184.119 52C184.119 50.8954 183.224 50 182.119 50H151.119C150.015 50 149.119 50.8954 149.119 52V60C149.119 61.1046 150.015 62 151.119 62H182.119C183.224 62 184.119 61.1046 184.119 60V52Z" fill="#F7F7F7"/>
<path d="M138 136C138 134.895 137.105 134 136 134H89C87.8954 134 87 134.895 87 136V140C87 141.105 87.8954 142 89 142H136C137.105 142 138 141.105 138 140V136Z" fill="#F7F7F7"/>
<path d="M269 136C269 134.895 268.105 134 267 134H241C239.895 134 239 134.895 239 136V140C239 141.105 239.895 142 241 142H267C268.105 142 269 141.105 269 140V136Z" fill="#F7F7F7"/>
<path d="M185 136C185 134.895 184.105 134 183 134H152C150.895 134 150 134.895 150 136V140C150 141.105 150.895 142 152 142H183C184.105 142 185 141.105 185 140V136Z" fill="#F7F7F7"/>
<path d="M227 136C227 134.895 226.105 134 225 134H199C197.895 134 197 134.895 197 136V140C197 141.105 197.895 142 199 142H225C226.105 142 227 141.105 227 140V136Z" fill="#F7F7F7"/>
<path d="M71 134C73.2091 134 75 135.791 75 138C75 140.209 73.2091 142 71 142C68.7909 142 67 140.209 67 138C67 135.791 68.7909 134 71 134Z" fill="#009A71"/>
<path d="M138 116C138 114.895 137.105 114 136 114H89C87.8954 114 87 114.895 87 116V120C87 121.105 87.8954 122 89 122H136C137.105 122 138 121.105 138 120V116Z" fill="#F7F7F7"/>
<path d="M269 116C269 114.895 268.105 114 267 114H241C239.895 114 239 114.895 239 116V120C239 121.105 239.895 122 241 122H267C268.105 122 269 121.105 269 120V116Z" fill="#F7F7F7"/>
<path d="M185 116C185 114.895 184.105 114 183 114H152C150.895 114 150 114.895 150 116V120C150 121.105 150.895 122 152 122H183C184.105 122 185 121.105 185 120V116Z" fill="#F7F7F7"/>
<path d="M227 116C227 114.895 226.105 114 225 114H199C197.895 114 197 114.895 197 116V120C197 121.105 197.895 122 199 122H225C226.105 122 227 121.105 227 120V116Z" fill="#F7F7F7"/>
<path d="M71 114C73.2091 114 75 115.791 75 118C75 120.209 73.2091 122 71 122C68.7909 122 67 120.209 67 118C67 115.791 68.7909 114 71 114Z" fill="#009A71"/>
<path d="M138 96C138 94.8954 137.105 94 136 94H89C87.8954 94 87 94.8954 87 96V100C87 101.105 87.8954 102 89 102H136C137.105 102 138 101.105 138 100V96Z" fill="#F7F7F7"/>
<path d="M269 96C269 94.8954 268.105 94 267 94H241C239.895 94 239 94.8954 239 96V100C239 101.105 239.895 102 241 102H267C268.105 102 269 101.105 269 100V96Z" fill="#F7F7F7"/>
<path d="M185 96C185 94.8954 184.105 94 183 94H152C150.895 94 150 94.8954 150 96V100C150 101.105 150.895 102 152 102H183C184.105 102 185 101.105 185 100V96Z" fill="#F7F7F7"/>
<path d="M227 96C227 94.8954 226.105 94 225 94H199C197.895 94 197 94.8954 197 96V100C197 101.105 197.895 102 199 102H225C226.105 102 227 101.105 227 100V96Z" fill="#F7F7F7"/>
<path d="M70.4894 94.4822C70.6998 94.0614 71.3002 94.0614 71.5106 94.4822L74.7731 101.007C74.9628 101.387 74.6869 101.833 74.2625 101.833H67.7375C67.3132 101.833 67.0372 101.387 67.2269 101.007L70.4894 94.4822Z" fill="#D36D00"/>
<path d="M138 76C138 74.8954 137.105 74 136 74H89C87.8954 74 87 74.8954 87 76V80C87 81.1046 87.8954 82 89 82H136C137.105 82 138 81.1046 138 80V76Z" fill="#F7F7F7"/>
<path d="M269 76C269 74.8954 268.105 74 267 74H241C239.895 74 239 74.8954 239 76V80C239 81.1046 239.895 82 241 82H267C268.105 82 269 81.1046 269 80V76Z" fill="#F7F7F7"/>
<path d="M185 76C185 74.8954 184.105 74 183 74H152C150.895 74 150 74.8954 150 76V80C150 81.1046 150.895 82 152 82H183C184.105 82 185 81.1046 185 80V76Z" fill="#F7F7F7"/>
<path d="M227 76C227 74.8954 226.105 74 225 74H199C197.895 74 197 74.8954 197 76V80C197 81.1046 197.895 82 199 82H225C226.105 82 227 81.1046 227 80V76Z" fill="#F7F7F7"/>
<path d="M70.6159 74.1591C70.828 73.947 71.172 73.947 71.3841 74.1591L74.8409 77.6159C75.053 77.828 75.053 78.172 74.8409 78.3841L71.3841 81.8409C71.172 82.053 70.828 82.053 70.6159 81.8409L67.1591 78.3841C66.947 78.172 66.947 77.828 67.1591 77.6159L70.6159 74.1591Z" fill="#EC3331"/>
</svg>
