<svg width="337" height="192" viewBox="0 0 337 192" fill="none" xmlns="http://www.w3.org/2000/svg">
<g clip-path="url(#clip0)">
<path d="M207.323 19.0299C207.323 19.0299 153.725 18.4898 146.991 21.9996C140.258 25.5094 136.637 30.0544 133.524 36.5788C127.599 48.9979 142.951 59.7974 146.991 60.8774C151.031 61.9573 242.337 60.6077 247.186 60.8774C252.034 61.147 257.421 63.0375 261.191 74.1065C264.962 85.1755 254.458 95.4355 252.034 96.7851C249.61 98.1346 161.805 96.7851 157.495 98.405C153.186 100.025 146.535 107.009 145.644 115.144C144.604 124.653 153.186 134.043 157.495 135.663C161.805 137.282 222.137 135.932 224.561 135.663C226.985 135.393 237.759 138.363 238.836 152.941C239.913 167.52 224.561 174 224.561 174H74" stroke="white" stroke-width="10" stroke-linecap="round" stroke-linejoin="round" stroke-dasharray="10 17"/>
<path fill-rule="evenodd" clip-rule="evenodd" d="M47.5 141.625C39.7015 141.625 32.0417 147.438 32.0417 157.083C32.0417 162.836 35.9515 168.923 40.3172 173.835C42.4483 176.232 44.5862 178.237 46.1938 179.644C46.6855 180.074 47.1262 180.447 47.5 180.757C47.8738 180.447 48.3145 180.074 48.8062 179.644C50.4138 178.237 52.5517 176.232 54.6828 173.835C59.0485 168.923 62.9583 162.836 62.9583 157.083C62.9583 147.438 55.2985 141.625 47.5 141.625ZM47.5 183.583C46.175 185.35 46.1745 185.35 46.174 185.349L46.1725 185.348L46.1684 185.345L46.1555 185.335L46.1108 185.301C46.0727 185.272 46.0184 185.231 45.9488 185.177C45.8098 185.069 45.6098 184.912 45.3576 184.709C44.8534 184.304 44.1394 183.715 43.2854 182.968C41.5805 181.476 39.3017 179.34 37.0161 176.769C32.5485 171.743 27.625 164.581 27.625 157.083C27.625 144.645 37.6318 137.208 47.5 137.208C57.3682 137.208 67.375 144.645 67.375 157.083C67.375 164.581 62.4515 171.743 57.9839 176.769C55.6983 179.34 53.4195 181.476 51.7146 182.968C50.8606 183.715 50.1466 184.304 49.6424 184.709C49.3902 184.912 49.1902 185.069 49.0512 185.177C48.9816 185.231 48.9273 185.272 48.8892 185.301L48.8445 185.335L48.8315 185.345L48.8275 185.348L48.826 185.349C48.8255 185.35 48.825 185.35 47.5 183.583ZM47.5 183.583L48.825 185.35L47.5 186.344L46.175 185.35L47.5 183.583ZM38.6667 157.083C38.6667 152.204 42.6212 148.25 47.5 148.25C52.3788 148.25 56.3333 152.204 56.3333 157.083C56.3333 161.962 52.3788 165.917 47.5 165.917C42.6212 165.917 38.6667 161.962 38.6667 157.083ZM47.5 152.667C45.0604 152.667 43.0833 154.644 43.0833 157.083C43.0833 159.523 45.0604 161.5 47.5 161.5C49.9396 161.5 51.9167 159.523 51.9167 157.083C51.9167 154.644 49.9396 152.667 47.5 152.667Z" fill="#008567"/>
<path fill-rule="evenodd" clip-rule="evenodd" d="M229 3.50008C224.88 3.50008 220.833 6.57123 220.833 11.6667C220.833 14.7059 222.899 17.9219 225.205 20.5167C226.331 21.7832 227.461 22.8425 228.31 23.5856C228.57 23.8129 228.803 24.01 229 24.1736C229.197 24.01 229.43 23.8129 229.69 23.5856C230.539 22.8425 231.669 21.7832 232.795 20.5167C235.101 17.9219 237.167 14.7059 237.167 11.6667C237.167 6.57123 233.12 3.50008 229 3.50008ZM229 25.6667C228.3 26.6001 228.3 26.5999 228.299 26.5997L228.299 26.5991L228.297 26.5975L228.29 26.5923L228.266 26.5744C228.246 26.5591 228.217 26.5371 228.181 26.5086C228.107 26.4516 228.001 26.3688 227.868 26.2617C227.602 26.0477 227.225 25.7364 226.773 25.3416C225.873 24.5535 224.669 23.4253 223.461 22.0668C221.101 19.4116 218.5 15.6276 218.5 11.6667C218.5 5.0956 223.787 1.16675 229 1.16675C234.213 1.16675 239.5 5.0956 239.5 11.6667C239.5 15.6276 236.899 19.4116 234.539 22.0668C233.331 23.4253 232.127 24.5535 231.227 25.3416C230.775 25.7364 230.398 26.0477 230.132 26.2617C229.999 26.3688 229.893 26.4516 229.819 26.5086C229.783 26.5371 229.754 26.5591 229.734 26.5744L229.71 26.5923L229.703 26.5975L229.701 26.5991L229.701 26.5997C229.7 26.5999 229.7 26.6001 229 25.6667ZM229 25.6667L229.7 26.6001L229 27.1251L228.3 26.6001L229 25.6667ZM224.333 11.6667C224.333 9.08925 226.423 7.00008 229 7.00008C231.577 7.00008 233.667 9.08925 233.667 11.6667C233.667 14.2442 231.577 16.3334 229 16.3334C226.423 16.3334 224.333 14.2442 224.333 11.6667ZM229 9.33342C227.711 9.33342 226.667 10.3779 226.667 11.6667C226.667 12.9556 227.711 14.0001 229 14.0001C230.289 14.0001 231.333 12.9556 231.333 11.6667C231.333 10.3779 230.289 9.33342 229 9.33342Z" fill="#00C8FF"/>
</g>
<defs>
<clipPath id="clip0">
<rect width="336.542" height="192" fill="white"/>
</clipPath>
</defs>
</svg>
