<svg width="336" height="192" viewBox="0 0 336 192" fill="none" xmlns="http://www.w3.org/2000/svg">
<rect x="24" y="24" width="288" height="144" fill="white"/>
<path d="M58.89 81.948H55.992V86.142H51.726V81.948H48.828V93H51.726V88.626H55.992V93H58.89V81.948ZM68.311 88.95C68.311 86.448 66.637 84.72 64.171 84.72C61.723 84.72 60.031 86.448 60.031 88.95C60.031 91.452 61.723 93.18 64.171 93.18C66.637 93.18 68.311 91.452 68.311 88.95ZM65.539 88.95C65.539 90.066 65.053 90.84 64.171 90.84C63.307 90.84 62.821 90.066 62.821 88.95C62.821 87.834 63.307 87.042 64.171 87.042C65.053 87.042 65.539 87.834 65.539 88.95ZM76.8678 89.292L75.6618 84.9H73.8618L72.6378 89.292L71.3598 84.9H68.5518L71.1618 93H73.5558L74.7078 88.896L75.8598 93H78.2538L80.8638 84.9H78.1638L76.8678 89.292ZM89.0977 93V87.096H90.6817V84.9H89.0977V82.668H86.2897V84.9H84.8857V87.096H86.2897V93H89.0977ZM99.4946 88.95C99.4946 86.448 97.8206 84.72 95.3546 84.72C92.9066 84.72 91.2146 86.448 91.2146 88.95C91.2146 91.452 92.9066 93.18 95.3546 93.18C97.8206 93.18 99.4946 91.452 99.4946 88.95ZM96.7226 88.95C96.7226 90.066 96.2366 90.84 95.3546 90.84C94.4906 90.84 94.0046 90.066 94.0046 88.95C94.0046 87.834 94.4906 87.042 95.3546 87.042C96.2366 87.042 96.7226 87.834 96.7226 88.95ZM111.343 85.692C110.857 85.116 110.137 84.72 109.111 84.72C108.211 84.72 107.437 85.062 107.023 85.566V84.9H104.197V93H107.023V88.068C107.149 87.51 107.581 87.204 108.067 87.204C108.697 87.204 108.985 87.69 108.985 88.374V93H111.793V88.068C111.937 87.51 112.351 87.204 112.837 87.204C113.467 87.204 113.755 87.69 113.755 88.374V93H116.581V87.69C116.581 85.872 115.537 84.72 113.845 84.72C112.657 84.72 111.829 85.188 111.343 85.692ZM122.477 88.122V88.41C122.153 88.176 121.397 87.96 120.713 87.96C118.967 87.96 117.599 88.968 117.599 90.534C117.599 92.244 118.967 93.144 120.569 93.144C121.433 93.144 122.207 92.856 122.477 92.586V93H125.195V87.996C125.195 85.854 123.827 84.72 121.433 84.72C120.281 84.72 119.201 84.99 118.535 85.35V87.618C119.183 87.24 119.975 87.042 120.749 87.042C121.901 87.042 122.477 87.492 122.477 88.122ZM122.477 90.264V90.732C122.297 91.056 121.847 91.272 121.343 91.272C120.785 91.272 120.227 91.038 120.227 90.48C120.227 89.94 120.785 89.706 121.343 89.706C121.847 89.706 122.297 89.922 122.477 90.264ZM135.087 93L132.009 88.644L135.015 84.9H131.775L129.471 87.96V81.3H126.645V93H129.471V89.454L131.919 93H135.087ZM137.826 89.598H142.812V88.77C142.812 86.358 141.534 84.72 139.014 84.72C136.782 84.72 135.09 86.466 135.09 89.004C135.09 91.614 136.854 93.18 139.446 93.18C140.616 93.18 141.606 92.928 142.236 92.46V90.318C141.426 90.804 140.76 90.966 139.896 90.966C138.852 90.966 138.06 90.57 137.826 89.598ZM139.122 86.862C139.806 86.862 140.22 87.33 140.292 88.014H137.862C138.06 87.276 138.51 86.862 139.122 86.862ZM151.991 88.122V88.41C151.667 88.176 150.911 87.96 150.227 87.96C148.481 87.96 147.113 88.968 147.113 90.534C147.113 92.244 148.481 93.144 150.083 93.144C150.947 93.144 151.721 92.856 151.991 92.586V93H154.709V87.996C154.709 85.854 153.341 84.72 150.947 84.72C149.795 84.72 148.715 84.99 148.049 85.35V87.618C148.697 87.24 149.489 87.042 150.263 87.042C151.415 87.042 151.991 87.492 151.991 88.122ZM151.991 90.264V90.732C151.811 91.056 151.361 91.272 150.857 91.272C150.299 91.272 149.741 91.038 149.741 90.48C149.741 89.94 150.299 89.706 150.857 89.706C151.361 89.706 151.811 89.922 151.991 90.264ZM156.158 84.9V93H158.984V88.104C159.128 87.546 159.596 87.222 160.154 87.222C160.874 87.222 161.216 87.708 161.216 88.374V93H164.024V87.69C164.024 85.89 162.962 84.72 161.162 84.72C160.226 84.72 159.434 85.098 158.984 85.602V84.9H156.158ZM173.542 88.122V88.41C173.218 88.176 172.462 87.96 171.778 87.96C170.032 87.96 168.664 88.968 168.664 90.534C168.664 92.244 170.032 93.144 171.634 93.144C172.498 93.144 173.272 92.856 173.542 92.586V93H176.26V87.996C176.26 85.854 174.892 84.72 172.498 84.72C171.346 84.72 170.266 84.99 169.6 85.35V87.618C170.248 87.24 171.04 87.042 171.814 87.042C172.966 87.042 173.542 87.492 173.542 88.122ZM173.542 90.264V90.732C173.362 91.056 172.912 91.272 172.408 91.272C171.85 91.272 171.292 91.038 171.292 90.48C171.292 89.94 171.85 89.706 172.408 89.706C172.912 89.706 173.362 89.922 173.542 90.264ZM185.167 89.292L183.961 84.9H182.161L180.937 89.292L179.659 84.9H176.851L179.461 93H181.855L183.007 88.896L184.159 93H186.553L189.163 84.9H186.463L185.167 89.292ZM192.124 89.598H197.11V88.77C197.11 86.358 195.832 84.72 193.312 84.72C191.08 84.72 189.388 86.466 189.388 89.004C189.388 91.614 191.152 93.18 193.744 93.18C194.914 93.18 195.904 92.928 196.534 92.46V90.318C195.724 90.804 195.058 90.966 194.194 90.966C193.15 90.966 192.358 90.57 192.124 89.598ZM193.42 86.862C194.104 86.862 194.518 87.33 194.59 88.014H192.16C192.358 87.276 192.808 86.862 193.42 86.862ZM197.97 90.03V92.406C198.726 92.91 199.914 93.18 201.048 93.18C203.046 93.18 204.54 92.334 204.54 90.606C204.54 89.238 203.838 88.518 202.074 88.05L201.336 87.834C200.94 87.726 200.706 87.618 200.706 87.312C200.706 86.988 201.03 86.826 201.516 86.826C202.434 86.826 203.298 87.204 204.072 87.762V85.44C203.28 84.954 202.398 84.72 201.246 84.72C199.338 84.72 197.934 85.674 197.934 87.366C197.934 88.824 198.888 89.526 200.382 89.85L201.012 90.012C201.498 90.12 201.75 90.246 201.75 90.57C201.75 90.93 201.39 91.056 200.832 91.056C200.004 91.056 198.744 90.66 197.97 90.03ZM213.559 88.95C213.559 86.448 211.885 84.72 209.419 84.72C206.971 84.72 205.279 86.448 205.279 88.95C205.279 91.452 206.971 93.18 209.419 93.18C211.885 93.18 213.559 91.452 213.559 88.95ZM210.787 88.95C210.787 90.066 210.301 90.84 209.419 90.84C208.555 90.84 208.069 90.066 208.069 88.95C208.069 87.834 208.555 87.042 209.419 87.042C210.301 87.042 210.787 87.834 210.787 88.95ZM221.804 85.692C221.318 85.116 220.598 84.72 219.572 84.72C218.672 84.72 217.898 85.062 217.484 85.566V84.9H214.658V93H217.484V88.068C217.61 87.51 218.042 87.204 218.528 87.204C219.158 87.204 219.446 87.69 219.446 88.374V93H222.254V88.068C222.398 87.51 222.812 87.204 223.298 87.204C223.928 87.204 224.216 87.69 224.216 88.374V93H227.042V87.69C227.042 85.872 225.998 84.72 224.306 84.72C223.118 84.72 222.29 85.188 221.804 85.692ZM230.796 89.598H235.782V88.77C235.782 86.358 234.504 84.72 231.984 84.72C229.752 84.72 228.06 86.466 228.06 89.004C228.06 91.614 229.824 93.18 232.416 93.18C233.586 93.18 234.576 92.928 235.206 92.46V90.318C234.396 90.804 233.73 90.966 232.866 90.966C231.822 90.966 231.03 90.57 230.796 89.598ZM232.092 86.862C232.776 86.862 233.19 87.33 233.262 88.014H230.832C231.03 87.276 231.48 86.862 232.092 86.862ZM53.94 110.352V111H56.766V99.3H53.94V103.548C53.562 103.116 52.77 102.72 51.942 102.72C49.602 102.72 48.324 104.61 48.324 106.95C48.324 109.29 49.602 111.18 51.942 111.18C52.77 111.18 53.562 110.784 53.94 110.352ZM53.94 105.87V108.012C53.724 108.462 53.256 108.768 52.698 108.768C51.726 108.768 51.15 107.994 51.15 106.95C51.15 105.906 51.726 105.114 52.698 105.114C53.238 105.114 53.724 105.438 53.94 105.87ZM60.5873 107.598H65.5733V106.77C65.5733 104.358 64.2953 102.72 61.7753 102.72C59.5433 102.72 57.8513 104.466 57.8513 107.004C57.8513 109.614 59.6153 111.18 62.2073 111.18C63.3773 111.18 64.3673 110.928 64.9973 110.46V108.318C64.1873 108.804 63.5213 108.966 62.6573 108.966C61.6133 108.966 60.8213 108.57 60.5873 107.598ZM61.8833 104.862C62.5673 104.862 62.9813 105.33 63.0533 106.014H60.6233C60.8213 105.276 61.2713 104.862 61.8833 104.862ZM66.4328 108.03V110.406C67.1888 110.91 68.3768 111.18 69.5108 111.18C71.5088 111.18 73.0028 110.334 73.0028 108.606C73.0028 107.238 72.3008 106.518 70.5368 106.05L69.7988 105.834C69.4028 105.726 69.1688 105.618 69.1688 105.312C69.1688 104.988 69.4928 104.826 69.9788 104.826C70.8968 104.826 71.7608 105.204 72.5348 105.762V103.44C71.7428 102.954 70.8608 102.72 69.7088 102.72C67.8008 102.72 66.3968 103.674 66.3968 105.366C66.3968 106.824 67.3508 107.526 68.8448 107.85L69.4748 108.012C69.9608 108.12 70.2128 108.246 70.2128 108.57C70.2128 108.93 69.8528 109.056 69.2948 109.056C68.4668 109.056 67.2068 108.66 66.4328 108.03ZM77.1452 100.704C77.1452 99.768 76.4072 99.174 75.5432 99.174C74.6792 99.174 73.9412 99.768 73.9412 100.704C73.9412 101.622 74.6792 102.216 75.5432 102.216C76.4072 102.216 77.1452 101.622 77.1452 100.704ZM76.9472 111V102.9H74.1212V111H76.9472ZM83.5386 109.902V110.172C83.5386 111.306 82.6026 111.756 81.5226 111.756C80.4066 111.756 79.5246 111.468 78.6966 110.766V113.358C79.3446 113.772 80.4786 114.042 81.6126 114.042C84.2046 114.042 86.3286 112.818 86.3286 109.83V102.9H83.5386V103.512C83.1786 103.08 82.5126 102.72 81.6306 102.72C79.3446 102.72 78.0486 104.466 78.0486 106.698C78.0486 108.93 79.3446 110.694 81.6306 110.694C82.5126 110.694 83.1786 110.316 83.5386 109.902ZM83.5386 105.636V107.778C83.3226 108.138 82.8726 108.444 82.3326 108.444C81.3966 108.444 80.8386 107.724 80.8386 106.698C80.8386 105.672 81.3966 104.952 82.3326 104.952C82.8726 104.952 83.3226 105.276 83.5386 105.636ZM87.8673 102.9V111H90.6933V106.104C90.8373 105.546 91.3053 105.222 91.8633 105.222C92.5833 105.222 92.9253 105.708 92.9253 106.374V111H95.7333V105.69C95.7333 103.89 94.6713 102.72 92.8713 102.72C91.9353 102.72 91.1433 103.098 90.6933 103.602V102.9H87.8673ZM100.517 108.03V110.406C101.273 110.91 102.461 111.18 103.595 111.18C105.593 111.18 107.087 110.334 107.087 108.606C107.087 107.238 106.385 106.518 104.621 106.05L103.883 105.834C103.487 105.726 103.253 105.618 103.253 105.312C103.253 104.988 103.577 104.826 104.063 104.826C104.981 104.826 105.845 105.204 106.619 105.762V103.44C105.827 102.954 104.945 102.72 103.793 102.72C101.885 102.72 100.481 103.674 100.481 105.366C100.481 106.824 101.435 107.526 102.929 107.85L103.559 108.012C104.045 108.12 104.297 108.246 104.297 108.57C104.297 108.93 103.937 109.056 103.379 109.056C102.551 109.056 101.291 108.66 100.517 108.03ZM109.271 113.862H112.061L116.237 102.9H113.429L111.917 107.508L110.369 102.9H107.435L110.459 110.802L109.271 113.862ZM116.671 108.03V110.406C117.427 110.91 118.615 111.18 119.749 111.18C121.747 111.18 123.241 110.334 123.241 108.606C123.241 107.238 122.539 106.518 120.775 106.05L120.037 105.834C119.641 105.726 119.407 105.618 119.407 105.312C119.407 104.988 119.731 104.826 120.217 104.826C121.135 104.826 121.999 105.204 122.773 105.762V103.44C121.981 102.954 121.099 102.72 119.947 102.72C118.039 102.72 116.635 103.674 116.635 105.366C116.635 106.824 117.589 107.526 119.083 107.85L119.713 108.012C120.199 108.12 120.451 108.246 120.451 108.57C120.451 108.93 120.091 109.056 119.533 109.056C118.705 109.056 117.445 108.66 116.671 108.03ZM128.068 111V105.096H129.652V102.9H128.068V100.668H125.26V102.9H123.856V105.096H125.26V111H128.068ZM132.921 107.598H137.907V106.77C137.907 104.358 136.629 102.72 134.109 102.72C131.877 102.72 130.185 104.466 130.185 107.004C130.185 109.614 131.949 111.18 134.541 111.18C135.711 111.18 136.701 110.928 137.331 110.46V108.318C136.521 108.804 135.855 108.966 134.991 108.966C133.947 108.966 133.155 108.57 132.921 107.598ZM134.217 104.862C134.901 104.862 135.315 105.33 135.387 106.014H132.957C133.155 105.276 133.605 104.862 134.217 104.862ZM146.183 103.692C145.697 103.116 144.977 102.72 143.951 102.72C143.051 102.72 142.277 103.062 141.863 103.566V102.9H139.037V111H141.863V106.068C141.989 105.51 142.421 105.204 142.907 105.204C143.537 105.204 143.825 105.69 143.825 106.374V111H146.633V106.068C146.777 105.51 147.191 105.204 147.677 105.204C148.307 105.204 148.595 105.69 148.595 106.374V111H151.421V105.69C151.421 103.872 150.377 102.72 148.685 102.72C147.497 102.72 146.669 103.188 146.183 103.692Z" fill="#444444"/>
<path d="M49.704 140V139.376C49.968 139.76 50.544 140.108 51.204 140.108C52.764 140.108 53.604 138.848 53.604 137.336C53.604 135.836 52.764 134.564 51.204 134.564C50.544 134.564 49.968 134.912 49.704 135.296V132.2H48.792V140H49.704ZM49.704 138.416V136.256C49.98 135.704 50.508 135.38 51.072 135.38C52.092 135.38 52.692 136.208 52.692 137.336C52.692 138.464 52.092 139.292 51.072 139.292C50.508 139.292 49.98 138.968 49.704 138.416ZM55.4177 142.04H56.3057L59.1737 134.672H58.2377L56.6897 138.872L55.1177 134.672H54.1457L56.2217 140.036L55.4177 142.04ZM62.4831 136.316C62.4831 138.62 63.9711 140.108 65.9391 140.108C66.7911 140.108 67.4391 139.868 67.9191 139.472V138.476C67.3191 139.016 66.7071 139.256 65.9511 139.256C64.4631 139.256 63.4311 138.092 63.4311 136.316C63.4311 134.54 64.4631 133.376 65.9511 133.376C66.7071 133.376 67.3191 133.604 67.9191 134.156V133.16C67.4391 132.764 66.7911 132.524 65.9391 132.524C63.9711 132.524 62.4831 134.012 62.4831 136.316ZM72.2875 136.46V137.156C72.0595 136.952 71.5075 136.724 70.9555 136.724C69.8155 136.724 68.9275 137.396 68.9275 138.392C68.9275 139.448 69.8155 140.096 70.9075 140.096C71.5315 140.096 72.0835 139.82 72.2875 139.604V140H73.1635V136.388C73.1635 135.26 72.4195 134.564 71.1595 134.564C70.4995 134.564 69.8635 134.756 69.5035 135.008V135.86C69.9475 135.572 70.4275 135.392 71.0155 135.392C71.7955 135.392 72.2875 135.8 72.2875 136.46ZM72.2875 138.128V138.68C72.1435 139.076 71.6155 139.34 71.0515 139.34C70.4035 139.34 69.7795 139.04 69.7795 138.392C69.7795 137.756 70.4035 137.468 71.0515 137.468C71.6155 137.468 72.1435 137.732 72.2875 138.128ZM77.4384 135.572V134.648C77.3424 134.6 77.1504 134.564 76.9224 134.564C76.3344 134.564 75.8304 134.912 75.6024 135.368V134.672H74.7024V140H75.6024V136.424C75.7824 135.8 76.2744 135.428 76.8384 135.428C77.0664 135.428 77.2944 135.476 77.4384 135.572ZM80.0459 140V135.44H81.2819V134.672H80.0459V133.268H79.1459V134.672H78.0299V135.44H79.1459V140H80.0459ZM82.7885 137.492H86.4605V137.168C86.4605 135.608 85.7165 134.564 84.2765 134.564C82.8605 134.564 81.9005 135.728 81.9005 137.384C81.9005 139.064 82.9325 140.108 84.4685 140.108C85.1045 140.108 85.6565 139.976 86.0885 139.64V138.812C85.6085 139.172 85.1765 139.316 84.5765 139.316C83.6045 139.316 82.8245 138.728 82.7885 137.492ZM84.2885 135.332C85.1525 135.332 85.5485 136.004 85.5845 136.784H82.8365C83.0045 135.8 83.5805 135.332 84.2885 135.332ZM89.8913 132.632V133.472H92.4593V140H93.4073V133.472H95.9753V132.632H89.8913ZM96.8393 137.492H100.511V137.168C100.511 135.608 99.7673 134.564 98.3273 134.564C96.9113 134.564 95.9513 135.728 95.9513 137.384C95.9513 139.064 96.9833 140.108 98.5193 140.108C99.1553 140.108 99.7073 139.976 100.139 139.64V138.812C99.6593 139.172 99.2273 139.316 98.6273 139.316C97.6553 139.316 96.8753 138.728 96.8393 137.492ZM98.3393 135.332C99.2033 135.332 99.5993 136.004 99.6353 136.784H96.8873C97.0553 135.8 97.6313 135.332 98.3393 135.332ZM104.702 136.46V137.156C104.474 136.952 103.922 136.724 103.37 136.724C102.23 136.724 101.342 137.396 101.342 138.392C101.342 139.448 102.23 140.096 103.322 140.096C103.946 140.096 104.498 139.82 104.702 139.604V140H105.578V136.388C105.578 135.26 104.834 134.564 103.574 134.564C102.914 134.564 102.278 134.756 101.918 135.008V135.86C102.362 135.572 102.842 135.392 103.43 135.392C104.21 135.392 104.702 135.8 104.702 136.46ZM104.702 138.128V138.68C104.558 139.076 104.03 139.34 103.466 139.34C102.818 139.34 102.194 139.04 102.194 138.392C102.194 137.756 102.818 137.468 103.466 137.468C104.03 137.468 104.558 137.732 104.702 138.128ZM110.897 135.416C110.645 134.912 110.129 134.564 109.457 134.564C108.797 134.564 108.281 134.876 108.017 135.296V134.672H107.117V140H108.017V136.328C108.185 135.752 108.653 135.38 109.193 135.38C109.877 135.38 110.201 135.872 110.201 136.616V140H111.101V136.328C111.269 135.752 111.737 135.38 112.277 135.38C112.961 135.38 113.285 135.872 113.285 136.616V140H114.197V136.472C114.197 135.32 113.597 134.564 112.517 134.564C111.773 134.564 111.233 134.936 110.897 135.416Z" fill="#444444"/>
<circle cx="57.5" cy="57.5" r="9.5" fill="#00E8CF"/>
<rect opacity="0.3" y="24" width="12" height="144" fill="#A17D28"/>
<rect x="324" y="24" width="12" height="144" fill="#552B9D"/>
</svg>
