<svg width="336" height="192" viewBox="0 0 336 192" fill="none" xmlns="http://www.w3.org/2000/svg">
<rect width="336" height="192" fill="#FF4F4F"/>
<path fill-rule="evenodd" clip-rule="evenodd" d="M135 72C135 66.4772 139.477 62 145 62H203C204.105 62 205 61.1046 205 60C205 58.8954 204.105 58 203 58H145C137.268 58 131 64.268 131 72V132C131 133.105 131.895 134 133 134C134.105 134 135 133.105 135 132V72ZM153 70C147.477 70 143 74.4772 143 80C143 85.5228 147.477 90 153 90C158.523 90 163 85.5228 163 80C163 74.4772 158.523 70 153 70ZM147 80C147 76.6863 149.686 74 153 74C156.314 74 159 76.6863 159 80C159 83.3137 156.314 86 153 86C149.686 86 147 83.3137 147 80ZM174 70C170.686 70 168 72.6863 168 76V84C168 87.3137 170.686 90 174 90H196C199.314 90 202 87.3137 202 84V76C202 72.6863 199.314 70 196 70H174ZM172 76C172 74.8954 172.895 74 174 74H196C197.105 74 198 74.8954 198 76V84C198 85.1046 197.105 86 196 86H174C172.895 86 172 85.1046 172 84V76ZM143 101C143 99.8954 143.895 99 145 99H181C182.105 99 183 99.8954 183 101C183 102.105 182.105 103 181 103H145C143.895 103 143 102.105 143 101ZM145 123C143.895 123 143 123.895 143 125C143 126.105 143.895 127 145 127H170C171.105 127 172 126.105 172 125C172 123.895 171.105 123 170 123H145ZM143 113C143 111.895 143.895 111 145 111H153C154.105 111 155 111.895 155 113C155 114.105 154.105 115 153 115H145C143.895 115 143 114.105 143 113ZM161 111C159.895 111 159 111.895 159 113C159 114.105 159.895 115 161 115H192C193.105 115 194 114.105 194 113C194 111.895 193.105 111 192 111H161ZM187 101C187 99.8954 187.895 99 189 99H200C201.105 99 202 99.8954 202 101C202 102.105 201.105 103 200 103H189C187.895 103 187 102.105 187 101Z" fill="white"/>
</svg>
