<svg width="158" height="173" viewBox="0 0 158 173" fill="none" xmlns="http://www.w3.org/2000/svg">
<path opacity="0.12" d="M7.64552 134.638C-1.21518 129.458 -1.21517 116.652 7.64553 111.473L64.7161 78.111C73.0816 73.2208 83.4337 73.2208 91.7992 78.111L148.87 111.473C157.73 116.652 157.73 129.458 148.87 134.638L91.7991 167.999C83.4337 172.89 73.0816 172.89 64.7161 167.999L7.64552 134.638Z" fill="url(#paint0_linear_177_1612)" stroke="#292D3A" stroke-width="2"/>
<path opacity="0.32" d="M7.64552 119.007C-1.21518 113.827 -1.21517 101.022 7.64553 95.8419L64.7161 62.4801C73.0816 57.59 83.4337 57.59 91.7992 62.4801L148.87 95.8419C157.73 101.022 157.73 113.827 148.87 119.007L91.7991 152.369C83.4337 157.259 73.0816 157.259 64.7161 152.369L7.64552 119.007Z" fill="url(#paint1_linear_177_1612)" stroke="#292D3A" stroke-width="2"/>
<path opacity="0.56" d="M7.64552 102.571C-1.21518 97.3915 -1.21517 84.586 7.64553 79.4063L64.7161 46.0446C73.0816 41.1544 83.4337 41.1544 91.7992 46.0446L148.87 79.4063C157.73 84.586 157.73 97.3915 148.87 102.571L91.7991 135.933C83.4337 140.823 73.0816 140.823 64.7161 135.933L7.64552 102.571Z" fill="url(#paint2_linear_177_1612)" stroke="#292D3A" stroke-width="2"/>
<path opacity="0.8" d="M7.64552 86.1357C-1.21518 80.956 -1.21517 68.1505 7.64553 62.9708L64.7161 29.609C73.0816 24.7189 83.4337 24.7189 91.7992 29.609L148.87 62.9708C157.73 68.1505 157.73 80.956 148.87 86.1357L91.7991 119.497C83.4337 124.388 73.0816 124.388 64.7161 119.497L7.64552 86.1357Z" fill="url(#paint3_linear_177_1612)" stroke="#292D3A" stroke-width="2"/>
<mask id="path-5-outside-1_177_1612" maskUnits="userSpaceOnUse" x="46.0232" y="18.4473" width="69" height="37" fill="black">
<rect fill="white" x="46.0232" y="18.4473" width="69" height="37"/>
<path d="M48.0847 20.7119C48.2003 22.0267 49.1716 23.2158 50.6921 24.0938L50.7035 24.0999C50.7043 24.1003 50.7048 24.1012 50.7048 24.1021C50.7048 24.103 50.7053 24.1038 50.7061 24.1042L73.6835 37.3696C73.6839 37.3698 73.6843 37.3696 73.6843 37.3691C73.6843 37.3687 73.6848 37.3684 73.6852 37.3686L73.7224 37.3896C75.4719 38.3997 77.7664 38.9052 80.0623 38.9053C82.3583 38.9053 84.6535 38.3997 86.4031 37.3896L86.4389 37.3689C86.4395 37.3686 86.4402 37.369 86.4402 37.3696C86.4402 37.3703 86.4409 37.3707 86.4415 37.3704L109.42 24.1042C109.421 24.1038 109.422 24.103 109.422 24.1021C109.422 24.1012 109.422 24.1003 109.423 24.0999L109.434 24.0938C111.047 23.1628 112.042 21.882 112.053 20.4722C112.053 20.4585 112.065 20.4473 112.078 20.4473C112.092 20.4473 112.103 20.4584 112.103 20.4722V34.2021C112.103 35.647 111.089 36.9508 109.46 37.8916L109.424 37.9119C109.423 37.9124 109.422 37.9117 109.422 37.9107C109.422 37.9096 109.42 37.9089 109.42 37.9094L86.4419 51.1748C86.4409 51.1754 86.4402 51.1766 86.4402 51.1778C86.4402 51.179 86.4396 51.1801 86.4386 51.1807L86.4285 51.1875C84.6695 52.2031 82.3648 52.7099 80.0623 52.71C77.7599 52.7099 75.4559 52.203 73.697 51.1875L73.6864 51.1809C73.6851 51.1802 73.6843 51.1788 73.6843 51.1773C73.6843 51.1758 73.6835 51.1743 73.6822 51.1736L50.7069 37.9094C50.706 37.9089 50.7048 37.9096 50.7048 37.9106C50.7048 37.9117 50.7037 37.9124 50.7027 37.9119L50.6677 37.8916C49.0383 36.9508 48.0234 35.647 48.0232 34.2021V20.4732C48.0232 20.4589 48.0348 20.4473 48.0491 20.4473C48.063 20.4473 48.0744 20.4582 48.075 20.4721L48.0847 20.7119Z"/>
</mask>
<path d="M48.0847 20.7119C48.2003 22.0267 49.1716 23.2158 50.6921 24.0938L50.7035 24.0999C50.7043 24.1003 50.7048 24.1012 50.7048 24.1021C50.7048 24.103 50.7053 24.1038 50.7061 24.1042L73.6835 37.3696C73.6839 37.3698 73.6843 37.3696 73.6843 37.3691C73.6843 37.3687 73.6848 37.3684 73.6852 37.3686L73.7224 37.3896C75.4719 38.3997 77.7664 38.9052 80.0623 38.9053C82.3583 38.9053 84.6535 38.3997 86.4031 37.3896L86.4389 37.3689C86.4395 37.3686 86.4402 37.369 86.4402 37.3696C86.4402 37.3703 86.4409 37.3707 86.4415 37.3704L109.42 24.1042C109.421 24.1038 109.422 24.103 109.422 24.1021C109.422 24.1012 109.422 24.1003 109.423 24.0999L109.434 24.0938C111.047 23.1628 112.042 21.882 112.053 20.4722C112.053 20.4585 112.065 20.4473 112.078 20.4473C112.092 20.4473 112.103 20.4584 112.103 20.4722V34.2021C112.103 35.647 111.089 36.9508 109.46 37.8916L109.424 37.9119C109.423 37.9124 109.422 37.9117 109.422 37.9107C109.422 37.9096 109.42 37.9089 109.42 37.9094L86.4419 51.1748C86.4409 51.1754 86.4402 51.1766 86.4402 51.1778C86.4402 51.179 86.4396 51.1801 86.4386 51.1807L86.4285 51.1875C84.6695 52.2031 82.3648 52.7099 80.0623 52.71C77.7599 52.7099 75.4559 52.203 73.697 51.1875L73.6864 51.1809C73.6851 51.1802 73.6843 51.1788 73.6843 51.1773C73.6843 51.1758 73.6835 51.1743 73.6822 51.1736L50.7069 37.9094C50.706 37.9089 50.7048 37.9096 50.7048 37.9106C50.7048 37.9117 50.7037 37.9124 50.7027 37.9119L50.6677 37.8916C49.0383 36.9508 48.0234 35.647 48.0232 34.2021V20.4732C48.0232 20.4589 48.0348 20.4473 48.0491 20.4473C48.063 20.4473 48.0744 20.4582 48.075 20.4721L48.0847 20.7119Z" fill="#00E0AF"/>
<path d="M48.0847 20.7119L46.0864 20.793L46.0883 20.8401L46.0924 20.887L48.0847 20.7119ZM50.6921 24.0938L49.6921 25.8258L49.7178 25.8406L49.7439 25.8547L50.6921 24.0938ZM73.7224 37.3896L74.7224 35.6576L74.7137 35.6526L74.7051 35.6477L73.7224 37.3896ZM80.0623 38.9053L80.0622 40.9053H80.0623L80.0623 38.9053ZM86.4031 37.3896L87.403 39.1217L87.4051 39.1205L86.4031 37.3896ZM109.434 24.0938L110.383 25.8547L110.409 25.8406L110.434 25.8258L109.434 24.0938ZM112.103 34.2021L114.103 34.2025V34.2021H112.103ZM109.46 37.8916L110.442 39.6336L110.451 39.6286L110.46 39.6236L109.46 37.8916ZM86.4285 51.1875L87.4285 52.9196L87.4843 52.8873L87.5379 52.8516L86.4285 51.1875ZM80.0623 52.71L80.0622 54.71H80.0623L80.0623 52.71ZM73.697 51.1875L72.6488 52.8908L72.6727 52.9055L72.697 52.9196L73.697 51.1875ZM50.6677 37.8916L51.6698 36.1607L51.6677 36.1596L50.6677 37.8916ZM48.0232 34.2021H46.0232V34.2025L48.0232 34.2021ZM86.4386 51.1807L87.548 52.8448L86.4386 51.1807ZM86.4419 51.1748L87.4419 52.9068L86.4419 51.1748ZM109.42 37.9094L108.42 36.1774L109.42 37.9094ZM109.424 37.9119L110.406 39.6539L109.424 37.9119ZM109.423 24.0999L110.371 25.8608L109.423 24.0999ZM109.42 24.1042L110.42 25.8363L109.42 24.1042ZM86.4415 37.3704L87.4414 39.1024L86.4415 37.3704ZM50.7027 37.9119L49.7006 39.6427L50.7027 37.9119ZM73.6852 37.3686L72.7025 39.1106L73.6852 37.3686ZM48.075 20.4721L46.0766 20.5532L48.075 20.4721ZM86.4389 37.3689L85.4368 35.638L86.4389 37.3689ZM50.7069 37.9094L49.707 39.6415L50.7069 37.9094ZM73.6835 37.3696L72.6835 39.1017L73.6835 37.3696ZM112.053 20.4722L114.053 20.4888L112.053 20.4722ZM73.6822 51.1736L72.6822 52.9056L73.6822 51.1736ZM50.7061 24.1042L49.7061 25.8363L50.7061 24.1042ZM73.6864 51.1809L74.7346 49.4776L73.6864 51.1809ZM50.7035 24.0999L49.7553 25.8608L50.7035 24.0999ZM48.0847 20.7119L46.0924 20.887C46.2881 23.1141 47.8819 24.7806 49.6921 25.8258L50.6921 24.0938L51.6922 22.3617C50.4614 21.6511 50.1124 20.9393 50.077 20.5368L48.0847 20.7119ZM50.6921 24.0938L49.7439 25.8547L49.7553 25.8608L50.7035 24.0999L51.6517 22.3389L51.6403 22.3328L50.6921 24.0938ZM50.7061 24.1042L49.7061 25.8363L72.6835 39.1017L73.6835 37.3696L74.6834 35.6376L51.706 22.3722L50.7061 24.1042ZM73.6852 37.3686L72.7025 39.1106L72.7398 39.1316L73.7224 37.3896L74.7051 35.6477L74.6678 35.6267L73.6852 37.3686ZM73.7224 37.3896L72.7225 39.1217C74.8476 40.3486 77.5085 40.9052 80.0622 40.9053L80.0623 38.9053L80.0623 36.9053C78.0243 36.9052 76.0962 36.4507 74.7224 35.6576L73.7224 37.3896ZM80.0623 38.9053L80.0623 40.9053C82.6161 40.9053 85.2777 40.3487 87.403 39.1217L86.4031 37.3896L85.4031 35.6576C84.0293 36.4507 82.1005 36.9053 80.0622 36.9053L80.0623 38.9053ZM86.4031 37.3896L87.4051 39.1205L87.441 39.0998L86.4389 37.3689L85.4368 35.638L85.401 35.6588L86.4031 37.3896ZM86.4415 37.3704L87.4414 39.1024L110.42 25.8363L109.42 24.1042L108.42 22.3722L85.4415 35.6383L86.4415 37.3704ZM109.423 24.0999L110.371 25.8608L110.383 25.8547L109.434 24.0938L108.486 22.3328L108.475 22.3389L109.423 24.0999ZM109.434 24.0938L110.434 25.8258C112.348 24.7208 114.033 22.9057 114.053 20.4888L112.053 20.4722L110.053 20.4556C110.05 20.8582 109.745 21.6047 108.434 22.3617L109.434 24.0938ZM112.103 20.4722H110.103V34.2021H112.103H114.103V20.4722H112.103ZM112.103 34.2021L110.103 34.2018C110.103 34.6302 109.786 35.3936 108.46 36.1596L109.46 37.8916L110.46 39.6236C112.392 38.5081 114.103 36.6638 114.103 34.2025L112.103 34.2021ZM109.46 37.8916L108.477 36.1496L108.441 36.1699L109.424 37.9119L110.406 39.6539L110.442 39.6336L109.46 37.8916ZM109.42 37.9094L108.42 36.1774L85.442 49.4427L86.4419 51.1748L87.4419 52.9068L110.419 39.6415L109.42 37.9094ZM86.4386 51.1807L85.3292 49.5166L85.3191 49.5234L86.4285 51.1875L87.5379 52.8516L87.548 52.8448L86.4386 51.1807ZM86.4285 51.1875L85.4285 49.4555C84.0452 50.2541 82.107 50.7099 80.0622 50.71L80.0623 52.71L80.0623 54.71C82.6226 54.7099 85.2937 54.152 87.4285 52.9196L86.4285 51.1875ZM80.0623 52.71L80.0623 50.71C78.0178 50.7099 76.0803 50.2541 74.697 49.4555L73.697 51.1875L72.697 52.9196C74.8316 54.1519 77.5019 54.7099 80.0622 54.71L80.0623 52.71ZM73.697 51.1875L74.7452 49.4842L74.7346 49.4776L73.6864 51.1809L72.6382 52.8843L72.6488 52.8908L73.697 51.1875ZM73.6822 51.1736L74.6821 49.4415L51.7069 36.1774L50.7069 37.9094L49.707 39.6415L72.6822 52.9056L73.6822 51.1736ZM50.7027 37.9119L51.7048 36.181L51.6698 36.1607L50.6677 37.8916L49.6657 39.6225L49.7006 39.6427L50.7027 37.9119ZM50.6677 37.8916L51.6677 36.1596C50.3403 35.3931 50.0233 34.6296 50.0232 34.2018L48.0232 34.2021L46.0232 34.2025C46.0236 36.6645 47.7363 38.5086 49.6677 39.6237L50.6677 37.8916ZM48.0232 34.2021H50.0232V20.4732H48.0232H46.0232V34.2021H48.0232ZM48.075 20.4721L46.0766 20.5532L46.0864 20.793L48.0847 20.7119L50.0831 20.6308L50.0733 20.391L48.075 20.4721ZM48.0232 20.4732H50.0232C50.0232 21.5634 49.1394 22.4473 48.0491 22.4473V20.4473V18.4473C46.9302 18.4473 46.0232 19.3543 46.0232 20.4732H48.0232ZM86.4402 51.1778H84.4402C84.4402 50.5103 84.7738 49.8869 85.3292 49.5166L86.4386 51.1807L87.548 52.8448C88.1054 52.4732 88.4402 51.8477 88.4402 51.1778H86.4402ZM86.4419 51.1748L85.442 49.4427C84.8224 49.8004 84.4402 50.4617 84.4402 51.1778H86.4402H88.4402C88.4402 51.8914 88.0593 52.5504 87.4419 52.9068L86.4419 51.1748ZM109.422 37.9107H111.422C111.422 36.37 109.754 35.4071 108.42 36.1774L109.42 37.9094L110.419 39.6415C109.087 40.4107 107.422 39.4491 107.422 37.9107H109.422ZM109.424 37.9119L108.441 36.1699C109.773 35.4184 111.422 36.381 111.422 37.9107H109.422H107.422C107.422 39.4425 109.072 40.4065 110.406 39.6539L109.424 37.9119ZM109.422 24.1021H111.422C111.422 24.8369 111.018 25.5124 110.371 25.8608L109.423 24.0999L108.475 22.3389C107.826 22.6882 107.422 23.3654 107.422 24.1021H109.422ZM109.42 24.1042L110.42 25.8363C111.04 25.4783 111.422 24.8169 111.422 24.1021H109.422H107.422C107.422 23.389 107.802 22.7293 108.42 22.3722L109.42 24.1042ZM86.4402 37.3696H84.4402C84.4402 38.9099 86.1075 39.8725 87.4414 39.1024L86.4415 37.3704L85.4415 35.6383C86.7743 34.8689 88.4402 35.8307 88.4402 37.3696H86.4402ZM50.7048 37.9106H48.7048C48.7048 36.3711 50.3724 35.4096 51.7048 36.181L50.7027 37.9119L49.7006 39.6427C51.0349 40.4152 52.7048 39.4524 52.7048 37.9106H50.7048ZM73.6843 37.3691H75.6843C75.6843 38.8994 74.0354 39.8625 72.7025 39.1106L73.6852 37.3686L74.6678 35.6267C73.3342 34.8744 71.6843 35.838 71.6843 37.3691H73.6843ZM48.0491 20.4473V22.4473C46.99 22.4473 46.1196 21.6115 46.0766 20.5532L48.075 20.4721L50.0733 20.391C50.0293 19.305 49.136 18.4473 48.0491 18.4473V20.4473ZM86.4389 37.3689L87.441 39.0998C86.1082 39.8714 84.4402 38.9096 84.4402 37.3696H86.4402H88.4402C88.4402 35.8283 86.7707 34.8658 85.4368 35.638L86.4389 37.3689ZM112.078 20.4473V22.4473C110.988 22.4473 110.103 21.563 110.103 20.4722H112.103H114.103C114.103 19.3538 113.197 18.4473 112.078 18.4473V20.4473ZM50.7069 37.9094L51.7069 36.1774C50.3707 35.4059 48.7048 36.3722 48.7048 37.9106H50.7048H52.7048C52.7048 39.4469 51.0413 40.4118 49.707 39.6415L50.7069 37.9094ZM73.6835 37.3696L72.6835 39.1017C74.0173 39.8717 75.6843 38.909 75.6843 37.3691H73.6843H71.6843C71.6843 35.8301 73.3504 34.8679 74.6834 35.6376L73.6835 37.3696ZM112.053 20.4722L114.053 20.4888C114.044 21.5569 113.179 22.4473 112.078 22.4473V20.4473V18.4473C110.95 18.4473 110.063 19.36 110.053 20.4556L112.053 20.4722ZM73.6843 51.1773H75.6843C75.6843 50.4612 75.3023 49.7995 74.6821 49.4415L73.6822 51.1736L72.6822 52.9056C72.0647 52.5491 71.6843 51.8903 71.6843 51.1773H73.6843ZM50.7048 24.1021H48.7048C48.7048 24.8175 49.0865 25.4786 49.7061 25.8363L50.7061 24.1042L51.706 22.3722C52.3241 22.729 52.7048 23.3884 52.7048 24.1021H50.7048ZM73.6864 51.1809L74.7346 49.4776C75.3248 49.8408 75.6843 50.4843 75.6843 51.1773H73.6843H71.6843C71.6843 51.8733 72.0454 52.5195 72.6382 52.8843L73.6864 51.1809ZM50.7035 24.0999L49.7553 25.8608C49.1083 25.5124 48.7048 24.8369 48.7048 24.1021H50.7048H52.7048C52.7048 23.3654 52.3004 22.6882 51.6517 22.3389L50.7035 24.0999Z" fill="#292D3A" mask="url(#path-5-outside-1_177_1612)"/>
<rect width="26.5921" height="13.7546" transform="matrix(0.866025 0.5 0 1 50.6172 24.1504)" fill="#01A982"/>
<rect width="26.5921" height="13.7546" transform="matrix(0.866025 -0.5 0 1 86.354 37.4473)" fill="#00E0AF"/>
<path d="M47.9861 20.4824C47.9861 21.9148 48.9917 23.2116 50.6176 24.1503V37.9049C48.9917 36.9662 47.9861 35.6694 47.9861 34.237V20.4824Z" fill="#01A982"/>
<path d="M73.6475 37.4473C77.1561 39.473 82.8447 39.473 86.3534 37.4473V51.2018C82.8447 53.2275 77.1561 53.2275 73.6475 51.2018V37.4473Z" fill="#00E0AF"/>
<path d="M112.016 20.4824C112.016 21.9148 111.01 23.2116 109.384 24.1503V37.9049C111.01 36.9662 112.016 35.6694 112.016 34.237V20.4824Z" fill="#00E0AF"/>
<path d="M80 1C82.4283 1 84.9114 1.53204 86.8535 2.65332L109.883 15.9492C111.819 17.0673 113.014 18.6727 113.014 20.4834C113.014 22.294 111.819 23.8996 109.883 25.0176L86.8535 38.3135C84.9114 39.4348 82.4283 39.9668 80 39.9668C77.5718 39.9668 75.0895 39.4346 73.1475 38.3135L50.1182 25.0176C48.1817 23.8996 46.9864 22.294 46.9863 20.4834C46.9863 18.6727 48.1817 17.0673 50.1182 15.9492L73.1475 2.65332C75.0895 1.53212 77.5718 1.00003 80 1Z" fill="url(#paint4_linear_177_1612)" stroke="#292D3A" stroke-width="2"/>
<mask id="path-13-outside-2_177_1612" maskUnits="userSpaceOnUse" x="89.4545" y="44.4355" width="69" height="37" fill="black">
<rect fill="white" x="89.4545" y="44.4355" width="69" height="37"/>
<path d="M91.516 46.7002C91.6314 48.0151 92.6028 49.2041 94.1234 50.082L94.1348 50.0882C94.1356 50.0886 94.1361 50.0894 94.1361 50.0904C94.1361 50.0912 94.1366 50.0921 94.1374 50.0925L117.114 63.3582C117.114 63.3583 117.115 63.3581 117.115 63.3579C117.115 63.3577 117.115 63.3576 117.115 63.3577L117.153 63.3789C118.902 64.3888 121.197 64.8944 123.493 64.8945C125.788 64.8945 128.084 64.3889 129.833 63.3789L129.869 63.3584C129.87 63.358 129.87 63.3585 129.87 63.3594C129.87 63.3602 129.871 63.3608 129.872 63.3604L152.85 50.0937C152.851 50.0931 152.852 50.092 152.852 50.0909C152.852 50.0896 152.853 50.0885 152.854 50.0879L152.865 50.082C154.477 49.151 155.472 47.8703 155.484 46.4605C155.484 46.4467 155.495 46.4355 155.509 46.4355C155.522 46.4355 155.534 46.4467 155.534 46.4604V60.1904C155.533 61.6354 154.52 62.9391 152.89 63.8799L152.854 63.9004C152.853 63.9008 152.852 63.9003 152.852 63.8994C152.852 63.8986 152.851 63.898 152.85 63.8984L129.872 77.1653C129.871 77.1657 129.87 77.1666 129.87 77.1675C129.87 77.1684 129.87 77.1692 129.869 77.1697L129.859 77.1768C128.1 78.1922 125.795 78.6992 123.493 78.6992C121.19 78.6991 118.886 78.1922 117.127 77.1768L117.117 77.1705C117.116 77.1695 117.115 77.1679 117.115 77.1661C117.115 77.1642 117.114 77.1625 117.112 77.1616L94.1382 63.8977C94.1373 63.8972 94.1361 63.8978 94.1361 63.8989C94.1361 63.9 94.1349 63.9007 94.134 63.9001L94.099 63.8799C92.4695 62.9391 91.4546 61.6354 91.4545 60.1904V46.4615C91.4545 46.4471 91.4661 46.4355 91.4804 46.4355C91.4943 46.4355 91.5057 46.4465 91.5063 46.4604L91.516 46.7002Z"/>
</mask>
<path d="M91.516 46.7002C91.6314 48.0151 92.6028 49.2041 94.1234 50.082L94.1348 50.0882C94.1356 50.0886 94.1361 50.0894 94.1361 50.0904C94.1361 50.0912 94.1366 50.0921 94.1374 50.0925L117.114 63.3582C117.114 63.3583 117.115 63.3581 117.115 63.3579C117.115 63.3577 117.115 63.3576 117.115 63.3577L117.153 63.3789C118.902 64.3888 121.197 64.8944 123.493 64.8945C125.788 64.8945 128.084 64.3889 129.833 63.3789L129.869 63.3584C129.87 63.358 129.87 63.3585 129.87 63.3594C129.87 63.3602 129.871 63.3608 129.872 63.3604L152.85 50.0937C152.851 50.0931 152.852 50.092 152.852 50.0909C152.852 50.0896 152.853 50.0885 152.854 50.0879L152.865 50.082C154.477 49.151 155.472 47.8703 155.484 46.4605C155.484 46.4467 155.495 46.4355 155.509 46.4355C155.522 46.4355 155.534 46.4467 155.534 46.4604V60.1904C155.533 61.6354 154.52 62.9391 152.89 63.8799L152.854 63.9004C152.853 63.9008 152.852 63.9003 152.852 63.8994C152.852 63.8986 152.851 63.898 152.85 63.8984L129.872 77.1653C129.871 77.1657 129.87 77.1666 129.87 77.1675C129.87 77.1684 129.87 77.1692 129.869 77.1697L129.859 77.1768C128.1 78.1922 125.795 78.6992 123.493 78.6992C121.19 78.6991 118.886 78.1922 117.127 77.1768L117.117 77.1705C117.116 77.1695 117.115 77.1679 117.115 77.1661C117.115 77.1642 117.114 77.1625 117.112 77.1616L94.1382 63.8977C94.1373 63.8972 94.1361 63.8978 94.1361 63.8989C94.1361 63.9 94.1349 63.9007 94.134 63.9001L94.099 63.8799C92.4695 62.9391 91.4546 61.6354 91.4545 60.1904V46.4615C91.4545 46.4471 91.4661 46.4355 91.4804 46.4355C91.4943 46.4355 91.5057 46.4465 91.5063 46.4604L91.516 46.7002Z" fill="#00E0AF"/>
<path d="M91.516 46.7002L89.5176 46.7813L89.5195 46.8283L89.5237 46.8751L91.516 46.7002ZM94.1234 50.082L93.1234 51.8141L93.1491 51.8289L93.1752 51.843L94.1234 50.082ZM117.153 63.3789L118.153 61.6468L118.144 61.6418L118.135 61.6369L117.153 63.3789ZM123.493 64.8945L123.492 66.8945H123.493V64.8945ZM129.833 63.3789L130.833 65.111L130.835 65.1098L129.833 63.3789ZM152.865 50.082L153.813 51.843L153.839 51.8289L153.865 51.8141L152.865 50.082ZM155.534 60.1904L157.534 60.1906V60.1904H155.534ZM152.89 63.8799L153.873 65.6218L153.881 65.6169L153.89 65.6119L152.89 63.8799ZM129.859 77.1768L130.859 78.9089L130.915 78.8766L130.968 78.8409L129.859 77.1768ZM123.493 78.6992L123.492 80.6992H123.493V78.6992ZM117.127 77.1768L116.079 78.8801L116.103 78.8948L116.127 78.9088L117.127 77.1768ZM94.099 63.8799L95.1011 62.149L95.099 62.1478L94.099 63.8799ZM91.4545 60.1904H89.4545V60.1906L91.4545 60.1904ZM129.869 77.1697L130.979 78.8338L129.869 77.1697ZM129.872 77.1653L130.872 78.8973L129.872 77.1653ZM152.85 63.8984L153.85 65.6305L152.85 63.8984ZM152.854 63.9004L153.836 65.6424L152.854 63.9004ZM152.854 50.0879L153.802 51.8489L152.854 50.0879ZM152.85 50.0937L153.85 51.8258L152.85 50.0937ZM129.872 63.3604L128.872 61.6283L129.872 63.3604ZM94.134 63.9001L93.1319 65.631L94.134 63.9001ZM117.115 63.3577L116.132 65.0996L117.115 63.3577ZM91.5063 46.4604L89.5079 46.5415L91.5063 46.4604ZM129.869 63.3584L130.871 65.0893L129.869 63.3584ZM94.1382 63.8977L93.1382 65.6298L94.1382 63.8977ZM117.114 63.3582L118.114 61.6261L117.114 63.3582ZM155.484 46.4605L153.484 46.444L155.484 46.4605ZM117.112 77.1616L116.112 78.8937L117.112 77.1616ZM94.1374 50.0925L95.1374 48.3605L94.1374 50.0925ZM117.117 77.1705L118.165 75.4671L117.117 77.1705ZM94.1348 50.0882L95.083 48.3272L94.1348 50.0882ZM91.516 46.7002L89.5237 46.8751C89.7192 49.1025 91.3132 50.7689 93.1234 51.8141L94.1234 50.082L95.1235 48.35C93.8924 47.6392 93.5437 46.9276 93.5083 46.5253L91.516 46.7002ZM94.1234 50.082L93.1752 51.843L93.1866 51.8491L94.1348 50.0882L95.083 48.3272L95.0716 48.3211L94.1234 50.082ZM94.1374 50.0925L93.1374 51.8246L116.114 65.0902L117.114 63.3582L118.114 61.6261L95.1374 48.3605L94.1374 50.0925ZM117.115 63.3577L116.132 65.0996L116.17 65.1209L117.153 63.3789L118.135 61.6369L118.098 61.6157L117.115 63.3577ZM117.153 63.3789L116.153 65.111C118.278 66.3378 120.939 66.8944 123.492 66.8945L123.493 64.8945L123.493 62.8945C121.455 62.8944 119.526 62.4399 118.153 61.6468L117.153 63.3789ZM123.493 64.8945V66.8945C126.046 66.8945 128.708 66.3378 130.833 65.111L129.833 63.3789L128.833 61.6468C127.46 62.4399 125.531 62.8945 123.493 62.8945V64.8945ZM129.833 63.3789L130.835 65.1098L130.871 65.0893L129.869 63.3584L128.867 61.6275L128.831 61.6481L129.833 63.3789ZM129.872 63.3604L130.872 65.0924L153.85 51.8258L152.85 50.0937L151.85 48.3617L128.872 61.6283L129.872 63.3604ZM152.854 50.0879L153.802 51.8489L153.813 51.843L152.865 50.082L151.916 48.3211L151.905 48.327L152.854 50.0879ZM152.865 50.082L153.865 51.8141C155.778 50.7091 157.464 48.8941 157.484 46.477L155.484 46.4605L153.484 46.444C153.48 46.8466 153.176 47.5929 151.865 48.35L152.865 50.082ZM155.534 46.4604H153.534V60.1904H155.534H157.534V46.4604H155.534ZM155.534 60.1904L153.534 60.1902C153.534 60.6185 153.217 61.3818 151.89 62.1478L152.89 63.8799L153.89 65.6119C155.822 64.4964 157.533 62.6523 157.534 60.1906L155.534 60.1904ZM152.89 63.8799L151.907 62.1379L151.871 62.1585L152.854 63.9004L153.836 65.6424L153.873 65.6218L152.89 63.8799ZM152.85 63.8984L151.85 62.1664L128.872 75.4332L129.872 77.1653L130.872 78.8973L153.85 65.6305L152.85 63.8984ZM129.869 77.1697L128.76 75.5056L128.749 75.5127L129.859 77.1768L130.968 78.8409L130.979 78.8338L129.869 77.1697ZM129.859 77.1768L128.859 75.4447C127.476 76.2432 125.537 76.6992 123.493 76.6992V78.6992V80.6992C126.053 80.6992 128.724 80.1411 130.859 78.9089L129.859 77.1768ZM123.493 78.6992L123.493 76.6992C121.448 76.6991 119.51 76.2432 118.127 75.4447L117.127 77.1768L116.127 78.9088C118.262 80.1412 120.932 80.6991 123.492 80.6992L123.493 78.6992ZM117.127 77.1768L118.176 75.4734L118.165 75.4671L117.117 77.1705L116.069 78.8738L116.079 78.8801L117.127 77.1768ZM117.112 77.1616L118.112 75.4295L95.1382 62.1657L94.1382 63.8977L93.1382 65.6298L116.112 78.8937L117.112 77.1616ZM94.134 63.9001L95.1361 62.1693L95.1011 62.149L94.099 63.8799L93.0969 65.6107L93.1319 65.631L94.134 63.9001ZM94.099 63.8799L95.099 62.1478C93.7713 61.3813 93.4545 60.6179 93.4545 60.1902L91.4545 60.1904L89.4545 60.1906C89.4547 62.6529 91.1676 64.4969 93.099 65.6119L94.099 63.8799ZM91.4545 60.1904H93.4545V46.4615H91.4545H89.4545V60.1904H91.4545ZM91.5063 46.4604L89.5079 46.5415L89.5176 46.7813L91.516 46.7002L93.5143 46.6191L93.5046 46.3793L91.5063 46.4604ZM91.4545 46.4615H93.4545C93.4545 47.5517 92.5706 48.4355 91.4804 48.4355V46.4355V44.4355C90.3615 44.4355 89.4545 45.3426 89.4545 46.4615H91.4545ZM129.87 77.1675H127.87C127.87 76.4997 128.204 75.8761 128.76 75.5056L129.869 77.1697L130.979 78.8338C131.536 78.4624 131.87 77.8371 131.87 77.1675H129.87ZM129.872 77.1653L128.872 75.4332C128.252 75.7911 127.87 76.4523 127.87 77.1675H129.87H131.87C131.87 77.8808 131.49 78.5404 130.872 78.8973L129.872 77.1653ZM152.852 63.8994H154.852C154.852 62.3589 153.184 61.3962 151.85 62.1664L152.85 63.8984L153.85 65.6305C152.518 66.3999 150.852 65.4382 150.852 63.8994H152.852ZM152.854 63.9004L151.871 62.1585C153.203 61.4068 154.852 62.3696 154.852 63.8994H152.852H150.852C150.852 65.431 152.502 66.3949 153.836 65.6424L152.854 63.9004ZM152.852 50.0909H154.852C154.852 50.8254 154.449 51.5006 153.802 51.8489L152.854 50.0879L151.905 48.327C151.257 48.6764 150.852 49.3539 150.852 50.0909H152.852ZM152.85 50.0937L153.85 51.8258C154.47 51.468 154.852 50.8067 154.852 50.0909H152.852H150.852C150.852 49.3773 151.233 48.7183 151.85 48.3617L152.85 50.0937ZM129.87 63.3594H127.87C127.87 64.8999 129.538 65.8626 130.872 65.0924L129.872 63.3604L128.872 61.6283C130.205 60.8589 131.87 61.8206 131.87 63.3594H129.87ZM94.1361 63.8989H92.1361C92.1361 62.3593 93.8037 61.3979 95.1361 62.1693L94.134 63.9001L93.1319 65.631C94.4662 66.4035 96.1361 65.4407 96.1361 63.8989H94.1361ZM117.115 63.3579H119.115C119.115 64.8884 117.465 65.8516 116.132 65.0996L117.115 63.3577L118.098 61.6157C116.764 60.8635 115.115 61.827 115.115 63.3579H117.115ZM91.4804 46.4355V48.4355C90.4213 48.4355 89.5509 47.5998 89.5079 46.5415L91.5063 46.4604L93.5046 46.3793C93.4605 45.2933 92.5673 44.4355 91.4804 44.4355V46.4355ZM129.869 63.3584L130.871 65.0893C129.538 65.8608 127.87 64.8992 127.87 63.3594H129.87H131.87C131.87 61.8179 130.201 60.8552 128.867 61.6275L129.869 63.3584ZM155.509 46.4355V48.4355C154.418 48.4355 153.534 47.5513 153.534 46.4604H155.534H157.534C157.534 45.3421 156.627 44.4355 155.509 44.4355V46.4355ZM94.1382 63.8977L95.1382 62.1657C93.8051 61.396 92.1361 62.3569 92.1361 63.8989H94.1361H96.1361C96.1361 65.4388 94.4695 66.3983 93.1382 65.6298L94.1382 63.8977ZM117.114 63.3582L116.114 65.0902C117.456 65.8651 119.115 64.8878 119.115 63.3579H117.115H115.115C115.115 61.8285 116.772 60.8514 118.114 61.6261L117.114 63.3582ZM155.484 46.4605L157.484 46.477C157.475 47.5451 156.609 48.4355 155.509 48.4355V46.4355V44.4355C154.381 44.4355 153.493 45.3484 153.484 46.444L155.484 46.4605ZM117.115 77.1661H119.115C119.115 76.4497 118.732 75.7877 118.112 75.4295L117.112 77.1616L116.112 78.8937C115.495 78.5373 115.115 77.8788 115.115 77.1661H117.115ZM94.1361 50.0904H92.1361C92.1361 50.8058 92.5178 51.4669 93.1374 51.8246L94.1374 50.0925L95.1374 48.3605C95.7554 48.7173 96.1361 49.3767 96.1361 50.0904H94.1361ZM117.117 77.1705L118.165 75.4671C118.755 75.8302 119.115 76.4733 119.115 77.1661H117.115H115.115C115.115 77.8624 115.476 78.5088 116.069 78.8738L117.117 77.1705ZM94.1348 50.0882L93.1866 51.8491C92.5396 51.5007 92.1361 50.8252 92.1361 50.0904H94.1361H96.1361C96.1361 49.3537 95.7316 48.6765 95.083 48.3272L94.1348 50.0882Z" fill="#292D3A" mask="url(#path-13-outside-2_177_1612)"/>
<rect width="26.5921" height="13.7546" transform="matrix(0.866025 0.5 0 1 94.0481 50.1406)" fill="#01A982"/>
<rect width="26.5921" height="13.7546" transform="matrix(0.866025 -0.5 0 1 129.785 63.4375)" fill="#00E0AF"/>
<path d="M91.417 46.4727C91.417 47.9051 92.4226 49.2018 94.0485 50.1405V63.8951C92.4226 62.9564 91.417 61.6596 91.417 60.2272V46.4727Z" fill="#01A982"/>
<path d="M117.078 63.4375C120.587 65.4632 126.276 65.4632 129.784 63.4375V77.1921C126.276 79.2178 120.587 79.2178 117.078 77.1921V63.4375Z" fill="#00E0AF"/>
<path d="M155.447 46.4727C155.447 47.9051 154.441 49.2018 152.815 50.1405V63.8951C154.441 62.9564 155.447 61.6596 155.447 60.2272V46.4727Z" fill="#00E0AF"/>
<path d="M123.431 26.9902C125.859 26.9902 128.342 27.5223 130.284 28.6436L153.313 41.9395C155.25 43.0575 156.444 44.663 156.444 46.4736C156.444 48.2843 155.25 49.8898 153.313 51.0078L130.284 64.3037C128.342 65.425 125.859 65.957 123.431 65.957C121.003 65.957 118.52 65.4249 116.578 64.3037L93.5488 51.0078C91.6124 49.8898 90.4171 48.2843 90.417 46.4736C90.417 44.6629 91.6123 43.0575 93.5488 41.9395L116.578 28.6436C118.52 27.5224 121.002 26.9903 123.431 26.9902Z" fill="url(#paint5_linear_177_1612)" stroke="#292D3A" stroke-width="2"/>
<mask id="path-21-outside-3_177_1612" maskUnits="userSpaceOnUse" x="0.564453" y="45.9551" width="69" height="37" fill="black">
<rect fill="white" x="0.564453" y="45.9551" width="69" height="37"/>
<path d="M2.62598 48.2197C2.74143 49.5346 3.71281 50.7236 5.2334 51.6016L5.24478 51.6077C5.24559 51.6081 5.24609 51.609 5.24609 51.6099C5.24609 51.6108 5.24657 51.6116 5.24734 51.612L28.2252 64.8777C28.2253 64.8778 28.2256 64.8777 28.2256 64.8774C28.2256 64.8772 28.2258 64.8771 28.226 64.8772L28.2637 64.8984C30.0131 65.9084 32.3077 66.414 34.6035 66.4141C36.8995 66.414 39.1948 65.9085 40.9443 64.8984L40.9802 64.8777C40.9807 64.8774 40.9814 64.8778 40.9814 64.8784C40.9814 64.8791 40.9822 64.8795 40.9827 64.8792L63.9603 51.6133C63.9613 51.6127 63.9619 51.6116 63.9619 51.6104C63.9619 51.6092 63.9626 51.608 63.9637 51.6075L63.9746 51.6016C65.5872 50.6705 66.582 49.3899 66.5937 47.98C66.5938 47.9663 66.6049 47.9551 66.6187 47.9551C66.6324 47.9551 66.6436 47.9662 66.6436 47.98V61.71C66.6434 63.1549 65.6295 64.4586 64 65.3994L63.9636 65.4199C63.9628 65.4204 63.9619 65.4198 63.9619 65.419C63.9619 65.4181 63.961 65.4175 63.9602 65.418L40.9832 78.6836C40.9821 78.6842 40.9814 78.6853 40.9814 78.6866C40.9814 78.6878 40.9809 78.6889 40.9799 78.6895L40.9697 78.6963C39.2107 79.7118 36.906 80.2187 34.6035 80.2188C32.3012 80.2187 29.9972 79.7117 28.2383 78.6963L28.228 78.69C28.2265 78.689 28.2256 78.6874 28.2256 78.6856C28.2256 78.6838 28.2246 78.682 28.223 78.6811L5.24821 65.4172C5.24727 65.4167 5.24609 65.4174 5.24609 65.4185C5.24609 65.4195 5.24492 65.4202 5.24398 65.4197L5.20898 65.3994C3.57947 64.4586 2.56461 63.1549 2.56445 61.71V47.981C2.56445 47.9667 2.57605 47.9551 2.59036 47.9551C2.60426 47.9551 2.61568 47.966 2.61624 47.9799L2.62598 48.2197Z"/>
</mask>
<path d="M2.62598 48.2197C2.74143 49.5346 3.71281 50.7236 5.2334 51.6016L5.24478 51.6077C5.24559 51.6081 5.24609 51.609 5.24609 51.6099C5.24609 51.6108 5.24657 51.6116 5.24734 51.612L28.2252 64.8777C28.2253 64.8778 28.2256 64.8777 28.2256 64.8774C28.2256 64.8772 28.2258 64.8771 28.226 64.8772L28.2637 64.8984C30.0131 65.9084 32.3077 66.414 34.6035 66.4141C36.8995 66.414 39.1948 65.9085 40.9443 64.8984L40.9802 64.8777C40.9807 64.8774 40.9814 64.8778 40.9814 64.8784C40.9814 64.8791 40.9822 64.8795 40.9827 64.8792L63.9603 51.6133C63.9613 51.6127 63.9619 51.6116 63.9619 51.6104C63.9619 51.6092 63.9626 51.608 63.9637 51.6075L63.9746 51.6016C65.5872 50.6705 66.582 49.3899 66.5937 47.98C66.5938 47.9663 66.6049 47.9551 66.6187 47.9551C66.6324 47.9551 66.6436 47.9662 66.6436 47.98V61.71C66.6434 63.1549 65.6295 64.4586 64 65.3994L63.9636 65.4199C63.9628 65.4204 63.9619 65.4198 63.9619 65.419C63.9619 65.4181 63.961 65.4175 63.9602 65.418L40.9832 78.6836C40.9821 78.6842 40.9814 78.6853 40.9814 78.6866C40.9814 78.6878 40.9809 78.6889 40.9799 78.6895L40.9697 78.6963C39.2107 79.7118 36.906 80.2187 34.6035 80.2188C32.3012 80.2187 29.9972 79.7117 28.2383 78.6963L28.228 78.69C28.2265 78.689 28.2256 78.6874 28.2256 78.6856C28.2256 78.6838 28.2246 78.682 28.223 78.6811L5.24821 65.4172C5.24727 65.4167 5.24609 65.4174 5.24609 65.4185C5.24609 65.4195 5.24492 65.4202 5.24398 65.4197L5.20898 65.3994C3.57947 64.4586 2.56461 63.1549 2.56445 61.71V47.981C2.56445 47.9667 2.57605 47.9551 2.59036 47.9551C2.60426 47.9551 2.61568 47.966 2.61624 47.9799L2.62598 48.2197Z" fill="#00E0AF"/>
<path d="M2.62598 48.2197L0.627622 48.3008L0.629529 48.3478L0.633642 48.3947L2.62598 48.2197ZM5.2334 51.6016L4.23335 53.3336L4.25906 53.3484L4.2852 53.3625L5.2334 51.6016ZM28.2637 64.8984L29.2636 63.1663L29.255 63.1614L29.2463 63.1565L28.2637 64.8984ZM34.6035 66.4141L34.6035 68.4141H34.6035L34.6035 66.4141ZM40.9443 64.8984L41.9443 66.6305L41.9464 66.6293L40.9443 64.8984ZM63.9746 51.6016L64.9228 53.3625L64.9489 53.3484L64.9746 53.3336L63.9746 51.6016ZM66.6436 61.71L68.6436 61.7102V61.71H66.6436ZM64 65.3994L64.9826 67.1414L64.9914 67.1365L65 67.1315L64 65.3994ZM40.9697 78.6963L41.9697 80.4283L42.0255 80.3961L42.0791 80.3604L40.9697 78.6963ZM34.6035 80.2188L34.6035 82.2188H34.6035L34.6035 80.2188ZM28.2383 78.6963L27.1901 80.3996L27.214 80.4143L27.2383 80.4284L28.2383 78.6963ZM5.20898 65.3994L6.21106 63.6686L6.20898 63.6674L5.20898 65.3994ZM2.56445 61.71H0.564453V61.7102L2.56445 61.71ZM40.9799 78.6895L39.8705 77.0254L40.9799 78.6895ZM40.9832 78.6836L41.9832 80.4156L40.9832 78.6836ZM63.9602 65.418L64.9602 67.15L63.9602 65.418ZM63.9636 65.4199L62.981 63.678L63.9636 65.4199ZM63.9637 51.6075L63.0155 49.8465L63.9637 51.6075ZM63.9603 51.6133L62.9603 49.8812L63.9603 51.6133ZM40.9827 64.8792L39.9827 63.1471L40.9827 64.8792ZM5.24398 65.4197L4.24191 67.1505L5.24398 65.4197ZM28.226 64.8772L29.2087 63.1352L28.226 64.8772ZM2.61624 47.9799L0.617889 48.061L2.61624 47.9799ZM40.9802 64.8777L39.9781 63.1468L40.9802 64.8777ZM5.24821 65.4172L4.24824 67.1493L5.24821 65.4172ZM28.2252 64.8777L29.2251 63.1456L28.2252 64.8777ZM66.5937 47.98L64.5937 47.9636L66.5937 47.98ZM28.223 78.6811L27.223 80.4132L28.223 78.6811ZM5.24734 51.612L4.24738 53.3441L5.24734 51.612ZM28.228 78.69L27.1798 80.3933L28.228 78.69ZM5.24478 51.6077L4.29658 53.3686L5.24478 51.6077ZM2.62598 48.2197L0.633642 48.3947C0.829218 50.622 2.42319 52.2884 4.23335 53.3336L5.2334 51.6016L6.23345 49.8695C5.00243 49.1588 4.65364 48.4472 4.61831 48.0448L2.62598 48.2197ZM5.2334 51.6016L4.2852 53.3625L4.29658 53.3686L5.24478 51.6077L6.19298 49.8468L6.1816 49.8406L5.2334 51.6016ZM5.24734 51.612L4.24738 53.3441L27.2252 66.6098L28.2252 64.8777L29.2251 63.1456L6.24731 49.88L5.24734 51.612ZM28.226 64.8772L27.2434 66.6191L27.281 66.6404L28.2637 64.8984L29.2463 63.1565L29.2087 63.1352L28.226 64.8772ZM28.2637 64.8984L27.2638 66.6305C29.3888 67.8573 32.0497 68.414 34.6035 68.4141L34.6035 66.4141L34.6036 64.4141C32.5657 64.414 30.6375 63.9595 29.2636 63.1663L28.2637 64.8984ZM34.6035 66.4141L34.6035 68.4141C37.1573 68.414 39.819 67.8575 41.9443 66.6305L40.9443 64.8984L39.9444 63.1664C38.5705 63.9595 36.6417 64.414 34.6035 64.4141L34.6035 66.4141ZM40.9443 64.8984L41.9464 66.6293L41.9823 66.6085L40.9802 64.8777L39.9781 63.1468L39.9423 63.1676L40.9443 64.8984ZM40.9827 64.8792L41.9827 66.6112L64.9602 53.3453L63.9603 51.6133L62.9603 49.8812L39.9827 63.1471L40.9827 64.8792ZM63.9637 51.6075L64.9119 53.3684L64.9228 53.3625L63.9746 51.6016L63.0264 49.8406L63.0155 49.8465L63.9637 51.6075ZM63.9746 51.6016L64.9746 53.3336C66.8885 52.2286 68.5737 50.4137 68.5936 47.9965L66.5937 47.98L64.5937 47.9636C64.5904 48.3661 64.2859 49.1124 62.9746 49.8695L63.9746 51.6016ZM66.6436 47.98H64.6436V61.71H66.6436H68.6436V47.98H66.6436ZM66.6436 61.71L64.6436 61.7097C64.6435 62.1381 64.3268 62.9013 63 63.6674L64 65.3994L65 67.1315C66.9321 66.0159 68.6433 64.1718 68.6436 61.7102L66.6436 61.71ZM64 65.3994L63.0174 63.6575L62.981 63.678L63.9636 65.4199L64.9462 67.1619L64.9826 67.1414L64 65.3994ZM63.9602 65.418L62.9602 63.6859L39.9832 76.9515L40.9832 78.6836L41.9832 80.4156L64.9602 67.15L63.9602 65.418ZM40.9799 78.6895L39.8705 77.0254L39.8603 77.0322L40.9697 78.6963L42.0791 80.3604L42.0893 80.3536L40.9799 78.6895ZM40.9697 78.6963L39.9697 76.9642C38.5865 77.7628 36.6482 78.2187 34.6035 78.2188L34.6035 80.2188L34.6035 82.2188C37.1638 82.2187 39.835 81.6608 41.9697 80.4283L40.9697 78.6963ZM34.6035 80.2188L34.6036 78.2188C32.5591 78.2187 30.6215 77.7628 29.2383 76.9642L28.2383 78.6963L27.2383 80.4284C29.3728 81.6607 32.0432 82.2187 34.6035 82.2188L34.6035 80.2188ZM28.2383 78.6963L29.2865 76.993L29.2762 76.9867L28.228 78.69L27.1798 80.3933L27.1901 80.3996L28.2383 78.6963ZM28.223 78.6811L29.223 76.9491L6.24817 63.6852L5.24821 65.4172L4.24824 67.1493L27.223 80.4132L28.223 78.6811ZM5.24398 65.4197L6.24605 63.6888L6.21106 63.6686L5.20898 65.3994L4.20691 67.1303L4.24191 67.1505L5.24398 65.4197ZM5.20898 65.3994L6.20898 63.6674C4.88132 62.9008 4.5645 62.1374 4.56445 61.7097L2.56445 61.71L0.564453 61.7102C0.564716 64.1724 2.27761 66.0164 4.20898 67.1315L5.20898 65.3994ZM2.56445 61.71H4.56445V47.981H2.56445H0.564453V61.71H2.56445ZM2.61624 47.9799L0.617889 48.061L0.627622 48.3008L2.62598 48.2197L4.62433 48.1386L4.6146 47.8988L2.61624 47.9799ZM2.56445 47.981H4.56445C4.56445 49.0712 3.68063 49.9551 2.59036 49.9551V47.9551V45.9551C1.47148 45.9551 0.564453 46.8621 0.564453 47.981H2.56445ZM40.9814 78.6866H38.9814C38.9814 78.0191 39.3151 77.3957 39.8705 77.0254L40.9799 78.6895L42.0893 80.3536C42.6467 79.982 42.9814 79.3565 42.9814 78.6866H40.9814ZM40.9832 78.6836L39.9832 76.9515C39.3636 77.3092 38.9814 77.9705 38.9814 78.6866H40.9814H42.9814C42.9814 79.4002 42.6006 80.0591 41.9832 80.4156L40.9832 78.6836ZM63.9619 65.419H65.9619C65.9619 63.8785 64.2943 62.9157 62.9602 63.6859L63.9602 65.418L64.9602 67.15C63.6276 67.9194 61.9619 66.9577 61.9619 65.419H63.9619ZM63.9636 65.4199L62.981 63.678C64.3134 62.9263 65.9619 63.8891 65.9619 65.419H63.9619H61.9619C61.9619 66.9506 63.6123 67.9144 64.9462 67.1619L63.9636 65.4199ZM63.9619 51.6104H65.9619C65.9619 52.3449 65.5586 53.0202 64.9119 53.3684L63.9637 51.6075L63.0155 49.8465C62.3666 50.1959 61.9619 50.8734 61.9619 51.6104H63.9619ZM63.9603 51.6133L64.9602 53.3453C65.58 52.9875 65.9619 52.3262 65.9619 51.6104H63.9619H61.9619C61.9619 50.8969 62.3426 50.2378 62.9603 49.8812L63.9603 51.6133ZM40.9814 64.8784H38.9814C38.9814 66.4187 40.6488 67.3813 41.9827 66.6112L40.9827 64.8792L39.9827 63.1471C41.3155 62.3776 42.9814 63.3395 42.9814 64.8784H40.9814ZM5.24609 65.4185H3.24609C3.24609 63.8789 4.91366 62.9174 6.24605 63.6888L5.24398 65.4197L4.24191 67.1505C5.57618 67.923 7.24609 66.9602 7.24609 65.4185H5.24609ZM28.2256 64.8774H30.2256C30.2256 66.408 28.5764 67.3711 27.2434 66.6191L28.226 64.8772L29.2087 63.1352C27.8752 62.383 26.2256 63.3465 26.2256 64.8774H28.2256ZM2.59036 47.9551V49.9551C1.53124 49.9551 0.660843 49.1193 0.617889 48.061L2.61624 47.9799L4.6146 47.8988C4.57052 46.8128 3.67727 45.9551 2.59036 45.9551V47.9551ZM40.9802 64.8777L41.9823 66.6085C40.6495 67.3801 38.9814 66.4184 38.9814 64.8784H40.9814H42.9814C42.9814 63.3371 41.312 62.3746 39.9781 63.1468L40.9802 64.8777ZM66.6187 47.9551V49.9551C65.5278 49.9551 64.6436 49.0708 64.6436 47.98H66.6436H68.6436C68.6436 46.8617 67.737 45.9551 66.6187 45.9551V47.9551ZM5.24821 65.4172L6.24817 63.6852C4.91194 62.9137 3.24609 63.8801 3.24609 65.4185H5.24609H7.24609C7.24609 66.9547 5.58259 67.9197 4.24824 67.1493L5.24821 65.4172ZM28.2252 64.8777L27.2252 66.6098C28.5671 67.3845 30.2256 66.4075 30.2256 64.8774H28.2256H26.2256C26.2256 63.3478 27.8836 62.3711 29.2251 63.1456L28.2252 64.8777ZM66.5937 47.98L68.5936 47.9965C68.5848 49.0646 67.7192 49.9551 66.6187 49.9551V47.9551V45.9551C65.4906 45.9551 64.6027 46.868 64.5937 47.9636L66.5937 47.98ZM28.2256 78.6856H30.2256C30.2256 77.9692 29.8434 77.3072 29.223 76.9491L28.223 78.6811L27.223 80.4132C26.6058 80.0569 26.2256 79.3983 26.2256 78.6856H28.2256ZM5.24609 51.6099H3.24609C3.24609 52.3253 3.62778 52.9864 4.24738 53.3441L5.24734 51.612L6.24731 49.88C6.86536 50.2368 7.24609 50.8962 7.24609 51.6099H5.24609ZM28.228 78.69L29.2762 76.9867C29.8662 77.3497 30.2256 77.9929 30.2256 78.6856H28.2256H26.2256C26.2256 79.3819 26.5868 80.0284 27.1798 80.3933L28.228 78.69ZM5.24478 51.6077L4.29658 53.3686C3.64957 53.0202 3.24609 52.3447 3.24609 51.6099H5.24609H7.24609C7.24609 50.8732 6.84161 50.196 6.19298 49.8468L5.24478 51.6077Z" fill="#292D3A" mask="url(#path-21-outside-3_177_1612)"/>
<rect width="26.5921" height="13.7546" transform="matrix(0.866025 0.5 0 1 5.15784 51.6602)" fill="#01A982"/>
<rect width="26.5921" height="13.7546" transform="matrix(0.866025 -0.5 0 1 40.8953 64.957)" fill="#00E0AF"/>
<path d="M2.5271 47.9922C2.5271 49.4246 3.53272 50.7214 5.15858 51.6601V65.4146C3.53272 64.4759 2.5271 63.1791 2.5271 61.7467V47.9922Z" fill="#01A982"/>
<path d="M28.1882 64.957C31.6969 66.9827 37.3855 66.9827 40.8941 64.957V78.7116C37.3855 80.7373 31.6969 80.7373 28.1882 78.7116V64.957Z" fill="#00E0AF"/>
<path d="M66.5553 47.9922C66.5553 49.4246 65.5497 50.7214 63.9238 51.6601V65.4146C65.5497 64.4759 66.5553 63.1791 66.5553 61.7467V47.9922Z" fill="#00E0AF"/>
<path d="M34.5409 28.5098C36.9692 28.5098 39.4523 29.0418 41.3944 30.1631L64.4237 43.459C66.3602 44.577 67.5546 46.1825 67.5546 47.9932C67.5545 49.8038 66.3601 51.4093 64.4237 52.5273L41.3944 65.8232C39.4523 66.9445 36.9692 67.4766 34.5409 67.4766C32.1127 67.4765 29.6304 66.9444 27.6884 65.8232L4.65906 52.5273C2.72262 51.4093 1.52729 49.8038 1.52722 47.9932C1.52722 46.1825 2.72256 44.577 4.65906 43.459L27.6884 30.1631C29.6304 29.0419 32.1127 28.5098 34.5409 28.5098Z" fill="url(#paint6_linear_177_1612)" stroke="#292D3A" stroke-width="2"/>
<mask id="path-29-outside-4_177_1612" maskUnits="userSpaceOnUse" x="43.324" y="73.1504" width="69" height="37" fill="black">
<rect fill="white" x="43.324" y="73.1504" width="69" height="37"/>
<path d="M45.3855 75.415C45.501 76.7299 46.4723 77.9189 47.9929 78.7969L48.0043 78.803C48.0051 78.8034 48.0056 78.8043 48.0056 78.8052C48.0056 78.8061 48.0061 78.8069 48.0069 78.8074L70.9837 92.073C70.9839 92.0731 70.9841 92.073 70.9841 92.0728C70.9841 92.0725 70.9844 92.0724 70.9846 92.0725L71.0222 92.0938C72.7716 93.1037 75.0663 93.6092 77.3621 93.6094C79.6579 93.6094 81.9533 93.1037 83.7029 92.0938L83.7383 92.0732C83.7391 92.0728 83.74 92.0734 83.74 92.0742C83.74 92.0751 83.7409 92.0756 83.7417 92.0752L106.72 78.8086C106.721 78.808 106.721 78.8069 106.721 78.8057C106.721 78.8045 106.722 78.8033 106.723 78.8028L106.734 78.7969C108.347 77.8659 109.342 76.5852 109.353 75.1753C109.353 75.1616 109.364 75.1504 109.378 75.1504C109.392 75.1504 109.403 75.1615 109.403 75.1753V88.9053C109.403 90.3502 108.389 91.6539 106.76 92.5947L106.723 92.6153C106.722 92.6157 106.721 92.6151 106.721 92.6143C106.721 92.6134 106.72 92.6129 106.72 92.6133L83.7413 105.88C83.7405 105.881 83.74 105.881 83.74 105.882C83.74 105.883 83.7396 105.884 83.7388 105.885L83.7283 105.892C81.9693 106.907 79.6644 107.414 77.3621 107.414C75.0598 107.414 72.7556 106.907 70.9968 105.892L70.9866 105.885C70.9851 105.884 70.9841 105.883 70.9841 105.881C70.9841 105.879 70.9831 105.877 70.9816 105.876L48.0077 92.6125C48.0068 92.612 48.0056 92.6127 48.0056 92.6138C48.0056 92.6149 48.0044 92.6155 48.0035 92.615L47.9685 92.5947C46.339 91.6539 45.3241 90.3503 45.324 88.9053V75.1763C45.324 75.162 45.3356 75.1504 45.3499 75.1504C45.3638 75.1504 45.3752 75.1614 45.3758 75.1752L45.3855 75.415Z"/>
</mask>
<path d="M45.3855 75.415C45.501 76.7299 46.4723 77.9189 47.9929 78.7969L48.0043 78.803C48.0051 78.8034 48.0056 78.8043 48.0056 78.8052C48.0056 78.8061 48.0061 78.8069 48.0069 78.8074L70.9837 92.073C70.9839 92.0731 70.9841 92.073 70.9841 92.0728C70.9841 92.0725 70.9844 92.0724 70.9846 92.0725L71.0222 92.0938C72.7716 93.1037 75.0663 93.6092 77.3621 93.6094C79.6579 93.6094 81.9533 93.1037 83.7029 92.0938L83.7383 92.0732C83.7391 92.0728 83.74 92.0734 83.74 92.0742C83.74 92.0751 83.7409 92.0756 83.7417 92.0752L106.72 78.8086C106.721 78.808 106.721 78.8069 106.721 78.8057C106.721 78.8045 106.722 78.8033 106.723 78.8028L106.734 78.7969C108.347 77.8659 109.342 76.5852 109.353 75.1753C109.353 75.1616 109.364 75.1504 109.378 75.1504C109.392 75.1504 109.403 75.1615 109.403 75.1753V88.9053C109.403 90.3502 108.389 91.6539 106.76 92.5947L106.723 92.6153C106.722 92.6157 106.721 92.6151 106.721 92.6143C106.721 92.6134 106.72 92.6129 106.72 92.6133L83.7413 105.88C83.7405 105.881 83.74 105.881 83.74 105.882C83.74 105.883 83.7396 105.884 83.7388 105.885L83.7283 105.892C81.9693 106.907 79.6644 107.414 77.3621 107.414C75.0598 107.414 72.7556 106.907 70.9968 105.892L70.9866 105.885C70.9851 105.884 70.9841 105.883 70.9841 105.881C70.9841 105.879 70.9831 105.877 70.9816 105.876L48.0077 92.6125C48.0068 92.612 48.0056 92.6127 48.0056 92.6138C48.0056 92.6149 48.0044 92.6155 48.0035 92.615L47.9685 92.5947C46.339 91.6539 45.3241 90.3503 45.324 88.9053V75.1763C45.324 75.162 45.3356 75.1504 45.3499 75.1504C45.3638 75.1504 45.3752 75.1614 45.3758 75.1752L45.3855 75.415Z" fill="#00E0AF"/>
<path d="M45.3855 75.415L43.3871 75.4962L43.3891 75.5431L43.3932 75.59L45.3855 75.415ZM47.9929 78.7969L46.9929 80.5289L47.0186 80.5437L47.0447 80.5578L47.9929 78.7969ZM71.0222 92.0938L72.0222 90.3617L72.0135 90.3567L72.0049 90.3518L71.0222 92.0938ZM77.3621 93.6094L77.3619 95.6094H77.3621V93.6094ZM83.7029 92.0938L84.7027 93.8259L84.705 93.8246L83.7029 92.0938ZM106.734 78.7969L107.682 80.5578L107.708 80.5438L107.734 80.5289L106.734 78.7969ZM109.403 88.9053L111.403 88.9055V88.9053H109.403ZM106.76 92.5947L107.742 94.3367L107.751 94.3318L107.76 94.3268L106.76 92.5947ZM83.7283 105.892L84.7282 107.624L84.784 107.591L84.8377 107.556L83.7283 105.892ZM77.3621 107.414L77.3619 109.414H77.3621V107.414ZM70.9968 105.892L69.9486 107.595L69.9725 107.61L69.9968 107.624L70.9968 105.892ZM47.9685 92.5947L48.9706 90.8639L48.9685 90.8627L47.9685 92.5947ZM45.324 88.9053H43.324V88.9055L45.324 88.9053ZM83.7388 105.885L84.8482 107.549L83.7388 105.885ZM83.7413 105.88L84.7413 107.612L83.7413 105.88ZM106.72 92.6133L107.72 94.3453L106.72 92.6133ZM106.723 92.6153L107.706 94.3572L106.723 92.6153ZM106.723 78.8028L107.671 80.5637L106.723 78.8028ZM106.72 78.8086L107.72 80.5406L106.72 78.8086ZM83.7417 92.0752L82.7417 90.3432L83.7417 92.0752ZM48.0035 92.615L47.0014 94.3458L48.0035 92.615ZM70.9846 92.0725L70.0019 93.8145L70.9846 92.0725ZM45.3758 75.1752L43.3774 75.2564L45.3758 75.1752ZM83.7383 92.0732L84.7404 93.8041L83.7383 92.0732ZM48.0077 92.6125L47.0077 94.3446L48.0077 92.6125ZM70.9837 92.073L71.9837 90.3409L70.9837 92.073ZM109.353 75.1753L107.353 75.1589L109.353 75.1753ZM70.9816 105.876L69.9816 107.608L70.9816 105.876ZM48.0069 78.8074L49.0069 77.0753L48.0069 78.8074ZM70.9866 105.885L72.0348 104.182L70.9866 105.885ZM48.0043 78.803L48.9525 77.0421L48.0043 78.803ZM45.3855 75.415L43.3932 75.59C43.5887 77.8174 45.1827 79.4837 46.9929 80.5289L47.9929 78.7969L48.993 77.0649C47.762 76.3541 47.4132 75.6425 47.3778 75.2401L45.3855 75.415ZM47.9929 78.7969L47.0447 80.5578L47.0561 80.5639L48.0043 78.803L48.9525 77.0421L48.9411 77.0359L47.9929 78.7969ZM48.0069 78.8074L47.0069 80.5394L69.9837 93.805L70.9837 92.073L71.9837 90.3409L49.0069 77.0753L48.0069 78.8074ZM70.9846 92.0725L70.0019 93.8145L70.0396 93.8357L71.0222 92.0938L72.0049 90.3518L71.9672 90.3305L70.9846 92.0725ZM71.0222 92.0938L70.0223 93.8258C72.1473 95.0526 74.8084 95.6092 77.3619 95.6094L77.3621 93.6094L77.3622 91.6094C75.3243 91.6093 73.3959 91.1547 72.0222 90.3617L71.0222 92.0938ZM77.3621 93.6094V95.6094C79.9158 95.6094 82.5776 95.0526 84.7027 93.8259L83.7029 92.0938L82.703 90.3616C81.3291 91.1547 79.4 91.6094 77.3621 91.6094V93.6094ZM83.7029 92.0938L84.705 93.8246L84.7404 93.8041L83.7383 92.0732L82.7362 90.3424L82.7008 90.3629L83.7029 92.0938ZM83.7417 92.0752L84.7417 93.8072L107.72 80.5406L106.72 78.8086L105.72 77.0765L82.7417 90.3432L83.7417 92.0752ZM106.723 78.8028L107.671 80.5637L107.682 80.5578L106.734 78.7969L105.786 77.0359L105.775 77.0418L106.723 78.8028ZM106.734 78.7969L107.734 80.5289C109.648 79.424 111.333 77.609 111.353 75.1918L109.353 75.1753L107.353 75.1589C107.35 75.5614 107.045 76.3078 105.734 77.0648L106.734 78.7969ZM109.403 75.1753H107.403V88.9053H109.403H111.403V75.1753H109.403ZM109.403 88.9053L107.403 88.9051C107.403 89.3334 107.086 90.0966 105.76 90.8627L106.76 92.5947L107.76 94.3268C109.692 93.2112 111.403 91.3671 111.403 88.9055L109.403 88.9053ZM106.76 92.5947L105.777 90.8528L105.74 90.8733L106.723 92.6153L107.706 94.3572L107.742 94.3367L106.76 92.5947ZM106.72 92.6133L105.72 90.8812L82.7413 104.148L83.7413 105.88L84.7413 107.612L107.72 94.3453L106.72 92.6133ZM83.7388 105.885L82.6294 104.22L82.6189 104.228L83.7283 105.892L84.8377 107.556L84.8482 107.549L83.7388 105.885ZM83.7283 105.892L82.7284 104.159C81.3451 104.958 79.4065 105.414 77.3621 105.414V107.414V109.414C79.9223 109.414 82.5936 108.856 84.7282 107.624L83.7283 105.892ZM77.3621 107.414L77.3622 105.414C75.3177 105.414 73.3799 104.958 71.9968 104.16L70.9968 105.892L69.9968 107.624C72.1313 108.856 74.8019 109.414 77.3619 109.414L77.3621 107.414ZM70.9968 105.892L72.045 104.188L72.0348 104.182L70.9866 105.885L69.9384 107.589L69.9486 107.595L70.9968 105.892ZM70.9816 105.876L71.9816 104.144L49.0077 90.8805L48.0077 92.6125L47.0077 94.3446L69.9816 107.608L70.9816 105.876ZM48.0035 92.615L49.0056 90.8841L48.9706 90.8639L47.9685 92.5947L46.9664 94.3256L47.0014 94.3458L48.0035 92.615ZM47.9685 92.5947L48.9685 90.8627C47.6408 90.0961 47.324 89.3328 47.324 88.9051L45.324 88.9053L43.324 88.9055C43.3242 91.3677 45.0371 93.2117 46.9685 94.3268L47.9685 92.5947ZM45.324 88.9053H47.324V75.1763H45.324H43.324V88.9053H45.324ZM45.3758 75.1752L43.3774 75.2564L43.3871 75.4962L45.3855 75.415L47.3839 75.3339L47.3741 75.0941L45.3758 75.1752ZM45.324 75.1763H47.324C47.324 76.2666 46.4401 77.1504 45.3499 77.1504V75.1504V73.1504C44.231 73.1504 43.324 74.0574 43.324 75.1763H45.324ZM83.74 105.882H81.74C81.74 105.215 82.0738 104.591 82.6294 104.22L83.7388 105.885L84.8482 107.549C85.4053 107.177 85.74 106.552 85.74 105.882H83.74ZM83.7413 105.88L82.7413 104.148C82.1214 104.506 81.74 105.167 81.74 105.882H83.74H85.74C85.74 106.596 85.3595 107.255 84.7413 107.612L83.7413 105.88ZM106.721 92.6143H108.721C108.721 91.0738 107.054 90.111 105.72 90.8812L106.72 92.6133L107.72 94.3453C106.387 95.1147 104.721 94.153 104.721 92.6143H106.721ZM106.723 92.6153L105.74 90.8733C107.073 90.1216 108.721 91.0844 108.721 92.6143H106.721H104.721C104.721 94.1459 106.372 95.1097 107.706 94.3572L106.723 92.6153ZM106.721 78.8057H108.721C108.721 79.5402 108.318 80.2155 107.671 80.5637L106.723 78.8028L105.775 77.0418C105.126 77.3912 104.721 78.0687 104.721 78.8057H106.721ZM106.72 78.8086L107.72 80.5406C108.339 80.1828 108.721 79.5216 108.721 78.8057H106.721H104.721C104.721 78.0922 105.102 77.4331 105.72 77.0765L106.72 78.8086ZM83.74 92.0742H81.74C81.74 93.6147 83.4076 94.5775 84.7417 93.8072L83.7417 92.0752L82.7417 90.3432C84.0742 89.5738 85.74 90.5355 85.74 92.0742H83.74ZM48.0056 92.6138H46.0056C46.0056 91.0742 47.6732 90.1127 49.0056 90.8841L48.0035 92.615L47.0014 94.3458C48.3357 95.1183 50.0056 94.1555 50.0056 92.6138H48.0056ZM70.9841 92.0728H72.9841C72.9841 93.6033 71.335 94.5664 70.0019 93.8145L70.9846 92.0725L71.9672 90.3305C70.6338 89.5784 68.9841 90.5418 68.9841 92.0728H70.9841ZM45.3499 75.1504V77.1504C44.2908 77.1504 43.4204 76.3146 43.3774 75.2564L45.3758 75.1752L47.3741 75.0941C47.33 74.0081 46.4368 73.1504 45.3499 73.1504V75.1504ZM83.7383 92.0732L84.7404 93.8041C83.4078 94.5756 81.74 93.614 81.74 92.0742H83.74H85.74C85.74 90.5327 84.0703 89.57 82.7362 90.3424L83.7383 92.0732ZM109.378 75.1504V77.1504C108.287 77.1504 107.403 76.2661 107.403 75.1753H109.403H111.403C111.403 74.057 110.496 73.1504 109.378 73.1504V75.1504ZM48.0077 92.6125L49.0077 90.8805C47.6746 90.1108 46.0056 91.0717 46.0056 92.6138H48.0056H50.0056C50.0056 94.1536 48.339 95.1132 47.0077 94.3446L48.0077 92.6125ZM70.9837 92.073L69.9837 93.805C71.3259 94.5799 72.9841 93.6026 72.9841 92.0728H70.9841H68.9841C68.9841 90.5433 70.6419 89.5663 71.9837 90.3409L70.9837 92.073ZM109.353 75.1753L111.353 75.1918C111.344 76.2599 110.479 77.1504 109.378 77.1504V75.1504V73.1504C108.25 73.1504 107.362 74.0633 107.353 75.1589L109.353 75.1753ZM70.9841 105.881H72.9841C72.9841 105.165 72.6019 104.503 71.9816 104.144L70.9816 105.876L69.9816 107.608C69.3643 107.252 68.9841 106.594 68.9841 105.881H70.9841ZM48.0056 78.8052H46.0056C46.0056 79.5206 46.3873 80.1817 47.0069 80.5394L48.0069 78.8074L49.0069 77.0753C49.6249 77.4321 50.0056 78.0916 50.0056 78.8052H48.0056ZM70.9866 105.885L72.0348 104.182C72.6248 104.545 72.9841 105.188 72.9841 105.881H70.9841H68.9841C68.9841 106.577 69.3454 107.224 69.9384 107.589L70.9866 105.885ZM48.0043 78.803L47.0561 80.5639C46.4091 80.2156 46.0056 79.54 46.0056 78.8052H48.0056H50.0056C50.0056 78.0685 49.6011 77.3913 48.9525 77.0421L48.0043 78.803Z" fill="#292D3A" mask="url(#path-29-outside-4_177_1612)"/>
<rect width="26.5921" height="13.7546" transform="matrix(0.866025 0.5 0 1 47.9171 78.8535)" fill="#01A982"/>
<rect width="26.5921" height="13.7546" transform="matrix(0.866025 -0.5 0 1 83.6544 92.1504)" fill="#00E0AF"/>
<path d="M45.2864 75.1855C45.2864 76.6179 46.292 77.9147 47.9179 78.8534V92.608C46.292 91.6693 45.2864 90.3725 45.2864 88.9401V75.1855Z" fill="#01A982"/>
<path d="M70.9473 92.1504C74.4559 94.1761 80.1445 94.1761 83.6532 92.1504V105.905C80.1445 107.931 74.4559 107.931 70.9473 105.905V92.1504Z" fill="#00E0AF"/>
<path d="M109.316 75.1855C109.316 76.6179 108.31 77.9147 106.685 78.8534V92.608C108.31 91.6693 109.316 90.3725 109.316 88.9401V75.1855Z" fill="#00E0AF"/>
<path d="M77.2999 55.7031C79.7283 55.7031 82.2113 56.2352 84.1534 57.3564L107.183 70.6523C109.119 71.7704 110.314 73.3758 110.314 75.1865C110.314 76.9972 109.119 78.6027 107.183 79.7207L84.1534 93.0166C82.2113 94.1379 79.7283 94.6699 77.2999 94.6699C74.8718 94.6699 72.3894 94.1377 70.4474 93.0166L47.4181 79.7207C45.4816 78.6027 44.2863 76.9972 44.2863 75.1865C44.2863 73.3758 45.4816 71.7704 47.4181 70.6523L70.4474 57.3564C72.3894 56.2352 74.8717 55.7032 77.2999 55.7031Z" fill="url(#paint7_linear_177_1612)" stroke="#292D3A" stroke-width="2"/>
<path d="M73.7187 3.67749C77.2273 1.65177 82.916 1.65177 86.4246 3.67749L109.454 16.9736C112.963 18.9993 112.963 22.2836 109.454 24.3093L86.4246 37.6054C82.916 39.6311 77.2273 39.6311 73.7187 37.6054L50.6892 24.3093C47.1806 22.2836 47.1806 18.9993 50.6892 16.9736L73.7187 3.67749Z" fill="url(#paint8_linear_177_1612)"/>
<path d="M117.149 29.6674C120.658 27.6417 126.347 27.6417 129.855 29.6674L152.885 42.9635C156.393 44.9892 156.393 48.2735 152.885 50.2992L129.855 63.5953C126.347 65.621 120.658 65.621 117.149 63.5953L94.1199 50.2992C90.6113 48.2735 90.6113 44.9892 94.1199 42.9635L117.149 29.6674Z" fill="url(#paint9_linear_177_1612)"/>
<path d="M28.2588 31.1866C31.7675 29.1609 37.4561 29.1609 40.9647 31.1866L63.9942 44.4827C67.5028 46.5084 67.5028 49.7927 63.9942 51.8184L40.9647 65.1145C37.4561 67.1402 31.7675 67.1402 28.2588 65.1145L5.22938 51.8184C1.72074 49.7927 1.72074 46.5084 5.22938 44.4827L28.2588 31.1866Z" fill="url(#paint10_linear_177_1612)"/>
<path d="M71.0179 58.3809C74.5266 56.3552 80.2152 56.3552 83.7238 58.3809L106.753 71.677C110.262 73.7027 110.262 76.9871 106.753 79.0128L83.7238 92.3088C80.2152 94.3345 74.5266 94.3345 71.0179 92.3088L47.9885 79.0128C44.4798 76.9871 44.4798 73.7027 47.9885 71.677L71.0179 58.3809Z" fill="url(#paint11_linear_177_1612)"/>
<defs>
<linearGradient id="paint0_linear_177_1612" x1="38.4678" y1="151.708" x2="91.7231" y2="74.4433" gradientUnits="userSpaceOnUse">
<stop stop-color="white" stop-opacity="0.12"/>
<stop offset="1" stop-color="white" stop-opacity="0"/>
</linearGradient>
<linearGradient id="paint1_linear_177_1612" x1="38.4678" y1="136.077" x2="91.7231" y2="58.8124" gradientUnits="userSpaceOnUse">
<stop stop-color="white" stop-opacity="0.12"/>
<stop offset="1" stop-color="white" stop-opacity="0"/>
</linearGradient>
<linearGradient id="paint2_linear_177_1612" x1="38.4678" y1="119.641" x2="91.7231" y2="42.3769" gradientUnits="userSpaceOnUse">
<stop stop-color="white" stop-opacity="0.12"/>
<stop offset="1" stop-color="white" stop-opacity="0"/>
</linearGradient>
<linearGradient id="paint3_linear_177_1612" x1="38.4678" y1="103.206" x2="91.7231" y2="25.9413" gradientUnits="userSpaceOnUse">
<stop stop-color="white" stop-opacity="0.12"/>
<stop offset="1" stop-color="white" stop-opacity="0"/>
</linearGradient>
<linearGradient id="paint4_linear_177_1612" x1="67.1133" y1="34.8774" x2="70.8349" y2="0.833287" gradientUnits="userSpaceOnUse">
<stop stop-color="#7764FC"/>
<stop offset="0.075" stop-color="#708DFA"/>
<stop offset="0.157" stop-color="#6AB2F8"/>
<stop offset="0.233" stop-color="#65CEF7"/>
<stop offset="0.299" stop-color="#62DFF6"/>
<stop offset="0.35" stop-color="#62E5F6"/>
<stop offset="0.61" stop-color="#3FDBD1"/>
<stop offset="1" stop-color="#05CC93"/>
</linearGradient>
<linearGradient id="paint5_linear_177_1612" x1="110.544" y1="60.8676" x2="114.266" y2="26.8235" gradientUnits="userSpaceOnUse">
<stop stop-color="#7764FC"/>
<stop offset="0.075" stop-color="#708DFA"/>
<stop offset="0.157" stop-color="#6AB2F8"/>
<stop offset="0.233" stop-color="#65CEF7"/>
<stop offset="0.299" stop-color="#62DFF6"/>
<stop offset="0.35" stop-color="#62E5F6"/>
<stop offset="0.61" stop-color="#3FDBD1"/>
<stop offset="1" stop-color="#05CC93"/>
</linearGradient>
<linearGradient id="paint6_linear_177_1612" x1="21.6542" y1="62.3872" x2="25.3758" y2="28.3431" gradientUnits="userSpaceOnUse">
<stop stop-color="#7764FC"/>
<stop offset="0.075" stop-color="#708DFA"/>
<stop offset="0.157" stop-color="#6AB2F8"/>
<stop offset="0.233" stop-color="#65CEF7"/>
<stop offset="0.299" stop-color="#62DFF6"/>
<stop offset="0.35" stop-color="#62E5F6"/>
<stop offset="0.61" stop-color="#3FDBD1"/>
<stop offset="1" stop-color="#05CC93"/>
</linearGradient>
<linearGradient id="paint7_linear_177_1612" x1="64.4132" y1="89.5805" x2="68.1349" y2="55.5364" gradientUnits="userSpaceOnUse">
<stop stop-color="#7764FC"/>
<stop offset="0.075" stop-color="#708DFA"/>
<stop offset="0.157" stop-color="#6AB2F8"/>
<stop offset="0.233" stop-color="#65CEF7"/>
<stop offset="0.299" stop-color="#62DFF6"/>
<stop offset="0.35" stop-color="#62E5F6"/>
<stop offset="0.61" stop-color="#3FDBD1"/>
<stop offset="1" stop-color="#05CC93"/>
</linearGradient>
<linearGradient id="paint8_linear_177_1612" x1="42.9653" y1="86.4064" x2="81.1172" y2="-12.3417" gradientUnits="userSpaceOnUse">
<stop stop-color="#7764FC"/>
<stop offset="0.075" stop-color="#708DFA"/>
<stop offset="0.20151" stop-color="#6AB2F8"/>
<stop offset="0.284083" stop-color="#65CEF7"/>
<stop offset="0.3444" stop-color="#62DFF6"/>
<stop offset="0.397954" stop-color="#62E5F6"/>
<stop offset="0.61" stop-color="#3FDBD1"/>
<stop offset="1" stop-color="#05CC93"/>
</linearGradient>
<linearGradient id="paint9_linear_177_1612" x1="42.9653" y1="86.4064" x2="81.1172" y2="-12.3417" gradientUnits="userSpaceOnUse">
<stop stop-color="#7764FC"/>
<stop offset="0.075" stop-color="#708DFA"/>
<stop offset="0.20151" stop-color="#6AB2F8"/>
<stop offset="0.284083" stop-color="#65CEF7"/>
<stop offset="0.3444" stop-color="#62DFF6"/>
<stop offset="0.397954" stop-color="#62E5F6"/>
<stop offset="0.61" stop-color="#3FDBD1"/>
<stop offset="1" stop-color="#05CC93"/>
</linearGradient>
<linearGradient id="paint10_linear_177_1612" x1="42.9653" y1="86.4064" x2="81.1172" y2="-12.3417" gradientUnits="userSpaceOnUse">
<stop stop-color="#7764FC"/>
<stop offset="0.075" stop-color="#708DFA"/>
<stop offset="0.20151" stop-color="#6AB2F8"/>
<stop offset="0.284083" stop-color="#65CEF7"/>
<stop offset="0.3444" stop-color="#62DFF6"/>
<stop offset="0.397954" stop-color="#62E5F6"/>
<stop offset="0.61" stop-color="#3FDBD1"/>
<stop offset="1" stop-color="#05CC93"/>
</linearGradient>
<linearGradient id="paint11_linear_177_1612" x1="42.9653" y1="86.4064" x2="81.1172" y2="-12.3417" gradientUnits="userSpaceOnUse">
<stop stop-color="#7764FC"/>
<stop offset="0.075" stop-color="#708DFA"/>
<stop offset="0.20151" stop-color="#6AB2F8"/>
<stop offset="0.284083" stop-color="#65CEF7"/>
<stop offset="0.3444" stop-color="#62DFF6"/>
<stop offset="0.397954" stop-color="#62E5F6"/>
<stop offset="0.61" stop-color="#3FDBD1"/>
<stop offset="1" stop-color="#05CC93"/>
</linearGradient>
</defs>
</svg>
