<svg width="128" height="166" viewBox="0 0 128 166" fill="none" xmlns="http://www.w3.org/2000/svg">
<g clip-path="url(#clip0_177_1564)">
<path d="M45.6307 26.5098C45.7971 26.4412 45.9881 26.4526 46.1464 26.5439L80.1454 46.166C80.3263 46.2704 80.4383 46.463 80.4384 46.6719C80.4384 46.8808 80.3263 47.0743 80.1454 47.1787L46.1464 66.7998C45.9655 66.9042 45.7422 66.9041 45.5614 66.7998L11.577 47.1787C11.3961 47.0743 11.2841 46.8808 11.2841 46.6719C11.2841 46.463 11.3962 46.2704 11.577 46.166L45.5614 26.5439L45.6307 26.5098Z" fill="url(#paint0_linear_177_1564)" stroke="#292D3A" stroke-width="1.16938" stroke-linejoin="round"/>
<path d="M79.5616 46.1631C79.7425 46.059 79.9649 46.0597 80.1456 46.1641C80.3265 46.2685 80.4386 46.4611 80.4386 46.6699V91.6982C80.4386 96.4053 77.9206 100.781 73.8429 103.136V103.137L46.1456 119.12C45.9649 119.224 45.7424 119.224 45.5616 119.12C45.3808 119.016 45.2687 118.822 45.2687 118.613V66.291C45.2687 66.0821 45.3807 65.8886 45.5616 65.7842L79.5616 46.1631Z" fill="#00E0AF" stroke="#292D3A" stroke-width="1.16938" stroke-linejoin="round"/>
<path d="M46.439 118.614C46.4389 118.823 46.3268 119.016 46.146 119.12C45.9652 119.224 45.7428 119.224 45.562 119.12L17.8335 103.118H17.8325C13.7541 100.763 11.2691 96.4196 11.269 91.7139L11.2847 46.6699C11.2847 46.4611 11.3958 46.2675 11.5767 46.1631C11.7575 46.0587 11.9808 46.0587 12.1616 46.1631L46.146 65.7842C46.3269 65.8886 46.439 66.0821 46.439 66.291V118.614Z" fill="#01A982" stroke="#292D3A" stroke-width="1.16938" stroke-linejoin="round"/>
<path d="M90.9642 59.2109C91.1304 59.1426 91.3208 59.154 91.4789 59.2451L125.479 78.8662C125.66 78.9706 125.771 79.1641 125.771 79.373C125.771 79.582 125.66 79.7755 125.479 79.8799L91.4789 99.5C91.2981 99.6043 91.0757 99.6043 90.8949 99.5L56.8949 79.8799C56.714 79.7755 56.6019 79.582 56.6019 79.373C56.6019 79.1641 56.7139 78.9706 56.8949 78.8662L90.8949 59.2451L90.9642 59.2109Z" fill="url(#paint1_linear_177_1564)" stroke="#292D3A" stroke-width="1.16938" stroke-linejoin="round"/>
<path d="M124.895 78.8662C125.076 78.7621 125.298 78.7628 125.479 78.8672C125.66 78.9716 125.772 79.1642 125.772 79.373V111.268C125.772 115.976 123.259 120.327 119.181 122.681L91.479 138.667C91.2983 138.771 91.0757 138.771 90.895 138.667C90.7141 138.563 90.6021 138.369 90.6021 138.16V98.9941C90.6021 98.7852 90.7141 98.5917 90.895 98.4873L124.895 78.8662Z" fill="#00E0AF" stroke="#292D3A" stroke-width="1.16938" stroke-linejoin="round"/>
<path d="M91.7719 138.16C91.7719 138.369 91.6598 138.563 91.4789 138.667C91.2982 138.771 91.0756 138.771 90.8949 138.667L63.1927 122.681C59.1145 120.327 56.602 115.976 56.6019 111.268V79.373C56.6019 79.1642 56.714 78.9716 56.8949 78.8672C57.0756 78.7629 57.2981 78.762 57.4789 78.8662L91.4789 98.4873C91.6598 98.5917 91.7719 98.7852 91.7719 98.9941V138.16Z" fill="#01A982" stroke="#292D3A" stroke-width="1.16938" stroke-linejoin="round"/>
<path d="M56.9646 98.4531C57.1307 98.3848 57.3211 98.3962 57.4792 98.4873L91.4792 118.108C91.6602 118.213 91.7712 118.406 91.7712 118.615C91.7712 118.824 91.6602 119.018 91.4792 119.122L57.4792 138.742C57.2984 138.847 57.0761 138.846 56.8953 138.742L22.8953 119.122C22.7143 119.018 22.6023 118.824 22.6023 118.615C22.6023 118.406 22.7143 118.213 22.8953 118.108L56.8953 98.4873L56.9646 98.4531Z" fill="url(#paint2_linear_177_1564)" stroke="#292D3A" stroke-width="1.16938" stroke-linejoin="round"/>
<path d="M91.1869 118.03C91.5097 118.03 91.7719 118.292 91.7719 118.615V137.505C91.7718 142.213 89.2592 146.564 85.181 148.918L57.4789 164.904C57.2981 165.009 57.0756 165.009 56.8949 164.904C56.714 164.8 56.6019 164.606 56.6019 164.397V138.236C56.602 138.027 56.714 137.835 56.8949 137.73L90.8949 118.109V118.111C90.9811 118.061 91.0801 118.03 91.1869 118.03Z" fill="#00E0AF" stroke="#292D3A" stroke-width="1.16938" stroke-linejoin="round"/>
<path d="M57.7722 164.397C57.7722 164.606 57.6601 164.8 57.4792 164.904C57.2985 165.009 57.076 165.008 56.8953 164.904L29.1931 148.918C25.1149 146.564 22.6023 142.213 22.6023 137.505V118.615C22.6023 118.406 22.7144 118.214 22.8953 118.109C23.076 118.005 23.2984 118.004 23.4792 118.108L57.4792 137.729C57.6602 137.834 57.7722 138.027 57.7722 138.236V164.397Z" fill="#01A982" stroke="#292D3A" stroke-width="1.16938" stroke-linejoin="round"/>
<path d="M46.5361 157.856C46.5361 158.1 46.4062 158.325 46.1953 158.447C45.9843 158.569 45.7238 158.569 45.5127 158.447L34.1797 151.906C33.9686 151.784 33.8379 151.559 33.8379 151.315V125.154C33.8379 124.911 33.9687 124.685 34.1797 124.563C34.3906 124.442 34.6504 124.442 34.8613 124.563L46.1943 131.104C46.4054 131.225 46.536 131.451 46.5361 131.694V157.856Z" fill="#292D3A" stroke="#292D3A" stroke-width="1.36428" stroke-linejoin="round"/>
<path d="M79.6306 65.752C79.7969 65.6834 79.988 65.6948 80.1462 65.7861L102.812 78.8672C102.993 78.9716 103.105 79.1651 103.105 79.374C103.105 79.5828 102.993 79.7755 102.812 79.8799L80.1462 92.9609C79.9654 93.0653 79.7421 93.0653 79.5613 92.9609L68.2283 86.4209C68.0473 86.3165 67.9353 86.123 67.9353 85.9141C67.9353 85.7051 68.0473 85.5117 68.2283 85.4072L78.6833 79.373L68.2283 73.3398C68.0473 73.2354 67.9353 73.0419 67.9353 72.833C67.9354 72.6242 68.0474 72.4315 68.2283 72.3271L79.5613 65.7861L79.6306 65.752Z" fill="url(#paint3_linear_177_1564)" stroke="#292D3A" stroke-width="1.16938" stroke-linejoin="round"/>
<path d="M68.2979 104.994C68.464 104.926 68.6544 104.937 68.8125 105.028L80.1455 111.569C80.3264 111.674 80.4384 111.866 80.4385 112.075C80.4385 112.284 80.3265 112.478 80.1455 112.582L46.1465 132.203C45.9657 132.307 45.7424 132.307 45.5615 132.203L34.2285 125.663C34.0476 125.559 33.9356 125.365 33.9355 125.156C33.9355 124.947 34.0476 124.754 34.2285 124.649L68.2285 105.028L68.2979 104.994Z" fill="url(#paint4_linear_177_1564)" stroke="#292D3A" stroke-width="1.16938" stroke-linejoin="round"/>
<path d="M80.535 112.073C80.535 112.317 80.4051 112.542 80.1942 112.664C79.9832 112.786 79.7227 112.786 79.5116 112.664L68.1786 106.124C67.9675 106.002 67.8368 105.777 67.8368 105.533V85.9121C67.8368 85.6684 67.9676 85.4432 68.1786 85.3213C68.3895 85.1996 68.6493 85.1996 68.8602 85.3213L80.1932 91.8613C80.4044 91.9832 80.535 92.2084 80.535 92.4521V112.073Z" fill="#292D3A" stroke="#292D3A" stroke-width="1.36428" stroke-linejoin="round"/>
<path d="M94.5903 22.3994C94.5996 22.5601 94.5983 22.7211 94.5913 22.8818V34.2598C94.6315 35.0517 94.4751 35.8464 94.1196 36.6162L85.022 56.3154C83.7487 59.0719 80.1482 61.0768 75.7739 61.7568L41.8198 67.0342C37.4167 67.7186 32.6902 66.9976 29.4067 65.0928L4.55029 50.6729C2.1873 49.302 0.738544 47.4059 0.618652 45.333L0.617676 45.3164V33.4736L1.78662 33.4395C1.87563 34.9785 2.96959 36.5774 5.13721 37.835L29.9937 52.2549C33.0025 54.0004 37.4476 54.7044 41.6401 54.0527L75.5952 48.7744C79.8164 48.1181 82.9305 46.2279 83.9604 43.998L93.0581 24.2998C93.2792 23.8211 93.3968 23.3423 93.4224 22.8701V22.4336L94.5903 22.3994Z" fill="#01A982" stroke="#292D3A" stroke-width="1.16938"/>
<path fill-rule="evenodd" clip-rule="evenodd" d="M1.20963 33.5274C1.16902 32.8285 1.30484 32.1208 1.62726 31.4261L10.7246 11.8238C11.8762 9.34257 15.2329 7.40459 19.5304 6.73977L53.4827 1.48733C57.7802 0.822526 62.3656 1.53187 65.5115 3.34817L90.3663 17.6981C92.6313 19.0058 93.9025 20.7444 94.0069 22.5415V34.3101C93.9025 32.5129 92.6313 30.7743 90.3663 29.4666L65.5115 15.1167C62.3656 13.3004 57.7802 12.5911 53.4827 13.2559L19.5304 18.5083C15.2329 19.1731 11.8762 21.1111 10.7246 23.5923L1.62726 43.1946C1.30484 43.8893 1.16902 44.5971 1.20963 45.296V33.5274Z" fill="#01A982"/>
<path d="M53.3931 0.90918C57.7953 0.228151 62.5212 0.946377 65.8042 2.8418L90.6587 17.1914C92.3041 18.1414 93.499 19.3376 94.1196 20.6748C94.7471 22.0268 94.7691 23.4891 94.1196 24.8887L85.022 44.4912C83.7483 47.2357 80.1487 49.2307 75.7759 49.9072L41.8237 55.1592C37.4215 55.8402 32.6956 55.1229 29.4126 53.2275L4.55811 38.877C2.91261 37.9269 1.71778 36.7308 1.09717 35.3936C0.469744 34.0415 0.447611 32.5793 1.09717 31.1797L10.1948 11.5771C11.4688 8.83296 15.0683 6.83859 19.4409 6.16211L53.3931 0.90918Z" fill="#006750"/>
<path d="M53.3931 0.90918C57.7953 0.228151 62.5212 0.946377 65.8042 2.8418L90.6587 17.1914C92.3041 18.1414 93.499 19.3376 94.1196 20.6748C94.7471 22.0268 94.7691 23.4891 94.1196 24.8887L85.022 44.4912C83.7483 47.2357 80.1487 49.2307 75.7759 49.9072L41.8237 55.1592C37.4215 55.8402 32.6956 55.1229 29.4126 53.2275L4.55811 38.877C2.91261 37.9269 1.71778 36.7308 1.09717 35.3936C0.469744 34.0415 0.447611 32.5793 1.09717 31.1797L10.1948 11.5771C11.4688 8.83296 15.0683 6.83859 19.4409 6.16211L53.3931 0.90918Z" fill="#00E0AF"/>
<path d="M53.3931 0.90918C57.7953 0.228151 62.5212 0.946377 65.8042 2.8418L90.6587 17.1914C92.3041 18.1414 93.499 19.3376 94.1196 20.6748C94.7471 22.0268 94.7691 23.4891 94.1196 24.8887L85.022 44.4912C83.7483 47.2357 80.1487 49.2307 75.7759 49.9072L41.8237 55.1592C37.4215 55.8402 32.6956 55.1229 29.4126 53.2275L4.55811 38.877C2.91261 37.9269 1.71778 36.7308 1.09717 35.3936C0.469744 34.0415 0.447611 32.5793 1.09717 31.1797L10.1948 11.5771C11.4688 8.83296 15.0683 6.83859 19.4409 6.16211L53.3931 0.90918Z" stroke="#292D3A" stroke-width="1.16938"/>
<g filter="url(#filter0_i_177_1564)">
<path d="M65.5374 17.1072C75.6222 22.9297 75.6222 32.37 65.5374 38.1926C55.4525 44.0151 39.1017 44.0151 29.0169 38.1926C18.932 32.37 18.932 22.9297 29.0169 17.1072C39.1017 11.2846 55.4525 11.2846 65.5374 17.1072Z" fill="#292D3A"/>
</g>
<path d="M47.2775 12.1553C53.9617 12.1553 60.6781 13.626 65.8302 16.6006C70.9788 19.5732 73.6855 23.5514 73.6857 27.6494C73.6857 31.7476 70.979 35.7264 65.8302 38.6992C60.6781 41.6738 53.9617 43.1445 47.2775 43.1445C40.5932 43.1445 33.8769 41.6738 28.7247 38.6992C23.5758 35.7264 20.8683 31.7476 20.8683 27.6494C20.8685 23.5514 23.576 19.5733 28.7247 16.6006C33.8769 13.626 40.5932 12.1553 47.2775 12.1553Z" stroke="#292D3A" stroke-width="1.16938"/>
<path d="M54.5875 33.5293V26.7754L54.5934 26.6582C54.6452 26.0817 55.0749 25.6438 55.5729 25.3682L62.2604 21.667C62.6427 21.4554 62.6518 21.3014 62.652 21.2969C62.6647 20.9788 62.9294 20.729 63.2477 20.7354C63.5659 20.7419 63.8199 21.002 63.8199 21.3203V28.0977C63.7962 28.6869 63.3785 29.138 62.8268 29.4434L56.1393 33.1455C55.8694 33.2949 55.7893 33.4241 55.7662 33.4883L55.7574 33.5293L55.7457 33.6465C55.6914 33.9131 55.4552 34.1132 55.1725 34.1133C54.8497 34.1133 54.5877 33.8521 54.5875 33.5293Z" fill="#00E0AF" stroke="#292D3A" stroke-width="1.16938" stroke-linejoin="round"/>
<path fill-rule="evenodd" clip-rule="evenodd" d="M62.3766 21.3208C62.404 20.5572 61.2364 19.8312 59.6784 19.991L31.2495 22.9079C30.0849 23.0274 29.4133 23.5751 29.3655 24.1438V30.8975C29.4133 30.3288 30.0849 29.7811 31.2495 29.6616L59.6784 26.7447C61.2364 26.5849 62.404 27.3108 62.3766 28.0745V21.3208Z" fill="#00E0AF"/>
<path d="M58.8247 39.2793L59.4087 39.2881C59.4019 39.7419 59.1616 40.1086 58.8696 40.3691C58.5778 40.6295 58.1966 40.8229 57.7896 40.9521C56.9762 41.2104 55.9382 41.2516 54.98 40.9375L29.6577 32.6357C28.7536 32.3393 28.0452 31.7376 28.0894 30.8984H28.0884V24.2881C28.0864 24.2502 28.0871 24.2118 28.0884 24.1729V24.1445H28.0894C28.0903 24.1275 28.0898 24.11 28.0913 24.0928C28.119 23.7813 28.3864 23.5469 28.6987 23.5605C29.0113 23.5744 29.2583 23.8317 29.2583 24.1445V24.2109C29.2646 24.2801 29.3377 24.5462 30.022 24.7705L55.3442 33.0723C56.0514 33.3041 56.8373 33.2737 57.4351 33.084C57.7335 32.9892 57.9553 32.8645 58.0913 32.7432C58.2264 32.6226 58.2392 32.5432 58.2397 32.5176C58.2446 32.1965 58.5076 31.9391 58.8286 31.9414C59.1498 31.9438 59.4097 32.2052 59.4097 32.5264V39.2881L58.8247 39.2793Z" fill="#01A982" stroke="#292D3A" stroke-width="1.16938" stroke-linejoin="round"/>
<path d="M29.9107 25.5444C26.8058 24.4648 27.6771 21.7398 31.2452 21.3716L59.2879 18.478C63.0007 18.095 65.4217 20.6605 62.8509 22.2539L57.7546 25.4131C57.1489 25.7885 56.9349 26.3216 57.193 26.8125L59.5128 31.2261C60.5573 33.2124 56.8116 34.8974 53.7314 33.8267L29.9107 25.5444Z" fill="url(#paint5_linear_177_1564)" stroke="#292D3A" stroke-width="1.16938"/>
</g>
<defs>
<filter id="filter0_i_177_1564" x="20.2838" y="11.5703" width="53.9866" height="32.1582" filterUnits="userSpaceOnUse" color-interpolation-filters="sRGB">
<feFlood flood-opacity="0" result="BackgroundImageFix"/>
<feBlend mode="normal" in="SourceGraphic" in2="BackgroundImageFix" result="shape"/>
<feColorMatrix in="SourceAlpha" type="matrix" values="0 0 0 0 0 0 0 0 0 0 0 0 0 0 0 0 0 0 127 0" result="hardAlpha"/>
<feOffset dx="0.974486" dy="6.43161"/>
<feComposite in2="hardAlpha" operator="arithmetic" k2="-1" k3="1"/>
<feColorMatrix type="matrix" values="0 0 0 0 0.00392157 0 0 0 0 0.662745 0 0 0 0 0.509804 0 0 0 1 0"/>
<feBlend mode="normal" in2="shape" result="effect1_innerShadow_177_1564"/>
</filter>
<linearGradient id="paint0_linear_177_1564" x1="37.3632" y1="61.391" x2="54.3593" y2="31.9528" gradientUnits="userSpaceOnUse">
<stop stop-color="#B1B9BE"/>
<stop offset="0.052" stop-color="#C0C7CB"/>
<stop offset="0.148" stop-color="#D7DBDE"/>
<stop offset="0.26" stop-color="#E9EBEC"/>
<stop offset="0.394" stop-color="#F5F6F7"/>
<stop offset="0.575" stop-color="#FCFDFD"/>
<stop offset="1" stop-color="white"/>
</linearGradient>
<linearGradient id="paint1_linear_177_1564" x1="82.6868" y1="94.0953" x2="99.6867" y2="64.6507" gradientUnits="userSpaceOnUse">
<stop stop-color="#B1B9BE"/>
<stop offset="0.052" stop-color="#C0C7CB"/>
<stop offset="0.148" stop-color="#D7DBDE"/>
<stop offset="0.26" stop-color="#E9EBEC"/>
<stop offset="0.394" stop-color="#F5F6F7"/>
<stop offset="0.575" stop-color="#FCFDFD"/>
<stop offset="1" stop-color="white"/>
</linearGradient>
<linearGradient id="paint2_linear_177_1564" x1="48.6871" y1="133.338" x2="65.687" y2="103.893" gradientUnits="userSpaceOnUse">
<stop stop-color="#B1B9BE"/>
<stop offset="0.052" stop-color="#C0C7CB"/>
<stop offset="0.148" stop-color="#D7DBDE"/>
<stop offset="0.26" stop-color="#E9EBEC"/>
<stop offset="0.394" stop-color="#F5F6F7"/>
<stop offset="0.575" stop-color="#FCFDFD"/>
<stop offset="1" stop-color="white"/>
</linearGradient>
<linearGradient id="paint3_linear_177_1564" x1="77.0221" y1="90.8226" x2="88.3541" y2="71.1948" gradientUnits="userSpaceOnUse">
<stop stop-color="#7764FC"/>
<stop offset="0.107" stop-color="#708DFA"/>
<stop offset="0.224" stop-color="#6AB2F8"/>
<stop offset="0.332" stop-color="#65CEF7"/>
<stop offset="0.428" stop-color="#62DFF6"/>
<stop offset="0.5" stop-color="#62E5F6"/>
<stop offset="0.7" stop-color="#3FDBD1"/>
<stop offset="1" stop-color="#05CC93"/>
</linearGradient>
<linearGradient id="paint4_linear_177_1564" x1="34.5205" y1="118.616" x2="79.8536" y2="118.616" gradientUnits="userSpaceOnUse">
<stop stop-color="#7764FC"/>
<stop offset="0.107" stop-color="#708DFA"/>
<stop offset="0.224" stop-color="#6AB2F8"/>
<stop offset="0.332" stop-color="#65CEF7"/>
<stop offset="0.428" stop-color="#62DFF6"/>
<stop offset="0.5" stop-color="#62E5F6"/>
<stop offset="0.7" stop-color="#3FDBD1"/>
<stop offset="1" stop-color="#05CC93"/>
</linearGradient>
<linearGradient id="paint5_linear_177_1564" x1="64.6202" y1="23.1492" x2="47.658" y2="32.1904" gradientUnits="userSpaceOnUse">
<stop stop-color="#B1B9BE"/>
<stop offset="0.081" stop-color="#BCC3C7"/>
<stop offset="0.316" stop-color="#D9DDDF"/>
<stop offset="0.549" stop-color="#EEF0F1"/>
<stop offset="0.778" stop-color="#FAFBFB"/>
<stop offset="1" stop-color="white"/>
</linearGradient>
<clipPath id="clip0_177_1564">
<rect width="127.307" height="166.008" fill="white"/>
</clipPath>
</defs>
</svg>
