<svg width="146" height="174" viewBox="0 0 146 174" fill="none" xmlns="http://www.w3.org/2000/svg">
<path d="M16.1951 165.393C16.1951 167.116 17.0529 168.529 18.3025 169.375C18.8053 169.715 18.9484 170.393 18.6257 170.907C18.303 171.422 17.6305 171.588 17.1052 171.283L4.08081 163.728C4.04446 163.706 4.00911 163.683 3.97534 163.658C2.28326 162.404 1.12771 160.389 1.12769 157.984V79.3926C1.12769 78.9897 1.34225 78.6173 1.69116 78.416C2.04007 78.2147 2.47034 78.2154 2.81909 78.417L15.6316 85.8232C15.98 86.0247 16.1951 86.3963 16.1951 86.7988V165.393Z" fill="#01A982" stroke="#292D3A" stroke-width="2.25451" stroke-linejoin="round"/>
<path d="M108.112 2.08398C110.726 0.573021 113.706 0.957462 115.827 2.51465L127.814 9.39551H127.813L127.975 9.48633H127.974C127.979 9.48932 127.985 9.49211 127.99 9.49512C128.525 9.80756 128.706 10.4933 128.398 11.0303C128.09 11.5669 127.406 11.7545 126.867 11.4502L126.714 11.3633C125.33 10.6248 123.601 10.5489 122.052 11.4414L22.7526 68.8467C18.6957 71.1904 16.195 75.5267 16.1949 80.2207V86.7998C16.1949 87.2026 15.9794 87.575 15.6305 87.7764C15.2816 87.9775 14.8522 87.9769 14.5035 87.7754L1.69006 80.3701C1.3416 80.1687 1.12756 79.7961 1.12756 79.3936V72.8145C1.12765 67.3168 4.0561 62.236 8.81116 59.4863L108.112 2.08398Z" fill="url(#paint0_linear_177_1681)" stroke="#292D3A" stroke-width="2.25451" stroke-linejoin="round"/>
<path d="M117.572 42.3594L84.2202 61.6394V98.6739L117.572 79.3937V42.3594Z" fill="#00E0AF"/>
<path d="M72.2483 130.446L70.5393 129.416L60.8381 123.572L60.2922 123.243V122.606L60.2825 74.8252V74.1748L60.845 73.8496L70.5569 68.2354L72.2483 67.2568V130.446Z" fill="#01A982" stroke="#292D3A" stroke-width="2.25451"/>
<path d="M61.99 121.64L71.7019 127.484L73.3386 128.47L71.6853 129.426L28.446 154.437L26.7546 155.415V141.427L27.3152 141.101L60.8425 121.631L61.4197 121.296L61.99 121.64Z" fill="#00E0AF" stroke="#292D3A" stroke-width="2.25451"/>
<path d="M131.512 100.784C131.512 106.282 128.583 111.363 123.828 114.112L24.5293 171.515V171.516C22.0072 172.973 19.1394 172.667 17.0381 171.241C15.2129 170.005 13.9405 167.915 13.9404 165.394V86.1484L14.5029 85.8232L129.82 19.1611L131.512 18.1826V100.784ZM29.0088 94.8555V151.507L69.9932 127.8V71.1641L29.0088 94.8555ZM85.3477 62.2881V96.7178L116.445 78.7402V44.3115L85.3477 62.2881Z" fill="url(#paint1_linear_177_1681)" stroke="#292D3A" stroke-width="2.25451"/>
<ellipse cx="2.29854" cy="2.29854" rx="2.29854" ry="2.29854" transform="matrix(0.866025 -0.5 0 1 83.7615 108.1)" fill="#292D3A"/>
<rect width="33.4748" height="2.63026" rx="1.31513" transform="matrix(0.866025 -0.5 0 1 91.0859 104.936)" fill="#292D3A"/>
<ellipse cx="2.29854" cy="2.29854" rx="2.29854" ry="2.29854" transform="matrix(0.866025 -0.5 0 1 83.7615 117.637)" fill="#292D3A"/>
<rect width="32.5122" height="2.63026" rx="1.31513" transform="matrix(0.866025 -0.5 0 1 91.0859 114.471)" fill="#292D3A"/>
<path d="M120.924 9.49121C123.278 8.13156 125.932 8.30386 127.985 9.49121C130.036 10.6782 131.513 12.8944 131.513 15.6123V20.1387C131.513 20.541 131.298 20.9129 130.949 21.1143L15.6331 87.7764C15.2843 87.978 14.854 87.9787 14.5051 87.7773C14.1562 87.576 13.9417 87.2036 13.9417 86.8008V80.2217C13.9417 74.7239 16.8701 69.6432 21.6252 66.8936L120.924 9.49121Z" fill="url(#paint2_linear_177_1681)" stroke="#292D3A" stroke-width="2.25451" stroke-linejoin="round"/>
<defs>
<linearGradient id="paint0_linear_177_1681" x1="2.25452" y1="44.5278" x2="127.421" y2="44.5278" gradientUnits="userSpaceOnUse">
<stop stop-color="#7764FC"/>
<stop offset="0.5" stop-color="#62E5F6"/>
<stop offset="0.7" stop-color="#3FDBD1"/>
<stop offset="1" stop-color="#05CC93"/>
</linearGradient>
<linearGradient id="paint1_linear_177_1681" x1="26.7037" y1="175.551" x2="120.043" y2="14.1561" gradientUnits="userSpaceOnUse">
<stop stop-color="#B1B9BE"/>
<stop offset="0.143" stop-color="#C9CED2"/>
<stop offset="0.326" stop-color="#E0E3E5"/>
<stop offset="0.521" stop-color="#F1F3F3"/>
<stop offset="0.735" stop-color="#FBFCFC"/>
<stop offset="1" stop-color="white"/>
</linearGradient>
<linearGradient id="paint2_linear_177_1681" x1="15.0686" y1="48.2314" x2="130.386" y2="48.2314" gradientUnits="userSpaceOnUse">
<stop stop-color="#7764FC"/>
<stop offset="0.5" stop-color="#62E5F6"/>
<stop offset="0.7" stop-color="#3FDBD1"/>
<stop offset="1" stop-color="#05CC93"/>
</linearGradient>
</defs>
</svg>
