<svg width="929" height="317" viewBox="0 0 929 317" fill="none" xmlns="http://www.w3.org/2000/svg">
<g filter="url(#filter0_d_0_13)">
<rect x="12" y="19" width="426" height="245" fill="#404B5C"/>
</g>
<path d="M408.358 214.983C440.303 220.483 453.035 229.79 466.188 257.874" stroke="#7630EA" stroke-width="2"/>
<path d="M411.237 123C424.5 70 446.822 61.0807 477.681 64.151" stroke="#7630EA" stroke-width="2"/>
<g filter="url(#filter1_d_0_13)">
<rect x="489" y="6" width="198.277" height="114.033" fill="#404B5C"/>
</g>
<rect x="498" y="43" width="181.056" height="67" fill="#263040"/>
<g filter="url(#filter2_d_0_13)">
<rect x="718.186" y="184" width="198.22" height="114" fill="#404B5C"/>
</g>
<rect x="726" y="221" width="181.004" height="67" fill="#263040"/>
<path d="M760.359 206.616V209.28C761.169 209.766 762.501 210.18 763.977 210.18C766.461 210.18 768.495 209.118 768.495 206.724C768.495 205.032 767.577 203.97 765.561 203.34L763.887 202.836C763.311 202.656 762.969 202.458 762.969 201.954C762.969 201.396 763.599 201.162 764.427 201.162C765.687 201.162 766.785 201.576 767.775 202.26V199.596C766.857 199.092 765.795 198.768 764.301 198.768C761.979 198.768 760.125 199.974 760.125 202.17C760.125 204.006 761.151 204.924 763.005 205.464L764.679 205.95C765.273 206.166 765.615 206.346 765.615 206.886C765.615 207.57 764.823 207.768 763.905 207.768C762.663 207.768 761.313 207.264 760.359 206.616ZM777.404 210V201.9H774.578V206.814C774.434 207.372 773.948 207.714 773.426 207.714C772.706 207.714 772.382 207.228 772.382 206.544V201.9H769.574V207.21C769.574 209.01 770.636 210.18 772.418 210.18C773.336 210.18 774.146 209.802 774.578 209.298V210H777.404ZM781.734 210V209.352C782.112 209.784 782.904 210.18 783.732 210.18C786.072 210.18 787.35 208.29 787.35 205.95C787.35 203.61 786.072 201.72 783.732 201.72C782.904 201.72 782.112 202.116 781.734 202.548V198.3H778.908V210H781.734ZM781.734 207.012V204.87C781.95 204.438 782.436 204.114 782.976 204.114C783.948 204.114 784.524 204.906 784.524 205.95C784.524 206.994 783.948 207.768 782.976 207.768C782.418 207.768 781.95 207.462 781.734 207.012ZM788.591 204.096V206.472H792.929V204.096H788.591ZM798.753 205.122V205.41C798.429 205.176 797.673 204.96 796.989 204.96C795.243 204.96 793.875 205.968 793.875 207.534C793.875 209.244 795.243 210.144 796.845 210.144C797.709 210.144 798.483 209.856 798.753 209.586V210H801.471V204.996C801.471 202.854 800.103 201.72 797.709 201.72C796.557 201.72 795.477 201.99 794.811 202.35V204.618C795.459 204.24 796.251 204.042 797.025 204.042C798.177 204.042 798.753 204.492 798.753 205.122ZM798.753 207.264V207.732C798.573 208.056 798.123 208.272 797.619 208.272C797.061 208.272 796.503 208.038 796.503 207.48C796.503 206.94 797.061 206.706 797.619 206.706C798.123 206.706 798.573 206.922 798.753 207.264ZM808.356 204.582V201.864C808.23 201.792 807.942 201.72 807.582 201.72C806.772 201.72 806.142 202.08 805.746 202.62V201.9H802.92V210H805.746V205.248C805.89 204.672 806.412 204.33 807.186 204.33C807.636 204.33 808.014 204.402 808.356 204.582ZM811.693 206.598H816.679V205.77C816.679 203.358 815.401 201.72 812.881 201.72C810.649 201.72 808.957 203.466 808.957 206.004C808.957 208.614 810.721 210.18 813.313 210.18C814.483 210.18 815.473 209.928 816.103 209.46V207.318C815.293 207.804 814.627 207.966 813.763 207.966C812.719 207.966 811.927 207.57 811.693 206.598ZM812.989 203.862C813.673 203.862 814.087 204.33 814.159 205.014H811.729C811.927 204.276 812.377 203.862 812.989 203.862ZM822.255 205.122V205.41C821.931 205.176 821.175 204.96 820.491 204.96C818.745 204.96 817.377 205.968 817.377 207.534C817.377 209.244 818.745 210.144 820.347 210.144C821.211 210.144 821.985 209.856 822.255 209.586V210H824.973V204.996C824.973 202.854 823.605 201.72 821.211 201.72C820.059 201.72 818.979 201.99 818.313 202.35V204.618C818.961 204.24 819.753 204.042 820.527 204.042C821.679 204.042 822.255 204.492 822.255 205.122ZM822.255 207.264V207.732C822.075 208.056 821.625 208.272 821.121 208.272C820.563 208.272 820.005 208.038 820.005 207.48C820.005 206.94 820.563 206.706 821.121 206.706C821.625 206.706 822.075 206.922 822.255 207.264ZM829.846 206.616V209.28C830.656 209.766 831.988 210.18 833.464 210.18C835.948 210.18 837.982 209.118 837.982 206.724C837.982 205.032 837.064 203.97 835.048 203.34L833.374 202.836C832.798 202.656 832.456 202.458 832.456 201.954C832.456 201.396 833.086 201.162 833.914 201.162C835.174 201.162 836.272 201.576 837.262 202.26V199.596C836.344 199.092 835.282 198.768 833.788 198.768C831.466 198.768 829.612 199.974 829.612 202.17C829.612 204.006 830.638 204.924 832.492 205.464L834.166 205.95C834.76 206.166 835.102 206.346 835.102 206.886C835.102 207.57 834.31 207.768 833.392 207.768C832.15 207.768 830.8 207.264 829.846 206.616ZM841.922 212.862V209.352C842.3 209.784 843.092 210.18 843.92 210.18C846.26 210.18 847.538 208.254 847.538 205.95C847.538 203.628 846.26 201.72 843.92 201.72C843.092 201.72 842.3 202.116 841.922 202.548V201.9H839.096V212.862H841.922ZM841.922 207.012V204.87C842.138 204.438 842.606 204.114 843.164 204.114C844.136 204.114 844.712 204.906 844.712 205.95C844.712 206.994 844.136 207.768 843.164 207.768C842.624 207.768 842.138 207.462 841.922 207.012ZM856.577 205.95C856.577 203.448 854.903 201.72 852.437 201.72C849.989 201.72 848.297 203.448 848.297 205.95C848.297 208.452 849.989 210.18 852.437 210.18C854.903 210.18 856.577 208.452 856.577 205.95ZM853.805 205.95C853.805 207.066 853.319 207.84 852.437 207.84C851.573 207.84 851.087 207.066 851.087 205.95C851.087 204.834 851.573 204.042 852.437 204.042C853.319 204.042 853.805 204.834 853.805 205.95ZM866.118 210L863.04 205.644L866.046 201.9H862.806L860.502 204.96V198.3H857.676V210H860.502V206.454L862.95 210H866.118ZM868.857 206.598H873.843V205.77C873.843 203.358 872.565 201.72 870.045 201.72C867.813 201.72 866.121 203.466 866.121 206.004C866.121 208.614 867.885 210.18 870.477 210.18C871.647 210.18 872.637 209.928 873.267 209.46V207.318C872.457 207.804 871.791 207.966 870.927 207.966C869.883 207.966 869.091 207.57 868.857 206.598ZM870.153 203.862C870.837 203.862 871.251 204.33 871.323 205.014H868.893C869.091 204.276 869.541 203.862 870.153 203.862Z" fill="white"/>
<path d="M515.642 18.176V28H519.354C522.442 28 524.314 26.08 524.314 23.088C524.314 20.096 522.442 18.176 519.354 18.176H515.642ZM519.226 25.776H518.17V20.384H519.226C520.858 20.384 521.77 21.424 521.77 23.088C521.77 24.736 520.858 25.776 519.226 25.776ZM529.202 23.664V23.92C528.914 23.712 528.242 23.52 527.634 23.52C526.082 23.52 524.866 24.416 524.866 25.808C524.866 27.328 526.082 28.128 527.506 28.128C528.274 28.128 528.962 27.872 529.202 27.632V28H531.618V23.552C531.618 21.648 530.402 20.64 528.274 20.64C527.25 20.64 526.29 20.88 525.698 21.2V23.216C526.274 22.88 526.978 22.704 527.666 22.704C528.69 22.704 529.202 23.104 529.202 23.664ZM529.202 25.568V25.984C529.042 26.272 528.642 26.464 528.194 26.464C527.698 26.464 527.202 26.256 527.202 25.76C527.202 25.28 527.698 25.072 528.194 25.072C528.642 25.072 529.042 25.264 529.202 25.568ZM536.203 28V22.752H537.611V20.8H536.203V18.816H533.707V20.8H532.459V22.752H533.707V28H536.203ZM542.296 23.664V23.92C542.008 23.712 541.336 23.52 540.728 23.52C539.176 23.52 537.96 24.416 537.96 25.808C537.96 27.328 539.176 28.128 540.6 28.128C541.368 28.128 542.056 27.872 542.296 27.632V28H544.712V23.552C544.712 21.648 543.496 20.64 541.368 20.64C540.344 20.64 539.384 20.88 538.792 21.2V23.216C539.368 22.88 540.072 22.704 540.76 22.704C541.784 22.704 542.296 23.104 542.296 23.664ZM542.296 25.568V25.984C542.136 26.272 541.736 26.464 541.288 26.464C540.792 26.464 540.296 26.256 540.296 25.76C540.296 25.28 540.792 25.072 541.288 25.072C541.736 25.072 542.136 25.264 542.296 25.568ZM545.648 18.176V20.384H548.672V28H551.248V20.384H554.288V18.176H545.648ZM558.327 23.664V23.92C558.039 23.712 557.367 23.52 556.759 23.52C555.207 23.52 553.991 24.416 553.991 25.808C553.991 27.328 555.207 28.128 556.631 28.128C557.399 28.128 558.087 27.872 558.327 27.632V28H560.743V23.552C560.743 21.648 559.527 20.64 557.399 20.64C556.375 20.64 555.415 20.88 554.823 21.2V23.216C555.399 22.88 556.103 22.704 556.791 22.704C557.815 22.704 558.327 23.104 558.327 23.664ZM558.327 25.568V25.984C558.167 26.272 557.767 26.464 557.319 26.464C556.823 26.464 556.327 26.256 556.327 25.76C556.327 25.28 556.823 25.072 557.319 25.072C557.767 25.072 558.167 25.264 558.327 25.568ZM564.543 28V27.424C564.879 27.808 565.583 28.16 566.319 28.16C568.399 28.16 569.535 26.48 569.535 24.4C569.535 22.32 568.399 20.64 566.319 20.64C565.583 20.64 564.879 20.992 564.543 21.376V17.6H562.031V28H564.543ZM564.543 25.344V23.44C564.735 23.056 565.167 22.768 565.647 22.768C566.511 22.768 567.023 23.472 567.023 24.4C567.023 25.328 566.511 26.016 565.647 26.016C565.151 26.016 564.735 25.744 564.543 25.344ZM573.012 28V17.6H570.5V28H573.012ZM576.423 24.976H580.855V24.24C580.855 22.096 579.719 20.64 577.479 20.64C575.495 20.64 573.991 22.192 573.991 24.448C573.991 26.768 575.559 28.16 577.863 28.16C578.903 28.16 579.783 27.936 580.343 27.52V25.616C579.623 26.048 579.031 26.192 578.263 26.192C577.335 26.192 576.631 25.84 576.423 24.976ZM577.575 22.544C578.183 22.544 578.551 22.96 578.615 23.568H576.455C576.631 22.912 577.031 22.544 577.575 22.544ZM587.671 24.752H588.567L590.615 28H593.463L591.159 24.48C592.359 24.032 593.111 23.008 593.111 21.52C593.111 19.376 591.655 18.176 589.543 18.176H585.127V28H587.671V24.752ZM587.671 22.704V20.336H589.271C590.183 20.336 590.599 20.8 590.599 21.52C590.599 22.24 590.183 22.704 589.271 22.704H587.671ZM601.148 24.4C601.148 22.176 599.66 20.64 597.468 20.64C595.292 20.64 593.788 22.176 593.788 24.4C593.788 26.624 595.292 28.16 597.468 28.16C599.66 28.16 601.148 26.624 601.148 24.4ZM598.684 24.4C598.684 25.392 598.252 26.08 597.468 26.08C596.7 26.08 596.268 25.392 596.268 24.4C596.268 23.408 596.7 22.704 597.468 22.704C598.252 22.704 598.684 23.408 598.684 24.4ZM608.754 24.704L607.682 20.8H606.082L604.994 24.704L603.858 20.8H601.362L603.682 28H605.81L606.834 24.352L607.858 28H609.986L612.306 20.8H609.906L608.754 24.704ZM616.505 25.792V28H623.385V25.792H621.369V18.176H619.657L616.585 19.648V22.096L618.889 20.96V25.792H616.505ZM627.653 24.992V27.36C628.373 27.792 629.557 28.16 630.869 28.16C633.077 28.16 634.885 27.216 634.885 25.088C634.885 23.584 634.069 22.64 632.277 22.08L630.789 21.632C630.277 21.472 629.973 21.296 629.973 20.848C629.973 20.352 630.533 20.144 631.269 20.144C632.389 20.144 633.365 20.512 634.245 21.12V18.752C633.429 18.304 632.485 18.016 631.157 18.016C629.093 18.016 627.445 19.088 627.445 21.04C627.445 22.672 628.357 23.488 630.005 23.968L631.493 24.4C632.021 24.592 632.325 24.752 632.325 25.232C632.325 25.84 631.621 26.016 630.805 26.016C629.701 26.016 628.501 25.568 627.653 24.992ZM638.387 30.544V27.424C638.723 27.808 639.427 28.16 640.163 28.16C642.243 28.16 643.379 26.448 643.379 24.4C643.379 22.336 642.243 20.64 640.163 20.64C639.427 20.64 638.723 20.992 638.387 21.376V20.8H635.875V30.544H638.387ZM638.387 25.344V23.44C638.579 23.056 638.995 22.768 639.491 22.768C640.355 22.768 640.867 23.472 640.867 24.4C640.867 25.328 640.355 26.016 639.491 26.016C639.011 26.016 638.579 25.744 638.387 25.344ZM651.414 24.4C651.414 22.176 649.926 20.64 647.734 20.64C645.558 20.64 644.054 22.176 644.054 24.4C644.054 26.624 645.558 28.16 647.734 28.16C649.926 28.16 651.414 26.624 651.414 24.4ZM648.95 24.4C648.95 25.392 648.518 26.08 647.734 26.08C646.966 26.08 646.534 25.392 646.534 24.4C646.534 23.408 646.966 22.704 647.734 22.704C648.518 22.704 648.95 23.408 648.95 24.4ZM659.895 28L657.159 24.128L659.831 20.8H656.951L654.903 23.52V17.6H652.391V28H654.903V24.848L657.079 28H659.895ZM662.329 24.976H666.761V24.24C666.761 22.096 665.625 20.64 663.385 20.64C661.401 20.64 659.897 22.192 659.897 24.448C659.897 26.768 661.465 28.16 663.769 28.16C664.809 28.16 665.689 27.936 666.249 27.52V25.616C665.529 26.048 664.937 26.192 664.169 26.192C663.241 26.192 662.537 25.84 662.329 24.976ZM663.481 22.544C664.089 22.544 664.457 22.96 664.521 23.568H662.361C662.537 22.912 662.937 22.544 663.481 22.544Z" fill="white"/>
<path d="M470.882 56.0879L478.595 64.4575L468 66.9939" stroke="#7630EA" stroke-width="2"/>
<path d="M467.353 248.761L467.103 260.139L457.712 254.617" stroke="#7630EA" stroke-width="2"/>
<path d="M221.123 51.948H218.225V56.142H213.959V51.948H211.061V63H213.959V58.626H218.225V63H221.123V51.948ZM230.49 63V54.9H227.664V59.814C227.52 60.372 227.034 60.714 226.512 60.714C225.792 60.714 225.468 60.228 225.468 59.544V54.9H222.66V60.21C222.66 62.01 223.722 63.18 225.504 63.18C226.422 63.18 227.232 62.802 227.664 62.298V63H230.49ZM234.821 63V62.352C235.199 62.784 235.991 63.18 236.819 63.18C239.159 63.18 240.437 61.29 240.437 58.95C240.437 56.61 239.159 54.72 236.819 54.72C235.991 54.72 235.199 55.116 234.821 55.548V51.3H231.995V63H234.821ZM234.821 60.012V57.87C235.037 57.438 235.523 57.114 236.063 57.114C237.035 57.114 237.611 57.906 237.611 58.95C237.611 59.994 237.035 60.768 236.063 60.768C235.505 60.768 235.037 60.462 234.821 60.012Z" fill="white"/>
<g filter="url(#filter3_d_0_13)">
<rect x="489" y="184" width="198.277" height="114.033" fill="#404B5C"/>
</g>
<rect x="500" y="221" width="177" height="18" fill="#263040"/>
<rect x="500" y="248" width="177" height="40" fill="#263040"/>
<path d="M507.93 198.948V210H512.106C515.58 210 517.686 207.84 517.686 204.474C517.686 201.108 515.58 198.948 512.106 198.948H507.93ZM511.962 207.498H510.774V201.432H511.962C513.798 201.432 514.824 202.602 514.824 204.474C514.824 206.328 513.798 207.498 511.962 207.498ZM523.184 205.122V205.41C522.86 205.176 522.104 204.96 521.42 204.96C519.674 204.96 518.306 205.968 518.306 207.534C518.306 209.244 519.674 210.144 521.276 210.144C522.14 210.144 522.914 209.856 523.184 209.586V210H525.902V204.996C525.902 202.854 524.534 201.72 522.14 201.72C520.988 201.72 519.908 201.99 519.242 202.35V204.618C519.89 204.24 520.682 204.042 521.456 204.042C522.608 204.042 523.184 204.492 523.184 205.122ZM523.184 207.264V207.732C523.004 208.056 522.554 208.272 522.05 208.272C521.492 208.272 520.934 208.038 520.934 207.48C520.934 206.94 521.492 206.706 522.05 206.706C522.554 206.706 523.004 206.922 523.184 207.264ZM531.061 210V204.096H532.645V201.9H531.061V199.668H528.253V201.9H526.849V204.096H528.253V210H531.061ZM537.915 205.122V205.41C537.591 205.176 536.835 204.96 536.151 204.96C534.405 204.96 533.037 205.968 533.037 207.534C533.037 209.244 534.405 210.144 536.007 210.144C536.871 210.144 537.645 209.856 537.915 209.586V210H540.633V204.996C540.633 202.854 539.265 201.72 536.871 201.72C535.719 201.72 534.639 201.99 533.973 202.35V204.618C534.621 204.24 535.413 204.042 536.187 204.042C537.339 204.042 537.915 204.492 537.915 205.122ZM537.915 207.264V207.732C537.735 208.056 537.285 208.272 536.781 208.272C536.223 208.272 535.665 208.038 535.665 207.48C535.665 206.94 536.223 206.706 536.781 206.706C537.285 206.706 537.735 206.922 537.915 207.264ZM541.686 198.948V201.432H545.088V210H547.986V201.432H551.406V198.948H541.686ZM555.95 205.122V205.41C555.626 205.176 554.87 204.96 554.186 204.96C552.44 204.96 551.072 205.968 551.072 207.534C551.072 209.244 552.44 210.144 554.042 210.144C554.906 210.144 555.68 209.856 555.95 209.586V210H558.668V204.996C558.668 202.854 557.3 201.72 554.906 201.72C553.754 201.72 552.674 201.99 552.008 202.35V204.618C552.656 204.24 553.448 204.042 554.222 204.042C555.374 204.042 555.95 204.492 555.95 205.122ZM555.95 207.264V207.732C555.77 208.056 555.32 208.272 554.816 208.272C554.258 208.272 553.7 208.038 553.7 207.48C553.7 206.94 554.258 206.706 554.816 206.706C555.32 206.706 555.77 206.922 555.95 207.264ZM562.943 210V209.352C563.321 209.784 564.113 210.18 564.941 210.18C567.281 210.18 568.559 208.29 568.559 205.95C568.559 203.61 567.281 201.72 564.941 201.72C564.113 201.72 563.321 202.116 562.943 202.548V198.3H560.117V210H562.943ZM562.943 207.012V204.87C563.159 204.438 563.645 204.114 564.185 204.114C565.157 204.114 565.733 204.906 565.733 205.95C565.733 206.994 565.157 207.768 564.185 207.768C563.627 207.768 563.159 207.462 562.943 207.012ZM572.471 210V198.3H569.645V210H572.471ZM576.308 206.598H581.294V205.77C581.294 203.358 580.016 201.72 577.496 201.72C575.264 201.72 573.572 203.466 573.572 206.004C573.572 208.614 575.336 210.18 577.928 210.18C579.098 210.18 580.088 209.928 580.718 209.46V207.318C579.908 207.804 579.242 207.966 578.378 207.966C577.334 207.966 576.542 207.57 576.308 206.598ZM577.604 203.862C578.288 203.862 578.702 204.33 578.774 205.014H576.344C576.542 204.276 576.992 203.862 577.604 203.862ZM588.961 206.346H589.969L592.273 210H595.477L592.885 206.04C594.235 205.536 595.081 204.384 595.081 202.71C595.081 200.298 593.443 198.948 591.067 198.948H586.099V210H588.961V206.346ZM588.961 204.042V201.378H590.761C591.787 201.378 592.255 201.9 592.255 202.71C592.255 203.52 591.787 204.042 590.761 204.042H588.961ZM604.124 205.95C604.124 203.448 602.45 201.72 599.984 201.72C597.536 201.72 595.844 203.448 595.844 205.95C595.844 208.452 597.536 210.18 599.984 210.18C602.45 210.18 604.124 208.452 604.124 205.95ZM601.352 205.95C601.352 207.066 600.866 207.84 599.984 207.84C599.12 207.84 598.634 207.066 598.634 205.95C598.634 204.834 599.12 204.042 599.984 204.042C600.866 204.042 601.352 204.834 601.352 205.95ZM612.68 206.292L611.474 201.9H609.674L608.45 206.292L607.172 201.9H604.364L606.974 210H609.368L610.52 205.896L611.672 210H614.066L616.676 201.9H613.976L612.68 206.292ZM624.118 205.716L626.566 198.948H623.938L620.572 207.984V208.056H625.738V210H628.186V208.056H629.428V205.716H628.186V203.664H625.738V205.716H624.118ZM644.255 198.948H641.357V203.142H637.091V198.948H634.193V210H637.091V205.626H641.357V210H644.255V198.948ZM653.622 210V201.9H650.796V206.814C650.652 207.372 650.166 207.714 649.644 207.714C648.924 207.714 648.6 207.228 648.6 206.544V201.9H645.792V207.21C645.792 209.01 646.854 210.18 648.636 210.18C649.554 210.18 650.364 209.802 650.796 209.298V210H653.622ZM657.953 210V209.352C658.331 209.784 659.123 210.18 659.951 210.18C662.291 210.18 663.569 208.29 663.569 205.95C663.569 203.61 662.291 201.72 659.951 201.72C659.123 201.72 658.331 202.116 657.953 202.548V198.3H655.127V210H657.953ZM657.953 207.012V204.87C658.169 204.438 658.655 204.114 659.195 204.114C660.167 204.114 660.743 204.906 660.743 205.95C660.743 206.994 660.167 207.768 659.195 207.768C658.637 207.768 658.169 207.462 657.953 207.012Z" fill="white"/>
<path d="M709.567 235.563C697.514 228.189 690.821 227.511 679 232.679" stroke="#7630EA" stroke-width="2"/>
<path d="M705.508 237L709.725 235.421L708.508 230.5" stroke="#7630EA" stroke-width="2"/>
<rect x="47" y="111" width="364" height="23" fill="#263040"/>
<rect x="47" y="140" width="364" height="23" fill="#263040"/>
<rect x="47" y="169" width="364" height="23" fill="#263040"/>
<rect x="47" y="198" width="364" height="23" fill="#263040"/>
<path d="M176.644 117.404V126H179.892C182.594 126 184.232 124.32 184.232 121.702C184.232 119.084 182.594 117.404 179.892 117.404H176.644ZM179.78 124.054H178.856V119.336H179.78C181.208 119.336 182.006 120.246 182.006 121.702C182.006 123.144 181.208 124.054 179.78 124.054ZM188.509 122.206V122.43C188.257 122.248 187.669 122.08 187.137 122.08C185.779 122.08 184.715 122.864 184.715 124.082C184.715 125.412 185.779 126.112 187.025 126.112C187.697 126.112 188.299 125.888 188.509 125.678V126H190.623V122.108C190.623 120.442 189.559 119.56 187.697 119.56C186.801 119.56 185.961 119.77 185.443 120.05V121.814C185.947 121.52 186.563 121.366 187.165 121.366C188.061 121.366 188.509 121.716 188.509 122.206ZM188.509 123.872V124.236C188.369 124.488 188.019 124.656 187.627 124.656C187.193 124.656 186.759 124.474 186.759 124.04C186.759 123.62 187.193 123.438 187.627 123.438C188.019 123.438 188.369 123.606 188.509 123.872ZM194.635 126V121.408H195.867V119.7H194.635V117.964H192.451V119.7H191.359V121.408H192.451V126H194.635ZM199.966 122.206V122.43C199.714 122.248 199.126 122.08 198.594 122.08C197.236 122.08 196.172 122.864 196.172 124.082C196.172 125.412 197.236 126.112 198.482 126.112C199.154 126.112 199.756 125.888 199.966 125.678V126H202.08V122.108C202.08 120.442 201.016 119.56 199.154 119.56C198.258 119.56 197.418 119.77 196.9 120.05V121.814C197.404 121.52 198.02 121.366 198.622 121.366C199.518 121.366 199.966 121.716 199.966 122.206ZM199.966 123.872V124.236C199.826 124.488 199.476 124.656 199.084 124.656C198.65 124.656 198.216 124.474 198.216 124.04C198.216 123.62 198.65 123.438 199.084 123.438C199.476 123.438 199.826 123.606 199.966 123.872ZM202.899 117.404V119.336H205.545V126H207.799V119.336H210.459V117.404H202.899ZM213.993 122.206V122.43C213.741 122.248 213.153 122.08 212.621 122.08C211.263 122.08 210.199 122.864 210.199 124.082C210.199 125.412 211.263 126.112 212.509 126.112C213.181 126.112 213.783 125.888 213.993 125.678V126H216.107V122.108C216.107 120.442 215.043 119.56 213.181 119.56C212.285 119.56 211.445 119.77 210.927 120.05V121.814C211.431 121.52 212.047 121.366 212.649 121.366C213.545 121.366 213.993 121.716 213.993 122.206ZM213.993 123.872V124.236C213.853 124.488 213.503 124.656 213.111 124.656C212.677 124.656 212.243 124.474 212.243 124.04C212.243 123.62 212.677 123.438 213.111 123.438C213.503 123.438 213.853 123.606 213.993 123.872ZM219.432 126V125.496C219.726 125.832 220.342 126.14 220.986 126.14C222.806 126.14 223.8 124.67 223.8 122.85C223.8 121.03 222.806 119.56 220.986 119.56C220.342 119.56 219.726 119.868 219.432 120.204V116.9H217.234V126H219.432ZM219.432 123.676V122.01C219.6 121.674 219.978 121.422 220.398 121.422C221.154 121.422 221.602 122.038 221.602 122.85C221.602 123.662 221.154 124.264 220.398 124.264C219.964 124.264 219.6 124.026 219.432 123.676ZM226.843 126V116.9H224.645V126H226.843ZM229.827 123.354H233.705V122.71C233.705 120.834 232.711 119.56 230.751 119.56C229.015 119.56 227.699 120.918 227.699 122.892C227.699 124.922 229.071 126.14 231.087 126.14C231.997 126.14 232.767 125.944 233.257 125.58V123.914C232.627 124.292 232.109 124.418 231.437 124.418C230.625 124.418 230.009 124.11 229.827 123.354ZM230.835 121.226C231.367 121.226 231.689 121.59 231.745 122.122H229.855C230.009 121.548 230.359 121.226 230.835 121.226ZM239.669 123.158H240.453L242.245 126H244.737L242.721 122.92C243.771 122.528 244.429 121.632 244.429 120.33C244.429 118.454 243.155 117.404 241.307 117.404H237.443V126H239.669V123.158ZM239.669 121.366V119.294H241.069C241.867 119.294 242.231 119.7 242.231 120.33C242.231 120.96 241.867 121.366 241.069 121.366H239.669ZM251.462 122.85C251.462 120.904 250.16 119.56 248.242 119.56C246.338 119.56 245.022 120.904 245.022 122.85C245.022 124.796 246.338 126.14 248.242 126.14C250.16 126.14 251.462 124.796 251.462 122.85ZM249.306 122.85C249.306 123.718 248.928 124.32 248.242 124.32C247.57 124.32 247.192 123.718 247.192 122.85C247.192 121.982 247.57 121.366 248.242 121.366C248.928 121.366 249.306 121.982 249.306 122.85ZM258.117 123.116L257.179 119.7H255.779L254.827 123.116L253.833 119.7H251.649L253.679 126H255.541L256.437 122.808L257.333 126H259.195L261.225 119.7H259.125L258.117 123.116ZM264.899 124.068V126H270.919V124.068H269.155V117.404H267.657L264.969 118.692V120.834L266.985 119.84V124.068H264.899Z" fill="white"/>
<rect x="47" y="89" width="364" height="16" fill="#4F5F76"/>
<path d="M176.644 148.404V157H179.892C182.594 157 184.232 155.32 184.232 152.702C184.232 150.084 182.594 148.404 179.892 148.404H176.644ZM179.78 155.054H178.856V150.336H179.78C181.208 150.336 182.006 151.246 182.006 152.702C182.006 154.144 181.208 155.054 179.78 155.054ZM188.509 153.206V153.43C188.257 153.248 187.669 153.08 187.137 153.08C185.779 153.08 184.715 153.864 184.715 155.082C184.715 156.412 185.779 157.112 187.025 157.112C187.697 157.112 188.299 156.888 188.509 156.678V157H190.623V153.108C190.623 151.442 189.559 150.56 187.697 150.56C186.801 150.56 185.961 150.77 185.443 151.05V152.814C185.947 152.52 186.563 152.366 187.165 152.366C188.061 152.366 188.509 152.716 188.509 153.206ZM188.509 154.872V155.236C188.369 155.488 188.019 155.656 187.627 155.656C187.193 155.656 186.759 155.474 186.759 155.04C186.759 154.62 187.193 154.438 187.627 154.438C188.019 154.438 188.369 154.606 188.509 154.872ZM194.635 157V152.408H195.867V150.7H194.635V148.964H192.451V150.7H191.359V152.408H192.451V157H194.635ZM199.966 153.206V153.43C199.714 153.248 199.126 153.08 198.594 153.08C197.236 153.08 196.172 153.864 196.172 155.082C196.172 156.412 197.236 157.112 198.482 157.112C199.154 157.112 199.756 156.888 199.966 156.678V157H202.08V153.108C202.08 151.442 201.016 150.56 199.154 150.56C198.258 150.56 197.418 150.77 196.9 151.05V152.814C197.404 152.52 198.02 152.366 198.622 152.366C199.518 152.366 199.966 152.716 199.966 153.206ZM199.966 154.872V155.236C199.826 155.488 199.476 155.656 199.084 155.656C198.65 155.656 198.216 155.474 198.216 155.04C198.216 154.62 198.65 154.438 199.084 154.438C199.476 154.438 199.826 154.606 199.966 154.872ZM202.899 148.404V150.336H205.545V157H207.799V150.336H210.459V148.404H202.899ZM213.993 153.206V153.43C213.741 153.248 213.153 153.08 212.621 153.08C211.263 153.08 210.199 153.864 210.199 155.082C210.199 156.412 211.263 157.112 212.509 157.112C213.181 157.112 213.783 156.888 213.993 156.678V157H216.107V153.108C216.107 151.442 215.043 150.56 213.181 150.56C212.285 150.56 211.445 150.77 210.927 151.05V152.814C211.431 152.52 212.047 152.366 212.649 152.366C213.545 152.366 213.993 152.716 213.993 153.206ZM213.993 154.872V155.236C213.853 155.488 213.503 155.656 213.111 155.656C212.677 155.656 212.243 155.474 212.243 155.04C212.243 154.62 212.677 154.438 213.111 154.438C213.503 154.438 213.853 154.606 213.993 154.872ZM219.432 157V156.496C219.726 156.832 220.342 157.14 220.986 157.14C222.806 157.14 223.8 155.67 223.8 153.85C223.8 152.03 222.806 150.56 220.986 150.56C220.342 150.56 219.726 150.868 219.432 151.204V147.9H217.234V157H219.432ZM219.432 154.676V153.01C219.6 152.674 219.978 152.422 220.398 152.422C221.154 152.422 221.602 153.038 221.602 153.85C221.602 154.662 221.154 155.264 220.398 155.264C219.964 155.264 219.6 155.026 219.432 154.676ZM226.843 157V147.9H224.645V157H226.843ZM229.827 154.354H233.705V153.71C233.705 151.834 232.711 150.56 230.751 150.56C229.015 150.56 227.699 151.918 227.699 153.892C227.699 155.922 229.071 157.14 231.087 157.14C231.997 157.14 232.767 156.944 233.257 156.58V154.914C232.627 155.292 232.109 155.418 231.437 155.418C230.625 155.418 230.009 155.11 229.827 154.354ZM230.835 152.226C231.367 152.226 231.689 152.59 231.745 153.122H229.855C230.009 152.548 230.359 152.226 230.835 152.226ZM239.669 154.158H240.453L242.245 157H244.737L242.721 153.92C243.771 153.528 244.429 152.632 244.429 151.33C244.429 149.454 243.155 148.404 241.307 148.404H237.443V157H239.669V154.158ZM239.669 152.366V150.294H241.069C241.867 150.294 242.231 150.7 242.231 151.33C242.231 151.96 241.867 152.366 241.069 152.366H239.669ZM251.462 153.85C251.462 151.904 250.16 150.56 248.242 150.56C246.338 150.56 245.022 151.904 245.022 153.85C245.022 155.796 246.338 157.14 248.242 157.14C250.16 157.14 251.462 155.796 251.462 153.85ZM249.306 153.85C249.306 154.718 248.928 155.32 248.242 155.32C247.57 155.32 247.192 154.718 247.192 153.85C247.192 152.982 247.57 152.366 248.242 152.366C248.928 152.366 249.306 152.982 249.306 153.85ZM258.117 154.116L257.179 150.7H255.779L254.827 154.116L253.833 150.7H251.649L253.679 157H255.541L256.437 153.808L257.333 157H259.195L261.225 150.7H259.125L258.117 154.116ZM270.807 155.068H268.245L269.085 153.92C269.827 152.884 270.457 151.946 270.457 150.854C270.457 149.3 269.365 148.264 267.657 148.264C266.411 148.264 265.361 148.712 264.703 149.258V151.414C265.249 150.966 266.187 150.364 267.069 150.364C267.755 150.364 268.133 150.728 268.133 151.302C268.133 152.03 267.727 152.562 266.957 153.584L264.437 156.944V157H270.807V155.068Z" fill="white"/>
<path d="M175.644 177.404V186H178.892C181.594 186 183.232 184.32 183.232 181.702C183.232 179.084 181.594 177.404 178.892 177.404H175.644ZM178.78 184.054H177.856V179.336H178.78C180.208 179.336 181.006 180.246 181.006 181.702C181.006 183.144 180.208 184.054 178.78 184.054ZM187.509 182.206V182.43C187.257 182.248 186.669 182.08 186.137 182.08C184.779 182.08 183.715 182.864 183.715 184.082C183.715 185.412 184.779 186.112 186.025 186.112C186.697 186.112 187.299 185.888 187.509 185.678V186H189.623V182.108C189.623 180.442 188.559 179.56 186.697 179.56C185.801 179.56 184.961 179.77 184.443 180.05V181.814C184.947 181.52 185.563 181.366 186.165 181.366C187.061 181.366 187.509 181.716 187.509 182.206ZM187.509 183.872V184.236C187.369 184.488 187.019 184.656 186.627 184.656C186.193 184.656 185.759 184.474 185.759 184.04C185.759 183.62 186.193 183.438 186.627 183.438C187.019 183.438 187.369 183.606 187.509 183.872ZM193.635 186V181.408H194.867V179.7H193.635V177.964H191.451V179.7H190.359V181.408H191.451V186H193.635ZM198.966 182.206V182.43C198.714 182.248 198.126 182.08 197.594 182.08C196.236 182.08 195.172 182.864 195.172 184.082C195.172 185.412 196.236 186.112 197.482 186.112C198.154 186.112 198.756 185.888 198.966 185.678V186H201.08V182.108C201.08 180.442 200.016 179.56 198.154 179.56C197.258 179.56 196.418 179.77 195.9 180.05V181.814C196.404 181.52 197.02 181.366 197.622 181.366C198.518 181.366 198.966 181.716 198.966 182.206ZM198.966 183.872V184.236C198.826 184.488 198.476 184.656 198.084 184.656C197.65 184.656 197.216 184.474 197.216 184.04C197.216 183.62 197.65 183.438 198.084 183.438C198.476 183.438 198.826 183.606 198.966 183.872ZM201.899 177.404V179.336H204.545V186H206.799V179.336H209.459V177.404H201.899ZM212.993 182.206V182.43C212.741 182.248 212.153 182.08 211.621 182.08C210.263 182.08 209.199 182.864 209.199 184.082C209.199 185.412 210.263 186.112 211.509 186.112C212.181 186.112 212.783 185.888 212.993 185.678V186H215.107V182.108C215.107 180.442 214.043 179.56 212.181 179.56C211.285 179.56 210.445 179.77 209.927 180.05V181.814C210.431 181.52 211.047 181.366 211.649 181.366C212.545 181.366 212.993 181.716 212.993 182.206ZM212.993 183.872V184.236C212.853 184.488 212.503 184.656 212.111 184.656C211.677 184.656 211.243 184.474 211.243 184.04C211.243 183.62 211.677 183.438 212.111 183.438C212.503 183.438 212.853 183.606 212.993 183.872ZM218.432 186V185.496C218.726 185.832 219.342 186.14 219.986 186.14C221.806 186.14 222.8 184.67 222.8 182.85C222.8 181.03 221.806 179.56 219.986 179.56C219.342 179.56 218.726 179.868 218.432 180.204V176.9H216.234V186H218.432ZM218.432 183.676V182.01C218.6 181.674 218.978 181.422 219.398 181.422C220.154 181.422 220.602 182.038 220.602 182.85C220.602 183.662 220.154 184.264 219.398 184.264C218.964 184.264 218.6 184.026 218.432 183.676ZM225.843 186V176.9H223.645V186H225.843ZM228.827 183.354H232.705V182.71C232.705 180.834 231.711 179.56 229.751 179.56C228.015 179.56 226.699 180.918 226.699 182.892C226.699 184.922 228.071 186.14 230.087 186.14C230.997 186.14 231.767 185.944 232.257 185.58V183.914C231.627 184.292 231.109 184.418 230.437 184.418C229.625 184.418 229.009 184.11 228.827 183.354ZM229.835 181.226C230.367 181.226 230.689 181.59 230.745 182.122H228.855C229.009 181.548 229.359 181.226 229.835 181.226ZM238.669 183.158H239.453L241.245 186H243.737L241.721 182.92C242.771 182.528 243.429 181.632 243.429 180.33C243.429 178.454 242.155 177.404 240.307 177.404H236.443V186H238.669V183.158ZM238.669 181.366V179.294H240.069C240.867 179.294 241.231 179.7 241.231 180.33C241.231 180.96 240.867 181.366 240.069 181.366H238.669ZM250.462 182.85C250.462 180.904 249.16 179.56 247.242 179.56C245.338 179.56 244.022 180.904 244.022 182.85C244.022 184.796 245.338 186.14 247.242 186.14C249.16 186.14 250.462 184.796 250.462 182.85ZM248.306 182.85C248.306 183.718 247.928 184.32 247.242 184.32C246.57 184.32 246.192 183.718 246.192 182.85C246.192 181.982 246.57 181.366 247.242 181.366C247.928 181.366 248.306 181.982 248.306 182.85ZM257.117 183.116L256.179 179.7H254.779L253.827 183.116L252.833 179.7H250.649L252.679 186H254.541L255.437 182.808L256.333 186H258.195L260.225 179.7H258.125L257.117 183.116ZM263.815 177.404V179.336H266.769L265.341 181.968V182.01C266.531 181.94 267.637 182.304 267.637 183.228C267.637 183.942 267.063 184.306 266.181 184.306C265.327 184.306 264.473 183.956 263.759 183.354V185.412C264.389 185.832 265.201 186.14 266.433 186.14C268.225 186.14 269.737 185.062 269.737 183.214C269.737 182.08 269.065 181.198 267.945 180.792L269.737 177.446V177.404H263.815Z" fill="white"/>
<path d="M176.644 205.404V214H179.892C182.594 214 184.232 212.32 184.232 209.702C184.232 207.084 182.594 205.404 179.892 205.404H176.644ZM179.78 212.054H178.856V207.336H179.78C181.208 207.336 182.006 208.246 182.006 209.702C182.006 211.144 181.208 212.054 179.78 212.054ZM188.509 210.206V210.43C188.257 210.248 187.669 210.08 187.137 210.08C185.779 210.08 184.715 210.864 184.715 212.082C184.715 213.412 185.779 214.112 187.025 214.112C187.697 214.112 188.299 213.888 188.509 213.678V214H190.623V210.108C190.623 208.442 189.559 207.56 187.697 207.56C186.801 207.56 185.961 207.77 185.443 208.05V209.814C185.947 209.52 186.563 209.366 187.165 209.366C188.061 209.366 188.509 209.716 188.509 210.206ZM188.509 211.872V212.236C188.369 212.488 188.019 212.656 187.627 212.656C187.193 212.656 186.759 212.474 186.759 212.04C186.759 211.62 187.193 211.438 187.627 211.438C188.019 211.438 188.369 211.606 188.509 211.872ZM194.635 214V209.408H195.867V207.7H194.635V205.964H192.451V207.7H191.359V209.408H192.451V214H194.635ZM199.966 210.206V210.43C199.714 210.248 199.126 210.08 198.594 210.08C197.236 210.08 196.172 210.864 196.172 212.082C196.172 213.412 197.236 214.112 198.482 214.112C199.154 214.112 199.756 213.888 199.966 213.678V214H202.08V210.108C202.08 208.442 201.016 207.56 199.154 207.56C198.258 207.56 197.418 207.77 196.9 208.05V209.814C197.404 209.52 198.02 209.366 198.622 209.366C199.518 209.366 199.966 209.716 199.966 210.206ZM199.966 211.872V212.236C199.826 212.488 199.476 212.656 199.084 212.656C198.65 212.656 198.216 212.474 198.216 212.04C198.216 211.62 198.65 211.438 199.084 211.438C199.476 211.438 199.826 211.606 199.966 211.872ZM202.899 205.404V207.336H205.545V214H207.799V207.336H210.459V205.404H202.899ZM213.993 210.206V210.43C213.741 210.248 213.153 210.08 212.621 210.08C211.263 210.08 210.199 210.864 210.199 212.082C210.199 213.412 211.263 214.112 212.509 214.112C213.181 214.112 213.783 213.888 213.993 213.678V214H216.107V210.108C216.107 208.442 215.043 207.56 213.181 207.56C212.285 207.56 211.445 207.77 210.927 208.05V209.814C211.431 209.52 212.047 209.366 212.649 209.366C213.545 209.366 213.993 209.716 213.993 210.206ZM213.993 211.872V212.236C213.853 212.488 213.503 212.656 213.111 212.656C212.677 212.656 212.243 212.474 212.243 212.04C212.243 211.62 212.677 211.438 213.111 211.438C213.503 211.438 213.853 211.606 213.993 211.872ZM219.432 214V213.496C219.726 213.832 220.342 214.14 220.986 214.14C222.806 214.14 223.8 212.67 223.8 210.85C223.8 209.03 222.806 207.56 220.986 207.56C220.342 207.56 219.726 207.868 219.432 208.204V204.9H217.234V214H219.432ZM219.432 211.676V210.01C219.6 209.674 219.978 209.422 220.398 209.422C221.154 209.422 221.602 210.038 221.602 210.85C221.602 211.662 221.154 212.264 220.398 212.264C219.964 212.264 219.6 212.026 219.432 211.676ZM226.843 214V204.9H224.645V214H226.843ZM229.827 211.354H233.705V210.71C233.705 208.834 232.711 207.56 230.751 207.56C229.015 207.56 227.699 208.918 227.699 210.892C227.699 212.922 229.071 214.14 231.087 214.14C231.997 214.14 232.767 213.944 233.257 213.58V211.914C232.627 212.292 232.109 212.418 231.437 212.418C230.625 212.418 230.009 212.11 229.827 211.354ZM230.835 209.226C231.367 209.226 231.689 209.59 231.745 210.122H229.855C230.009 209.548 230.359 209.226 230.835 209.226ZM239.669 211.158H240.453L242.245 214H244.737L242.721 210.92C243.771 210.528 244.429 209.632 244.429 208.33C244.429 206.454 243.155 205.404 241.307 205.404H237.443V214H239.669V211.158ZM239.669 209.366V207.294H241.069C241.867 207.294 242.231 207.7 242.231 208.33C242.231 208.96 241.867 209.366 241.069 209.366H239.669ZM251.462 210.85C251.462 208.904 250.16 207.56 248.242 207.56C246.338 207.56 245.022 208.904 245.022 210.85C245.022 212.796 246.338 214.14 248.242 214.14C250.16 214.14 251.462 212.796 251.462 210.85ZM249.306 210.85C249.306 211.718 248.928 212.32 248.242 212.32C247.57 212.32 247.192 211.718 247.192 210.85C247.192 209.982 247.57 209.366 248.242 209.366C248.928 209.366 249.306 209.982 249.306 210.85ZM258.117 211.116L257.179 207.7H255.779L254.827 211.116L253.833 207.7H251.649L253.679 214H255.541L256.437 210.808L257.333 214H259.195L261.225 207.7H259.125L258.117 211.116ZM267.013 210.668L268.917 205.404H266.873L264.255 212.432V212.488H268.273V214H270.177V212.488H271.143V210.668H270.177V209.072H268.273V210.668H267.013Z" fill="white"/>
<defs>
<filter id="filter0_d_0_13" x="0" y="13" width="450" height="269" filterUnits="userSpaceOnUse" color-interpolation-filters="sRGB">
<feFlood flood-opacity="0" result="BackgroundImageFix"/>
<feColorMatrix in="SourceAlpha" type="matrix" values="0 0 0 0 0 0 0 0 0 0 0 0 0 0 0 0 0 0 127 0" result="hardAlpha"/>
<feOffset dy="6"/>
<feGaussianBlur stdDeviation="6"/>
<feColorMatrix type="matrix" values="0 0 0 0 0 0 0 0 0 0 0 0 0 0 0 0 0 0 0.12 0"/>
<feBlend mode="normal" in2="BackgroundImageFix" result="effect1_dropShadow_0_13"/>
<feBlend mode="normal" in="SourceGraphic" in2="effect1_dropShadow_0_13" result="shape"/>
</filter>
<filter id="filter1_d_0_13" x="477" y="0" width="222.277" height="138.033" filterUnits="userSpaceOnUse" color-interpolation-filters="sRGB">
<feFlood flood-opacity="0" result="BackgroundImageFix"/>
<feColorMatrix in="SourceAlpha" type="matrix" values="0 0 0 0 0 0 0 0 0 0 0 0 0 0 0 0 0 0 127 0" result="hardAlpha"/>
<feOffset dy="6"/>
<feGaussianBlur stdDeviation="6"/>
<feColorMatrix type="matrix" values="0 0 0 0 0 0 0 0 0 0 0 0 0 0 0 0 0 0 0.12 0"/>
<feBlend mode="normal" in2="BackgroundImageFix" result="effect1_dropShadow_0_13"/>
<feBlend mode="normal" in="SourceGraphic" in2="effect1_dropShadow_0_13" result="shape"/>
</filter>
<filter id="filter2_d_0_13" x="706.186" y="178" width="222.22" height="138" filterUnits="userSpaceOnUse" color-interpolation-filters="sRGB">
<feFlood flood-opacity="0" result="BackgroundImageFix"/>
<feColorMatrix in="SourceAlpha" type="matrix" values="0 0 0 0 0 0 0 0 0 0 0 0 0 0 0 0 0 0 127 0" result="hardAlpha"/>
<feOffset dy="6"/>
<feGaussianBlur stdDeviation="6"/>
<feColorMatrix type="matrix" values="0 0 0 0 0 0 0 0 0 0 0 0 0 0 0 0 0 0 0.12 0"/>
<feBlend mode="normal" in2="BackgroundImageFix" result="effect1_dropShadow_0_13"/>
<feBlend mode="normal" in="SourceGraphic" in2="effect1_dropShadow_0_13" result="shape"/>
</filter>
<filter id="filter3_d_0_13" x="477" y="178" width="222.277" height="138.033" filterUnits="userSpaceOnUse" color-interpolation-filters="sRGB">
<feFlood flood-opacity="0" result="BackgroundImageFix"/>
<feColorMatrix in="SourceAlpha" type="matrix" values="0 0 0 0 0 0 0 0 0 0 0 0 0 0 0 0 0 0 127 0" result="hardAlpha"/>
<feOffset dy="6"/>
<feGaussianBlur stdDeviation="6"/>
<feColorMatrix type="matrix" values="0 0 0 0 0 0 0 0 0 0 0 0 0 0 0 0 0 0 0.12 0"/>
<feBlend mode="normal" in2="BackgroundImageFix" result="effect1_dropShadow_0_13"/>
<feBlend mode="normal" in="SourceGraphic" in2="effect1_dropShadow_0_13" result="shape"/>
</filter>
</defs>
</svg>
