<svg width="121" height="120" viewBox="0 0 121 120" fill="none" xmlns="http://www.w3.org/2000/svg">
<rect x="1.74805" y="1" width="117.916" height="117.916" rx="12" stroke="#9B6310" stroke-width="2"/>
<rect x="68.0762" y="12.791" width="40.4285" height="40.4285" rx="4.57143" fill="#7887A2"/>
<path d="M75.5215 23.1728H85.3994" stroke="white" stroke-width="1.44397" stroke-linecap="round"/>
<path d="M90.4355 23.1728H94.8257" stroke="white" stroke-width="1.44397" stroke-linecap="round"/>
<path d="M75.5215 28.3516H101.062" stroke="white" stroke-width="1.44397" stroke-linecap="round"/>
<path d="M75.5215 33.0059H88.3937" stroke="white" stroke-width="1.44397" stroke-linecap="round"/>
<path d="M92.502 33.0039H94.697" stroke="white" stroke-width="1.44397" stroke-linecap="round"/>
<path d="M79.8691 38.0586L100.926 38.0586" stroke="white" stroke-width="1.44397" stroke-linecap="round"/>
<path d="M84.9219 43.1133L95.8713 43.1133" stroke="white" stroke-width="1.44397" stroke-linecap="round"/>
<path d="M72.498 76.4463H82.3759" stroke="#7887A2" stroke-width="1.44397" stroke-linecap="round"/>
<path d="M87.4121 76.4463H91.8023" stroke="#7887A2" stroke-width="1.44397" stroke-linecap="round"/>
<path d="M72.498 81.625H98.0382" stroke="#7887A2" stroke-width="1.44397" stroke-linecap="round"/>
<path d="M72.498 86.2793H85.3703" stroke="#7887A2" stroke-width="1.44397" stroke-linecap="round"/>
<path d="M89.4805 86.2793H91.6756" stroke="#7887A2" stroke-width="1.44397" stroke-linecap="round"/>
<path d="M76.8457 91.334L97.9022 91.334" stroke="#7887A2" stroke-width="1.44397" stroke-linecap="round"/>
<path d="M81.8984 96.3867L92.8478 96.3867" stroke="#7887A2" stroke-width="1.44397" stroke-linecap="round"/>
<circle cx="26.8044" cy="26.0564" r="5.68526" fill="#008567"/>
<circle cx="39.0349" cy="91.3494" r="1.45093" fill="#008567"/>
<circle cx="26.8044" cy="79.1189" r="5.68526" fill="#008567"/>
<circle cx="26.8044" cy="93.6481" r="5.68526" fill="#008567"/>
<circle cx="40.7028" cy="25.8474" r="5.68526" fill="#008567"/>
<circle cx="40.7028" cy="78.9099" r="5.68526" fill="#008567"/>
<g style="mix-blend-mode:multiply">
<rect x="13.5391" y="12.791" width="40.4285" height="40.4285" rx="4.57143" stroke="#7630EA" stroke-width="1.14286"/>
</g>
<g style="mix-blend-mode:multiply">
<rect x="35.6484" y="87.9629" width="10.3177" height="10.3177" rx="1.16667" stroke="#7630EA"/>
</g>
<g style="mix-blend-mode:multiply">
<rect x="13.5391" y="65.8535" width="94.3332" height="39.7968" rx="4.57143" stroke="#7630EA" stroke-width="1.14286"/>
</g>
</svg>
