<?xml version="1.0" encoding="utf-8"?>
<!-- Generator: Adobe Illustrator 23.1.0, SVG Export Plug-In . SVG Version: 6.00 Build 0)  -->
<svg version="1.1" id="Layer_1" xmlns="http://www.w3.org/2000/svg" xmlns:xlink="http://www.w3.org/1999/xlink" x="0px" y="0px"
	 viewBox="0 0 120 120" style="enable-background:new 0 0 120 120;" xml:space="preserve">
<style type="text/css">
	.st0{fill:none;stroke:#FFBC44;stroke-width:2;}
	.st1{fill:#7887A2;}
	.st2{fill:none;stroke:#FFFFFF;stroke-width:1.444;stroke-linecap:round;}
	.st3{fill:none;stroke:#7887A2;stroke-width:1.444;stroke-linecap:round;}
	.st4{fill:#17EBA0;}
	.st5{fill:none;stroke:#7630EA;stroke-width:1.1429;}
	.st6{fill:none;stroke:#7630EA;}
</style>
<path class="st0" d="M13.7,1h93.9c6.6,0,12,5.4,12,12v93.9c0,6.6-5.4,12-12,12H13.7c-6.6,0-12-5.4-12-12V13C1.7,6.4,7.1,1,13.7,1z"
	/>
<path class="st1" d="M72.6,12.8h31.3c2.5,0,4.6,2,4.6,4.6v31.3c0,2.5-2,4.6-4.6,4.6H72.6c-2.5,0-4.6-2-4.6-4.6V17.4
	C68.1,14.8,70.1,12.8,72.6,12.8z"/>
<path class="st2" d="M75.5,23.2h9.9"/>
<path class="st2" d="M90.4,23.2h4.4"/>
<path class="st2" d="M75.5,28.4h25.5"/>
<path class="st2" d="M75.5,33h12.9"/>
<path class="st2" d="M92.5,33h2.2"/>
<path class="st2" d="M79.9,38.1h21.1"/>
<path class="st2" d="M84.9,43.1h10.9"/>
<path class="st3" d="M72.5,76.4h9.9"/>
<path class="st3" d="M87.4,76.4h4.4"/>
<path class="st3" d="M72.5,81.6H98"/>
<path class="st3" d="M72.5,86.3h12.9"/>
<path class="st3" d="M89.5,86.3h2.2"/>
<path class="st3" d="M76.8,91.3h21.1"/>
<path class="st3" d="M81.9,96.4h10.9"/>
<circle class="st4" cx="26.8" cy="26.1" r="5.7"/>
<circle class="st4" cx="39" cy="91.3" r="1.5"/>
<circle class="st4" cx="26.8" cy="79.1" r="5.7"/>
<circle class="st4" cx="26.8" cy="93.6" r="5.7"/>
<circle class="st4" cx="40.7" cy="25.8" r="5.7"/>
<circle class="st4" cx="40.7" cy="78.9" r="5.7"/>
<g>
	<path class="st5" d="M18.1,12.8h31.3c2.5,0,4.6,2,4.6,4.6v31.3c0,2.5-2,4.6-4.6,4.6H18.1c-2.5,0-4.6-2-4.6-4.6V17.4
		C13.5,14.8,15.6,12.8,18.1,12.8z"/>
</g>
<g>
	<path class="st6" d="M36.8,88h8c0.6,0,1.2,0.5,1.2,1.2v8c0,0.6-0.5,1.2-1.2,1.2h-8c-0.6,0-1.2-0.5-1.2-1.2v-8
		C35.6,88.5,36.2,88,36.8,88z"/>
</g>
<g>
	<path class="st5" d="M18.1,65.9h85.2c2.5,0,4.6,2,4.6,4.6v30.7c0,2.5-2,4.6-4.6,4.6H18.1c-2.5,0-4.6-2-4.6-4.6V70.4
		C13.5,67.9,15.6,65.9,18.1,65.9z"/>
</g>
</svg>
