<svg width="336" height="192" viewBox="0 0 336 192" fill="none" xmlns="http://www.w3.org/2000/svg">
<path fill-rule="evenodd" clip-rule="evenodd" d="M189.792 62.0415C194.831 62.0415 198.917 66.1269 198.917 71.1665V90.9373C198.917 94.9093 196.798 97.4928 194.149 99.1326C191.721 100.636 188.605 101.502 186.064 102.228C183.283 103.022 181.074 103.678 179.511 104.646C178.168 105.477 177.625 106.316 177.625 107.667V119.833C177.625 124.873 173.54 128.958 168.5 128.958C163.46 128.958 159.375 124.873 159.375 119.833V107.667C159.375 106.316 158.832 105.477 157.489 104.646C155.926 103.678 153.718 103.022 150.936 102.228C148.395 101.502 145.279 100.636 142.851 99.1326C140.202 97.4928 138.083 94.9093 138.083 90.9373V71.1665C138.083 66.1269 142.169 62.0415 147.208 62.0415H189.792ZM144.167 90.9373C144.167 92.2882 144.71 93.1267 146.053 93.9582C147.616 94.9259 149.824 95.5814 152.606 96.3761C155.146 97.1021 158.262 97.9679 160.691 99.4712C163.34 101.111 165.458 103.695 165.458 107.667V119.833C165.458 121.513 166.82 122.875 168.5 122.875C170.18 122.875 171.542 121.513 171.542 119.833V107.667C171.542 103.695 173.66 101.111 176.309 99.4712C178.738 97.9679 181.854 97.1021 184.395 96.3761C187.176 95.5814 189.384 94.9259 190.947 93.9582C192.29 93.1267 192.833 92.2882 192.833 90.9373V89.4165H144.167V90.9373ZM147.208 68.1248C145.529 68.1248 144.167 69.4866 144.167 71.1665V83.3332H192.833V71.1665C192.833 69.4866 191.472 68.1248 189.792 68.1248H185.229V77.2498C185.229 78.9297 183.867 80.2915 182.188 80.2915C180.508 80.2915 179.146 78.9297 179.146 77.2498V68.1248H177.625V71.1665C177.625 72.8464 176.263 74.2082 174.583 74.2082C172.904 74.2082 171.542 72.8464 171.542 71.1665V68.1248H147.208Z" fill="#E6E8E9"/>
</svg>
