<svg width="336" height="192" viewBox="0 0 336 192" fill="none" xmlns="http://www.w3.org/2000/svg">
<path fill-rule="evenodd" clip-rule="evenodd" d="M189.792 62.0417C194.831 62.0417 198.917 66.1271 198.917 71.1667V90.9375C198.917 94.9095 196.798 97.493 194.149 99.1328C191.721 100.636 188.605 101.502 186.064 102.228C183.283 103.023 181.075 103.678 179.511 104.646C178.168 105.477 177.625 106.316 177.625 107.667V119.833C177.625 124.873 173.54 128.958 168.5 128.958C163.461 128.958 159.375 124.873 159.375 119.833V107.667C159.375 106.316 158.832 105.477 157.489 104.646C155.926 103.678 153.718 103.023 150.936 102.228C148.395 101.502 145.28 100.636 142.851 99.1328C140.202 97.493 138.083 94.9095 138.083 90.9375V71.1667C138.083 66.1271 142.169 62.0417 147.208 62.0417H189.792ZM144.167 90.9375C144.167 92.2884 144.71 93.1269 146.053 93.9584C147.616 94.9261 149.824 95.5816 152.606 96.3763C155.147 97.1022 158.262 97.9681 160.691 99.4714C163.34 101.111 165.458 103.695 165.458 107.667V119.833C165.458 121.513 166.82 122.875 168.5 122.875C170.18 122.875 171.542 121.513 171.542 119.833V107.667C171.542 103.695 173.66 101.111 176.309 99.4714C178.738 97.9681 181.854 97.1022 184.395 96.3763C187.176 95.5816 189.384 94.9261 190.947 93.9584C192.29 93.1269 192.833 92.2884 192.833 90.9375V89.4167H144.167V90.9375ZM147.208 68.125C145.529 68.125 144.167 69.4868 144.167 71.1667V83.3334H192.833V71.1667C192.833 69.4868 191.472 68.125 189.792 68.125H185.229V77.25C185.229 78.9299 183.868 80.2917 182.188 80.2917C180.508 80.2917 179.146 78.9299 179.146 77.25V68.125H177.625V71.1667C177.625 72.8466 176.263 74.2084 174.583 74.2084C172.904 74.2084 171.542 72.8466 171.542 71.1667V68.125H147.208Z" fill="#3E4550"/>
</svg>
