<svg width="336" height="192" viewBox="0 0 336 192" fill="none" xmlns="http://www.w3.org/2000/svg">
<rect width="336" height="192" fill="#5F2A27"/>
<path fill-rule="evenodd" clip-rule="evenodd" d="M135 67C135 61.4772 139.477 57 145 57H203C204.105 57 205 56.1046 205 55C205 53.8954 204.105 53 203 53H145C137.268 53 131 59.268 131 67V127C131 128.105 131.895 129 133 129C134.105 129 135 128.105 135 127V67ZM153 65C147.477 65 143 69.4772 143 75C143 80.5228 147.477 85 153 85C158.523 85 163 80.5228 163 75C163 69.4772 158.523 65 153 65ZM147 75C147 71.6863 149.686 69 153 69C156.314 69 159 71.6863 159 75C159 78.3137 156.314 81 153 81C149.686 81 147 78.3137 147 75ZM174 65C170.686 65 168 67.6863 168 71V79C168 82.3137 170.686 85 174 85H196C199.314 85 202 82.3137 202 79V71C202 67.6863 199.314 65 196 65H174ZM172 71C172 69.8954 172.895 69 174 69H196C197.105 69 198 69.8954 198 71V79C198 80.1046 197.105 81 196 81H174C172.895 81 172 80.1046 172 79V71ZM143 96C143 94.8954 143.895 94 145 94H181C182.105 94 183 94.8954 183 96C183 97.1046 182.105 98 181 98H145C143.895 98 143 97.1046 143 96ZM145 118C143.895 118 143 118.895 143 120C143 121.105 143.895 122 145 122H170C171.105 122 172 121.105 172 120C172 118.895 171.105 118 170 118H145ZM143 108C143 106.895 143.895 106 145 106H153C154.105 106 155 106.895 155 108C155 109.105 154.105 110 153 110H145C143.895 110 143 109.105 143 108ZM161 106C159.895 106 159 106.895 159 108C159 109.105 159.895 110 161 110H192C193.105 110 194 109.105 194 108C194 106.895 193.105 106 192 106H161ZM187 96C187 94.8954 187.895 94 189 94H200C201.105 94 202 94.8954 202 96C202 97.1046 201.105 98 200 98H189C187.895 98 187 97.1046 187 96Z" fill="white"/>
</svg>
