<svg width="336" height="192" viewBox="0 0 336 192" fill="none" xmlns="http://www.w3.org/2000/svg">
<rect x="16" y="11" width="24" height="8" fill="white" fill-opacity="0.2"/>
<rect x="16" y="29" width="24" height="8" fill="white" fill-opacity="0.3"/>
<rect x="16" y="41" width="24" height="8" fill="white" fill-opacity="0.3"/>
<rect x="16" y="53" width="24" height="8" fill="white" fill-opacity="0.3"/>
<rect x="16" y="65" width="24" height="8" fill="white" fill-opacity="0.3"/>
<rect x="16" y="77" width="24" height="8" fill="white" fill-opacity="0.3"/>
<rect x="16" y="89" width="24" height="8" fill="white" fill-opacity="0.3"/>
<rect x="16" y="101" width="24" height="8" fill="white" fill-opacity="0.3"/>
<rect x="16" y="113" width="24" height="8" fill="white" fill-opacity="0.3"/>
<rect x="16" y="125" width="24" height="8" fill="white" fill-opacity="0.3"/>
<rect x="16" y="137" width="24" height="8" fill="white" fill-opacity="0.3"/>
<rect x="16" y="149" width="24" height="8" fill="white" fill-opacity="0.3"/>
<rect x="16" y="161" width="24" height="8" fill="white" fill-opacity="0.3"/>
<rect x="16" y="173" width="24" height="8" fill="white" fill-opacity="0.3"/>
<rect x="44" y="11" width="24" height="8" fill="white" fill-opacity="0.2"/>
<rect x="44" y="29" width="24" height="8" fill="white" fill-opacity="0.3"/>
<rect x="44" y="41" width="24" height="8" fill="white" fill-opacity="0.3"/>
<rect x="44" y="53" width="24" height="8" fill="white" fill-opacity="0.3"/>
<rect x="44" y="65" width="24" height="8" fill="white" fill-opacity="0.3"/>
<rect x="44" y="77" width="24" height="8" fill="white" fill-opacity="0.3"/>
<rect x="44" y="89" width="24" height="8" fill="white" fill-opacity="0.3"/>
<rect x="44" y="101" width="24" height="8" fill="white" fill-opacity="0.3"/>
<rect x="44" y="113" width="24" height="8" fill="white" fill-opacity="0.3"/>
<rect x="44" y="125" width="24" height="8" fill="white" fill-opacity="0.3"/>
<rect x="44" y="137" width="24" height="8" fill="white" fill-opacity="0.3"/>
<rect x="44" y="149" width="24" height="8" fill="white" fill-opacity="0.3"/>
<rect x="44" y="161" width="24" height="8" fill="white" fill-opacity="0.3"/>
<rect x="44" y="173" width="24" height="8" fill="white" fill-opacity="0.3"/>
<rect x="72" y="11" width="24" height="8" fill="white" fill-opacity="0.2"/>
<rect x="72" y="29" width="24" height="8" fill="white" fill-opacity="0.3"/>
<rect x="72" y="41" width="24" height="8" fill="white" fill-opacity="0.3"/>
<rect x="72" y="53" width="24" height="8" fill="white" fill-opacity="0.3"/>
<rect x="72" y="65" width="24" height="8" fill="white" fill-opacity="0.3"/>
<rect x="72" y="77" width="24" height="8" fill="white" fill-opacity="0.3"/>
<rect x="72" y="89" width="24" height="8" fill="white" fill-opacity="0.3"/>
<rect x="72" y="101" width="24" height="8" fill="white" fill-opacity="0.3"/>
<rect x="72" y="113" width="24" height="8" fill="white" fill-opacity="0.3"/>
<rect x="72" y="125" width="24" height="8" fill="white" fill-opacity="0.3"/>
<rect x="72" y="137" width="24" height="8" fill="white" fill-opacity="0.3"/>
<rect x="72" y="149" width="24" height="8" fill="white" fill-opacity="0.3"/>
<rect x="72" y="161" width="24" height="8" fill="white" fill-opacity="0.3"/>
<rect x="72" y="173" width="24" height="8" fill="white" fill-opacity="0.3"/>
<rect x="100" y="11" width="24" height="8" fill="white" fill-opacity="0.2"/>
<rect x="100" y="29" width="24" height="8" fill="white" fill-opacity="0.3"/>
<rect x="100" y="41" width="24" height="8" fill="white" fill-opacity="0.3"/>
<rect x="100" y="53" width="24" height="8" fill="white" fill-opacity="0.3"/>
<rect x="100" y="65" width="24" height="8" fill="white" fill-opacity="0.3"/>
<rect x="100" y="77" width="24" height="8" fill="white" fill-opacity="0.3"/>
<rect x="100" y="89" width="24" height="8" fill="white" fill-opacity="0.3"/>
<rect x="100" y="101" width="24" height="8" fill="white" fill-opacity="0.3"/>
<rect x="100" y="113" width="24" height="8" fill="white" fill-opacity="0.3"/>
<rect x="100" y="125" width="24" height="8" fill="white" fill-opacity="0.3"/>
<rect x="100" y="137" width="24" height="8" fill="white" fill-opacity="0.3"/>
<rect x="100" y="149" width="24" height="8" fill="white" fill-opacity="0.3"/>
<rect x="100" y="161" width="24" height="8" fill="white" fill-opacity="0.3"/>
<rect x="100" y="173" width="24" height="8" fill="white" fill-opacity="0.3"/>
<rect x="128" y="11" width="24" height="8" fill="white" fill-opacity="0.2"/>
<rect x="128" y="29" width="24" height="8" fill="white" fill-opacity="0.3"/>
<rect x="128" y="41" width="24" height="8" fill="white" fill-opacity="0.3"/>
<rect x="128" y="53" width="24" height="8" fill="white" fill-opacity="0.3"/>
<rect x="128" y="65" width="24" height="8" fill="white" fill-opacity="0.3"/>
<rect x="128" y="77" width="24" height="8" fill="white" fill-opacity="0.3"/>
<rect x="128" y="89" width="24" height="8" fill="white" fill-opacity="0.3"/>
<rect x="128" y="101" width="24" height="8" fill="white" fill-opacity="0.3"/>
<rect x="128" y="113" width="24" height="8" fill="white" fill-opacity="0.3"/>
<rect x="128" y="125" width="24" height="8" fill="white" fill-opacity="0.3"/>
<rect x="128" y="137" width="24" height="8" fill="white" fill-opacity="0.3"/>
<rect x="128" y="149" width="24" height="8" fill="white" fill-opacity="0.3"/>
<rect x="128" y="161" width="24" height="8" fill="white" fill-opacity="0.3"/>
<rect x="128" y="173" width="24" height="8" fill="white" fill-opacity="0.3"/>
<rect x="156" y="11" width="24" height="8" fill="white" fill-opacity="0.2"/>
<rect x="156" y="29" width="24" height="8" fill="white" fill-opacity="0.3"/>
<rect x="156" y="41" width="24" height="8" fill="white" fill-opacity="0.3"/>
<rect x="156" y="53" width="24" height="8" fill="white" fill-opacity="0.3"/>
<rect x="156" y="65" width="24" height="8" fill="white" fill-opacity="0.3"/>
<rect x="156" y="77" width="24" height="8" fill="white" fill-opacity="0.3"/>
<rect x="156" y="89" width="24" height="8" fill="white" fill-opacity="0.3"/>
<rect x="156" y="101" width="24" height="8" fill="white" fill-opacity="0.3"/>
<rect x="156" y="113" width="24" height="8" fill="white" fill-opacity="0.3"/>
<rect x="156" y="125" width="24" height="8" fill="white" fill-opacity="0.3"/>
<rect x="156" y="137" width="24" height="8" fill="white" fill-opacity="0.3"/>
<rect x="156" y="149" width="24" height="8" fill="white" fill-opacity="0.3"/>
<rect x="156" y="161" width="24" height="8" fill="white" fill-opacity="0.3"/>
<rect x="156" y="173" width="24" height="8" fill="white" fill-opacity="0.3"/>
<rect x="184" y="11" width="24" height="8" fill="white" fill-opacity="0.2"/>
<rect x="184" y="29" width="24" height="8" fill="white" fill-opacity="0.3"/>
<rect x="184" y="41" width="24" height="8" fill="white" fill-opacity="0.3"/>
<rect x="184" y="53" width="24" height="8" fill="white" fill-opacity="0.3"/>
<rect x="184" y="65" width="24" height="8" fill="white" fill-opacity="0.3"/>
<rect x="184" y="77" width="24" height="8" fill="white" fill-opacity="0.3"/>
<rect x="184" y="89" width="24" height="8" fill="white" fill-opacity="0.3"/>
<rect x="184" y="101" width="24" height="8" fill="white" fill-opacity="0.3"/>
<rect x="184" y="113" width="24" height="8" fill="white" fill-opacity="0.3"/>
<rect x="184" y="125" width="24" height="8" fill="white" fill-opacity="0.3"/>
<rect x="184" y="137" width="24" height="8" fill="white" fill-opacity="0.3"/>
<rect x="184" y="149" width="24" height="8" fill="white" fill-opacity="0.3"/>
<rect x="184" y="161" width="24" height="8" fill="white" fill-opacity="0.3"/>
<rect x="184" y="173" width="24" height="8" fill="white" fill-opacity="0.3"/>
<rect x="212" y="11" width="24" height="8" fill="white" fill-opacity="0.2"/>
<rect x="212" y="29" width="24" height="8" fill="white" fill-opacity="0.3"/>
<rect x="212" y="41" width="24" height="8" fill="white" fill-opacity="0.3"/>
<rect x="212" y="53" width="24" height="8" fill="white" fill-opacity="0.3"/>
<rect x="212" y="65" width="24" height="8" fill="white" fill-opacity="0.3"/>
<rect x="212" y="77" width="24" height="8" fill="white" fill-opacity="0.3"/>
<rect x="212" y="89" width="24" height="8" fill="white" fill-opacity="0.3"/>
<rect x="212" y="101" width="24" height="8" fill="white" fill-opacity="0.3"/>
<rect x="212" y="113" width="24" height="8" fill="white" fill-opacity="0.3"/>
<rect x="212" y="125" width="24" height="8" fill="white" fill-opacity="0.3"/>
<rect x="212" y="137" width="24" height="8" fill="white" fill-opacity="0.3"/>
<rect x="212" y="149" width="24" height="8" fill="white" fill-opacity="0.3"/>
<rect x="212" y="161" width="24" height="8" fill="white" fill-opacity="0.3"/>
<rect x="212" y="173" width="24" height="8" fill="white" fill-opacity="0.3"/>
<rect x="240" y="11" width="24" height="8" fill="white" fill-opacity="0.2"/>
<rect x="240" y="29" width="24" height="8" fill="white" fill-opacity="0.3"/>
<rect x="240" y="41" width="24" height="8" fill="white" fill-opacity="0.3"/>
<rect x="240" y="53" width="24" height="8" fill="white" fill-opacity="0.3"/>
<rect x="240" y="65" width="24" height="8" fill="white" fill-opacity="0.3"/>
<rect x="240" y="77" width="24" height="8" fill="white" fill-opacity="0.3"/>
<rect x="240" y="89" width="24" height="8" fill="white" fill-opacity="0.3" stroke="#00E8CF" stroke-width="2"/>
<rect x="240" y="101" width="24" height="8" fill="white" fill-opacity="0.3"/>
<rect x="240" y="113" width="24" height="8" fill="white" fill-opacity="0.3"/>
<rect x="240" y="125" width="24" height="8" fill="white" fill-opacity="0.3"/>
<rect x="240" y="137" width="24" height="8" fill="white" fill-opacity="0.3"/>
<rect x="240" y="149" width="24" height="8" fill="white" fill-opacity="0.3"/>
<rect x="240" y="161" width="24" height="8" fill="white" fill-opacity="0.3"/>
<rect x="240" y="173" width="24" height="8" fill="white" fill-opacity="0.3"/>
<rect x="268" y="11" width="24" height="8" fill="white" fill-opacity="0.2"/>
<rect x="268" y="29" width="24" height="8" fill="white" fill-opacity="0.3"/>
<rect x="268" y="41" width="24" height="8" fill="white" fill-opacity="0.3"/>
<rect x="268" y="53" width="24" height="8" fill="white" fill-opacity="0.3"/>
<rect x="268" y="65" width="24" height="8" fill="white" fill-opacity="0.3"/>
<rect x="268" y="77" width="24" height="8" fill="white" fill-opacity="0.3"/>
<rect x="268" y="89" width="24" height="8" fill="white" fill-opacity="0.3"/>
<rect x="268" y="101" width="24" height="8" fill="white" fill-opacity="0.3"/>
<rect x="268" y="113" width="24" height="8" fill="white" fill-opacity="0.3"/>
<rect x="268" y="125" width="24" height="8" fill="white" fill-opacity="0.3"/>
<rect x="268" y="137" width="24" height="8" fill="white" fill-opacity="0.3"/>
<rect x="268" y="149" width="24" height="8" fill="white" fill-opacity="0.3"/>
<rect x="268" y="161" width="24" height="8" fill="white" fill-opacity="0.3"/>
<rect x="268" y="173" width="24" height="8" fill="white" fill-opacity="0.3"/>
<rect x="296" y="11" width="24" height="8" fill="white" fill-opacity="0.2"/>
<rect x="296" y="29" width="24" height="8" fill="white" fill-opacity="0.3"/>
<rect x="296" y="41" width="24" height="8" fill="white" fill-opacity="0.3"/>
<rect x="296" y="53" width="24" height="8" fill="white" fill-opacity="0.3"/>
<rect x="296" y="65" width="24" height="8" fill="white" fill-opacity="0.3"/>
<rect x="296" y="77" width="24" height="8" fill="white" fill-opacity="0.3"/>
<rect x="296" y="89" width="24" height="8" fill="white" fill-opacity="0.3"/>
<rect x="296" y="101" width="24" height="8" fill="white" fill-opacity="0.3"/>
<rect x="296" y="113" width="24" height="8" fill="white" fill-opacity="0.3"/>
<rect x="296" y="125" width="24" height="8" fill="white" fill-opacity="0.3"/>
<rect x="296" y="137" width="24" height="8" fill="white" fill-opacity="0.3"/>
<rect x="296" y="149" width="24" height="8" fill="white" fill-opacity="0.3"/>
<rect x="296" y="161" width="24" height="8" fill="white" fill-opacity="0.3"/>
<rect x="296" y="173" width="24" height="8" fill="white" fill-opacity="0.3"/>
<path opacity="0.2" d="M16 24H320" stroke="white"/>
</svg>
