<?xml version="1.0" encoding="UTF-8"?>
<svg width="192px" height="81px" viewBox="0 0 192 81" version="1.1" xmlns="http://www.w3.org/2000/svg" xmlns:xlink="http://www.w3.org/1999/xlink">
    <g id="Dark" stroke="none" stroke-width="1" fill="none" fill-rule="evenodd">
        <g id="aries-foundation-branding" transform="translate(-146.000000, -2116.000000)" fill-rule="nonzero">
            <g id="Group-4-Copy" transform="translate(146.000000, 2116.000000)">
                <path d="M106.623991,67.9306836 L113.235693,67.9306836 C113.15339,65.9710773 112.179467,64.4636878 110.1356,64.4636878 C108.228906,64.4636878 106.980639,65.888856 106.623991,67.9306836 L106.623991,67.9306836 Z M110.574552,76.1391044 C106.67886,76.1391044 104.017718,73.5491352 104.017718,69.3832589 C104.017718,65.2173825 106.486819,62.3259354 110.080732,62.3259354 C113.743231,62.3259354 115.636208,64.9570152 115.636208,68.8351172 L115.636208,69.9862147 L106.514253,69.9862147 C106.788598,72.6721086 108.503251,73.973945 110.890048,73.973945 C112.371508,73.973945 113.427735,73.64506 114.607416,72.7680334 L114.703436,72.7680334 L114.703436,74.9743035 C113.633493,75.8102194 112.206901,76.1391044 110.574552,76.1391044 L110.574552,76.1391044 Z M97.8312496,68.1225331 C99.7379438,68.7254889 101.850397,69.5065907 101.850397,72.0417458 C101.850397,74.7550468 99.6144888,76.1391044 96.7475888,76.1391044 C95.0055012,76.1391044 93.2496964,75.7142947 92.2483389,74.9331928 L92.2483389,72.5487768 L92.371794,72.5487768 C93.4828892,73.5765423 95.1426734,74.0287592 96.7201543,74.0287592 C98.1330285,74.0287592 99.4087304,73.4806175 99.4087304,72.3432237 C99.4087304,71.1647192 98.3525041,70.8906483 96.2674859,70.2054713 C94.4019433,69.6025155 92.3169251,68.903635 92.3169251,66.4095906 C92.3169251,63.8470285 94.4293777,62.339639 97.1179538,62.339639 C98.6954347,62.339639 100.080874,62.668524 101.19197,63.4222187 L101.19197,65.8340418 L101.095949,65.8340418 C100.012288,64.9570152 98.7365864,64.4499842 97.1728227,64.4499842 C95.5953419,64.4499842 94.7311567,65.1488648 94.7311567,66.0807056 C94.7311567,67.1221747 95.6913624,67.4236526 97.8312496,68.1225331 L97.8312496,68.1225331 Z M86.3910838,62.6000063 L88.901336,62.6000063 L88.901336,75.8650336 L86.3910838,75.8650336 L86.3910838,62.6000063 Z M87.6393513,57.2282183 C88.5172537,57.2282183 89.2442666,57.9133954 89.2442666,58.790422 C89.2442666,59.6674486 88.5172537,60.3526256 87.6393513,60.3526256 C86.7888833,60.3526256 86.034436,59.653745 86.034436,58.790422 C86.034436,57.9270989 86.7888833,57.2282183 87.6393513,57.2282183 L87.6393513,57.2282183 Z M79.4227334,64.6555374 C79.9988569,63.2440727 81.2608416,62.3944531 82.7148675,62.3944531 C83.2909909,62.3944531 83.7985283,62.4903779 84.0180039,62.6000063 L84.0180039,65.0666436 L83.9219833,65.0666436 C83.5653354,64.8884975 82.9617775,64.7925728 82.3445024,64.7925728 C80.9864971,64.7925728 79.8342502,65.6970064 79.4227334,67.2043959 L79.4227334,75.8650336 L76.9124812,75.8650336 L76.9124812,62.6000063 L79.4227334,62.6000063 L79.4227334,64.6555374 Z M67.4613131,73.8780202 C69.9441309,73.8780202 71.3844395,71.9184139 71.3844395,69.2325199 C71.3844395,66.574033 69.9304137,64.5870196 67.4613131,64.5870196 C66.1033079,64.5870196 64.8413231,65.3955285 64.1691791,66.6973649 L64.1691791,71.795082 C64.8413231,73.0969184 66.1033079,73.8780202 67.4613131,73.8780202 L67.4613131,73.8780202 Z M67.8865471,62.3259354 C71.837108,62.3259354 73.9495606,65.559971 73.9495606,69.2325199 C73.9495606,72.9187724 71.837108,76.1391044 67.8865471,76.1391044 C66.2541973,76.1391044 64.8687576,75.2894849 64.1691791,74.3850512 L64.1691791,80.9627507 L61.6589269,80.9627507 L61.6589269,62.6000063 L64.1691791,62.6000063 L64.1691791,64.1073957 C64.8687576,63.175555 66.2541973,62.3259354 67.8865471,62.3259354 L67.8865471,62.3259354 Z M54.7865971,64.6555374 C55.3627206,63.2440727 56.6247053,62.3944531 58.0787312,62.3944531 C58.6548546,62.3944531 59.1623919,62.4903779 59.3818675,62.6000063 L59.3818675,65.0666436 L59.285847,65.0666436 C58.9154819,64.8884975 58.3256412,64.7925728 57.7083661,64.7925728 C56.3503608,64.7925728 55.1981139,65.6970064 54.7865971,67.2043959 L54.7865971,75.8650336 L52.2763449,75.8650336 L52.2763449,62.6000063 L54.7865971,62.6000063 L54.7865971,64.6555374 Z M40.2874902,67.9306836 L46.8991927,67.9306836 C46.8031721,65.9710773 45.8429663,64.4636878 43.7853826,64.4636878 C41.8924055,64.4636878 40.6578553,65.888856 40.2874902,67.9306836 L40.2874902,67.9306836 Z M44.2517682,76.1391044 C40.3560763,76.1391044 37.6949346,73.5491352 37.6949346,69.3832589 C37.6949346,65.2173825 40.1640352,62.3259354 43.7716654,62.3259354 C47.4204472,62.3259354 49.3271415,64.9570152 49.3271415,68.8351172 L49.3271415,69.9862147 L40.2051868,69.9862147 C40.4795313,72.6721086 42.1941845,73.973945 44.5809816,73.973945 C46.062442,73.973945 47.1186683,73.64506 48.2983496,72.7680334 L48.3943702,72.7680334 L48.3943702,74.9743035 C47.2969922,75.8102194 45.8704008,76.1391044 44.2517682,76.1391044 L44.2517682,76.1391044 Z M32.6881475,62.6000063 L36.1037365,62.6000063 L36.1037365,64.7377586 L32.6881475,64.7377586 L32.6881475,71.8910068 C32.6881475,73.3983963 33.4700293,73.9191308 34.8966207,73.9191308 C35.2944202,73.9191308 35.705937,73.8643167 36.0077159,73.7409848 L36.1037365,73.7409848 L36.1037365,75.8787371 C35.7470887,76.0294761 35.2258341,76.152808 34.5399729,76.152808 C31.4261627,76.152808 30.1916125,74.7413433 30.1916125,72.1376705 L30.1916125,64.7514621 L27.9008359,64.7514621 L27.9008359,62.6137098 L30.1916125,62.6137098 L30.1916125,59.0918999 L32.7018647,59.0918999 L32.7018647,62.6000063 L32.6881475,62.6000063 Z M21.3028506,62.3259354 C24.2932057,62.3259354 25.9529899,64.2855418 25.9529899,67.5195773 L25.9529899,75.8787371 L23.4427377,75.8787371 L23.4427377,67.588095 C23.4427377,65.8614489 22.5648353,64.6281303 20.6718583,64.6281303 C19.0943774,64.6281303 17.7775238,65.6284887 17.3248553,67.0399534 L17.3248553,75.8787371 L14.8146031,75.8787371 L14.8146031,62.6137098 L17.3248553,62.6137098 L17.3248553,64.545909 C18.1067372,63.2851833 19.4235908,62.3259354 21.3028506,62.3259354 L21.3028506,62.3259354 Z M0.0137172251,57.0226652 L11.6733586,57.0226652 L11.6733586,59.3111565 L2.64742445,59.3111565 L2.64742445,65.0666436 L10.8228906,65.0666436 L10.8228906,67.3003207 L2.63370722,67.3003207 L2.63370722,73.5765423 L11.6596414,73.5765423 L11.6596414,75.8650336 L0,75.8650336 L0,57.0226652 L0.0137172251,57.0226652 Z M188.008287,46.3064964 L188.008287,41.9898811 C187.349861,41.0306333 186.471958,40.6058235 185.470601,40.6058235 C183.714796,40.6058235 182.535115,41.8665493 182.535115,44.1687441 C182.535115,46.4572354 183.714796,47.7042576 185.470601,47.7042576 C186.471958,47.690554 187.349861,47.2657443 188.008287,46.3064964 L188.008287,46.3064964 Z M188.131743,49.4720143 C187.281275,50.554594 185.950704,51.1575498 184.14003,51.1575498 C180.697007,51.1575498 178.488533,48.019439 178.488533,44.1550406 C178.488533,40.2906421 180.697007,37.1251242 184.14003,37.1251242 C185.895835,37.1251242 187.15782,37.6732658 188.008287,38.6599208 L188.008287,32 L192,32 L192,50.8560719 L188.131743,50.8560719 L188.131743,49.4720143 Z M172.891905,39.6191686 C173.618918,38.1391862 174.675145,37.2895667 176.156605,37.2895667 C176.705294,37.2895667 177.240266,37.4128986 177.459741,37.5362304 L177.459741,41.3321112 L177.308852,41.3321112 C176.856183,41.1539651 176.307494,41.0306333 175.553047,41.0306333 C174.318497,41.0306333 173.344574,41.7569209 173.01536,43.1409785 L173.01536,50.8560719 L169.023648,50.8560719 L169.023648,37.4403056 L172.891905,37.4403056 L172.891905,39.6191686 Z M162.206187,46.6353814 L162.206187,45.484284 C161.602629,45.155399 160.820747,45.0320672 159.997714,45.0320672 C158.694577,45.0320672 157.912696,45.5116911 157.912696,46.5942708 C157.912696,47.7042576 158.694577,48.197585 159.874259,48.197585 C160.999071,48.2112886 161.835822,47.6357399 162.206187,46.6353814 L162.206187,46.6353814 Z M162.315925,49.540532 C161.438022,50.5957047 160.134886,51.1027357 158.749446,51.1027357 C156.129456,51.1027357 153.975852,49.4994214 153.975852,46.6627885 C153.975852,44.0317087 156.115739,42.291359 159.202115,42.291359 C160.176038,42.291359 161.163678,42.442098 162.19247,42.7435759 L162.19247,42.5106157 C162.19247,41.0580404 161.369436,40.4276775 159.229549,40.4276775 C157.871544,40.4276775 156.568408,40.8113766 155.457312,41.455443 L155.306423,41.455443 L155.306423,38.2625181 C156.335215,37.6595623 158.145888,37.1525313 159.929128,37.1525313 C163.975709,37.1525313 166.170465,39.0847305 166.170465,42.4558015 L166.170465,50.8697755 L162.302208,50.8697755 L162.302208,49.540532 L162.315925,49.540532 Z M144.716725,44.7716999 L144.716725,50.8697755 L140.73873,50.8697755 L140.73873,32.0137035 L144.716725,32.0137035 L144.716725,42.7435759 L148.735872,37.4403056 L153.262556,37.4403056 L153.262556,37.5910446 L148.434093,43.6891202 L153.262556,50.7190365 L153.262556,50.8697755 L148.708438,50.8697755 L144.716725,44.7716999 Z M127.446739,44.1687441 C127.446739,39.8521288 130.491963,37.1388277 134.483675,37.1388277 C135.896549,37.1388277 137.22712,37.4403056 138.228478,38.1665933 L138.228478,41.5787749 L138.077588,41.5787749 C137.199686,40.9073014 136.170894,40.5236023 134.991212,40.5236023 C133.002215,40.5236023 131.49332,41.8802528 131.49332,44.1687441 C131.49332,46.4572354 133.002215,47.7864788 134.991212,47.7864788 C136.170894,47.7864788 137.199686,47.3890761 138.077588,46.7313062 L138.228478,46.7313062 L138.228478,50.1434878 C137.22712,50.8697755 135.896549,51.1712534 134.483675,51.1712534 C130.491963,51.1712534 127.446739,48.4853594 127.446739,44.1687441 L127.446739,44.1687441 Z M121.438594,46.6353814 L121.438594,45.484284 C120.835036,45.155399 120.053154,45.0320672 119.230121,45.0320672 C117.926984,45.0320672 117.145103,45.5116911 117.145103,46.5942708 C117.145103,47.7042576 117.926984,48.197585 119.106666,48.197585 C120.231478,48.2112886 121.081946,47.6357399 121.438594,46.6353814 L121.438594,46.6353814 Z M121.562049,49.540532 C120.684147,50.5957047 119.394727,51.1027357 117.99557,51.1027357 C115.361863,51.1027357 113.221976,49.4994214 113.221976,46.6627885 C113.221976,44.0317087 115.361863,42.291359 118.448239,42.291359 C119.408445,42.291359 120.409802,42.442098 121.438594,42.7435759 L121.438594,42.5106157 C121.438594,41.0580404 120.629278,40.4276775 118.475673,40.4276775 C117.117668,40.4276775 115.814532,40.8113766 114.703436,41.455443 L114.552547,41.455443 L114.552547,38.2625181 C115.581339,37.6595623 117.392013,37.1525313 119.175252,37.1525313 C123.221833,37.1525313 125.430306,39.0847305 125.430306,42.4558015 L125.430306,50.8697755 L121.562049,50.8697755 L121.562049,49.540532 Z M105.444309,41.277297 C107.529328,41.277297 108.530685,40.0987925 108.530685,38.413257 C108.530685,36.6592038 107.529328,35.4944029 105.444309,35.4944029 L102.851754,35.4944029 L102.851754,41.277297 L105.444309,41.277297 Z M112.687004,38.3995535 C112.687004,42.4969121 109.943559,44.7305893 105.773523,44.7305893 L102.838037,44.7305893 L102.838037,50.8560719 L98.7365864,50.8560719 L98.7365864,32.0137035 L105.773523,32.0137035 C109.943559,32.0137035 112.687004,34.2473807 112.687004,38.3995535 L112.687004,38.3995535 Z M89.0522255,37.4403056 L92.0151461,37.4403056 L92.0151461,40.6332306 L89.0522255,40.6332306 L89.0522255,46.0872398 C89.0522255,47.2657443 89.5048939,47.8138859 90.7120097,47.8138859 C91.0412231,47.8138859 91.4664571,47.7864788 91.9191255,47.6357399 L92.0151461,47.6357399 L92.0151461,50.7738507 C91.4938915,50.9519967 90.7120097,51.1712534 89.57348,51.1712534 C86.3362149,51.1712534 85.0742302,49.691271 85.0742302,46.2790893 L85.0742302,40.6332306 L79.9577052,40.6332306 L79.9577052,46.0872398 C79.9577052,47.2657443 80.4103737,47.8138859 81.6174895,47.8138859 C81.9467029,47.8138859 82.3719368,47.7864788 82.8246053,47.6357399 L82.9206258,47.6357399 L82.9206258,50.7738507 C82.4130885,50.9519967 81.6174895,51.1712534 80.4789598,51.1712534 C77.2416946,51.1712534 75.9797099,49.691271 75.9797099,46.2790893 L75.9797099,40.6332306 L73.9221262,40.6332306 L73.9221262,37.4403056 L75.9797099,37.4403056 L75.9797099,33.7540532 L79.9577052,33.7540532 L79.9577052,37.4403056 L85.060513,37.4403056 L85.060513,33.7540532 L89.0385083,33.7540532 L89.0385083,37.4403056 L89.0522255,37.4403056 Z M64.1143102,42.5928369 L68.9976424,42.5928369 C68.9016218,41.2087793 68.3392155,40.2358279 66.7343002,40.2358279 C65.5271844,40.2495315 64.4709581,40.7565625 64.1143102,42.5928369 L64.1143102,42.5928369 Z M67.2281203,51.1712534 C63.0580839,51.1712534 60.2186183,48.5401736 60.2186183,44.2372618 C60.2186183,40.0439784 63.003215,37.1525313 66.6794313,37.1525313 C70.6985783,37.1525313 72.6875759,39.8384252 72.6875759,43.8535627 L72.6875759,45.3609521 L64.1143102,45.3609521 C64.5944131,47.4438903 66.2267629,47.9783284 67.8591127,47.9783284 C69.2719869,47.9783284 70.3007787,47.6768505 71.5764807,46.8957487 L71.7273702,46.8957487 L71.7273702,50.0064524 C70.6299921,50.7738507 69.0936629,51.1712534 67.2281203,51.1712534 L67.2281203,51.1712534 Z M57.5986283,51.1712534 C54.3339287,51.1712534 53.0033579,49.869417 53.0033579,46.827231 L53.0033579,32.0137035 L56.9813531,32.0137035 L56.9813531,46.5531602 C56.9813531,47.4850009 57.338001,47.8138859 58.1336001,47.8138859 C58.4079446,47.8138859 58.7920269,47.7179611 59.0389369,47.6357399 L59.0938058,47.6357399 L59.0938058,50.9245896 C58.7645924,51.0479215 58.2021862,51.1712534 57.5986283,51.1712534 L57.5986283,51.1712534 Z M41.0830892,42.9628325 L38.9706366,50.8697755 L35.3767236,50.8697755 L31.261556,37.5910446 L31.261556,37.4403056 L35.1846824,37.4403056 L37.4205901,45.3746557 L39.5330428,37.4403056 L42.7291562,37.4403056 L44.8690434,45.3746557 L47.1323855,37.4403056 L50.9046224,37.4403056 L50.9046224,37.5910446 L46.8031721,50.8697755 L43.2092591,50.8697755 L41.0830892,42.9628325 Z M21.7829535,42.5928369 L26.6800029,42.5928369 C26.5839823,41.2087793 26.0215761,40.2358279 24.4166607,40.2358279 C23.2095449,40.2495315 22.1533186,40.7565625 21.7829535,42.5928369 L21.7829535,42.5928369 Z M24.8967636,51.1712534 C20.7267272,51.1712534 17.8872616,48.5401736 17.8872616,44.2372618 C17.8872616,40.0439784 20.6718583,37.1525313 24.3480746,37.1525313 C28.3672215,37.1525313 30.3562192,39.8384252 30.3562192,43.8535627 L30.3562192,45.3609521 L21.7829535,45.3609521 C22.2630564,47.4438903 23.8954062,47.9783284 25.5277559,47.9783284 C26.9406301,47.9783284 27.969422,47.6768505 29.245124,46.8957487 L29.3960134,46.8957487 L29.3960134,50.0064524 C28.3123526,50.7738507 26.7623062,51.1712534 24.8967636,51.1712534 L24.8967636,51.1712534 Z M4.12888476,50.8560719 L0.0274344502,50.8560719 L0.0274344502,32.0137035 L4.12888476,32.0137035 L4.12888476,39.4684297 L11.4676002,39.4684297 L11.4676002,32.0137035 L15.5690505,32.0137035 L15.5690505,50.8697755 L11.4676002,50.8697755 L11.4676002,43.0587573 L4.12888476,43.0587573 L4.12888476,50.8560719 Z" id="Shape" fill="#FFFFFF"></path>
                <path d="M61.9861608,16 L4,16 L4,4 L62,4 L62,16 L61.9861608,16 Z M0,0 L0,20 L0,20 L66,20 L66,0 L0,0 Z" id="Shape" fill="#00C781"></path>
            </g>
        </g>
    </g>
</svg>