<svg width="52" height="37" viewBox="0 0 52 37" fill="none" xmlns="http://www.w3.org/2000/svg">
<path d="M24.9963 25.1621C24.9963 31.5134 20.3997 36.6621 13.4961 36.6621C6.59253 36.6621 1.99609 31.5134 1.99609 25.1621C1.99609 18.8108 6.59253 14.6621 13.4961 14.6621C20.3997 14.6621 24.9963 18.8108 24.9963 25.1621Z" fill="#01A982"/>
<path d="M13.4961 0.662109L5.99609 12.1621L14.9961 18.1621L25.9961 0.662109H13.4961Z" fill="#01A982"/>
<ellipse cx="8.95364" cy="13.1391" rx="3" ry="13.3085" transform="rotate(28.3148 8.95364 13.1391)" fill="#01A982"/>
<path d="M50.9963 25.1621C50.9963 31.5134 46.3997 36.6621 39.4961 36.6621C32.5925 36.6621 27.9961 31.5134 27.9961 25.1621C27.9961 18.8108 32.5925 14.6621 39.4961 14.6621C46.3997 14.6621 50.9963 18.8108 50.9963 25.1621Z" fill="#01A982"/>
<path d="M39.4961 0.662109L31.9961 12.1621L40.9961 18.1621L51.9961 0.662109H39.4961Z" fill="#01A982"/>
<ellipse cx="34.9536" cy="13.1391" rx="3" ry="13.3085" transform="rotate(28.3148 34.9536 13.1391)" fill="#01A982"/>
</svg>
