<svg width="336" height="192" viewBox="0 0 336 192" fill="none" xmlns="http://www.w3.org/2000/svg">
<g clip-path="url(#clip0)">
<path d="M22 88L14 96L22 104" stroke="white" stroke-width="2"/>
<path d="M55.99 98.516V101H63.73V98.516H61.462V89.948H59.536L56.08 91.604V94.358L58.672 93.08V98.516H55.99Z" fill="white"/>
<path d="M89.342 99.434C89.342 100.388 90.08 101.126 90.998 101.126C91.934 101.126 92.672 100.388 92.672 99.434C92.672 98.48 91.934 97.76 90.998 97.76C90.08 97.76 89.342 98.48 89.342 99.434ZM93.3498 99.434C93.3498 100.388 94.0878 101.126 95.0058 101.126C95.9418 101.126 96.6798 100.388 96.6798 99.434C96.6798 98.48 95.9418 97.76 95.0058 97.76C94.0878 97.76 93.3498 98.48 93.3498 99.434ZM97.3576 99.434C97.3576 100.388 98.0956 101.126 99.0136 101.126C99.9496 101.126 100.688 100.388 100.688 99.434C100.688 98.48 99.9496 97.76 99.0136 97.76C98.0956 97.76 97.3576 98.48 97.3576 99.434Z" fill="white"/>
<path d="M129.708 96.716L132.156 89.948H129.528L126.162 98.984V99.056H131.328V101H133.776V99.056H135.018V96.716H133.776V94.664H131.328V96.716H129.708Z" fill="white"/>
<path d="M148 82C148 79.7909 149.791 78 152 78H178C180.209 78 182 79.7909 182 82V110C182 112.209 180.209 114 178 114H152C149.791 114 148 112.209 148 110V82Z" fill="white" fill-opacity="0.08"/>
<path d="M164.428 93.746C164.086 93.746 163.708 93.782 163.492 93.836V92.432H167.956V89.948H161.242V96.482C161.944 96.212 162.934 96.05 163.816 96.05C165.004 96.05 165.904 96.518 165.904 97.472C165.904 98.408 164.968 98.84 163.924 98.84C162.772 98.84 161.638 98.336 160.864 97.652V100.262C161.656 100.784 162.736 101.18 164.158 101.18C166.696 101.18 168.586 99.722 168.586 97.436C168.586 95.132 166.786 93.746 164.428 93.746Z" fill="#C0CADC"/>
<path d="M198.68 101.18C201.11 101.18 202.892 99.434 202.892 97.076C202.892 95.042 201.47 93.404 199.31 93.242C199.22 93.242 199.112 93.26 199.04 93.278L200.93 89.948H197.852L195.53 93.962C194.756 95.276 194.486 96.14 194.486 97.076C194.486 99.434 196.268 101.18 198.68 101.18ZM200.282 97.076C200.282 97.994 199.616 98.678 198.68 98.678C197.798 98.678 197.096 97.994 197.096 97.076C197.096 96.176 197.798 95.456 198.68 95.456C199.616 95.456 200.282 96.176 200.282 97.076Z" fill="white"/>
<path d="M228.342 99.434C228.342 100.388 229.08 101.126 229.998 101.126C230.934 101.126 231.672 100.388 231.672 99.434C231.672 98.48 230.934 97.76 229.998 97.76C229.08 97.76 228.342 98.48 228.342 99.434ZM232.35 99.434C232.35 100.388 233.088 101.126 234.006 101.126C234.942 101.126 235.68 100.388 235.68 99.434C235.68 98.48 234.942 97.76 234.006 97.76C233.088 97.76 232.35 98.48 232.35 99.434ZM236.358 99.434C236.358 100.388 237.096 101.126 238.014 101.126C238.95 101.126 239.688 100.388 239.688 99.434C239.688 98.48 238.95 97.76 238.014 97.76C237.096 97.76 236.358 98.48 236.358 99.434Z" fill="white"/>
<path d="M265.99 98.516V101H273.73V98.516H271.462V89.948H269.536L266.08 91.604V94.358L268.672 93.08V98.516H265.99ZM279.032 101.18C281.75 101.18 283.352 98.84 283.352 95.474C283.352 92.108 281.75 89.768 279.032 89.768C276.314 89.768 274.712 92.108 274.712 95.474C274.712 98.84 276.314 101.18 279.032 101.18ZM279.032 92.306C280.184 92.306 280.544 93.764 280.544 95.474C280.544 97.184 280.184 98.642 279.032 98.642C277.862 98.642 277.52 97.184 277.52 95.474C277.52 93.764 277.862 92.306 279.032 92.306Z" fill="white"/>
<path d="M317 88L325 96L317 104" stroke="white" stroke-width="2"/>
</g>
<defs>
<clipPath id="clip0">
<rect width="336" height="192" fill="white"/>
</clipPath>
</defs>
</svg>
