<?xml version="1.0" encoding="utf-8"?>
<!-- Generator: Adobe Illustrator 23.1.0, SVG Export Plug-In . SVG Version: 6.00 Build 0)  -->
<svg version="1.1" id="Layer_1" xmlns="http://www.w3.org/2000/svg" xmlns:xlink="http://www.w3.org/1999/xlink" x="0px" y="0px"
	 viewBox="0 0 144 144" style="enable-background:new 0 0 144 144;" xml:space="preserve">
<style type="text/css">
	.st0{fill:#354050;stroke:#69727D;}
	.st1{fill:#008567;}
	.st2{fill:#263040;}
	.st3{fill:#C0CADC;}
	.st4{fill:#CCCCCC;}
</style>
<g>
	<path class="st0" d="M16,6h112c2.2,0,4,1.8,4,4v112c0,2.2-1.8,4-4,4H16c-2.2,0-4-1.8-4-4V10C12,7.8,13.8,6,16,6z"/>
</g>
<path class="st1" d="M28,86h44c1.1,0,2,0.9,2,2v14c0,1.1-0.9,2-2,2H28c-1.1,0-2-0.9-2-2V88C26,86.9,26.9,86,28,86z"/>
<path class="st2" d="M28,53.5h88c0.8,0,1.5,0.7,1.5,1.5v17c0,0.8-0.7,1.5-1.5,1.5H28c-0.8,0-1.5-0.7-1.5-1.5V55
	C26.5,54.2,27.2,53.5,28,53.5z"/>
<path class="st3" d="M36.4,60.1c0-0.3-0.3-0.6-0.7-0.6S35,59.8,35,60.1s0.3,0.6,0.7,0.6C36.1,60.6,36.4,60.4,36.4,60.1z M36.2,67.6
	v-5.9h-1.1v5.9c0,0.6-0.3,0.8-0.9,0.8c-0.1,0-0.3,0-0.4,0v0.8c0.1,0,0.4,0,0.5,0C35.5,69.1,36.2,68.6,36.2,67.6z"/>
<path class="st3" d="M40.3,63.5v0.7c-0.2-0.2-0.8-0.4-1.3-0.4c-1.1,0-2,0.7-2,1.7c0,1.1,0.9,1.7,2,1.7c0.6,0,1.2-0.3,1.4-0.5V67h0.9
	v-3.6c0-1.1-0.7-1.8-2-1.8c-0.7,0-1.3,0.2-1.7,0.4v0.9c0.4-0.3,0.9-0.5,1.5-0.5C39.8,62.4,40.3,62.8,40.3,63.5z M40.3,65.1v0.6
	c-0.1,0.4-0.7,0.7-1.2,0.7c-0.6,0-1.3-0.3-1.3-0.9s0.6-0.9,1.3-0.9C39.6,64.5,40.1,64.7,40.3,65.1z"/>
<path class="st3" d="M42.7,61.7V67h0.9v-3.6c0.2-0.6,0.7-1,1.4-1c0.8,0,1.2,0.5,1.2,1.3V67H47v-3.5c0-1.2-0.7-1.9-1.9-1.9
	c-0.7,0-1.3,0.4-1.6,0.8v-0.7C43.5,61.7,42.7,61.7,42.7,61.7z"/>
<path class="st3" d="M49,64.5h3.7v-0.3c0-1.6-0.7-2.6-2.2-2.6c-1.4,0-2.4,1.2-2.4,2.8c0,1.7,1,2.7,2.6,2.7c0.6,0,1.2-0.1,1.6-0.5
	v-0.8c-0.5,0.4-0.9,0.5-1.5,0.5C49.9,66.3,49.1,65.7,49,64.5z M50.5,62.3c0.9,0,1.3,0.7,1.3,1.5h-2.7C49.3,62.8,49.8,62.3,50.5,62.3
	z"/>
<path class="st3" d="M59.5,65.3l0.5-2.9h-0.8l-0.1,0.4c-0.2-0.3-0.6-0.6-1.1-0.6c-1.3,0-2.2,1.2-2.2,2.5c0,1,0.6,1.8,1.6,1.8
	c0.5,0,1-0.3,1.2-0.7c0.2,0.4,0.6,0.7,1.2,0.7c1.2,0,2.3-0.9,2.3-2.9s-1.6-3.5-4-3.5c-2.7,0-4.5,2-4.5,4.5c0,2.9,2.2,4.1,4.6,4.1
	c1.1,0,2-0.3,2.6-0.5v-0.7c-0.7,0.3-1.5,0.6-2.6,0.6c-1.8,0-3.8-0.9-3.8-3.4c0-2.2,1.5-3.9,3.8-3.9c1.9,0,3.3,1.1,3.3,2.9
	c0,1.4-0.6,2.2-1.5,2.2C59.6,66,59.4,65.8,59.5,65.3z M59,63.7l-0.3,1.5c-0.3,0.4-0.6,0.7-1.1,0.7c-0.6,0-0.9-0.4-0.9-1.1
	c0-0.9,0.5-1.8,1.4-1.8C58.5,63.1,58.8,63.3,59,63.7z"/>
<path class="st3" d="M63.4,59.2V67h0.9v-3.6c0.2-0.6,0.7-1,1.4-1c0.8,0,1.2,0.5,1.2,1.3V67h0.9v-3.5c0-1.2-0.7-1.9-1.9-1.9
	c-0.7,0-1.3,0.4-1.6,0.8v-3.1L63.4,59.2L63.4,59.2z"/>
<path class="st3" d="M70.2,69v-2.7c0.3,0.4,0.8,0.7,1.5,0.7c1.6,0,2.4-1.3,2.4-2.8s-0.8-2.8-2.4-2.8c-0.7,0-1.2,0.3-1.5,0.7v-0.6
	h-0.9V69H70.2z M70.2,65.4v-2.2c0.3-0.6,0.8-0.9,1.4-0.9c1,0,1.6,0.8,1.6,2c0,1.1-0.6,2-1.6,2C71,66.3,70.4,66,70.2,65.4z"/>
<path class="st3" d="M75.8,64.5h3.7v-0.3c0-1.6-0.7-2.6-2.2-2.6c-1.4,0-2.4,1.2-2.4,2.8c0,1.7,1,2.7,2.6,2.7c0.6,0,1.2-0.1,1.6-0.5
	v-0.8c-0.5,0.4-0.9,0.5-1.5,0.5C76.6,66.3,75.8,65.7,75.8,64.5z M77.3,62.3c0.9,0,1.3,0.7,1.3,1.5h-2.7C76,62.8,76.6,62.3,77.3,62.3
	z"/>
<path class="st4" d="M80.3,66.4c0,0.4,0.3,0.6,0.6,0.6c0.3,0,0.6-0.3,0.6-0.6s-0.3-0.7-0.6-0.7C80.6,65.8,80.3,66,80.3,66.4z"/>
<path class="st3" d="M82.2,64.3c0,1.7,1.1,2.8,2.6,2.8c0.5,0,1.1-0.1,1.4-0.4v-0.9c-0.4,0.4-0.9,0.6-1.4,0.6c-0.9,0-1.7-0.7-1.7-2
	s0.8-2,1.7-2c0.5,0,1,0.2,1.4,0.6v-1c-0.4-0.3-0.9-0.4-1.4-0.4C83.3,61.6,82.2,62.6,82.2,64.3z"/>
<path class="st3" d="M92,64.3c0-1.6-1-2.8-2.4-2.8c-1.5,0-2.4,1.1-2.4,2.8c0,1.6,1,2.8,2.4,2.8C91,67.1,92,66,92,64.3z M91.1,64.3
	c0,1.2-0.6,2-1.5,2s-1.5-0.8-1.5-2c0-1.2,0.6-2,1.5-2S91.1,63.2,91.1,64.3z"/>
<path class="st3" d="M97,62.4c-0.3-0.5-0.8-0.9-1.4-0.9c-0.7,0-1.2,0.3-1.4,0.7v-0.6h-0.9V67h0.9v-3.7c0.2-0.6,0.6-0.9,1.2-0.9
	c0.7,0,1,0.5,1,1.2V67h0.9v-3.7c0.2-0.6,0.6-0.9,1.2-0.9c0.7,0,1,0.5,1,1.2V67h0.9v-3.5c0-1.2-0.6-1.9-1.7-1.9
	C97.9,61.6,97.3,61.9,97,62.4z"/>
<path class="st3" d="M26.9,39.1v1.2c0.6,0.5,1.5,0.8,2.7,0.8c1.7,0,2.9-0.9,2.9-2.4c0-1.2-0.6-1.9-1.9-2.4l-1.4-0.5
	c-0.8-0.3-1.3-0.6-1.3-1.3c0-0.9,0.7-1.3,1.7-1.3s1.8,0.4,2.5,0.9V33c-0.6-0.4-1.5-0.7-2.5-0.7c-1.5,0-2.8,0.8-2.8,2.3
	c0,1.4,0.9,1.9,1.9,2.3l1.3,0.5c0.9,0.4,1.4,0.7,1.4,1.4c0,0.9-0.7,1.4-1.8,1.4C28.6,40.1,27.7,39.8,26.9,39.1z M35.2,32.9
	c0-0.4-0.3-0.7-0.7-0.7s-0.7,0.3-0.7,0.7s0.3,0.7,0.7,0.7C34.9,33.6,35.2,33.3,35.2,32.9z M35,41v-6.2h-1V41H35z M41,40.2v0.4
	c0,1.3-0.9,2-2,2c-0.7,0-1.4-0.2-2-0.8V43c0.5,0.3,1.2,0.6,2,0.6c1.5,0,3-0.8,3-3v-5.7h-1v0.7c-0.3-0.4-1-0.8-1.7-0.8
	c-1.8,0-2.8,1.5-2.8,3.2s1,3.2,2.8,3.2C40,41,40.7,40.6,41,40.2z M41,36.6v2.5c-0.3,0.6-0.9,1-1.6,1c-1.2,0-1.9-0.9-1.9-2.2
	s0.7-2.2,1.9-2.2C40.1,35.6,40.7,36,41,36.6z M43.9,34.8V41h1v-4.2c0.2-0.7,0.9-1.2,1.6-1.2c0.9,0,1.4,0.6,1.4,1.5V41H49v-4.1
	c0-1.4-0.8-2.3-2.2-2.3c-0.8,0-1.5,0.4-1.8,0.9v-0.8L43.9,34.8L43.9,34.8z M55.1,32.9c0-0.4-0.3-0.7-0.7-0.7s-0.7,0.3-0.7,0.7
	s0.3,0.7,0.7,0.7C54.7,33.6,55.1,33.3,55.1,32.9z M54.9,41v-6.2h-1V41H54.9z M56.8,34.8V41h1v-4.2c0.2-0.7,0.9-1.2,1.6-1.2
	c0.9,0,1.4,0.6,1.4,1.5V41h1.1v-4.1c0-1.4-0.8-2.3-2.2-2.3c-0.8,0-1.5,0.4-1.8,0.9v-0.8L56.8,34.8L56.8,34.8z"/>
</svg>
