<?xml version="1.0" encoding="utf-8"?>
<!-- Generator: Adobe Illustrator 23.1.0, SVG Export Plug-In . SVG Version: 6.00 Build 0)  -->
<svg version="1.1" id="Layer_1" xmlns="http://www.w3.org/2000/svg" xmlns:xlink="http://www.w3.org/1999/xlink" x="0px" y="0px"
	 viewBox="0 0 120 120" style="enable-background:new 0 0 120 120;" xml:space="preserve">
<style type="text/css">
	.st0{fill:#EFEFEF;}
	.st1{fill:#FFFFFF;}
	.st2{fill:#444444;}
	.st3{fill-rule:evenodd;clip-rule:evenodd;fill:#00C781;}
	.st4{fill:none;stroke:#CCCCCC;stroke-width:0.7222;}
	.st5{fill:none;stroke:#EFEFEF;}
</style>
<g>
	<path class="st0" d="M4,0.5h112c1.9,0,3.5,1.6,3.5,3.5v112c0,1.9-1.6,3.5-3.5,3.5H4c-1.9,0-3.5-1.6-3.5-3.5V4
		C0.5,2.1,2.1,0.5,4,0.5z"/>
	<rect class="st1" width="242.7" height="52"/>
	<path class="st2" d="M81.5,22.1h-2.1v3h-3.1v-3h-2.1v8h2.1v-3.2h3.1v3.2h2.1V22.1z M84.8,27.6h1.4c1.7,0,2.9-1,2.9-2.7
		c0-1.8-1.2-2.8-2.9-2.8h-3.5v8h2.1V27.6z M87.1,24.8c0,0.6-0.3,1-1.1,1h-1.2v-2H86C86.7,23.8,87.1,24.2,87.1,24.8z M95.7,22.1H90v8
		h5.7v-1.8h-3.7v-1.4h3.3v-1.8h-3.3v-1.2h3.7V22.1z"/>
	<path class="st2" d="M100.2,28.3v1.1c0.5,0.4,1.4,0.7,2.5,0.7c1.5,0,2.7-0.8,2.7-2.2c0-1.1-0.5-1.7-1.8-2.2l-1.3-0.5
		c-0.7-0.3-1.2-0.6-1.2-1.2c0-0.8,0.7-1.2,1.6-1.2c0.9,0,1.6,0.3,2.3,0.8v-1.1c-0.6-0.4-1.4-0.6-2.3-0.6c-1.4,0-2.6,0.7-2.6,2.1
		c0,1.3,0.9,1.8,1.8,2.2l1.2,0.5c0.8,0.4,1.3,0.6,1.3,1.3c0,0.8-0.7,1.3-1.7,1.3C101.8,29.3,100.9,29,100.2,28.3z M107.4,27.3h4V27
		c0-1.7-0.8-2.8-2.4-2.8c-1.5,0-2.6,1.3-2.6,3.1c0,1.8,1.1,3,2.8,3c0.7,0,1.3-0.1,1.8-0.5v-0.9c-0.5,0.4-1,0.5-1.6,0.5
		C108.3,29.3,107.4,28.7,107.4,27.3z M109,25c0.9,0,1.4,0.7,1.4,1.6h-3C107.6,25.5,108.3,25,109,25z M115.7,25.3v-1
		c-0.1-0.1-0.3-0.1-0.6-0.1c-0.6,0-1.2,0.4-1.4,0.9v-0.8h-1v5.8h1v-3.9c0.2-0.7,0.7-1.1,1.3-1.1C115.3,25.1,115.5,25.2,115.7,25.3z
		 M118.5,30.1h1l2.2-5.8h-1l-1.7,4.5l-1.7-4.5h-1.1L118.5,30.1z M123.9,22.5c0-0.4-0.3-0.6-0.6-0.6c-0.3,0-0.6,0.3-0.6,0.6
		c0,0.3,0.3,0.6,0.6,0.6C123.6,23.2,123.9,22.9,123.9,22.5z M123.8,30.1v-5.8h-1v5.8H123.8z M125.1,27.2c0,1.8,1.2,3,2.8,3
		c0.6,0,1.1-0.1,1.5-0.5v-1c-0.4,0.4-0.9,0.6-1.5,0.6c-1,0-1.9-0.8-1.9-2.1s0.8-2.1,1.9-2.1c0.6,0,1.1,0.2,1.5,0.6v-1
		c-0.4-0.4-1-0.5-1.5-0.5C126.3,24.2,125.1,25.3,125.1,27.2z M131.3,27.3h4V27c0-1.7-0.8-2.8-2.4-2.8c-1.5,0-2.6,1.3-2.6,3.1
		c0,1.8,1.1,3,2.8,3c0.7,0,1.3-0.1,1.8-0.5v-0.9c-0.5,0.4-1,0.5-1.6,0.5C132.2,29.3,131.4,28.7,131.3,27.3z M133,25
		c0.9,0,1.4,0.7,1.4,1.6h-3C131.6,25.5,132.2,25,133,25z M145.8,30.1v-8h-1v6.1l-4.3-6.1h-1v8h1v-6.3l4.5,6.3H145.8z M150.8,26.2V27
		c-0.2-0.2-0.8-0.5-1.4-0.5c-1.2,0-2.2,0.7-2.2,1.8c0,1.1,1,1.8,2.1,1.8c0.7,0,1.3-0.3,1.5-0.5v0.4h0.9v-3.9c0-1.2-0.8-2-2.2-2
		c-0.7,0-1.4,0.2-1.8,0.5v0.9c0.5-0.3,1-0.5,1.6-0.5C150.3,25.1,150.8,25.5,150.8,26.2z M150.8,28v0.6c-0.2,0.4-0.7,0.7-1.3,0.7
		c-0.7,0-1.4-0.3-1.4-1c0-0.7,0.7-1,1.4-1C150.1,27.3,150.7,27.6,150.8,28z M157.5,25.1c-0.3-0.5-0.8-0.9-1.6-0.9
		c-0.7,0-1.3,0.3-1.6,0.8v-0.7h-1v5.8h1v-4c0.2-0.6,0.7-1,1.3-1c0.7,0,1.1,0.5,1.1,1.3v3.7h1v-4c0.2-0.6,0.7-1,1.3-1
		c0.7,0,1.1,0.5,1.1,1.3v3.7h1v-3.8c0-1.2-0.7-2.1-1.8-2.1C158.5,24.2,157.9,24.6,157.5,25.1z M163.3,27.3h4V27
		c0-1.7-0.8-2.8-2.4-2.8c-1.5,0-2.6,1.3-2.6,3.1c0,1.8,1.1,3,2.8,3c0.7,0,1.3-0.1,1.8-0.5v-0.9c-0.5,0.4-1,0.5-1.6,0.5
		C164.2,29.3,163.3,28.7,163.3,27.3z M164.9,25c0.9,0,1.4,0.7,1.4,1.6h-3C163.5,25.5,164.2,25,164.9,25z"/>
	<path class="st3" d="M17.3,19.5H65v13H17.3V19.5z M20.2,22.4h41.9v7.2H20.2V22.4z"/>
	<path class="st4" d="M0,52h242.7"/>
</g>
<path class="st5" d="M4,0.5h112c1.9,0,3.5,1.6,3.5,3.5v112c0,1.9-1.6,3.5-3.5,3.5H4c-1.9,0-3.5-1.6-3.5-3.5V4C0.5,2.1,2.1,0.5,4,0.5
	z"/>
</svg>
