<?xml version="1.0" encoding="utf-8"?>
<!-- Generator: Adobe Illustrator 23.1.0, SVG Export Plug-In . SVG Version: 6.00 Build 0)  -->
<svg version="1.1" id="Layer_1" xmlns="http://www.w3.org/2000/svg" xmlns:xlink="http://www.w3.org/1999/xlink" x="0px" y="0px"
	 viewBox="0 0 121 120" style="enable-background:new 0 0 121 120;" xml:space="preserve">
<style type="text/css">
	.st0{fill-rule:evenodd;clip-rule:evenodd;fill:#C0CADC;}
	.st1{clip-path:url(#SVGID_2_);}
	.st2{fill:#C0CADC;}
</style>
<path class="st0" d="M10,3c-3.9,0-7,3.1-7,7c0,3.9,3.1,7,7,7c1.6,0,3-0.5,4.2-1.4l5.1,5.1l1.4-1.4l-5.1-5.1C16.5,13,17,11.6,17,10
	C17,6.1,13.9,3,10,3z M5,10c0-2.8,2.2-5,5-5c2.8,0,5,2.2,5,5c0,2.8-2.2,5-5,5C7.2,15,5,12.8,5,10z"/>
<g>
	<defs>
		<rect id="SVGID_1_" x="48" width="24" height="24"/>
	</defs>
	<clipPath id="SVGID_2_">
		<use xlink:href="#SVGID_1_"  style="overflow:visible;"/>
	</clipPath>
	<g class="st1">
		<path class="st0" d="M72,5c0-2.8-2.2-5-5-5H53c-2.8,0-5,2.2-5,5v8c0,2.8,2.2,5,5,5h11.6l7.4,6.1V5z M67,2c1.7,0,3,1.3,3,3v14.9
			L65.4,16H53c-1.7,0-3-1.3-3-3V5c0-1.7,1.3-3,3-3H67z M54,8h13V6H54V8z M58,12h9v-2h-9V12z"/>
	</g>
</g>
<path class="st0" d="M108,1c-3.9,0-7,3.1-7,7c0,2.3,1.1,4.3,2.7,5.6c-1,0.3-1.9,0.7-2.7,1.3C99.1,16.1,98,18.2,98,21v3h2v-3
	c0-2.2,0.9-3.6,2.2-4.5c1.4-1,3.4-1.5,5.8-1.5c2.4,0,4.4,0.5,5.8,1.4c1.3,0.9,2.2,2.4,2.2,4.6v3h2v-3c0-2.8-1.1-4.9-3.1-6.2
	c-0.8-0.5-1.7-1-2.7-1.2c1.7-1.3,2.7-3.3,2.7-5.6C115,4.1,111.9,1,108,1z M108,13c2.8,0,5-2.2,5-5c0-2.8-2.2-5-5-5s-5,2.2-5,5
	C103,10.8,105.2,13,108,13z"/>
<path class="st2" d="M12,50C6.5,50,2,54.5,2,60s4.5,10,10,10c5.5,0,10-4.5,10-10h-2c0,4.4-3.6,8-8,8c-4.4,0-8-3.6-8-8s3.6-8,8-8
	c3,0,5.6,1.6,6.9,4H15v2h7v-7h-2v3C18.2,51.6,15.3,50,12,50z"/>
<path class="st0" d="M99,96v24h20v-17.4l-6.6-6.6H99z M101,118V98h9v7h7v13H101z M116.6,103l-4.6-4.6v4.6H116.6z"/>
<path class="st0" d="M52,49h-4v2h3.2L54,62.2l0.2,0.8l0.8,3.2l0.2,0.8H56h13v-2H56.8l-0.5-2H68h0.8l0.2-0.8l2-9l0.3-1.2H70H53.5
	L53,49.8L52.8,49H52z M55.8,61L54,54h14.7l-1.6,7H55.8z M65,70c0-1.1,0.9-2,2-2s2,0.9,2,2s-0.9,2-2,2S65,71.1,65,70z M57,68
	c-1.1,0-2,0.9-2,2s0.9,2,2,2s2-0.9,2-2S58.1,68,57,68z"/>
<path class="st0" d="M13,101v-3h-2v3c-1.3,0-2.2,0-3,0h0h0c-0.4,0-0.7,0-1,0c-1.1,0-2.3,0.1-3.4,0.8c-1.1,0.7-2,2-2.5,3.9
	c-1,3.6-1,5.7-1,8.3c0,1.6,0.7,2.7,1.7,3.3c1,0.6,2.2,0.7,3.3,0.7c0.9,0,1.5-0.4,2-0.9c0.3-0.3,0.7-0.6,1-1h0h0h0l0,0h0
	c0.1-0.2,0.3-0.3,0.4-0.4c0.9-0.9,2-1.7,3.5-1.7s2.6,0.8,3.5,1.7c0.1,0.1,0.3,0.3,0.4,0.4h0h0h0c0.3,0.3,0.7,0.7,1,1
	c0.5,0.4,1.2,0.9,2,0.9c1,0,2.3-0.1,3.3-0.7c1.1-0.6,1.7-1.7,1.7-3.3c0-2.5,0-4.6-1-8.3c-0.5-1.9-1.4-3.1-2.5-3.9
	c-1.1-0.7-2.3-0.8-3.4-0.8c-0.3,0-0.6,0-1,0l0,0h0C15.2,101,14.3,101,13,101z M3,106.3c0.5-1.6,1.1-2.4,1.7-2.7
	c0.6-0.4,1.4-0.5,2.3-0.5c0.3,0,0.6,0,0.9,0h0c0.9,0,2.3,0,4.1,0c1.8,0,3.1,0,4.1,0l0,0c0.4,0,0.7,0,0.9,0c0.9,0,1.7,0.1,2.3,0.5
	c0.6,0.4,1.2,1.2,1.7,2.7c1,3.4,1,5.3,1,7.7v0c0,0.9-0.3,1.3-0.8,1.6c-0.5,0.3-1.3,0.4-2.2,0.4c-0.1,0-0.4-0.1-0.7-0.4
	c-0.3-0.2-0.5-0.5-0.8-0.8h0c-0.2-0.2-0.3-0.4-0.6-0.6c-1.1-1.1-2.6-2.3-4.9-2.3c-2.4,0-3.9,1.2-4.9,2.3c-0.2,0.2-0.4,0.4-0.6,0.6h0
	h0h0h0h0c-0.3,0.3-0.5,0.5-0.8,0.8C5.4,115.9,5.1,116,5,116c-1,0-1.7-0.1-2.2-0.4C2.3,115.3,2,114.9,2,114v0
	C2,111.5,2,109.6,3,106.3z M16,110c0-1.1,0.9-2,2-2s2,0.9,2,2s-0.9,2-2,2S16,111.1,16,110z M14,105c-1.1,0-2,0.9-2,2s0.9,2,2,2
	s2-0.9,2-2S15.1,105,14,105z M6,109H4v-2h2v-2h2v2h2v2H8v2H6V109z"/>
<path class="st0" d="M114.3,52.5c-0.5,0.7-1.6,1.3-4.3,1.5c0-1.1,0.2-1.9,0.7-2.5c0.5-0.7,1.6-1.3,4.3-1.5
	C115,51.1,114.8,51.9,114.3,52.5z M116,48c-3.6,0-5.7,0.8-6.9,2.3c-0.7,0.9-1,2.1-1,3.1c-1.3-0.9-3.2-1.4-6-1.4h-1v1v0.1
	c0,1.4,0,3.2,1.1,4.6c1.1,1.4,2.9,2.1,5.9,2.2v3h-7v2h1.2l1.8,6.3l0.2,0.7h0.8h8h0.8l0.2-0.7l1.8-6.3h1.2v-2h-7v-3v-1v-0.1v0v0v0
	c0-0.1,0-0.2,0-0.3V56c3-0.1,4.9-0.9,5.9-2.2c1.1-1.4,1.1-3.2,1.1-4.6V49v-1H116z M105.8,70l-1.4-5h9.3l-1.4,5H105.8z M103,54
	c0,1.1,0.2,1.9,0.7,2.5c0.5,0.7,1.6,1.3,4.3,1.5c0-1.1-0.2-1.9-0.7-2.5C106.8,54.8,105.7,54.2,103,54z"/>
<path class="st0" d="M48,108c0,6.6,5.4,12,12,12s12-5.4,12-12s-5.4-12-12-12S48,101.4,48,108z M60,118c-5.5,0-10-4.5-10-10
	s4.5-10,10-10s10,4.5,10,10S65.5,118,60,118z M61,110.6l3.3-3.3l1.4,1.4l-5,5l-0.7,0.7l-0.7-0.7l-5-5l1.4-1.4l3.3,3.3V102h2V110.6z"
	/>
</svg>
