<svg width="128" height="128" viewBox="0 0 128 128" fill="none" xmlns="http://www.w3.org/2000/svg">
<g filter="url(#filter0_d)">
<path d="M4 5.75C4 3.67893 5.67893 2 7.75 2H120.25C122.321 2 124 3.67893 124 5.75V118.25C124 120.321 122.321 122 120.25 122H7.75C5.67893 122 4 120.321 4 118.25V5.75Z" fill="#263040"/>
</g>
<path d="M86 14H56V26H86V14Z" fill="white" fill-opacity="0.08"/>
<path d="M112.125 14H99V26H112.125V14Z" fill="#606B7D"/>
<path d="M44.125 14H16V26H44.125V14Z" fill="#01A982"/>
<path d="M44 38H16V45H44V38Z" fill="#C0CADC"/>
<path d="M112 38H56V110H112V38Z" fill="white" fill-opacity="0.08"/>
<path d="M44 55H16V62H44V55Z" fill="#C0CADC"/>
<path d="M44 73H16V80H44V73Z" fill="#C0CADC"/>
<defs>
<filter id="filter0_d" x="0" y="0" width="128" height="128" filterUnits="userSpaceOnUse" color-interpolation-filters="sRGB">
<feFlood flood-opacity="0" result="BackgroundImageFix"/>
<feColorMatrix in="SourceAlpha" type="matrix" values="0 0 0 0 0 0 0 0 0 0 0 0 0 0 0 0 0 0 127 0"/>
<feOffset dy="2"/>
<feGaussianBlur stdDeviation="2"/>
<feColorMatrix type="matrix" values="0 0 0 0 0 0 0 0 0 0 0 0 0 0 0 0 0 0 0.24 0"/>
<feBlend mode="normal" in2="BackgroundImageFix" result="effect1_dropShadow"/>
<feBlend mode="normal" in="SourceGraphic" in2="effect1_dropShadow" result="shape"/>
</filter>
</defs>
</svg>
