<?xml version="1.0" encoding="utf-8"?>
<!-- Generator: Adobe Illustrator 23.1.0, SVG Export Plug-In . SVG Version: 6.00 Build 0)  -->
<svg version="1.1" id="Layer_1" xmlns="http://www.w3.org/2000/svg" xmlns:xlink="http://www.w3.org/1999/xlink" x="0px" y="0px"
	 viewBox="0 0 144 143" style="enable-background:new 0 0 144 143;" xml:space="preserve">
<style type="text/css">
	.st0{fill:#263040;}
	.st1{fill:none;stroke:#404B5C;stroke-miterlimit:10;}
	.st2{fill:#C0CADC;}
	.st3{fill:#008567;}
</style>
<g>
	<path class="st0" d="M12,9.8C12,7.7,13.7,6,15.8,6h112.5c2.1,0,3.8,1.7,3.8,3.8v112.5c0,2.1-1.7,3.8-3.8,3.8H15.8
		c-2.1,0-3.8-1.7-3.8-3.8V9.8z"/>
</g>
<path class="st1" d="M94,18H64v12h30V18z"/>
<path class="st2" d="M120.1,18H107v12h13.1V18z"/>
<path class="st3" d="M52.1,18H24v12h28.1V18z"/>
<path class="st2" d="M52,42H24v7h28V42z"/>
<path class="st1" d="M120,42H64v72h56V42z"/>
<path class="st2" d="M52,59H24v7h28V59z"/>
<path class="st2" d="M52,77H24v7h28V77z"/>
</svg>
