<?xml version="1.0" encoding="utf-8"?>
<!-- Generator: Adobe Illustrator 23.1.0, SVG Export Plug-In . SVG Version: 6.00 Build 0)  -->
<svg version="1.1" id="Layer_1" xmlns="http://www.w3.org/2000/svg" xmlns:xlink="http://www.w3.org/1999/xlink" x="0px" y="0px"
	 viewBox="0 0 120 120" style="enable-background:new 0 0 120 120;" xml:space="preserve">
<style type="text/css">
	.st0{fill:#C0CADC;}
</style>
<path class="st0" d="M49.2,30H33.5L11,88.9h15.3l4.1-11.4h21.4L56,88.9h15.6L49.2,30z M35.1,64.8l6-16.6l6,16.6H35.1z"/>
<path class="st0" d="M102.5,60.6v5.6c-1.8-1.6-6.2-3.5-10.7-3.5c-9.1,0-16.2,5.4-16.2,13.3c0,8.4,7.1,13.6,15.8,13.6
	c5,0,9.4-2.2,11-3.9v3.2h7V60c0-9-6-14.6-16-14.6c-5.3,0-10.4,1.5-13.2,3.6v6.8c3.6-2.3,7.4-3.7,12.1-3.7
	C98.6,52.1,102.5,55.3,102.5,60.6z M102.5,74v4.4c-1.2,3.2-5.4,5.3-9.9,5.3c-5.2,0-10.2-2.4-10.2-7.6c0-5.1,5-7.4,10.2-7.4
	C97.2,68.7,101.4,70.8,102.5,74z"/>
</svg>
